<svg width="24" height="24" viewBox="0 0 24 24" fill="none" xmlns="http://www.w3.org/2000/svg">
<mask id="mask0_44_148227" style="mask-type:luminance" maskUnits="userSpaceOnUse" x="0" y="0" width="24" height="24">
<path d="M24 0H0V24H24V0Z" fill="white"/>
</mask>
<g mask="url(#mask0_44_148227)">
<path fill-rule="evenodd" clip-rule="evenodd" d="M21.615 20.033C21.5475 20.033 21.48 20.033 21.42 20.0405C21.735 19.523 21.915 18.9155 21.915 18.2705C21.915 16.928 21.1425 15.773 20.025 15.2105C20.055 15.008 20.07 14.798 20.07 14.5805C20.07 14.2655 20.0325 13.9655 19.9725 13.673C20.775 12.818 21.2625 11.6705 21.2625 10.4105C21.2625 7.77055 19.125 5.64055 16.4925 5.64055C15.4425 5.64055 14.4675 5.98555 13.6725 6.56305C12.8775 4.74055 11.0625 3.47305 8.94754 3.47305C8.88754 3.47305 8.83504 3.47305 8.77504 3.47305C8.88754 3.21055 8.94754 2.92555 8.94754 2.63305C8.94754 1.41805 7.96504 0.435547 6.75004 0.435547C5.53504 0.435547 4.56754 1.40305 4.55254 2.60305C3.40504 1.40305 1.78504 0.653047 -0.00746059 0.653047C-2.27246 0.653047 -4.25996 1.85305 -5.36996 3.65305C-6.24746 2.73805 -7.48496 2.16805 -8.84996 2.16805C-10.4025 2.16805 -11.79 2.90305 -12.675 4.05055C-12.825 4.02805 -12.9825 4.01305 -13.14 4.01305C-14.4675 4.01305 -15.6 4.86805 -16.0125 6.05305C-18.21 6.48055 -19.8675 8.41555 -19.8675 10.7405C-19.8675 11.738 -19.56 12.6605 -19.0425 13.4255C-20.0625 13.6505 -20.82 14.5655 -20.82 15.6455C-20.82 16.028 -20.73 16.388 -20.565 16.6955C-20.7675 17.153 -20.8725 17.663 -20.8725 18.1955C-20.8725 18.728 -20.7675 19.2155 -20.5725 19.673C-21.0225 20.108 -21.3075 20.7155 -21.3075 21.398C-21.3075 21.458 -21.3075 21.518 -21.3075 21.578C-21.5925 21.233 -22.0125 21.0155 -22.4925 21.0155C-23.34 21.0155 -24.0225 21.698 -24.0225 22.5455C-24.0225 23.228 -23.5725 23.813 -22.95 24.008H-22.02C-21.975 23.993 -21.9375 23.978 -21.8925 23.963V24.008H23.385C23.76 23.588 23.985 23.033 23.985 22.4255C23.985 21.1055 22.92 20.0405 21.6 20.0405L21.615 20.033Z" fill="#89BC31"/>
<path fill-rule="evenodd" clip-rule="evenodd" d="M16.4849 5.63273C15.4349 5.63273 14.4599 5.97773 13.6649 6.55523C12.8699 4.73273 11.0549 3.46523 8.9399 3.46523C8.8799 3.46523 8.8274 3.46523 8.7749 3.46523C8.8799 3.20273 8.9399 2.91773 8.9399 2.62523C8.9399 1.41023 7.9574 0.427734 6.7424 0.427734C5.5274 0.427734 4.5599 1.39523 4.5449 2.59523C3.3974 1.39523 1.7849 0.645234 -0.0150986 0.645234C-2.2801 0.645234 -4.2676 1.84523 -5.3776 3.64523C-6.2551 2.73023 -7.4926 2.16023 -8.8576 2.16023C-10.4101 2.16023 -11.7976 2.89523 -12.6826 4.03523C-12.8326 4.01273 -12.9901 3.99773 -13.1476 3.99773C-14.4751 3.99773 -15.6076 4.85273 -16.0201 6.03773C-17.4751 6.32273 -18.6901 7.26023 -19.3501 8.53523C-18.6901 9.81023 -17.4751 10.7477 -16.0276 11.0327C-15.6151 12.2177 -14.4901 13.0727 -13.1551 13.0727C-12.9976 13.0727 -12.8401 13.0577 -12.6901 13.0352C-11.8051 14.1752 -10.4251 14.9177 -8.8651 14.9177C-7.5001 14.9177 -6.2626 14.3477 -5.3851 13.4402C-4.2751 15.2402 -2.2876 16.4402 -0.0225973 16.4402C1.7699 16.4402 3.3899 15.6902 4.5374 14.4902C4.5524 15.6902 5.5274 16.6577 6.7349 16.6577C7.9424 16.6577 8.9324 15.6752 8.9324 14.4602C8.9324 14.1602 8.8724 13.8752 8.7674 13.6127C8.8274 13.6127 8.8799 13.6127 8.9324 13.6127C11.0474 13.6127 12.8624 12.3452 13.6574 10.5227C14.4449 11.1002 15.4199 11.4452 16.4774 11.4452C18.4574 11.4452 20.1524 10.2452 20.8724 8.53523C20.1449 6.82523 18.4499 5.62523 16.4774 5.62523L16.4849 5.63273Z" fill="#98CD40"/>
<path fill-rule="evenodd" clip-rule="evenodd" d="M22.05 20.0705C21.5925 20.918 20.6925 21.4955 19.665 21.4955C19.0275 21.4955 18.4425 21.278 17.9775 20.9105C17.34 21.443 16.5225 21.7655 15.6225 21.7655C14.535 21.7655 13.56 21.293 12.8925 20.543C12.5025 20.8355 12.0225 21.008 11.505 21.008C10.89 21.008 10.3275 20.768 9.915 20.378C9.5925 20.5055 9.24 20.5805 8.8725 20.5805C8.4075 20.5805 7.9725 20.468 7.59 20.273C7.095 20.8205 6.3825 21.173 5.5875 21.173C4.2225 21.173 3.09 20.153 2.9175 18.833C2.415 19.658 1.5 20.2055 0.464999 20.2055C-0.180001 20.2055 -0.7725 19.9955 -1.2525 19.6355C-1.6275 20.783 -2.7075 21.6155 -3.9825 21.6155C-5.2575 21.6155 -6.3375 20.7905 -6.7125 19.643C-7.08 19.793 -7.485 19.883 -7.9125 19.883C-8.145 19.883 -8.37 19.8605 -8.5875 19.808C-8.91 20.618 -9.705 21.1805 -10.6275 21.1805C-10.89 21.1805 -11.145 21.1355 -11.385 21.0455C-12.06 21.9455 -13.1325 22.5305 -14.3475 22.5305C-16.3425 22.5305 -17.97 20.9405 -18.03 18.9605C-18.4575 19.2005 -18.945 19.3355 -19.47 19.3355C-19.935 19.3355 -20.37 19.2305 -20.76 19.043C-20.7075 19.2605 -20.64 19.4705 -20.5575 19.673C-21.0075 20.108 -21.2925 20.7155 -21.2925 21.398V21.578C-21.57 21.233 -21.99 21.0155 -22.47 21.0155C-23.3175 21.0155 -24 21.698 -24 22.5455C-24 23.228 -23.55 23.813 -22.9275 24.008H-21.9975L-21.87 23.963V24.008H23.4075C23.7825 23.588 24.0075 23.033 24.0075 22.4255C24.0075 21.2555 23.1675 20.2805 22.0575 20.078L22.05 20.0705Z" fill="#76A12A"/>
</g>
</svg>
