<svg width="24" height="24" viewBox="0 0 24 24" fill="none" xmlns="http://www.w3.org/2000/svg">
<g clip-path="url(#clip0_44_147132)">
<path fill-rule="evenodd" clip-rule="evenodd" d="M0 22.6328C4.08594 24.6328 4.01563 22.6328 6.02344 22.6328C8.23437 22.6328 10.5 24 12.7109 24C14.25 24 15.3437 23.3516 16.5937 23.3047C17.5937 23.2656 18.7344 23.8125 19.9609 23.8125C20.9687 23.8125 22.9844 22.6406 23.9922 22.6406V0H0V22.6328Z" fill="#7B4720"/>
<path fill-rule="evenodd" clip-rule="evenodd" d="M22.1484 20.6874C21.6172 19.6327 19.125 20.9218 18.8594 21.4765C16.375 26.5858 15.3516 18.0077 12.7578 20.1327C11.5391 21.1327 11.2656 20.6015 10.2578 20.0702C9.24219 19.5468 7.97656 20.8983 7.27344 21.5233C6.57031 22.1483 6.84375 22.414 5.92969 22.3436C5.00781 22.2733 4.40625 20.8827 3.19531 20.9296C1.98437 20.9765 2.1875 22.3046 0.0078125 21.953V22.6171C4.09375 24.6171 4.02344 22.6171 6.03125 22.6171C8.24219 22.6171 10.5078 23.9843 12.7188 23.9843C14.2578 23.9843 15.3516 23.3358 16.6016 23.289C17.6016 23.2499 18.7422 23.7968 19.9687 23.7968C20.9766 23.7968 22.9922 22.6249 24 22.6249V21.9608C23.0547 21.6405 22.6797 21.7421 22.1484 20.6796V20.6874Z" fill="#5E3518"/>
<path fill-rule="evenodd" clip-rule="evenodd" d="M21.1328 18.9998C19.9219 18.953 18.6875 20.6639 17.7656 20.7264C16.8437 20.7967 17.4375 21.2108 16.7344 20.5858C16.0312 19.9608 14.7578 18.6014 13.75 19.1326C12.7344 19.6561 12.4687 20.1873 11.25 19.1951C8.65625 17.0701 6.09375 21.9217 5.14844 20.5389C4.80469 20.0311 2.39063 18.6951 1.85938 19.7498C1.32813 20.8045 0.96875 20.9764 0.0078125 20.9764V21.9686C2.1875 22.3201 1.97656 20.992 3.19531 20.9451C4.40625 20.8983 5.00781 22.2889 5.92969 22.3592C6.85156 22.4295 6.57813 22.1639 7.27344 21.5389C7.97656 20.9139 9.25 19.5545 10.2578 20.0858C11.2734 20.6092 11.5391 21.1405 12.7578 20.1483C15.3516 18.0233 16.375 26.6014 18.8594 21.492C19.125 20.9373 21.6172 19.6483 22.1484 20.703C22.6797 21.7576 23.0391 21.9295 24 21.9295V20.992C21.8203 20.8905 22.3437 19.0623 21.1328 19.0155V18.9998Z" fill="#693C1C"/>
<path fill-rule="evenodd" clip-rule="evenodd" d="M1.01562 17.5469C0.773437 17.5469 0.578125 17.7422 0.578125 17.9844C0.578125 18.2266 0.773437 18.4219 1.01562 18.4219C1.25781 18.4219 1.45313 18.2266 1.45313 17.9844C1.45313 17.7422 1.25781 17.5469 1.01562 17.5469Z" fill="#693C1C"/>
<path fill-rule="evenodd" clip-rule="evenodd" d="M3.91406 15.9531C3.64844 15.9531 3.4375 16.1641 3.4375 16.4297C3.4375 16.6953 3.64844 16.9062 3.91406 16.9062C4.17969 16.9062 4.39062 16.6953 4.39062 16.4297C4.39062 16.1641 4.17969 15.9531 3.91406 15.9531Z" fill="#693C1C"/>
<path fill-rule="evenodd" clip-rule="evenodd" d="M6.23437 19.0312C5.96094 19.0312 5.73438 19.2578 5.73438 19.5312C5.73438 19.8047 5.96094 20.0312 6.23437 20.0312C6.50781 20.0312 6.73437 19.8047 6.73437 19.5312C6.73437 19.2578 6.50781 19.0312 6.23437 19.0312Z" fill="#693C1C"/>
<path fill-rule="evenodd" clip-rule="evenodd" d="M9.47656 16.2031C9.32031 16.2031 9.19531 16.3281 9.19531 16.4844C9.19531 16.6406 9.32031 16.7656 9.47656 16.7656C9.63281 16.7656 9.75781 16.6406 9.75781 16.4844C9.75781 16.3281 9.63281 16.2031 9.47656 16.2031Z" fill="#693C1C"/>
<path fill-rule="evenodd" clip-rule="evenodd" d="M12.5781 17.4688C12.4375 17.4688 12.3203 17.5859 12.3203 17.7266C12.3203 17.8672 12.4375 17.9844 12.5781 17.9844C12.7187 17.9844 12.8359 17.8672 12.8359 17.7266C12.8359 17.5859 12.7187 17.4688 12.5781 17.4688Z" fill="#693C1C"/>
<path fill-rule="evenodd" clip-rule="evenodd" d="M16.6562 16.9922C16.4609 16.9922 16.3047 17.1484 16.3047 17.3438C16.3047 17.5391 16.4609 17.6953 16.6562 17.6953C16.8516 17.6953 17.0078 17.5391 17.0078 17.3438C17.0078 17.1484 16.8516 16.9922 16.6562 16.9922Z" fill="#693C1C"/>
<path fill-rule="evenodd" clip-rule="evenodd" d="M18.6562 17.7734C18.2812 17.7734 17.9688 18.0781 17.9688 18.4609C17.9688 18.8437 18.2734 19.1406 18.6562 19.1406C19.0391 19.1406 19.3438 18.8359 19.3438 18.4609C19.3438 18.0859 19.0391 17.7734 18.6562 17.7734Z" fill="#693C1C"/>
<path fill-rule="evenodd" clip-rule="evenodd" d="M22.2188 17.6562C22 17.6562 21.8125 17.8359 21.8125 18.0625C21.8125 18.2891 21.9922 18.4687 22.2188 18.4687C22.4453 18.4687 22.625 18.2891 22.625 18.0625C22.625 17.8359 22.4453 17.6562 22.2188 17.6562Z" fill="#693C1C"/>
<path fill-rule="evenodd" clip-rule="evenodd" d="M9.53906 20.5234C9.07813 20.5234 8.71094 20.8984 8.71094 21.3516C8.71094 21.8047 9.08594 22.1797 9.53906 22.1797C9.99219 22.1797 10.3672 21.8047 10.3672 21.3516C10.3672 20.8984 9.99219 20.5234 9.53906 20.5234Z" fill="#693C1C"/>
<path fill-rule="evenodd" clip-rule="evenodd" d="M12.5547 22.5547C12.375 22.5547 12.2266 22.7031 12.2266 22.8828C12.2266 23.0625 12.375 23.2109 12.5547 23.2109C12.7344 23.2109 12.8828 23.0625 12.8828 22.8828C12.8828 22.7031 12.7344 22.5547 12.5547 22.5547Z" fill="#693C1C"/>
<path fill-rule="evenodd" clip-rule="evenodd" d="M21.7969 21.7969C21.5391 21.7969 21.3359 22.0078 21.3359 22.2578C21.3359 22.5078 21.5469 22.7188 21.7969 22.7188C22.0469 22.7188 22.2578 22.5078 22.2578 22.2578C22.2578 22.0078 22.0469 21.7969 21.7969 21.7969Z" fill="#693C1C"/>
<path fill-rule="evenodd" clip-rule="evenodd" d="M19.4766 22.6719C19.3437 22.6719 19.2344 22.7812 19.2344 22.9141C19.2344 23.0469 19.3437 23.1562 19.4766 23.1562C19.6094 23.1562 19.7187 23.0469 19.7187 22.9141C19.7187 22.7812 19.6094 22.6719 19.4766 22.6719Z" fill="#693C1C"/>
<path fill-rule="evenodd" clip-rule="evenodd" d="M13.7266 20.5234C13.4219 20.5234 13.1797 20.7734 13.1797 21.0703C13.1797 21.3672 13.4297 21.6172 13.7266 21.6172C14.0234 21.6172 14.2734 21.375 14.2734 21.0703C14.2734 20.7656 14.0234 20.5234 13.7266 20.5234Z" fill="#693C1C"/>
<path d="M3.33594 20.0781C3.5301 20.0781 3.6875 19.9207 3.6875 19.7266C3.6875 19.5324 3.5301 19.375 3.33594 19.375C3.14177 19.375 2.98438 19.5324 2.98438 19.7266C2.98438 19.9207 3.14177 20.0781 3.33594 20.0781Z" fill="#5E3518"/>
<path fill-rule="evenodd" clip-rule="evenodd" d="M6.75 21.2188C6.64844 21.2188 6.5625 21.3047 6.5625 21.4062C6.5625 21.5078 6.64844 21.5937 6.75 21.5937C6.85156 21.5937 6.9375 21.5078 6.9375 21.4062C6.9375 21.3047 6.85156 21.2188 6.75 21.2188Z" fill="#63391B"/>
<path fill-rule="evenodd" clip-rule="evenodd" d="M10.9219 19.1562C10.6719 19.1562 10.4688 19.3594 10.4688 19.6094C10.4688 19.8594 10.6719 20.0625 10.9219 20.0625C11.1719 20.0625 11.375 19.8594 11.375 19.6094C11.375 19.3594 11.1719 19.1562 10.9219 19.1562Z" fill="#5E3518"/>
<path fill-rule="evenodd" clip-rule="evenodd" d="M16.8984 20.8828C16.7578 20.8828 16.6406 21 16.6406 21.1406C16.6406 21.2812 16.7578 21.3984 16.8984 21.3984C17.0391 21.3984 17.1562 21.2812 17.1562 21.1406C17.1562 21 17.0391 20.8828 16.8984 20.8828Z" fill="#5E3518"/>
<path fill-rule="evenodd" clip-rule="evenodd" d="M22.8125 20.0234C22.6719 20.0234 22.5547 20.1406 22.5547 20.2812C22.5547 20.4219 22.6719 20.5391 22.8125 20.5391C22.9531 20.5391 23.0703 20.4219 23.0703 20.2812C23.0703 20.1406 22.9531 20.0234 22.8125 20.0234Z" fill="#693C1C"/>
<path d="M1.50781 14.4531C1.9134 14.4531 2.24219 14.1243 2.24219 13.7187C2.24219 13.3132 1.9134 12.9844 1.50781 12.9844C1.10223 12.9844 0.773438 13.3132 0.773438 13.7187C0.773438 14.1243 1.10223 14.4531 1.50781 14.4531Z" fill="#63391B"/>
<path fill-rule="evenodd" clip-rule="evenodd" d="M5.63281 17.8203C5.55469 17.8203 5.48438 17.8828 5.48438 17.9688C5.48438 18.0547 5.54688 18.1172 5.63281 18.1172C5.71875 18.1172 5.78125 18.0547 5.78125 17.9688C5.78125 17.8828 5.71875 17.8203 5.63281 17.8203Z" fill="#63391B"/>
<path fill-rule="evenodd" clip-rule="evenodd" d="M3.39844 1.47656C2.67187 1.47656 2.07812 2.07031 2.07812 2.79688C2.07812 3.52344 2.67187 4.11719 3.39844 4.11719C4.125 4.11719 4.71875 3.52344 4.71875 2.79688C4.71875 2.07031 4.125 1.47656 3.39844 1.47656Z" fill="#63391B"/>
<path fill-rule="evenodd" clip-rule="evenodd" d="M13.1641 15.7031C12.8594 15.7031 12.6172 15.9453 12.6172 16.25C12.6172 16.5547 12.8594 16.7969 13.1641 16.7969C13.4688 16.7969 13.7109 16.5547 13.7109 16.25C13.7109 15.9453 13.4688 15.7031 13.1641 15.7031Z" fill="#63391B"/>
<path fill-rule="evenodd" clip-rule="evenodd" d="M16.8594 4.09375C16.125 4.09375 15.5312 4.6875 15.5312 5.42188C15.5312 6.15625 16.125 6.75 16.8594 6.75C17.5938 6.75 18.1875 6.15625 18.1875 5.42188C18.1875 4.6875 17.5938 4.09375 16.8594 4.09375Z" fill="#63391B"/>
<path fill-rule="evenodd" clip-rule="evenodd" d="M18.7891 13.1797C18.4766 13.1797 18.2266 13.4297 18.2266 13.7422C18.2266 14.0547 18.4766 14.3047 18.7891 14.3047C19.1016 14.3047 19.3516 14.0547 19.3516 13.7422C19.3516 13.4297 19.1016 13.1797 18.7891 13.1797Z" fill="#63391B"/>
<path fill-rule="evenodd" clip-rule="evenodd" d="M22.2109 13.1562C22.0391 13.1562 21.8906 13.2969 21.8906 13.4766C21.8906 13.6562 22.0312 13.7969 22.2109 13.7969C22.3906 13.7969 22.5312 13.6562 22.5312 13.4766C22.5312 13.2969 22.3906 13.1562 22.2109 13.1562Z" fill="#63391B"/>
<path fill-rule="evenodd" clip-rule="evenodd" d="M8.54687 10.875C8.125 10.875 7.78906 11.2109 7.78906 11.6328C7.78906 12.0547 8.125 12.3906 8.54687 12.3906C8.96875 12.3906 9.30469 12.0547 9.30469 11.6328C9.30469 11.2109 8.96875 10.875 8.54687 10.875Z" fill="#63391B"/>
<path fill-rule="evenodd" clip-rule="evenodd" d="M8.54687 10.875C8.125 10.875 7.78906 11.2109 7.78906 11.6328C7.78906 12.0547 8.125 12.3906 8.54687 12.3906C8.96875 12.3906 9.30469 12.0547 9.30469 11.6328C9.30469 11.2109 8.96875 10.875 8.54687 10.875Z" fill="#63391B"/>
<path fill-rule="evenodd" clip-rule="evenodd" d="M22.3906 0.914062C21.9766 0.914062 21.6328 1.25 21.6328 1.67188C21.6328 2.09375 21.9687 2.42969 22.3906 2.42969C22.8125 2.42969 23.1484 2.09375 23.1484 1.67188C23.1484 1.25 22.8125 0.914062 22.3906 0.914062Z" fill="#63391B"/>
<path fill-rule="evenodd" clip-rule="evenodd" d="M9.89063 3.40625C9.57813 3.40625 9.32812 3.65625 9.32812 3.96875C9.32812 4.28125 9.57813 4.53125 9.89063 4.53125C10.2031 4.53125 10.4531 4.28125 10.4531 3.96875C10.4531 3.65625 10.2031 3.40625 9.89063 3.40625Z" fill="#63391B"/>
</g>
<defs>
<clipPath id="clip0_44_147132">
<rect width="24" height="24" fill="white"/>
</clipPath>
</defs>
</svg>
