<svg width="24" height="24" viewBox="0 0 24 24" fill="none" xmlns="http://www.w3.org/2000/svg">
<mask id="mask0_44_147593" style="mask-type:luminance" maskUnits="userSpaceOnUse" x="0" y="0" width="24" height="24">
<path d="M24 0H0V24H24V0Z" fill="white"/>
</mask>
<g mask="url(#mask0_44_147593)">
<path fill-rule="evenodd" clip-rule="evenodd" d="M40.12 -4.14074C40.55 -4.29074 41.03 -4.53074 41.6 -4.88074C40.79 -6.13074 39.94 -6.67074 39.14 -6.72074C39.44 -7.01074 39.75 -7.41074 40.09 -7.94074C39.12 -8.55074 38.32 -8.75074 37.69 -8.65074C37.92 -8.89074 38.15 -9.21074 38.41 -9.61074C37.54 -10.1607 36.82 -10.3307 36.25 -10.2407C36.58 -10.8007 36.84 -11.5807 37.04 -12.6307C35.37 -12.9607 34.19 -12.7507 33.44 -12.2207C33.47 -12.6207 33.44 -13.1007 33.38 -13.6507C32.46 -13.5507 31.77 -13.3107 31.28 -13.0007C31.02 -13.6607 30.45 -14.3907 29.5 -15.2607C28.79 -14.4907 28.35 -13.7807 28.13 -13.1307C27.66 -13.3807 27.04 -13.5607 26.26 -13.6507C26.19 -13.0007 26.17 -12.4607 26.22 -12.0207C25.48 -12.6907 24.24 -12.9907 22.37 -12.6307C22.58 -11.5707 22.83 -10.8007 23.16 -10.2407C22.59 -10.3307 21.87 -10.1607 21 -9.61074C21.06 -9.52074 21.12 -9.43074 21.18 -9.34074C20.39 -9.43074 19.41 -9.17074 18.23 -8.42074C18.9 -7.36074 19.49 -6.71074 20.08 -6.38074C19.45 -6.21074 18.79 -5.68074 18.16 -4.68074C18.33 -4.57074 18.49 -4.48074 18.64 -4.40074H18.65H18.66H18.67L18.68 -4.39074H18.69H18.7H18.71H18.73H18.74H18.75H18.76H18.77H18.78H18.79H18.8H18.81H18.82H18.83H18.84H18.85H18.87H18.88H18.89H18.9H18.91H18.92H18.93H18.94H18.95H18.96H18.97H18.98C18.34 -4.22074 17.67 -3.70074 17.04 -2.68074C17.61 -2.32074 18.1 -2.09074 18.51 -1.96074C18.09 -1.77074 17.66 -1.38074 17.25 -0.720743C17.59 -0.510743 17.88 -0.360742 18.14 -0.250742C17.95 -0.060742 17.77 0.179257 17.59 0.469257H17.61L17.63 0.489258L17.65 0.499258H17.66V0.509258H17.68L17.69 0.529257L17.71 0.539257H17.72V0.549257H17.74V0.569258L17.76 0.579258L17.77 0.589258H17.79V0.599258H17.8L17.82 0.619257L17.83 0.629257H17.85V0.639257H17.86L17.88 0.659258H17.9H17.92H17.94L17.95 0.679258L17.97 0.689259H17.98H18L18.01 0.699257L18.03 0.709257H18.05V0.719257L18.07 0.729258H18.09V0.739258H18.1L18.12 0.749258H18.13H18.15H18.16L18.18 0.759258H18.19H18.2H18.21L18.22 0.769258H18.24H18.25H18.26V0.779257H18.27H18.28H18.29H18.3H18.31L18.32 0.789257H18.33H18.34H18.35H18.36H18.37H18.38H18.39C18.22 1.07926 18.11 1.42926 18.06 1.81926C18.76 1.80926 19.32 1.67926 19.67 1.41926C19.67 1.81926 19.76 2.22926 19.94 2.60926C20.46 2.25926 20.86 1.90926 21.09 1.57926C21.28 2.10926 21.86 2.64926 22.69 3.21926C22.83 2.92926 22.93 2.61926 22.98 2.30926C23.25 2.26926 23.48 2.19926 23.66 2.10926C23.66 2.18926 23.66 2.26926 23.66 2.34926C24.36 2.33926 24.9 2.20926 25.2 1.95926C25.26 2.35926 25.43 2.76926 25.67 3.14926C26.04 2.85926 26.34 2.57926 26.53 2.29926C26.93 2.23926 27.24 2.11926 27.45 1.94926C27.51 2.34926 27.68 2.75926 27.92 3.13926C28.18 2.93926 28.4 2.74926 28.57 2.55926C28.74 2.74926 28.96 2.94926 29.22 3.13926C29.46 2.75926 29.63 2.33926 29.69 1.94926C29.96 2.16926 30.42 2.30926 31.02 2.33926C31.23 2.70926 31.53 3.04926 31.88 3.32926C32.31 2.57926 32.58 1.91926 32.6 1.38926C32.79 1.77926 33.24 2.17926 33.85 2.58926C34.03 2.20926 34.13 1.78926 34.12 1.39926C34.37 1.57926 34.73 1.69926 35.17 1.75926C35.17 2.23926 35.29 2.73926 35.5 3.19926C36.33 2.62926 36.92 2.08926 37.1 1.55926C37.33 1.89926 37.73 2.23926 38.25 2.58926C38.43 2.20926 38.53 1.78926 38.52 1.39926C38.86 1.64926 39.43 1.77926 40.13 1.79926C40.07 1.40926 39.97 1.06926 39.8 0.789257H39.81H39.82H39.83H39.84H39.86H39.87H39.89H39.9H39.91H39.92L39.94 0.779257H39.95H39.97H39.98L40 0.769258H40.02L40.03 0.759258H40.05L40.06 0.749258H40.08H40.09H40.11L40.12 0.739258H40.14H40.15H40.17L40.18 0.729258H40.2H40.21H40.23L40.24 0.719257L40.26 0.709257H40.27H40.29V0.699257L40.31 0.689259H40.33V0.679258L40.35 0.669258H40.37V0.659258L40.39 0.649258H40.41V0.639257H40.42L40.44 0.619257L40.45 0.609259H40.47V0.599258H40.48L40.5 0.579258L40.51 0.569258H40.53V0.559258H40.55L40.57 0.539257L40.59 0.529257H40.61V0.519258H40.63L40.65 0.499258L40.67 0.489258H40.69V0.479258H40.71L40.73 0.459257C40.55 0.169257 40.36 -0.0707422 40.18 -0.260742C40.44 -0.360742 40.74 -0.520742 41.07 -0.730742C40.66 -1.39074 40.23 -1.79074 39.81 -1.97074C40.23 -2.09074 40.71 -2.33074 41.29 -2.69074C40.7 -3.64074 40.08 -4.16074 39.49 -4.36074L40.12 -4.14074ZM24.56 1.33926V1.30926H24.58L24.56 1.33926ZM25.88 1.36926C25.88 1.36926 25.86 1.32926 25.85 1.30926H25.92C25.92 1.30926 25.89 1.34926 25.88 1.36926ZM28.13 1.36926C28.13 1.36926 28.11 1.32926 28.1 1.30926H28.17C28.17 1.30926 28.14 1.34926 28.13 1.36926ZM30.03 1.36926C30.03 1.36926 30 1.32926 29.99 1.30926H30.06C30.06 1.30926 30.04 1.34926 30.03 1.36926Z" fill="#5B661B"/>
<path fill-rule="evenodd" clip-rule="evenodd" d="M28.7401 -4.68019C29.1901 -4.83019 29.7101 -5.1002 30.3101 -5.4702C29.4501 -6.7902 28.5501 -7.36019 27.7101 -7.41019C28.0301 -7.72019 28.3601 -8.1402 28.7101 -8.7002C27.6801 -9.3502 26.8401 -9.5602 26.1701 -9.4502C26.4101 -9.7102 26.6601 -10.0402 26.9301 -10.4602C26.0001 -11.0502 25.2401 -11.2302 24.6401 -11.1302C24.9901 -11.7202 25.2601 -12.5502 25.4801 -13.6602C23.7101 -14.0002 22.4701 -13.7902 21.6701 -13.2302C21.7001 -13.6602 21.6701 -14.1602 21.6101 -14.7502C20.6401 -14.6402 19.9101 -14.3902 19.3901 -14.0602C19.1201 -14.7602 18.5101 -15.5302 17.5101 -16.4502C16.7601 -15.6402 16.3001 -14.8802 16.0601 -14.2002C15.5601 -14.4702 14.9101 -14.6602 14.0801 -14.7502C14.0001 -14.0602 13.9901 -13.4902 14.0401 -13.0202C13.2601 -13.7302 11.9401 -14.0502 9.9601 -13.6602C10.1801 -12.5402 10.4501 -11.7202 10.8001 -11.1302C10.2001 -11.2302 9.4401 -11.0502 8.5101 -10.4602C8.5701 -10.3602 8.6401 -10.2602 8.7001 -10.1702C7.8701 -10.2602 6.8301 -9.9902 5.5801 -9.2002C6.2901 -8.0802 6.9201 -7.3802 7.5401 -7.0402C6.8701 -6.8602 6.1801 -6.30019 5.5101 -5.24019C5.6901 -5.13019 5.8601 -5.0302 6.0201 -4.9402H6.0301H6.0401V-4.93019H6.0501H6.0601L6.0701 -4.92019H6.0801L6.0901 -4.91019H6.1001H6.1101L6.1301 -4.90019H6.1401H6.1501H6.1601H6.1701H6.1801H6.1901H6.2001H6.2101H6.2201H6.2301H6.2401H6.2501H6.2601H6.2801H6.2901H6.3001H6.3101H6.3201H6.3301H6.3401H6.3501H6.3601H6.3701H6.3801H6.3901H6.4001H6.4101C5.7301 -4.72019 5.0301 -4.17019 4.3501 -3.09019C4.9601 -2.71019 5.4701 -2.46019 5.9101 -2.33019C5.4701 -2.13019 5.0101 -1.71019 4.5701 -1.01019C4.9301 -0.790195 5.2401 -0.620195 5.5201 -0.510195C5.3201 -0.310195 5.1301 -0.0501943 4.9401 0.259806H4.9601L4.9801 0.279804L5.0001 0.289804H5.0201V0.299805H5.0401L5.0501 0.319805L5.0701 0.329805H5.0801V0.339806H5.1001V0.359806L5.1201 0.379805L5.1301 0.389805H5.1501V0.399805H5.1601L5.1801 0.419806L5.1901 0.429806H5.2101V0.439806H5.2201L5.2401 0.459805H5.2601H5.2801H5.3001L5.3201 0.479805L5.3401 0.489805H5.3501H5.3701L5.3801 0.509806L5.4001 0.519806H5.4101H5.4301V0.529804L5.4501 0.539804H5.4601H5.4801V0.549805H5.4901L5.5101 0.559805H5.5201H5.5401H5.5501L5.5701 0.569805H5.5901L5.6001 0.579805H5.6201H5.6301H5.6501L5.6601 0.589806H5.6801H5.7001V0.599806H5.7201H5.7401H5.7501L5.7601 0.609806H5.7701H5.7901H5.8001L5.8101 0.619804H5.8201H5.8301H5.8401H5.8501H5.8601C5.6801 0.929804 5.5701 1.2898 5.5101 1.7098C6.2601 1.6998 6.8501 1.5598 7.2101 1.2898C7.2001 1.7098 7.3101 2.1498 7.4901 2.5498C8.0401 2.1798 8.4601 1.8098 8.7001 1.4598C8.9001 2.0198 9.5201 2.5998 10.4001 3.1998C10.5401 2.8898 10.6501 2.56981 10.7101 2.23981C10.9901 2.19981 11.2401 2.1298 11.4301 2.0298C11.4301 2.1098 11.4301 2.1998 11.4301 2.2898C12.1701 2.2798 12.7401 2.1398 13.0601 1.8698C13.1201 2.2898 13.3001 2.7298 13.5601 3.1298C13.9601 2.8198 14.2701 2.52981 14.4701 2.2298C14.8901 2.1698 15.2301 2.03981 15.4401 1.85981C15.5001 2.27981 15.6801 2.7198 15.9401 3.1198C16.2101 2.9098 16.4501 2.69981 16.6301 2.49981C16.8101 2.69981 17.0501 2.9098 17.3201 3.1198C17.5801 2.7198 17.7601 2.27981 17.8201 1.85981C18.1101 2.09981 18.6001 2.23981 19.2301 2.26981C19.4501 2.66981 19.7701 3.02981 20.1401 3.31981C20.5901 2.51981 20.8801 1.81981 20.9001 1.26981C21.1001 1.67981 21.5801 2.1098 22.2201 2.5498C22.4101 2.1498 22.5101 1.7098 22.5001 1.2898C22.7601 1.4798 23.1401 1.60981 23.6101 1.66981C23.6101 2.17981 23.7301 2.7098 23.9601 3.1998C24.8401 2.5998 25.4601 2.0298 25.6601 1.4598C25.9001 1.8198 26.3201 2.1798 26.8701 2.5498C27.0601 2.1498 27.1601 1.7098 27.1501 1.2898C27.5201 1.5598 28.1101 1.6998 28.8501 1.7098C28.7901 1.2998 28.6801 0.939805 28.5101 0.639805H28.5201H28.5301H28.5501H28.5601H28.5801H28.5901L28.6101 0.629805H28.6201H28.6401H28.6501L28.6701 0.619804H28.6801H28.7001H28.7101L28.7301 0.609806H28.7501L28.7701 0.599806H28.7901L28.8101 0.589806H28.8301H28.8401H28.8601L28.8701 0.579805H28.8901H28.9001H28.9201L28.9301 0.569805L28.9501 0.559805H28.9601H28.9801L28.9901 0.549805L29.0101 0.539804H29.0201H29.0401L29.0501 0.529804L29.0701 0.519806H29.0801H29.1001V0.509806L29.1201 0.499805H29.1401V0.489805L29.1601 0.469805L29.1701 0.459805H29.1901V0.449804H29.2001L29.2201 0.429806L29.2301 0.419806H29.2501V0.409805H29.2601L29.2801 0.389805L29.2901 0.379805H29.3101V0.369804H29.3301L29.3501 0.349806L29.3701 0.339806H29.3901V0.329805H29.4101L29.4301 0.309805L29.4501 0.299805H29.4701V0.289804H29.4901L29.5101 0.269806C29.3201 -0.0401941 29.1201 -0.290195 28.9301 -0.500195C29.2101 -0.610195 29.5201 -0.780195 29.8801 -1.00019C29.4401 -1.70019 28.9901 -2.12019 28.5401 -2.32019C28.9801 -2.45019 29.4901 -2.70019 30.1001 -3.08019C29.4801 -4.08019 28.8201 -4.63019 28.1901 -4.85019L28.7401 -4.68019ZM12.2601 1.1198V1.08981H12.2801L12.2601 1.1198ZM13.6501 1.14981C13.6501 1.14981 13.6301 1.10981 13.6201 1.08981H13.6901C13.6901 1.08981 13.6601 1.12981 13.6501 1.14981ZM16.0301 1.14981C16.0301 1.14981 16.0101 1.10981 16.0001 1.08981H16.0701C16.0701 1.08981 16.0401 1.12981 16.0301 1.14981ZM18.0501 1.14981C18.0501 1.14981 18.0201 1.10981 18.0101 1.08981H18.0801C18.0801 1.08981 18.0601 1.12981 18.0501 1.14981Z" fill="#5B661B"/>
<path fill-rule="evenodd" clip-rule="evenodd" d="M31.44 1.58926L30.5 -0.790743L31.44 -3.68074L29.62 -0.790743L29.81 1.52926L26.8 2.46926L26.05 3.15926L26.55 -0.980742L23.04 -3.24074L22.85 -7.76074L22.03 -3.93074L20.52 -4.81074L19.45 -6.94074L19.83 -3.93074L24.35 -0.670742L24.1 1.08926L21.84 -0.860743L23.66 2.08926L23.28 3.71926L20.21 2.08926L17.45 1.64926L16.01 -1.05074L16.39 1.70926L12.75 0.579258L12.69 -1.93074L13.82 -3.12074L14.01 -6.19074L13.26 -3.68074L11.32 -1.86074L11.23 1.42926L17.03 3.71926L19.79 4.27926L21.29 6.07926C22.21 15.7193 21.83 18.8293 20.54 22.0793C20.08 22.3793 19.85 22.8793 19.22 23.0993C18.57 23.3193 17.51 23.2693 17 23.9893H34.47C33.67 22.8093 32.16 22.8493 31.08 22.4393C30.15 22.0893 29.67 21.2193 28.77 21.0793C27.54 19.0093 26.1 14.9093 26.85 6.07926L27.65 3.89926L35.49 1.63926L37.31 -3.63074L34.99 0.639257L31.48 1.57926L31.44 1.58926Z" fill="#AD703E"/>
<path fill-rule="evenodd" clip-rule="evenodd" d="M23.72 22.0895L23.26 23.5595L23.29 21.2295L22.55 23.3095L22 23.9995H22.21H24.1L23.83 23.5595L23.72 22.0895Z" fill="#935E36"/>
<path fill-rule="evenodd" clip-rule="evenodd" d="M19.48 23.6496L16.97 23.9996H20.73H21.47L21.8 23.1096L22.16 20.0996L21.03 22.6896L19.48 23.6496Z" fill="#935E36"/>
<path fill-rule="evenodd" clip-rule="evenodd" d="M19.76 2.84965L16.47 2.59965L11.78 1.02965L11.3 -1.86035L11.21 1.42965L12.67 2.00965L16.92 3.68965L19.77 4.28965L21.24 6.08965C21.98 13.8496 21.91 17.3697 21.17 20.1497L22.58 15.9396L23 9.82965L22.61 6.07965L19.76 2.83965V2.84965Z" fill="#935E36"/>
<path fill-rule="evenodd" clip-rule="evenodd" d="M25.1501 21.2495L24.9201 22.3095L24.4401 17.1895L24.3101 23.2495L24.0401 22.4395L23.3701 23.9995H25.4801L25.4601 23.4595L25.1501 21.2495Z" fill="#935E36"/>
<path fill-rule="evenodd" clip-rule="evenodd" d="M23.9001 18.2496L24.3601 20.9697L24.4401 17.1896L24.1101 13.1396L23.9001 18.2496Z" fill="#BF7E4C"/>
<path fill-rule="evenodd" clip-rule="evenodd" d="M20.52 22.0892C20.06 22.3892 19.83 22.8892 19.2 23.1092C18.57 23.3292 17.55 23.2892 17.02 23.9292L18.57 23.5192L20.11 22.8892L20.82 22.3592L21.37 20.6792L21.92 17.9492L21.16 20.2192C20.98 20.8692 20.77 21.4692 20.53 22.0792L20.52 22.0892Z" fill="#935E36"/>
<path fill-rule="evenodd" clip-rule="evenodd" d="M23.27 15.4801L24.13 10.2201L24.04 8.08008L23.27 15.4801Z" fill="#935E36"/>
<path fill-rule="evenodd" clip-rule="evenodd" d="M21.27 6.08984C21.72 10.7498 21.86 13.8898 21.74 16.2498L22.03 15.5998L22.18 10.8498L21.95 6.08984H21.28H21.27Z" fill="#7A4D2E"/>
<path fill-rule="evenodd" clip-rule="evenodd" d="M19.77 3.51996L17.27 3.03996L12.85 1.86996L11.61 1.09996L11.29 -1.29004L11.21 1.43996L17.01 3.72996L19.77 4.28996L21.27 6.08996C21.72 10.75 21.86 13.89 21.74 16.25L22.03 15.6L22.18 10.85L21.95 6.08996L19.78 3.51996H19.77Z" fill="#7A4D2E"/>
<path fill-rule="evenodd" clip-rule="evenodd" d="M24.6 21.3193L24.49 23.6893L24.1101 23.3193L23.55 23.9993H25.5401L24.93 22.9193L24.6 21.3193Z" fill="#7A4D2E"/>
<path fill-rule="evenodd" clip-rule="evenodd" d="M19.22 23.9999H21.23L21.59 23.1199L21.74 21.9199L21.17 23.2299L19.22 23.9999Z" fill="#7A4D2E"/>
<path fill-rule="evenodd" clip-rule="evenodd" d="M23.6601 2.09941L23.2801 3.72941L23.9201 4.90941L24.2801 2.19941L21.8401 -0.850586L23.6601 2.09941Z" fill="#935E36"/>
<path fill-rule="evenodd" clip-rule="evenodd" d="M19.46 -6.94043L19.83 -3.93043L24.35 -0.660429L24.1 1.08957L24.53 1.75957L25.29 -0.87043L20.21 -4.34043L19.46 -6.94043Z" fill="#935E36"/>
<path fill-rule="evenodd" clip-rule="evenodd" d="M12.24 -2.11035L12.75 0.589649L12.68 -1.92035L13.81 -3.11035L12.24 -2.11035Z" fill="#935E36"/>
<path fill-rule="evenodd" clip-rule="evenodd" d="M19.6702 -5.23047L19.8302 -3.93047L24.3502 -0.660469L24.1002 1.08953L24.8002 -0.840469L20.0502 -4.04047L19.6702 -5.23047Z" fill="#7A4D2E"/>
<path fill-rule="evenodd" clip-rule="evenodd" d="M23.6601 2.10012L23.2801 3.73012L23.9401 2.94012L23.9701 2.12012L22.5901 0.370117L23.6601 2.10012Z" fill="#7A4D2E"/>
<path fill-rule="evenodd" clip-rule="evenodd" d="M12.75 0.589844L16.57 2.15984L16.38 1.71984L12.75 0.589844Z" fill="#BF7E4C"/>
<path fill-rule="evenodd" clip-rule="evenodd" d="M20.21 2.09996L17.45 1.65996L16.01 -1.04004L17.23 1.88996L19.96 2.46996L23.71 4.50996L23.28 3.72996L20.21 2.09996Z" fill="#BF7E4C"/>
<path fill-rule="evenodd" clip-rule="evenodd" d="M22.84 -7.75L22.53 -3.3L25.98 -0.76L26.04 3.16L26.55 -0.98L23.03 -3.24L22.84 -7.75Z" fill="#BF7E4C"/>
<path fill-rule="evenodd" clip-rule="evenodd" d="M26.31 -0.830235L26.35 0.619764L26.55 -0.980234L23.03 -3.24023L26.31 -0.830235Z" fill="#C88C63"/>
<path fill-rule="evenodd" clip-rule="evenodd" d="M17.4501 1.65934L16.8701 0.569336L17.3401 1.77934L20.1001 2.27934L23.2801 3.72934L20.2101 2.09934L17.4501 1.65934Z" fill="#C88C63"/>
<path fill-rule="evenodd" clip-rule="evenodd" d="M19.1901 2.66969L18.0801 2.42969L19.0201 2.78969L20.7401 3.61969L22.2001 4.63969L20.8501 3.45969L19.1901 2.66969Z" fill="#935E36"/>
<path fill-rule="evenodd" clip-rule="evenodd" d="M11.9701 -1.66016L11.9001 -1.16016L12.1701 0.199842L12.0901 -1.02016L11.9701 -1.66016Z" fill="#935E36"/>
<path fill-rule="evenodd" clip-rule="evenodd" d="M19.1701 2.74926L18.3501 2.48926L18.9101 2.86926L20.6501 3.69926L21.4701 4.12926L20.8701 3.61926L19.1701 2.74926Z" fill="#7A4D2E"/>
<path fill-rule="evenodd" clip-rule="evenodd" d="M23.53 13.0299L23.91 10.2999L23.96 8.87988L23.69 9.99988L23.53 13.0299Z" fill="#7A4D2E"/>
<path fill-rule="evenodd" clip-rule="evenodd" d="M34.8401 -8.69008C35.3401 -8.86008 35.9001 -9.14008 36.5601 -9.55008C35.6201 -11.0001 34.6301 -11.6201 33.7101 -11.6801C34.0601 -12.0201 34.4201 -12.4801 34.8101 -13.0901C33.6901 -13.8001 32.7601 -14.0301 32.0201 -13.9201C32.2901 -14.2001 32.5601 -14.5701 32.8501 -15.0301C31.8401 -15.6701 31.0001 -15.8701 30.3501 -15.7601C30.7301 -16.4101 31.0301 -17.3101 31.2701 -18.5301C29.3301 -18.9101 27.9701 -18.6701 27.0901 -18.0601C27.1201 -18.5301 27.0901 -19.0801 27.0201 -19.7201C25.9601 -19.6001 25.1601 -19.3301 24.5901 -18.9601C24.2901 -19.7301 23.6301 -20.5701 22.5301 -21.5801C21.7101 -20.6901 21.2001 -19.8601 20.9401 -19.1101C20.3901 -19.4001 19.6801 -19.6101 18.7701 -19.7201C18.6801 -18.9701 18.6701 -18.3401 18.7201 -17.8301C17.8701 -18.6101 16.4201 -18.9601 14.2501 -18.5301C14.4901 -17.3101 14.7801 -16.4001 15.1701 -15.7601C14.5101 -15.8701 13.6801 -15.6701 12.6701 -15.0301C12.7401 -14.9201 12.8101 -14.8201 12.8801 -14.7201C11.9701 -14.8201 10.8301 -14.5201 9.46014 -13.6601C10.2401 -12.4301 10.9201 -11.6701 11.6101 -11.2901C10.8801 -11.0901 10.1201 -10.4801 9.39014 -9.32008C9.59014 -9.20008 9.77014 -9.09008 9.95014 -8.99008H9.96014H9.97014L9.98014 -8.98008H9.99014H10.0001H10.0101V-8.97008H10.0201H10.0301H10.0401H10.0501V-8.96008L10.0601 -8.95008H10.0801V-8.94008H10.0901L10.1001 -8.93008H10.1101H10.1201H10.1301V-8.92008H10.1401H10.1501H10.1601H10.1701H10.1801H10.1901H10.2001H10.2101H10.2201H10.2301L10.2501 -8.91008H10.2601H10.2701H10.2801H10.2901H10.3001H10.3101H10.3201H10.3301H10.3401H10.3501H10.3601H10.3701H10.3801H10.3901C9.65014 -8.72008 8.88014 -8.11008 8.14014 -6.92008C8.80014 -6.51008 9.37014 -6.23008 9.85014 -6.09008C9.36014 -5.87008 8.87014 -5.42008 8.39014 -4.65008C8.78014 -4.41008 9.12014 -4.23008 9.43014 -4.11008C9.21014 -3.89008 9.00014 -3.61008 8.79014 -3.27008H8.81014L8.83014 -3.25008L8.85014 -3.24008H8.87014V-3.23008H8.89014L8.90014 -3.21008L8.92014 -3.19008H8.93014V-3.18008H8.95014L8.96014 -3.16008L8.98014 -3.14008L8.99014 -3.13008H9.01014V-3.11008H9.02014L9.04014 -3.09008L9.05014 -3.08008H9.07014V-3.07008H9.09014L9.11014 -3.05008L9.13014 -3.04008H9.15014V-3.03008H9.17014L9.19014 -3.01008L9.21014 -3.00008H9.22014V-2.99008H9.24014L9.25014 -2.97008L9.27014 -2.96008H9.28014H9.30014V-2.95008L9.32014 -2.94008H9.33014H9.35014V-2.93008H9.36014L9.38014 -2.91008H9.39014H9.41014H9.43014L9.45014 -2.89008H9.47014H9.49014H9.51014L9.52014 -2.88008H9.54014H9.55014H9.57014L9.58014 -2.87008L9.60014 -2.86008H9.62014V-2.85008L9.64014 -2.84008H9.65014H9.67014H9.68014L9.70014 -2.83008H9.71014H9.73014H9.75014L9.77014 -2.82008H9.79014H9.80014H9.82014C9.63014 -2.48008 9.50014 -2.08008 9.43014 -1.62008C10.2501 -1.63008 10.9001 -1.79008 11.3001 -2.08008C11.2901 -1.62008 11.4001 -1.14008 11.6101 -0.700079C12.2101 -1.11008 12.6801 -1.51008 12.9401 -1.90008C13.1601 -1.28008 13.8401 -0.660078 14.8001 -7.82013e-05C14.9601 -0.340078 15.0701 -0.690079 15.1301 -1.05008C15.4401 -1.10008 15.7001 -1.17008 15.9201 -1.28008C15.9201 -1.19008 15.9201 -1.09008 15.9201 -1.00008C16.7301 -1.01008 17.3601 -1.17008 17.7101 -1.46008C17.7801 -1.00008 17.9801 -0.520078 18.2601 -0.0800781C18.6901 -0.410078 19.0401 -0.740078 19.2601 -1.06008C19.7201 -1.13008 20.0901 -1.27008 20.3301 -1.46008C20.4001 -1.00008 20.5901 -0.520078 20.8801 -0.0800781C21.1801 -0.310078 21.4301 -0.540078 21.6401 -0.760078C21.8401 -0.540078 22.1001 -0.310078 22.4001 -0.0800781C22.6801 -0.520078 22.8801 -1.00008 22.9501 -1.46008C23.2601 -1.20008 23.8001 -1.05008 24.4901 -1.01008C24.7301 -0.580078 25.0801 -0.180079 25.4801 0.139921C25.9701 -0.740079 26.2901 -1.50008 26.3101 -2.11008C26.5301 -1.66008 27.0501 -1.19008 27.7601 -0.710079C27.9701 -1.15008 28.0801 -1.63008 28.0701 -2.09008C28.3601 -1.88008 28.7701 -1.74008 29.2901 -1.68008C29.2901 -1.12008 29.4201 -0.540078 29.6701 -0.0100784C30.6301 -0.670078 31.3101 -1.30008 31.5301 -1.91008C31.7901 -1.52008 32.2601 -1.12008 32.8601 -0.710079C33.0701 -1.15008 33.1801 -1.63008 33.1701 -2.09008C33.5701 -1.80008 34.2201 -1.64008 35.0401 -1.63008C34.9701 -2.08008 34.8501 -2.47008 34.6601 -2.80008H34.6801H34.6901H34.7101H34.7201H34.7401H34.7501L34.7701 -2.81008H34.7801H34.8001H34.8101L34.8301 -2.82008H34.8501H34.8701H34.8901L34.9101 -2.83008H34.9301H34.9501L34.9701 -2.84008H34.9901H35.0101L35.0301 -2.86008H35.0501H35.0701H35.0901L35.1101 -2.88008L35.1301 -2.89008H35.1401H35.1601L35.1701 -2.91008L35.1901 -2.92008H35.2001H35.2201L35.2301 -2.94008L35.2501 -2.95008H35.2601H35.2801L35.2901 -2.97008L35.3101 -2.98008H35.3201V-2.99008H35.3401V-3.01008L35.3601 -3.03008L35.3701 -3.04008H35.3901V-3.06008H35.4001L35.4201 -3.08008L35.4301 -3.09008H35.4501V-3.11008H35.4601L35.4801 -3.13008L35.4901 -3.14008H35.5101V-3.15008H35.5301L35.5501 -3.17008L35.5701 -3.18008H35.5901V-3.19008H35.6101L35.6301 -3.21008L35.6501 -3.22008H35.6701V-3.23008H35.6901L35.7101 -3.26008L35.7301 -3.27008H35.7501C35.5401 -3.62008 35.3301 -3.90008 35.1101 -4.12008C35.4201 -4.24008 35.7601 -4.42008 36.1501 -4.66008C35.6701 -5.43008 35.1701 -5.88008 34.6901 -6.10008C35.1801 -6.24008 35.7401 -6.52008 36.4001 -6.93008C35.7201 -8.03008 35.0001 -8.63008 34.3101 -8.86008L34.8401 -8.69008ZM16.8001 -2.33008V-2.36008H16.8301L16.8001 -2.33008ZM18.3301 -2.29008C18.3301 -2.29008 18.3101 -2.34008 18.3001 -2.36008H18.3801C18.3801 -2.36008 18.3501 -2.32008 18.3301 -2.29008ZM20.9401 -2.29008C20.9401 -2.29008 20.9201 -2.34008 20.9101 -2.36008H20.9901C20.9901 -2.36008 20.9601 -2.32008 20.9401 -2.29008ZM23.1501 -2.29008C23.1501 -2.29008 23.1201 -2.34008 23.1001 -2.36008H23.1801C23.1801 -2.36008 23.1601 -2.31008 23.1501 -2.29008Z" fill="#BACD3F"/>
<path fill-rule="evenodd" clip-rule="evenodd" d="M34.8401 -8.68996C35.3401 -8.85996 35.9001 -9.13996 36.5601 -9.54996C35.6601 -10.93 34.7201 -11.56 33.8401 -11.67C33.8601 -11.56 33.8801 -11.45 33.8901 -11.33C33.1801 -11.34 32.6101 -11.5 32.2601 -11.79C32.2601 -11.33 32.1701 -10.85 31.9901 -10.41C31.4601 -10.82 31.0601 -11.22 30.8301 -11.61C30.6401 -10.99 30.0501 -10.37 29.2101 -9.70996C28.9901 -10.24 28.8701 -10.83 28.8701 -11.38C28.4201 -11.45 28.0601 -11.59 27.8101 -11.79C27.8101 -11.33 27.7201 -10.85 27.5401 -10.41C26.9301 -10.89 26.4701 -11.35 26.2801 -11.81C26.2601 -11.2 25.9801 -10.44 25.5501 -9.55996C25.2001 -9.87996 24.8901 -10.28 24.6801 -10.71C24.0701 -10.75 23.6101 -10.9 23.3301 -11.16C23.2701 -10.7 23.1001 -10.22 22.8501 -9.77996C22.5901 -10.01 22.3701 -10.24 22.1901 -10.46C22.0101 -10.24 21.7901 -10.01 21.5301 -9.77996C21.2801 -10.22 21.1101 -10.7 21.0501 -11.16C20.8401 -10.96 20.5201 -10.83 20.1201 -10.76C19.9301 -10.44 19.6301 -10.11 19.2501 -9.77996C19.0001 -10.22 18.8301 -10.7 18.7701 -11.16C18.4601 -10.87 17.9201 -10.71 17.2101 -10.7C17.2101 -10.8 17.2101 -10.89 17.2101 -10.98C17.0201 -10.88 16.7901 -10.8 16.5201 -10.75C16.4701 -10.39 16.3701 -10.04 16.2301 -9.69996C15.3901 -10.36 14.8001 -10.98 14.6101 -11.6C14.3801 -11.21 13.9801 -10.81 13.4501 -10.4C13.2701 -10.84 13.1701 -11.32 13.1801 -11.78C12.8301 -11.49 12.2601 -11.33 11.5501 -11.32C11.6101 -11.78 11.7201 -12.17 11.8901 -12.51H11.8801H11.8701L11.8601 -12.52H11.8501H11.8401H11.8301L11.8201 -12.53H11.8101H11.8001H11.7901V-12.54H11.7801H11.7701V-12.55L11.7601 -12.56H11.7501H11.7401L11.7201 -12.57H11.7101H11.6901H11.6801L11.6601 -12.59H11.6401L11.6301 -12.61L11.6101 -12.62H11.6001H11.5801L11.5701 -12.63L11.5501 -12.64H11.5301V-12.65L11.5101 -12.66H11.4901V-12.67H11.4801L11.4601 -12.69L11.4501 -12.7H11.4301V-12.71H11.4201L11.4001 -12.73L11.3801 -12.74H11.3601V-12.75H11.3401L11.3301 -12.77L11.3101 -12.78H11.3001V-12.79H11.2801L11.2701 -12.81L11.2501 -12.83V-12.84H11.2301V-12.86L11.2101 -12.88L11.2001 -12.89H11.1801V-12.91H11.1701L11.1501 -12.93L11.1401 -12.94H11.1201V-12.95H11.1001L11.0801 -12.98C11.2601 -13.32 11.4501 -13.59 11.6401 -13.82C11.4301 -13.91 11.2101 -14.04 10.9601 -14.21C10.5501 -14.04 10.1201 -13.81 9.66009 -13.52C10.4401 -12.29 11.1201 -11.53 11.8101 -11.15C11.0801 -10.95 10.3201 -10.34 9.59009 -9.17996C9.79009 -9.05996 9.97009 -8.94996 10.1501 -8.84996H10.1601H10.1701L10.1801 -8.83996H10.1901H10.2001H10.2101V-8.82996H10.2201H10.2301H10.2401H10.2501V-8.81996L10.2601 -8.80996H10.2801V-8.79996H10.2901L10.3001 -8.78996H10.3101H10.3201H10.3301V-8.77996H10.3401H10.3501H10.3601H10.3701H10.3801H10.3901H10.4001H10.4101H10.4201H10.4301L10.4501 -8.76996H10.4601H10.4701H10.4801H10.4901H10.5001H10.5101H10.5201H10.5301H10.5401H10.5501H10.5601H10.5701H10.5801H10.5901C9.85009 -8.57996 9.08009 -7.96996 8.34009 -6.77996C9.00009 -6.36996 9.57009 -6.08996 10.0501 -5.94996C9.56009 -5.72996 9.07009 -5.27996 8.59009 -4.50996C8.98009 -4.26996 9.32009 -4.08996 9.63009 -3.96996C9.41009 -3.74996 9.20009 -3.46996 8.99009 -3.12996H9.01009L9.03009 -3.10996L9.05009 -3.09996H9.07009V-3.08996H9.09009L9.10009 -3.06996L9.12009 -3.04996H9.13009V-3.03996H9.15009L9.16009 -3.01996L9.18009 -2.99996L9.19009 -2.98996H9.21009V-2.96996H9.22009L9.24009 -2.94996L9.25009 -2.93996H9.27009V-2.92996H9.29009L9.31009 -2.90996L9.33009 -2.89996H9.35009V-2.88996H9.37009L9.39009 -2.86996L9.41009 -2.85996H9.42009V-2.84996H9.44009L9.45009 -2.82996L9.47009 -2.81996H9.48009H9.50009V-2.80996L9.52009 -2.79996H9.53009H9.55009V-2.78996H9.56009L9.58009 -2.76996H9.59009H9.61009H9.63009L9.65009 -2.74996H9.67009H9.69009H9.71009L9.72009 -2.73996H9.74009H9.75009H9.77009L9.78009 -2.72996L9.80009 -2.71996H9.82009V-2.70996L9.84009 -2.69996H9.85009H9.87009H9.88009L9.90009 -2.68996H9.91009H9.93009H9.95009L9.97009 -2.67996H9.99009H10.0001H10.0201C9.83009 -2.33996 9.70009 -1.93996 9.63009 -1.47996C10.4501 -1.48996 11.1001 -1.64996 11.5001 -1.93996C11.4901 -1.47996 11.6001 -0.99996 11.8101 -0.55996C12.4101 -0.96996 12.8801 -1.36996 13.1401 -1.75996C13.3601 -1.13996 14.0401 -0.519962 15.0001 0.140038C15.1601 -0.199962 15.2701 -0.549961 15.3301 -0.909961C15.6401 -0.959961 15.9001 -1.02996 16.1201 -1.13996C16.1201 -1.04996 16.1201 -0.949962 16.1201 -0.859962C16.9301 -0.869962 17.5601 -1.02996 17.9101 -1.31996C17.9801 -0.859961 18.1801 -0.379961 18.4601 0.0600386C18.8901 -0.269961 19.2401 -0.599961 19.4601 -0.919961C19.9201 -0.989961 20.2901 -1.12996 20.5301 -1.31996C20.6001 -0.859961 20.7901 -0.379961 21.0801 0.0600386C21.3801 -0.169961 21.6301 -0.399962 21.8401 -0.619962C22.0401 -0.399962 22.3001 -0.169961 22.6001 0.0600386C22.8801 -0.379961 23.0801 -0.859961 23.1501 -1.31996C23.4601 -1.05996 24.0001 -0.909962 24.6901 -0.869962C24.9301 -0.439962 25.2801 -0.0399621 25.6801 0.280038C26.1701 -0.599962 26.4901 -1.35996 26.5101 -1.96996C26.7301 -1.51996 27.2501 -1.04996 27.9601 -0.569961C28.1701 -1.00996 28.2801 -1.48996 28.2701 -1.94996C28.5601 -1.73996 28.9701 -1.59996 29.4901 -1.53996C29.4901 -0.979962 29.6201 -0.399962 29.8701 0.130038C30.8301 -0.529962 31.5101 -1.15996 31.7301 -1.76996C31.9901 -1.37996 32.4601 -0.979961 33.0601 -0.569961C33.2701 -1.00996 33.3801 -1.48996 33.3701 -1.94996C33.7701 -1.65996 34.4201 -1.49996 35.2401 -1.48996C35.1701 -1.93996 35.0501 -2.32996 34.8601 -2.65996H34.8801H34.8901H34.9101H34.9201H34.9401H34.9501L34.9701 -2.66996H34.9801H35.0001H35.0101L35.0301 -2.67996H35.0501H35.0701H35.0901L35.1101 -2.68996H35.1301H35.1501L35.1701 -2.69996H35.1901H35.2101L35.2301 -2.71996H35.2501H35.2701H35.2901L35.3101 -2.73996L35.3301 -2.74996H35.3401H35.3601L35.3701 -2.76996L35.3901 -2.77996H35.4001H35.4201L35.4301 -2.79996L35.4501 -2.80996H35.4601H35.4801L35.4901 -2.82996L35.5101 -2.83996H35.5201V-2.84996H35.5401V-2.86996L35.5601 -2.88996L35.5701 -2.89996H35.5901V-2.91996H35.6001L35.6201 -2.93996L35.6301 -2.94996H35.6501V-2.96996H35.6601L35.6801 -2.98996L35.6901 -2.99996H35.7101V-3.00996H35.7301L35.7501 -3.02996L35.7701 -3.03996H35.7901V-3.04996H35.8101L35.8301 -3.06996L35.8501 -3.07996H35.8701V-3.08996H35.8901L35.9101 -3.11996L35.9301 -3.12996H35.9501C35.7401 -3.47996 35.5301 -3.75996 35.3101 -3.97996C35.6201 -4.09996 35.9601 -4.27996 36.3501 -4.51996C35.8701 -5.28996 35.3701 -5.73996 34.8901 -5.95996C35.3801 -6.09996 35.9401 -6.37996 36.6001 -6.78996C35.9201 -7.88996 35.2001 -8.48996 34.5101 -8.71996L34.8401 -8.68996ZM16.8001 -2.32996V-2.35996H16.8301L16.8001 -2.32996ZM18.3301 -2.28996C18.3301 -2.28996 18.3101 -2.33996 18.3001 -2.35996H18.3801C18.3801 -2.35996 18.3501 -2.31996 18.3301 -2.28996ZM20.9401 -2.28996C20.9401 -2.28996 20.9201 -2.33996 20.9101 -2.35996H20.9901C20.9901 -2.35996 20.9601 -2.31996 20.9401 -2.28996ZM23.1501 -2.28996C23.1501 -2.28996 23.1201 -2.33996 23.1001 -2.35996H23.1801C23.1801 -2.35996 23.1601 -2.30996 23.1501 -2.28996Z" fill="#A9BC30"/>
<path fill-rule="evenodd" clip-rule="evenodd" d="M35.8 -8.12012L35.78 -8.10012L35.77 -8.09012H35.75V-8.08012H35.74L35.72 -8.06012L35.71 -8.05012H35.69V-8.04012H35.68L35.66 -8.02012H35.65H35.63V-8.01012H35.62L35.6 -7.99012H35.59H35.57V-7.98012H35.55L35.53 -7.96012H35.51H35.49H35.47L35.45 -7.94012H35.43H35.41L35.39 -7.93012H35.37H35.35L35.33 -7.92012H35.31H35.29H35.27L35.26 -7.91012H35.24H35.23H35.21L35.2 -7.90012H35.18H35.17H35.15H35.14H35.12C35.31 -7.57012 35.43 -7.17012 35.5 -6.73012C34.68 -6.74012 34.03 -6.90012 33.63 -7.19012C33.64 -6.73012 33.53 -6.25012 33.32 -5.81012C32.72 -6.22012 32.25 -6.62012 31.99 -7.01012C31.77 -6.39012 31.09 -5.77012 30.13 -5.11012C29.88 -5.64012 29.74 -6.23012 29.75 -6.78012C29.24 -6.85012 28.82 -6.99012 28.53 -7.19012C28.54 -6.73012 28.43 -6.25012 28.22 -5.81012C27.52 -6.29012 27 -6.75012 26.77 -7.21012C26.74 -6.60012 26.43 -5.84012 25.94 -4.96012C25.54 -5.28012 25.19 -5.68012 24.95 -6.11012C24.26 -6.15012 23.72 -6.30012 23.41 -6.56012C23.34 -6.10012 23.14 -5.62012 22.86 -5.18012C22.56 -5.41012 22.31 -5.64012 22.1 -5.86012C21.9 -5.64012 21.64 -5.41012 21.34 -5.18012C21.06 -5.62012 20.86 -6.10012 20.79 -6.56012C20.55 -6.36012 20.19 -6.23012 19.72 -6.16012C19.5 -5.84012 19.16 -5.51012 18.72 -5.18012C18.44 -5.62012 18.24 -6.10012 18.17 -6.56012C17.82 -6.27012 17.2 -6.11012 16.38 -6.10012C16.38 -6.20012 16.38 -6.29012 16.38 -6.38012C16.17 -6.28012 15.9 -6.20012 15.59 -6.15012C15.53 -5.79012 15.41 -5.44012 15.26 -5.10012C14.3 -5.76012 13.62 -6.38012 13.4 -7.00012C13.14 -6.61012 12.67 -6.21012 12.07 -5.80012C11.86 -6.24012 11.75 -6.72012 11.76 -7.18012C11.36 -6.89012 10.71 -6.73012 9.89004 -6.72012C9.96004 -7.18012 10.08 -7.57012 10.28 -7.91012H10.26H10.25L10.23 -7.92012H10.21H10.19H10.17L10.16 -7.93012H10.14H10.13H10.11L10.1 -7.94012H10.08H10.06V-7.95012L10.04 -7.96012H10.03H10.01H10L9.98004 -7.97012H9.97004H9.95004H9.93004L9.91004 -7.99012H9.89004H9.87004H9.85004L9.84004 -8.01012L9.82004 -8.02012H9.81004H9.79004L9.78004 -8.03012L9.76004 -8.04012H9.74004V-8.05012H9.73004L9.71004 -8.07012H9.70004H9.68004V-8.08012H9.67004C9.29004 -7.76012 8.91004 -7.31012 8.54004 -6.72012C9.20004 -6.31012 9.77004 -6.03012 10.25 -5.89012C9.76004 -5.67012 9.27004 -5.22012 8.79004 -4.45012C9.18004 -4.21012 9.52004 -4.03012 9.83004 -3.91012C9.61004 -3.69012 9.40004 -3.41012 9.19004 -3.07012H9.21004L9.23004 -3.05012L9.25004 -3.04012H9.27004V-3.03012H9.29004L9.30004 -3.01012L9.32004 -2.99012H9.33004V-2.98012H9.35004L9.36004 -2.96012L9.38004 -2.94012L9.39004 -2.93012H9.41004V-2.91012H9.42004L9.44004 -2.89012L9.45004 -2.88012H9.47004V-2.87012H9.49004L9.51004 -2.85012L9.53004 -2.84012H9.55004V-2.83012H9.57004L9.59004 -2.81012L9.61004 -2.80012H9.62004V-2.79012H9.64004L9.65004 -2.77012L9.67004 -2.76012H9.68004H9.70004V-2.75012L9.72004 -2.74012H9.73004H9.75004V-2.73012H9.76004L9.78004 -2.71012H9.79004H9.81004H9.83004L9.85004 -2.69012H9.87004H9.89004H9.91004L9.92004 -2.68012H9.94004H9.95004H9.97004L9.98004 -2.67012L10 -2.66012H10.02V-2.65012L10.04 -2.64012H10.05H10.07H10.08L10.1 -2.63012H10.11H10.13H10.15L10.17 -2.62012H10.19H10.2H10.22C10.03 -2.28012 9.90004 -1.88012 9.83004 -1.42012C10.65 -1.43012 11.3 -1.59012 11.7 -1.88012C11.69 -1.42012 11.8 -0.940117 12.01 -0.500117C12.61 -0.910117 13.08 -1.31012 13.34 -1.70012C13.56 -1.08012 14.24 -0.460118 15.2 0.199882C15.36 -0.140118 15.47 -0.490118 15.53 -0.850118C15.84 -0.900118 16.1 -0.970117 16.32 -1.08012C16.32 -0.990117 16.32 -0.890118 16.32 -0.800118C17.13 -0.810118 17.76 -0.970118 18.11 -1.26012C18.18 -0.800118 18.38 -0.320118 18.66 0.119882C19.09 -0.210118 19.44 -0.540118 19.66 -0.860118C20.12 -0.930118 20.49 -1.07012 20.73 -1.26012C20.8 -0.800118 20.99 -0.320118 21.28 0.119882C21.58 -0.110118 21.83 -0.340117 22.04 -0.560117C22.24 -0.340117 22.5 -0.110118 22.8 0.119882C23.08 -0.320118 23.28 -0.800118 23.35 -1.26012C23.66 -1.00012 24.2 -0.850117 24.89 -0.810117C25.13 -0.380117 25.48 0.0198829 25.88 0.339883C26.37 -0.540117 26.69 -1.30012 26.71 -1.91012C26.93 -1.46012 27.45 -0.990118 28.16 -0.510118C28.37 -0.950118 28.48 -1.43012 28.47 -1.89012C28.76 -1.68012 29.17 -1.54012 29.69 -1.48012C29.69 -0.920117 29.82 -0.340117 30.07 0.189883C31.03 -0.470117 31.71 -1.10012 31.93 -1.71012C32.19 -1.32012 32.66 -0.920118 33.26 -0.510118C33.47 -0.950118 33.58 -1.43012 33.57 -1.89012C33.97 -1.60012 34.62 -1.44012 35.44 -1.43012C35.37 -1.88012 35.25 -2.27012 35.06 -2.60012H35.08H35.09H35.11H35.12H35.14H35.15L35.17 -2.61012H35.18H35.2H35.21L35.23 -2.62012H35.25H35.27H35.29L35.31 -2.63012H35.33H35.35L35.37 -2.64012H35.39H35.41L35.43 -2.66012H35.45H35.47H35.49L35.51 -2.68012L35.53 -2.69012H35.54H35.56L35.57 -2.71012L35.59 -2.72012H35.6H35.62L35.63 -2.74012L35.65 -2.75012H35.66H35.68L35.69 -2.77012L35.71 -2.78012H35.72V-2.79012H35.74V-2.81012L35.76 -2.83012L35.77 -2.84012H35.79V-2.86012H35.8L35.82 -2.88012L35.83 -2.89012H35.85V-2.91012H35.86L35.88 -2.93012L35.89 -2.94012H35.91V-2.95012H35.93L35.95 -2.97012L35.97 -2.98012H35.99V-2.99012H36.01L36.03 -3.01012L36.05 -3.02012H36.07V-3.03012H36.09L36.11 -3.06012L36.13 -3.07012H36.15C35.94 -3.42012 35.73 -3.70012 35.51 -3.92012C35.82 -4.04012 36.16 -4.22012 36.55 -4.46012C36.07 -5.23012 35.57 -5.68012 35.09 -5.90012C35.58 -6.04012 36.14 -6.32012 36.8 -6.73012C36.43 -7.32012 36.05 -7.77012 35.67 -8.10012L35.8 -8.12012ZM16.8 -2.33012V-2.36012H16.83L16.8 -2.33012ZM18.33 -2.29012C18.33 -2.29012 18.31 -2.34012 18.3 -2.36012H18.38C18.38 -2.36012 18.35 -2.32012 18.33 -2.29012ZM20.94 -2.29012C20.94 -2.29012 20.92 -2.34012 20.91 -2.36012H20.99C20.99 -2.36012 20.96 -2.32012 20.94 -2.29012ZM23.15 -2.29012C23.15 -2.29012 23.12 -2.34012 23.1 -2.36012H23.18C23.18 -2.36012 23.16 -2.31012 23.15 -2.29012Z" fill="#91A129"/>
</g>
</svg>
