<svg width="24" height="24" viewBox="0 0 24 24" fill="none" xmlns="http://www.w3.org/2000/svg">
<g clip-path="url(#clip0_44_146980)">
<path fill-rule="evenodd" clip-rule="evenodd" d="M21.75 3.52344C22.7188 2.16406 21.3672 0.0234375 21.3672 0H0V17.3828C1.67969 17.4297 3.42188 17.4844 6.28906 16.8359C8.1875 16.4062 10.9453 14.5469 12.3516 13.875C14.7422 12.7344 14.1172 10.125 16.1641 10.1094C20.2188 10.0781 22.6875 9.25 23.0859 5.78125C22.6797 4.70313 21.3359 4.10937 21.7422 3.53125L21.75 3.52344Z" fill="#7B4720"/>
<path fill-rule="evenodd" clip-rule="evenodd" d="M21.75 3.52344C22.7188 2.16406 21.3672 0.0234375 21.3672 0H0V10.4922C0.445312 10.6641 2.22656 11.6172 2.69531 12.0547C3.16406 12.4922 4.34375 11.6484 4.70312 11.1953C5.07031 10.7422 7.55469 10.0313 8.71875 10.5938C9.88281 11.1563 9.64844 13.3906 12.0078 12.5078C12.8984 12.1797 13.2578 12.4922 13.4453 13.0547C14.5937 11.7969 14.5156 10.1094 16.1641 10.0938C20.2188 10.0625 22.6875 9.23438 23.0859 5.76563C22.6797 4.6875 21.3359 4.09375 21.7422 3.51562L21.75 3.52344Z" fill="#8F5833"/>
<path fill-rule="evenodd" clip-rule="evenodd" d="M21.75 3.52344C22.7188 2.16406 21.3672 0.0234375 21.3672 0H0L0.0234375 5.55469C3.21875 5.61719 2.17969 7.98437 5.36719 7.71094C7.21094 7.55469 9.29687 3.02344 11.875 6.44531C14.4531 9.86719 16.5078 4.65625 18.5078 7.53125C19.0313 8.28906 19.5156 8.96875 19.8594 9.6875C21.7109 9.15625 22.8281 8.01562 23.0859 5.77344C22.6797 4.69531 21.3359 4.10156 21.7422 3.52344H21.75Z" fill="#AB6C48"/>
<path opacity="0.2" fill-rule="evenodd" clip-rule="evenodd" d="M0 5.28125C0 6.05469 0.625 6.6875 1.40625 6.6875C1.82031 6.6875 2.19531 6.50781 2.45313 6.21875C2.76563 6.71875 3.32031 7.04688 3.95313 7.04688C4.85938 7.04688 5.60938 6.35938 5.70313 5.48438C5.80469 6.27344 6.47656 6.89062 7.29688 6.89062C7.96875 6.89062 8.54688 6.47656 8.78906 5.88281C9.01563 6.35938 9.5 6.6875 10.0625 6.6875C10.6563 6.6875 11.1641 6.32031 11.3672 5.79688C11.5703 6.32031 12.0781 6.6875 12.6719 6.6875C13.0859 6.6875 13.4609 6.50781 13.7188 6.21875C14.0313 6.71875 14.5859 7.04688 15.2188 7.04688C16.125 7.04688 16.875 6.35938 16.9688 5.48438C17.0703 6.27344 17.7422 6.89062 18.5625 6.89062C19.2344 6.89062 19.8125 6.47656 20.0547 5.88281C20.2813 6.35938 20.7656 6.6875 21.3203 6.6875C21.5547 6.6875 21.7734 6.63281 21.9688 6.53125V0.757813L0 0.601562V5.28906V5.28125Z" fill="black"/>
<path fill-rule="evenodd" clip-rule="evenodd" d="M22.1875 0H0V4.6875C0 5.46094 0.625 6.09375 1.40625 6.09375C1.82031 6.09375 2.19531 5.91406 2.45313 5.625C2.76563 6.125 3.32031 6.45313 3.95312 6.45313C4.85937 6.45313 5.60938 5.76563 5.70313 4.89063C5.80469 5.67969 6.47656 6.29688 7.29688 6.29688C7.96875 6.29688 8.54687 5.88281 8.78906 5.28906C9.01562 5.76562 9.5 6.09375 10.0625 6.09375C10.6563 6.09375 11.1641 5.72656 11.3672 5.20312C11.5703 5.72656 12.0781 6.09375 12.6719 6.09375C13.0859 6.09375 13.4609 5.91406 13.7187 5.625C14.0312 6.125 14.5859 6.45313 15.2187 6.45313C16.125 6.45313 16.875 5.76563 16.9687 4.89063C17.0703 5.67969 17.7422 6.29688 18.5625 6.29688C19.2344 6.29688 19.8125 5.88281 20.0547 5.28906C20.2813 5.76562 20.7656 6.09375 21.3203 6.09375C21.7891 6.09375 22.2031 5.86719 22.4531 5.51562C22.6094 5.625 22.8047 5.6875 23.0078 5.6875C23.5547 5.6875 24 5.24219 24 4.69531C23.3984 3.13281 23.1016 0.609375 22.1875 0.0078125V0Z" fill="#6FA024"/>
<path fill-rule="evenodd" clip-rule="evenodd" d="M22.1875 -3.49246e-10H0V3.67969C0 4.10938 0.351562 4.46094 0.78125 4.46094C0.945312 4.46094 1.09375 4.41406 1.21875 4.32812C1.42187 4.60156 1.74219 4.78125 2.10938 4.78125C2.54688 4.78125 2.92969 4.52344 3.10938 4.14844C3.29688 4.60937 3.75 4.9375 4.28125 4.9375C4.92188 4.9375 5.45312 4.45312 5.53125 3.83594C5.60937 4.52344 6.19531 5.0625 6.90625 5.0625C7.39844 5.0625 7.83594 4.80469 8.08594 4.40625C8.28906 4.63281 8.57812 4.77344 8.90625 4.77344C9.375 4.77344 9.77344 4.48437 9.92969 4.07812C10.0938 4.48437 10.4922 4.77344 10.9531 4.77344C11.3906 4.77344 11.7734 4.51563 11.9531 4.14063C12.1406 4.60156 12.5937 4.92969 13.125 4.92969C13.7656 4.92969 14.2969 4.44531 14.375 3.82813C14.4531 4.51563 15.0391 5.05469 15.75 5.05469C16.25 5.05469 16.6797 4.79688 16.9297 4.39844C17.1328 4.625 17.4297 4.76562 17.75 4.76562C18.3594 4.76562 18.8516 4.27344 18.8516 3.66406C18.8516 4.27344 19.3438 4.76562 19.9531 4.76562C20.2813 4.76562 20.5781 4.625 20.7734 4.39844C21.0156 4.78906 21.3438 5.05469 21.9531 5.05469C22.5625 5.05469 22.5938 4.66406 22.6719 3.96875C22.7266 4.38281 23.3047 5.23437 23.9922 4.78125C23.9922 2.92969 23.9922 -0.015625 22.1797 -0.015625L22.1875 -3.49246e-10Z" fill="#B2CF2A"/>
<path fill-rule="evenodd" clip-rule="evenodd" d="M22.1875 0H0V1.47656H22.1875C22.6172 1.47656 22.9375 1.64063 23.1875 1.91406C23.7109 2.48438 23.8906 3.53125 23.9609 4.58594C23.9766 4.61719 23.9844 4.64844 24 4.6875C24 2.82812 23.9609 0 22.1875 0Z" fill="#C5DD5C"/>
<path fill-rule="evenodd" clip-rule="evenodd" d="M0 16.0156V17.3828C1.67969 17.4297 3.42188 17.4844 6.28906 16.8359C8.01563 16.4453 10.4609 14.8672 11.9453 14.0781C9.91406 14.6328 7.46094 15.2031 6.28906 15.4687C3.42188 16.1172 1.67188 16.0625 0 16.0156Z" fill="#5E3518"/>
<path d="M7.5 10.125C7.88401 10.125 8.19531 9.8137 8.19531 9.42969C8.19531 9.04568 7.88401 8.73438 7.5 8.73438C7.11599 8.73438 6.80469 9.04568 6.80469 9.42969C6.80469 9.8137 7.11599 10.125 7.5 10.125Z" fill="#7B4720"/>
<path fill-rule="evenodd" clip-rule="evenodd" d="M1.59375 8.10156C1.08594 8.10156 0.679688 8.51563 0.679688 9.01563C0.679688 9.51563 1.09375 9.92969 1.59375 9.92969C2.09375 9.92969 2.50781 9.51563 2.50781 9.01563C2.50781 8.51563 2.09375 8.10156 1.59375 8.10156Z" fill="#7B4720"/>
<path d="M11.7969 10.8906C12.0342 10.8906 12.2266 10.6982 12.2266 10.4609C12.2266 10.2236 12.0342 10.0312 11.7969 10.0312C11.5596 10.0312 11.3672 10.2236 11.3672 10.4609C11.3672 10.6982 11.5596 10.8906 11.7969 10.8906Z" fill="#7B4720"/>
<path fill-rule="evenodd" clip-rule="evenodd" d="M9.10937 6.63281C8.79687 6.63281 8.53906 6.89063 8.53906 7.20313C8.53906 7.51563 8.79687 7.77344 9.10937 7.77344C9.42187 7.77344 9.67969 7.51563 9.67969 7.20313C9.67969 6.89063 9.42187 6.63281 9.10937 6.63281Z" fill="#7B4720"/>
<path d="M8.32031 12.5703C8.7259 12.5703 9.05469 12.2415 9.05469 11.8359C9.05469 11.4304 8.7259 11.1016 8.32031 11.1016C7.91473 11.1016 7.58594 11.4304 7.58594 11.8359C7.58594 12.2415 7.91473 12.5703 8.32031 12.5703Z" fill="#8F5833"/>
<path fill-rule="evenodd" clip-rule="evenodd" d="M6.47656 11.5469C6.25781 11.5469 6.07031 11.7266 6.07031 11.9531C6.07031 12.1797 6.25 12.3594 6.47656 12.3594C6.70312 12.3594 6.88281 12.1797 6.88281 11.9531C6.88281 11.7266 6.70312 11.5469 6.47656 11.5469Z" fill="#8F5833"/>
<path fill-rule="evenodd" clip-rule="evenodd" d="M0.804687 12.0547C0.601562 12.0547 0.4375 12.2187 0.4375 12.4219C0.4375 12.625 0.601562 12.7891 0.804687 12.7891C1.00781 12.7891 1.17187 12.625 1.17187 12.4219C1.17187 12.2187 1.00781 12.0547 0.804687 12.0547Z" fill="#8F5833"/>
<path fill-rule="evenodd" clip-rule="evenodd" d="M3.78125 12.9609C3.55469 12.9609 3.36719 13.1484 3.36719 13.375C3.36719 13.6016 3.55469 13.7891 3.78125 13.7891C4.00781 13.7891 4.19531 13.6016 4.19531 13.375C4.19531 13.1484 4.00781 12.9609 3.78125 12.9609Z" fill="#8F5833"/>
<path fill-rule="evenodd" clip-rule="evenodd" d="M11.1641 13.25C10.9922 13.25 10.8594 13.3906 10.8594 13.5547C10.8594 13.7188 11 13.8594 11.1641 13.8594C11.3281 13.8594 11.4688 13.7188 11.4688 13.5547C11.4688 13.3906 11.3281 13.25 11.1641 13.25Z" fill="#8F5833"/>
</g>
<defs>
<clipPath id="clip0_44_146980">
<rect width="24" height="24" fill="white"/>
</clipPath>
</defs>
</svg>
