<svg width="24" height="24" viewBox="0 0 24 24" fill="none" xmlns="http://www.w3.org/2000/svg">
<g clip-path="url(#clip0_44_146704)">
<path d="M24 0H0V24H24V0Z" fill="#7B4720"/>
<path fill-rule="evenodd" clip-rule="evenodd" d="M0 8.57812C2.17969 8.22656 1.96875 9.55469 3.1875 9.60156C4.39844 9.64844 5 8.25781 5.92187 8.1875C6.84375 8.11719 6.57031 8.38281 7.26563 9.00781C7.96875 9.63281 9.24219 10.9922 10.25 10.4609C11.2656 9.9375 11.5312 9.40625 12.75 10.3984C15.3437 12.5234 16.3672 3.94531 18.8516 9.05469C19.1172 9.60938 21.6094 10.8984 22.1406 9.84375C22.6719 8.78906 23.0469 8.88281 23.9922 8.5625V0H0V8.57812Z" fill="#AB6C48"/>
<path fill-rule="evenodd" clip-rule="evenodd" d="M22.1484 9.85122C21.6172 10.9059 19.125 9.60903 18.8594 9.06216C16.375 3.95278 15.3516 12.5309 12.7578 10.4059C11.5391 9.4059 11.2656 9.93715 10.2578 10.4684C9.24219 10.9918 7.97656 9.64028 7.27344 9.01528C6.57031 8.39028 6.84375 8.12465 5.92969 8.19497C5.00781 8.26528 4.40625 9.65591 3.19531 9.60903C1.98437 9.56216 2.1875 8.23403 0.0078125 8.58559V14.1168C0.96875 14.1168 1.32813 14.2887 1.85938 15.3434C2.39063 16.3981 4.88281 15.1012 5.14844 14.5543C7.63281 9.44497 8.65625 18.0231 11.25 15.8981C12.4687 14.8981 12.7422 15.4293 13.75 15.9606C14.7656 16.484 16.0312 15.1325 16.7344 14.5075C17.4375 13.8825 17.1641 13.6168 18.0781 13.6872C19 13.7575 19.6016 15.1481 20.8125 15.1012C22.0234 15.0543 21.8203 14.2262 24 14.1247V8.64028C23.0391 8.64028 22.6797 8.81215 22.1484 9.86684V9.85122Z" fill="#8F5833"/>
<path fill-rule="evenodd" clip-rule="evenodd" d="M3.35938 12.8516C2.76563 12.8516 2.28125 13.3359 2.28125 13.9219C2.28125 14.5078 2.76563 14.9922 3.35938 14.9922C3.95313 14.9922 4.4375 14.5078 4.4375 13.9219C4.4375 13.3359 3.95313 12.8516 3.35938 12.8516Z" fill="#7B4720"/>
<path fill-rule="evenodd" clip-rule="evenodd" d="M1.49219 11.5547C1.21875 11.5547 0.992188 11.7813 0.992188 12.0547C0.992188 12.3281 1.21875 12.5547 1.49219 12.5547C1.76562 12.5547 1.99219 12.3281 1.99219 12.0547C1.99219 11.7813 1.76562 11.5547 1.49219 11.5547Z" fill="#7B4720"/>
<path fill-rule="evenodd" clip-rule="evenodd" d="M6.875 10.2578C6.59375 10.2578 6.35938 10.4844 6.35938 10.7734C6.35938 11.0625 6.58594 11.2891 6.875 11.2891C7.16406 11.2891 7.39062 11.0625 7.39062 10.7734C7.39062 10.4844 7.16406 10.2578 6.875 10.2578Z" fill="#7B4720"/>
<path fill-rule="evenodd" clip-rule="evenodd" d="M9.80469 13.0938C9.33594 13.0938 8.95312 13.4766 8.95312 13.9453C8.95312 14.4141 9.33594 14.7969 9.80469 14.7969C10.2734 14.7969 10.6563 14.4141 10.6563 13.9453C10.6563 13.4766 10.2734 13.0938 9.80469 13.0938Z" fill="#7B4720"/>
<path fill-rule="evenodd" clip-rule="evenodd" d="M14.2422 13.5234C13.7266 13.5234 13.3047 13.9453 13.3047 14.4609C13.3047 14.9766 13.7266 15.3984 14.2422 15.3984C14.7578 15.3984 15.1797 14.9766 15.1797 14.4609C15.1797 13.9453 14.7578 13.5234 14.2422 13.5234Z" fill="#7B4720"/>
<path fill-rule="evenodd" clip-rule="evenodd" d="M13.3359 11.8203C13.125 11.8203 12.9609 11.9922 12.9609 12.1953C12.9609 12.3984 13.1328 12.5703 13.3359 12.5703C13.5391 12.5703 13.7109 12.3984 13.7109 12.1953C13.7109 11.9922 13.5391 11.8203 13.3359 11.8203Z" fill="#7B4720"/>
<path fill-rule="evenodd" clip-rule="evenodd" d="M18.2656 11.4531C17.9766 11.4531 17.7422 11.6875 17.7422 11.9766C17.7422 12.2656 17.9766 12.5 18.2656 12.5C18.5547 12.5 18.7891 12.2656 18.7891 11.9766C18.7891 11.6875 18.5547 11.4531 18.2656 11.4531Z" fill="#7B4720"/>
<path fill-rule="evenodd" clip-rule="evenodd" d="M16.3125 10.7031C15.8906 10.7031 15.5469 11.0469 15.5469 11.4688C15.5469 11.8906 15.8906 12.2344 16.3125 12.2344C16.7344 12.2344 17.0781 11.8906 17.0781 11.4688C17.0781 11.0469 16.7344 10.7031 16.3125 10.7031Z" fill="#7B4720"/>
<path fill-rule="evenodd" clip-rule="evenodd" d="M20.8672 12.9609C20.5234 12.9609 20.2422 13.2422 20.2422 13.5859C20.2422 13.9297 20.5234 14.2109 20.8672 14.2109C21.2109 14.2109 21.4922 13.9297 21.4922 13.5859C21.4922 13.2422 21.2109 12.9609 20.8672 12.9609Z" fill="#7B4720"/>
<path d="M21.6719 12.2578C21.8315 12.2578 21.9609 12.1284 21.9609 11.9687C21.9609 11.8091 21.8315 11.6797 21.6719 11.6797C21.5122 11.6797 21.3828 11.8091 21.3828 11.9687C21.3828 12.1284 21.5122 12.2578 21.6719 12.2578Z" fill="#7B4720"/>
<path fill-rule="evenodd" clip-rule="evenodd" d="M1.01562 15.7266C0.773437 15.7266 0.578125 15.9219 0.578125 16.1641C0.578125 16.4063 0.773437 16.6016 1.01562 16.6016C1.25781 16.6016 1.45313 16.4063 1.45313 16.1641C1.45313 15.9219 1.25781 15.7266 1.01562 15.7266Z" fill="#8F5833"/>
<path fill-rule="evenodd" clip-rule="evenodd" d="M3.91406 17.2422C3.64844 17.2422 3.4375 17.4531 3.4375 17.7188C3.4375 17.9844 3.64844 18.1953 3.91406 18.1953C4.17969 18.1953 4.39062 17.9844 4.39062 17.7188C4.39062 17.4531 4.17969 17.2422 3.91406 17.2422Z" fill="#8F5833"/>
<path fill-rule="evenodd" clip-rule="evenodd" d="M6.23437 14.1172C5.96094 14.1172 5.73438 14.3437 5.73438 14.6172C5.73438 14.8906 5.96094 15.1172 6.23437 15.1172C6.50781 15.1172 6.73437 14.8906 6.73437 14.6172C6.73437 14.3437 6.50781 14.1172 6.23437 14.1172Z" fill="#8F5833"/>
<path fill-rule="evenodd" clip-rule="evenodd" d="M9.47656 17.3906C9.32031 17.3906 9.19531 17.5156 9.19531 17.6719C9.19531 17.8281 9.32031 17.9531 9.47656 17.9531C9.63281 17.9531 9.75781 17.8281 9.75781 17.6719C9.75781 17.5156 9.63281 17.3906 9.47656 17.3906Z" fill="#8F5833"/>
<path fill-rule="evenodd" clip-rule="evenodd" d="M12.5781 16.1719C12.4375 16.1719 12.3203 16.2891 12.3203 16.4297C12.3203 16.5703 12.4375 16.6875 12.5781 16.6875C12.7187 16.6875 12.8359 16.5703 12.8359 16.4297C12.8359 16.2891 12.7187 16.1719 12.5781 16.1719Z" fill="#8F5833"/>
<path d="M16.6562 17.1562C16.8504 17.1562 17.0078 16.9989 17.0078 16.8047C17.0078 16.6105 16.8504 16.4531 16.6562 16.4531C16.4621 16.4531 16.3047 16.6105 16.3047 16.8047C16.3047 16.9989 16.4621 17.1562 16.6562 17.1562Z" fill="#8F5833"/>
<path fill-rule="evenodd" clip-rule="evenodd" d="M18.6562 15.0078C18.2812 15.0078 17.9688 15.3125 17.9688 15.6875C17.9688 16.0625 18.2734 16.3672 18.6562 16.3672C19.0391 16.3672 19.3438 16.0625 19.3438 15.6875C19.3438 15.3125 19.0391 15.0078 18.6562 15.0078Z" fill="#8F5833"/>
<path fill-rule="evenodd" clip-rule="evenodd" d="M22.2188 15.6953C22 15.6953 21.8125 15.875 21.8125 16.1016C21.8125 16.3281 21.9922 16.5078 22.2188 16.5078C22.4453 16.5078 22.625 16.3281 22.625 16.1016C22.625 15.875 22.4453 15.6953 22.2188 15.6953Z" fill="#8F5833"/>
<path fill-rule="evenodd" clip-rule="evenodd" d="M1.82813 6.57812C1.54687 6.57812 1.3125 6.80469 1.3125 7.09375C1.3125 7.38281 1.53906 7.60937 1.82813 7.60937C2.11719 7.60937 2.34375 7.38281 2.34375 7.09375C2.34375 6.80469 2.11719 6.57812 1.82813 6.57812Z" fill="#8F5833"/>
<path d="M5.5 5.89062C5.64239 5.89062 5.75781 5.7752 5.75781 5.63281C5.75781 5.49043 5.64239 5.375 5.5 5.375C5.35761 5.375 5.24219 5.49043 5.24219 5.63281C5.24219 5.7752 5.35761 5.89062 5.5 5.89062Z" fill="#8F5833"/>
<path d="M9 9.28125C9.45736 9.28125 9.82812 8.91049 9.82812 8.45312C9.82812 7.99576 9.45736 7.625 9 7.625C8.54264 7.625 8.17188 7.99576 8.17188 8.45312C8.17188 8.91049 8.54264 9.28125 9 9.28125Z" fill="#8F5833"/>
<path fill-rule="evenodd" clip-rule="evenodd" d="M12.5547 7.32812C12.375 7.32812 12.2266 7.47656 12.2266 7.65625C12.2266 7.83594 12.375 7.98438 12.5547 7.98438C12.7344 7.98438 12.8828 7.83594 12.8828 7.65625C12.8828 7.47656 12.7344 7.32812 12.5547 7.32812Z" fill="#8F5833"/>
<path d="M13.2031 5.45313C13.2851 5.45313 13.3516 5.38667 13.3516 5.30469C13.3516 5.22271 13.2851 5.15625 13.2031 5.15625C13.1211 5.15625 13.0547 5.22271 13.0547 5.30469C13.0547 5.38667 13.1211 5.45313 13.2031 5.45313Z" fill="#8F5833"/>
<path fill-rule="evenodd" clip-rule="evenodd" d="M21.7969 7.82031C21.5391 7.82031 21.3359 8.03125 21.3359 8.28125C21.3359 8.53125 21.5469 8.74219 21.7969 8.74219C22.0469 8.74219 22.2578 8.53125 22.2578 8.28125C22.2578 8.03125 22.0469 7.82031 21.7969 7.82031Z" fill="#8F5833"/>
<path fill-rule="evenodd" clip-rule="evenodd" d="M19.4766 7.38281C19.3437 7.38281 19.2344 7.49219 19.2344 7.625C19.2344 7.75781 19.3437 7.86719 19.4766 7.86719C19.6094 7.86719 19.7187 7.75781 19.7187 7.625C19.7187 7.49219 19.6094 7.38281 19.4766 7.38281Z" fill="#8F5833"/>
<path fill-rule="evenodd" clip-rule="evenodd" d="M13.9687 8.42969C13.5312 8.42969 13.1719 8.78906 13.1719 9.22656C13.1719 9.66406 13.5312 10.0234 13.9687 10.0234C14.4062 10.0234 14.7656 9.66406 14.7656 9.22656C14.7656 8.78906 14.4062 8.42969 13.9687 8.42969Z" fill="#8F5833"/>
<path d="M21.9922 6.23438C22.2079 6.23438 22.3828 6.05949 22.3828 5.84375C22.3828 5.62801 22.2079 5.45312 21.9922 5.45312C21.7765 5.45312 21.6016 5.62801 21.6016 5.84375C21.6016 6.05949 21.7765 6.23438 21.9922 6.23438Z" fill="#8F5833"/>
<path fill-rule="evenodd" clip-rule="evenodd" d="M3.33594 10.4688C3.14063 10.4688 2.98438 10.625 2.98438 10.8203C2.98438 11.0156 3.14063 11.1719 3.33594 11.1719C3.53125 11.1719 3.6875 11.0156 3.6875 10.8203C3.6875 10.625 3.53125 10.4688 3.33594 10.4688Z" fill="#AB6C48"/>
<path fill-rule="evenodd" clip-rule="evenodd" d="M6.75 8.94531C6.64844 8.94531 6.5625 9.03125 6.5625 9.13281C6.5625 9.23437 6.64844 9.32031 6.75 9.32031C6.85156 9.32031 6.9375 9.23437 6.9375 9.13281C6.9375 9.03125 6.85156 8.94531 6.75 8.94531Z" fill="#AB6C48"/>
<path fill-rule="evenodd" clip-rule="evenodd" d="M10.9219 10.4766C10.6719 10.4766 10.4688 10.6797 10.4688 10.9297C10.4688 11.1797 10.6719 11.3828 10.9219 11.3828C11.1719 11.3828 11.375 11.1797 11.375 10.9297C11.375 10.6797 11.1719 10.4766 10.9219 10.4766Z" fill="#AB6C48"/>
<path fill-rule="evenodd" clip-rule="evenodd" d="M16.8984 9.14844C16.7578 9.14844 16.6406 9.26562 16.6406 9.40625C16.6406 9.54687 16.7578 9.66406 16.8984 9.66406C17.0391 9.66406 17.1562 9.54687 17.1562 9.40625C17.1562 9.26562 17.0391 9.14844 16.8984 9.14844Z" fill="#AB6C48"/>
<path fill-rule="evenodd" clip-rule="evenodd" d="M22.8125 10.0078C22.6719 10.0078 22.5547 10.125 22.5547 10.2656C22.5547 10.4062 22.6719 10.5234 22.8125 10.5234C22.9531 10.5234 23.0703 10.4062 23.0703 10.2656C23.0703 10.125 22.9531 10.0078 22.8125 10.0078Z" fill="#AB6C48"/>
<path d="M1.50781 21.1641C1.9134 21.1641 2.24219 20.8353 2.24219 20.4297C2.24219 20.0241 1.9134 19.6953 1.50781 19.6953C1.10223 19.6953 0.773438 20.0241 0.773438 20.4297C0.773438 20.8353 1.10223 21.1641 1.50781 21.1641Z" fill="#63391B"/>
<path fill-rule="evenodd" clip-rule="evenodd" d="M5.63281 16.0312C5.55469 16.0312 5.48438 16.0937 5.48438 16.1797C5.48438 16.2656 5.54688 16.3281 5.63281 16.3281C5.71875 16.3281 5.78125 16.2656 5.78125 16.1797C5.78125 16.0937 5.71875 16.0312 5.63281 16.0312Z" fill="#63391B"/>
<path fill-rule="evenodd" clip-rule="evenodd" d="M8.10156 18.7656C7.375 18.7656 6.78125 19.3594 6.78125 20.0859C6.78125 20.8125 7.375 21.4062 8.10156 21.4062C8.82812 21.4062 9.42188 20.8125 9.42188 20.0859C9.42188 19.3594 8.82812 18.7656 8.10156 18.7656Z" fill="#63391B"/>
<path fill-rule="evenodd" clip-rule="evenodd" d="M13.1719 17.3516C12.8672 17.3516 12.625 17.6016 12.625 17.8984C12.625 18.1953 12.875 18.4453 13.1719 18.4453C13.4688 18.4453 13.7187 18.1953 13.7187 17.8984C13.7187 17.6016 13.4688 17.3516 13.1719 17.3516Z" fill="#63391B"/>
<path fill-rule="evenodd" clip-rule="evenodd" d="M14.8359 21.5547C14.4219 21.5547 14.0781 21.8984 14.0781 22.3125C14.0781 22.7266 14.4219 23.0703 14.8359 23.0703C15.25 23.0703 15.5937 22.7266 15.5937 22.3125C15.5937 21.8984 15.25 21.5547 14.8359 21.5547Z" fill="#63391B"/>
<path fill-rule="evenodd" clip-rule="evenodd" d="M18.7891 19.8438C18.4766 19.8438 18.2266 20.0938 18.2266 20.4063C18.2266 20.7188 18.4766 20.9688 18.7891 20.9688C19.1016 20.9688 19.3516 20.7188 19.3516 20.4063C19.3516 20.0938 19.1016 19.8438 18.7891 19.8438Z" fill="#63391B"/>
<path fill-rule="evenodd" clip-rule="evenodd" d="M22.2109 20.3594C22.0391 20.3594 21.8906 20.5 21.8906 20.6797C21.8906 20.8594 22.0312 21 22.2109 21C22.3906 21 22.5312 20.8594 22.5312 20.6797C22.5312 20.5 22.3906 20.3594 22.2109 20.3594Z" fill="#63391B"/>
<path opacity="0.2" fill-rule="evenodd" clip-rule="evenodd" d="M0 5.28125C0 6.05469 0.625 6.6875 1.40625 6.6875C1.82031 6.6875 2.19531 6.50781 2.45313 6.21875C2.76563 6.71875 3.32031 7.04688 3.95312 7.04688C4.85937 7.04688 5.60938 6.35938 5.70313 5.48438C5.80469 6.27344 6.47656 6.89062 7.29688 6.89062C7.96875 6.89062 8.54687 6.47656 8.78906 5.88281C9.01562 6.35938 9.5 6.6875 10.0547 6.6875C10.6484 6.6875 11.1562 6.32031 11.3594 5.79688C11.5625 6.32031 12.0703 6.6875 12.6641 6.6875C13.0781 6.6875 13.4531 6.50781 13.7109 6.21875C14.0234 6.71875 14.5781 7.04688 15.2109 7.04688C16.1172 7.04688 16.8672 6.35938 16.9609 5.48438C17.0625 6.27344 17.7344 6.89062 18.5547 6.89062C19.2266 6.89062 19.8047 6.47656 20.0469 5.88281C20.2734 6.35938 20.7578 6.6875 21.3203 6.6875C21.7891 6.6875 22.2031 6.46094 22.4531 6.10938C22.6094 6.21875 22.8047 6.28125 23.0078 6.28125C23.5547 6.28125 24 5.83594 24 5.28906V0.601562H0V5.28906V5.28125Z" fill="black"/>
<path fill-rule="evenodd" clip-rule="evenodd" d="M0 4.6875C0 5.46094 0.625 6.09375 1.40625 6.09375C1.82031 6.09375 2.19531 5.91406 2.45313 5.625C2.76563 6.125 3.32031 6.45313 3.95312 6.45313C4.85937 6.45313 5.60938 5.76563 5.70313 4.89063C5.80469 5.67969 6.47656 6.29688 7.29688 6.29688C7.96875 6.29688 8.54687 5.88281 8.78906 5.28906C9.01562 5.76563 9.5 6.09375 10.0547 6.09375C10.6484 6.09375 11.1562 5.72656 11.3594 5.20313C11.5625 5.72656 12.0703 6.09375 12.6641 6.09375C13.0781 6.09375 13.4531 5.91406 13.7109 5.625C14.0234 6.125 14.5781 6.45313 15.2109 6.45313C16.1172 6.45313 16.8672 5.76563 16.9609 4.89063C17.0625 5.67969 17.7344 6.29688 18.5547 6.29688C19.2266 6.29688 19.8047 5.88281 20.0469 5.28906C20.2734 5.76563 20.7578 6.09375 21.3203 6.09375C21.7891 6.09375 22.2031 5.86719 22.4531 5.51563C22.6094 5.625 22.8047 5.6875 23.0078 5.6875C23.5547 5.6875 24 5.24219 24 4.69531V0H0V4.6875Z" fill="#6FA024"/>
<path fill-rule="evenodd" clip-rule="evenodd" d="M0 0V3.67969C0 4.10938 0.351563 4.46094 0.78125 4.46094C0.945313 4.46094 1.09375 4.41406 1.21875 4.32812C1.42188 4.60156 1.74219 4.78125 2.10938 4.78125C2.54688 4.78125 2.92969 4.52344 3.10938 4.14844C3.29688 4.60937 3.75 4.9375 4.28125 4.9375C4.92188 4.9375 5.45313 4.45312 5.53125 3.83594C5.60938 4.52344 6.19531 5.0625 6.90625 5.0625C7.40625 5.0625 7.83594 4.80469 8.08594 4.40625C8.28906 4.63281 8.57813 4.77344 8.90625 4.77344C9.375 4.77344 9.77344 4.48437 9.92969 4.07812C10.0938 4.48437 10.4922 4.77344 10.9531 4.77344C11.3906 4.77344 11.7734 4.51563 11.9531 4.14063C12.1406 4.60156 12.5938 4.92969 13.125 4.92969C13.7656 4.92969 14.2969 4.44531 14.375 3.82813C14.4531 4.51563 15.0391 5.05469 15.75 5.05469C16.2422 5.05469 16.6797 4.79688 16.9219 4.39844C17.125 4.625 17.4219 4.76562 17.75 4.76562C18.3594 4.76562 18.8516 4.27344 18.8516 3.66406C18.8516 4.27344 19.3438 4.76562 19.9531 4.76562C20.2813 4.76562 20.5781 4.625 20.7734 4.39844C21.0156 4.78906 21.8203 5.19531 22.4141 5.08594C23.5078 4.88281 23.5859 4.44531 23.9844 3.66406V0H0Z" fill="#B2CF2A"/>
<path d="M24 0H0V1.47656H24V0Z" fill="#C5DD5C"/>
</g>
<defs>
<clipPath id="clip0_44_146704">
<rect width="24" height="24" fill="white"/>
</clipPath>
</defs>
</svg>
