<svg width="24" height="24" viewBox="0 0 24 24" fill="none" xmlns="http://www.w3.org/2000/svg">
<g clip-path="url(#clip0_44_147055)">
<path fill-rule="evenodd" clip-rule="evenodd" d="M0 0V24H24C24 22.1328 22.2266 20.6328 22 18.6406C21.7422 16.3672 23.6641 14.2734 23.6641 12.1406C23.6641 9.8125 23.0781 6.94531 23.0781 4.625C23.0781 2.95312 24.0078 1.67188 24.0078 0H0Z" fill="#7B4720"/>
<path fill-rule="evenodd" clip-rule="evenodd" d="M19.0155 -1.74623e-10C19.3671 2.17969 18.039 1.96875 17.9921 3.1875C17.9452 4.39844 19.3358 5 19.4061 5.92188C19.4765 6.84375 19.2108 6.57031 18.5858 7.26563C17.9608 7.96875 16.6015 9.24219 17.1327 10.25C17.6561 11.2656 18.1874 11.5312 17.1952 12.75C15.0702 15.3437 23.6483 16.3672 18.539 18.8516C17.9843 19.1172 16.6952 21.6094 17.7499 22.1406C18.8046 22.6719 18.7108 23.0469 19.0311 23.9922H24.0155C24.0155 22.125 22.2421 20.625 22.0155 18.6328C21.7577 16.3594 23.6796 14.2656 23.6796 12.1328C23.6796 9.80469 23.0936 6.9375 23.0936 4.61719C23.0936 2.94531 24.0233 1.66406 24.0233 -0.0078125H19.039L19.0155 -1.74623e-10Z" fill="#AB6C48"/>
<path fill-rule="evenodd" clip-rule="evenodd" d="M17.1874 12.7578C18.1874 11.5391 17.6561 11.2656 17.1249 10.2578C16.6015 9.24219 17.953 7.97656 18.578 7.27344C19.203 6.57031 19.4686 6.84375 19.3983 5.92969C19.328 5.00781 17.9374 4.40625 17.9843 3.19531C18.0311 1.98437 19.3593 2.1875 19.0077 0.0078125H14.289C14.289 0.96875 13.3124 1.32813 12.2499 1.85938C11.1952 2.39063 12.4921 4.88281 13.039 5.14844C18.1483 7.63281 9.5702 8.65625 11.6952 11.25C12.6952 12.4687 12.164 12.7422 11.6327 13.75C11.1093 14.7656 12.4608 16.0312 13.0858 16.7344C13.7108 17.4375 13.9765 17.1641 13.9061 18.0781C13.8358 19 12.4452 19.6016 12.4921 20.8125C12.539 22.0234 14.1718 21.8203 14.2733 24H18.9452C18.9452 23.0391 18.7733 22.6797 17.7186 22.1484C16.664 21.6172 17.9608 19.125 18.5077 18.8594C23.6171 16.375 15.039 15.3516 17.164 12.7578H17.1874Z" fill="#8F5833"/>
<path d="M13.6719 4.42969C14.263 4.42969 14.7422 3.95049 14.7422 3.35938C14.7422 2.76826 14.263 2.28906 13.6719 2.28906C13.0808 2.28906 12.6016 2.76826 12.6016 3.35938C12.6016 3.95049 13.0808 4.42969 13.6719 4.42969Z" fill="#7B4720"/>
<path fill-rule="evenodd" clip-rule="evenodd" d="M15.5391 0.992188C15.2656 0.992188 15.0391 1.21875 15.0391 1.49219C15.0391 1.76562 15.2656 1.99219 15.5391 1.99219C15.8125 1.99219 16.0391 1.76562 16.0391 1.49219C16.0391 1.21875 15.8125 0.992188 15.5391 0.992188Z" fill="#7B4720"/>
<path fill-rule="evenodd" clip-rule="evenodd" d="M16.8203 6.35938C16.5391 6.35938 16.3047 6.58594 16.3047 6.875C16.3047 7.16406 16.5312 7.39062 16.8203 7.39062C17.1094 7.39062 17.3359 7.16406 17.3359 6.875C17.3359 6.58594 17.1094 6.35938 16.8203 6.35938Z" fill="#7B4720"/>
<path fill-rule="evenodd" clip-rule="evenodd" d="M13.6484 8.95312C13.1797 8.95312 12.7969 9.33594 12.7969 9.80469C12.7969 10.2734 13.1797 10.6563 13.6484 10.6563C14.1172 10.6563 14.5 10.2734 14.5 9.80469C14.5 9.33594 14.1172 8.95312 13.6484 8.95312Z" fill="#7B4720"/>
<path fill-rule="evenodd" clip-rule="evenodd" d="M13.125 13.2969C12.6094 13.2969 12.1875 13.7187 12.1875 14.2344C12.1875 14.75 12.6094 15.1719 13.125 15.1719C13.6406 15.1719 14.0625 14.75 14.0625 14.2344C14.0625 13.7187 13.6406 13.2969 13.125 13.2969Z" fill="#7B4720"/>
<path fill-rule="evenodd" clip-rule="evenodd" d="M15.3906 12.9531C15.1797 12.9531 15.0156 13.125 15.0156 13.3281C15.0156 13.5312 15.1875 13.7031 15.3906 13.7031C15.5938 13.7031 15.7656 13.5312 15.7656 13.3281C15.7656 13.125 15.5938 12.9531 15.3906 12.9531Z" fill="#7B4720"/>
<path fill-rule="evenodd" clip-rule="evenodd" d="M15.6094 17.7422C15.3203 17.7422 15.0859 17.9766 15.0859 18.2656C15.0859 18.5547 15.3203 18.7891 15.6094 18.7891C15.8984 18.7891 16.1328 18.5547 16.1328 18.2656C16.1328 17.9766 15.8984 17.7422 15.6094 17.7422Z" fill="#7B4720"/>
<path fill-rule="evenodd" clip-rule="evenodd" d="M16.125 15.5391C15.7031 15.5391 15.3594 15.8828 15.3594 16.3047C15.3594 16.7266 15.7031 17.0703 16.125 17.0703C16.5469 17.0703 16.8906 16.7266 16.8906 16.3047C16.8906 15.8828 16.5469 15.5391 16.125 15.5391Z" fill="#7B4720"/>
<path fill-rule="evenodd" clip-rule="evenodd" d="M14.0156 20.2422C13.6719 20.2422 13.3906 20.5234 13.3906 20.8672C13.3906 21.2109 13.6719 21.4922 14.0156 21.4922C14.3594 21.4922 14.6406 21.2109 14.6406 20.8672C14.6406 20.5234 14.3594 20.2422 14.0156 20.2422Z" fill="#7B4720"/>
<path d="M15.625 21.9609C15.7846 21.9609 15.9141 21.8315 15.9141 21.6719C15.9141 21.5122 15.7846 21.3828 15.625 21.3828C15.4654 21.3828 15.3359 21.5122 15.3359 21.6719C15.3359 21.8315 15.4654 21.9609 15.625 21.9609Z" fill="#7B4720"/>
<path d="M11.4219 1.45312C11.6635 1.45312 11.8594 1.25725 11.8594 1.01562C11.8594 0.774 11.6635 0.578125 11.4219 0.578125C11.1802 0.578125 10.9844 0.774 10.9844 1.01562C10.9844 1.25725 11.1802 1.45312 11.4219 1.45312Z" fill="#8F5833"/>
<path fill-rule="evenodd" clip-rule="evenodd" d="M9.875 3.4375C9.60938 3.4375 9.39844 3.64844 9.39844 3.91406C9.39844 4.17969 9.60938 4.39062 9.875 4.39062C10.1406 4.39062 10.3516 4.17969 10.3516 3.91406C10.3516 3.64844 10.1406 3.4375 9.875 3.4375Z" fill="#8F5833"/>
<path d="M12.9766 6.73437C13.2527 6.73437 13.4766 6.51052 13.4766 6.23437C13.4766 5.95823 13.2527 5.73438 12.9766 5.73438C12.7004 5.73438 12.4766 5.95823 12.4766 6.23437C12.4766 6.51052 12.7004 6.73437 12.9766 6.73437Z" fill="#8F5833"/>
<path fill-rule="evenodd" clip-rule="evenodd" d="M9.92187 9.19531C9.76562 9.19531 9.64062 9.32031 9.64062 9.47656C9.64062 9.63281 9.76562 9.75781 9.92187 9.75781C10.0781 9.75781 10.2031 9.63281 10.2031 9.47656C10.2031 9.32031 10.0781 9.19531 9.92187 9.19531Z" fill="#8F5833"/>
<path fill-rule="evenodd" clip-rule="evenodd" d="M11.1719 12.3203C11.0312 12.3203 10.9141 12.4375 10.9141 12.5781C10.9141 12.7187 11.0312 12.8359 11.1719 12.8359C11.3125 12.8359 11.4297 12.7187 11.4297 12.5781C11.4297 12.4375 11.3125 12.3203 11.1719 12.3203Z" fill="#8F5833"/>
<path fill-rule="evenodd" clip-rule="evenodd" d="M10.7891 16.3047C10.5938 16.3047 10.4375 16.4609 10.4375 16.6562C10.4375 16.8516 10.5938 17.0078 10.7891 17.0078C10.9844 17.0078 11.1406 16.8516 11.1406 16.6562C11.1406 16.4609 10.9844 16.3047 10.7891 16.3047Z" fill="#8F5833"/>
<path d="M11.8984 19.3359C12.2738 19.3359 12.5781 19.0316 12.5781 18.6562C12.5781 18.2809 12.2738 17.9766 11.8984 17.9766C11.5231 17.9766 11.2188 18.2809 11.2188 18.6562C11.2188 19.0316 11.5231 19.3359 11.8984 19.3359Z" fill="#8F5833"/>
<path fill-rule="evenodd" clip-rule="evenodd" d="M11.5 21.8203C11.2734 21.8203 11.0938 22 11.0938 22.2266C11.0938 22.4531 11.2734 22.6328 11.5 22.6328C11.7266 22.6328 11.9062 22.4531 11.9062 22.2266C11.9062 22 11.7266 21.8203 11.5 21.8203Z" fill="#8F5833"/>
<path fill-rule="evenodd" clip-rule="evenodd" d="M20.5078 1.3125C20.2266 1.3125 19.9922 1.53906 19.9922 1.82813C19.9922 2.11719 20.2187 2.34375 20.5078 2.34375C20.7969 2.34375 21.0234 2.11719 21.0234 1.82813C21.0234 1.53906 20.7969 1.3125 20.5078 1.3125Z" fill="#8F5833"/>
<path d="M19.1406 9.82812C19.598 9.82812 19.9687 9.45736 19.9687 9C19.9687 8.54264 19.598 8.17188 19.1406 8.17188C18.6833 8.17188 18.3125 8.54264 18.3125 9C18.3125 9.45736 18.6833 9.82812 19.1406 9.82812Z" fill="#8F5833"/>
<path fill-rule="evenodd" clip-rule="evenodd" d="M19.9297 12.2266C19.75 12.2266 19.6016 12.375 19.6016 12.5547C19.6016 12.7344 19.75 12.8828 19.9297 12.8828C20.1094 12.8828 20.2578 12.7344 20.2578 12.5547C20.2578 12.375 20.1094 12.2266 19.9297 12.2266Z" fill="#8F5833"/>
<path fill-rule="evenodd" clip-rule="evenodd" d="M19.3125 21.3359C19.0547 21.3359 18.8516 21.5469 18.8516 21.7969C18.8516 22.0469 19.0625 22.2578 19.3125 22.2578C19.5625 22.2578 19.7734 22.0469 19.7734 21.7969C19.7734 21.5469 19.5625 21.3359 19.3125 21.3359Z" fill="#8F5833"/>
<path fill-rule="evenodd" clip-rule="evenodd" d="M19.9687 19.2344C19.8359 19.2344 19.7266 19.3437 19.7266 19.4766C19.7266 19.6094 19.8359 19.7187 19.9687 19.7187C20.1016 19.7187 20.2109 19.6094 20.2109 19.4766C20.2109 19.3437 20.1016 19.2344 19.9687 19.2344Z" fill="#8F5833"/>
<path fill-rule="evenodd" clip-rule="evenodd" d="M18.3672 13.1797C17.9297 13.1797 17.5703 13.5312 17.5703 13.9766C17.5703 14.4219 17.9219 14.7734 18.3672 14.7734C18.8125 14.7734 19.1641 14.4219 19.1641 13.9766C19.1641 13.5312 18.8125 13.1797 18.3672 13.1797Z" fill="#8F5833"/>
<path fill-rule="evenodd" clip-rule="evenodd" d="M16.7734 2.98438C16.5781 2.98438 16.4219 3.14063 16.4219 3.33594C16.4219 3.53125 16.5781 3.6875 16.7734 3.6875C16.9687 3.6875 17.125 3.53125 17.125 3.33594C17.125 3.14063 16.9687 2.98438 16.7734 2.98438Z" fill="#AB6C48"/>
<path fill-rule="evenodd" clip-rule="evenodd" d="M18.4609 6.5625C18.3594 6.5625 18.2734 6.64844 18.2734 6.75C18.2734 6.85156 18.3594 6.9375 18.4609 6.9375C18.5625 6.9375 18.6484 6.85156 18.6484 6.75C18.6484 6.64844 18.5625 6.5625 18.4609 6.5625Z" fill="#AB6C48"/>
<path fill-rule="evenodd" clip-rule="evenodd" d="M16.6641 10.4688C16.4141 10.4688 16.2109 10.6719 16.2109 10.9219C16.2109 11.1719 16.4141 11.375 16.6641 11.375C16.9141 11.375 17.1172 11.1719 17.1172 10.9219C17.1172 10.6719 16.9141 10.4688 16.6641 10.4688Z" fill="#AB6C48"/>
<path fill-rule="evenodd" clip-rule="evenodd" d="M18.1875 16.6484C18.0469 16.6484 17.9297 16.7656 17.9297 16.9062C17.9297 17.0469 18.0469 17.1641 18.1875 17.1641C18.3281 17.1641 18.4453 17.0469 18.4453 16.9062C18.4453 16.7656 18.3281 16.6484 18.1875 16.6484Z" fill="#AB6C48"/>
<path fill-rule="evenodd" clip-rule="evenodd" d="M17.3281 22.5547C17.1875 22.5547 17.0703 22.6719 17.0703 22.8125C17.0703 22.9531 17.1875 23.0703 17.3281 23.0703C17.4687 23.0703 17.5859 22.9531 17.5859 22.8125C17.5859 22.6719 17.4687 22.5547 17.3281 22.5547Z" fill="#AB6C48"/>
<path d="M7.16406 2.24219C7.56965 2.24219 7.89844 1.9134 7.89844 1.50781C7.89844 1.10223 7.56965 0.773438 7.16406 0.773438C6.75848 0.773438 6.42969 1.10223 6.42969 1.50781C6.42969 1.9134 6.75848 2.24219 7.16406 2.24219Z" fill="#63391B"/>
<path d="M11.4141 5.78125C11.496 5.78125 11.5625 5.71479 11.5625 5.63281C11.5625 5.55083 11.496 5.48438 11.4141 5.48438C11.3321 5.48438 11.2656 5.55083 11.2656 5.63281C11.2656 5.71479 11.3321 5.78125 11.4141 5.78125Z" fill="#63391B"/>
<path d="M2.91406 7.32031C3.64325 7.32031 4.23438 6.72919 4.23438 6C4.23438 5.27081 3.64325 4.67969 2.91406 4.67969C2.18487 4.67969 1.59375 5.27081 1.59375 6C1.59375 6.72919 2.18487 7.32031 2.91406 7.32031Z" fill="#63391B"/>
<path fill-rule="evenodd" clip-rule="evenodd" d="M9.6875 12.6172C9.38281 12.6172 9.14062 12.8594 9.14062 13.1641C9.14062 13.4688 9.38281 13.7109 9.6875 13.7109C9.99219 13.7109 10.2344 13.4688 10.2344 13.1641C10.2344 12.8594 9.99219 12.6172 9.6875 12.6172Z" fill="#63391B"/>
<path fill-rule="evenodd" clip-rule="evenodd" d="M4.11719 12.5469C3.70312 12.5469 3.35938 12.8828 3.35938 13.3047C3.35938 13.7266 3.69531 14.0625 4.11719 14.0625C4.53906 14.0625 4.875 13.7266 4.875 13.3047C4.875 12.8828 4.53906 12.5469 4.11719 12.5469Z" fill="#63391B"/>
<path fill-rule="evenodd" clip-rule="evenodd" d="M9.33594 20.7266C9.02344 20.7266 8.77344 20.9766 8.77344 21.2891C8.77344 21.6016 9.02344 21.8516 9.33594 21.8516C9.64844 21.8516 9.89844 21.6016 9.89844 21.2891C9.89844 20.9766 9.64844 20.7266 9.33594 20.7266Z" fill="#63391B"/>
<path fill-rule="evenodd" clip-rule="evenodd" d="M2.92969 20.3125C2.42969 20.3125 2.02344 20.7187 2.02344 21.2187C2.02344 21.7187 2.42969 22.125 2.92969 22.125C3.42969 22.125 3.83594 21.7187 3.83594 21.2187C3.83594 20.7187 3.42969 20.3125 2.92969 20.3125Z" fill="#63391B"/>
</g>
<defs>
<clipPath id="clip0_44_147055">
<rect width="24" height="24" fill="white"/>
</clipPath>
</defs>
</svg>
