<svg width="24" height="24" viewBox="0 0 24 24" fill="none" xmlns="http://www.w3.org/2000/svg">
<g clip-path="url(#clip0_44_147168)">
<path d="M24 0H0V24H24V0Z" fill="#7B4720"/>
<path fill-rule="evenodd" clip-rule="evenodd" d="M18.9689 0C19.086 2.23437 17.6564 2.09375 17.8751 2.98437C18.1954 4.30469 19.7579 3.52344 19.9689 4.55469C20.3126 6.25 18.336 6.60156 19.9689 8.07813C20.9767 8.98438 22.6017 8.36719 23.7735 8.60938C23.8204 8.61719 23.9532 8.59375 24.0001 8.57812V0H18.9689Z" fill="#AB6C48"/>
<path fill-rule="evenodd" clip-rule="evenodd" d="M19.9689 8.07813C18.3282 6.60156 20.3126 6.24219 19.9689 4.55469C19.7579 3.52344 18.1954 4.30469 17.8751 2.98437C17.6564 2.09375 19.0861 2.23437 18.9689 0H14.297C14.8595 2.41406 15.297 2.07813 13.5157 4.30469C12.6642 5.375 14.7814 6.92969 15.5782 7.34375C17.8673 8.53906 15.547 11.2812 15.8204 12.4609C16.8751 16.9297 22.6173 13.1953 24.0001 14.1016V8.57031C23.9532 8.58594 23.8204 8.60938 23.7736 8.60156C22.6017 8.35938 20.9767 8.98437 19.9689 8.07031V8.07813Z" fill="#8F5833"/>
<path fill-rule="evenodd" clip-rule="evenodd" d="M19.8359 1.5C19.6641 1.5 19.5312 1.64062 19.5312 1.80469C19.5312 1.96875 19.6719 2.10938 19.8359 2.10938C20 2.10938 20.1406 1.96875 20.1406 1.80469C20.1406 1.64062 20 1.5 19.8359 1.5Z" fill="#8F5833"/>
<path fill-rule="evenodd" clip-rule="evenodd" d="M21.1797 3.64844C20.9141 3.64844 20.7031 3.85938 20.7031 4.125C20.7031 4.39063 20.9141 4.60156 21.1797 4.60156C21.4453 4.60156 21.6562 4.39063 21.6562 4.125C21.6562 3.85938 21.4453 3.64844 21.1797 3.64844Z" fill="#8F5833"/>
<path fill-rule="evenodd" clip-rule="evenodd" d="M21.5312 6.86719C21.2187 6.86719 20.9688 7.11719 20.9688 7.42969C20.9688 7.74219 21.2187 7.99219 21.5312 7.99219C21.8437 7.99219 22.0938 7.74219 22.0938 7.42969C22.0938 7.11719 21.8437 6.86719 21.5312 6.86719Z" fill="#8F5833"/>
<path d="M21.8281 12.75C22.2855 12.75 22.6563 12.3792 22.6563 11.9219C22.6563 11.4645 22.2855 11.0938 21.8281 11.0938C21.3708 11.0938 21 11.4645 21 11.9219C21 12.3792 21.3708 12.75 21.8281 12.75Z" fill="#7B4720"/>
<path fill-rule="evenodd" clip-rule="evenodd" d="M18.1641 12.7969C17.9453 12.7969 17.7734 12.9687 17.7734 13.1875C17.7734 13.4063 17.9453 13.5781 18.1641 13.5781C18.3828 13.5781 18.5547 13.4063 18.5547 13.1875C18.5547 12.9687 18.3828 12.7969 18.1641 12.7969Z" fill="#7B4720"/>
<path fill-rule="evenodd" clip-rule="evenodd" d="M18.5781 9.38281C18.2188 9.38281 17.9219 9.67969 17.9219 10.0391C17.9219 10.3984 18.2188 10.6953 18.5781 10.6953C18.9375 10.6953 19.2344 10.3984 19.2344 10.0391C19.2344 9.67969 18.9375 9.38281 18.5781 9.38281Z" fill="#7B4720"/>
<path fill-rule="evenodd" clip-rule="evenodd" d="M15.2109 4.20312C14.7969 4.20312 14.4531 4.54687 14.4531 4.96094C14.4531 5.375 14.7969 5.71875 15.2109 5.71875C15.625 5.71875 15.9688 5.38281 15.9688 4.96094C15.9688 4.53906 15.625 4.20312 15.2109 4.20312Z" fill="#7B4720"/>
<path d="M15.9219 1.71875C16.0297 1.71875 16.1172 1.63131 16.1172 1.52344C16.1172 1.41557 16.0297 1.32812 15.9219 1.32812C15.814 1.32812 15.7266 1.41557 15.7266 1.52344C15.7266 1.63131 15.814 1.71875 15.9219 1.71875Z" fill="#7B4720"/>
<path fill-rule="evenodd" clip-rule="evenodd" d="M17.4609 1.14062C17.2656 1.14062 17.1094 1.29687 17.1094 1.49219C17.1094 1.6875 17.2656 1.84375 17.4609 1.84375C17.6563 1.84375 17.8125 1.6875 17.8125 1.49219C17.8125 1.29687 17.6563 1.14062 17.4609 1.14062Z" fill="#AB6C48"/>
<path fill-rule="evenodd" clip-rule="evenodd" d="M18.4297 4.14844C18.1797 4.14844 17.9688 4.35156 17.9688 4.60938C17.9688 4.86719 18.1719 5.07031 18.4297 5.07031C18.6875 5.07031 18.8906 4.86719 18.8906 4.60938C18.8906 4.35156 18.6875 4.14844 18.4297 4.14844Z" fill="#AB6C48"/>
<path d="M21.0547 10.6875C21.5164 10.6875 21.8906 10.3132 21.8906 9.85156C21.8906 9.38989 21.5164 9.01562 21.0547 9.01562C20.593 9.01562 20.2188 9.38989 20.2188 9.85156C20.2188 10.3132 20.593 10.6875 21.0547 10.6875Z" fill="#AB6C48"/>
<path fill-rule="evenodd" clip-rule="evenodd" d="M23.3672 9.61719C23.1953 9.61719 23.0469 9.75781 23.0469 9.9375C23.0469 10.1172 23.1875 10.2578 23.3672 10.2578C23.5469 10.2578 23.6875 10.1172 23.6875 9.9375C23.6875 9.75781 23.5469 9.61719 23.3672 9.61719Z" fill="#AB6C48"/>
<path d="M16.7031 7.04688C16.811 7.04688 16.8984 6.95943 16.8984 6.85156C16.8984 6.74369 16.811 6.65625 16.7031 6.65625C16.5953 6.65625 16.5078 6.74369 16.5078 6.85156C16.5078 6.95943 16.5953 7.04688 16.7031 7.04688Z" fill="#AB6C48"/>
<path fill-rule="evenodd" clip-rule="evenodd" d="M13.25 1.16406C12.9531 1.16406 12.7109 1.40625 12.7109 1.70313C12.7109 2 12.9531 2.24219 13.25 2.24219C13.5469 2.24219 13.7891 2 13.7891 1.70313C13.7891 1.40625 13.5469 1.16406 13.25 1.16406Z" fill="#8F5833"/>
<path d="M12.2266 5.41406C12.4164 5.41406 12.5703 5.26016 12.5703 5.07031C12.5703 4.88046 12.4164 4.72656 12.2266 4.72656C12.0367 4.72656 11.8828 4.88046 11.8828 5.07031C11.8828 5.26016 12.0367 5.41406 12.2266 5.41406Z" fill="#8F5833"/>
<path fill-rule="evenodd" clip-rule="evenodd" d="M15.5156 7.85938C15.2578 7.85938 15.0547 8.07031 15.0547 8.32031C15.0547 8.57031 15.2656 8.78125 15.5156 8.78125C15.7656 8.78125 15.9766 8.57031 15.9766 8.32031C15.9766 8.07031 15.7656 7.85938 15.5156 7.85938Z" fill="#8F5833"/>
<path fill-rule="evenodd" clip-rule="evenodd" d="M13.8125 10.6406C13.4766 10.6406 13.2031 10.9141 13.2031 11.25C13.2031 11.5859 13.4766 11.8594 13.8125 11.8594C14.1484 11.8594 14.4219 11.5859 14.4219 11.25C14.4219 10.9141 14.1484 10.6406 13.8125 10.6406Z" fill="#8F5833"/>
<path fill-rule="evenodd" clip-rule="evenodd" d="M21.3516 16.1094C20.8984 16.1094 20.5234 16.4844 20.5234 16.9375C20.5234 17.3906 20.8984 17.7656 21.3516 17.7656C21.8047 17.7656 22.1797 17.3906 22.1797 16.9375C22.1797 16.4844 21.8047 16.1094 21.3516 16.1094Z" fill="#8F5833"/>
<path d="M22.5781 14.7344C22.6299 14.7344 22.6719 14.6924 22.6719 14.6406C22.6719 14.5888 22.6299 14.5469 22.5781 14.5469C22.5263 14.5469 22.4844 14.5888 22.4844 14.6406C22.4844 14.6924 22.5263 14.7344 22.5781 14.7344Z" fill="#8F5833"/>
<path d="M14.9609 15.0781C15.0947 15.0781 15.2031 14.9697 15.2031 14.8359C15.2031 14.7022 15.0947 14.5938 14.9609 14.5938C14.8272 14.5938 14.7188 14.7022 14.7188 14.8359C14.7188 14.9697 14.8272 15.0781 14.9609 15.0781Z" fill="#8F5833"/>
<path fill-rule="evenodd" clip-rule="evenodd" d="M3.80469 16.2578C3.0625 16.2578 2.46094 16.8594 2.46094 17.6016C2.46094 18.3438 3.0625 18.9453 3.80469 18.9453C4.54687 18.9453 5.14844 18.3438 5.14844 17.6016C5.14844 16.8594 4.54687 16.2578 3.80469 16.2578Z" fill="#63391B"/>
<path fill-rule="evenodd" clip-rule="evenodd" d="M4.73437 6.78125C4.23437 6.78125 3.82812 7.1875 3.82812 7.6875C3.82812 8.1875 4.23437 8.59375 4.73437 8.59375C5.23437 8.59375 5.64062 8.1875 5.64062 7.6875C5.64062 7.1875 5.23437 6.78125 4.73437 6.78125Z" fill="#63391B"/>
<path fill-rule="evenodd" clip-rule="evenodd" d="M12.5 9.22656C12.4063 9.22656 12.3281 9.30469 12.3281 9.39844C12.3281 9.49219 12.4063 9.57031 12.5 9.57031C12.5938 9.57031 12.6719 9.49219 12.6719 9.39844C12.6719 9.30469 12.5938 9.22656 12.5 9.22656Z" fill="#63391B"/>
<path fill-rule="evenodd" clip-rule="evenodd" d="M10.1797 18.0625C9.50781 18.0625 8.96094 18.6094 8.96094 19.2812C8.96094 19.9531 9.50781 20.5 10.1797 20.5C10.8516 20.5 11.3984 19.9531 11.3984 19.2812C11.3984 18.6094 10.8516 18.0625 10.1797 18.0625Z" fill="#63391B"/>
<path fill-rule="evenodd" clip-rule="evenodd" d="M20.875 20.6484C20.125 20.6484 19.5078 21.2656 19.5078 22.0156C19.5078 22.7656 20.125 23.3828 20.875 23.3828C21.625 23.3828 22.2422 22.7656 22.2422 22.0156C22.2422 21.2656 21.625 20.6484 20.875 20.6484Z" fill="#63391B"/>
<path fill-rule="evenodd" clip-rule="evenodd" d="M6.125 11.9141C5.90625 11.9141 5.73438 12.0859 5.73438 12.3047C5.73438 12.5234 5.90625 12.6953 6.125 12.6953C6.34375 12.6953 6.51562 12.5234 6.51562 12.3047C6.51562 12.0859 6.34375 11.9141 6.125 11.9141Z" fill="#63391B"/>
</g>
<defs>
<clipPath id="clip0_44_147168">
<rect width="24" height="24" fill="white"/>
</clipPath>
</defs>
</svg>
