<svg width="24" height="24" viewBox="0 0 24 24" fill="none" xmlns="http://www.w3.org/2000/svg">
<g clip-path="url(#clip0_44_146857)">
<path d="M24 0H0V24H24V0Z" fill="#7B4720"/>
<path fill-rule="evenodd" clip-rule="evenodd" d="M0 8.57812C2.17969 8.22656 1.96875 9.55469 3.1875 9.60156C4.39844 9.64844 5 8.25781 5.92187 8.1875C6.84375 8.11719 6.57031 8.38281 7.27344 9.00781C7.97656 9.63281 9.25 10.9922 10.2578 10.4609C11.2734 9.9375 11.5391 9.40625 12.7578 10.3984C15.3516 12.5234 16.375 3.94531 18.8594 9.05469C19.125 9.60938 21.6172 10.8984 22.1484 9.84375C22.6797 8.78906 23.0547 8.88281 24 8.5625V0H0V8.57812Z" fill="#AB6C48"/>
<path fill-rule="evenodd" clip-rule="evenodd" d="M22.1484 9.85122C21.6172 10.9059 19.125 9.60903 18.8594 9.06216C16.375 3.95278 15.3516 12.5309 12.7578 10.4059C11.5391 9.4059 11.2656 9.93715 10.2578 10.4684C9.24219 10.9918 7.97656 9.64028 7.27344 9.01528C6.57031 8.39028 6.84375 8.12465 5.92187 8.19497C5 8.26528 4.39844 9.65591 3.1875 9.60903C1.97656 9.56216 2.17969 8.23403 0 8.58559V14.1168C0.960938 14.1168 1.32031 14.2887 1.85156 15.3434C2.38281 16.3981 4.875 15.109 5.14062 14.5543C7.625 9.44497 8.64844 18.0231 11.2422 15.8981C12.4609 14.8981 12.7344 15.4293 13.7422 15.9606C14.7578 16.484 16.0234 15.1325 16.7266 14.5075C17.4297 13.8825 17.1562 13.6168 18.0781 13.6872C19 13.7575 19.6016 15.1481 20.8125 15.1012C22.0234 15.0543 21.8203 14.2262 24 14.1247V8.64028C23.0391 8.64028 22.6797 8.81215 22.1484 9.86684V9.85122Z" fill="#8F5833"/>
<path fill-rule="evenodd" clip-rule="evenodd" d="M3.35938 12.8516C2.76563 12.8516 2.28906 13.3359 2.28906 13.9219C2.28906 14.5078 2.77344 15 3.35938 15C3.94531 15 4.42969 14.5156 4.42969 13.9219C4.42969 13.3281 3.94531 12.8516 3.35938 12.8516Z" fill="#7B4720"/>
<path fill-rule="evenodd" clip-rule="evenodd" d="M1.49219 11.5547C1.21875 11.5547 0.992188 11.7813 0.992188 12.0547C0.992188 12.3281 1.21875 12.5547 1.49219 12.5547C1.76562 12.5547 1.99219 12.3281 1.99219 12.0547C1.99219 11.7813 1.76562 11.5547 1.49219 11.5547Z" fill="#7B4720"/>
<path fill-rule="evenodd" clip-rule="evenodd" d="M6.875 10.2578C6.59375 10.2578 6.35938 10.4844 6.35938 10.7734C6.35938 11.0625 6.58594 11.2891 6.875 11.2891C7.16406 11.2891 7.39062 11.0625 7.39062 10.7734C7.39062 10.4844 7.16406 10.2578 6.875 10.2578Z" fill="#7B4720"/>
<path fill-rule="evenodd" clip-rule="evenodd" d="M9.80469 13.0938C9.33594 13.0938 8.95312 13.4766 8.95312 13.9453C8.95312 14.4141 9.33594 14.7969 9.80469 14.7969C10.2734 14.7969 10.6563 14.4141 10.6563 13.9453C10.6563 13.4766 10.2734 13.0938 9.80469 13.0938Z" fill="#7B4720"/>
<path fill-rule="evenodd" clip-rule="evenodd" d="M14.2422 13.5234C13.7266 13.5234 13.3047 13.9453 13.3047 14.4609C13.3047 14.9766 13.7266 15.3984 14.2422 15.3984C14.7578 15.3984 15.1797 14.9766 15.1797 14.4609C15.1797 13.9453 14.7578 13.5234 14.2422 13.5234Z" fill="#7B4720"/>
<path d="M13.3359 12.5781C13.543 12.5781 13.7109 12.4102 13.7109 12.2031C13.7109 11.996 13.543 11.8281 13.3359 11.8281C13.1288 11.8281 12.9609 11.996 12.9609 12.2031C12.9609 12.4102 13.1288 12.5781 13.3359 12.5781Z" fill="#7B4720"/>
<path fill-rule="evenodd" clip-rule="evenodd" d="M18.2656 11.4531C17.9766 11.4531 17.7422 11.6875 17.7422 11.9766C17.7422 12.2656 17.9766 12.5 18.2656 12.5C18.5547 12.5 18.7891 12.2656 18.7891 11.9766C18.7891 11.6875 18.5547 11.4531 18.2656 11.4531Z" fill="#7B4720"/>
<path fill-rule="evenodd" clip-rule="evenodd" d="M16.3125 10.7031C15.8906 10.7031 15.5469 11.0469 15.5469 11.4688C15.5469 11.8906 15.8906 12.2344 16.3125 12.2344C16.7344 12.2344 17.0781 11.8906 17.0781 11.4688C17.0781 11.0469 16.7344 10.7031 16.3125 10.7031Z" fill="#7B4720"/>
<path fill-rule="evenodd" clip-rule="evenodd" d="M20.8672 12.9531C20.5234 12.9531 20.2422 13.2344 20.2422 13.5781C20.2422 13.9219 20.5234 14.2031 20.8672 14.2031C21.2109 14.2031 21.4922 13.9219 21.4922 13.5781C21.4922 13.2344 21.2109 12.9531 20.8672 12.9531Z" fill="#7B4720"/>
<path d="M21.6719 12.2578C21.8315 12.2578 21.9609 12.1284 21.9609 11.9687C21.9609 11.8091 21.8315 11.6797 21.6719 11.6797C21.5122 11.6797 21.3828 11.8091 21.3828 11.9687C21.3828 12.1284 21.5122 12.2578 21.6719 12.2578Z" fill="#7B4720"/>
<path fill-rule="evenodd" clip-rule="evenodd" d="M1.01562 15.7266C0.773437 15.7266 0.578125 15.9219 0.578125 16.1641C0.578125 16.4063 0.773437 16.6016 1.01562 16.6016C1.25781 16.6016 1.45313 16.4063 1.45313 16.1641C1.45313 15.9219 1.25781 15.7266 1.01562 15.7266Z" fill="#8F5833"/>
<path fill-rule="evenodd" clip-rule="evenodd" d="M3.91406 17.2422C3.64844 17.2422 3.4375 17.4531 3.4375 17.7188C3.4375 17.9844 3.64844 18.1953 3.91406 18.1953C4.17969 18.1953 4.39062 17.9844 4.39062 17.7188C4.39062 17.4531 4.17969 17.2422 3.91406 17.2422Z" fill="#8F5833"/>
<path fill-rule="evenodd" clip-rule="evenodd" d="M6.23437 14.1172C5.96094 14.1172 5.73438 14.3437 5.73438 14.6172C5.73438 14.8906 5.96094 15.1172 6.23437 15.1172C6.50781 15.1172 6.73437 14.8906 6.73437 14.6172C6.73437 14.3437 6.50781 14.1172 6.23437 14.1172Z" fill="#8F5833"/>
<path fill-rule="evenodd" clip-rule="evenodd" d="M9.47656 17.3906C9.32031 17.3906 9.19531 17.5156 9.19531 17.6719C9.19531 17.8281 9.32031 17.9531 9.47656 17.9531C9.63281 17.9531 9.75781 17.8281 9.75781 17.6719C9.75781 17.5156 9.63281 17.3906 9.47656 17.3906Z" fill="#8F5833"/>
<path fill-rule="evenodd" clip-rule="evenodd" d="M12.5781 16.1719C12.4375 16.1719 12.3203 16.2891 12.3203 16.4297C12.3203 16.5703 12.4375 16.6875 12.5781 16.6875C12.7187 16.6875 12.8359 16.5703 12.8359 16.4297C12.8359 16.2891 12.7187 16.1719 12.5781 16.1719Z" fill="#8F5833"/>
<path fill-rule="evenodd" clip-rule="evenodd" d="M16.6562 16.4453C16.4609 16.4453 16.3047 16.6016 16.3047 16.7969C16.3047 16.9922 16.4609 17.1484 16.6562 17.1484C16.8516 17.1484 17.0078 16.9922 17.0078 16.7969C17.0078 16.6016 16.8516 16.4453 16.6562 16.4453Z" fill="#8F5833"/>
<path d="M18.6562 16.375C19.0316 16.375 19.3359 16.0707 19.3359 15.6953C19.3359 15.3199 19.0316 15.0156 18.6562 15.0156C18.2809 15.0156 17.9766 15.3199 17.9766 15.6953C17.9766 16.0707 18.2809 16.375 18.6562 16.375Z" fill="#8F5833"/>
<path fill-rule="evenodd" clip-rule="evenodd" d="M22.2266 15.6953C22.0078 15.6953 21.8203 15.875 21.8203 16.1016C21.8203 16.3281 22 16.5078 22.2266 16.5078C22.4531 16.5078 22.6328 16.3281 22.6328 16.1016C22.6328 15.875 22.4531 15.6953 22.2266 15.6953Z" fill="#8F5833"/>
<path fill-rule="evenodd" clip-rule="evenodd" d="M1.82813 6.57812C1.54687 6.57812 1.3125 6.80469 1.3125 7.09375C1.3125 7.38281 1.53906 7.60937 1.82813 7.60937C2.11719 7.60937 2.34375 7.38281 2.34375 7.09375C2.34375 6.80469 2.11719 6.57812 1.82813 6.57812Z" fill="#8F5833"/>
<path fill-rule="evenodd" clip-rule="evenodd" d="M5.5 5.375C5.35937 5.375 5.24219 5.49219 5.24219 5.63281C5.24219 5.77344 5.35937 5.89062 5.5 5.89062C5.64062 5.89062 5.75781 5.77344 5.75781 5.63281C5.75781 5.49219 5.64062 5.375 5.5 5.375Z" fill="#8F5833"/>
<path fill-rule="evenodd" clip-rule="evenodd" d="M9.00781 7.625C8.54687 7.625 8.17969 8 8.17969 8.45312C8.17969 8.90625 8.55469 9.28125 9.00781 9.28125C9.46094 9.28125 9.83594 8.90625 9.83594 8.45312C9.83594 8 9.46094 7.625 9.00781 7.625Z" fill="#8F5833"/>
<path fill-rule="evenodd" clip-rule="evenodd" d="M12.5547 7.32812C12.375 7.32812 12.2266 7.47656 12.2266 7.65625C12.2266 7.83594 12.375 7.98438 12.5547 7.98438C12.7344 7.98438 12.8828 7.83594 12.8828 7.65625C12.8828 7.47656 12.7344 7.32812 12.5547 7.32812Z" fill="#8F5833"/>
<path fill-rule="evenodd" clip-rule="evenodd" d="M13.2031 5.15625C13.125 5.15625 13.0547 5.21875 13.0547 5.30469C13.0547 5.39063 13.1172 5.45313 13.2031 5.45313C13.2891 5.45313 13.3516 5.39063 13.3516 5.30469C13.3516 5.21875 13.2891 5.15625 13.2031 5.15625Z" fill="#8F5833"/>
<path fill-rule="evenodd" clip-rule="evenodd" d="M21.7969 7.82031C21.5391 7.82031 21.3359 8.03125 21.3359 8.28125C21.3359 8.53125 21.5469 8.74219 21.7969 8.74219C22.0469 8.74219 22.2578 8.53125 22.2578 8.28125C22.2578 8.03125 22.0469 7.82031 21.7969 7.82031Z" fill="#8F5833"/>
<path fill-rule="evenodd" clip-rule="evenodd" d="M19.4766 7.38281C19.3437 7.38281 19.2344 7.49219 19.2344 7.625C19.2344 7.75781 19.3437 7.86719 19.4766 7.86719C19.6094 7.86719 19.7187 7.75781 19.7187 7.625C19.7187 7.49219 19.6094 7.38281 19.4766 7.38281Z" fill="#8F5833"/>
<path fill-rule="evenodd" clip-rule="evenodd" d="M13.9766 8.42969C13.5391 8.42969 13.1797 8.78906 13.1797 9.22656C13.1797 9.66406 13.5391 10.0234 13.9766 10.0234C14.4141 10.0234 14.7734 9.66406 14.7734 9.22656C14.7734 8.78906 14.4141 8.42969 13.9766 8.42969Z" fill="#8F5833"/>
<path d="M21.9922 6.23438C22.2079 6.23438 22.3828 6.05949 22.3828 5.84375C22.3828 5.62801 22.2079 5.45312 21.9922 5.45312C21.7765 5.45312 21.6016 5.62801 21.6016 5.84375C21.6016 6.05949 21.7765 6.23438 21.9922 6.23438Z" fill="#8F5833"/>
<path fill-rule="evenodd" clip-rule="evenodd" d="M3.33594 10.4688C3.14063 10.4688 2.98438 10.625 2.98438 10.8203C2.98438 11.0156 3.14063 11.1719 3.33594 11.1719C3.53125 11.1719 3.6875 11.0156 3.6875 10.8203C3.6875 10.625 3.53125 10.4688 3.33594 10.4688Z" fill="#AB6C48"/>
<path fill-rule="evenodd" clip-rule="evenodd" d="M6.75 8.94531C6.64844 8.94531 6.5625 9.03125 6.5625 9.13281C6.5625 9.23437 6.64844 9.32031 6.75 9.32031C6.85156 9.32031 6.9375 9.23437 6.9375 9.13281C6.9375 9.03125 6.85156 8.94531 6.75 8.94531Z" fill="#AB6C48"/>
<path d="M10.9219 11.3828C11.1721 11.3828 11.375 11.1799 11.375 10.9297C11.375 10.6794 11.1721 10.4766 10.9219 10.4766C10.6716 10.4766 10.4688 10.6794 10.4688 10.9297C10.4688 11.1799 10.6716 11.3828 10.9219 11.3828Z" fill="#AB6C48"/>
<path fill-rule="evenodd" clip-rule="evenodd" d="M16.9062 9.14844C16.7656 9.14844 16.6484 9.26562 16.6484 9.40625C16.6484 9.54687 16.7656 9.66406 16.9062 9.66406C17.0469 9.66406 17.1641 9.54687 17.1641 9.40625C17.1641 9.26562 17.0469 9.14844 16.9062 9.14844Z" fill="#AB6C48"/>
<path fill-rule="evenodd" clip-rule="evenodd" d="M22.8125 10.0078C22.6719 10.0078 22.5547 10.125 22.5547 10.2656C22.5547 10.4062 22.6719 10.5234 22.8125 10.5234C22.9531 10.5234 23.0703 10.4062 23.0703 10.2656C23.0703 10.125 22.9531 10.0078 22.8125 10.0078Z" fill="#AB6C48"/>
<path fill-rule="evenodd" clip-rule="evenodd" d="M1.50781 19.6953C1.10156 19.6953 0.773438 20.0234 0.773438 20.4297C0.773438 20.8359 1.10156 21.1641 1.50781 21.1641C1.91406 21.1641 2.24219 20.8359 2.24219 20.4297C2.24219 20.0234 1.91406 19.6953 1.50781 19.6953Z" fill="#63391B"/>
<path d="M5.63281 16.3281C5.71479 16.3281 5.78125 16.2617 5.78125 16.1797C5.78125 16.0977 5.71479 16.0312 5.63281 16.0312C5.55083 16.0312 5.48438 16.0977 5.48438 16.1797C5.48438 16.2617 5.55083 16.3281 5.63281 16.3281Z" fill="#63391B"/>
<path fill-rule="evenodd" clip-rule="evenodd" d="M8.10156 18.7656C7.375 18.7656 6.78125 19.3594 6.78125 20.0859C6.78125 20.8125 7.375 21.4062 8.10156 21.4062C8.82812 21.4062 9.42188 20.8125 9.42188 20.0859C9.42188 19.3594 8.82812 18.7656 8.10156 18.7656Z" fill="#63391B"/>
<path fill-rule="evenodd" clip-rule="evenodd" d="M13.1719 17.3516C12.8672 17.3516 12.625 17.6016 12.625 17.8984C12.625 18.1953 12.875 18.4453 13.1719 18.4453C13.4688 18.4453 13.7187 18.1953 13.7187 17.8984C13.7187 17.6016 13.4688 17.3516 13.1719 17.3516Z" fill="#63391B"/>
<path fill-rule="evenodd" clip-rule="evenodd" d="M16.2812 18.3281C15.8672 18.3281 15.5234 18.6719 15.5234 19.0859C15.5234 19.5 15.8672 19.8438 16.2812 19.8438C16.6953 19.8438 17.0391 19.5078 17.0391 19.0859C17.0391 18.6641 16.6953 18.3281 16.2812 18.3281Z" fill="#63391B"/>
<path fill-rule="evenodd" clip-rule="evenodd" d="M21.2891 17.6953C20.9766 17.6953 20.7266 17.9453 20.7266 18.2578C20.7266 18.5703 20.9766 18.8203 21.2891 18.8203C21.6016 18.8203 21.8516 18.5703 21.8516 18.2578C21.8516 17.9453 21.6016 17.6953 21.2891 17.6953Z" fill="#63391B"/>
<path fill-rule="evenodd" clip-rule="evenodd" d="M22.2109 20.3594C22.0391 20.3594 21.8906 20.5 21.8906 20.6797C21.8906 20.8594 22.0312 21 22.2109 21C22.3906 21 22.5312 20.8594 22.5312 20.6797C22.5312 20.5 22.3906 20.3594 22.2109 20.3594Z" fill="#63391B"/>
<path opacity="0.2" fill-rule="evenodd" clip-rule="evenodd" d="M0.320312 2.5625C0.320312 3.33594 1.05469 4.625 1.64844 4.625C2.24219 4.625 2.49219 4.42188 2.75 4.13281C3.0625 4.63281 3.09375 6.03125 4.10156 6.03906C5.10937 6.03906 5.80469 5.625 5.90625 4.74219C6.00781 5.53125 6.50781 6.60938 7.25781 6.60938C8.00781 6.60938 8.55469 6.26563 8.79688 5.67969C9.02344 6.15625 9.49219 7.02344 10.0703 7.02344C10.6484 7.02344 11.1719 6.65625 11.375 6.13281C11.5781 6.65625 12.0859 7.02344 12.6797 7.02344C13.0937 7.02344 13.4687 6.84375 13.7266 6.55469C14.0391 7.05469 14.5937 7.38281 15.2266 7.38281C16.1328 7.38281 16.8828 6.69531 16.9766 5.82031C17.0781 6.60938 17.75 7.22656 18.5703 7.22656C19.2422 7.22656 19.8203 6.8125 20.0625 6.21875C20.2891 6.69531 20.7734 7.02344 21.3281 7.02344C21.7969 7.02344 22.2109 6.79688 22.4609 6.44531C22.6172 6.55469 22.8125 6.61719 23.0156 6.61719C23.5625 6.61719 24.0078 6.17188 24.0078 5.625V0.929688H0.21875L0.3125 2.5625H0.320312Z" fill="black"/>
<path fill-rule="evenodd" clip-rule="evenodd" d="M0.320312 1.63281C0.320312 2.40625 1.05469 3.69531 1.64844 3.69531C2.24219 3.69531 2.49219 3.49219 2.75 3.20313C3.0625 3.70313 3.09375 5.10938 4.10156 5.10938C5.10937 5.10938 5.80469 4.69531 5.90625 3.8125C6.00781 4.60156 6.50781 5.67969 7.25781 5.67969C8.00781 5.67969 8.55469 5.33594 8.79688 4.75C9.02344 5.22656 9.49219 6.09375 10.0703 6.09375C10.6484 6.09375 11.1719 5.72656 11.375 5.20313C11.5781 5.71875 12.0859 6.09375 12.6797 6.09375C13.0937 6.09375 13.4687 5.91406 13.7266 5.625C14.0391 6.125 14.5937 6.45313 15.2266 6.45313C16.1328 6.45313 16.8828 5.76563 16.9766 4.89063C17.0781 5.67969 17.75 6.29688 18.5703 6.29688C19.2422 6.29688 19.8203 5.88281 20.0625 5.28906C20.2891 5.76563 20.7734 6.09375 21.3281 6.09375C21.7969 6.09375 22.2109 5.86719 22.4609 5.51563C22.6172 5.625 22.8125 5.6875 23.0156 5.6875C23.5625 5.6875 24.0078 5.24219 24.0078 4.69531V0H0.21875L0.3125 1.63281H0.320312Z" fill="#6FA024"/>
<path fill-rule="evenodd" clip-rule="evenodd" d="M1.64844 1.91406C2.24219 1.91406 2.49219 1.71094 2.75 1.42188C3.0625 1.92188 3.09375 3.32031 4.10156 3.32813C5.10937 3.32813 5.80469 2.91406 5.90625 2.03125C6.00781 2.82031 6.50781 3.89844 7.25781 3.89844C8.00781 3.89844 8.55469 3.55469 8.79688 2.96875C9.02344 3.44531 9.49219 4.3125 10.0703 4.3125C10.6484 4.3125 11.1719 3.94531 11.375 3.42188C11.5781 3.94531 12.0859 4.3125 12.6797 4.3125C13.0937 4.3125 13.4687 4.13281 13.7266 3.84375C14.0391 4.34375 14.5937 4.67188 15.2266 4.67188C16.1328 4.67188 16.8828 3.98438 16.9766 3.10938C17.0781 3.89844 17.75 4.51563 18.5703 4.51563C19.2422 4.51563 19.8203 4.10156 20.0625 3.50781C20.2891 3.98437 20.7734 4.3125 21.3281 4.3125C21.7969 4.3125 22.2109 4.08594 22.4609 3.73438C22.6875 4.66406 24.0078 4.49219 24.0078 3.6875V0H0.328125C0.414062 0.78125 1.09375 1.91406 1.64844 1.91406Z" fill="#B2CF2A"/>
<path fill-rule="evenodd" clip-rule="evenodd" d="M0.328125 0.0234375C8.15625 1.80469 14.2109 1.35156 24 1.47656V0H0.328125V0.0234375Z" fill="#C5DD5C"/>
</g>
<defs>
<clipPath id="clip0_44_146857">
<rect width="24" height="24" fill="white"/>
</clipPath>
</defs>
</svg>
