<svg width="24" height="24" viewBox="0 0 24 24" fill="none" xmlns="http://www.w3.org/2000/svg">
<g clip-path="url(#clip0_44_148550)">
<path fill-rule="evenodd" clip-rule="evenodd" d="M13.3035 17.8145H10.0594C8.60318 17.8145 7.4209 18.8237 7.4209 20.0493V23.7259C7.4209 23.8124 7.4209 23.8989 7.43532 23.9998H15.9276C15.9276 23.9133 15.942 23.8268 15.942 23.7259V20.0493C15.942 18.8237 14.7453 17.8145 13.3035 17.8145Z" fill="#FFDBA3"/>
<path fill-rule="evenodd" clip-rule="evenodd" d="M13.3034 17.8142H10.0594C8.80498 17.8142 7.73804 18.564 7.47852 19.5588C12.6546 17.4249 14.3848 22.2118 11.703 23.9852H15.942C15.942 23.8987 15.9564 23.8122 15.9564 23.7112V20.0346C15.9564 18.8091 14.7597 17.7998 13.3179 17.7998L13.3034 17.8142Z" fill="#FFC879"/>
<path fill-rule="evenodd" clip-rule="evenodd" d="M12.0059 10C7.36323 10 3.6001 13.7631 3.6001 18.4058C3.77312 22.5149 20.3684 22.5149 20.4116 18.4058C20.4116 13.7631 16.6485 10 12.0059 10Z" fill="#EF649A"/>
<path fill-rule="evenodd" clip-rule="evenodd" d="M16.9801 11.6289C24.3622 19.9482 5.21493 21.3756 3.96055 15.9399C3.71544 16.7185 3.6001 17.5548 3.6001 18.4054C3.77312 22.5146 20.3684 22.5146 20.4116 18.4054C20.4116 15.6371 19.0707 13.1716 16.9945 11.6433L16.9801 11.6289Z" fill="#ED4685"/>
<path fill-rule="evenodd" clip-rule="evenodd" d="M10.0883 10.6781C8.86277 10.9088 7.86792 11.6297 7.86792 12.3074C7.86792 12.985 8.86277 13.3455 10.0883 13.1148C11.3139 12.8841 12.3231 12.1632 12.3231 11.4855C12.3231 10.8079 11.3283 10.4474 10.0883 10.6781Z" fill="white"/>
<path fill-rule="evenodd" clip-rule="evenodd" d="M6.45497 12.8264C5.93592 13.1725 5.54663 13.6915 5.6043 14.0087C5.64756 14.3115 6.10894 14.2827 6.64241 13.951C7.16146 13.605 7.55075 13.086 7.49308 12.7688C7.44982 12.466 6.98844 12.4948 6.45497 12.8264Z" fill="white"/>
<path fill-rule="evenodd" clip-rule="evenodd" d="M18.84 18.4924C18.3209 18.8385 17.9316 19.3575 17.9893 19.6747C18.0326 19.9775 18.4939 19.9487 19.0274 19.6171C19.5465 19.271 19.9358 18.752 19.8781 18.4348C19.8348 18.132 19.3735 18.1608 18.84 18.4924Z" fill="white"/>
<path d="M15.7979 16.4742C16.8012 16.4742 17.6146 15.6608 17.6146 14.6575C17.6146 13.6542 16.8012 12.8408 15.7979 12.8408C14.7946 12.8408 13.9812 13.6542 13.9812 14.6575C13.9812 15.6608 14.7946 16.4742 15.7979 16.4742Z" fill="#E11664"/>
<path d="M10.0882 19.4298C10.9641 19.4298 11.6742 18.7197 11.6742 17.8438C11.6742 16.9679 10.9641 16.2578 10.0882 16.2578C9.21227 16.2578 8.5022 16.9679 8.5022 17.8438C8.5022 18.7197 9.21227 19.4298 10.0882 19.4298Z" fill="#E11664"/>
<path fill-rule="evenodd" clip-rule="evenodd" d="M7.00282 14.7148C6.51261 14.7148 6.09448 15.1186 6.09448 15.6232C6.09448 16.1278 6.49819 16.5171 7.00282 16.5171C7.50746 16.5171 7.91117 16.1134 7.91117 15.6232C7.91117 15.133 7.50746 14.7148 7.00282 14.7148Z" fill="#E11664"/>
<path fill-rule="evenodd" clip-rule="evenodd" d="M4.7824 17.4688C4.40753 17.4688 4.09033 17.7715 4.09033 18.1608C4.09033 18.5501 4.39311 18.8529 4.7824 18.8529C5.17169 18.8529 5.47447 18.5501 5.47447 18.1608C5.47447 17.7715 5.17169 17.4688 4.7824 17.4688Z" fill="#E11664"/>
<path fill-rule="evenodd" clip-rule="evenodd" d="M15.8554 18.7373C15.3219 18.7373 14.8894 19.1698 14.8894 19.7033C14.8894 20.2368 15.3219 20.6693 15.8554 20.6693C16.3889 20.6693 16.8214 20.2368 16.8214 19.7033C16.8214 19.1698 16.3889 18.7373 15.8554 18.7373Z" fill="#E11664"/>
<path fill-rule="evenodd" clip-rule="evenodd" d="M13.217 10.8223C12.9719 10.8223 12.7844 11.0241 12.7844 11.2548C12.7844 11.4855 12.9863 11.6874 13.217 11.6874C13.4477 11.6874 13.6495 11.4855 13.6495 11.2548C13.6495 11.0241 13.4477 10.8223 13.217 10.8223Z" fill="#E11664"/>
<path fill-rule="evenodd" clip-rule="evenodd" d="M11.1985 14.2393C11.0399 14.2393 10.8958 14.369 10.8958 14.542C10.8958 14.7151 11.0255 14.8448 11.1985 14.8448C11.3716 14.8448 11.5013 14.7151 11.5013 14.542C11.5013 14.369 11.3716 14.2393 11.1985 14.2393Z" fill="#E11664"/>
<path fill-rule="evenodd" clip-rule="evenodd" d="M18.8978 15.8975C18.7247 15.8975 18.5806 16.0416 18.5806 16.2147C18.5806 16.3877 18.7247 16.5319 18.8978 16.5319C19.0708 16.5319 19.215 16.3877 19.215 16.2147C19.215 16.0416 19.0708 15.8975 18.8978 15.8975Z" fill="#E11664"/>
</g>
<defs>
<clipPath id="clip0_44_148550">
<rect width="16.8115" height="14" fill="white" transform="translate(3.6001 10)"/>
</clipPath>
</defs>
</svg>
