<svg width="24" height="24" viewBox="0 0 24 24" fill="none" xmlns="http://www.w3.org/2000/svg">
<g clip-path="url(#clip0_44_147098)">
<path d="M24 0H0V24H24V0Z" fill="#7B4720"/>
<path fill-rule="evenodd" clip-rule="evenodd" d="M5.03125 0H0V8.57812C0.046875 8.59375 0.179687 8.61719 0.226562 8.60938C1.39844 8.36719 3.01562 8.99219 4.03125 8.07813C5.67187 6.60156 3.6875 6.24219 4.03125 4.55469C4.24219 3.52344 5.80469 4.30469 6.125 2.98437C6.34375 2.09375 4.91406 2.23437 5.03125 0Z" fill="#AB6C48"/>
<path fill-rule="evenodd" clip-rule="evenodd" d="M9.70313 0H5.03125C4.91406 2.23437 6.34375 2.09375 6.125 2.98437C5.80469 4.30469 4.24219 3.52344 4.03125 4.55469C3.6875 6.25 5.66406 6.60156 4.03125 8.07813C3.02344 8.98438 1.39844 8.36719 0.226563 8.60938C0.179688 8.61719 0.046875 8.59375 0 8.57812V14.1094C1.38281 13.2031 7.13281 16.9297 8.1875 12.4688C8.46875 11.2891 6.14063 8.54687 8.42969 7.35156C9.22656 6.9375 11.3438 5.375 10.4922 4.3125C8.71094 2.08594 9.14844 2.41406 9.71094 0.0078125L9.70313 0Z" fill="#8F5833"/>
<path fill-rule="evenodd" clip-rule="evenodd" d="M4.16406 1.5C4 1.5 3.85938 1.64062 3.85938 1.80469C3.85938 1.96875 4 2.10938 4.16406 2.10938C4.32812 2.10938 4.46875 1.96875 4.46875 1.80469C4.46875 1.64062 4.32812 1.5 4.16406 1.5Z" fill="#8F5833"/>
<path fill-rule="evenodd" clip-rule="evenodd" d="M2.82031 3.64844C2.55469 3.64844 2.34375 3.85938 2.34375 4.125C2.34375 4.39063 2.55469 4.60156 2.82031 4.60156C3.08594 4.60156 3.29687 4.39063 3.29687 4.125C3.29687 3.85938 3.08594 3.64844 2.82031 3.64844Z" fill="#8F5833"/>
<path fill-rule="evenodd" clip-rule="evenodd" d="M2.46875 6.86719C2.15625 6.86719 1.90625 7.11719 1.90625 7.42969C1.90625 7.74219 2.15625 7.99219 2.46875 7.99219C2.78125 7.99219 3.03125 7.74219 3.03125 7.42969C3.03125 7.11719 2.78125 6.86719 2.46875 6.86719Z" fill="#8F5833"/>
<path fill-rule="evenodd" clip-rule="evenodd" d="M2.17188 11.0938C1.71094 11.0938 1.34375 11.4688 1.34375 11.9219C1.34375 12.375 1.71875 12.75 2.17188 12.75C2.625 12.75 3 12.375 3 11.9219C3 11.4688 2.625 11.0938 2.17188 11.0938Z" fill="#7B4720"/>
<path fill-rule="evenodd" clip-rule="evenodd" d="M5.83594 12.7969C5.61719 12.7969 5.44531 12.9687 5.44531 13.1875C5.44531 13.4063 5.61719 13.5781 5.83594 13.5781C6.05469 13.5781 6.22656 13.4063 6.22656 13.1875C6.22656 12.9687 6.05469 12.7969 5.83594 12.7969Z" fill="#7B4720"/>
<path fill-rule="evenodd" clip-rule="evenodd" d="M5.42188 9.38281C5.0625 9.38281 4.76562 9.67969 4.76562 10.0391C4.76562 10.3984 5.0625 10.6953 5.42188 10.6953C5.78125 10.6953 6.07813 10.3984 6.07813 10.0391C6.07813 9.67969 5.78125 9.38281 5.42188 9.38281Z" fill="#7B4720"/>
<path fill-rule="evenodd" clip-rule="evenodd" d="M8.78906 4.20312C8.375 4.20312 8.03125 4.54687 8.03125 4.96094C8.03125 5.375 8.375 5.71875 8.78906 5.71875C9.20313 5.71875 9.54688 5.38281 9.54688 4.96094C9.54688 4.53906 9.20313 4.20312 8.78906 4.20312Z" fill="#7B4720"/>
<path d="M8.07812 1.71875C8.18599 1.71875 8.27344 1.63131 8.27344 1.52344C8.27344 1.41557 8.18599 1.32812 8.07812 1.32812C7.97026 1.32812 7.88281 1.41557 7.88281 1.52344C7.88281 1.63131 7.97026 1.71875 8.07812 1.71875Z" fill="#7B4720"/>
<path fill-rule="evenodd" clip-rule="evenodd" d="M6.54688 1.14062C6.35156 1.14062 6.19531 1.29687 6.19531 1.49219C6.19531 1.6875 6.35156 1.84375 6.54688 1.84375C6.74219 1.84375 6.89844 1.6875 6.89844 1.49219C6.89844 1.29687 6.74219 1.14062 6.54688 1.14062Z" fill="#AB6C48"/>
<path fill-rule="evenodd" clip-rule="evenodd" d="M5.57031 4.14844C5.32031 4.14844 5.10938 4.35156 5.10938 4.60938C5.10938 4.86719 5.3125 5.07031 5.57031 5.07031C5.82813 5.07031 6.03125 4.86719 6.03125 4.60938C6.03125 4.35156 5.82813 4.14844 5.57031 4.14844Z" fill="#AB6C48"/>
<path fill-rule="evenodd" clip-rule="evenodd" d="M2.94531 9.01562C2.48437 9.01562 2.10938 9.39062 2.10938 9.85156C2.10938 10.3125 2.48437 10.6875 2.94531 10.6875C3.40625 10.6875 3.78125 10.3125 3.78125 9.85156C3.78125 9.39062 3.40625 9.01562 2.94531 9.01562Z" fill="#AB6C48"/>
<path fill-rule="evenodd" clip-rule="evenodd" d="M0.632812 9.61719C0.460937 9.61719 0.3125 9.75781 0.3125 9.9375C0.3125 10.1172 0.453125 10.2578 0.632812 10.2578C0.8125 10.2578 0.953125 10.1172 0.953125 9.9375C0.953125 9.75781 0.8125 9.61719 0.632812 9.61719Z" fill="#AB6C48"/>
<path d="M7.29688 7.04688C7.40474 7.04688 7.49219 6.95943 7.49219 6.85156C7.49219 6.74369 7.40474 6.65625 7.29688 6.65625C7.18901 6.65625 7.10156 6.74369 7.10156 6.85156C7.10156 6.95943 7.18901 7.04688 7.29688 7.04688Z" fill="#AB6C48"/>
<path d="M10.75 2.24219C11.0477 2.24219 11.2891 2.00084 11.2891 1.70313C11.2891 1.40541 11.0477 1.16406 10.75 1.16406C10.4523 1.16406 10.2109 1.40541 10.2109 1.70313C10.2109 2.00084 10.4523 2.24219 10.75 2.24219Z" fill="#8F5833"/>
<path d="M11.7812 5.41406C11.9711 5.41406 12.125 5.26016 12.125 5.07031C12.125 4.88046 11.9711 4.72656 11.7812 4.72656C11.5914 4.72656 11.4375 4.88046 11.4375 5.07031C11.4375 5.26016 11.5914 5.41406 11.7812 5.41406Z" fill="#8F5833"/>
<path fill-rule="evenodd" clip-rule="evenodd" d="M8.48437 7.85938C8.22656 7.85938 8.02344 8.07031 8.02344 8.32031C8.02344 8.57031 8.23437 8.78125 8.48437 8.78125C8.73437 8.78125 8.94531 8.57031 8.94531 8.32031C8.94531 8.07031 8.73437 7.85938 8.48437 7.85938Z" fill="#8F5833"/>
<path fill-rule="evenodd" clip-rule="evenodd" d="M10.1875 10.6406C9.85156 10.6406 9.57812 10.9141 9.57812 11.25C9.57812 11.5859 9.85156 11.8594 10.1875 11.8594C10.5234 11.8594 10.7969 11.5859 10.7969 11.25C10.7969 10.9141 10.5234 10.6406 10.1875 10.6406Z" fill="#8F5833"/>
<path fill-rule="evenodd" clip-rule="evenodd" d="M2.64844 16.1094C2.19531 16.1094 1.82031 16.4844 1.82031 16.9375C1.82031 17.3906 2.19531 17.7656 2.64844 17.7656C3.10156 17.7656 3.47656 17.3906 3.47656 16.9375C3.47656 16.4844 3.10156 16.1094 2.64844 16.1094Z" fill="#8F5833"/>
<path d="M1.42188 14.7344C1.47365 14.7344 1.51563 14.6924 1.51563 14.6406C1.51563 14.5888 1.47365 14.5469 1.42188 14.5469C1.3701 14.5469 1.32812 14.5888 1.32812 14.6406C1.32812 14.6924 1.3701 14.7344 1.42188 14.7344Z" fill="#8F5833"/>
<path d="M9.04687 15.0781C9.18063 15.0781 9.28906 14.9697 9.28906 14.8359C9.28906 14.7022 9.18063 14.5938 9.04687 14.5938C8.91312 14.5938 8.80469 14.7022 8.80469 14.8359C8.80469 14.9697 8.91312 15.0781 9.04687 15.0781Z" fill="#8F5833"/>
<path fill-rule="evenodd" clip-rule="evenodd" d="M20.1953 16.2578C19.4531 16.2578 18.8516 16.8594 18.8516 17.6016C18.8516 18.3438 19.4531 18.9453 20.1953 18.9453C20.9375 18.9453 21.5391 18.3438 21.5391 17.6016C21.5391 16.8594 20.9375 16.2578 20.1953 16.2578Z" fill="#63391B"/>
<path fill-rule="evenodd" clip-rule="evenodd" d="M19.2656 6.78125C18.7656 6.78125 18.3594 7.1875 18.3594 7.6875C18.3594 8.1875 18.7656 8.59375 19.2656 8.59375C19.7656 8.59375 20.1719 8.1875 20.1719 7.6875C20.1719 7.1875 19.7656 6.78125 19.2656 6.78125Z" fill="#63391B"/>
<path fill-rule="evenodd" clip-rule="evenodd" d="M11.5 9.22656C11.4063 9.22656 11.3281 9.30469 11.3281 9.39844C11.3281 9.49219 11.4063 9.57031 11.5 9.57031C11.5938 9.57031 11.6719 9.49219 11.6719 9.39844C11.6719 9.30469 11.5938 9.22656 11.5 9.22656Z" fill="#63391B"/>
<path fill-rule="evenodd" clip-rule="evenodd" d="M13.8203 18.0625C13.1484 18.0625 12.6016 18.6094 12.6016 19.2812C12.6016 19.9531 13.1484 20.5 13.8203 20.5C14.4922 20.5 15.0391 19.9531 15.0391 19.2812C15.0391 18.6094 14.4922 18.0625 13.8203 18.0625Z" fill="#63391B"/>
<path d="M3.125 23.3828C3.88008 23.3828 4.49219 22.7707 4.49219 22.0156C4.49219 21.2605 3.88008 20.6484 3.125 20.6484C2.36992 20.6484 1.75781 21.2605 1.75781 22.0156C1.75781 22.7707 2.36992 23.3828 3.125 23.3828Z" fill="#63391B"/>
<path d="M17.875 12.6953C18.0907 12.6953 18.2656 12.5204 18.2656 12.3047C18.2656 12.089 18.0907 11.9141 17.875 11.9141C17.6593 11.9141 17.4844 12.089 17.4844 12.3047C17.4844 12.5204 17.6593 12.6953 17.875 12.6953Z" fill="#63391B"/>
</g>
<defs>
<clipPath id="clip0_44_147098">
<rect width="24" height="24" fill="white"/>
</clipPath>
</defs>
</svg>
