<svg width="24" height="24" viewBox="0 0 24 24" fill="none" xmlns="http://www.w3.org/2000/svg">
<mask id="mask0_44_148238" style="mask-type:luminance" maskUnits="userSpaceOnUse" x="0" y="0" width="24" height="24">
<path d="M24 0H0V24H24V0Z" fill="white"/>
</mask>
<g mask="url(#mask0_44_148238)">
<path fill-rule="evenodd" clip-rule="evenodd" d="M45.615 20.033C45.5475 20.033 45.48 20.033 45.42 20.0405C45.735 19.523 45.915 18.9155 45.915 18.2705C45.915 16.928 45.1425 15.773 44.025 15.2105C44.055 15.008 44.07 14.798 44.07 14.5805C44.07 14.2655 44.0325 13.9655 43.9725 13.673C44.775 12.818 45.27 11.6705 45.27 10.4105C45.27 7.77055 43.1325 5.64055 40.5 5.64055C39.45 5.64055 38.475 5.98555 37.68 6.56305C36.885 4.74055 35.07 3.47305 32.955 3.47305C32.895 3.47305 32.8425 3.47305 32.7825 3.47305C32.8875 3.21055 32.9475 2.92555 32.9475 2.63305C32.9475 1.41805 31.965 0.435547 30.75 0.435547C29.535 0.435547 28.5675 1.40305 28.5525 2.60305C27.405 1.40305 25.785 0.653047 23.9925 0.653047C21.7275 0.653047 19.74 1.85305 18.63 3.65305C17.7525 2.73805 16.515 2.16805 15.15 2.16805C13.5975 2.16805 12.21 2.90305 11.325 4.05055C11.175 4.02805 11.0175 4.01305 10.86 4.01305C9.53247 4.01305 8.39997 4.86805 7.98747 6.05305C5.78997 6.48055 4.13247 8.41555 4.13247 10.7405C4.13247 11.738 4.43997 12.6605 4.95747 13.4255C3.93747 13.6505 3.17997 14.5655 3.17997 15.6455C3.17997 16.028 3.26997 16.388 3.43497 16.6955C3.23247 17.153 3.11997 17.663 3.11997 18.1955C3.11997 18.728 3.22497 19.2155 3.41997 19.673C2.96247 20.108 2.68497 20.7155 2.68497 21.398C2.68497 21.458 2.68497 21.518 2.68497 21.578C2.39997 21.233 1.97997 21.0155 1.49997 21.0155C0.652471 21.0155 -0.0300293 21.698 -0.0300293 22.5455C-0.0300293 23.228 0.419971 23.813 1.04247 24.008H1.97247C2.01747 23.993 2.05497 23.978 2.09997 23.963V24.008H47.3775C47.7525 23.588 47.9775 23.033 47.9775 22.4255C47.9775 21.1055 46.9125 20.0405 45.5925 20.0405L45.615 20.033Z" fill="#A8BC2A"/>
<path fill-rule="evenodd" clip-rule="evenodd" d="M40.485 5.63273C39.435 5.63273 38.46 5.97773 37.665 6.55523C36.87 4.73273 35.055 3.46523 32.94 3.46523C32.8875 3.46523 32.8275 3.46523 32.775 3.46523C32.88 3.20273 32.94 2.91773 32.94 2.62523C32.94 1.41023 31.9575 0.427734 30.7425 0.427734C29.5275 0.427734 28.56 1.39523 28.545 2.59523C27.3975 1.39523 25.785 0.645234 23.9925 0.645234C21.7275 0.645234 19.74 1.84523 18.63 3.64523C17.7525 2.73023 16.515 2.16023 15.15 2.16023C13.5975 2.16023 12.21 2.89523 11.325 4.03523C11.175 4.01273 11.0175 3.99773 10.86 3.99773C9.53247 3.99773 8.39997 4.85273 7.98747 6.03773C6.53247 6.32273 5.31747 7.26023 4.65747 8.53523C5.31747 9.81023 6.53247 10.7477 7.97997 11.0327C8.39247 12.2177 9.52497 13.0727 10.8525 13.0727C11.01 13.0727 11.1675 13.0577 11.3175 13.0352C12.2025 14.1752 13.5825 14.9177 15.1425 14.9177C16.5075 14.9177 17.745 14.3477 18.6225 13.4402C19.7325 15.2402 21.72 16.4402 23.985 16.4402C25.7775 16.4402 27.3975 15.6902 28.545 14.4902C28.56 15.6902 29.535 16.6577 30.7425 16.6577C31.95 16.6577 32.94 15.6752 32.94 14.4602C32.94 14.1602 32.88 13.8752 32.775 13.6127C32.835 13.6127 32.8875 13.6127 32.94 13.6127C35.055 13.6127 36.87 12.3452 37.665 10.5227C38.4525 11.1002 39.4275 11.4452 40.485 11.4452C42.465 11.4452 44.16 10.2452 44.88 8.53523C44.1525 6.82523 42.4575 5.62523 40.485 5.62523V5.63273Z" fill="#B9CD38"/>
<path fill-rule="evenodd" clip-rule="evenodd" d="M46.05 20.0705C45.5925 20.918 44.6925 21.4955 43.665 21.4955C43.0275 21.4955 42.4425 21.278 41.9775 20.9105C41.34 21.443 40.5225 21.7655 39.6225 21.7655C38.535 21.7655 37.56 21.293 36.8925 20.543C36.5025 20.8355 36.0225 21.008 35.505 21.008C34.89 21.008 34.3275 20.768 33.915 20.378C33.5925 20.5055 33.24 20.5805 32.8725 20.5805C32.4075 20.5805 31.9725 20.468 31.59 20.273C31.095 20.8205 30.3825 21.173 29.5875 21.173C28.2225 21.173 27.09 20.153 26.9175 18.833C26.415 19.658 25.5 20.2055 24.465 20.2055C23.82 20.2055 23.2275 19.9955 22.7475 19.6355C22.3725 20.783 21.2925 21.6155 20.0175 21.6155C18.7425 21.6155 17.6625 20.7905 17.2875 19.643C16.92 19.793 16.515 19.883 16.0875 19.883C15.855 19.883 15.63 19.8605 15.4125 19.808C15.09 20.618 14.295 21.1805 13.3725 21.1805C13.11 21.1805 12.855 21.1355 12.615 21.0455C11.94 21.9455 10.8675 22.5305 9.6525 22.5305C7.65 22.5305 6.03 20.9405 5.97 18.9605C5.5425 19.2005 5.055 19.3355 4.53 19.3355C4.065 19.3355 3.63 19.2305 3.24 19.043C3.2925 19.2605 3.36 19.4705 3.4425 19.673C2.985 20.108 2.7075 20.7155 2.7075 21.398V21.578C2.43 21.233 2.01 21.0155 1.53 21.0155C0.6825 21.0155 0 21.698 0 22.5455C0 23.228 0.45 23.813 1.0725 24.008H2.0025L2.13 23.963V24.008H47.4075C47.7825 23.588 48.0075 23.033 48.0075 22.4255C48.0075 21.2555 47.1675 20.2805 46.0575 20.078L46.05 20.0705Z" fill="#90A124"/>
</g>
</svg>
