<svg width="24" height="24" viewBox="0 0 24 24" fill="none" xmlns="http://www.w3.org/2000/svg">
<g clip-path="url(#clip0_44_148185)">
<path fill-rule="evenodd" clip-rule="evenodd" d="M21.3877 20.1601H21.4006H21.4134C21.5547 20.0831 21.696 19.9931 21.8501 19.8904C21.285 18.9785 20.6813 18.5032 20.1162 18.3491C20.6556 18.0537 21.1822 17.4629 21.7988 16.4996C20.7327 15.8188 19.8336 15.5876 19.1272 15.6647C19.1786 15.5876 19.23 15.5106 19.2942 15.4207C18.4978 14.9198 17.8428 14.7656 17.3419 14.8427C17.6373 14.3418 17.8685 13.6353 18.0611 12.672C16.3657 12.3381 15.2355 12.6078 14.5676 13.2243C14.6061 12.8262 14.5933 12.3381 14.529 11.7473C13.8226 11.8243 13.2575 11.9913 12.8336 12.2225C12.6281 11.6317 12.23 10.9895 11.5877 10.2959C10.7272 11.0922 10.2134 11.7473 9.98224 12.3509C9.5327 12.0684 8.91619 11.85 8.08133 11.7601C8.02995 12.261 8.00426 12.6977 8.02995 13.0574C7.34922 12.5821 6.28316 12.3895 4.76756 12.6849C4.94738 13.6353 5.17857 14.3418 5.48683 14.8555C4.97307 14.7656 4.31802 14.9326 3.53454 15.4335C3.76573 15.7931 3.97123 16.0757 4.18958 16.3069C3.6116 16.217 2.89234 16.3968 2.0061 16.9491C2.31435 17.4243 2.59692 17.7968 2.86665 18.0537C2.14738 18.0922 1.37674 18.5803 0.644629 19.7106C1.15839 20.0317 1.59509 20.25 1.99325 20.3913C1.4538 20.5711 0.888666 21.0464 0.362061 21.9069C0.888666 22.228 1.32536 22.4464 1.69784 22.562C1.31252 22.7289 0.927198 23.0886 0.554721 23.6922C0.862978 23.8849 1.11986 24.0262 1.3639 24.1161C1.33821 24.1418 1.31252 24.1803 1.28683 24.206H21.7345C21.7345 24.206 21.6832 24.1418 21.6575 24.1161C21.9015 24.0262 22.1584 23.8849 22.4666 23.6922C22.0942 23.0886 21.7088 22.7289 21.3235 22.562C21.7088 22.4464 22.1455 22.2409 22.6593 21.9069C22.0813 20.9821 21.4777 20.5069 20.8997 20.3528L21.3877 20.1601Z" fill="#98CD40"/>
<path fill-rule="evenodd" clip-rule="evenodd" d="M14.9913 17.2051H14.9399C14.9399 17.2051 14.9656 17.2436 14.9656 17.2565C14.9656 17.2436 14.9785 17.2179 14.9913 17.2051Z" fill="#89BC31"/>
<path fill-rule="evenodd" clip-rule="evenodd" d="M13.2062 17.2051H13.1548C13.1548 17.2051 13.1805 17.2436 13.1805 17.2565C13.1805 17.2436 13.1933 17.2179 13.2062 17.2051Z" fill="#89BC31"/>
<path fill-rule="evenodd" clip-rule="evenodd" d="M16.0189 17.2051H15.9932L16.006 17.2179L16.0189 17.2051Z" fill="#89BC31"/>
<path fill-rule="evenodd" clip-rule="evenodd" d="M11.7032 17.2051H11.6519C11.6519 17.2051 11.6647 17.2436 11.6775 17.2565C11.6775 17.2436 11.7032 17.2179 11.7032 17.2051Z" fill="#89BC31"/>
<path fill-rule="evenodd" clip-rule="evenodd" d="M21.3876 20.16H21.4004H21.4133C21.5546 20.0829 21.6959 19.993 21.85 19.8902C21.2849 18.9783 20.6812 18.5031 20.116 18.349C20.6555 18.0535 21.1821 17.4627 21.7986 16.4994C21.439 16.2682 21.105 16.0884 20.7839 15.96C20.5913 16.0884 20.4115 16.1912 20.2445 16.2682C20.3858 16.448 20.5399 16.6535 20.6812 16.9233H20.6683L20.6555 16.949H20.6427H20.6298V16.9618L20.617 16.9746H20.6041V16.9875L20.5913 17.0003H20.5784L20.5656 17.0132H20.5527L20.5399 17.026H20.5271V17.0389H20.5142H20.5014V17.0517H20.4885V17.0645C20.617 17.3214 20.7069 17.6425 20.7582 17.9893C20.206 17.9893 19.7564 17.8609 19.4867 17.6297C19.4867 17.9893 19.4096 18.3618 19.2683 18.7086C18.8573 18.3875 18.5362 18.0792 18.3564 17.771C18.2151 18.259 17.7399 18.7471 17.0849 19.2609C16.9821 19.004 16.905 18.7214 16.8537 18.4389C16.6482 18.4003 16.4555 18.349 16.3142 18.259C16.3142 18.3361 16.3142 18.4003 16.3142 18.4774C15.7619 18.4774 15.3381 18.349 15.094 18.1178C15.0427 18.4774 14.9142 18.8499 14.7216 19.1967C14.4261 18.9398 14.1949 18.6829 14.0408 18.426C13.7197 18.3746 13.4757 18.2719 13.3087 18.1049C13.2573 18.4645 13.1289 18.837 12.9362 19.1838C12.7307 19.004 12.5638 18.8242 12.4225 18.6572C12.2812 18.837 12.1142 19.004 11.9087 19.1838C11.716 18.837 11.5876 18.4645 11.5362 18.1049C11.3179 18.3104 10.9582 18.426 10.483 18.4517C10.316 18.7856 10.0849 19.0939 9.80228 19.3508C9.46834 18.6701 9.24999 18.0664 9.23715 17.5912C9.08302 17.9508 8.73623 18.3104 8.24816 18.6829C8.10687 18.3361 8.02981 17.9636 8.02981 17.604C7.83715 17.771 7.55458 17.8737 7.19495 17.9251C7.19495 18.3618 7.10504 18.8113 6.93806 19.2352C6.28302 18.7214 5.82063 18.2334 5.6665 17.7453C5.48669 18.0535 5.16559 18.3618 4.75458 18.6829C4.61329 18.3361 4.53623 17.9636 4.53623 17.604C4.2665 17.8352 3.81696 17.9508 3.26467 17.9636C3.26467 17.8737 3.29036 17.7838 3.3032 17.6939C2.60962 17.771 1.87751 18.2719 1.18394 19.3508C1.6977 19.6719 2.13439 19.8902 2.53256 20.0315C1.99311 20.2113 1.42797 20.6866 0.901367 21.5471C1.42797 21.8682 1.86467 22.0866 2.23715 22.2022C1.85183 22.3691 1.4665 22.7288 1.09403 23.3324C1.40228 23.5251 1.65917 23.6664 1.9032 23.7563C1.87751 23.782 1.85183 23.8205 1.82614 23.8462H22.2738C22.2738 23.8462 22.2225 23.782 22.1968 23.7563C22.4408 23.6664 22.6977 23.5251 23.006 23.3324C22.6335 22.7288 22.2482 22.3691 21.8628 22.2022C22.2482 22.0866 22.6849 21.8811 23.1986 21.5471C22.6206 20.6223 22.017 20.1471 21.439 19.993L21.3876 20.16Z" fill="#89BC31"/>
<path fill-rule="evenodd" clip-rule="evenodd" d="M3.54724 17.1028H3.5344H3.52155H3.50871H3.49586H3.48302H3.47018H3.45733H3.44449L3.43164 17.09H3.4188L3.40596 17.0771H3.39311L3.38027 17.0643H3.36742L3.35458 17.0514H3.34174L3.32889 17.0386H3.31605H3.3032L3.29036 17.0129H3.27751C3.27751 17.0129 3.31605 16.9358 3.32889 16.9102C3.26467 16.9487 3.20045 16.9872 3.13623 17.0258C3.40596 17.4624 3.66284 17.7964 3.90687 18.0533C3.95825 17.8478 4.02247 17.6551 4.09953 17.4881L3.54724 17.1028Z" fill="#89BC31"/>
<path fill-rule="evenodd" clip-rule="evenodd" d="M15.4153 20.9941H15.3511C15.3511 20.9941 15.3768 21.0327 15.3896 21.0455C15.3896 21.0327 15.4025 21.007 15.4153 20.9941Z" fill="#76A12A"/>
<path fill-rule="evenodd" clip-rule="evenodd" d="M16.597 20.9941H16.5713L16.5841 21.0198L16.597 20.9941Z" fill="#76A12A"/>
<path fill-rule="evenodd" clip-rule="evenodd" d="M11.6648 20.9941H11.6006C11.6006 20.9941 11.6134 21.0327 11.6263 21.0455C11.6263 21.0327 11.652 21.007 11.6648 20.9941Z" fill="#76A12A"/>
<path fill-rule="evenodd" clip-rule="evenodd" d="M22.2612 20.6348H22.2484V20.6476H22.2355H22.2227H22.2098H22.197H22.1841H22.1713H22.1584H22.1456H22.1328H22.1199H22.1071H22.0942H22.0814H22.0685H22.0557H22.0428H22.03H22.0172C22.1713 20.9045 22.274 21.2256 22.3254 21.5724C21.6832 21.5724 21.1823 21.4439 20.8612 21.2127C20.8612 21.5724 20.7841 21.9449 20.6172 22.2916C20.1419 21.9705 19.7823 21.6623 19.5768 21.354C19.4098 21.8293 18.8832 22.3302 18.1254 22.8439C17.997 22.5871 17.9071 22.3045 17.8685 22.0219C17.6245 21.9834 17.419 21.932 17.252 21.8421C17.252 21.9192 17.252 21.9834 17.252 22.0605C16.6098 22.0605 16.1346 21.932 15.852 21.7008C15.8006 22.0605 15.6465 22.4329 15.4282 22.7797C15.0942 22.5228 14.8245 22.266 14.6447 22.0091C14.285 21.9577 14.0025 21.8549 13.8098 21.7008C13.7584 22.0605 13.6043 22.4329 13.386 22.7797C13.1548 22.5999 12.9493 22.4201 12.7951 22.2531C12.641 22.4329 12.4355 22.5999 12.2043 22.7797C11.986 22.4329 11.8318 22.0605 11.7805 21.7008C11.5364 21.9063 11.1126 22.0219 10.5731 22.0476C10.3805 22.3816 10.1107 22.6898 9.80248 22.9467C9.41716 22.266 9.17312 21.6623 9.14744 21.1871C8.96762 21.5467 8.56945 21.9063 8.01716 22.2788C7.85019 21.932 7.76028 21.5595 7.77312 21.1999C7.55478 21.3669 7.22083 21.4696 6.82267 21.521C6.82267 21.9577 6.71991 22.4072 6.52725 22.8311C5.7823 22.3173 5.24285 21.8293 5.07588 21.3412C4.87037 21.6494 4.51074 21.9577 4.03551 22.2788C3.86854 21.932 3.77863 21.5595 3.79147 21.1999C3.48322 21.4311 2.96945 21.5467 2.32725 21.5595C2.37863 21.2127 2.48138 20.9045 2.62266 20.6476H2.60982H2.59698H2.58413H2.57129H2.55844H2.5456H2.53276H2.51991H2.50707H2.49422H2.48138H2.46854H2.45569H2.44285H2.43H2.41716H2.40432H2.39147H2.37863H2.36578H2.35294H2.3401C2.04468 20.9045 1.74927 21.2513 1.45386 21.7137C1.98046 22.0348 2.41716 22.2531 2.78964 22.3687C2.40432 22.5357 2.019 22.8953 1.64652 23.499C1.95477 23.6916 2.21166 23.8329 2.45569 23.9228C2.43 23.9485 2.40432 23.9871 2.37863 24.0127H22.8263C22.8263 24.0127 22.775 23.9485 22.7493 23.9228C22.9933 23.8329 23.2502 23.6916 23.5584 23.499C23.186 22.8953 22.8006 22.5357 22.4153 22.3687C22.8006 22.2531 23.2373 22.0476 23.7511 21.7137C23.4685 21.2513 23.1603 20.9045 22.8649 20.6476L22.2612 20.6348Z" fill="#76A12A"/>
<path fill-rule="evenodd" clip-rule="evenodd" d="M13.386 20.9941H13.3218C13.3218 20.9941 13.3475 21.0327 13.3603 21.0455C13.3603 21.0327 13.3732 21.007 13.386 20.9941Z" fill="#76A12A"/>
</g>
<defs>
<clipPath id="clip0_44_148185">
<rect width="22.2972" height="14" fill="white" transform="translate(0.850098 10)"/>
</clipPath>
</defs>
</svg>
