<svg width="24" height="24" viewBox="0 0 24 24" fill="none" xmlns="http://www.w3.org/2000/svg">
<g clip-path="url(#clip0_44_147044)">
<path d="M24 0H0V24H24V0Z" fill="#7B4720"/>
<path fill-rule="evenodd" clip-rule="evenodd" d="M5.73438 3.25C5.08594 3.25 4.5625 3.77344 4.5625 4.42188C4.5625 5.07031 5.08594 5.59375 5.73438 5.59375C6.38281 5.59375 6.90625 5.07031 6.90625 4.42188C6.90625 3.77344 6.38281 3.25 5.73438 3.25Z" fill="#63391B"/>
<path fill-rule="evenodd" clip-rule="evenodd" d="M23.1172 1.05469C22.875 1.05469 22.6797 1.25 22.6797 1.49219C22.6797 1.73437 22.875 1.92969 23.1172 1.92969C23.3594 1.92969 23.5547 1.73437 23.5547 1.49219C23.5547 1.25 23.3594 1.05469 23.1172 1.05469Z" fill="#63391B"/>
<path d="M18.0938 19.3203C19.0387 19.3203 19.8047 18.5543 19.8047 17.6094C19.8047 16.6645 19.0387 15.8984 18.0938 15.8984C17.1488 15.8984 16.3828 16.6645 16.3828 17.6094C16.3828 18.5543 17.1488 19.3203 18.0938 19.3203Z" fill="#63391B"/>
<path fill-rule="evenodd" clip-rule="evenodd" d="M2.27344 19.3203C1.8125 19.3203 1.44531 19.6953 1.44531 20.1484C1.44531 20.6016 1.82031 20.9766 2.27344 20.9766C2.72656 20.9766 3.10156 20.6016 3.10156 20.1484C3.10156 19.6953 2.72656 19.3203 2.27344 19.3203Z" fill="#63391B"/>
<path d="M7.59375 12.4375C8.1072 12.4375 8.52344 12.0213 8.52344 11.5078C8.52344 10.9944 8.1072 10.5781 7.59375 10.5781C7.0803 10.5781 6.66406 10.9944 6.66406 11.5078C6.66406 12.0213 7.0803 12.4375 7.59375 12.4375Z" fill="#63391B"/>
<path fill-rule="evenodd" clip-rule="evenodd" d="M20.7734 6.71875C20.0469 6.71875 19.4531 7.3125 19.4531 8.03906C19.4531 8.76562 20.0469 9.35937 20.7734 9.35937C21.5 9.35937 22.0938 8.76562 22.0938 8.03906C22.0938 7.3125 21.5 6.71875 20.7734 6.71875Z" fill="#63391B"/>
</g>
<defs>
<clipPath id="clip0_44_147044">
<rect width="24" height="24" fill="white"/>
</clipPath>
</defs>
</svg>
