<svg width="24" height="24" viewBox="0 0 24 24" fill="none" xmlns="http://www.w3.org/2000/svg">
<g clip-path="url(#clip0_44_146907)">
<path fill-rule="evenodd" clip-rule="evenodd" d="M2.25 3.52344C2.66406 4.10156 1.32031 4.69531 0.90625 5.77344C1.30469 9.24219 3.77344 10.0703 7.82813 10.1016C9.875 10.1172 9.25 12.7187 11.6406 13.8672C13.0469 14.5391 15.8047 16.3984 17.7031 16.8281C20.5703 17.4766 22.3203 17.4219 23.9922 17.375V0H2.64063C2.64063 0 1.28906 2.16406 2.25781 3.52344H2.25Z" fill="#7B4720"/>
<path fill-rule="evenodd" clip-rule="evenodd" d="M2.25 3.52344C2.66406 4.10156 1.32031 4.69531 0.90625 5.77344C1.30469 9.24219 3.77344 10.0703 7.82813 10.1016C9.47656 10.1172 9.39063 11.8047 10.5469 13.0625C10.7344 12.5 11.0938 12.1875 11.9844 12.5156C14.3438 13.3906 14.1094 11.1641 15.2734 10.6016C16.4375 10.0391 18.9219 10.7422 19.2891 11.2031C19.6563 11.6563 20.8359 12.5 21.2969 12.0625C21.7656 11.625 23.5469 10.6719 23.9922 10.5V0H2.64063C2.64063 0 1.28906 2.16406 2.25781 3.52344H2.25Z" fill="#8F5833"/>
<path fill-rule="evenodd" clip-rule="evenodd" d="M2.25 3.52344C2.66406 4.10156 1.32031 4.69531 0.90625 5.77344C1.16406 8.01562 2.28125 9.14844 4.13281 9.6875C4.47656 8.96875 4.96094 8.28906 5.48438 7.53125C7.48438 4.65625 9.53906 9.86719 12.1172 6.44531C14.6953 3.02344 16.7813 7.55469 18.625 7.71094C21.8125 7.98437 20.7734 5.61719 23.9688 5.55469L23.9922 0H2.64063C2.64063 0 1.28906 2.16406 2.25781 3.52344H2.25Z" fill="#AB6C48"/>
<path opacity="0.2" fill-rule="evenodd" clip-rule="evenodd" d="M2.03906 6.53125C2.23438 6.63281 2.45313 6.6875 2.6875 6.6875C3.25 6.6875 3.73438 6.35938 3.95313 5.88281C4.1875 6.46875 4.76562 6.89062 5.44531 6.89062C6.26563 6.89062 6.9375 6.27344 7.03906 5.48438C7.14063 6.36719 7.88281 7.04688 8.78906 7.04688C9.42188 7.04688 9.97656 6.71094 10.2891 6.21875C10.5469 6.50781 10.9219 6.6875 11.3359 6.6875C11.9297 6.6875 12.4375 6.32031 12.6406 5.79688C12.8438 6.32031 13.3516 6.6875 13.9453 6.6875C14.5078 6.6875 14.9922 6.35938 15.2109 5.88281C15.4453 6.46875 16.0234 6.89062 16.7031 6.89062C17.5234 6.89062 18.1953 6.27344 18.2969 5.48438C18.3984 6.36719 19.1406 7.04688 20.0469 7.04688C20.6797 7.04688 21.2344 6.71094 21.5469 6.21875C21.8047 6.50781 22.1797 6.6875 22.5938 6.6875C23.3672 6.6875 24 6.0625 24 5.28125V0.601562L2.03906 0.757813V6.53125Z" fill="black"/>
<path fill-rule="evenodd" clip-rule="evenodd" d="M0 4.6875C0 5.23437 0.445312 5.67969 0.992187 5.67969C1.19531 5.67969 1.39063 5.61719 1.54688 5.50781C1.80469 5.85938 2.21875 6.08594 2.67969 6.08594C3.24219 6.08594 3.72656 5.75781 3.94531 5.28125C4.17969 5.86719 4.75781 6.28906 5.4375 6.28906C6.25781 6.28906 6.92969 5.67969 7.03125 4.88281C7.13281 5.76562 7.875 6.44531 8.78125 6.44531C9.41406 6.44531 9.96875 6.11719 10.2812 5.61719C10.5391 5.90625 10.9141 6.08594 11.3281 6.08594C11.9219 6.08594 12.4297 5.71875 12.6328 5.19531C12.8359 5.71875 13.3438 6.08594 13.9375 6.08594C14.5 6.08594 14.9844 5.75781 15.2031 5.28125C15.4375 5.86719 16.0156 6.28906 16.6953 6.28906C17.5156 6.28906 18.1875 5.67969 18.2891 4.88281C18.3906 5.76562 19.1328 6.44531 20.0391 6.44531C20.6719 6.44531 21.2266 6.11719 21.5391 5.61719C21.7969 5.90625 22.1719 6.08594 22.5859 6.08594C23.3594 6.08594 23.9922 5.46094 23.9922 4.67969V0H1.8125C0.898437 0.601562 0.601562 3.125 0 4.6875Z" fill="#6FA024"/>
<path fill-rule="evenodd" clip-rule="evenodd" d="M1.8125 0C0 0 0 2.94531 0 4.79687C0.6875 5.25 1.27344 4.39844 1.32031 3.98437C1.39844 4.67187 1.4375 5.07031 2.03906 5.07031C2.64062 5.07031 2.96875 4.8125 3.21875 4.41406C3.42187 4.64063 3.71875 4.78125 4.03906 4.78125C4.64844 4.78125 5.14062 4.28906 5.14062 3.67969C5.14062 4.28906 5.63281 4.78125 6.24219 4.78125C6.57031 4.78125 6.86719 4.64063 7.0625 4.41406C7.30469 4.80469 7.74219 5.07031 8.24219 5.07031C8.95313 5.07031 9.53906 4.53125 9.61719 3.84375C9.69531 4.46875 10.2266 4.94531 10.8672 4.94531C11.3984 4.94531 11.8516 4.61719 12.0391 4.15625C12.2187 4.53125 12.5938 4.78906 13.0391 4.78906C13.5078 4.78906 13.9062 4.5 14.0625 4.09375C14.2266 4.5 14.625 4.78906 15.0859 4.78906C15.4141 4.78906 15.7109 4.64844 15.9063 4.42187C16.1484 4.8125 16.5859 5.07812 17.0859 5.07812C17.7969 5.07812 18.3828 4.53906 18.4609 3.85156C18.5391 4.47656 19.0703 4.95313 19.7109 4.95313C20.2422 4.95313 20.6953 4.625 20.8828 4.16406C21.0625 4.53906 21.4375 4.79687 21.8828 4.79687C22.25 4.79687 22.5781 4.61719 22.7734 4.34375C22.8984 4.42969 23.0469 4.47656 23.2109 4.47656C23.6406 4.47656 23.9922 4.125 23.9922 3.69531V0H1.8125Z" fill="#B2CF2A"/>
<path fill-rule="evenodd" clip-rule="evenodd" d="M0 4.6875C0 4.6875 0.0234375 4.625 0.0390625 4.58594C0.109375 3.53125 0.289062 2.48438 0.8125 1.91406C1.0625 1.64063 1.39062 1.47656 1.8125 1.47656H24V0H1.8125C0.0390625 0 0 2.82812 0 4.6875Z" fill="#C5DD5C"/>
<path fill-rule="evenodd" clip-rule="evenodd" d="M17.7109 15.4687C16.5391 15.2031 14.0859 14.6328 12.0547 14.0781C13.5391 14.8672 15.9844 16.4453 17.7109 16.8359C20.5781 17.4844 22.3281 17.4297 24 17.3828V16.0156C22.3203 16.0625 20.5781 16.1172 17.7109 15.4687Z" fill="#5E3518"/>
<path fill-rule="evenodd" clip-rule="evenodd" d="M16.5 8.73438C16.1172 8.73438 15.8047 9.04687 15.8047 9.42969C15.8047 9.8125 16.1172 10.125 16.5 10.125C16.8828 10.125 17.1953 9.8125 17.1953 9.42969C17.1953 9.04687 16.8828 8.73438 16.5 8.73438Z" fill="#7B4720"/>
<path fill-rule="evenodd" clip-rule="evenodd" d="M22.4063 8.10156C21.8984 8.10156 21.4922 8.51563 21.4922 9.01563C21.4922 9.51563 21.9063 9.92969 22.4063 9.92969C22.9063 9.92969 23.3203 9.51563 23.3203 9.01563C23.3203 8.51563 22.9063 8.10156 22.4063 8.10156Z" fill="#7B4720"/>
<path fill-rule="evenodd" clip-rule="evenodd" d="M12.2031 10.0312C11.9688 10.0312 11.7734 10.2266 11.7734 10.4609C11.7734 10.6953 11.9688 10.8906 12.2031 10.8906C12.4375 10.8906 12.6328 10.6953 12.6328 10.4609C12.6328 10.2266 12.4375 10.0312 12.2031 10.0312Z" fill="#7B4720"/>
<path fill-rule="evenodd" clip-rule="evenodd" d="M14.8906 6.63281C14.5781 6.63281 14.3203 6.89063 14.3203 7.20313C14.3203 7.51563 14.5781 7.77344 14.8906 7.77344C15.2031 7.77344 15.4609 7.51563 15.4609 7.20313C15.4609 6.89063 15.2031 6.63281 14.8906 6.63281Z" fill="#7B4720"/>
<path d="M15.6797 12.5703C16.0853 12.5703 16.4141 12.2415 16.4141 11.8359C16.4141 11.4304 16.0853 11.1016 15.6797 11.1016C15.2741 11.1016 14.9453 11.4304 14.9453 11.8359C14.9453 12.2415 15.2741 12.5703 15.6797 12.5703Z" fill="#8F5833"/>
<path fill-rule="evenodd" clip-rule="evenodd" d="M17.5234 11.5469C17.3047 11.5469 17.1172 11.7266 17.1172 11.9531C17.1172 12.1797 17.2969 12.3594 17.5234 12.3594C17.75 12.3594 17.9297 12.1797 17.9297 11.9531C17.9297 11.7266 17.75 11.5469 17.5234 11.5469Z" fill="#8F5833"/>
<path fill-rule="evenodd" clip-rule="evenodd" d="M23.2031 12.0547C23 12.0547 22.8359 12.2187 22.8359 12.4219C22.8359 12.625 23 12.7891 23.2031 12.7891C23.4063 12.7891 23.5703 12.625 23.5703 12.4219C23.5703 12.2187 23.4063 12.0547 23.2031 12.0547Z" fill="#8F5833"/>
<path fill-rule="evenodd" clip-rule="evenodd" d="M20.2187 12.9609C19.9922 12.9609 19.8047 13.1484 19.8047 13.375C19.8047 13.6016 19.9922 13.7891 20.2187 13.7891C20.4453 13.7891 20.6328 13.6016 20.6328 13.375C20.6328 13.1484 20.4453 12.9609 20.2187 12.9609Z" fill="#8F5833"/>
<path fill-rule="evenodd" clip-rule="evenodd" d="M12.8359 13.25C12.6719 13.25 12.5312 13.3906 12.5312 13.5547C12.5312 13.7188 12.6719 13.8594 12.8359 13.8594C13 13.8594 13.1406 13.7188 13.1406 13.5547C13.1406 13.3906 13 13.25 12.8359 13.25Z" fill="#8F5833"/>
</g>
<defs>
<clipPath id="clip0_44_146907">
<rect width="24" height="17.4062" fill="white"/>
</clipPath>
</defs>
</svg>
