<svg width="24" height="24" viewBox="0 0 24 24" fill="none" xmlns="http://www.w3.org/2000/svg">
<g clip-path="url(#clip0_44_146651)">
<path fill-rule="evenodd" clip-rule="evenodd" d="M2.25 3.52344C2.84375 4.35938 -0.226562 5.22656 1.14844 7.55469C1.89844 8.82031 -0.59375 11.5469 1.33594 14.2578C2.4375 15.8047 -0.164062 15.5 0.710938 20.2266C0.953125 21.5234 -0.0078125 22.2812 -0.0078125 24H23.9922V0H2.64063C2.64063 0 1.28906 2.16406 2.25781 3.52344H2.25Z" fill="#7B4720"/>
<path fill-rule="evenodd" clip-rule="evenodd" d="M2.25 3.52344C2.84375 4.35938 -0.226562 5.22656 1.14844 7.55469C1.89844 8.82031 -0.59375 11.5469 1.33594 14.2578C2.4375 15.8047 -0.164062 15.5 0.710938 20.2266C0.953125 21.5234 -0.0078125 22.2812 -0.0078125 24H9.69531C9.28906 23.1328 9.05469 22.8438 9.375 22.3359C9.69531 21.8281 10.8203 19.9688 9.27344 19.2813C7.72656 18.5938 7.92188 17.0547 9.44531 16.1719C10.9688 15.2891 9.61719 11.6406 11.9766 12.5156C14.3359 13.3906 15.8594 13.5547 17.0234 12.9922C18.1875 12.4297 19.2109 14.2578 19.5781 14.7109C19.9453 15.1641 22.0469 15.2266 22.5156 14.7891C22.9844 14.3516 23.5469 14.2734 23.9922 14.1016V0H2.64063C2.64063 0 1.28906 2.16406 2.25781 3.52344H2.25Z" fill="#8F5833"/>
<path fill-rule="evenodd" clip-rule="evenodd" d="M2.25 3.52344C2.84375 4.35938 -0.226562 5.22656 1.14844 7.55469C1.89844 8.82031 -0.59375 11.5469 1.33594 14.2578C2.4375 15.8047 -0.164062 15.5 0.710938 20.2266C0.953125 21.5234 -0.0078125 22.2812 -0.0078125 24H4.97656C4.97656 23.9531 4.92969 23.8281 5.1875 22.1875C5.44531 20.5469 3.23438 18.8437 4.04688 17.5C4.85938 16.1562 4.55469 16.0625 4.07813 14.6563C2.89063 11.1484 4.69531 11.9453 6.16406 9.82812C8.16406 6.95312 11.0938 12.0625 13.6719 8.64063C16.25 5.21875 16.875 9.35938 18.7187 9.51563C21.9062 9.78906 20.7969 8.6875 23.9922 8.625V0H2.64063C2.64063 0 1.28906 2.16406 2.25781 3.52344H2.25Z" fill="#AB6C48"/>
<path d="M23.2969 8.0625C23.5126 8.0625 23.6875 7.88761 23.6875 7.67188C23.6875 7.45614 23.5126 7.28125 23.2969 7.28125C23.0811 7.28125 22.9062 7.45614 22.9062 7.67188C22.9062 7.88761 23.0811 8.0625 23.2969 8.0625Z" fill="#8F5833"/>
<path fill-rule="evenodd" clip-rule="evenodd" d="M20.6719 7.99219C20.4687 7.99219 20.3047 8.15625 20.3047 8.35938C20.3047 8.5625 20.4687 8.72656 20.6719 8.72656C20.875 8.72656 21.0391 8.5625 21.0391 8.35938C21.0391 8.15625 20.875 7.99219 20.6719 7.99219Z" fill="#8F5833"/>
<path d="M18.4375 7.75781C18.6015 7.75781 18.7344 7.6249 18.7344 7.46094C18.7344 7.29698 18.6015 7.16406 18.4375 7.16406C18.2735 7.16406 18.1406 7.29698 18.1406 7.46094C18.1406 7.6249 18.2735 7.75781 18.4375 7.75781Z" fill="#8F5833"/>
<path fill-rule="evenodd" clip-rule="evenodd" d="M12.1016 7.92188C11.6953 7.92188 11.3672 8.25 11.3672 8.65625C11.3672 9.0625 11.6953 9.39063 12.1016 9.39063C12.5078 9.39063 12.8359 9.0625 12.8359 8.65625C12.8359 8.25 12.5078 7.92188 12.1016 7.92188Z" fill="#8F5833"/>
<path fill-rule="evenodd" clip-rule="evenodd" d="M5.0625 7.96094C4.72656 7.96094 4.44531 8.23437 4.44531 8.57813C4.44531 8.92188 4.71875 9.1875 5.0625 9.1875C5.40625 9.1875 5.67188 8.91406 5.67188 8.57813C5.67188 8.24219 5.39844 7.96094 5.0625 7.96094Z" fill="#8F5833"/>
<path fill-rule="evenodd" clip-rule="evenodd" d="M2.77344 10.3906C2.65625 10.3906 2.5625 10.4844 2.5625 10.6016C2.5625 10.7187 2.65625 10.8125 2.77344 10.8125C2.89062 10.8125 2.98437 10.7187 2.98437 10.6016C2.98437 10.4844 2.89062 10.3906 2.77344 10.3906Z" fill="#8F5833"/>
<path d="M2.78125 15.4297C3.02287 15.4297 3.21875 15.2338 3.21875 14.9922C3.21875 14.7506 3.02287 14.5547 2.78125 14.5547C2.53963 14.5547 2.34375 14.7506 2.34375 14.9922C2.34375 15.2338 2.53963 15.4297 2.78125 15.4297Z" fill="#8F5833"/>
<path fill-rule="evenodd" clip-rule="evenodd" d="M2.42187 16.9453C2.05469 16.9453 1.75 17.2422 1.75 17.6172C1.75 17.9922 2.04687 18.2891 2.42187 18.2891C2.79687 18.2891 3.09375 17.9922 3.09375 17.6172C3.09375 17.2422 2.79687 16.9453 2.42187 16.9453Z" fill="#8F5833"/>
<path fill-rule="evenodd" clip-rule="evenodd" d="M3.79688 21.4141C3.60938 21.4141 3.46094 21.5625 3.46094 21.75C3.46094 21.9375 3.60938 22.0859 3.79688 22.0859C3.98438 22.0859 4.13281 21.9375 4.13281 21.75C4.13281 21.5625 3.98438 21.4141 3.79688 21.4141Z" fill="#8F5833"/>
<path fill-rule="evenodd" clip-rule="evenodd" d="M22.9141 9.29688C22.75 9.29688 22.6094 9.42969 22.6094 9.60156C22.6094 9.77344 22.7422 9.90625 22.9141 9.90625C23.0859 9.90625 23.2187 9.77344 23.2187 9.60156C23.2187 9.42969 23.0859 9.29688 22.9141 9.29688Z" fill="#AB6C48"/>
<path d="M19.7734 10.9609C19.9029 10.9609 20.0078 10.856 20.0078 10.7266C20.0078 10.5971 19.9029 10.4922 19.7734 10.4922C19.644 10.4922 19.5391 10.5971 19.5391 10.7266C19.5391 10.856 19.644 10.9609 19.7734 10.9609Z" fill="#AB6C48"/>
<path fill-rule="evenodd" clip-rule="evenodd" d="M15.5781 8.4375C15.4297 8.4375 15.3047 8.5625 15.3047 8.71094C15.3047 8.85937 15.4297 8.98437 15.5781 8.98437C15.7266 8.98437 15.8516 8.85937 15.8516 8.71094C15.8516 8.5625 15.7266 8.4375 15.5781 8.4375Z" fill="#AB6C48"/>
<path fill-rule="evenodd" clip-rule="evenodd" d="M13.0703 10.2656C13 10.2656 12.9453 10.3203 12.9453 10.3906C12.9453 10.4609 13 10.5156 13.0703 10.5156C13.1406 10.5156 13.1953 10.4609 13.1953 10.3906C13.1953 10.3203 13.1406 10.2656 13.0703 10.2656Z" fill="#AB6C48"/>
<path fill-rule="evenodd" clip-rule="evenodd" d="M8.96094 10.0234C8.63281 10.0234 8.36719 10.2891 8.36719 10.6172C8.36719 10.9453 8.63281 11.2109 8.96094 11.2109C9.28906 11.2109 9.55469 10.9453 9.55469 10.6172C9.55469 10.2891 9.28906 10.0234 8.96094 10.0234Z" fill="#AB6C48"/>
<path fill-rule="evenodd" clip-rule="evenodd" d="M5.15625 11.6953C4.96875 11.6953 4.82031 11.8437 4.82031 12.0312C4.82031 12.2187 4.96875 12.3672 5.15625 12.3672C5.34375 12.3672 5.49219 12.2187 5.49219 12.0312C5.49219 11.8437 5.34375 11.6953 5.15625 11.6953Z" fill="#AB6C48"/>
<path fill-rule="evenodd" clip-rule="evenodd" d="M6 14.8984C5.89062 14.8984 5.79688 14.9922 5.79688 15.1016C5.79688 15.2109 5.89062 15.3047 6 15.3047C6.10937 15.3047 6.20312 15.2109 6.20312 15.1016C6.20312 14.9922 6.10937 14.8984 6 14.8984Z" fill="#AB6C48"/>
<path fill-rule="evenodd" clip-rule="evenodd" d="M4.3125 17.7891C4.01563 17.7891 3.77344 18.0312 3.77344 18.3281C3.77344 18.625 4.01563 18.8672 4.3125 18.8672C4.60938 18.8672 4.85156 18.625 4.85156 18.3281C4.85156 18.0312 4.60938 17.7891 4.3125 17.7891Z" fill="#AB6C48"/>
<path fill-rule="evenodd" clip-rule="evenodd" d="M5.77344 20.4609C5.47656 20.4609 5.23438 20.7031 5.23438 21C5.23438 21.2969 5.47656 21.5391 5.77344 21.5391C6.07031 21.5391 6.3125 21.2969 6.3125 21C6.3125 20.7031 6.07031 20.4609 5.77344 20.4609Z" fill="#AB6C48"/>
<path fill-rule="evenodd" clip-rule="evenodd" d="M21.8984 12.5938C21.5234 12.5938 21.2188 12.8984 21.2188 13.2734C21.2188 13.6484 21.5234 13.9531 21.8984 13.9531C22.2734 13.9531 22.5781 13.6484 22.5781 13.2734C22.5781 12.8984 22.2734 12.5938 21.8984 12.5938Z" fill="#7B4720"/>
<path d="M21.4219 11.4922C21.5039 11.4922 21.5703 11.4257 21.5703 11.3438C21.5703 11.2618 21.5039 11.1953 21.4219 11.1953C21.3399 11.1953 21.2734 11.2618 21.2734 11.3438C21.2734 11.4257 21.3399 11.4922 21.4219 11.4922Z" fill="#7B4720"/>
<path fill-rule="evenodd" clip-rule="evenodd" d="M18.8672 11.7891C18.5312 11.7891 18.25 12.0625 18.25 12.4063C18.25 12.75 18.5234 13.0234 18.8672 13.0234C19.2109 13.0234 19.4844 12.75 19.4844 12.4063C19.4844 12.0625 19.2109 11.7891 18.8672 11.7891Z" fill="#7B4720"/>
<path fill-rule="evenodd" clip-rule="evenodd" d="M16.0703 11.2578C15.7344 11.2578 15.4688 11.5313 15.4688 11.8594C15.4688 12.1875 15.7422 12.4609 16.0703 12.4609C16.3984 12.4609 16.6719 12.1875 16.6719 11.8594C16.6719 11.5313 16.3984 11.2578 16.0703 11.2578Z" fill="#7B4720"/>
<path fill-rule="evenodd" clip-rule="evenodd" d="M13.2578 11.6172C13.1094 11.6172 12.9844 11.7422 12.9844 11.8906C12.9844 12.0391 13.1094 12.1641 13.2578 12.1641C13.4062 12.1641 13.5312 12.0391 13.5312 11.8906C13.5312 11.7422 13.4062 11.6172 13.2578 11.6172Z" fill="#7B4720"/>
<path fill-rule="evenodd" clip-rule="evenodd" d="M10.25 11.1484C10.0469 11.1484 9.88281 11.3125 9.88281 11.5156C9.88281 11.7187 10.0469 11.8828 10.25 11.8828C10.4531 11.8828 10.6172 11.7187 10.6172 11.5156C10.6172 11.3125 10.4531 11.1484 10.25 11.1484Z" fill="#7B4720"/>
<path fill-rule="evenodd" clip-rule="evenodd" d="M9.21875 13.0312C8.74219 13.0312 8.35156 13.4219 8.35156 13.8984C8.35156 14.375 8.74219 14.7656 9.21875 14.7656C9.69531 14.7656 10.0859 14.375 10.0859 13.8984C10.0859 13.4219 9.69531 13.0312 9.21875 13.0312Z" fill="#7B4720"/>
<path fill-rule="evenodd" clip-rule="evenodd" d="M7.49219 11.9844C7.38281 11.9844 7.29688 12.0703 7.29688 12.1797C7.29688 12.2891 7.38281 12.375 7.49219 12.375C7.60156 12.375 7.6875 12.2891 7.6875 12.1797C7.6875 12.0703 7.60156 11.9844 7.49219 11.9844Z" fill="#7B4720"/>
<path fill-rule="evenodd" clip-rule="evenodd" d="M6.6875 16.0859C6.39844 16.0859 6.16406 16.3203 6.16406 16.6094C6.16406 16.8984 6.39844 17.1328 6.6875 17.1328C6.97656 17.1328 7.21094 16.8984 7.21094 16.6094C7.21094 16.3203 6.97656 16.0859 6.6875 16.0859Z" fill="#7B4720"/>
<path fill-rule="evenodd" clip-rule="evenodd" d="M8.50781 19.7344C8.16406 19.7344 7.88281 20.0156 7.88281 20.3594C7.88281 20.7031 8.16406 20.9844 8.50781 20.9844C8.85156 20.9844 9.13281 20.7031 9.13281 20.3594C9.13281 20.0156 8.85156 19.7344 8.50781 19.7344Z" fill="#7B4720"/>
<path d="M6.71875 19.0547C6.86114 19.0547 6.97656 18.9393 6.97656 18.7969C6.97656 18.6545 6.86114 18.5391 6.71875 18.5391C6.57636 18.5391 6.46094 18.6545 6.46094 18.7969C6.46094 18.9393 6.57636 19.0547 6.71875 19.0547Z" fill="#7B4720"/>
<path fill-rule="evenodd" clip-rule="evenodd" d="M8.10938 22.6094C7.83594 22.6094 7.61719 22.8281 7.61719 23.1016C7.61719 23.375 7.83594 23.5938 8.10938 23.5938C8.38281 23.5938 8.60156 23.375 8.60156 23.1016C8.60156 22.8281 8.38281 22.6094 8.10938 22.6094Z" fill="#7B4720"/>
<path fill-rule="evenodd" clip-rule="evenodd" d="M22.8281 15.1875C22.5391 15.1875 22.2969 15.4297 22.2969 15.7188C22.2969 16.0078 22.5391 16.25 22.8281 16.25C23.1172 16.25 23.3594 16.0078 23.3594 15.7188C23.3594 15.4297 23.1172 15.1875 22.8281 15.1875Z" fill="#8F5833"/>
<path fill-rule="evenodd" clip-rule="evenodd" d="M19.875 16.0156C19.6172 16.0156 19.4062 16.2266 19.4062 16.4844C19.4062 16.7422 19.6172 16.9531 19.875 16.9531C20.1328 16.9531 20.3438 16.7422 20.3438 16.4844C20.3438 16.2266 20.1328 16.0156 19.875 16.0156Z" fill="#8F5833"/>
<path fill-rule="evenodd" clip-rule="evenodd" d="M17.0703 13.5234C16.7031 13.5234 16.3984 13.8203 16.3984 14.1953C16.3984 14.5703 16.6953 14.8672 17.0703 14.8672C17.4453 14.8672 17.7422 14.5703 17.7422 14.1953C17.7422 13.8203 17.4453 13.5234 17.0703 13.5234Z" fill="#8F5833"/>
<path fill-rule="evenodd" clip-rule="evenodd" d="M12.0703 13.4297C11.6328 13.4297 11.2734 13.7891 11.2734 14.2266C11.2734 14.6641 11.6328 15.0234 12.0703 15.0234C12.5078 15.0234 12.8672 14.6641 12.8672 14.2266C12.8672 13.7891 12.5078 13.4297 12.0703 13.4297Z" fill="#8F5833"/>
<path fill-rule="evenodd" clip-rule="evenodd" d="M14.2031 15.3359C14.1328 15.3359 14.0781 15.3906 14.0781 15.4609C14.0781 15.5313 14.1328 15.5859 14.2031 15.5859C14.2734 15.5859 14.3281 15.5313 14.3281 15.4609C14.3281 15.3906 14.2734 15.3359 14.2031 15.3359Z" fill="#8F5833"/>
<path fill-rule="evenodd" clip-rule="evenodd" d="M10.1406 17.0234C9.83594 17.0234 9.59375 17.2734 9.59375 17.5703C9.59375 17.8672 9.84375 18.1172 10.1406 18.1172C10.4375 18.1172 10.6875 17.8672 10.6875 17.5703C10.6875 17.2734 10.4375 17.0234 10.1406 17.0234Z" fill="#8F5833"/>
<path fill-rule="evenodd" clip-rule="evenodd" d="M11.6484 20.2656C11.3672 20.2656 11.1484 20.4922 11.1484 20.7656C11.1484 21.0391 11.375 21.2656 11.6484 21.2656C11.9219 21.2656 12.1484 21.0391 12.1484 20.7656C12.1484 20.4922 11.9219 20.2656 11.6484 20.2656Z" fill="#8F5833"/>
<path d="M10.0469 22.9687C10.2065 22.9687 10.3359 22.8393 10.3359 22.6797C10.3359 22.52 10.2065 22.3906 10.0469 22.3906C9.88723 22.3906 9.75781 22.52 9.75781 22.6797C9.75781 22.8393 9.88723 22.9687 10.0469 22.9687Z" fill="#8F5833"/>
<path d="M21.6641 19.5625C22.0394 19.5625 22.3437 19.2582 22.3437 18.8828C22.3437 18.5074 22.0394 18.2031 21.6641 18.2031C21.2887 18.2031 20.9844 18.5074 20.9844 18.8828C20.9844 19.2582 21.2887 19.5625 21.6641 19.5625Z" fill="#63391B"/>
<path d="M15.4609 18.5391C15.9183 18.5391 16.2891 18.1683 16.2891 17.7109C16.2891 17.2536 15.9183 16.8828 15.4609 16.8828C15.0036 16.8828 14.6328 17.2536 14.6328 17.7109C14.6328 18.1683 15.0036 18.5391 15.4609 18.5391Z" fill="#63391B"/>
<path fill-rule="evenodd" clip-rule="evenodd" d="M14.9766 20.7812C14.6797 20.7812 14.4375 21.0234 14.4375 21.3203C14.4375 21.6172 14.6797 21.8594 14.9766 21.8594C15.2734 21.8594 15.5156 21.6172 15.5156 21.3203C15.5156 21.0234 15.2734 20.7812 14.9766 20.7812Z" fill="#63391B"/>
<path fill-rule="evenodd" clip-rule="evenodd" d="M13.0469 17.1719C12.7656 17.1719 12.5312 17.3984 12.5312 17.6875C12.5312 17.9766 12.7578 18.2031 13.0469 18.2031C13.3359 18.2031 13.5625 17.9766 13.5625 17.6875C13.5625 17.3984 13.3359 17.1719 13.0469 17.1719Z" fill="#63391B"/>
<path fill-rule="evenodd" clip-rule="evenodd" d="M20.8203 21.4297C20.3359 21.4297 19.9453 21.8281 19.9453 22.3047C19.9453 22.7812 20.3437 23.1875 20.8203 23.1875C21.2969 23.1875 21.6953 22.7891 21.6953 22.3047C21.6953 21.8203 21.2969 21.4297 20.8203 21.4297Z" fill="#63391B"/>
<path opacity="0.2" fill-rule="evenodd" clip-rule="evenodd" d="M2.03906 6.53125C2.23438 6.63281 2.45313 6.6875 2.6875 6.6875C3.25 6.6875 3.73438 6.35938 3.95313 5.88281C4.1875 6.46875 4.76562 6.89062 5.44531 6.89062C6.26563 6.89062 6.9375 6.27344 7.03906 5.48438C7.14063 6.36719 7.88281 7.04688 8.78906 7.04688C9.42188 7.04688 9.97656 6.71094 10.2891 6.21875C10.5469 6.50781 10.9219 6.6875 11.3359 6.6875C11.9297 6.6875 12.4375 6.32031 12.6406 5.79688C12.8438 6.32031 13.3516 6.6875 13.9453 6.6875C14.5078 6.6875 14.9922 6.35938 15.2109 5.88281C15.4453 6.46875 16.0234 6.89062 16.7031 6.89062C17.5234 6.89062 18.1953 6.27344 18.2969 5.48438C18.3984 6.36719 19.1406 7.04688 20.0469 7.04688C20.6797 7.04688 21.2344 6.71094 21.5469 6.21875C21.8047 6.50781 22.1797 6.6875 22.5938 6.6875C23.3672 6.6875 24 6.0625 24 5.28125V0.601562L2.03906 0.757813V6.53125Z" fill="black"/>
<path fill-rule="evenodd" clip-rule="evenodd" d="M0 4.6875C0 5.23437 0.445312 5.67969 0.992187 5.67969C1.19531 5.67969 1.39063 5.61719 1.54688 5.50781C1.80469 5.85938 2.21875 6.08594 2.67969 6.08594C3.24219 6.08594 3.72656 5.75781 3.94531 5.28125C4.17969 5.86719 4.75781 6.28906 5.4375 6.28906C6.25781 6.28906 6.92969 5.67187 7.03125 4.88281C7.13281 5.76562 7.875 6.44531 8.78125 6.44531C9.41406 6.44531 9.96875 6.11719 10.2812 5.61719C10.5391 5.90625 10.9141 6.08594 11.3281 6.08594C11.9219 6.08594 12.4297 5.71875 12.6328 5.19531C12.8359 5.71875 13.3438 6.08594 13.9375 6.08594C14.5 6.08594 14.9844 5.75781 15.2031 5.28125C15.4375 5.86719 16.0156 6.28906 16.6953 6.28906C17.5156 6.28906 18.1875 5.67187 18.2891 4.88281C18.3906 5.76562 19.1328 6.44531 20.0391 6.44531C20.6719 6.44531 21.2266 6.11719 21.5391 5.61719C21.7969 5.90625 22.1719 6.08594 22.5859 6.08594C23.3594 6.08594 23.9922 5.46094 23.9922 4.67969V0H1.8125C0.898437 0.601562 0.601562 3.125 0 4.6875Z" fill="#6FA024"/>
<path fill-rule="evenodd" clip-rule="evenodd" d="M1.8125 0C0 0 0 2.94531 0 4.79688C0.6875 5.25 1.27344 4.39844 1.32031 3.98438C1.39844 4.67188 1.4375 5.07031 2.03906 5.07031C2.64062 5.07031 2.96875 4.8125 3.21875 4.41406C3.42187 4.64063 3.71875 4.78125 4.03906 4.78125C4.64844 4.78125 5.14062 4.28906 5.14062 3.67969C5.14062 4.28906 5.63281 4.78125 6.24219 4.78125C6.57031 4.78125 6.86719 4.64063 7.0625 4.41406C7.30469 4.80469 7.74219 5.07031 8.24219 5.07031C8.95313 5.07031 9.53906 4.53125 9.61719 3.84375C9.69531 4.46875 10.2266 4.94531 10.8672 4.94531C11.3984 4.94531 11.8516 4.61719 12.0391 4.15625C12.2187 4.53125 12.5938 4.78906 13.0391 4.78906C13.5078 4.78906 13.9062 4.5 14.0625 4.09375C14.2266 4.5 14.625 4.78906 15.0859 4.78906C15.4141 4.78906 15.7109 4.64844 15.9063 4.42188C16.1484 4.8125 16.5859 5.07813 17.0859 5.07813C17.7969 5.07813 18.3828 4.53906 18.4609 3.85156C18.5391 4.47656 19.0703 4.95313 19.7109 4.95313C20.2422 4.95313 20.6953 4.625 20.8828 4.16406C21.0625 4.53906 21.4375 4.79688 21.8828 4.79688C22.25 4.79688 22.5781 4.61719 22.7734 4.34375C22.8984 4.42969 23.0469 4.47656 23.2109 4.47656C23.6406 4.47656 23.9922 4.125 23.9922 3.69531V0H1.8125Z" fill="#B2CF2A"/>
<path fill-rule="evenodd" clip-rule="evenodd" d="M0 4.6875C0 4.6875 0.0234375 4.625 0.0390625 4.58594C0.109375 3.53125 0.289062 2.48438 0.8125 1.91406C1.0625 1.64063 1.39062 1.47656 1.8125 1.47656H24V0H1.8125C0.0390625 0 0 2.82812 0 4.6875Z" fill="#C5DD5C"/>
</g>
<defs>
<clipPath id="clip0_44_146651">
<rect width="24" height="24" fill="white"/>
</clipPath>
</defs>
</svg>
