<svg width="24" height="24" viewBox="0 0 24 24" fill="none" xmlns="http://www.w3.org/2000/svg">
<mask id="mask0_44_147400" style="mask-type:luminance" maskUnits="userSpaceOnUse" x="0" y="0" width="24" height="24">
<path d="M24 0H0V24H24V0Z" fill="white"/>
</mask>
<g mask="url(#mask0_44_147400)">
<path fill-rule="evenodd" clip-rule="evenodd" d="M40.12 19.87C40.55 19.72 41.03 19.48 41.6 19.13C40.79 17.88 39.94 17.34 39.14 17.29C39.44 17 39.75 16.6 40.09 16.07C39.12 15.46 38.32 15.26 37.69 15.36C37.92 15.12 38.15 14.8 38.41 14.4C37.54 13.85 36.82 13.68 36.25 13.77C36.58 13.21 36.84 12.43 37.04 11.38C35.37 11.05 34.19 11.26 33.44 11.79C33.47 11.39 33.44 10.91 33.38 10.36C32.46 10.46 31.77 10.7 31.28 11.01C31.02 10.35 30.45 9.62 29.5 8.75C28.79 9.52 28.35 10.23 28.13 10.88C27.66 10.63 27.04 10.45 26.26 10.36C26.19 11.01 26.17 11.55 26.22 11.99C25.48 11.32 24.24 11.02 22.37 11.38C22.58 12.44 22.83 13.21 23.16 13.77C22.59 13.68 21.87 13.85 21 14.4C21.06 14.49 21.12 14.58 21.18 14.67C20.39 14.58 19.41 14.84 18.23 15.59C18.9 16.65 19.49 17.3 20.08 17.63C19.45 17.8 18.79 18.33 18.16 19.33C18.33 19.44 18.49 19.53 18.64 19.61H18.65H18.66H18.67L18.68 19.62H18.69H18.7H18.71H18.73H18.74H18.75H18.76H18.77H18.78H18.79H18.8H18.81H18.82H18.83H18.84H18.85H18.87H18.88H18.89H18.9H18.91H18.92H18.93H18.94H18.95H18.96H18.97H18.98C18.34 19.79 17.67 20.31 17.04 21.33C17.61 21.69 18.1 21.92 18.51 22.05C18.09 22.24 17.66 22.63 17.25 23.29C17.59 23.5 17.88 23.65 18.14 23.76C17.95 23.95 17.77 24.19 17.59 24.48H17.61L17.63 24.5L17.65 24.51H17.66V24.52H17.68L17.69 24.54L17.71 24.55H17.72V24.56H17.74V24.58L17.76 24.59L17.77 24.6H17.79V24.61H17.8L17.82 24.63L17.83 24.64H17.85V24.65H17.86L17.88 24.67H17.9H17.92H17.94L17.95 24.69L17.97 24.7H17.98H18L18.01 24.71L18.03 24.72H18.05V24.73L18.07 24.74H18.09V24.75H18.1L18.12 24.76H18.13H18.15H18.16L18.18 24.77H18.19H18.2H18.21L18.22 24.78H18.24H18.25H18.26V24.79H18.27H18.28H18.29H18.3H18.31L18.32 24.8H18.33H18.34H18.35H18.36H18.37H18.38H18.39C18.22 25.09 18.11 25.44 18.06 25.83C18.76 25.82 19.32 25.69 19.67 25.43C19.67 25.83 19.76 26.24 19.94 26.62C20.46 26.27 20.86 25.92 21.09 25.59C21.28 26.12 21.86 26.66 22.69 27.23C22.83 26.94 22.93 26.63 22.98 26.32C23.25 26.28 23.48 26.21 23.66 26.12C23.66 26.2 23.66 26.28 23.66 26.36C24.36 26.35 24.9 26.22 25.2 25.97C25.26 26.37 25.43 26.78 25.67 27.16C26.04 26.87 26.34 26.59 26.53 26.31C26.93 26.25 27.24 26.13 27.45 25.96C27.51 26.36 27.68 26.77 27.92 27.15C28.18 26.95 28.4 26.76 28.57 26.57C28.74 26.76 28.96 26.96 29.22 27.15C29.46 26.77 29.63 26.35 29.69 25.96C29.96 26.18 30.42 26.32 31.02 26.35C31.23 26.72 31.53 27.06 31.88 27.34C32.31 26.59 32.58 25.93 32.6 25.4C32.79 25.79 33.24 26.19 33.85 26.6C34.03 26.22 34.13 25.8 34.12 25.41C34.37 25.59 34.73 25.71 35.17 25.77C35.17 26.25 35.29 26.75 35.5 27.21C36.33 26.64 36.92 26.1 37.1 25.57C37.33 25.91 37.73 26.25 38.25 26.6C38.43 26.22 38.53 25.8 38.52 25.41C38.86 25.66 39.43 25.79 40.13 25.81C40.07 25.42 39.97 25.08 39.8 24.8H39.81H39.82H39.83H39.84H39.86H39.87H39.89H39.9H39.91H39.92L39.94 24.79H39.95H39.97H39.98L40 24.78H40.02L40.03 24.77H40.05L40.06 24.76H40.08H40.09H40.11L40.12 24.75H40.14H40.15H40.17L40.18 24.74H40.2H40.21H40.23L40.24 24.73L40.26 24.72H40.27H40.29V24.71L40.31 24.7H40.33V24.69L40.35 24.68H40.37V24.67L40.39 24.66H40.41V24.65H40.42L40.44 24.63L40.45 24.62H40.47V24.61H40.48L40.5 24.59L40.51 24.58H40.53V24.57H40.55L40.57 24.55L40.59 24.54H40.61V24.53H40.63L40.65 24.51L40.67 24.5H40.69V24.49H40.71L40.73 24.47C40.55 24.18 40.36 23.94 40.18 23.75C40.44 23.65 40.74 23.49 41.07 23.28C40.66 22.62 40.23 22.22 39.81 22.04C40.23 21.92 40.71 21.68 41.29 21.32C40.7 20.37 40.08 19.85 39.49 19.65L40.12 19.87ZM24.56 25.35V25.32H24.58L24.56 25.35ZM25.88 25.38C25.88 25.38 25.86 25.34 25.85 25.32H25.92C25.92 25.32 25.89 25.36 25.88 25.38ZM28.13 25.38C28.13 25.38 28.11 25.34 28.1 25.32H28.17C28.17 25.32 28.14 25.36 28.13 25.38ZM30.03 25.38C30.03 25.38 30 25.34 29.99 25.32H30.06C30.06 25.32 30.04 25.36 30.03 25.38Z" fill="#5B661B"/>
<path fill-rule="evenodd" clip-rule="evenodd" d="M28.7401 19.3198C29.1901 19.1698 29.7101 18.8998 30.3101 18.5298C29.4501 17.2098 28.5501 16.6398 27.7101 16.5898C28.0301 16.2798 28.3601 15.8598 28.7101 15.2998C27.6801 14.6498 26.8401 14.4398 26.1701 14.5498C26.4101 14.2898 26.6601 13.9598 26.9301 13.5398C26.0001 12.9498 25.2401 12.7698 24.6401 12.8698C24.9901 12.2798 25.2601 11.4498 25.4801 10.3398C23.7101 9.9998 22.4701 10.2098 21.6701 10.7698C21.7001 10.3398 21.6701 9.8398 21.6101 9.2498C20.6401 9.3598 19.9101 9.6098 19.3901 9.9398C19.1201 9.2398 18.5101 8.4698 17.5101 7.5498C16.7601 8.3598 16.3001 9.1198 16.0601 9.7998C15.5601 9.5298 14.9101 9.3398 14.0801 9.2498C14.0001 9.9398 13.9901 10.5098 14.0401 10.9798C13.2601 10.2698 11.9401 9.9498 9.9601 10.3398C10.1801 11.4598 10.4501 12.2798 10.8001 12.8698C10.2001 12.7698 9.4401 12.9498 8.5101 13.5398C8.5701 13.6398 8.6401 13.7398 8.7001 13.8298C7.8701 13.7398 6.8301 14.0098 5.5801 14.7998C6.2901 15.9198 6.9201 16.6198 7.5401 16.9598C6.8701 17.1398 6.1801 17.6998 5.5101 18.7598C5.6901 18.8698 5.8601 18.9698 6.0201 19.0598H6.0301H6.0401V19.0698H6.0501H6.0601L6.0701 19.0798H6.0801L6.0901 19.0898H6.1001H6.1101L6.1301 19.0998H6.1401H6.1501H6.1601H6.1701H6.1801H6.1901H6.2001H6.2101H6.2201H6.2301H6.2401H6.2501H6.2601H6.2801H6.2901H6.3001H6.3101H6.3201H6.3301H6.3401H6.3501H6.3601H6.3701H6.3801H6.3901H6.4001H6.4101C5.7301 19.2798 5.0301 19.8298 4.3501 20.9098C4.9601 21.2898 5.4701 21.5398 5.9101 21.6698C5.4701 21.8698 5.0101 22.2898 4.5701 22.9898C4.9301 23.2098 5.2401 23.3798 5.5201 23.4898C5.3201 23.6898 5.1301 23.9498 4.9401 24.2598H4.9601L4.9801 24.2798L5.0001 24.2898H5.0201V24.2998H5.0401L5.0501 24.3198L5.0701 24.3298H5.0801V24.3398H5.1001V24.3598L5.1201 24.3798L5.1301 24.3898H5.1501V24.3998H5.1601L5.1801 24.4198L5.1901 24.4298H5.2101V24.4398H5.2201L5.2401 24.4598H5.2601H5.2801H5.3001L5.3201 24.4798L5.3401 24.4898H5.3501H5.3701L5.3801 24.5098L5.4001 24.5198H5.4101H5.4301V24.5298L5.4501 24.5398H5.4601H5.4801V24.5498H5.4901L5.5101 24.5598H5.5201H5.5401H5.5501L5.5701 24.5698H5.5901L5.6001 24.5798H5.6201H5.6301H5.6501L5.6601 24.5898H5.6801H5.7001V24.5998H5.7201H5.7401H5.7501L5.7601 24.6098H5.7701H5.7901H5.8001L5.8101 24.6198H5.8201H5.8301H5.8401H5.8501H5.8601C5.6801 24.9298 5.5701 25.2898 5.5101 25.7098C6.2601 25.6998 6.8501 25.5598 7.2101 25.2898C7.2001 25.7098 7.3101 26.1498 7.4901 26.5498C8.0401 26.1798 8.4601 25.8098 8.7001 25.4598C8.9001 26.0198 9.5201 26.5998 10.4001 27.1998C10.5401 26.8898 10.6501 26.5698 10.7101 26.2398C10.9901 26.1998 11.2401 26.1298 11.4301 26.0298C11.4301 26.1098 11.4301 26.1998 11.4301 26.2898C12.1701 26.2798 12.7401 26.1398 13.0601 25.8698C13.1201 26.2898 13.3001 26.7298 13.5601 27.1298C13.9601 26.8198 14.2701 26.5298 14.4701 26.2298C14.8901 26.1698 15.2301 26.0398 15.4401 25.8598C15.5001 26.2798 15.6801 26.7198 15.9401 27.1198C16.2101 26.9098 16.4501 26.6998 16.6301 26.4998C16.8101 26.6998 17.0501 26.9098 17.3201 27.1198C17.5801 26.7198 17.7601 26.2798 17.8201 25.8598C18.1101 26.0998 18.6001 26.2398 19.2301 26.2698C19.4501 26.6698 19.7701 27.0298 20.1401 27.3198C20.5901 26.5198 20.8801 25.8198 20.9001 25.2698C21.1001 25.6798 21.5801 26.1098 22.2201 26.5498C22.4101 26.1498 22.5101 25.7098 22.5001 25.2898C22.7601 25.4798 23.1401 25.6098 23.6101 25.6698C23.6101 26.1798 23.7301 26.7098 23.9601 27.1998C24.8401 26.5998 25.4601 26.0298 25.6601 25.4598C25.9001 25.8198 26.3201 26.1798 26.8701 26.5498C27.0601 26.1498 27.1601 25.7098 27.1501 25.2898C27.5201 25.5598 28.1101 25.6998 28.8501 25.7098C28.7901 25.2998 28.6801 24.9398 28.5101 24.6398H28.5201H28.5301H28.5501H28.5601H28.5801H28.5901L28.6101 24.6298H28.6201H28.6401H28.6501L28.6701 24.6198H28.6801H28.7001H28.7101L28.7301 24.6098H28.7501L28.7701 24.5998H28.7901L28.8101 24.5898H28.8301H28.8401H28.8601L28.8701 24.5798H28.8901H28.9001H28.9201L28.9301 24.5698L28.9501 24.5598H28.9601H28.9801L28.9901 24.5498L29.0101 24.5398H29.0201H29.0401L29.0501 24.5298L29.0701 24.5198H29.0801H29.1001V24.5098L29.1201 24.4998H29.1401V24.4898L29.1601 24.4698L29.1701 24.4598H29.1901V24.4498H29.2001L29.2201 24.4298L29.2301 24.4198H29.2501V24.4098H29.2601L29.2801 24.3898L29.2901 24.3798H29.3101V24.3698H29.3301L29.3501 24.3498L29.3701 24.3398H29.3901V24.3298H29.4101L29.4301 24.3098L29.4501 24.2998H29.4701V24.2898H29.4901L29.5101 24.2698C29.3201 23.9598 29.1201 23.7098 28.9301 23.4998C29.2101 23.3898 29.5201 23.2198 29.8801 22.9998C29.4401 22.2998 28.9901 21.8798 28.5401 21.6798C28.9801 21.5498 29.4901 21.2998 30.1001 20.9198C29.4801 19.9198 28.8201 19.3698 28.1901 19.1498L28.7401 19.3198ZM12.2601 25.1198V25.0898H12.2801L12.2601 25.1198ZM13.6501 25.1498C13.6501 25.1498 13.6301 25.1098 13.6201 25.0898H13.6901C13.6901 25.0898 13.6601 25.1298 13.6501 25.1498ZM16.0301 25.1498C16.0301 25.1498 16.0101 25.1098 16.0001 25.0898H16.0701C16.0701 25.0898 16.0401 25.1298 16.0301 25.1498ZM18.0501 25.1498C18.0501 25.1498 18.0201 25.1098 18.0101 25.0898H18.0801C18.0801 25.0898 18.0601 25.1298 18.0501 25.1498Z" fill="#5B661B"/>
<path fill-rule="evenodd" clip-rule="evenodd" d="M37.0301 14.2696H37.0401H37.0501H37.0601H37.0701H37.0801H37.0901H37.1001H37.1101H37.1201H37.1301H37.1401H37.1501H37.1601H37.1701L37.1901 14.2596H37.2001H37.2101L37.2201 14.2496H37.2301H37.2401H37.2501H37.2601H37.2701H37.2801V14.2396H37.2901H37.3001H37.3101L37.3201 14.2296H37.3301H37.3401H37.3601V14.2196H37.3701H37.3801H37.3901L37.4001 14.2096H37.4101H37.4201L37.4301 14.1996H37.4401H37.4501L37.4601 14.1896H37.4701C37.6501 14.0896 37.8401 13.9796 38.0401 13.8596C37.3001 12.6696 36.5301 12.0596 35.7801 11.8496C36.4801 11.4596 37.1701 10.6896 37.9601 9.43965C36.5701 8.55965 35.4101 8.25965 34.4901 8.35965C34.5601 8.25965 34.6301 8.14965 34.7001 8.03965C33.6701 7.38965 32.8201 7.18965 32.1601 7.29965C32.5501 6.63965 32.8501 5.71965 33.0901 4.47965C30.8901 4.04965 29.4201 4.39965 28.5501 5.19965C28.6101 4.67965 28.5901 4.03965 28.5001 3.27965C27.5801 3.37965 26.8501 3.59965 26.2901 3.89965C26.0301 3.13965 25.5101 2.29965 24.6801 1.38965C23.5701 2.41965 22.8901 3.26965 22.5901 4.04965C22.0101 3.66965 21.2001 3.39965 20.1201 3.27965C20.0501 3.92965 20.0201 4.48965 20.0501 4.96965C19.1601 4.34965 17.7801 4.10965 15.8101 4.48965C16.0501 5.72965 16.3501 6.64965 16.7401 7.30965C16.0701 7.19965 15.2201 7.39965 14.2001 8.04965C14.5001 8.51965 14.7701 8.88965 15.0401 9.17965C14.3001 9.06965 13.3501 9.29965 12.2101 10.0196C12.6101 10.6396 12.9701 11.1196 13.3301 11.4596C12.4001 11.5196 11.3901 12.1496 10.4401 13.6196C11.1101 14.0396 11.6801 14.3296 12.1901 14.4996C11.4901 14.7396 10.7601 15.3496 10.0701 16.4696C10.7501 16.8896 11.3201 17.1696 11.8101 17.3096C11.3201 17.5296 10.8101 17.9896 10.3201 18.7696C10.7101 19.0196 11.0601 19.1996 11.3701 19.3196C11.1501 19.5496 10.9301 19.8296 10.7201 20.1696H10.7401L10.7601 20.1996L10.7801 20.2096H10.8001V20.2196H10.8201L10.8401 20.2396L10.8601 20.2496H10.8801V20.2596H10.9001L10.9201 20.2796L10.9401 20.2896H10.9601V20.2996H10.9801L10.9901 20.3196L11.0101 20.3396H11.0201V20.3496H11.0401L11.0501 20.3696L11.0701 20.3896H11.0801V20.3996H11.1001L11.1101 20.4196L11.1301 20.4396H11.1401V20.4496H11.1601V20.4696H11.1701L11.1901 20.4896L11.2001 20.4996H11.2201V20.5096H11.2301L11.2501 20.5296H11.2601H11.2801V20.5396H11.2901L11.3101 20.5596H11.3201H11.3401V20.5696H11.3501L11.3701 20.5896H11.3901H11.4101V20.5996H11.4301L11.4501 20.6196H11.4701H11.4901H11.5101L11.5301 20.6396H11.5501H11.5701H11.5901L11.6101 20.6496H11.6301H11.6501H11.6701L11.6801 20.6596H11.7001H11.7101H11.7301L11.7401 20.6696H11.7601H11.7701H11.7901L11.8001 20.6796H11.8201C11.6301 21.0196 11.5001 21.4196 11.4401 21.8696C12.2701 21.8596 12.9301 21.6996 13.3401 21.3996C13.3301 21.8696 13.4501 22.3596 13.6601 22.7996C14.2701 22.3796 14.7401 21.9796 15.0101 21.5796C15.2301 22.2096 15.9201 22.8396 16.9001 23.5096C17.1501 22.9696 17.3001 22.3696 17.2901 21.8096C17.8101 21.7396 18.2301 21.5996 18.5301 21.3896C18.5201 21.8596 18.6401 22.3496 18.8501 22.7896C19.5701 22.2996 20.0901 21.8296 20.3201 21.3696C20.3501 21.9896 20.6601 22.7696 21.1601 23.6496C21.5701 23.3196 21.9301 22.9196 22.1701 22.4796C22.8801 22.4396 23.4201 22.2896 23.7401 22.0196C23.8101 22.4896 24.0101 22.9796 24.3001 23.4196C24.6001 23.1896 24.8601 22.9596 25.0701 22.7296C25.2801 22.9596 25.5401 23.1896 25.8401 23.4196C26.1301 22.9696 26.3301 22.4796 26.4001 22.0196C26.6401 22.2196 27.0101 22.3596 27.4801 22.4296C27.7001 22.7596 28.0501 23.0896 28.4901 23.4296C28.7801 22.9796 28.9801 22.4896 29.0501 22.0296C29.4101 22.3196 30.0401 22.4796 30.8701 22.4896C30.8701 22.3896 30.8701 22.2996 30.8701 22.1996C31.0901 22.3096 31.3601 22.3796 31.6701 22.4296C31.7301 22.7896 31.8501 23.1596 32.0101 23.4996C32.9901 22.8296 33.6801 22.1896 33.9001 21.5696C34.1701 21.9696 34.6401 22.3696 35.2501 22.7896C35.4601 22.3396 35.5801 21.8496 35.5701 21.3896C35.9801 21.6796 36.6401 21.8396 37.4701 21.8596C37.4001 21.3996 37.2701 20.9896 37.0801 20.6496H37.1001H37.1101L37.1301 20.6396H37.1501H37.1701H37.1901L37.2001 20.6296H37.2201H37.2301H37.2501L37.2601 20.6196H37.2801H37.3001V20.6096L37.3201 20.5996H37.3301H37.3501V20.5896H37.3601L37.3801 20.5796H37.3901H37.4101H37.4301L37.4501 20.5596H37.4701H37.4901H37.5101L37.5201 20.5396L37.5401 20.5296H37.5501H37.5701L37.5801 20.5096L37.6001 20.4996H37.6201V20.4896H37.6301L37.6501 20.4696L37.6601 20.4596H37.6801V20.4496H37.6901L37.7101 20.4296L37.7301 20.4196H37.7501V20.4096H37.7701L37.7901 20.3896L37.8101 20.3796H37.8301V20.3696H37.8501L37.8701 20.3496L37.8901 20.3396H37.9001V20.3296H37.9201L37.9301 20.3096L37.9501 20.2896L37.9601 20.2796H37.9801V20.2596H37.9901L38.0101 20.2396L38.0301 20.2296H38.0501V20.2096H38.0701L38.0901 20.1896L38.1101 20.1796H38.1301C37.9201 19.8196 37.7001 19.5396 37.4801 19.3196C37.7901 19.1996 38.1401 19.0096 38.5301 18.7696C38.0401 17.9896 37.5401 17.5296 37.0401 17.3096C37.5301 17.1596 38.1001 16.8896 38.7801 16.4696C38.0301 15.2696 37.2401 14.6496 36.4901 14.4596L37.0301 14.2696ZM24.3501 20.8096C24.3501 20.8096 24.3301 20.7596 24.3201 20.7396H24.4001C24.4001 20.7396 24.3701 20.7896 24.3501 20.8096ZM26.5901 20.8096C26.5901 20.8096 26.5601 20.7596 26.5401 20.7396H26.6201C26.6201 20.7396 26.6001 20.7896 26.5901 20.8096ZM29.2401 20.8096C29.2401 20.8096 29.2101 20.7596 29.1901 20.7396H29.2701C29.2701 20.7396 29.2501 20.7896 29.2401 20.8096ZM30.7901 20.7696L30.7601 20.7396H30.8001V20.7696H30.7901Z" fill="#5B661B"/>
<path fill-rule="evenodd" clip-rule="evenodd" d="M31.44 25.6L30.5 23.22L31.44 20.33L29.62 23.22L29.81 25.54L26.8 26.48L26.05 27.17L26.55 23.03L23.04 20.77L22.85 16.25L22.03 20.08L20.52 19.2L19.45 17.07L19.83 20.08L24.35 23.34L24.1 25.1L21.84 23.15L23.66 26.1L23.28 27.73L20.21 26.1L17.45 25.66L16.01 22.96L16.39 25.72L12.75 24.59L12.69 22.08L13.82 20.89L14.01 17.82L13.26 20.33L11.32 22.15L11.23 25.44L17.03 27.73L19.79 28.29L21.29 30.09C22.21 39.73 21.83 42.84 20.54 46.09C20.08 46.39 19.85 46.89 19.22 47.11C18.57 47.33 17.51 47.28 17 48H34.47C33.67 46.82 32.16 46.86 31.08 46.45C30.15 46.1 29.67 45.23 28.77 45.09C27.54 43.02 26.1 38.92 26.85 30.09L27.65 27.91L35.49 25.65L37.31 20.38L34.99 24.65L31.48 25.59L31.44 25.6Z" fill="#AD703E"/>
<path fill-rule="evenodd" clip-rule="evenodd" d="M19.76 26.8496L16.47 26.5996L11.78 25.0296L11.3 22.1396L11.21 25.4296L12.67 26.0096L16.92 27.6896L19.77 28.2896L21.24 30.0896C21.98 37.8496 21.91 41.3697 21.17 44.1497L22.58 39.9396L23 33.8297L22.61 30.0796L19.76 26.8396V26.8496Z" fill="#935E36"/>
<path fill-rule="evenodd" clip-rule="evenodd" d="M19.77 27.52L17.27 27.04L12.85 25.87L11.61 25.1L11.29 22.71L11.21 25.44L17.01 27.73L19.77 28.29L21.27 30.09C21.72 34.75 21.86 37.89 21.74 40.25L22.03 39.6L22.18 34.85L21.95 30.09L19.78 27.52H19.77Z" fill="#7A4D2E"/>
<path fill-rule="evenodd" clip-rule="evenodd" d="M23.6601 26.0994L23.2801 27.7294L23.9201 28.9194L24.2801 26.2094L21.8401 23.1494L23.6601 26.0994Z" fill="#935E36"/>
<path fill-rule="evenodd" clip-rule="evenodd" d="M19.46 17.0693L19.83 20.0793L24.35 23.3393L24.1 25.0993L24.53 25.7693L25.29 23.1293L20.21 19.6693L19.46 17.0693Z" fill="#935E36"/>
<path fill-rule="evenodd" clip-rule="evenodd" d="M12.24 21.8896L12.75 24.5996L12.68 22.0896L13.81 20.8896L12.24 21.8896Z" fill="#935E36"/>
<path fill-rule="evenodd" clip-rule="evenodd" d="M19.6702 18.7695L19.8302 20.0795L24.3502 23.3395L24.1002 25.0995L24.8002 23.1595L20.0502 19.9695L19.6702 18.7695Z" fill="#7A4D2E"/>
<path fill-rule="evenodd" clip-rule="evenodd" d="M12.45 21.9698L12.71 23.0498L12.68 22.0898L13.43 21.2998L12.45 21.9698Z" fill="#7A4D2E"/>
<path fill-rule="evenodd" clip-rule="evenodd" d="M11.3501 22.1093L13.5201 20.4493L13.8401 18.8993L13.9001 19.4293L14.0001 17.8193L13.2501 20.3293L11.3501 22.1093Z" fill="#BF7E4C"/>
<path fill-rule="evenodd" clip-rule="evenodd" d="M20.21 26.0997L17.45 25.6597L16.01 22.9697L17.23 25.8997L19.96 26.4797L23.71 28.5197L23.28 27.7297L20.21 26.0997Z" fill="#BF7E4C"/>
<path fill-rule="evenodd" clip-rule="evenodd" d="M22.84 16.25L22.53 20.71L25.98 23.25L26.04 27.17L26.55 23.03L23.03 20.77L22.84 16.25Z" fill="#BF7E4C"/>
<path fill-rule="evenodd" clip-rule="evenodd" d="M19.6702 17.5L20.4602 19.41L22.0002 20.46L22.0302 20.08L20.5202 19.2L19.6702 17.5Z" fill="#BF7E4C"/>
<path fill-rule="evenodd" clip-rule="evenodd" d="M26.31 23.1695L26.35 24.6295L26.55 23.0295L23.03 20.7695L26.31 23.1695Z" fill="#C88C63"/>
<path fill-rule="evenodd" clip-rule="evenodd" d="M11.9701 22.3496L11.9001 22.8496L12.1701 24.2096L12.0901 22.9796L11.9701 22.3496Z" fill="#935E36"/>
<path fill-rule="evenodd" clip-rule="evenodd" d="M22.58 19.2695L22.47 21.0095L24.51 22.3795L22.67 20.9595L22.58 19.2695Z" fill="#935E36"/>
<path fill-rule="evenodd" clip-rule="evenodd" d="M46.1301 16.34C46.5501 16.2 47.0201 15.96 47.5801 15.61C46.7901 14.39 45.9601 13.86 45.1801 13.82C45.4701 13.54 45.7801 13.15 46.1001 12.63C45.1501 12.03 44.3701 11.84 43.7601 11.93C43.9801 11.69 44.2101 11.38 44.4601 10.99C43.6101 10.45 42.9001 10.28 42.3501 10.37C42.6701 9.82996 42.9201 9.05996 43.1201 8.02996C41.4901 7.70996 40.3401 7.90996 39.6001 8.42996C39.6301 8.03996 39.6001 7.56996 39.5401 7.02996C38.6401 7.12996 37.9701 7.35996 37.4901 7.66996C37.2401 7.01996 36.6801 6.30996 35.7601 5.45996C35.0701 6.20996 34.6401 6.89996 34.4201 7.53996C33.9601 7.29996 33.3601 7.11996 32.5901 7.02996C32.5201 7.66996 32.5001 8.18996 32.5501 8.61996C31.8301 7.95996 30.6101 7.66996 28.7901 8.02996C28.9901 9.05996 29.2401 9.81996 29.5601 10.37C29.0101 10.28 28.3001 10.45 27.4501 10.99C27.5101 11.08 27.5701 11.17 27.6201 11.25C26.8501 11.16 25.8901 11.42 24.7401 12.14C25.3901 13.17 25.9701 13.81 26.5501 14.13C25.9401 14.3 25.2901 14.81 24.6801 15.79C24.8401 15.89 25.0001 15.98 25.1501 16.07H25.1601H25.1701H25.1801H25.1901H25.2001H25.2101H25.2201H25.2401V16.08H25.2501H25.2601H25.2701H25.2801H25.2901H25.3001H25.3101H25.3201H25.3301H25.3401H25.3501H25.3701H25.3801H25.3901H25.4001H25.4101H25.4201H25.4301H25.4401H25.4501H25.4601H25.4701C24.8501 16.24 24.2001 16.75 23.5801 17.75C24.1401 18.1 24.6101 18.33 25.0201 18.45C24.6101 18.63 24.1901 19.02 23.7901 19.66C24.1201 19.86 24.4101 20.02 24.6601 20.12C24.4801 20.31 24.3001 20.54 24.1201 20.83H24.1401L24.1601 20.85L24.1801 20.86H24.1901V20.87H24.2101L24.2201 20.89L24.2401 20.9H24.2501V20.91H24.2701V20.93L24.2901 20.94V20.95H24.3101V20.96H24.3201L24.3401 20.98H24.3501H24.3701V20.99H24.3801L24.4001 21.01H24.4201H24.4401H24.4601L24.4701 21.03H24.4901H24.5001H24.5201L24.5301 21.04L24.5501 21.05H24.5701V21.06L24.5901 21.07H24.6101V21.08H24.6201L24.6401 21.09H24.6501H24.6701H24.6801L24.6901 21.1H24.7001H24.7101H24.7201L24.7301 21.11H24.7401H24.7501H24.7601V21.12H24.7701H24.7801H24.7901H24.8001H24.8101H24.8201H24.8301H24.8401H24.8501H24.8601H24.8701H24.8801H24.8901C24.7301 21.41 24.6201 21.74 24.5601 22.13C25.2501 22.12 25.7901 21.99 26.1301 21.74C26.1301 22.13 26.2201 22.53 26.3901 22.9C26.9001 22.55 27.2901 22.22 27.5101 21.89C27.6901 22.41 28.2601 22.94 29.0701 23.49C29.2001 23.21 29.3001 22.91 29.3501 22.61C29.6101 22.57 29.8301 22.51 30.0101 22.42C30.0101 22.5 30.0101 22.58 30.0101 22.66C30.7001 22.65 31.2201 22.52 31.5201 22.27C31.5801 22.66 31.7401 23.06 31.9801 23.43C32.3401 23.15 32.6301 22.87 32.8201 22.6C33.2101 22.54 33.5201 22.43 33.7201 22.26C33.7801 22.65 33.9401 23.05 34.1801 23.42C34.4301 23.23 34.6501 23.04 34.8201 22.85C34.9901 23.04 35.2001 23.23 35.4601 23.42C35.7001 23.05 35.8601 22.64 35.9201 22.26C36.1801 22.48 36.6401 22.61 37.2201 22.64C37.4201 23 37.7201 23.34 38.0601 23.61C38.4701 22.87 38.7401 22.23 38.7601 21.72C38.9501 22.1 39.3801 22.49 39.9801 22.9C40.1501 22.53 40.2501 22.12 40.2401 21.74C40.4801 21.92 40.8301 22.03 41.2601 22.09C41.2601 22.56 41.3701 23.05 41.5801 23.5C42.3901 22.95 42.9601 22.42 43.1401 21.9C43.3601 22.23 43.7501 22.56 44.2601 22.91C44.4301 22.54 44.5301 22.13 44.5201 21.75C44.8601 21.99 45.4001 22.12 46.0901 22.14C46.0401 21.76 45.9301 21.43 45.7701 21.15H45.7801H45.7901H45.8001H45.8101H45.8201H45.8301H45.8401H45.8501H45.8601L45.8701 21.14H45.8801H45.9001H45.9101L45.9201 21.13H45.9401H45.9501L45.9701 21.12H45.9801H46.0001L46.0101 21.11H46.0301H46.0401H46.0601L46.0701 21.1H46.0901H46.1001H46.1201L46.1301 21.09H46.1501H46.1601H46.1801L46.1901 21.08L46.2101 21.07H46.2301V21.06L46.2501 21.05H46.2701V21.04L46.2901 21.03H46.3101V21.02L46.3301 21H46.3401H46.3601V20.99H46.3701L46.3901 20.97L46.4001 20.96H46.4201V20.95H46.4301L46.4501 20.93L46.4601 20.92H46.4801V20.91H46.4901L46.5101 20.89L46.5301 20.88H46.5501V20.87H46.5701L46.5901 20.85L46.6101 20.84H46.6301C46.4501 20.54 46.2701 20.31 46.0901 20.12C46.3501 20.02 46.6401 19.87 46.9601 19.66C46.5601 19.01 46.1401 18.63 45.7301 18.45C46.1401 18.33 46.6101 18.1 47.1701 17.75C46.6001 16.83 45.9901 16.32 45.4101 16.12L46.1301 16.34ZM30.9401 21.69V21.66H30.9601L30.9401 21.69ZM32.2201 21.72C32.2201 21.72 32.2001 21.68 32.1901 21.66H32.2601C32.2601 21.66 32.2301 21.7 32.2201 21.72ZM34.4201 21.72C34.4201 21.72 34.4001 21.68 34.3901 21.66H34.4601C34.4601 21.66 34.4301 21.7 34.4201 21.72ZM36.2801 21.72C36.2801 21.72 36.2501 21.68 36.2401 21.66H36.3101C36.3101 21.66 36.2901 21.7 36.2801 21.72Z" fill="#9CAA35"/>
<path fill-rule="evenodd" clip-rule="evenodd" d="M46.13 16.3393C46.55 16.1993 47.02 15.9593 47.58 15.6093C46.83 14.4493 46.03 13.9093 45.29 13.8293C45.31 13.9193 45.32 14.0193 45.34 14.1093C44.74 14.0993 44.26 13.9693 43.97 13.7193C43.97 14.1093 43.89 14.5093 43.74 14.8793C43.3 14.5293 42.96 14.1993 42.76 13.8693C42.6 14.3893 42.1 14.9193 41.4 15.4693C41.22 15.0193 41.11 14.5293 41.12 14.0593C40.74 13.9993 40.44 13.8893 40.23 13.7093C40.23 14.0993 40.15 14.4993 40 14.8693C39.48 14.4693 39.1 14.0793 38.94 13.6893C38.92 14.1993 38.69 14.8493 38.33 15.5793C38.03 15.3093 37.78 14.9793 37.6 14.6093C37.09 14.5793 36.7 14.4493 36.47 14.2293C36.42 14.6193 36.28 15.0193 36.07 15.3893C35.85 15.1993 35.66 15.0093 35.52 14.8193C35.37 15.0093 35.18 15.1993 34.96 15.3893C34.75 15.0193 34.61 14.6093 34.56 14.2293C34.38 14.3993 34.12 14.5093 33.78 14.5693C33.62 14.8393 33.37 15.1093 33.05 15.3993C32.84 15.0293 32.7 14.6193 32.65 14.2393C32.39 14.4793 31.93 14.6093 31.34 14.6293C31.34 14.5493 31.34 14.4693 31.34 14.3893C31.18 14.4793 30.99 14.5393 30.76 14.5793C30.71 14.8793 30.63 15.1793 30.51 15.4593C29.8 14.9093 29.3 14.3793 29.15 13.8593C28.96 14.1893 28.62 14.5193 28.17 14.8693C28.02 14.4993 27.93 14.0893 27.94 13.7093C27.65 13.9493 27.17 14.0793 26.57 14.0993C26.62 13.7193 26.71 13.3793 26.85 13.0993H26.84H26.83H26.82H26.81H26.8H26.79H26.78H26.77H26.76H26.75H26.74H26.73L26.72 13.0893H26.71H26.7L26.69 13.0793H26.68H26.67L26.66 13.0693H26.65H26.64L26.63 13.0593H26.62H26.61V13.0493L26.6 13.0393H26.59V13.0293L26.58 13.0193H26.57V13.0093H26.56L26.55 12.9993H26.54H26.53H26.52L26.51 12.9793H26.5H26.49H26.48L26.47 12.9593L26.46 12.9493H26.45V12.9293L26.44 12.9193V12.9093H26.43V12.8993L26.41 12.8793L26.4 12.8693H26.38V12.8593H26.37L26.35 12.8393L26.34 12.8293H26.32C26.47 12.5393 26.63 12.2993 26.79 12.1093C26.62 12.0293 26.43 11.9193 26.22 11.7793C25.88 11.9193 25.51 12.1093 25.12 12.3593C25.77 13.3893 26.35 14.0293 26.93 14.3493C26.32 14.5193 25.67 15.0293 25.06 16.0093C25.22 16.1093 25.38 16.1993 25.53 16.2893H25.54H25.55H25.56H25.57H25.58H25.59H25.6H25.62V16.2993H25.63H25.64H25.65H25.66H25.67H25.68H25.69H25.7H25.71H25.72H25.73H25.75H25.76H25.77H25.78H25.79H25.8H25.81H25.82H25.83H25.84H25.85C25.23 16.4593 24.58 16.9693 23.96 17.9693C24.52 18.3193 24.99 18.5493 25.4 18.6693C24.99 18.8493 24.57 19.2393 24.17 19.8793C24.5 20.0793 24.79 20.2393 25.04 20.3393C24.86 20.5293 24.68 20.7593 24.5 21.0493H24.52L24.54 21.0693L24.56 21.0793H24.57V21.0893H24.59L24.6 21.1093L24.62 21.1193H24.63V21.1293H24.65V21.1493L24.67 21.1593V21.1693H24.69V21.1793H24.7L24.72 21.1993H24.73H24.75V21.2093H24.76L24.78 21.2293H24.8H24.82H24.84L24.85 21.2493H24.87H24.88H24.9L24.91 21.2593L24.93 21.2693H24.95V21.2793L24.97 21.2893H24.99V21.2993H25L25.02 21.3093H25.03H25.05H25.06L25.07 21.3193H25.08H25.09H25.1L25.11 21.3293H25.12H25.13H25.14V21.3393H25.15H25.16H25.17H25.18H25.19H25.2H25.21H25.22H25.23H25.24H25.25H25.26H25.27C25.11 21.6293 25 21.9593 24.94 22.3493C25.63 22.3393 26.17 22.2093 26.51 21.9593C26.51 22.3493 26.6 22.7493 26.77 23.1193C27.28 22.7693 27.67 22.4393 27.89 22.1093C28.07 22.6293 28.64 23.1593 29.45 23.7093C29.58 23.4293 29.68 23.1293 29.73 22.8293C29.99 22.7893 30.21 22.7293 30.39 22.6393C30.39 22.7193 30.39 22.7993 30.39 22.8793C31.08 22.8693 31.6 22.7393 31.9 22.4893C31.96 22.8793 32.12 23.2793 32.36 23.6493C32.72 23.3693 33.01 23.0893 33.2 22.8193C33.59 22.7593 33.9 22.6493 34.1 22.4793C34.16 22.8693 34.32 23.2693 34.56 23.6393C34.81 23.4493 35.03 23.2593 35.2 23.0693C35.37 23.2593 35.58 23.4493 35.84 23.6393C36.08 23.2693 36.24 22.8593 36.3 22.4793C36.56 22.6993 37.02 22.8293 37.6 22.8593C37.8 23.2193 38.1 23.5593 38.44 23.8293C38.85 23.0893 39.12 22.4493 39.14 21.9393C39.33 22.3193 39.76 22.7093 40.36 23.1193C40.53 22.7493 40.63 22.3393 40.62 21.9593C40.86 22.1393 41.21 22.2493 41.64 22.3093C41.64 22.7793 41.75 23.2693 41.96 23.7193C42.77 23.1693 43.34 22.6393 43.52 22.1193C43.74 22.4493 44.13 22.7793 44.64 23.1293C44.81 22.7593 44.91 22.3493 44.9 21.9693C45.24 22.2093 45.78 22.3393 46.47 22.3593C46.42 21.9793 46.31 21.6493 46.15 21.3693H46.16H46.17H46.18H46.19H46.2H46.21H46.22H46.23H46.24L46.25 21.3593H46.26H46.28H46.29L46.3 21.3493H46.32H46.33L46.35 21.3393H46.36H46.38L46.39 21.3293H46.41H46.42H46.44L46.45 21.3193H46.47H46.48H46.5L46.51 21.3093H46.53H46.54H46.56L46.57 21.2993L46.59 21.2893H46.61V21.2793L46.63 21.2693H46.65V21.2593L46.67 21.2493H46.69V21.2393L46.71 21.2193H46.72H46.74V21.2093H46.75L46.77 21.1893L46.78 21.1793H46.8V21.1693H46.81L46.83 21.1493L46.84 21.1393H46.86V21.1293H46.87L46.89 21.1093L46.91 21.0993H46.93V21.0893H46.95L46.97 21.0693L46.99 21.0593H47.01C46.83 20.7593 46.65 20.5293 46.47 20.3393C46.73 20.2393 47.02 20.0893 47.34 19.8793C46.94 19.2293 46.52 18.8493 46.11 18.6693C46.52 18.5493 46.99 18.3193 47.55 17.9693C46.98 17.0493 46.37 16.5393 45.79 16.3393H46.13ZM30.94 21.6893V21.6593H30.96L30.94 21.6893ZM32.22 21.7193C32.22 21.7193 32.2 21.6793 32.19 21.6593H32.26C32.26 21.6593 32.23 21.6993 32.22 21.7193ZM34.42 21.7193C34.42 21.7193 34.4 21.6793 34.39 21.6593H34.46C34.46 21.6593 34.43 21.6993 34.42 21.7193ZM36.28 21.7193C36.28 21.7193 36.25 21.6793 36.24 21.6593H36.31C36.31 21.6593 36.29 21.6993 36.28 21.7193Z" fill="#8C9927"/>
<path fill-rule="evenodd" clip-rule="evenodd" d="M20.0901 17.0798C20.4701 16.9498 20.9001 16.7298 21.4001 16.4198C20.6901 15.3198 19.9301 14.8398 19.2401 14.7998C19.5101 14.5398 19.7801 14.1898 20.0701 13.7198C19.2201 13.1798 18.5101 13.0098 17.9501 13.0898C18.1501 12.8698 18.3601 12.5998 18.5801 12.2398C17.8101 11.7498 17.1701 11.5998 16.6701 11.6798C16.9601 11.1898 17.1901 10.4998 17.3701 9.56977C15.9001 9.27977 14.8601 9.45977 14.1901 9.92977C14.2101 9.56977 14.1901 9.15977 14.1401 8.66977C13.3301 8.75977 12.7201 8.96977 12.2901 9.24977C12.0601 8.65977 11.5601 8.01977 10.7201 7.25977C10.1001 7.93977 9.71006 8.55977 9.51006 9.13977C9.09006 8.91977 8.55006 8.75977 7.86006 8.67977C7.80006 9.24977 7.78006 9.72977 7.82006 10.1198C7.17006 9.52977 6.07006 9.25977 4.42006 9.57977C4.60006 10.5098 4.83006 11.1998 5.12006 11.6898C4.62006 11.6098 3.99006 11.7598 3.22006 12.2498C3.27006 12.3298 3.32006 12.4098 3.38006 12.4898C2.69006 12.4098 1.82006 12.6398 0.780059 13.2998C1.37006 14.2298 1.89006 14.8098 2.41006 15.0998C1.85006 15.2498 1.27006 15.7098 0.720059 16.5998C0.870059 16.6898 1.01006 16.7798 1.15006 16.8498H1.16006H1.17006H1.18006H1.19006H1.20006H1.21006H1.22006H1.23006H1.24006H1.25006H1.27006C0.710059 16.9998 0.120059 17.4598 -0.439941 18.3598C0.0700586 18.6798 0.490059 18.8798 0.860059 18.9898C0.490059 19.1498 0.110059 19.4998 -0.249941 20.0898C0.0500586 20.2698 0.310059 20.4098 0.540059 20.4998C0.380059 20.6698 0.210059 20.8798 0.0500586 21.1398H0.0700586L0.0800586 21.1598L0.100059 21.1698H0.110059H0.130059L0.140059 21.1898L0.160059 21.1998H0.180059V21.2098L0.200059 21.2198H0.220059V21.2298L0.240059 21.2398H0.250059H0.260059H0.270059L0.280059 21.2598H0.290059H0.300059H0.310059L0.320059 21.2698H0.330059H0.340059H0.350059V21.2798H0.360059H0.370059V21.2898L0.380059 21.2998H0.390059L0.400059 21.3098H0.410059H0.420059H0.430059L0.440059 21.3198H0.450059L0.460059 21.3298H0.470059H0.480059H0.490059V21.3398H0.500059H0.510059H0.520059H0.530059H0.540059H0.550059H0.560059H0.570059H0.580059H0.590059H0.600059H0.610059H0.620059C0.470059 21.5998 0.380059 21.8998 0.330059 22.2398C0.950059 22.2398 1.45006 22.1098 1.75006 21.8898C1.75006 22.2398 1.83006 22.6098 1.99006 22.9398C2.45006 22.6298 2.80006 22.3298 3.00006 22.0298C3.16006 22.4998 3.68006 22.9798 4.41006 23.4798C4.53006 23.2198 4.62006 22.9498 4.66006 22.6798C4.90006 22.6398 5.10006 22.5898 5.26006 22.5098C5.26006 22.5798 5.26006 22.6498 5.26006 22.7198C5.88006 22.7198 6.35006 22.5898 6.62006 22.3698C6.67006 22.7198 6.82006 23.0898 7.04006 23.4198C7.37006 23.1698 7.63006 22.9198 7.80006 22.6698C8.15006 22.6198 8.43006 22.5098 8.61006 22.3598C8.66006 22.7098 8.81006 23.0798 9.03006 23.4098C9.26006 23.2398 9.45006 23.0598 9.60006 22.8898C9.75006 23.0598 9.95006 23.2298 10.1701 23.4098C10.3801 23.0798 10.5301 22.7098 10.5901 22.3598C10.8301 22.5598 11.2401 22.6698 11.7601 22.6998C11.9401 23.0298 12.2101 23.3298 12.5201 23.5698C12.8901 22.8998 13.1301 22.3198 13.1501 21.8598C13.3201 22.1998 13.7101 22.5598 14.2501 22.9198C14.4101 22.5898 14.5001 22.2198 14.4901 21.8698C14.7101 22.0298 15.0201 22.1298 15.4201 22.1798C15.4201 22.5998 15.5201 23.0498 15.7101 23.4498C16.4401 22.9498 16.9601 22.4698 17.1201 21.9998C17.3201 22.2998 17.6701 22.5998 18.1301 22.9098C18.2901 22.5798 18.3801 22.2098 18.3701 21.8598C18.6701 22.0798 19.1701 22.1998 19.7901 22.2098C19.7401 21.8698 19.6501 21.5698 19.5001 21.3198H19.5101H19.5201H19.5301H19.5401H19.5501H19.5601H19.5701H19.5801H19.5901H19.6001H19.6101H19.6201L19.6301 21.3098H19.6401L19.6501 21.2998H19.6601L19.6701 21.2898H19.6801H19.6901H19.7001L19.7101 21.2798H19.7201H19.7301H19.7401L19.7501 21.2698H19.7601H19.7701H19.7801L19.7901 21.2598H19.8001H19.8101V21.2498L19.8201 21.2398H19.8301V21.2298L19.8501 21.2198H19.8701V21.2098L19.8901 21.1998H19.9101V21.1898L19.9301 21.1798H19.9401H19.9601V21.1698H19.9701L19.9901 21.1498H20.0001H20.0201V21.1398H20.0301L20.0501 21.1198H20.0601H20.0801V21.1098H20.0901L20.1101 21.0898L20.1301 21.0798H20.1501V21.0698H20.1701L20.1901 21.0498C20.0301 20.7898 19.8701 20.5798 19.7001 20.4098C19.9301 20.3198 20.1901 20.1798 20.4901 19.9998C20.1301 19.4198 19.7501 19.0698 19.3801 18.8998C19.7501 18.7898 20.1801 18.5798 20.6801 18.2698C20.1601 17.4398 19.6201 16.9798 19.0901 16.7998L20.0901 17.0798ZM6.37006 21.9098V21.8898H6.39006L6.37006 21.9098ZM7.53006 21.9398C7.53006 21.9398 7.51006 21.9098 7.51006 21.8898H7.57006C7.57006 21.8898 7.55006 21.9198 7.53006 21.9398ZM9.51006 21.9398C9.51006 21.9398 9.49006 21.9098 9.49006 21.8898H9.55006C9.55006 21.8898 9.53006 21.9198 9.51006 21.9398ZM11.1901 21.9398C11.1901 21.9398 11.1701 21.9098 11.1501 21.8898H11.2101C11.2101 21.8898 11.1901 21.9198 11.1901 21.9398Z" fill="#9CAA35"/>
<path fill-rule="evenodd" clip-rule="evenodd" d="M20.0001 13.6192C19.9401 13.5792 19.8801 13.5392 19.8201 13.5092C19.8401 13.5392 19.8601 13.5692 19.8701 13.5992H19.8601L19.8501 13.6192L19.8401 13.6292H19.8301V13.6392H19.8201L19.8101 13.6592L19.8001 13.6692H19.7901H19.7801L19.7701 13.6892L19.7601 13.6992H19.7501H19.7401L19.7301 13.7192L19.7201 13.7292H19.7101V13.7392L19.7001 13.7492H19.6901V13.7592L19.6801 13.7692H19.6701V13.7792L19.6601 13.7892H19.6501V13.7992L19.6401 13.8092H19.6301L19.6201 13.8192H19.6101L19.6001 13.8292H19.5901H19.5801L19.5701 13.8392H19.5601H19.5501H19.5401L19.5301 13.8492H19.5201H19.5101H19.5001L19.4901 13.8592H19.4801H19.4701H19.4601H19.4501H19.4401H19.4301H19.4201H19.4101H19.4001C19.4801 14.0192 19.5401 14.2092 19.5901 14.4092C19.8301 14.1592 20.0801 13.8292 20.3501 13.4092L20.0001 13.6192Z" fill="#8C9927"/>
<path fill-rule="evenodd" clip-rule="evenodd" d="M9.72017 14.1699H9.67017C9.67017 14.1699 9.68017 14.1999 9.69017 14.2199C9.70017 14.1999 9.71017 14.1899 9.72017 14.1699Z" fill="#8C9927"/>
<path fill-rule="evenodd" clip-rule="evenodd" d="M11.1701 14.1699H11.1201C11.1201 14.1699 11.1401 14.1999 11.1501 14.2199C11.1501 14.1999 11.1601 14.1899 11.1701 14.1699Z" fill="#8C9927"/>
<path fill-rule="evenodd" clip-rule="evenodd" d="M20.0902 17.0796C20.4702 16.9496 20.9002 16.7296 21.4002 16.4196C20.7202 15.3696 20.0002 14.8896 19.3302 14.8096C19.3502 14.8896 19.3602 14.9796 19.3702 15.0696C18.8302 15.0696 18.4002 14.9396 18.1302 14.7196C18.1302 15.0696 18.0602 15.4396 17.9202 15.7696C17.5202 15.4596 17.2102 15.1596 17.0402 14.8596C16.9002 15.3296 16.4502 15.8096 15.8102 16.3096C15.6402 15.9096 15.5502 15.4596 15.5502 15.0396C15.2102 14.9896 14.9302 14.8796 14.7402 14.7296C14.7402 15.0796 14.6702 15.4496 14.5302 15.7796C14.0602 15.4096 13.7202 15.0596 13.5702 14.7196C13.5502 15.1796 13.3502 15.7596 13.0202 16.4296C12.7502 16.1896 12.5202 15.8796 12.3602 15.5596C11.9002 15.5296 11.5402 15.4196 11.3402 15.2196C11.3002 15.5696 11.1602 15.9396 10.9802 16.2696C10.7802 16.0896 10.6102 15.9196 10.4802 15.7496C10.3502 15.9196 10.1802 16.0896 9.98017 16.2696C9.79017 15.9396 9.66017 15.5696 9.62017 15.2196C9.46017 15.3696 9.22017 15.4696 8.91017 15.5296C8.77017 15.7696 8.54017 16.0196 8.25017 16.2796C8.06017 15.9496 7.93017 15.5796 7.89017 15.2296C7.66017 15.4496 7.24017 15.5696 6.70017 15.5796C6.70017 15.5096 6.70017 15.4396 6.70017 15.3696C6.56017 15.4496 6.38017 15.5096 6.18017 15.5396C6.14017 15.8096 6.06017 16.0796 5.96017 16.3396C5.32017 15.8396 4.87017 15.3596 4.73017 14.8896C4.56017 15.1896 4.25017 15.4896 3.85017 15.7996C3.71017 15.4696 3.64017 15.0996 3.64017 14.7496C3.37017 14.9696 2.94017 15.0896 2.40017 15.0996C2.44017 14.7496 2.53017 14.4496 2.66017 14.1896H2.65017H2.64017H2.63017H2.62017H2.61017H2.60017H2.59017H2.58017H2.57017H2.56017H2.55017H2.54017L2.53017 14.1796H2.52017H2.51017H2.50017L2.49017 14.1696H2.48017H2.47017V14.1596H2.46017H2.45017V14.1496L2.44017 14.1396H2.43017L2.42017 14.1296H2.41017H2.40017L2.39017 14.1196H2.38017H2.37017H2.36017L2.35017 14.0996H2.34017H2.33017H2.32017V14.0896L2.31017 14.0796H2.30017V14.0696L2.29017 14.0596H2.28017V14.0496L2.27017 14.0296H2.26017H2.25017V14.0196H2.24017L2.23017 13.9996C2.37017 13.7396 2.51017 13.5296 2.65017 13.3596C2.49017 13.2896 2.32017 13.1896 2.13017 13.0596C1.82017 13.1896 1.49017 13.3596 1.14017 13.5796C1.73017 14.5096 2.25017 15.0896 2.77017 15.3796C2.21017 15.5296 1.63017 15.9896 1.08017 16.8796C1.23017 16.9696 1.37017 17.0596 1.51017 17.1296H1.52017H1.53017H1.54017H1.55017H1.56017H1.57017H1.58017H1.59017H1.60017H1.61017H1.63017C1.07017 17.2796 0.480166 17.7396 -0.079834 18.6396C0.430166 18.9596 0.850166 19.1596 1.22017 19.2696C0.850166 19.4296 0.470166 19.7796 0.110166 20.3696C0.410166 20.5496 0.670166 20.6896 0.900166 20.7796C0.740166 20.9496 0.570166 21.1596 0.410166 21.4196H0.430166L0.440166 21.4396L0.460166 21.4496H0.470166H0.490166L0.500166 21.4696L0.520166 21.4796H0.540166V21.4896L0.560166 21.4996H0.580166V21.5096L0.600166 21.5196H0.610166H0.620166H0.630166L0.640166 21.5396H0.650166H0.660166H0.670166L0.680166 21.5496H0.690166H0.700166H0.710166V21.5596H0.720166H0.730166V21.5696L0.740166 21.5796H0.750166L0.760166 21.5896H0.770166H0.780166H0.790166L0.800166 21.5996H0.810166L0.820166 21.6096H0.830166H0.840166H0.850166V21.6196H0.860166H0.870166H0.880166H0.890166H0.900166H0.910166H0.920166H0.930166H0.940166H0.950166H0.960166H0.970166H0.980166C0.830166 21.8796 0.740166 22.1796 0.690166 22.5196C1.31017 22.5196 1.81017 22.3896 2.11017 22.1696C2.11017 22.5196 2.19017 22.8896 2.35017 23.2196C2.81017 22.9096 3.16017 22.6096 3.36017 22.3096C3.52017 22.7796 4.04017 23.2596 4.77017 23.7596C4.89017 23.4996 4.98017 23.2296 5.02017 22.9596C5.26017 22.9196 5.46017 22.8696 5.62017 22.7896C5.62017 22.8596 5.62017 22.9296 5.62017 22.9996C6.24017 22.9996 6.71017 22.8696 6.98017 22.6496C7.03017 22.9996 7.18017 23.3696 7.40017 23.6996C7.73017 23.4496 7.99017 23.1996 8.16017 22.9496C8.51017 22.8996 8.79017 22.7896 8.97017 22.6396C9.02017 22.9896 9.17017 23.3596 9.39017 23.6896C9.62017 23.5196 9.81017 23.3396 9.96017 23.1696C10.1102 23.3396 10.3102 23.5096 10.5302 23.6896C10.7402 23.3596 10.8902 22.9896 10.9502 22.6396C11.1902 22.8396 11.6002 22.9496 12.1202 22.9796C12.3002 23.3096 12.5702 23.6096 12.8802 23.8496C13.2502 23.1796 13.4902 22.5996 13.5102 22.1396C13.6802 22.4796 14.0702 22.8396 14.6102 23.1996C14.7702 22.8696 14.8602 22.4996 14.8502 22.1496C15.0702 22.3096 15.3802 22.4096 15.7802 22.4596C15.7802 22.8796 15.8802 23.3296 16.0702 23.7296C16.8002 23.2296 17.3202 22.7496 17.4802 22.2796C17.6802 22.5796 18.0302 22.8796 18.4902 23.1896C18.6502 22.8596 18.7402 22.4896 18.7302 22.1396C19.0302 22.3596 19.5302 22.4796 20.1502 22.4896C20.1002 22.1496 20.0102 21.8496 19.8602 21.5996H19.8702H19.8802H19.8902H19.9002H19.9102H19.9202H19.9302H19.9402H19.9502H19.9602H19.9702H19.9802L19.9902 21.5896H20.0002L20.0102 21.5796H20.0202L20.0302 21.5696H20.0402H20.0502H20.0602L20.0702 21.5596H20.0802H20.0902H20.1002L20.1102 21.5496H20.1202H20.1302H20.1402L20.1502 21.5396H20.1602H20.1702V21.5296L20.1802 21.5196H20.1902V21.5096L20.2102 21.4996H20.2302V21.4896L20.2502 21.4796H20.2702V21.4696L20.2902 21.4596H20.3002H20.3202V21.4496H20.3302L20.3502 21.4296H20.3602H20.3802V21.4196H20.3902L20.4102 21.3996H20.4202H20.4402V21.3896H20.4502L20.4702 21.3696L20.4902 21.3596H20.5102V21.3496H20.5302L20.5502 21.3296C20.3902 21.0696 20.2302 20.8596 20.0602 20.6896C20.2902 20.5996 20.5502 20.4596 20.8502 20.2796C20.4902 19.6996 20.1102 19.3496 19.7402 19.1796C20.1102 19.0696 20.5402 18.8596 21.0402 18.5496C20.5202 17.7196 19.9802 17.2596 19.4502 17.0796H20.0902ZM6.37017 21.9096V21.8896H6.39017L6.37017 21.9096ZM7.53017 21.9396C7.53017 21.9396 7.51017 21.9096 7.51017 21.8896H7.57017C7.57017 21.8896 7.55017 21.9196 7.53017 21.9396ZM9.51017 21.9396C9.51017 21.9396 9.49017 21.9096 9.49017 21.8896H9.55017C9.55017 21.8896 9.53017 21.9196 9.51017 21.9396ZM11.1902 21.9396C11.1902 21.9396 11.1702 21.9096 11.1502 21.8896H11.2102C11.2102 21.8896 11.1902 21.9196 11.1902 21.9396Z" fill="#8C9927"/>
<path fill-rule="evenodd" clip-rule="evenodd" d="M6.96018 14.1699H6.93018L6.94018 14.1899L6.96018 14.1699Z" fill="#8C9927"/>
<path fill-rule="evenodd" clip-rule="evenodd" d="M7.98994 14.1699H7.93994C7.93994 14.1699 7.94994 14.1999 7.95994 14.2199C7.96994 14.1999 7.97994 14.1899 7.98994 14.1699Z" fill="#8C9927"/>
<path fill-rule="evenodd" clip-rule="evenodd" d="M9.54999 17.8594H9.48999C9.48999 17.8594 9.50999 17.8894 9.50999 17.9094C9.51999 17.8894 9.52999 17.8794 9.54999 17.8594Z" fill="#747F20"/>
<path fill-rule="evenodd" clip-rule="evenodd" d="M11.2202 17.8594H11.1602C11.1602 17.8594 11.1802 17.8894 11.2002 17.9094C11.2002 17.8894 11.2202 17.8794 11.2202 17.8594Z" fill="#747F20"/>
<path fill-rule="evenodd" clip-rule="evenodd" d="M7.57001 17.8594H7.51001C7.51001 17.8594 7.53001 17.8894 7.53001 17.9094C7.54001 17.8894 7.55001 17.8794 7.57001 17.8594Z" fill="#747F20"/>
<path fill-rule="evenodd" clip-rule="evenodd" d="M6.39011 17.8594H6.36011L6.37011 17.8794L6.39011 17.8594Z" fill="#747F20"/>
<path fill-rule="evenodd" clip-rule="evenodd" d="M20.8199 17.5097L20.7999 17.5197H20.7899V17.5297L20.7799 17.5397H20.7699L20.7599 17.5497H20.7499H20.7399H20.7299L20.7199 17.5597H20.7099H20.6999H20.6899L20.6799 17.5697H20.6699H20.6599H20.6499L20.6399 17.5797H20.6299H20.6199H20.6099L20.5999 17.5897H20.5899L20.5799 17.5997H20.5699L20.5599 17.6097H20.5499H20.5399H20.5299H20.5199H20.5099H20.4999H20.4899H20.4799H20.4699C20.6099 17.8697 20.7099 18.1697 20.7599 18.5097C20.1399 18.5097 19.6399 18.3797 19.3399 18.1597C19.3399 18.5097 19.2599 18.8797 19.0999 19.2097C18.6399 18.8997 18.2899 18.5997 18.0899 18.2997C17.9299 18.7697 17.4099 19.2497 16.6799 19.7497C16.4899 19.3497 16.3799 18.8997 16.3899 18.4797C15.9999 18.4297 15.6799 18.3197 15.4599 18.1697C15.4599 18.5197 15.3799 18.8897 15.2199 19.2197C14.6799 18.8497 14.2899 18.4997 14.1199 18.1597C14.0999 18.6197 13.8599 19.1997 13.4899 19.8697C13.1799 19.6297 12.9199 19.3197 12.7299 18.9897C12.1999 18.9597 11.7899 18.8497 11.5599 18.6497C11.5099 18.9997 11.3599 19.3697 11.1399 19.6997C10.9099 19.5197 10.7199 19.3497 10.5699 19.1797C10.4199 19.3497 10.2199 19.5197 9.99994 19.6997C9.78994 19.3697 9.62994 18.9997 9.57994 18.6497C9.39994 18.7997 9.11994 18.8997 8.76994 18.9597C8.59994 19.1997 8.33994 19.4497 8.00994 19.7097C7.79994 19.3797 7.64994 19.0097 7.58994 18.6597C7.31994 18.8797 6.84994 18.9997 6.22994 19.0097C6.22994 18.9397 6.22994 18.8697 6.22994 18.7997C6.06994 18.8797 5.86994 18.9397 5.62994 18.9697C5.57994 19.2397 5.49994 19.5097 5.37994 19.7697C4.64994 19.2697 4.12994 18.7897 3.96994 18.3197C3.76994 18.6197 3.41994 18.9197 2.95994 19.2297C2.79994 18.8997 2.70994 18.5297 2.71994 18.1797C2.41994 18.3997 1.91994 18.5197 1.29994 18.5297C1.34994 18.1797 1.44994 17.8797 1.58994 17.6297H1.57994H1.56994H1.55994H1.54994H1.53994H1.52994H1.51994H1.50994H1.49994H1.48994H1.47994H1.46994H1.45994H1.44994H1.43994L1.42994 17.6197H1.41994H1.40994L1.39994 17.6097H1.38994H1.37994L1.36994 17.5997H1.35994H1.34994V17.5897L1.33994 17.5797H1.32994V17.5697L1.31994 17.5597H1.30994H1.29994C1.00994 17.8097 0.719941 18.1497 0.439941 18.5997C0.949941 18.9197 1.36994 19.1197 1.73994 19.2297C1.36994 19.3897 0.989941 19.7397 0.629941 20.3297C0.929941 20.5097 1.18994 20.6497 1.41994 20.7397C1.25994 20.9097 1.08994 21.1197 0.929941 21.3797H0.949941L0.959941 21.3997L0.979941 21.4097H0.989941H1.00994L1.01994 21.4297L1.03994 21.4397H1.05994V21.4497L1.07994 21.4597H1.09994V21.4697L1.11994 21.4797H1.12994H1.13994H1.14994L1.15994 21.4997H1.16994H1.17994H1.18994L1.19994 21.5097H1.20994H1.21994H1.22994V21.5197H1.23994H1.24994V21.5297L1.25994 21.5397H1.26994L1.27994 21.5497H1.28994H1.29994H1.30994L1.31994 21.5597H1.32994L1.33994 21.5697H1.34994H1.35994H1.36994V21.5797H1.37994H1.38994H1.39994H1.40994H1.41994H1.42994H1.43994H1.44994H1.45994H1.46994H1.47994H1.48994H1.49994C1.34994 21.8397 1.25994 22.1397 1.20994 22.4797C1.82994 22.4797 2.32994 22.3497 2.62994 22.1297C2.62994 22.4797 2.70994 22.8497 2.86994 23.1797C3.32994 22.8697 3.67994 22.5697 3.87994 22.2697C4.03994 22.7397 4.55994 23.2197 5.28994 23.7197C5.40994 23.4597 5.49994 23.1897 5.53994 22.9197C5.77994 22.8797 5.97994 22.8297 6.13994 22.7497C6.13994 22.8197 6.13994 22.8897 6.13994 22.9597C6.75994 22.9597 7.22994 22.8297 7.49994 22.6097C7.54994 22.9597 7.69994 23.3297 7.91994 23.6597C8.24994 23.4097 8.50994 23.1597 8.67994 22.9097C9.02994 22.8597 9.30994 22.7497 9.48994 22.5997C9.53994 22.9497 9.68994 23.3197 9.90994 23.6497C10.1399 23.4797 10.3299 23.2997 10.4799 23.1297C10.6299 23.2997 10.8299 23.4697 11.0499 23.6497C11.2599 23.3197 11.4099 22.9497 11.4699 22.5997C11.7099 22.7997 12.1199 22.9097 12.6399 22.9397C12.8199 23.2697 13.0899 23.5697 13.3999 23.8097C13.7699 23.1397 14.0099 22.5597 14.0299 22.0997C14.1999 22.4397 14.5899 22.7997 15.1299 23.1597C15.2899 22.8297 15.3799 22.4597 15.3699 22.1097C15.5899 22.2697 15.8999 22.3697 16.2999 22.4197C16.2999 22.8397 16.3999 23.2897 16.5899 23.6897C17.3199 23.1897 17.8399 22.7097 17.9999 22.2397C18.1999 22.5397 18.5499 22.8397 19.0099 23.1497C19.1699 22.8197 19.2599 22.4497 19.2499 22.0997C19.5499 22.3197 20.0499 22.4397 20.6699 22.4497C20.6199 22.1097 20.5299 21.8097 20.3799 21.5597H20.3899H20.3999H20.4099H20.4199H20.4299H20.4399H20.4499H20.4599H20.4699H20.4799H20.4899H20.4999L20.5099 21.5497H20.5199L20.5299 21.5397H20.5399L20.5499 21.5297H20.5599H20.5699H20.5799L20.5899 21.5197H20.5999H20.6099H20.6199L20.6299 21.5097H20.6399H20.6499H20.6599L20.6699 21.4997H20.6799H20.6899V21.4897L20.6999 21.4797H20.7099V21.4697L20.7299 21.4597H20.7499V21.4497L20.7699 21.4397H20.7899V21.4297L20.8099 21.4197H20.8199H20.8399V21.4097H20.8499L20.8699 21.3897H20.8799H20.8999V21.3797H20.9099L20.9299 21.3597H20.9399H20.9599V21.3497H20.9699L20.9899 21.3297L21.0099 21.3197H21.0299V21.3097H21.0499L21.0699 21.2897C20.9099 21.0297 20.7499 20.8197 20.5799 20.6497C20.8099 20.5597 21.0699 20.4197 21.3699 20.2397C21.0099 19.6597 20.6299 19.3097 20.2599 19.1397C20.6299 19.0297 21.0599 18.8197 21.5599 18.5097C21.2799 18.0597 20.9899 17.7197 20.6999 17.4697L20.8199 17.5097ZM6.36994 21.9097V21.8897H6.38994L6.36994 21.9097ZM7.52994 21.9397C7.52994 21.9397 7.50994 21.9097 7.50994 21.8897H7.56994C7.56994 21.8897 7.54994 21.9197 7.52994 21.9397ZM9.50994 21.9397C9.50994 21.9397 9.48994 21.9097 9.48994 21.8897H9.54994C9.54994 21.8897 9.52994 21.9197 9.50994 21.9397ZM11.1899 21.9397C11.1899 21.9397 11.1699 21.9097 11.1499 21.8897H11.2099C11.2099 21.8897 11.1899 21.9197 11.1899 21.9397Z" fill="#747F20"/>
<path fill-rule="evenodd" clip-rule="evenodd" d="M34.8401 15.3099C35.3401 15.1399 35.9001 14.8599 36.5601 14.4499C35.6201 12.9999 34.6301 12.3799 33.7101 12.3199C34.0601 11.9799 34.4201 11.5199 34.8101 10.9099C33.6901 10.1999 32.7601 9.96992 32.0201 10.0799C32.2901 9.79992 32.5601 9.42992 32.8501 8.96992C31.8401 8.32992 31.0001 8.12992 30.3501 8.23992C30.7301 7.58992 31.0301 6.68992 31.2701 5.46992C29.3301 5.08992 27.9701 5.32992 27.0901 5.93992C27.1201 5.46992 27.0901 4.91992 27.0201 4.27992C25.9601 4.39992 25.1601 4.66992 24.5901 5.03992C24.2901 4.26992 23.6301 3.42992 22.5301 2.41992C21.7101 3.30992 21.2001 4.13992 20.9401 4.88992C20.3901 4.59992 19.6801 4.38992 18.7701 4.27992C18.6801 5.02992 18.6701 5.65992 18.7201 6.16992C17.8701 5.38992 16.4201 5.03992 14.2501 5.46992C14.4901 6.68992 14.7801 7.59992 15.1701 8.23992C14.5101 8.12992 13.6801 8.32992 12.6701 8.96992C12.7401 9.07992 12.8101 9.17992 12.8801 9.27992C11.9701 9.17992 10.8301 9.47992 9.46014 10.3399C10.2401 11.5699 10.9201 12.3299 11.6101 12.7099C10.8801 12.9099 10.1201 13.5199 9.39014 14.6799C9.59014 14.7999 9.77014 14.9099 9.95014 15.0099H9.96014H9.97014L9.98014 15.0199H9.99014H10.0001H10.0101V15.0299H10.0201H10.0301H10.0401H10.0501V15.0399L10.0601 15.0499H10.0801V15.0599H10.0901L10.1001 15.0699H10.1101H10.1201H10.1301V15.0799H10.1401H10.1501H10.1601H10.1701H10.1801H10.1901H10.2001H10.2101H10.2201H10.2301L10.2501 15.0899H10.2601H10.2701H10.2801H10.2901H10.3001H10.3101H10.3201H10.3301H10.3401H10.3501H10.3601H10.3701H10.3801H10.3901C9.65014 15.2799 8.88014 15.8899 8.14014 17.0799C8.80014 17.4899 9.37014 17.7699 9.85014 17.9099C9.36014 18.1299 8.87014 18.5799 8.39014 19.3499C8.78014 19.5899 9.12014 19.7699 9.43014 19.8899C9.21014 20.1099 9.00014 20.3899 8.79014 20.7299H8.81014L8.83014 20.7499L8.85014 20.7599H8.87014V20.7699H8.89014L8.90014 20.7899L8.92014 20.8099H8.93014V20.8199H8.95014L8.96014 20.8399L8.98014 20.8599L8.99014 20.8699H9.01014V20.8899H9.02014L9.04014 20.9099L9.05014 20.9199H9.07014V20.9299H9.09014L9.11014 20.9499L9.13014 20.9599H9.15014V20.9699H9.17014L9.19014 20.9899L9.21014 20.9999H9.22014V21.0099H9.24014L9.25014 21.0299L9.27014 21.0399H9.28014H9.30014V21.0499L9.32014 21.0599H9.33014H9.35014V21.0699H9.36014L9.38014 21.0899H9.39014H9.41014H9.43014L9.45014 21.1099H9.47014H9.49014H9.51014L9.52014 21.1199H9.54014H9.55014H9.57014L9.58014 21.1299L9.60014 21.1399H9.62014V21.1499L9.64014 21.1599H9.65014H9.67014H9.68014L9.70014 21.1699H9.71014H9.73014H9.75014L9.77014 21.1799H9.79014H9.80014H9.82014C9.63014 21.5199 9.50014 21.9199 9.43014 22.3799C10.2501 22.3699 10.9001 22.2099 11.3001 21.9199C11.2901 22.3799 11.4001 22.8599 11.6101 23.2999C12.2101 22.8899 12.6801 22.4899 12.9401 22.0999C13.1601 22.7199 13.8401 23.3399 14.8001 23.9999C14.9601 23.6599 15.0701 23.3099 15.1301 22.9499C15.4401 22.8999 15.7001 22.8299 15.9201 22.7199C15.9201 22.8099 15.9201 22.9099 15.9201 22.9999C16.7301 22.9899 17.3601 22.8299 17.7101 22.5399C17.7801 22.9999 17.9801 23.4799 18.2601 23.9199C18.6901 23.5899 19.0401 23.2599 19.2601 22.9399C19.7201 22.8699 20.0901 22.7299 20.3301 22.5399C20.4001 22.9999 20.5901 23.4799 20.8801 23.9199C21.1801 23.6899 21.4301 23.4599 21.6401 23.2399C21.8401 23.4599 22.1001 23.6899 22.4001 23.9199C22.6801 23.4799 22.8801 22.9999 22.9501 22.5399C23.2601 22.7999 23.8001 22.9499 24.4901 22.9899C24.7301 23.4199 25.0801 23.8199 25.4801 24.1399C25.9701 23.2599 26.2901 22.4999 26.3101 21.8899C26.5301 22.3399 27.0501 22.8099 27.7601 23.2899C27.9701 22.8499 28.0801 22.3699 28.0701 21.9099C28.3601 22.1199 28.7701 22.2599 29.2901 22.3199C29.2901 22.8799 29.4201 23.4599 29.6701 23.9899C30.6301 23.3299 31.3101 22.6999 31.5301 22.0899C31.7901 22.4799 32.2601 22.8799 32.8601 23.2899C33.0701 22.8499 33.1801 22.3699 33.1701 21.9099C33.5701 22.1999 34.2201 22.3599 35.0401 22.3699C34.9701 21.9199 34.8501 21.5299 34.6601 21.1999H34.6801H34.6901H34.7101H34.7201H34.7401H34.7501L34.7701 21.1899H34.7801H34.8001H34.8101L34.8301 21.1799H34.8501H34.8701H34.8901L34.9101 21.1699H34.9301H34.9501L34.9701 21.1599H34.9901H35.0101L35.0301 21.1399H35.0501H35.0701H35.0901L35.1101 21.1199L35.1301 21.1099H35.1401H35.1601L35.1701 21.0899L35.1901 21.0799H35.2001H35.2201L35.2301 21.0599L35.2501 21.0499H35.2601H35.2801L35.2901 21.0299L35.3101 21.0199H35.3201V21.0099H35.3401V20.9899L35.3601 20.9699L35.3701 20.9599H35.3901V20.9399H35.4001L35.4201 20.9199L35.4301 20.9099H35.4501V20.8899H35.4601L35.4801 20.8699L35.4901 20.8599H35.5101V20.8499H35.5301L35.5501 20.8299L35.5701 20.8199H35.5901V20.8099H35.6101L35.6301 20.7899L35.6501 20.7799H35.6701V20.7699H35.6901L35.7101 20.7399L35.7301 20.7299H35.7501C35.5401 20.3799 35.3301 20.0999 35.1101 19.8799C35.4201 19.7599 35.7601 19.5799 36.1501 19.3399C35.6701 18.5699 35.1701 18.1199 34.6901 17.8999C35.1801 17.7599 35.7401 17.4799 36.4001 17.0699C35.7201 15.9699 35.0001 15.3699 34.3101 15.1399L34.8401 15.3099ZM16.8001 21.6699V21.6399H16.8301L16.8001 21.6699ZM18.3301 21.7099C18.3301 21.7099 18.3101 21.6599 18.3001 21.6399H18.3801C18.3801 21.6399 18.3501 21.6799 18.3301 21.7099ZM20.9401 21.7099C20.9401 21.7099 20.9201 21.6599 20.9101 21.6399H20.9901C20.9901 21.6399 20.9601 21.6799 20.9401 21.7099ZM23.1501 21.7099C23.1501 21.7099 23.1201 21.6599 23.1001 21.6399H23.1801C23.1801 21.6399 23.1601 21.6899 23.1501 21.7099Z" fill="#BACD3F"/>
<path fill-rule="evenodd" clip-rule="evenodd" d="M23.11 11.4795H23.04C23.04 11.4795 23.07 11.5195 23.08 11.5495C23.08 11.5295 23.1 11.5095 23.11 11.4795Z" fill="#A9BC30"/>
<path fill-rule="evenodd" clip-rule="evenodd" d="M21.1901 11.4795H21.1201C21.1201 11.4795 21.1401 11.5295 21.1501 11.5495C21.1601 11.5295 21.1801 11.4995 21.1901 11.4795Z" fill="#A9BC30"/>
<path fill-rule="evenodd" clip-rule="evenodd" d="M34.8401 15.31C35.3401 15.14 35.9001 14.86 36.5601 14.45C35.6601 13.07 34.7201 12.44 33.8401 12.33C33.8601 12.44 33.8801 12.55 33.8901 12.67C33.1801 12.66 32.6101 12.5 32.2601 12.21C32.2601 12.67 32.1701 13.15 31.9901 13.59C31.4601 13.18 31.0601 12.78 30.8301 12.39C30.6401 13.01 30.0501 13.63 29.2101 14.29C28.9901 13.76 28.8701 13.17 28.8701 12.62C28.4201 12.55 28.0601 12.41 27.8101 12.21C27.8101 12.67 27.7201 13.15 27.5401 13.59C26.9301 13.11 26.4701 12.65 26.2801 12.19C26.2601 12.8 25.9801 13.56 25.5501 14.44C25.2001 14.12 24.8901 13.72 24.6801 13.29C24.0701 13.25 23.6101 13.1 23.3301 12.84C23.2701 13.3 23.1001 13.78 22.8501 14.22C22.5901 13.99 22.3701 13.76 22.1901 13.54C22.0101 13.76 21.7901 13.99 21.5301 14.22C21.2801 13.78 21.1101 13.3 21.0501 12.84C20.8401 13.04 20.5201 13.17 20.1201 13.24C19.9301 13.56 19.6301 13.89 19.2501 14.22C19.0001 13.78 18.8301 13.3 18.7701 12.84C18.4601 13.13 17.9201 13.29 17.2101 13.3C17.2101 13.2 17.2101 13.11 17.2101 13.02C17.0201 13.12 16.7901 13.2 16.5201 13.25C16.4701 13.61 16.3701 13.96 16.2301 14.3C15.3901 13.64 14.8001 13.02 14.6101 12.4C14.3801 12.79 13.9801 13.19 13.4501 13.6C13.2701 13.16 13.1701 12.68 13.1801 12.22C12.8301 12.51 12.2601 12.67 11.5501 12.68C11.6101 12.22 11.7201 11.83 11.8901 11.49H11.8801H11.8701L11.8601 11.48H11.8501H11.8401H11.8301L11.8201 11.47H11.8101H11.8001H11.7901V11.46H11.7801H11.7701V11.45L11.7601 11.44H11.7501H11.7401L11.7201 11.43H11.7101H11.6901H11.6801L11.6601 11.41H11.6401L11.6301 11.39L11.6101 11.38H11.6001H11.5801L11.5701 11.37L11.5501 11.36H11.5301V11.35L11.5101 11.34H11.4901V11.33H11.4801L11.4601 11.31L11.4501 11.3H11.4301V11.29H11.4201L11.4001 11.27L11.3801 11.26H11.3601V11.25H11.3401L11.3301 11.23L11.3101 11.22H11.3001V11.21H11.2801L11.2701 11.19L11.2501 11.17V11.16H11.2301V11.14L11.2101 11.12L11.2001 11.11H11.1801V11.09H11.1701L11.1501 11.07L11.1401 11.06H11.1201V11.05H11.1001L11.0801 11.02C11.2601 10.68 11.4501 10.41 11.6401 10.18C11.4301 10.09 11.2101 9.96004 10.9601 9.79004C10.5501 9.96004 10.1201 10.19 9.66009 10.48C10.4401 11.71 11.1201 12.47 11.8101 12.85C11.0801 13.05 10.3201 13.66 9.59009 14.82C9.79009 14.94 9.97009 15.05 10.1501 15.15H10.1601H10.1701L10.1801 15.16H10.1901H10.2001H10.2101V15.17H10.2201H10.2301H10.2401H10.2501V15.18L10.2601 15.19H10.2801V15.2H10.2901L10.3001 15.21H10.3101H10.3201H10.3301V15.22H10.3401H10.3501H10.3601H10.3701H10.3801H10.3901H10.4001H10.4101H10.4201H10.4301L10.4501 15.23H10.4601H10.4701H10.4801H10.4901H10.5001H10.5101H10.5201H10.5301H10.5401H10.5501H10.5601H10.5701H10.5801H10.5901C9.85009 15.42 9.08009 16.03 8.34009 17.22C9.00009 17.63 9.57009 17.91 10.0501 18.05C9.56009 18.27 9.07009 18.72 8.59009 19.49C8.98009 19.73 9.32009 19.91 9.63009 20.03C9.41009 20.25 9.20009 20.53 8.99009 20.87H9.01009L9.03009 20.89L9.05009 20.9H9.07009V20.91H9.09009L9.10009 20.93L9.12009 20.95H9.13009V20.96H9.15009L9.16009 20.98L9.18009 21L9.19009 21.01H9.21009V21.03H9.22009L9.24009 21.05L9.25009 21.06H9.27009V21.07H9.29009L9.31009 21.09L9.33009 21.1H9.35009V21.11H9.37009L9.39009 21.13L9.41009 21.14H9.42009V21.15H9.44009L9.45009 21.17L9.47009 21.18H9.48009H9.50009V21.19L9.52009 21.2H9.53009H9.55009V21.21H9.56009L9.58009 21.23H9.59009H9.61009H9.63009L9.65009 21.25H9.67009H9.69009H9.71009L9.72009 21.26H9.74009H9.75009H9.77009L9.78009 21.27L9.80009 21.28H9.82009V21.29L9.84009 21.3H9.85009H9.87009H9.88009L9.90009 21.31H9.91009H9.93009H9.95009L9.97009 21.32H9.99009H10.0001H10.0201C9.83009 21.66 9.70009 22.06 9.63009 22.52C10.4501 22.51 11.1001 22.35 11.5001 22.06C11.4901 22.52 11.6001 23 11.8101 23.44C12.4101 23.03 12.8801 22.63 13.1401 22.24C13.3601 22.86 14.0401 23.48 15.0001 24.14C15.1601 23.8 15.2701 23.45 15.3301 23.09C15.6401 23.04 15.9001 22.97 16.1201 22.86C16.1201 22.95 16.1201 23.05 16.1201 23.14C16.9301 23.13 17.5601 22.97 17.9101 22.68C17.9801 23.14 18.1801 23.62 18.4601 24.06C18.8901 23.73 19.2401 23.4 19.4601 23.08C19.9201 23.01 20.2901 22.87 20.5301 22.68C20.6001 23.14 20.7901 23.62 21.0801 24.06C21.3801 23.83 21.6301 23.6 21.8401 23.38C22.0401 23.6 22.3001 23.83 22.6001 24.06C22.8801 23.62 23.0801 23.14 23.1501 22.68C23.4601 22.94 24.0001 23.09 24.6901 23.13C24.9301 23.56 25.2801 23.96 25.6801 24.28C26.1701 23.4 26.4901 22.64 26.5101 22.03C26.7301 22.48 27.2501 22.95 27.9601 23.43C28.1701 22.99 28.2801 22.51 28.2701 22.05C28.5601 22.26 28.9701 22.4 29.4901 22.46C29.4901 23.02 29.6201 23.6 29.8701 24.13C30.8301 23.47 31.5101 22.84 31.7301 22.23C31.9901 22.62 32.4601 23.02 33.0601 23.43C33.2701 22.99 33.3801 22.51 33.3701 22.05C33.7701 22.34 34.4201 22.5 35.2401 22.51C35.1701 22.06 35.0501 21.67 34.8601 21.34H34.8801H34.8901H34.9101H34.9201H34.9401H34.9501L34.9701 21.33H34.9801H35.0001H35.0101L35.0301 21.32H35.0501H35.0701H35.0901L35.1101 21.31H35.1301H35.1501L35.1701 21.3H35.1901H35.2101L35.2301 21.28H35.2501H35.2701H35.2901L35.3101 21.26L35.3301 21.25H35.3401H35.3601L35.3701 21.23L35.3901 21.22H35.4001H35.4201L35.4301 21.2L35.4501 21.19H35.4601H35.4801L35.4901 21.17L35.5101 21.16H35.5201V21.15H35.5401V21.13L35.5601 21.11L35.5701 21.1H35.5901V21.08H35.6001L35.6201 21.06L35.6301 21.05H35.6501V21.03H35.6601L35.6801 21.01L35.6901 21H35.7101V20.99H35.7301L35.7501 20.97L35.7701 20.96H35.7901V20.95H35.8101L35.8301 20.93L35.8501 20.92H35.8701V20.91H35.8901L35.9101 20.88L35.9301 20.87H35.9501C35.7401 20.52 35.5301 20.24 35.3101 20.02C35.6201 19.9 35.9601 19.72 36.3501 19.48C35.8701 18.71 35.3701 18.26 34.8901 18.04C35.3801 17.9 35.9401 17.62 36.6001 17.21C35.9201 16.11 35.2001 15.51 34.5101 15.28L34.8401 15.31ZM16.8001 21.67V21.64H16.8301L16.8001 21.67ZM18.3301 21.71C18.3301 21.71 18.3101 21.66 18.3001 21.64H18.3801C18.3801 21.64 18.3501 21.68 18.3301 21.71ZM20.9401 21.71C20.9401 21.71 20.9201 21.66 20.9101 21.64H20.9901C20.9901 21.64 20.9601 21.68 20.9401 21.71ZM23.1501 21.71C23.1501 21.71 23.1201 21.66 23.1001 21.64H23.1801C23.1801 21.64 23.1601 21.69 23.1501 21.71Z" fill="#A9BC30"/>
<path fill-rule="evenodd" clip-rule="evenodd" d="M17.57 11.4795H17.53L17.54 11.5095L17.57 11.4795Z" fill="#A9BC30"/>
<path fill-rule="evenodd" clip-rule="evenodd" d="M18.9201 11.4795H18.8501C18.8501 11.4795 18.8701 11.5295 18.8801 11.5495C18.8901 11.5295 18.9101 11.4995 18.9201 11.4795Z" fill="#A9BC30"/>
<path fill-rule="evenodd" clip-rule="evenodd" d="M20.9801 16.3398H20.9001C20.9001 16.3398 20.9201 16.3898 20.9301 16.4098C20.9401 16.3898 20.9601 16.3598 20.9801 16.3398Z" fill="#91A129"/>
<path fill-rule="evenodd" clip-rule="evenodd" d="M35.8 15.8799L35.78 15.8999L35.77 15.9099H35.75V15.9199H35.74L35.72 15.9399L35.71 15.9499H35.69V15.9599H35.68L35.66 15.9799H35.65H35.63V15.9899H35.62L35.6 16.0099H35.59H35.57V16.0199H35.55L35.53 16.0399H35.51H35.49H35.47L35.45 16.0599H35.43H35.41L35.39 16.0699H35.37H35.35L35.33 16.0799H35.31H35.29H35.27L35.26 16.0899H35.24H35.23H35.21L35.2 16.0999H35.18H35.17H35.15H35.14H35.12C35.31 16.4299 35.43 16.8299 35.5 17.2699C34.68 17.2599 34.03 17.0999 33.63 16.8099C33.64 17.2699 33.53 17.7499 33.32 18.1899C32.72 17.7799 32.25 17.3799 31.99 16.9899C31.77 17.6099 31.09 18.2299 30.13 18.8899C29.88 18.3599 29.74 17.7699 29.75 17.2199C29.24 17.1499 28.82 17.0099 28.53 16.8099C28.54 17.2699 28.43 17.7499 28.22 18.1899C27.52 17.7099 27 17.2499 26.77 16.7899C26.74 17.3999 26.43 18.1599 25.94 19.0399C25.54 18.7199 25.19 18.3199 24.95 17.8899C24.26 17.8499 23.72 17.6999 23.41 17.4399C23.34 17.8999 23.14 18.3799 22.86 18.8199C22.56 18.5899 22.31 18.3599 22.1 18.1399C21.9 18.3599 21.64 18.5899 21.34 18.8199C21.06 18.3799 20.86 17.8999 20.79 17.4399C20.55 17.6399 20.19 17.7699 19.72 17.8399C19.5 18.1599 19.16 18.4899 18.72 18.8199C18.44 18.3799 18.24 17.8999 18.17 17.4399C17.82 17.7299 17.2 17.8899 16.38 17.8999C16.38 17.7999 16.38 17.7099 16.38 17.6199C16.17 17.7199 15.9 17.7999 15.59 17.8499C15.53 18.2099 15.41 18.5599 15.26 18.8999C14.3 18.2399 13.62 17.6199 13.4 16.9999C13.14 17.3899 12.67 17.7899 12.07 18.1999C11.86 17.7599 11.75 17.2799 11.76 16.8199C11.36 17.1099 10.71 17.2699 9.89004 17.2799C9.96004 16.8199 10.08 16.4299 10.28 16.0899H10.26H10.25L10.23 16.0799H10.21H10.19H10.17L10.16 16.0699H10.14H10.13H10.11L10.1 16.0599H10.08H10.06V16.0499L10.04 16.0399H10.03H10.01H10L9.98004 16.0299H9.97004H9.95004H9.93004L9.91004 16.0099H9.89004H9.87004H9.85004L9.84004 15.9899L9.82004 15.9799H9.81004H9.79004L9.78004 15.9699L9.76004 15.9599H9.74004V15.9499H9.73004L9.71004 15.9299H9.70004H9.68004V15.9199H9.67004C9.29004 16.2399 8.91004 16.6899 8.54004 17.2799C9.20004 17.6899 9.77004 17.9699 10.25 18.1099C9.76004 18.3299 9.27004 18.7799 8.79004 19.5499C9.18004 19.7899 9.52004 19.9699 9.83004 20.0899C9.61004 20.3099 9.40004 20.5899 9.19004 20.9299H9.21004L9.23004 20.9499L9.25004 20.9599H9.27004V20.9699H9.29004L9.30004 20.9899L9.32004 21.0099H9.33004V21.0199H9.35004L9.36004 21.0399L9.38004 21.0599L9.39004 21.0699H9.41004V21.0899H9.42004L9.44004 21.1099L9.45004 21.1199H9.47004V21.1299H9.49004L9.51004 21.1499L9.53004 21.1599H9.55004V21.1699H9.57004L9.59004 21.1899L9.61004 21.1999H9.62004V21.2099H9.64004L9.65004 21.2299L9.67004 21.2399H9.68004H9.70004V21.2499L9.72004 21.2599H9.73004H9.75004V21.2699H9.76004L9.78004 21.2899H9.79004H9.81004H9.83004L9.85004 21.3099H9.87004H9.89004H9.91004L9.92004 21.3199H9.94004H9.95004H9.97004L9.98004 21.3299L10 21.3399H10.02V21.3499L10.04 21.3599H10.05H10.07H10.08L10.1 21.3699H10.11H10.13H10.15L10.17 21.3799H10.19H10.2H10.22C10.03 21.7199 9.90004 22.1199 9.83004 22.5799C10.65 22.5699 11.3 22.4099 11.7 22.1199C11.69 22.5799 11.8 23.0599 12.01 23.4999C12.61 23.0899 13.08 22.6899 13.34 22.2999C13.56 22.9199 14.24 23.5399 15.2 24.1999C15.36 23.8599 15.47 23.5099 15.53 23.1499C15.84 23.0999 16.1 23.0299 16.32 22.9199C16.32 23.0099 16.32 23.1099 16.32 23.1999C17.13 23.1899 17.76 23.0299 18.11 22.7399C18.18 23.1999 18.38 23.6799 18.66 24.1199C19.09 23.7899 19.44 23.4599 19.66 23.1399C20.12 23.0699 20.49 22.9299 20.73 22.7399C20.8 23.1999 20.99 23.6799 21.28 24.1199C21.58 23.8899 21.83 23.6599 22.04 23.4399C22.24 23.6599 22.5 23.8899 22.8 24.1199C23.08 23.6799 23.28 23.1999 23.35 22.7399C23.66 22.9999 24.2 23.1499 24.89 23.1899C25.13 23.6199 25.48 24.0199 25.88 24.3399C26.37 23.4599 26.69 22.6999 26.71 22.0899C26.93 22.5399 27.45 23.0099 28.16 23.4899C28.37 23.0499 28.48 22.5699 28.47 22.1099C28.76 22.3199 29.17 22.4599 29.69 22.5199C29.69 23.0799 29.82 23.6599 30.07 24.1899C31.03 23.5299 31.71 22.8999 31.93 22.2899C32.19 22.6799 32.66 23.0799 33.26 23.4899C33.47 23.0499 33.58 22.5699 33.57 22.1099C33.97 22.3999 34.62 22.5599 35.44 22.5699C35.37 22.1199 35.25 21.7299 35.06 21.3999H35.08H35.09H35.11H35.12H35.14H35.15L35.17 21.3899H35.18H35.2H35.21L35.23 21.3799H35.25H35.27H35.29L35.31 21.3699H35.33H35.35L35.37 21.3599H35.39H35.41L35.43 21.3399H35.45H35.47H35.49L35.51 21.3199L35.53 21.3099H35.54H35.56L35.57 21.2899L35.59 21.2799H35.6H35.62L35.63 21.2599L35.65 21.2499H35.66H35.68L35.69 21.2299L35.71 21.2199H35.72V21.2099H35.74V21.1899L35.76 21.1699L35.77 21.1599H35.79V21.1399H35.8L35.82 21.1199L35.83 21.1099H35.85V21.0899H35.86L35.88 21.0699L35.89 21.0599H35.91V21.0499H35.93L35.95 21.0299L35.97 21.0199H35.99V21.0099H36.01L36.03 20.9899L36.05 20.9799H36.07V20.9699H36.09L36.11 20.9399L36.13 20.9299H36.15C35.94 20.5799 35.73 20.2999 35.51 20.0799C35.82 19.9599 36.16 19.7799 36.55 19.5399C36.07 18.7699 35.57 18.3199 35.09 18.0999C35.58 17.9599 36.14 17.6799 36.8 17.2699C36.43 16.6799 36.05 16.2299 35.67 15.8999L35.8 15.8799ZM16.8 21.6699V21.6399H16.83L16.8 21.6699ZM18.33 21.7099C18.33 21.7099 18.31 21.6599 18.3 21.6399H18.38C18.38 21.6399 18.35 21.6799 18.33 21.7099ZM20.94 21.7099C20.94 21.7099 20.92 21.6599 20.91 21.6399H20.99C20.99 21.6399 20.96 21.6799 20.94 21.7099ZM23.15 21.7099C23.15 21.7099 23.12 21.6599 23.1 21.6399H23.18C23.18 21.6399 23.16 21.6899 23.15 21.7099Z" fill="#91A129"/>
<path fill-rule="evenodd" clip-rule="evenodd" d="M23.1701 16.3398H23.0901C23.0901 16.3398 23.1201 16.3798 23.1401 16.4098C23.1401 16.3898 23.1601 16.3698 23.1701 16.3398Z" fill="#91A129"/>
<path fill-rule="evenodd" clip-rule="evenodd" d="M16.82 16.3398H16.78L16.8 16.3698L16.82 16.3398Z" fill="#91A129"/>
<path fill-rule="evenodd" clip-rule="evenodd" d="M18.37 16.3398H18.29C18.29 16.3398 18.31 16.3898 18.32 16.4098C18.33 16.3898 18.35 16.3598 18.37 16.3398Z" fill="#91A129"/>
</g>
</svg>
