<svg width="24" height="24" viewBox="0 0 24 24" fill="none" xmlns="http://www.w3.org/2000/svg">
<mask id="mask0_44_148552" style="mask-type:luminance" maskUnits="userSpaceOnUse" x="0" y="0" width="24" height="24">
<path d="M24 0H0V24H24V0Z" fill="white"/>
</mask>
<g mask="url(#mask0_44_148552)">
<path fill-rule="evenodd" clip-rule="evenodd" d="M45.5926 20.033C45.5251 20.033 45.4576 20.033 45.3976 20.0405C45.7126 19.523 45.8926 18.9155 45.8926 18.2705C45.8926 16.928 45.1201 15.773 44.0026 15.2105C44.0326 15.008 44.0476 14.798 44.0476 14.5805C44.0476 14.2655 44.0101 13.9655 43.9501 13.673C44.7526 12.818 45.2401 11.6705 45.2401 10.4105C45.2401 7.77055 43.1026 5.64055 40.4701 5.64055C39.4201 5.64055 38.4451 5.98555 37.6501 6.56305C36.8551 4.74055 35.0401 3.47305 32.9251 3.47305C32.8651 3.47305 32.8126 3.47305 32.7526 3.47305C32.8651 3.21055 32.9251 2.92555 32.9251 2.63305C32.9251 1.41805 31.9426 0.435547 30.7276 0.435547C29.5126 0.435547 28.5451 1.40305 28.5301 2.60305C27.3826 1.40305 25.7626 0.653047 23.9701 0.653047C21.7051 0.653047 19.7176 1.85305 18.6076 3.65305C17.7301 2.73805 16.4926 2.16805 15.1276 2.16805C13.5751 2.16805 12.1876 2.90305 11.3026 4.05055C11.1526 4.02805 10.9951 4.01305 10.8376 4.01305C9.51008 4.01305 8.37758 4.86805 7.96508 6.05305C5.76758 6.48055 4.11008 8.41555 4.11008 10.7405C4.11008 11.738 4.41758 12.6605 4.93508 13.4255C3.91508 13.6505 3.15758 14.5655 3.15758 15.6455C3.15758 16.028 3.24758 16.388 3.41258 16.6955C3.21008 17.153 3.10508 17.663 3.10508 18.1955C3.10508 18.728 3.21008 19.2155 3.40508 19.673C2.95508 20.108 2.67008 20.7155 2.67008 21.398C2.67008 21.458 2.67008 21.518 2.67008 21.578C2.38508 21.233 1.96508 21.0155 1.48508 21.0155C0.637578 21.0155 -0.0449219 21.698 -0.0449219 22.5455C-0.0449219 23.228 0.405078 23.813 1.02758 24.008H1.95758C2.00258 23.993 2.04008 23.978 2.08508 23.963V24.008H47.3626C47.7376 23.588 47.9626 23.033 47.9626 22.4255C47.9626 21.1055 46.8976 20.0405 45.5776 20.0405L45.5926 20.033Z" fill="#89BC31"/>
<path fill-rule="evenodd" clip-rule="evenodd" d="M40.4624 5.63273C39.4124 5.63273 38.4374 5.97773 37.6424 6.55523C36.8474 4.73273 35.0324 3.46523 32.9174 3.46523C32.8574 3.46523 32.8049 3.46523 32.7524 3.46523C32.8574 3.20273 32.9174 2.91773 32.9174 2.62523C32.9174 1.41023 31.9349 0.427734 30.7199 0.427734C29.5049 0.427734 28.5374 1.39523 28.5224 2.59523C27.3749 1.39523 25.7624 0.645234 23.9624 0.645234C21.6974 0.645234 19.7099 1.84523 18.5999 3.64523C17.7224 2.73023 16.4849 2.16023 15.1199 2.16023C13.5674 2.16023 12.1799 2.89523 11.2949 4.03523C11.1449 4.01273 10.9874 3.99773 10.8299 3.99773C9.50244 3.99773 8.36994 4.85273 7.95744 6.03773C6.50244 6.32273 5.28744 7.26023 4.62744 8.53523C5.28744 9.81023 6.50244 10.7477 7.94994 11.0327C8.36244 12.2177 9.48744 13.0727 10.8224 13.0727C10.9799 13.0727 11.1374 13.0577 11.2874 13.0352C12.1724 14.1752 13.5524 14.9177 15.1124 14.9177C16.4774 14.9177 17.7149 14.3477 18.5924 13.4402C19.7024 15.2402 21.6899 16.4402 23.9549 16.4402C25.7474 16.4402 27.3674 15.6902 28.5149 14.4902C28.5299 15.6902 29.5049 16.6577 30.7124 16.6577C31.9199 16.6577 32.9099 15.6752 32.9099 14.4602C32.9099 14.1602 32.8499 13.8752 32.7449 13.6127C32.8049 13.6127 32.8574 13.6127 32.9099 13.6127C35.0249 13.6127 36.8399 12.3452 37.6349 10.5227C38.4224 11.1002 39.3974 11.4452 40.4549 11.4452C42.4349 11.4452 44.1299 10.2452 44.8499 8.53523C44.1224 6.82523 42.4274 5.62523 40.4549 5.62523L40.4624 5.63273Z" fill="#98CD40"/>
<path fill-rule="evenodd" clip-rule="evenodd" d="M46.0275 20.0705C45.57 20.918 44.67 21.4955 43.6425 21.4955C43.005 21.4955 42.42 21.278 41.955 20.9105C41.3175 21.443 40.5 21.7655 39.6 21.7655C38.5125 21.7655 37.5375 21.293 36.87 20.543C36.48 20.8355 36 21.008 35.4825 21.008C34.8675 21.008 34.305 20.768 33.8925 20.378C33.57 20.5055 33.2175 20.5805 32.85 20.5805C32.385 20.5805 31.95 20.468 31.5675 20.273C31.0725 20.8205 30.36 21.173 29.565 21.173C28.2 21.173 27.0675 20.153 26.895 18.833C26.3925 19.658 25.4775 20.2055 24.4425 20.2055C23.7975 20.2055 23.205 19.9955 22.725 19.6355C22.35 20.783 21.27 21.6155 19.995 21.6155C18.72 21.6155 17.64 20.7905 17.265 19.643C16.8975 19.793 16.4925 19.883 16.065 19.883C15.8325 19.883 15.6075 19.8605 15.39 19.808C15.0675 20.618 14.2725 21.1805 13.35 21.1805C13.0875 21.1805 12.8325 21.1355 12.5925 21.0455C11.9175 21.9455 10.845 22.5305 9.63004 22.5305C7.63504 22.5305 6.00754 20.9405 5.94754 18.9605C5.52004 19.2005 5.03254 19.3355 4.50754 19.3355C4.04254 19.3355 3.60754 19.2305 3.21754 19.043C3.27004 19.2605 3.33754 19.4705 3.42004 19.673C2.97004 20.108 2.68504 20.7155 2.68504 21.398V21.578C2.40754 21.233 1.98754 21.0155 1.50754 21.0155C0.660039 21.0155 -0.0224609 21.698 -0.0224609 22.5455C-0.0224609 23.228 0.427539 23.813 1.05004 24.008H1.98004L2.10754 23.963V24.008H47.385C47.76 23.588 47.985 23.033 47.985 22.4255C47.985 21.2555 47.145 20.2805 46.035 20.078L46.0275 20.0705Z" fill="#76A12A"/>
</g>
</svg>
