<svg width="24" height="24" viewBox="0 0 24 24" fill="none" xmlns="http://www.w3.org/2000/svg">
<g clip-path="url(#clip0_44_146930)">
<path fill-rule="evenodd" clip-rule="evenodd" d="M0 17.3828C3.04688 17.3828 4.39063 16.1641 7.4375 16.1641C9.08594 16.1641 11.3047 17.5156 13.2031 17.3828C15 17.2578 17.4844 16.2266 18.7969 16.2344C20.8516 16.2578 20.4219 17.3828 24.0078 17.3828V0H0V17.3828Z" fill="#5E3518"/>
<path fill-rule="evenodd" clip-rule="evenodd" d="M0 16.0156C3.04688 16.0156 2.80469 14.2422 5.85156 14.2422C7.49219 14.2422 11.3047 16.3906 13.2031 16.2656C15 16.1406 18.7187 15.0703 20.0312 15.0859C22.0859 15.1016 20.4219 16.0234 24.0078 16.0234V0H0V16.0156Z" fill="#7B4720"/>
<path fill-rule="evenodd" clip-rule="evenodd" d="M0 8.57812C2.17969 8.22656 1.96875 9.55469 3.1875 9.60156C4.39844 9.64844 5 8.25781 5.92187 8.1875C6.84375 8.11719 6.57031 8.38281 7.26563 9.00781C7.96875 9.63281 9.24219 10.9922 10.25 10.4609C11.2656 9.9375 11.5312 9.40625 12.75 10.3984C15.3437 12.5234 16.3672 3.94531 18.8516 9.05469C19.1172 9.60938 21.6094 10.8984 22.1406 9.84375C22.6719 8.78906 23.0469 8.88281 23.9922 8.5625V0H0V8.57812Z" fill="#AB6C48"/>
<path fill-rule="evenodd" clip-rule="evenodd" d="M22.1484 6.24184C21.6172 7.29653 19.125 5.99966 18.8594 5.45278C16.375 0.343405 15.3516 8.92153 12.7578 6.79653C11.5391 5.79653 11.2656 6.32778 10.2578 6.85903C9.24219 7.38247 7.97656 6.03091 7.27344 5.40591C6.57031 4.78091 6.84375 4.51528 5.92969 4.58559C5.00781 4.6559 4.40625 6.04653 3.19531 5.99965C1.98437 5.95278 2.1875 4.62465 0.0078125 4.97622V10.5075C0.96875 10.5075 1.32813 10.6793 1.85938 11.734C2.39063 12.7887 4.88281 11.4918 5.14844 10.945C7.63281 5.83559 8.65625 14.4137 11.25 12.2887C12.4687 11.2887 12.7422 11.82 13.75 12.3512C14.7656 12.8747 16.0312 11.5231 16.7344 10.8981C17.4375 10.2731 17.1641 10.0075 18.0781 10.0778C19 10.1481 19.6016 11.5387 20.8125 11.4918C22.0234 11.445 21.8203 10.6168 24 10.5153V5.03091C23.0391 5.03091 22.6797 5.20278 22.1484 6.25747V6.24184Z" fill="#8F5833"/>
<path d="M3.35938 11.3828C3.95049 11.3828 4.42969 10.9036 4.42969 10.3125C4.42969 9.72138 3.95049 9.24219 3.35938 9.24219C2.76826 9.24219 2.28906 9.72138 2.28906 10.3125C2.28906 10.9036 2.76826 11.3828 3.35938 11.3828Z" fill="#7B4720"/>
<path fill-rule="evenodd" clip-rule="evenodd" d="M1.49219 7.9375C1.21875 7.9375 0.992188 8.16406 0.992188 8.4375C0.992188 8.71094 1.21875 8.9375 1.49219 8.9375C1.76562 8.9375 1.99219 8.71094 1.99219 8.4375C1.99219 8.16406 1.76562 7.9375 1.49219 7.9375Z" fill="#7B4720"/>
<path fill-rule="evenodd" clip-rule="evenodd" d="M6.875 6.64844C6.59375 6.64844 6.35938 6.875 6.35938 7.16406C6.35938 7.45312 6.58594 7.67969 6.875 7.67969C7.16406 7.67969 7.39062 7.45312 7.39062 7.16406C7.39062 6.875 7.16406 6.64844 6.875 6.64844Z" fill="#7B4720"/>
<path fill-rule="evenodd" clip-rule="evenodd" d="M9.80469 9.47656C9.33594 9.47656 8.95312 9.85938 8.95312 10.3281C8.95312 10.7969 9.33594 11.1797 9.80469 11.1797C10.2734 11.1797 10.6563 10.7969 10.6563 10.3281C10.6563 9.85938 10.2734 9.47656 9.80469 9.47656Z" fill="#7B4720"/>
<path fill-rule="evenodd" clip-rule="evenodd" d="M14.2422 9.91406C13.7266 9.91406 13.3047 10.3359 13.3047 10.8516C13.3047 11.3672 13.7266 11.7891 14.2422 11.7891C14.7578 11.7891 15.1797 11.3672 15.1797 10.8516C15.1797 10.3359 14.7578 9.91406 14.2422 9.91406Z" fill="#7B4720"/>
<path fill-rule="evenodd" clip-rule="evenodd" d="M13.3359 8.21094C13.125 8.21094 12.9609 8.38281 12.9609 8.58594C12.9609 8.78906 13.1328 8.96094 13.3359 8.96094C13.5391 8.96094 13.7109 8.78906 13.7109 8.58594C13.7109 8.38281 13.5391 8.21094 13.3359 8.21094Z" fill="#7B4720"/>
<path fill-rule="evenodd" clip-rule="evenodd" d="M18.2656 7.84375C17.9766 7.84375 17.7422 8.07813 17.7422 8.36719C17.7422 8.65625 17.9766 8.89063 18.2656 8.89063C18.5547 8.89063 18.7891 8.65625 18.7891 8.36719C18.7891 8.07813 18.5547 7.84375 18.2656 7.84375Z" fill="#7B4720"/>
<path fill-rule="evenodd" clip-rule="evenodd" d="M16.3125 7.08594C15.8906 7.08594 15.5469 7.42969 15.5469 7.85156C15.5469 8.27344 15.8906 8.61719 16.3125 8.61719C16.7344 8.61719 17.0781 8.27344 17.0781 7.85156C17.0781 7.42969 16.7344 7.08594 16.3125 7.08594Z" fill="#7B4720"/>
<path fill-rule="evenodd" clip-rule="evenodd" d="M20.8672 9.34375C20.5234 9.34375 20.2422 9.625 20.2422 9.96875C20.2422 10.3125 20.5234 10.5938 20.8672 10.5938C21.2109 10.5938 21.4922 10.3125 21.4922 9.96875C21.4922 9.625 21.2109 9.34375 20.8672 9.34375Z" fill="#7B4720"/>
<path d="M21.6719 8.64844C21.8315 8.64844 21.9609 8.51902 21.9609 8.35937C21.9609 8.19973 21.8315 8.07031 21.6719 8.07031C21.5122 8.07031 21.3828 8.19973 21.3828 8.35937C21.3828 8.51902 21.5122 8.64844 21.6719 8.64844Z" fill="#7B4720"/>
<path fill-rule="evenodd" clip-rule="evenodd" d="M1.01562 12.1172C0.773437 12.1172 0.578125 12.3125 0.578125 12.5547C0.578125 12.7969 0.773437 12.9922 1.01562 12.9922C1.25781 12.9922 1.45313 12.7969 1.45313 12.5547C1.45313 12.3125 1.25781 12.1172 1.01562 12.1172Z" fill="#8F5833"/>
<path fill-rule="evenodd" clip-rule="evenodd" d="M3.6875 12.8203C3.42187 12.8203 3.21094 13.0313 3.21094 13.2969C3.21094 13.5625 3.42187 13.7734 3.6875 13.7734C3.95312 13.7734 4.16406 13.5625 4.16406 13.2969C4.16406 13.0313 3.95312 12.8203 3.6875 12.8203Z" fill="#8F5833"/>
<path fill-rule="evenodd" clip-rule="evenodd" d="M6.23437 10.5078C5.96094 10.5078 5.73438 10.7344 5.73438 11.0078C5.73438 11.2813 5.96094 11.5078 6.23437 11.5078C6.50781 11.5078 6.73437 11.2813 6.73437 11.0078C6.73437 10.7344 6.50781 10.5078 6.23437 10.5078Z" fill="#8F5833"/>
<path fill-rule="evenodd" clip-rule="evenodd" d="M9.47656 13.7734C9.32031 13.7734 9.19531 13.8984 9.19531 14.0547C9.19531 14.2109 9.32031 14.3359 9.47656 14.3359C9.63281 14.3359 9.75781 14.2109 9.75781 14.0547C9.75781 13.8984 9.63281 13.7734 9.47656 13.7734Z" fill="#8F5833"/>
<path fill-rule="evenodd" clip-rule="evenodd" d="M12.5781 12.5547C12.4375 12.5547 12.3203 12.6719 12.3203 12.8125C12.3203 12.9531 12.4375 13.0703 12.5781 13.0703C12.7187 13.0703 12.8359 12.9531 12.8359 12.8125C12.8359 12.6719 12.7187 12.5547 12.5781 12.5547Z" fill="#8F5833"/>
<path fill-rule="evenodd" clip-rule="evenodd" d="M16.625 12.3984C16.4297 12.3984 16.2734 12.5547 16.2734 12.75C16.2734 12.9453 16.4297 13.1016 16.625 13.1016C16.8203 13.1016 16.9766 12.9453 16.9766 12.75C16.9766 12.5547 16.8203 12.3984 16.625 12.3984Z" fill="#8F5833"/>
<path d="M18.6562 12.7578C19.0316 12.7578 19.3359 12.4535 19.3359 12.0781C19.3359 11.7027 19.0316 11.3984 18.6562 11.3984C18.2809 11.3984 17.9766 11.7027 17.9766 12.0781C17.9766 12.4535 18.2809 12.7578 18.6562 12.7578Z" fill="#8F5833"/>
<path fill-rule="evenodd" clip-rule="evenodd" d="M22.2188 12.0781C22 12.0781 21.8125 12.2578 21.8125 12.4844C21.8125 12.7109 21.9922 12.8906 22.2188 12.8906C22.4453 12.8906 22.625 12.7109 22.625 12.4844C22.625 12.2578 22.4453 12.0781 22.2188 12.0781Z" fill="#8F5833"/>
<path fill-rule="evenodd" clip-rule="evenodd" d="M1.82813 2.96094C1.54687 2.96094 1.3125 3.1875 1.3125 3.47656C1.3125 3.76562 1.53906 3.99219 1.82813 3.99219C2.11719 3.99219 2.34375 3.76562 2.34375 3.47656C2.34375 3.1875 2.11719 2.96094 1.82813 2.96094Z" fill="#8F5833"/>
<path fill-rule="evenodd" clip-rule="evenodd" d="M5.5 1.76562C5.35937 1.76562 5.24219 1.88281 5.24219 2.02344C5.24219 2.16406 5.35937 2.28125 5.5 2.28125C5.64062 2.28125 5.75781 2.16406 5.75781 2.02344C5.75781 1.88281 5.64062 1.76562 5.5 1.76562Z" fill="#8F5833"/>
<path fill-rule="evenodd" clip-rule="evenodd" d="M9 4.00781C8.53906 4.00781 8.17188 4.38281 8.17188 4.83594C8.17188 5.28906 8.54688 5.66406 9 5.66406C9.45313 5.66406 9.82813 5.28906 9.82813 4.83594C9.82813 4.38281 9.45313 4.00781 9 4.00781Z" fill="#8F5833"/>
<path fill-rule="evenodd" clip-rule="evenodd" d="M12.5547 3.71875C12.375 3.71875 12.2266 3.86719 12.2266 4.04687C12.2266 4.22656 12.375 4.375 12.5547 4.375C12.7344 4.375 12.8828 4.22656 12.8828 4.04687C12.8828 3.86719 12.7344 3.71875 12.5547 3.71875Z" fill="#8F5833"/>
<path fill-rule="evenodd" clip-rule="evenodd" d="M13.2031 1.54688C13.125 1.54688 13.0547 1.60938 13.0547 1.69531C13.0547 1.78125 13.1172 1.84375 13.2031 1.84375C13.2891 1.84375 13.3516 1.78125 13.3516 1.69531C13.3516 1.60938 13.2891 1.54688 13.2031 1.54688Z" fill="#8F5833"/>
<path fill-rule="evenodd" clip-rule="evenodd" d="M21.7969 4.20312C21.5391 4.20312 21.3359 4.41406 21.3359 4.66406C21.3359 4.91406 21.5469 5.125 21.7969 5.125C22.0469 5.125 22.2578 4.91406 22.2578 4.66406C22.2578 4.41406 22.0469 4.20312 21.7969 4.20312Z" fill="#8F5833"/>
<path fill-rule="evenodd" clip-rule="evenodd" d="M19.4766 3.76562C19.3437 3.76562 19.2344 3.875 19.2344 4.00781C19.2344 4.14062 19.3437 4.25 19.4766 4.25C19.6094 4.25 19.7187 4.14062 19.7187 4.00781C19.7187 3.875 19.6094 3.76562 19.4766 3.76562Z" fill="#8F5833"/>
<path fill-rule="evenodd" clip-rule="evenodd" d="M13.9687 4.82031C13.5312 4.82031 13.1719 5.17187 13.1719 5.61719C13.1719 6.0625 13.5312 6.41406 13.9687 6.41406C14.4062 6.41406 14.7656 6.0625 14.7656 5.61719C14.7656 5.17187 14.4141 4.82031 13.9687 4.82031Z" fill="#8F5833"/>
<path d="M21.9922 2.61719C22.2079 2.61719 22.3828 2.4423 22.3828 2.22656C22.3828 2.01083 22.2079 1.83594 21.9922 1.83594C21.7765 1.83594 21.6016 2.01083 21.6016 2.22656C21.6016 2.4423 21.7765 2.61719 21.9922 2.61719Z" fill="#8F5833"/>
<path d="M3.33594 7.55469C3.5301 7.55469 3.6875 7.39729 3.6875 7.20312C3.6875 7.00896 3.5301 6.85156 3.33594 6.85156C3.14177 6.85156 2.98438 7.00896 2.98438 7.20312C2.98438 7.39729 3.14177 7.55469 3.33594 7.55469Z" fill="#AB6C48"/>
<path fill-rule="evenodd" clip-rule="evenodd" d="M6.75 5.32812C6.64844 5.32812 6.5625 5.41406 6.5625 5.51562C6.5625 5.61719 6.64844 5.70312 6.75 5.70312C6.85156 5.70312 6.9375 5.61719 6.9375 5.51562C6.9375 5.41406 6.85156 5.32812 6.75 5.32812Z" fill="#AB6C48"/>
<path fill-rule="evenodd" clip-rule="evenodd" d="M10.9219 6.86719C10.6719 6.86719 10.4688 7.07031 10.4688 7.32031C10.4688 7.57031 10.6719 7.77344 10.9219 7.77344C11.1719 7.77344 11.375 7.57031 11.375 7.32031C11.375 7.07031 11.1719 6.86719 10.9219 6.86719Z" fill="#AB6C48"/>
<path fill-rule="evenodd" clip-rule="evenodd" d="M16.8984 5.53906C16.7578 5.53906 16.6406 5.65625 16.6406 5.79687C16.6406 5.9375 16.7578 6.05469 16.8984 6.05469C17.0391 6.05469 17.1562 5.9375 17.1562 5.79687C17.1562 5.65625 17.0391 5.53906 16.8984 5.53906Z" fill="#AB6C48"/>
<path fill-rule="evenodd" clip-rule="evenodd" d="M22.8125 6.39062C22.6719 6.39062 22.5547 6.50781 22.5547 6.64844C22.5547 6.78906 22.6719 6.90625 22.8125 6.90625C22.9531 6.90625 23.0703 6.78906 23.0703 6.64844C23.0703 6.50781 22.9531 6.39062 22.8125 6.39062Z" fill="#AB6C48"/>
<path opacity="0.2" fill-rule="evenodd" clip-rule="evenodd" d="M0 5.28125C0 6.05469 0.625 6.6875 1.40625 6.6875C1.82031 6.6875 2.19531 6.50781 2.45313 6.21875C2.76563 6.71875 3.32031 7.04688 3.95312 7.04688C4.85937 7.04688 5.60938 6.35938 5.70313 5.48438C5.80469 6.27344 6.47656 6.89062 7.29688 6.89062C7.96875 6.89062 8.54687 6.47656 8.78906 5.88281C9.01562 6.35938 9.5 6.6875 10.0547 6.6875C10.6484 6.6875 11.1562 6.32031 11.3594 5.79688C11.5625 6.32031 12.0703 6.6875 12.6641 6.6875C13.0781 6.6875 13.4531 6.50781 13.7109 6.21875C14.0234 6.71875 14.5781 7.04688 15.2109 7.04688C16.1172 7.04688 16.8672 6.35938 16.9609 5.48438C17.0625 6.27344 17.7344 6.89062 18.5547 6.89062C19.2266 6.89062 19.8047 6.47656 20.0469 5.88281C20.2734 6.35938 20.7578 6.6875 21.3203 6.6875C21.7891 6.6875 22.2031 6.46094 22.4531 6.10938C22.6094 6.21875 22.8047 6.28125 23.0078 6.28125C23.5547 6.28125 24 5.83594 24 5.28906V0.601562H0V5.28906V5.28125Z" fill="black"/>
<path fill-rule="evenodd" clip-rule="evenodd" d="M0 4.6875C0 5.46094 0.625 6.09375 1.40625 6.09375C1.82031 6.09375 2.19531 5.91406 2.45313 5.625C2.76563 6.125 3.32031 6.45313 3.95312 6.45313C4.85937 6.45313 5.60938 5.76563 5.70313 4.89063C5.80469 5.67969 6.47656 6.29688 7.29688 6.29688C7.96875 6.29688 8.54687 5.88281 8.78906 5.28906C9.01562 5.76562 9.5 6.09375 10.0547 6.09375C10.6484 6.09375 11.1562 5.72656 11.3594 5.20312C11.5625 5.72656 12.0703 6.09375 12.6641 6.09375C13.0781 6.09375 13.4531 5.91406 13.7109 5.625C14.0234 6.125 14.5781 6.45313 15.2109 6.45313C16.1172 6.45313 16.8672 5.76563 16.9609 4.89063C17.0625 5.67969 17.7344 6.29688 18.5547 6.29688C19.2266 6.29688 19.8047 5.88281 20.0469 5.28906C20.2734 5.76562 20.7578 6.09375 21.3203 6.09375C21.7891 6.09375 22.2031 5.86719 22.4531 5.51562C22.6094 5.625 22.8047 5.6875 23.0078 5.6875C23.5547 5.6875 24 5.24219 24 4.69531V0H0V4.6875Z" fill="#6FA024"/>
<path fill-rule="evenodd" clip-rule="evenodd" d="M0 0V3.67969C0 4.10938 0.351563 4.46094 0.78125 4.46094C0.945313 4.46094 1.09375 4.41406 1.21875 4.32812C1.42188 4.60156 1.74219 4.78125 2.10938 4.78125C2.54688 4.78125 2.92969 4.52344 3.10938 4.14844C3.29688 4.60937 3.75 4.9375 4.28125 4.9375C4.92188 4.9375 5.45313 4.45312 5.53125 3.83594C5.60938 4.52344 6.19531 5.0625 6.90625 5.0625C7.40625 5.0625 7.83594 4.80469 8.08594 4.40625C8.28906 4.63281 8.57813 4.77344 8.90625 4.77344C9.375 4.77344 9.77344 4.48437 9.92969 4.07812C10.0938 4.48437 10.4922 4.77344 10.9531 4.77344C11.3906 4.77344 11.7734 4.51563 11.9531 4.14063C12.1406 4.60156 12.5938 4.92969 13.125 4.92969C13.7656 4.92969 14.2969 4.44531 14.375 3.82813C14.4531 4.51563 15.0391 5.05469 15.75 5.05469C16.2422 5.05469 16.6797 4.79688 16.9219 4.39844C17.125 4.625 17.4219 4.76562 17.75 4.76562C18.3594 4.76562 18.8516 4.27344 18.8516 3.66406C18.8516 4.27344 19.3438 4.76562 19.9531 4.76562C20.2813 4.76562 20.5781 4.625 20.7734 4.39844C21.0156 4.78906 21.8203 5.19531 22.4141 5.08594C23.5078 4.88281 23.5859 4.44531 23.9844 3.66406V0H0Z" fill="#B2CF2A"/>
<path d="M24 0H0V1.47656H24V0Z" fill="#C5DD5C"/>
<path d="M4.8125 16.0547C5.18788 16.0547 5.49219 15.7504 5.49219 15.375C5.49219 14.9996 5.18788 14.6953 4.8125 14.6953C4.43712 14.6953 4.13281 14.9996 4.13281 15.375C4.13281 15.7504 4.43712 16.0547 4.8125 16.0547Z" fill="#7B4720"/>
<path d="M7.13281 15.6641C7.34855 15.6641 7.52344 15.4892 7.52344 15.2734C7.52344 15.0577 7.34855 14.8828 7.13281 14.8828C6.91708 14.8828 6.74219 15.0577 6.74219 15.2734C6.74219 15.4892 6.91708 15.6641 7.13281 15.6641Z" fill="#7B4720"/>
<path fill-rule="evenodd" clip-rule="evenodd" d="M20.2578 15.2344C20.1016 15.2344 19.9766 15.3594 19.9766 15.5156C19.9766 15.6719 20.1016 15.7969 20.2578 15.7969C20.4141 15.7969 20.5391 15.6719 20.5391 15.5156C20.5391 15.3594 20.4141 15.2344 20.2578 15.2344Z" fill="#7B4720"/>
<path fill-rule="evenodd" clip-rule="evenodd" d="M22.1875 16.1484C21.9766 16.1484 21.8125 16.3203 21.8125 16.5234C21.8125 16.7266 21.9844 16.8984 22.1875 16.8984C22.3906 16.8984 22.5625 16.7266 22.5625 16.5234C22.5625 16.3203 22.3906 16.1484 22.1875 16.1484Z" fill="#7B4720"/>
<path fill-rule="evenodd" clip-rule="evenodd" d="M12.4375 16.2734C12.2969 16.2734 12.1719 16.3906 12.1719 16.5391C12.1719 16.6875 12.2891 16.8047 12.4375 16.8047C12.5859 16.8047 12.7031 16.6875 12.7031 16.5391C12.7031 16.3906 12.5859 16.2734 12.4375 16.2734Z" fill="#7B4720"/>
</g>
<defs>
<clipPath id="clip0_44_146930">
<rect width="24" height="24" fill="white"/>
</clipPath>
</defs>
</svg>
