<svg width="24" height="24" viewBox="0 0 24 24" fill="none" xmlns="http://www.w3.org/2000/svg">
<g clip-path="url(#clip0_44_148123)">
<path d="M23.3741 0.638672H0.638672V23.3611H23.3741V0.638672Z" stroke="#633E25" stroke-width="0.98" stroke-miterlimit="22.93"/>
<path d="M23.3741 0.638672H0.638672V23.3611H23.3741V0.638672Z" fill="#AD703E"/>
<path fill-rule="evenodd" clip-rule="evenodd" d="M12.0064 11.7196L0.925473 0.638672H0.638672V0.925473L11.7196 12.0064L0.638672 23.0873V23.3611H0.925473L12.0064 12.2802L23.0873 23.3611H23.3611V23.0873L12.2802 12.0064L23.3611 0.925473V0.638672H23.0873L12.0064 11.7196Z" fill="#633E25"/>
<path fill-rule="evenodd" clip-rule="evenodd" d="M3.7806 3.44141H3.44165V20.5712H20.5715V3.44141H3.7806ZM19.8805 19.8803H4.11954V4.1193H19.8805V19.8803Z" fill="#633E25"/>
<path d="M20.2194 3.78027H3.78052V20.2192H20.2194V3.78027Z" fill="#7A4D2E"/>
<mask id="mask0_44_148123" style="mask-type:luminance" maskUnits="userSpaceOnUse" x="3" y="3" width="18" height="18">
<path d="M20.2194 3.78027H3.78052V20.2192H20.2194V3.78027Z" fill="white"/>
</mask>
<g mask="url(#mask0_44_148123)">
<path d="M5.67076 1.43359H1.35571V22.5786H5.67076V1.43359Z" fill="#7A4D2E"/>
<path d="M5.51438 1.64258H5.12329V22.3574H5.51438V1.64258Z" fill="#633E25"/>
<path d="M9.90758 1.43359H5.59253V22.5786H9.90758V1.43359Z" fill="#7A4D2E"/>
<path d="M6.16624 1.64258H5.77515V22.3574H6.16624V1.64258Z" fill="#935E36"/>
<path d="M9.7512 1.64258H9.36011V22.3574H9.7512V1.64258Z" fill="#633E25"/>
<path d="M14.1835 1.43359H9.86841V22.5786H14.1835V1.43359Z" fill="#7A4D2E"/>
<path d="M10.4551 1.64258H10.064V22.3574H10.4551V1.64258Z" fill="#935E36"/>
<path d="M14.04 1.64258H13.6489V22.3574H14.04V1.64258Z" fill="#633E25"/>
<path d="M18.4203 1.43359H14.1052V22.5786H18.4203V1.43359Z" fill="#7A4D2E"/>
<path d="M14.6919 1.64258H14.3008V22.3574H14.6919V1.64258Z" fill="#935E36"/>
<path d="M18.2768 1.64258H17.8857V22.3574H18.2768V1.64258Z" fill="#633E25"/>
<path d="M22.6571 1.43359H18.342V22.5786H22.6571V1.43359Z" fill="#7A4D2E"/>
<path d="M18.9158 1.64258H18.5247V22.3574H18.9158V1.64258Z" fill="#935E36"/>
</g>
<path fill-rule="evenodd" clip-rule="evenodd" d="M17.586 3.44141H17.4426L17.3383 3.5457L16.9994 3.88464L11.9934 8.89062L6.9874 3.88464L6.64846 3.5457L6.54416 3.44141H3.42847V6.5571L3.53276 6.6614L3.8717 7.00034L8.87768 12.0063L3.8717 17.0123L3.53276 17.3512L3.42847 17.4555V20.5712H6.54416L6.64846 20.4669L6.9874 20.128L11.9934 15.122L16.9994 20.128L17.3383 20.4669L17.4426 20.5712H20.5583V17.4555L20.454 17.3512L20.1151 17.0123L15.1091 12.0063L20.1151 7.00034L20.454 6.6614L20.5583 6.5571V3.44141H17.586ZM19.8804 6.28334L19.6327 6.51799L14.3921 11.7586L14.1444 12.0063L14.3921 12.241L19.6327 17.4816L19.8804 17.7293V19.8803H17.7294L17.4947 19.6326L12.2541 14.392L12.0064 14.1573L11.7718 14.392L6.53113 19.6326L6.29647 19.8803H4.14547V17.7293L4.39316 17.4946L9.63379 12.254L9.86845 12.0194L9.63379 11.7717L4.36709 6.51799L4.1194 6.28334V4.13234H6.2704L6.50506 4.36699L11.7457 9.60762L11.9803 9.84227L12.215 9.60762L17.4556 4.36699L17.6903 4.13234H19.8413V6.28334H19.8804Z" fill="#633E25"/>
<path fill-rule="evenodd" clip-rule="evenodd" d="M6.41387 3.78027H3.78052V6.41362L4.11946 6.75257L9.36009 12.0062L12.0065 9.35985L6.75281 4.11922L6.41387 3.78027Z" fill="#AD703E"/>
<path fill-rule="evenodd" clip-rule="evenodd" d="M17.2471 4.11922L12.0065 9.35985L9.36009 12.0062L4.11946 17.2469L3.78052 17.5858V20.2192H6.41387L6.75281 19.8802L12.0065 14.6396L14.6398 12.0062L19.8805 6.75257L20.2194 6.41362V3.78027H17.5861L17.2471 4.11922Z" fill="#AD703E"/>
<path fill-rule="evenodd" clip-rule="evenodd" d="M14.6399 12.0068L12.0066 14.6402L17.2472 19.8808L17.5862 20.2198H20.2195V17.5864L19.8806 17.2475L14.6399 12.0068Z" fill="#AD703E"/>
<path fill-rule="evenodd" clip-rule="evenodd" d="M3.96296 1.59082C3.70223 1.59082 3.49365 1.7994 3.49365 2.06013C3.49365 2.32086 3.70223 2.52944 3.96296 2.52944C4.22369 2.52944 4.43227 2.32086 4.43227 2.06013C4.43227 1.7994 4.22369 1.59082 3.96296 1.59082Z" fill="black"/>
<path fill-rule="evenodd" clip-rule="evenodd" d="M20.024 1.59082C19.7633 1.59082 19.5547 1.7994 19.5547 2.06013C19.5547 2.32086 19.7633 2.52944 20.024 2.52944C20.2847 2.52944 20.4933 2.32086 20.4933 2.06013C20.4933 1.7994 20.2847 1.59082 20.024 1.59082Z" fill="black"/>
<path fill-rule="evenodd" clip-rule="evenodd" d="M21.9793 3.25879C21.7186 3.25879 21.51 3.46737 21.51 3.7281C21.51 3.98883 21.7186 4.19741 21.9793 4.19741C22.24 4.19741 22.4486 3.98883 22.4486 3.7281C22.4486 3.46737 22.24 3.25879 21.9793 3.25879Z" fill="black"/>
<path fill-rule="evenodd" clip-rule="evenodd" d="M3.96296 21.3662C3.70223 21.3662 3.49365 21.5748 3.49365 21.8355C3.49365 22.0962 3.70223 22.3048 3.96296 22.3048C4.22369 22.3048 4.43227 22.0962 4.43227 21.8355C4.43227 21.5748 4.22369 21.3662 3.96296 21.3662Z" fill="black"/>
<path fill-rule="evenodd" clip-rule="evenodd" d="M1.99446 19.6982C1.73373 19.6982 1.52515 19.9068 1.52515 20.1676C1.52515 20.4283 1.73373 20.6369 1.99446 20.6369C2.25518 20.6369 2.46377 20.4283 2.46377 20.1676C2.46377 19.9068 2.25518 19.6982 1.99446 19.6982Z" fill="black"/>
<path fill-rule="evenodd" clip-rule="evenodd" d="M20.024 21.3662C19.7633 21.3662 19.5547 21.5748 19.5547 21.8355C19.5547 22.0962 19.7633 22.3048 20.024 22.3048C20.2847 22.3048 20.4933 22.0962 20.4933 21.8355C20.4933 21.5748 20.2847 21.3662 20.024 21.3662Z" fill="black"/>
<path fill-rule="evenodd" clip-rule="evenodd" d="M21.9793 19.6982C21.7186 19.6982 21.51 19.9068 21.51 20.1676C21.51 20.4283 21.7186 20.6369 21.9793 20.6369C22.24 20.6369 22.4486 20.4283 22.4486 20.1676C22.4486 19.9068 22.24 19.6982 21.9793 19.6982Z" fill="black"/>
<path fill-rule="evenodd" clip-rule="evenodd" d="M5.05818 18.5381C4.79745 18.5381 4.58887 18.7467 4.58887 19.0074C4.58887 19.2681 4.79745 19.4767 5.05818 19.4767C5.31891 19.4767 5.52749 19.2681 5.52749 19.0074C5.52749 18.7467 5.31891 18.5381 5.05818 18.5381Z" fill="black"/>
<path fill-rule="evenodd" clip-rule="evenodd" d="M19.0723 18.5381C18.8116 18.5381 18.603 18.7467 18.603 19.0074C18.603 19.2681 18.8116 19.4767 19.0723 19.4767C19.3331 19.4767 19.5416 19.2681 19.5416 19.0074C19.5416 18.7467 19.3331 18.5381 19.0723 18.5381Z" fill="black"/>
<path fill-rule="evenodd" clip-rule="evenodd" d="M5.05818 4.41895C4.79745 4.41895 4.58887 4.62753 4.58887 4.88826C4.58887 5.14898 4.79745 5.35757 5.05818 5.35757C5.31891 5.35757 5.52749 5.14898 5.52749 4.88826C5.52749 4.62753 5.31891 4.41895 5.05818 4.41895Z" fill="black"/>
<path fill-rule="evenodd" clip-rule="evenodd" d="M19.0723 4.41895C18.8116 4.41895 18.603 4.62753 18.603 4.88826C18.603 5.14898 18.8116 5.35757 19.0723 5.35757C19.3331 5.35757 19.5416 5.14898 19.5416 4.88826C19.5416 4.62753 19.3331 4.41895 19.0723 4.41895Z" fill="black"/>
<path fill-rule="evenodd" clip-rule="evenodd" d="M2.1509 1.15994H21.8358L22.3052 0.794922H1.59033L2.1509 1.15994Z" fill="#BF7E4C"/>
<path fill-rule="evenodd" clip-rule="evenodd" d="M0.795166 22.2142L1.17322 21.6536V1.96867L0.795166 1.48633V22.2142Z" fill="#BF7E4C"/>
<path fill-rule="evenodd" clip-rule="evenodd" d="M2.1509 22.8525L1.59033 23.2306H22.3052L21.8358 22.8525H2.1509Z" fill="#935E36"/>
<path fill-rule="evenodd" clip-rule="evenodd" d="M22.8918 21.6536L23.2569 22.2142V1.48633L22.8918 1.96867V21.6536Z" fill="#935E36"/>
<path fill-rule="evenodd" clip-rule="evenodd" d="M3.98914 3.31165H19.9718L20.3498 2.93359H3.5459L3.98914 3.31165Z" fill="#935E36"/>
<path fill-rule="evenodd" clip-rule="evenodd" d="M2.8811 20.441L3.25916 19.9847V4.01512L2.8811 3.62402V20.441Z" fill="#935E36"/>
<path fill-rule="evenodd" clip-rule="evenodd" d="M4.06736 20.7412L3.67627 21.1193H20.4932L20.0369 20.7412H4.06736Z" fill="#BF7E4C"/>
<path fill-rule="evenodd" clip-rule="evenodd" d="M20.78 20.0372L21.1581 20.4283V3.61133L20.78 4.0676V20.0372Z" fill="#BF7E4C"/>
<path fill-rule="evenodd" clip-rule="evenodd" d="M3.97607 17.6383V18.1728L18.0423 4.02832H17.5861L3.97607 17.6383Z" fill="#BF7E4C"/>
<path fill-rule="evenodd" clip-rule="evenodd" d="M6.4531 19.9062L20.0631 6.29621V5.76172L5.99683 19.9062H6.4531Z" fill="#935E36"/>
<path fill-rule="evenodd" clip-rule="evenodd" d="M5.81421 3.92383L11.4068 9.47733L11.6545 9.22964L6.3487 3.92383H5.81421Z" fill="#BF7E4C"/>
<path fill-rule="evenodd" clip-rule="evenodd" d="M14.5225 12.5934L19.9586 17.9905V17.5342L14.7702 12.3457L14.5225 12.5934Z" fill="#BF7E4C"/>
<path fill-rule="evenodd" clip-rule="evenodd" d="M4.08032 6.40095L9.28184 11.6025L9.52953 11.3548L4.08032 5.93164V6.40095Z" fill="#935E36"/>
<path fill-rule="evenodd" clip-rule="evenodd" d="M12.3977 14.7184L17.6905 19.9981H18.225L12.6584 14.4707L12.3977 14.7184Z" fill="#935E36"/>
<path fill-rule="evenodd" clip-rule="evenodd" d="M7.00053 3.88456L7.23519 4.11922H16.7648L16.9994 3.88456L17.1037 3.78027H6.89624L7.00053 3.88456Z" fill="#331F0E"/>
<path fill-rule="evenodd" clip-rule="evenodd" d="M19.8806 7.23543L15.1223 12.0068L15.4482 12.3327L19.8806 7.88725L20.2195 7.5483V6.89648L20.1283 7.00078L19.8806 7.23543Z" fill="#331F0E"/>
<path fill-rule="evenodd" clip-rule="evenodd" d="M3.88481 7.00078L3.78052 6.89648V7.56134L4.11946 7.90029L8.55184 12.3327L8.87775 12.0068L4.11946 7.23543L3.88481 7.00078Z" fill="#331F0E"/>
<path fill-rule="evenodd" clip-rule="evenodd" d="M16.7648 19.8804L12.3324 15.461L12.0065 15.1221L11.6806 15.448L7.23519 19.8804L7.00053 20.128L6.89624 20.2193H7.58717L7.92612 19.8804L12.0065 15.7869L16.113 19.8804L16.4519 20.2193H17.1037L16.9994 20.128L16.7648 19.8804Z" fill="#331F0E"/>
<path fill-rule="evenodd" clip-rule="evenodd" d="M1.99446 3.25879C1.73373 3.25879 1.52515 3.46737 1.52515 3.7281C1.52515 3.98883 1.73373 4.19741 1.99446 4.19741C2.25518 4.19741 2.46377 3.98883 2.46377 3.7281C2.46377 3.46737 2.25518 3.25879 1.99446 3.25879Z" fill="black"/>
</g>
<defs>
<clipPath id="clip0_44_148123">
<rect width="24" height="24" fill="white"/>
</clipPath>
</defs>
</svg>
