<svg width="24" height="24" viewBox="0 0 24 24" fill="none" xmlns="http://www.w3.org/2000/svg">
<mask id="mask0_44_147497" style="mask-type:luminance" maskUnits="userSpaceOnUse" x="0" y="0" width="24" height="24">
<path d="M24 0H0V24H24V0Z" fill="white"/>
</mask>
<g mask="url(#mask0_44_147497)">
<path fill-rule="evenodd" clip-rule="evenodd" d="M16.12 -4.14074C16.55 -4.29074 17.03 -4.53074 17.6 -4.88074C16.79 -6.13074 15.94 -6.67074 15.14 -6.72074C15.44 -7.01074 15.75 -7.41074 16.09 -7.94074C15.12 -8.55074 14.32 -8.75074 13.69 -8.65074C13.92 -8.89074 14.15 -9.21074 14.41 -9.61074C13.54 -10.1607 12.82 -10.3307 12.25 -10.2407C12.58 -10.8007 12.84 -11.5807 13.04 -12.6307C11.37 -12.9607 10.19 -12.7507 9.44004 -12.2207C9.47004 -12.6207 9.44004 -13.1007 9.38004 -13.6507C8.46004 -13.5507 7.77004 -13.3107 7.28004 -13.0007C7.02004 -13.6607 6.45004 -14.3907 5.50004 -15.2607C4.79004 -14.4907 4.35004 -13.7807 4.13004 -13.1307C3.66004 -13.3807 3.04004 -13.5607 2.26004 -13.6507C2.19004 -13.0007 2.17004 -12.4607 2.22004 -12.0207C1.48004 -12.6907 0.240039 -12.9907 -1.62996 -12.6307C-1.41996 -11.5707 -1.16996 -10.8007 -0.839962 -10.2407C-1.40996 -10.3307 -2.12996 -10.1607 -2.99996 -9.61074C-2.93996 -9.52074 -2.87996 -9.43074 -2.81996 -9.34074C-3.60996 -9.43074 -4.58996 -9.17074 -5.76996 -8.42074C-5.09996 -7.36074 -4.50996 -6.71074 -3.91996 -6.38074C-4.54996 -6.21074 -5.20996 -5.68074 -5.83996 -4.68074C-5.66996 -4.57074 -5.50996 -4.48074 -5.35996 -4.40074H-5.34996H-5.33996H-5.32996L-5.31996 -4.39074H-5.30996H-5.29996H-5.28996H-5.26996H-5.25996H-5.24996H-5.23996H-5.22996H-5.21996H-5.20996H-5.19996H-5.18996H-5.17996H-5.16996H-5.15996H-5.14996H-5.12996H-5.11996H-5.10996H-5.09996H-5.08996H-5.07996H-5.06996H-5.05996H-5.04996H-5.03996H-5.02996H-5.01996C-5.65996 -4.22074 -6.32996 -3.70074 -6.95996 -2.68074C-6.38996 -2.32074 -5.89996 -2.09074 -5.48996 -1.96074C-5.90996 -1.77074 -6.33996 -1.38074 -6.74996 -0.720743C-6.40996 -0.510743 -6.11996 -0.360742 -5.85996 -0.250742C-6.04996 -0.060742 -6.22996 0.179257 -6.40996 0.469257H-6.38996L-6.36996 0.489258L-6.34996 0.499258H-6.33996V0.509258H-6.31996L-6.30996 0.529257L-6.28996 0.539257H-6.27996V0.549257H-6.25996V0.569258L-6.23996 0.579258L-6.22996 0.589258H-6.20996V0.599258H-6.19996L-6.17996 0.619257L-6.16996 0.629257H-6.14996V0.639257H-6.13996L-6.11996 0.659258H-6.09996H-6.07996H-6.05996L-6.04996 0.679258L-6.02996 0.689259H-6.01996H-5.99996L-5.98996 0.699257L-5.96996 0.709257H-5.94996V0.719257L-5.92996 0.729258H-5.90996V0.739258H-5.89996L-5.87996 0.749258H-5.86996H-5.84996H-5.83996L-5.81996 0.759258H-5.80996H-5.79996H-5.78996L-5.77996 0.769258H-5.75996H-5.74996H-5.73996V0.779257H-5.72996H-5.71996H-5.70996H-5.69996H-5.68996L-5.67996 0.789257H-5.66996H-5.65996H-5.64996H-5.63996H-5.62996H-5.61996H-5.60996C-5.77996 1.07926 -5.88996 1.42926 -5.93996 1.81926C-5.23996 1.80926 -4.67996 1.67926 -4.32996 1.41926C-4.32996 1.81926 -4.23996 2.22926 -4.05996 2.60926C-3.53996 2.25926 -3.13996 1.90926 -2.90996 1.57926C-2.71996 2.10926 -2.13996 2.64926 -1.30996 3.21926C-1.16996 2.92926 -1.06996 2.61926 -1.01996 2.30926C-0.749962 2.26926 -0.519962 2.19926 -0.339962 2.10926C-0.339962 2.18926 -0.339962 2.26926 -0.339962 2.34926C0.360038 2.33926 0.900039 2.20926 1.20004 1.95926C1.26004 2.35926 1.43004 2.76926 1.67004 3.14926C2.04004 2.85926 2.34004 2.57926 2.53004 2.29926C2.93004 2.23926 3.24004 2.11926 3.45004 1.94926C3.51004 2.34926 3.68004 2.75926 3.92004 3.13926C4.18004 2.93926 4.40004 2.74926 4.57004 2.55926C4.74004 2.74926 4.96004 2.94926 5.22004 3.13926C5.46004 2.75926 5.63004 2.33926 5.69004 1.94926C5.96004 2.16926 6.42004 2.30926 7.02004 2.33926C7.23004 2.70926 7.53004 3.04926 7.88004 3.32926C8.31004 2.57926 8.58004 1.91926 8.60004 1.38926C8.79004 1.77926 9.24004 2.17926 9.85004 2.58926C10.03 2.20926 10.13 1.78926 10.12 1.39926C10.37 1.57926 10.73 1.69926 11.17 1.75926C11.17 2.23926 11.29 2.73926 11.5 3.19926C12.33 2.62926 12.92 2.08926 13.1 1.55926C13.33 1.89926 13.73 2.23926 14.25 2.58926C14.43 2.20926 14.53 1.78926 14.52 1.39926C14.86 1.64926 15.43 1.77926 16.13 1.79926C16.07 1.40926 15.97 1.06926 15.8 0.789257H15.81H15.82H15.83H15.84H15.86H15.87H15.89H15.9H15.91H15.92L15.94 0.779257H15.95H15.97H15.98L16 0.769258H16.02L16.03 0.759258H16.05L16.06 0.749258H16.08H16.09H16.11L16.12 0.739258H16.14H16.15H16.17L16.18 0.729258H16.2H16.21H16.23L16.24 0.719257L16.26 0.709257H16.27H16.29V0.699257L16.31 0.689259H16.33V0.679258L16.35 0.669258H16.37V0.659258L16.39 0.649258H16.41V0.639257H16.42L16.44 0.619257L16.45 0.609259H16.47V0.599258H16.48L16.5 0.579258L16.51 0.569258H16.53V0.559258H16.55L16.57 0.539257L16.59 0.529257H16.61V0.519258H16.63L16.65 0.499258L16.67 0.489258H16.69V0.479258H16.71L16.73 0.459257C16.55 0.169257 16.36 -0.0707422 16.18 -0.260742C16.44 -0.360742 16.74 -0.520742 17.07 -0.730742C16.66 -1.39074 16.23 -1.79074 15.81 -1.97074C16.23 -2.09074 16.71 -2.33074 17.29 -2.69074C16.7 -3.64074 16.08 -4.16074 15.49 -4.36074L16.12 -4.14074ZM0.560038 1.33926V1.30926H0.580038L0.560038 1.33926ZM1.88004 1.36926C1.88004 1.36926 1.86004 1.32926 1.85004 1.30926H1.92004C1.92004 1.30926 1.89004 1.34926 1.88004 1.36926ZM4.13004 1.36926C4.13004 1.36926 4.11004 1.32926 4.10004 1.30926H4.17004C4.17004 1.30926 4.14004 1.34926 4.13004 1.36926ZM6.03004 1.36926C6.03004 1.36926 6.00004 1.32926 5.99004 1.30926H6.06004C6.06004 1.30926 6.04004 1.34926 6.03004 1.36926Z" fill="#5B661B"/>
<path fill-rule="evenodd" clip-rule="evenodd" d="M4.7401 -4.68019C5.1901 -4.83019 5.7101 -5.1002 6.3101 -5.4702C5.4501 -6.7902 4.5501 -7.36019 3.7101 -7.41019C4.0301 -7.72019 4.3601 -8.1402 4.7101 -8.7002C3.6801 -9.3502 2.8401 -9.5602 2.1701 -9.4502C2.4101 -9.7102 2.6601 -10.0402 2.9301 -10.4602C2.0001 -11.0502 1.2401 -11.2302 0.640097 -11.1302C0.990097 -11.7202 1.2601 -12.5502 1.4801 -13.6602C-0.289903 -14.0002 -1.5299 -13.7902 -2.3299 -13.2302C-2.2999 -13.6602 -2.3299 -14.1602 -2.3899 -14.7502C-3.3599 -14.6402 -4.0899 -14.3902 -4.6099 -14.0602C-4.8799 -14.7602 -5.4899 -15.5302 -6.4899 -16.4502C-7.2399 -15.6402 -7.6999 -14.8802 -7.9399 -14.2002C-8.4399 -14.4702 -9.0899 -14.6602 -9.9199 -14.7502C-9.9999 -14.0602 -10.0099 -13.4902 -9.9599 -13.0202C-10.7399 -13.7302 -12.0599 -14.0502 -14.0399 -13.6602C-13.8199 -12.5402 -13.5499 -11.7202 -13.1999 -11.1302C-13.7999 -11.2302 -14.5599 -11.0502 -15.4899 -10.4602C-15.4299 -10.3602 -15.3599 -10.2602 -15.2999 -10.1702C-16.1299 -10.2602 -17.1699 -9.9902 -18.4199 -9.2002C-17.7099 -8.0802 -17.0799 -7.3802 -16.4599 -7.0402C-17.1299 -6.8602 -17.8199 -6.30019 -18.4899 -5.24019C-18.3099 -5.13019 -18.1399 -5.0302 -17.9799 -4.9402H-17.9699H-17.9599V-4.93019H-17.9499H-17.9399L-17.9299 -4.92019H-17.9199L-17.9099 -4.91019H-17.8999H-17.8899L-17.8699 -4.90019H-17.8599H-17.8499H-17.8399H-17.8299H-17.8199H-17.8099H-17.7999H-17.7899H-17.7799H-17.7699H-17.7599H-17.7499H-17.7399H-17.7199H-17.7099H-17.6999H-17.6899H-17.6799H-17.6699H-17.6599H-17.6499H-17.6399H-17.6299H-17.6199H-17.6099H-17.5999H-17.5899C-18.2699 -4.72019 -18.9699 -4.17019 -19.6499 -3.09019C-19.0399 -2.71019 -18.5299 -2.46019 -18.0899 -2.33019C-18.5299 -2.13019 -18.9899 -1.71019 -19.4299 -1.01019C-19.0699 -0.790195 -18.7599 -0.620195 -18.4799 -0.510195C-18.6799 -0.310195 -18.8699 -0.0501943 -19.0599 0.259806H-19.0399L-19.0199 0.279804L-18.9999 0.289804H-18.9799V0.299805H-18.9599L-18.9499 0.319805L-18.9299 0.329805H-18.9199V0.339806H-18.8999V0.359806L-18.8799 0.379805L-18.8699 0.389805H-18.8499V0.399805H-18.8399L-18.8199 0.419806L-18.8099 0.429806H-18.7899V0.439806H-18.7799L-18.7599 0.459805H-18.7399H-18.7199H-18.6999L-18.6799 0.479805L-18.6599 0.489805H-18.6499H-18.6299L-18.6199 0.509806L-18.5999 0.519806H-18.5899H-18.5699V0.529804L-18.5499 0.539804H-18.5399H-18.5199V0.549805H-18.5099L-18.4899 0.559805H-18.4799H-18.4599H-18.4499L-18.4299 0.569805H-18.4099L-18.3999 0.579805H-18.3799H-18.3699H-18.3499L-18.3399 0.589806H-18.3199H-18.2999V0.599806H-18.2799H-18.2599H-18.2499L-18.2399 0.609806H-18.2299H-18.2099H-18.1999L-18.1899 0.619804H-18.1799H-18.1699H-18.1599H-18.1499H-18.1399C-18.3199 0.929804 -18.4299 1.2898 -18.4899 1.7098C-17.7399 1.6998 -17.1499 1.5598 -16.7899 1.2898C-16.7999 1.7098 -16.6899 2.1498 -16.5099 2.5498C-15.9599 2.1798 -15.5399 1.8098 -15.2999 1.4598C-15.0999 2.0198 -14.4799 2.5998 -13.5999 3.1998C-13.4599 2.8898 -13.3499 2.56981 -13.2899 2.23981C-13.0099 2.19981 -12.7599 2.1298 -12.5699 2.0298C-12.5699 2.1098 -12.5699 2.1998 -12.5699 2.2898C-11.8299 2.2798 -11.2599 2.1398 -10.9399 1.8698C-10.8799 2.2898 -10.6999 2.7298 -10.4399 3.1298C-10.0399 2.8198 -9.7299 2.52981 -9.5299 2.2298C-9.1099 2.1698 -8.7699 2.03981 -8.5599 1.85981C-8.4999 2.27981 -8.3199 2.7198 -8.0599 3.1198C-7.7899 2.9098 -7.5499 2.69981 -7.3699 2.49981C-7.1899 2.69981 -6.9499 2.9098 -6.6799 3.1198C-6.4199 2.7198 -6.2399 2.27981 -6.1799 1.85981C-5.8899 2.09981 -5.3999 2.23981 -4.7699 2.26981C-4.5499 2.66981 -4.2299 3.02981 -3.8599 3.31981C-3.4099 2.51981 -3.1199 1.81981 -3.0999 1.26981C-2.8999 1.67981 -2.4199 2.1098 -1.7799 2.5498C-1.5899 2.1498 -1.4899 1.7098 -1.4999 1.2898C-1.2399 1.4798 -0.859902 1.60981 -0.389902 1.66981C-0.389902 2.17981 -0.269904 2.7098 -0.0399036 3.1998C0.840096 2.5998 1.4601 2.0298 1.6601 1.4598C1.9001 1.8198 2.3201 2.1798 2.8701 2.5498C3.0601 2.1498 3.1601 1.7098 3.1501 1.2898C3.5201 1.5598 4.1101 1.6998 4.8501 1.7098C4.7901 1.2998 4.6801 0.939805 4.5101 0.639805H4.5201H4.5301H4.5501H4.5601H4.5801H4.5901L4.6101 0.629805H4.6201H4.6401H4.6501L4.6701 0.619804H4.6801H4.7001H4.7101L4.7301 0.609806H4.7501L4.7701 0.599806H4.7901L4.8101 0.589806H4.8301H4.8401H4.8601L4.8701 0.579805H4.8901H4.9001H4.9201L4.9301 0.569805L4.9501 0.559805H4.9601H4.9801L4.9901 0.549805L5.0101 0.539804H5.0201H5.0401L5.0501 0.529804L5.0701 0.519806H5.0801H5.1001V0.509806L5.1201 0.499805H5.1401V0.489805L5.1601 0.469805L5.1701 0.459805H5.1901V0.449804H5.2001L5.2201 0.429806L5.2301 0.419806H5.2501V0.409805H5.2601L5.2801 0.389805L5.2901 0.379805H5.3101V0.369804H5.3301L5.3501 0.349806L5.3701 0.339806H5.3901V0.329805H5.4101L5.4301 0.309805L5.4501 0.299805H5.4701V0.289804H5.4901L5.5101 0.269806C5.3201 -0.0401941 5.1201 -0.290195 4.9301 -0.500195C5.2101 -0.610195 5.5201 -0.780195 5.8801 -1.00019C5.4401 -1.70019 4.9901 -2.12019 4.5401 -2.32019C4.9801 -2.45019 5.4901 -2.70019 6.1001 -3.08019C5.4801 -4.08019 4.8201 -4.63019 4.1901 -4.85019L4.7401 -4.68019ZM-11.7399 1.1198V1.08981H-11.7199L-11.7399 1.1198ZM-10.3499 1.14981C-10.3499 1.14981 -10.3699 1.10981 -10.3799 1.08981H-10.3099C-10.3099 1.08981 -10.3399 1.12981 -10.3499 1.14981ZM-7.9699 1.14981C-7.9699 1.14981 -7.9899 1.10981 -7.9999 1.08981H-7.9299C-7.9299 1.08981 -7.9599 1.12981 -7.9699 1.14981ZM-5.9499 1.14981C-5.9499 1.14981 -5.9799 1.10981 -5.9899 1.08981H-5.9199C-5.9199 1.08981 -5.9399 1.12981 -5.9499 1.14981Z" fill="#5B661B"/>
<path fill-rule="evenodd" clip-rule="evenodd" d="M7.43998 1.58926L6.49998 -0.790743L7.43998 -3.68074L5.61998 -0.790743L5.80998 1.52926L2.79998 2.46926L2.04998 3.15926L2.54998 -0.980742L-0.960018 -3.24074L-1.15002 -7.76074L-1.97002 -3.93074L-3.48002 -4.81074L-4.55002 -6.94074L-4.17002 -3.93074L0.349981 -0.670742L0.0999813 1.08926L-2.16002 -0.860743L-0.340019 2.08926L-0.720018 3.71926L-3.79002 2.08926L-6.55002 1.64926L-7.99002 -1.05074L-7.61002 1.70926L-11.25 0.579258L-11.31 -1.93074L-10.18 -3.12074L-9.99002 -6.19074L-10.74 -3.68074L-12.68 -1.86074L-12.77 1.42926L-6.97002 3.71926L-4.21002 4.27926L-2.71002 6.07926C-1.79002 15.7193 -2.17002 18.8293 -3.46002 22.0793C-3.92002 22.3793 -4.15002 22.8793 -4.78002 23.0993C-5.43002 23.3193 -6.49002 23.2693 -7.00002 23.9893H10.47C9.66998 22.8093 8.15998 22.8493 7.07998 22.4393C6.14998 22.0893 5.66998 21.2193 4.76998 21.0793C3.53998 19.0093 2.09998 14.9093 2.84998 6.07926L3.64998 3.89926L11.49 1.63926L13.31 -3.63074L10.99 0.639257L7.47998 1.57926L7.43998 1.58926Z" fill="#AD703E"/>
<path fill-rule="evenodd" clip-rule="evenodd" d="M4.05001 22.1497L2.76001 19.1797L3.24001 22.5197L4.08001 23.9997H4.58001H10.44L6.61001 23.3597L4.05001 22.1497Z" fill="#935E36"/>
<path fill-rule="evenodd" clip-rule="evenodd" d="M2.07996 20.5996L2.06996 22.9796L2.02996 23.6696L1.58996 22.0896L1.20996 23.9996H3.57996H3.63996L2.81996 22.9396L2.07996 20.5996Z" fill="#935E36"/>
<path fill-rule="evenodd" clip-rule="evenodd" d="M-0.280001 22.0895L-0.74 23.5595L-0.709999 21.2295L-1.45 23.3095L-2 23.9995H-1.79H0.1L-0.17 23.5595L-0.280001 22.0895Z" fill="#935E36"/>
<path fill-rule="evenodd" clip-rule="evenodd" d="M2.82003 6.08984L1.53003 11.0098L2.58003 16.2798L3.51003 18.1598C2.79003 15.6798 2.33003 11.9098 2.82003 6.08984Z" fill="#BF7E4C"/>
<path fill-rule="evenodd" clip-rule="evenodd" d="M4.74005 21.09C4.48005 20.66 4.22005 20.13 3.96005 19.5L3.80005 20.02L4.90005 21.55L7.04005 22.83L9.99005 23.51C9.15005 22.83 7.96005 22.8 7.05005 22.46C6.12005 22.11 5.64005 21.24 4.74005 21.1V21.09Z" fill="#BF7E4C"/>
<path fill-rule="evenodd" clip-rule="evenodd" d="M1.15012 21.2495L0.920116 22.3095L0.440117 17.1895L0.310116 23.2495L0.0401173 22.4395L-0.629883 23.9995H1.48012L1.46012 23.4595L1.15012 21.2495Z" fill="#935E36"/>
<path fill-rule="evenodd" clip-rule="evenodd" d="M2.52002 18.1299L2.68002 21.0099L3.24002 22.5199L2.76002 19.1799L2.52002 18.1299Z" fill="#BF7E4C"/>
<path fill-rule="evenodd" clip-rule="evenodd" d="M-0.0998535 18.2496L0.360147 20.9697L0.440147 17.1896L0.110147 13.1396L-0.0998535 18.2496Z" fill="#BF7E4C"/>
<path fill-rule="evenodd" clip-rule="evenodd" d="M1.52994 19.1895L1.66994 15.7795L1.43994 13.9795L1.52994 19.1895Z" fill="#935E36"/>
<path fill-rule="evenodd" clip-rule="evenodd" d="M-0.72998 15.4801L0.130018 10.2201L0.04002 8.08008L-0.72998 15.4801Z" fill="#935E36"/>
<path fill-rule="evenodd" clip-rule="evenodd" d="M2.92017 20.2793L3.24017 22.5193L4.08017 23.9993H6.03017L4.02017 22.8293L2.92017 20.2793Z" fill="#7A4D2E"/>
<path fill-rule="evenodd" clip-rule="evenodd" d="M0.60005 21.3193L0.490049 23.6893L0.11005 23.3193L-0.449951 23.9993H1.54005L0.93005 22.9193L0.60005 21.3193Z" fill="#7A4D2E"/>
<path fill-rule="evenodd" clip-rule="evenodd" d="M2.70012 7.71973L2.12012 10.1997L2.52012 15.1997L2.98012 15.8197C2.65012 13.7797 2.50012 11.1397 2.70012 7.71973Z" fill="#C88C63"/>
<path fill-rule="evenodd" clip-rule="evenodd" d="M4.55007 2.82953L3.03007 3.88953L2.82007 6.08953L3.61007 3.91953L11.4501 1.65953L12.3601 -0.980469L10.8701 1.42953L4.55007 2.82953Z" fill="#935E36"/>
<path fill-rule="evenodd" clip-rule="evenodd" d="M7.94011 2.37969L4.60011 3.24969L3.61011 3.91969L11.4501 1.65969L12.0501 -0.0703125L11.1201 1.53969L7.94011 2.37969Z" fill="#935E36"/>
<path fill-rule="evenodd" clip-rule="evenodd" d="M-0.339912 2.09941L-0.719912 3.72941L-0.0799122 4.90941L0.280088 2.19941L-2.15991 -0.850586L-0.339912 2.09941Z" fill="#935E36"/>
<path fill-rule="evenodd" clip-rule="evenodd" d="M-4.54004 -6.94043L-4.17004 -3.93043L0.349962 -0.660429L0.0999622 1.08957L0.529963 1.75957L1.28996 -0.87043L-3.79004 -4.34043L-4.54004 -6.94043Z" fill="#935E36"/>
<path fill-rule="evenodd" clip-rule="evenodd" d="M5.80994 1.52996L4.93994 1.79996L6.36994 1.75996L5.61994 -0.790039L5.80994 1.52996Z" fill="#935E36"/>
<path fill-rule="evenodd" clip-rule="evenodd" d="M5.80996 1.52976L5.45996 1.63976L6.14996 1.64977L5.69996 0.259766L5.80996 1.52976Z" fill="#7A4D2E"/>
<path fill-rule="evenodd" clip-rule="evenodd" d="M-4.32983 -5.23047L-4.16983 -3.93047L0.350166 -0.660469L0.100166 1.08953L0.800165 -0.840469L-3.94983 -4.04047L-4.32983 -5.23047Z" fill="#7A4D2E"/>
<path fill-rule="evenodd" clip-rule="evenodd" d="M2.03997 3.15922L1.71997 4.24922L3.16997 2.73922L4.46997 1.94922L2.79997 2.46922L2.03997 3.15922Z" fill="#BF7E4C"/>
<path fill-rule="evenodd" clip-rule="evenodd" d="M-1.15997 -7.75L-1.46997 -3.3L1.98003 -0.76L2.04003 3.16L2.55003 -0.98L-0.969971 -3.24L-1.15997 -7.75Z" fill="#BF7E4C"/>
<path fill-rule="evenodd" clip-rule="evenodd" d="M7.44013 1.59004L6.88013 0.18004L7.19013 1.91004L10.9501 1.08004L12.5101 -2.20996L10.9501 0.65004L7.44013 1.59004Z" fill="#BF7E4C"/>
<path fill-rule="evenodd" clip-rule="evenodd" d="M2.31003 -0.830235L2.35003 0.619764L2.55003 -0.980234L-0.969971 -3.24023L2.31003 -0.830235Z" fill="#C88C63"/>
<path fill-rule="evenodd" clip-rule="evenodd" d="M0.860107 9.85012L1.86011 6.36012L2.27011 4.62012L1.64011 6.14012L0.860107 9.85012Z" fill="#935E36"/>
<path fill-rule="evenodd" clip-rule="evenodd" d="M0.790039 4.67973L1.29004 2.50973L1.41004 1.71973L1.15004 2.38973L0.790039 4.67973Z" fill="#935E36"/>
<path fill-rule="evenodd" clip-rule="evenodd" d="M6.66997 1.85L5.24997 2L3.46997 3.01L5.26997 2.19L6.92997 2L6.48997 0.75L6.66997 1.85Z" fill="#935E36"/>
<path fill-rule="evenodd" clip-rule="evenodd" d="M1.88001 13.5401L1.95001 10.9801L1.76001 9.62012L1.88001 13.5401Z" fill="#935E36"/>
<path fill-rule="evenodd" clip-rule="evenodd" d="M10.1301 1.41953L11.3701 1.03953L11.9101 -0.480469L11.3301 0.79953L10.1301 1.41953Z" fill="#935E36"/>
<path fill-rule="evenodd" clip-rule="evenodd" d="M6.92002 1.97934L5.27002 2.18934L7.10002 2.06934L6.69002 1.31934L6.92002 1.97934Z" fill="#7A4D2E"/>
<path fill-rule="evenodd" clip-rule="evenodd" d="M22.94 -7.18066L22.92 -7.17066H22.9V-7.16066L22.88 -7.15066H22.86V-7.14066H22.85L22.83 -7.13066H22.82H22.8H22.79L22.77 -7.12066H22.76H22.74H22.73L22.71 -7.11066H22.7H22.68H22.67L22.65 -7.10066H22.64H22.62L22.61 -7.09066H22.59L22.58 -7.08066H22.57H22.55L22.54 -7.07066H22.53H22.52H22.51L22.5 -7.06066H22.49H22.48H22.47H22.46H22.45H22.44C22.6 -6.78066 22.7 -6.44066 22.76 -6.07066C22.07 -6.08066 21.53 -6.21066 21.19 -6.46066C21.19 -6.07066 21.1 -5.67066 20.93 -5.30066C20.42 -5.65066 20.03 -5.98066 19.81 -6.31066C19.63 -5.79066 19.06 -5.26066 18.25 -4.71066C18.04 -5.16066 17.92 -5.65066 17.93 -6.12066C17.5 -6.18066 17.15 -6.29066 16.91 -6.47066C16.91 -6.08066 16.82 -5.68066 16.65 -5.31066C16.06 -5.71066 15.62 -6.10066 15.43 -6.49066C15.41 -5.98066 15.15 -5.33066 14.73 -4.60066C14.39 -4.87066 14.1 -5.20066 13.89 -5.57066C13.3 -5.60066 12.85 -5.73066 12.59 -5.95066C12.53 -5.56066 12.37 -5.16066 12.13 -4.79066C11.88 -4.98066 11.66 -5.17066 11.49 -5.36066C11.32 -5.17066 11.1 -4.98066 10.85 -4.79066C10.61 -5.16066 10.45 -5.57066 10.39 -5.95066C10.19 -5.78066 9.87996 -5.67066 9.48996 -5.61066C9.30996 -5.34066 9.01996 -5.07066 8.64996 -4.78066C8.40996 -5.15066 8.24996 -5.56066 8.18996 -5.94066C7.88996 -5.70066 7.36996 -5.57066 6.67996 -5.55066C6.67996 -5.63066 6.67996 -5.71066 6.67996 -5.79066C6.49996 -5.70066 6.27996 -5.64066 6.01996 -5.60066C5.96996 -5.30066 5.86996 -5.00066 5.73996 -4.72066C4.92996 -5.27066 4.35996 -5.80066 4.17996 -6.32066C3.95996 -5.99066 3.56996 -5.66066 3.05996 -5.31066C2.88996 -5.68066 2.78996 -6.09066 2.79996 -6.47066C2.45996 -6.23066 1.91996 -6.10066 1.22996 -6.08066C1.28996 -6.46066 1.38996 -6.80066 1.55996 -7.08066H1.54996H1.53996H1.52996H1.51996H1.50996H1.49996H1.48996H1.47996H1.46996H1.45996H1.44996H1.43996H1.42996H1.41996H1.40996L1.39996 -7.09066H1.38996H1.37996H1.36996L1.35996 -7.10066H1.34996H1.33996H1.31996L1.30996 -7.11066H1.28996H1.27996H1.25996V-7.12066L1.23996 -7.13066H1.21996V-7.14066L1.19996 -7.15066H1.18996H1.16996V-7.16066H1.15996C0.839962 -6.89066 0.519961 -6.52066 0.209961 -6.02066C0.769961 -5.67066 1.23996 -5.44066 1.64996 -5.32066C1.23996 -5.14066 0.819962 -4.75066 0.419962 -4.11066C0.749962 -3.91066 1.03996 -3.75066 1.28996 -3.65066C1.10996 -3.46066 0.929962 -3.23066 0.749962 -2.94066H0.769962L0.789963 -2.92066L0.809961 -2.91066H0.819962V-2.90066H0.839962L0.849962 -2.88066L0.869963 -2.87066H0.879961V-2.86066H0.899961V-2.84066L0.919962 -2.83066V-2.82066H0.939962V-2.81066H0.949963L0.969961 -2.79066H0.979961H0.999962V-2.78066H1.00996L1.02996 -2.76066H1.04996H1.06996H1.08996L1.09996 -2.74066H1.11996H1.12996H1.14996L1.15996 -2.73066L1.17996 -2.72066H1.19996V-2.71066L1.21996 -2.70066H1.23996V-2.69066H1.24996L1.26996 -2.68066H1.27996H1.29996H1.30996L1.31996 -2.67066H1.32996H1.33996H1.34996L1.35996 -2.66066H1.36996H1.37996H1.38996V-2.65066H1.39996H1.40996H1.41996H1.42996H1.43996H1.44996H1.45996H1.46996H1.47996H1.48996H1.49996H1.50996H1.51996C1.35996 -2.36066 1.24996 -2.03066 1.18996 -1.64066C1.87996 -1.65066 2.41996 -1.78066 2.75996 -2.03066C2.75996 -1.64066 2.84996 -1.24066 3.01996 -0.870665C3.52996 -1.22066 3.91996 -1.55066 4.13996 -1.88066C4.31996 -1.36066 4.88996 -0.830664 5.69996 -0.280664C5.82996 -0.560664 5.92996 -0.860664 5.97996 -1.16066C6.23996 -1.20066 6.45996 -1.26066 6.63996 -1.35066C6.63996 -1.27066 6.63996 -1.19066 6.63996 -1.11066C7.32996 -1.12066 7.84996 -1.25066 8.14996 -1.50066C8.20996 -1.11066 8.36996 -0.710664 8.60996 -0.340664C8.96996 -0.620664 9.25996 -0.900664 9.44996 -1.17066C9.83996 -1.23066 10.15 -1.34066 10.35 -1.51066C10.41 -1.12066 10.57 -0.720664 10.81 -0.350664C11.06 -0.540664 11.28 -0.730664 11.45 -0.920664C11.62 -0.730664 11.83 -0.540664 12.09 -0.350664C12.33 -0.720664 12.49 -1.13066 12.55 -1.51066C12.81 -1.29066 13.27 -1.16066 13.85 -1.13066C14.05 -0.770665 14.35 -0.430664 14.69 -0.160664C15.1 -0.900664 15.37 -1.54066 15.39 -2.05066C15.58 -1.67066 16.01 -1.28066 16.61 -0.870665C16.78 -1.24066 16.88 -1.65066 16.87 -2.03066C17.11 -1.85066 17.46 -1.74066 17.89 -1.68066C17.89 -1.21066 18 -0.720664 18.21 -0.270664C19.02 -0.820664 19.59 -1.35066 19.77 -1.87066C19.99 -1.54066 20.38 -1.21066 20.89 -0.860664C21.06 -1.23066 21.16 -1.64066 21.15 -2.02066C21.49 -1.78066 22.03 -1.65066 22.72 -1.63066C22.67 -2.01066 22.56 -2.34066 22.4 -2.62066H22.41H22.42H22.43H22.44H22.45H22.46H22.47H22.48H22.49L22.5 -2.63066H22.51H22.53H22.54L22.55 -2.64066H22.57H22.58L22.6 -2.65066H22.61H22.63L22.64 -2.66066H22.66H22.67H22.69L22.7 -2.67066H22.72H22.73H22.75L22.76 -2.68066H22.78H22.79H22.81L22.82 -2.69066L22.84 -2.70066H22.86V-2.71066L22.88 -2.72066H22.9V-2.73066L22.92 -2.74066H22.94V-2.75066L22.96 -2.77066H22.97H22.99V-2.78066H23L23.02 -2.80066L23.03 -2.81066H23.05V-2.82066H23.06L23.08 -2.84066L23.09 -2.85066H23.11V-2.86066H23.12L23.14 -2.88066L23.16 -2.89066H23.18V-2.90066H23.2L23.22 -2.92066L23.24 -2.93066H23.26C23.08 -3.23066 22.9 -3.46066 22.72 -3.65066C22.98 -3.75066 23.27 -3.90066 23.59 -4.11066C23.19 -4.76066 22.77 -5.14066 22.36 -5.32066C22.77 -5.44066 23.24 -5.67066 23.8 -6.02066C23.49 -6.52066 23.17 -6.90066 22.85 -7.17066L22.94 -7.18066ZM6.93996 -2.31066V-2.34066H6.95996L6.93996 -2.31066ZM8.21996 -2.28066C8.21996 -2.28066 8.19996 -2.32066 8.18996 -2.34066H8.25996C8.25996 -2.34066 8.22996 -2.30066 8.21996 -2.28066ZM10.42 -2.28066C10.42 -2.28066 10.4 -2.32066 10.39 -2.34066H10.46C10.46 -2.34066 10.43 -2.30066 10.42 -2.28066ZM12.28 -2.28066C12.28 -2.28066 12.25 -2.32066 12.24 -2.34066H12.31C12.31 -2.34066 12.29 -2.30066 12.28 -2.28066Z" fill="#747F20" stroke="#747F20" stroke-width="0.22" stroke-miterlimit="22.93"/>
<path fill-rule="evenodd" clip-rule="evenodd" d="M10.8401 -8.69008C11.3401 -8.86008 11.9001 -9.14008 12.5601 -9.55008C11.6201 -11.0001 10.6301 -11.6201 9.71014 -11.6801C10.0601 -12.0201 10.4201 -12.4801 10.8101 -13.0901C9.69014 -13.8001 8.76014 -14.0301 8.02014 -13.9201C8.29014 -14.2001 8.56014 -14.5701 8.85014 -15.0301C7.84014 -15.6701 7.00014 -15.8701 6.35014 -15.7601C6.73014 -16.4101 7.03014 -17.3101 7.27014 -18.5301C5.33014 -18.9101 3.97014 -18.6701 3.09014 -18.0601C3.12014 -18.5301 3.09014 -19.0801 3.02014 -19.7201C1.96014 -19.6001 1.16014 -19.3301 0.590137 -18.9601C0.290137 -19.7301 -0.369863 -20.5701 -1.46986 -21.5801C-2.28986 -20.6901 -2.79986 -19.8601 -3.05986 -19.1101C-3.60986 -19.4001 -4.31986 -19.6101 -5.22986 -19.7201C-5.31986 -18.9701 -5.32986 -18.3401 -5.27986 -17.8301C-6.12986 -18.6101 -7.57986 -18.9601 -9.74986 -18.5301C-9.50986 -17.3101 -9.21986 -16.4001 -8.82986 -15.7601C-9.48986 -15.8701 -10.3199 -15.6701 -11.3299 -15.0301C-11.2599 -14.9201 -11.1899 -14.8201 -11.1199 -14.7201C-12.0299 -14.8201 -13.1699 -14.5201 -14.5399 -13.6601C-13.7599 -12.4301 -13.0799 -11.6701 -12.3899 -11.2901C-13.1199 -11.0901 -13.8799 -10.4801 -14.6099 -9.32008C-14.4099 -9.20008 -14.2299 -9.09008 -14.0499 -8.99008H-14.0399H-14.0299L-14.0199 -8.98008H-14.0099H-13.9999H-13.9899V-8.97008H-13.9799H-13.9699H-13.9599H-13.9499V-8.96008L-13.9399 -8.95008H-13.9199V-8.94008H-13.9099L-13.8999 -8.93008H-13.8899H-13.8799H-13.8699V-8.92008H-13.8599H-13.8499H-13.8399H-13.8299H-13.8199H-13.8099H-13.7999H-13.7899H-13.7799H-13.7699L-13.7499 -8.91008H-13.7399H-13.7299H-13.7199H-13.7099H-13.6999H-13.6899H-13.6799H-13.6699H-13.6599H-13.6499H-13.6399H-13.6299H-13.6199H-13.6099C-14.3499 -8.72008 -15.1199 -8.11008 -15.8599 -6.92008C-15.1999 -6.51008 -14.6299 -6.23008 -14.1499 -6.09008C-14.6399 -5.87008 -15.1299 -5.42008 -15.6099 -4.65008C-15.2199 -4.41008 -14.8799 -4.23008 -14.5699 -4.11008C-14.7899 -3.89008 -14.9999 -3.61008 -15.2099 -3.27008H-15.1899L-15.1699 -3.25008L-15.1499 -3.24008H-15.1299V-3.23008H-15.1099L-15.0999 -3.21008L-15.0799 -3.19008H-15.0699V-3.18008H-15.0499L-15.0399 -3.16008L-15.0199 -3.14008L-15.0099 -3.13008H-14.9899V-3.11008H-14.9799L-14.9599 -3.09008L-14.9499 -3.08008H-14.9299V-3.07008H-14.9099L-14.8899 -3.05008L-14.8699 -3.04008H-14.8499V-3.03008H-14.8299L-14.8099 -3.01008L-14.7899 -3.00008H-14.7799V-2.99008H-14.7599L-14.7499 -2.97008L-14.7299 -2.96008H-14.7199H-14.6999V-2.95008L-14.6799 -2.94008H-14.6699H-14.6499V-2.93008H-14.6399L-14.6199 -2.91008H-14.6099H-14.5899H-14.5699L-14.5499 -2.89008H-14.5299H-14.5099H-14.4899L-14.4799 -2.88008H-14.4599H-14.4499H-14.4299L-14.4199 -2.87008L-14.3999 -2.86008H-14.3799V-2.85008L-14.3599 -2.84008H-14.3499H-14.3299H-14.3199L-14.2999 -2.83008H-14.2899H-14.2699H-14.2499L-14.2299 -2.82008H-14.2099H-14.1999H-14.1799C-14.3699 -2.48008 -14.4999 -2.08008 -14.5699 -1.62008C-13.7499 -1.63008 -13.0999 -1.79008 -12.6999 -2.08008C-12.7099 -1.62008 -12.5999 -1.14008 -12.3899 -0.700079C-11.7899 -1.11008 -11.3199 -1.51008 -11.0599 -1.90008C-10.8399 -1.28008 -10.1599 -0.660078 -9.19986 -7.82013e-05C-9.03986 -0.340078 -8.92986 -0.690079 -8.86986 -1.05008C-8.55986 -1.10008 -8.29986 -1.17008 -8.07986 -1.28008C-8.07986 -1.19008 -8.07986 -1.09008 -8.07986 -1.00008C-7.26986 -1.01008 -6.63986 -1.17008 -6.28986 -1.46008C-6.21986 -1.00008 -6.01986 -0.520078 -5.73986 -0.0800781C-5.30986 -0.410078 -4.95986 -0.740078 -4.73986 -1.06008C-4.27986 -1.13008 -3.90986 -1.27008 -3.66986 -1.46008C-3.59986 -1.00008 -3.40986 -0.520078 -3.11986 -0.0800781C-2.81986 -0.310078 -2.56986 -0.540078 -2.35986 -0.760078C-2.15986 -0.540078 -1.89986 -0.310078 -1.59986 -0.0800781C-1.31986 -0.520078 -1.11986 -1.00008 -1.04986 -1.46008C-0.739863 -1.20008 -0.199865 -1.05008 0.490135 -1.01008C0.730135 -0.580078 1.08014 -0.180079 1.48014 0.139921C1.97014 -0.740079 2.29013 -1.50008 2.31013 -2.11008C2.53013 -1.66008 3.05014 -1.19008 3.76014 -0.710079C3.97014 -1.15008 4.08014 -1.63008 4.07014 -2.09008C4.36014 -1.88008 4.77014 -1.74008 5.29014 -1.68008C5.29014 -1.12008 5.42014 -0.540078 5.67014 -0.0100784C6.63014 -0.670078 7.31014 -1.30008 7.53014 -1.91008C7.79014 -1.52008 8.26014 -1.12008 8.86014 -0.710079C9.07014 -1.15008 9.18014 -1.63008 9.17014 -2.09008C9.57014 -1.80008 10.2201 -1.64008 11.0401 -1.63008C10.9701 -2.08008 10.8501 -2.47008 10.6601 -2.80008H10.6801H10.6901H10.7101H10.7201H10.7401H10.7501L10.7701 -2.81008H10.7801H10.8001H10.8101L10.8301 -2.82008H10.8501H10.8701H10.8901L10.9101 -2.83008H10.9301H10.9501L10.9701 -2.84008H10.9901H11.0101L11.0301 -2.86008H11.0501H11.0701H11.0901L11.1101 -2.88008L11.1301 -2.89008H11.1401H11.1601L11.1701 -2.91008L11.1901 -2.92008H11.2001H11.2201L11.2301 -2.94008L11.2501 -2.95008H11.2601H11.2801L11.2901 -2.97008L11.3101 -2.98008H11.3201V-2.99008H11.3401V-3.01008L11.3601 -3.03008L11.3701 -3.04008H11.3901V-3.06008H11.4001L11.4201 -3.08008L11.4301 -3.09008H11.4501V-3.11008H11.4601L11.4801 -3.13008L11.4901 -3.14008H11.5101V-3.15008H11.5301L11.5501 -3.17008L11.5701 -3.18008H11.5901V-3.19008H11.6101L11.6301 -3.21008L11.6501 -3.22008H11.6701V-3.23008H11.6901L11.7101 -3.26008L11.7301 -3.27008H11.7501C11.5401 -3.62008 11.3301 -3.90008 11.1101 -4.12008C11.4201 -4.24008 11.7601 -4.42008 12.1501 -4.66008C11.6701 -5.43008 11.1701 -5.88008 10.6901 -6.10008C11.1801 -6.24008 11.7401 -6.52008 12.4001 -6.93008C11.7201 -8.03008 11.0001 -8.63008 10.3101 -8.86008L10.8401 -8.69008ZM-7.19986 -2.33008V-2.36008H-7.16986L-7.19986 -2.33008ZM-5.66986 -2.29008C-5.66986 -2.29008 -5.68986 -2.34008 -5.69986 -2.36008H-5.61986C-5.61986 -2.36008 -5.64986 -2.32008 -5.66986 -2.29008ZM-3.05986 -2.29008C-3.05986 -2.29008 -3.07986 -2.34008 -3.08986 -2.36008H-3.00986C-3.00986 -2.36008 -3.03986 -2.32008 -3.05986 -2.29008ZM-0.849864 -2.29008C-0.849864 -2.29008 -0.879863 -2.34008 -0.899863 -2.36008H-0.819863C-0.819863 -2.36008 -0.839864 -2.31008 -0.849864 -2.29008Z" fill="#BACD3F"/>
<path fill-rule="evenodd" clip-rule="evenodd" d="M10.8401 -8.68996C11.3401 -8.85996 11.9001 -9.13996 12.5601 -9.54996C11.6601 -10.93 10.7201 -11.56 9.84009 -11.67C9.86009 -11.56 9.88009 -11.45 9.89009 -11.33C9.18009 -11.34 8.61009 -11.5 8.26009 -11.79C8.26009 -11.33 8.17009 -10.85 7.99009 -10.41C7.46009 -10.82 7.06009 -11.22 6.83009 -11.61C6.64009 -10.99 6.05009 -10.37 5.21009 -9.70996C4.99009 -10.24 4.87009 -10.83 4.87009 -11.38C4.42009 -11.45 4.06009 -11.59 3.81009 -11.79C3.81009 -11.33 3.72009 -10.85 3.54009 -10.41C2.93009 -10.89 2.47009 -11.35 2.28009 -11.81C2.26009 -11.2 1.98009 -10.44 1.55009 -9.55996C1.20009 -9.87996 0.890088 -10.28 0.680088 -10.71C0.070088 -10.75 -0.389912 -10.9 -0.669912 -11.16C-0.729912 -10.7 -0.899912 -10.22 -1.14991 -9.77996C-1.40991 -10.01 -1.62991 -10.24 -1.80991 -10.46C-1.98991 -10.24 -2.20991 -10.01 -2.46991 -9.77996C-2.71991 -10.22 -2.88991 -10.7 -2.94991 -11.16C-3.15991 -10.96 -3.47991 -10.83 -3.87991 -10.76C-4.06991 -10.44 -4.36991 -10.11 -4.74991 -9.77996C-4.99991 -10.22 -5.16991 -10.7 -5.22991 -11.16C-5.53991 -10.87 -6.07991 -10.71 -6.78991 -10.7C-6.78991 -10.8 -6.78991 -10.89 -6.78991 -10.98C-6.97991 -10.88 -7.20991 -10.8 -7.47991 -10.75C-7.52991 -10.39 -7.62991 -10.04 -7.76991 -9.69996C-8.60991 -10.36 -9.19991 -10.98 -9.38991 -11.6C-9.61991 -11.21 -10.0199 -10.81 -10.5499 -10.4C-10.7299 -10.84 -10.8299 -11.32 -10.8199 -11.78C-11.1699 -11.49 -11.7399 -11.33 -12.4499 -11.32C-12.3899 -11.78 -12.2799 -12.17 -12.1099 -12.51H-12.1199H-12.1299L-12.1399 -12.52H-12.1499H-12.1599H-12.1699L-12.1799 -12.53H-12.1899H-12.1999H-12.2099V-12.54H-12.2199H-12.2299V-12.55L-12.2399 -12.56H-12.2499H-12.2599L-12.2799 -12.57H-12.2899H-12.3099H-12.3199L-12.3399 -12.59H-12.3599L-12.3699 -12.61L-12.3899 -12.62H-12.3999H-12.4199L-12.4299 -12.63L-12.4499 -12.64H-12.4699V-12.65L-12.4899 -12.66H-12.5099V-12.67H-12.5199L-12.5399 -12.69L-12.5499 -12.7H-12.5699V-12.71H-12.5799L-12.5999 -12.73L-12.6199 -12.74H-12.6399V-12.75H-12.6599L-12.6699 -12.77L-12.6899 -12.78H-12.6999V-12.79H-12.7199L-12.7299 -12.81L-12.7499 -12.83V-12.84H-12.7699V-12.86L-12.7899 -12.88L-12.7999 -12.89H-12.8199V-12.91H-12.8299L-12.8499 -12.93L-12.8599 -12.94H-12.8799V-12.95H-12.8999L-12.9199 -12.98C-12.7399 -13.32 -12.5499 -13.59 -12.3599 -13.82C-12.5699 -13.91 -12.7899 -14.04 -13.0399 -14.21C-13.4499 -14.04 -13.8799 -13.81 -14.3399 -13.52C-13.5599 -12.29 -12.8799 -11.53 -12.1899 -11.15C-12.9199 -10.95 -13.6799 -10.34 -14.4099 -9.17996C-14.2099 -9.05996 -14.0299 -8.94996 -13.8499 -8.84996H-13.8399H-13.8299L-13.8199 -8.83996H-13.8099H-13.7999H-13.7899V-8.82996H-13.7799H-13.7699H-13.7599H-13.7499V-8.81996L-13.7399 -8.80996H-13.7199V-8.79996H-13.7099L-13.6999 -8.78996H-13.6899H-13.6799H-13.6699V-8.77996H-13.6599H-13.6499H-13.6399H-13.6299H-13.6199H-13.6099H-13.5999H-13.5899H-13.5799H-13.5699L-13.5499 -8.76996H-13.5399H-13.5299H-13.5199H-13.5099H-13.4999H-13.4899H-13.4799H-13.4699H-13.4599H-13.4499H-13.4399H-13.4299H-13.4199H-13.4099C-14.1499 -8.57996 -14.9199 -7.96996 -15.6599 -6.77996C-14.9999 -6.36996 -14.4299 -6.08996 -13.9499 -5.94996C-14.4399 -5.72996 -14.9299 -5.27996 -15.4099 -4.50996C-15.0199 -4.26996 -14.6799 -4.08996 -14.3699 -3.96996C-14.5899 -3.74996 -14.7999 -3.46996 -15.0099 -3.12996H-14.9899L-14.9699 -3.10996L-14.9499 -3.09996H-14.9299V-3.08996H-14.9099L-14.8999 -3.06996L-14.8799 -3.04996H-14.8699V-3.03996H-14.8499L-14.8399 -3.01996L-14.8199 -2.99996L-14.8099 -2.98996H-14.7899V-2.96996H-14.7799L-14.7599 -2.94996L-14.7499 -2.93996H-14.7299V-2.92996H-14.7099L-14.6899 -2.90996L-14.6699 -2.89996H-14.6499V-2.88996H-14.6299L-14.6099 -2.86996L-14.5899 -2.85996H-14.5799V-2.84996H-14.5599L-14.5499 -2.82996L-14.5299 -2.81996H-14.5199H-14.4999V-2.80996L-14.4799 -2.79996H-14.4699H-14.4499V-2.78996H-14.4399L-14.4199 -2.76996H-14.4099H-14.3899H-14.3699L-14.3499 -2.74996H-14.3299H-14.3099H-14.2899L-14.2799 -2.73996H-14.2599H-14.2499H-14.2299L-14.2199 -2.72996L-14.1999 -2.71996H-14.1799V-2.70996L-14.1599 -2.69996H-14.1499H-14.1299H-14.1199L-14.0999 -2.68996H-14.0899H-14.0699H-14.0499L-14.0299 -2.67996H-14.0099H-13.9999H-13.9799C-14.1699 -2.33996 -14.2999 -1.93996 -14.3699 -1.47996C-13.5499 -1.48996 -12.8999 -1.64996 -12.4999 -1.93996C-12.5099 -1.47996 -12.3999 -0.99996 -12.1899 -0.55996C-11.5899 -0.96996 -11.1199 -1.36996 -10.8599 -1.75996C-10.6399 -1.13996 -9.95991 -0.519962 -8.99991 0.140038C-8.83991 -0.199962 -8.72991 -0.549961 -8.66991 -0.909961C-8.35991 -0.959961 -8.09991 -1.02996 -7.87991 -1.13996C-7.87991 -1.04996 -7.87991 -0.949962 -7.87991 -0.859962C-7.06991 -0.869962 -6.43991 -1.02996 -6.08991 -1.31996C-6.01991 -0.859961 -5.81991 -0.379961 -5.53991 0.0600386C-5.10991 -0.269961 -4.75991 -0.599961 -4.53991 -0.919961C-4.07991 -0.989961 -3.70991 -1.12996 -3.46991 -1.31996C-3.39991 -0.859961 -3.20991 -0.379961 -2.91991 0.0600386C-2.61991 -0.169961 -2.36991 -0.399962 -2.15991 -0.619962C-1.95991 -0.399962 -1.69991 -0.169961 -1.39991 0.0600386C-1.11991 -0.379961 -0.919913 -0.859961 -0.849913 -1.31996C-0.539913 -1.05996 8.82745e-05 -0.909962 0.690088 -0.869962C0.930088 -0.439962 1.28009 -0.0399621 1.68009 0.280038C2.17009 -0.599962 2.49009 -1.35996 2.51009 -1.96996C2.73009 -1.51996 3.25009 -1.04996 3.96009 -0.569961C4.17009 -1.00996 4.28009 -1.48996 4.27009 -1.94996C4.56009 -1.73996 4.97009 -1.59996 5.49009 -1.53996C5.49009 -0.979962 5.62009 -0.399962 5.87009 0.130038C6.83009 -0.529962 7.51009 -1.15996 7.73009 -1.76996C7.99009 -1.37996 8.46009 -0.979961 9.06009 -0.569961C9.27009 -1.00996 9.38009 -1.48996 9.37009 -1.94996C9.77009 -1.65996 10.4201 -1.49996 11.2401 -1.48996C11.1701 -1.93996 11.0501 -2.32996 10.8601 -2.65996H10.8801H10.8901H10.9101H10.9201H10.9401H10.9501L10.9701 -2.66996H10.9801H11.0001H11.0101L11.0301 -2.67996H11.0501H11.0701H11.0901L11.1101 -2.68996H11.1301H11.1501L11.1701 -2.69996H11.1901H11.2101L11.2301 -2.71996H11.2501H11.2701H11.2901L11.3101 -2.73996L11.3301 -2.74996H11.3401H11.3601L11.3701 -2.76996L11.3901 -2.77996H11.4001H11.4201L11.4301 -2.79996L11.4501 -2.80996H11.4601H11.4801L11.4901 -2.82996L11.5101 -2.83996H11.5201V-2.84996H11.5401V-2.86996L11.5601 -2.88996L11.5701 -2.89996H11.5901V-2.91996H11.6001L11.6201 -2.93996L11.6301 -2.94996H11.6501V-2.96996H11.6601L11.6801 -2.98996L11.6901 -2.99996H11.7101V-3.00996H11.7301L11.7501 -3.02996L11.7701 -3.03996H11.7901V-3.04996H11.8101L11.8301 -3.06996L11.8501 -3.07996H11.8701V-3.08996H11.8901L11.9101 -3.11996L11.9301 -3.12996H11.9501C11.7401 -3.47996 11.5301 -3.75996 11.3101 -3.97996C11.6201 -4.09996 11.9601 -4.27996 12.3501 -4.51996C11.8701 -5.28996 11.3701 -5.73996 10.8901 -5.95996C11.3801 -6.09996 11.9401 -6.37996 12.6001 -6.78996C11.9201 -7.88996 11.2001 -8.48996 10.5101 -8.71996L10.8401 -8.68996ZM-7.19991 -2.32996V-2.35996H-7.16991L-7.19991 -2.32996ZM-5.66991 -2.28996C-5.66991 -2.28996 -5.68991 -2.33996 -5.69991 -2.35996H-5.61991C-5.61991 -2.35996 -5.64991 -2.31996 -5.66991 -2.28996ZM-3.05991 -2.28996C-3.05991 -2.28996 -3.07991 -2.33996 -3.08991 -2.35996H-3.00991C-3.00991 -2.35996 -3.03991 -2.31996 -3.05991 -2.28996ZM-0.849913 -2.28996C-0.849913 -2.28996 -0.879912 -2.33996 -0.899912 -2.35996H-0.819912C-0.819912 -2.35996 -0.839913 -2.30996 -0.849913 -2.28996Z" fill="#A9BC30"/>
<path fill-rule="evenodd" clip-rule="evenodd" d="M11.8 -8.12012L11.78 -8.10012L11.77 -8.09012H11.75V-8.08012H11.74L11.72 -8.06012L11.71 -8.05012H11.69V-8.04012H11.68L11.66 -8.02012H11.65H11.63V-8.01012H11.62L11.6 -7.99012H11.59H11.57V-7.98012H11.55L11.53 -7.96012H11.51H11.49H11.47L11.45 -7.94012H11.43H11.41L11.39 -7.93012H11.37H11.35L11.33 -7.92012H11.31H11.29H11.27L11.26 -7.91012H11.24H11.23H11.21L11.2 -7.90012H11.18H11.17H11.15H11.14H11.12C11.31 -7.57012 11.43 -7.17012 11.5 -6.73012C10.68 -6.74012 10.03 -6.90012 9.63004 -7.19012C9.64004 -6.73012 9.53004 -6.25012 9.32004 -5.81012C8.72004 -6.22012 8.25004 -6.62012 7.99004 -7.01012C7.77004 -6.39012 7.09004 -5.77012 6.13004 -5.11012C5.88004 -5.64012 5.74004 -6.23012 5.75004 -6.78012C5.24004 -6.85012 4.82004 -6.99012 4.53004 -7.19012C4.54004 -6.73012 4.43004 -6.25012 4.22004 -5.81012C3.52004 -6.29012 3.00004 -6.75012 2.77004 -7.21012C2.74004 -6.60012 2.43004 -5.84012 1.94004 -4.96012C1.54004 -5.28012 1.19004 -5.68012 0.950039 -6.11012C0.260039 -6.15012 -0.279961 -6.30012 -0.589961 -6.56012C-0.659961 -6.10012 -0.85996 -5.62012 -1.13996 -5.18012C-1.43996 -5.41012 -1.68996 -5.64012 -1.89996 -5.86012C-2.09996 -5.64012 -2.35996 -5.41012 -2.65996 -5.18012C-2.93996 -5.62012 -3.13996 -6.10012 -3.20996 -6.56012C-3.44996 -6.36012 -3.80996 -6.23012 -4.27996 -6.16012C-4.49996 -5.84012 -4.83996 -5.51012 -5.27996 -5.18012C-5.55996 -5.62012 -5.75996 -6.10012 -5.82996 -6.56012C-6.17996 -6.27012 -6.79996 -6.11012 -7.61996 -6.10012C-7.61996 -6.20012 -7.61996 -6.29012 -7.61996 -6.38012C-7.82996 -6.28012 -8.09996 -6.20012 -8.40996 -6.15012C-8.46996 -5.79012 -8.58996 -5.44012 -8.73996 -5.10012C-9.69996 -5.76012 -10.38 -6.38012 -10.6 -7.00012C-10.86 -6.61012 -11.33 -6.21012 -11.93 -5.80012C-12.14 -6.24012 -12.25 -6.72012 -12.24 -7.18012C-12.64 -6.89012 -13.29 -6.73012 -14.11 -6.72012C-14.04 -7.18012 -13.92 -7.57012 -13.72 -7.91012H-13.74H-13.75L-13.77 -7.92012H-13.79H-13.81H-13.83L-13.84 -7.93012H-13.86H-13.87H-13.89L-13.9 -7.94012H-13.92H-13.94V-7.95012L-13.96 -7.96012H-13.97H-13.99H-14L-14.02 -7.97012H-14.03H-14.05H-14.07L-14.09 -7.99012H-14.11H-14.13H-14.15L-14.16 -8.01012L-14.18 -8.02012H-14.19H-14.21L-14.22 -8.03012L-14.24 -8.04012H-14.26V-8.05012H-14.27L-14.29 -8.07012H-14.3H-14.32V-8.08012H-14.33C-14.71 -7.76012 -15.09 -7.31012 -15.46 -6.72012C-14.8 -6.31012 -14.23 -6.03012 -13.75 -5.89012C-14.24 -5.67012 -14.73 -5.22012 -15.21 -4.45012C-14.82 -4.21012 -14.48 -4.03012 -14.17 -3.91012C-14.39 -3.69012 -14.6 -3.41012 -14.81 -3.07012H-14.79L-14.77 -3.05012L-14.75 -3.04012H-14.73V-3.03012H-14.71L-14.7 -3.01012L-14.68 -2.99012H-14.67V-2.98012H-14.65L-14.64 -2.96012L-14.62 -2.94012L-14.61 -2.93012H-14.59V-2.91012H-14.58L-14.56 -2.89012L-14.55 -2.88012H-14.53V-2.87012H-14.51L-14.49 -2.85012L-14.47 -2.84012H-14.45V-2.83012H-14.43L-14.41 -2.81012L-14.39 -2.80012H-14.38V-2.79012H-14.36L-14.35 -2.77012L-14.33 -2.76012H-14.32H-14.3V-2.75012L-14.28 -2.74012H-14.27H-14.25V-2.73012H-14.24L-14.22 -2.71012H-14.21H-14.19H-14.17L-14.15 -2.69012H-14.13H-14.11H-14.09L-14.08 -2.68012H-14.06H-14.05H-14.03L-14.02 -2.67012L-14 -2.66012H-13.98V-2.65012L-13.96 -2.64012H-13.95H-13.93H-13.92L-13.9 -2.63012H-13.89H-13.87H-13.85L-13.83 -2.62012H-13.81H-13.8H-13.78C-13.97 -2.28012 -14.1 -1.88012 -14.17 -1.42012C-13.35 -1.43012 -12.7 -1.59012 -12.3 -1.88012C-12.31 -1.42012 -12.2 -0.940117 -11.99 -0.500117C-11.39 -0.910117 -10.92 -1.31012 -10.66 -1.70012C-10.44 -1.08012 -9.75996 -0.460118 -8.79996 0.199882C-8.63996 -0.140118 -8.52996 -0.490118 -8.46996 -0.850118C-8.15996 -0.900118 -7.89996 -0.970117 -7.67996 -1.08012C-7.67996 -0.990117 -7.67996 -0.890118 -7.67996 -0.800118C-6.86996 -0.810118 -6.23996 -0.970118 -5.88996 -1.26012C-5.81996 -0.800118 -5.61996 -0.320118 -5.33996 0.119882C-4.90996 -0.210118 -4.55996 -0.540118 -4.33996 -0.860118C-3.87996 -0.930118 -3.50996 -1.07012 -3.26996 -1.26012C-3.19996 -0.800118 -3.00996 -0.320118 -2.71996 0.119882C-2.41996 -0.110118 -2.16996 -0.340117 -1.95996 -0.560117C-1.75996 -0.340117 -1.49996 -0.110118 -1.19996 0.119882C-0.919962 -0.320118 -0.719961 -0.800118 -0.649961 -1.26012C-0.339961 -1.00012 0.200038 -0.850117 0.890038 -0.810117C1.13004 -0.380117 1.48004 0.0198829 1.88004 0.339883C2.37004 -0.540117 2.69004 -1.30012 2.71004 -1.91012C2.93004 -1.46012 3.45004 -0.990118 4.16004 -0.510118C4.37004 -0.950118 4.48004 -1.43012 4.47004 -1.89012C4.76004 -1.68012 5.17004 -1.54012 5.69004 -1.48012C5.69004 -0.920117 5.82004 -0.340117 6.07004 0.189883C7.03004 -0.470117 7.71004 -1.10012 7.93004 -1.71012C8.19004 -1.32012 8.66004 -0.920118 9.26004 -0.510118C9.47004 -0.950118 9.58004 -1.43012 9.57004 -1.89012C9.97004 -1.60012 10.62 -1.44012 11.44 -1.43012C11.37 -1.88012 11.25 -2.27012 11.06 -2.60012H11.08H11.09H11.11H11.12H11.14H11.15L11.17 -2.61012H11.18H11.2H11.21L11.23 -2.62012H11.25H11.27H11.29L11.31 -2.63012H11.33H11.35L11.37 -2.64012H11.39H11.41L11.43 -2.66012H11.45H11.47H11.49L11.51 -2.68012L11.53 -2.69012H11.54H11.56L11.57 -2.71012L11.59 -2.72012H11.6H11.62L11.63 -2.74012L11.65 -2.75012H11.66H11.68L11.69 -2.77012L11.71 -2.78012H11.72V-2.79012H11.74V-2.81012L11.76 -2.83012L11.77 -2.84012H11.79V-2.86012H11.8L11.82 -2.88012L11.83 -2.89012H11.85V-2.91012H11.86L11.88 -2.93012L11.89 -2.94012H11.91V-2.95012H11.93L11.95 -2.97012L11.97 -2.98012H11.99V-2.99012H12.01L12.03 -3.01012L12.05 -3.02012H12.07V-3.03012H12.09L12.11 -3.06012L12.13 -3.07012H12.15C11.94 -3.42012 11.73 -3.70012 11.51 -3.92012C11.82 -4.04012 12.16 -4.22012 12.55 -4.46012C12.07 -5.23012 11.57 -5.68012 11.09 -5.90012C11.58 -6.04012 12.14 -6.32012 12.8 -6.73012C12.43 -7.32012 12.05 -7.77012 11.67 -8.10012L11.8 -8.12012ZM-7.19996 -2.33012V-2.36012H-7.16996L-7.19996 -2.33012ZM-5.66996 -2.29012C-5.66996 -2.29012 -5.68996 -2.34012 -5.69996 -2.36012H-5.61996C-5.61996 -2.36012 -5.64996 -2.32012 -5.66996 -2.29012ZM-3.05996 -2.29012C-3.05996 -2.29012 -3.07996 -2.34012 -3.08996 -2.36012H-3.00996C-3.00996 -2.36012 -3.03996 -2.32012 -3.05996 -2.29012ZM-0.849961 -2.29012C-0.849961 -2.29012 -0.879961 -2.34012 -0.899961 -2.36012H-0.819961C-0.819961 -2.36012 -0.839961 -2.31012 -0.849961 -2.29012Z" fill="#91A129"/>
</g>
</svg>
