<svg width="24" height="24" viewBox="0 0 24 24" fill="none" xmlns="http://www.w3.org/2000/svg">
<g clip-path="url(#clip0_44_147002)">
<path fill-rule="evenodd" clip-rule="evenodd" d="M0.929083 4.625C0.929083 6.95313 0.343526 9.82031 0.343526 12.1406C0.343526 14.2734 2.26415 16.3594 2.00651 18.6406C1.78009 20.6328 0.00780742 22.1328 0.00780742 24H23.9922V0H0C0 1.67188 0.929083 2.95312 0.929083 4.625Z" fill="#7B4720"/>
<path fill-rule="evenodd" clip-rule="evenodd" d="M6.80807 12.7578C5.80872 11.5391 6.33962 11.2656 6.87053 10.2578C7.39362 9.24219 6.04294 7.97656 5.41835 7.27344C4.79375 6.57031 4.5283 6.84375 4.59857 5.92969C4.66884 5.00781 6.05856 4.40625 6.01171 3.19531C5.96487 1.98437 4.63761 2.1875 4.98894 0.0078125H0C0 1.67969 0.929083 2.96094 0.929083 4.63281C0.929083 6.96094 0.343526 9.82812 0.343526 12.1484C0.343526 14.2812 2.26415 16.3672 2.00651 18.6484C1.78009 20.6406 0.00780742 22.1406 0.00780742 24.0078H4.98894C5.30904 23.0625 5.20755 22.6875 6.26936 22.1563C7.32336 21.625 6.02733 19.1328 5.48081 18.8672C0.374756 16.3828 8.9473 15.3594 6.82368 12.7656L6.80807 12.7578Z" fill="#AB6C48"/>
<path fill-rule="evenodd" clip-rule="evenodd" d="M10.9459 5.14844C11.5003 4.88281 12.7885 2.39063 11.7345 1.85938C10.6805 1.32813 9.69675 0.96875 9.69675 0.0078125H4.98107C4.62974 2.1875 5.957 1.97656 6.00384 3.19531C6.05069 4.40625 4.66096 5.00781 4.5907 5.92969C4.52043 6.85156 4.78588 6.57813 5.41048 7.27344C6.03507 7.97656 7.39356 9.25 6.86266 10.2578C6.33956 11.2734 5.80866 11.5391 6.8002 12.7578C8.92381 15.3516 0.35127 16.375 5.45732 18.8594C6.01165 19.125 7.29987 21.6172 6.24587 22.1484C5.19187 22.6797 5.02011 23.0391 5.02011 24H9.68894C9.79044 21.8203 11.4222 22.0312 11.469 20.8125C11.5159 19.6016 10.1262 19 10.0559 18.0781C9.98562 17.1562 10.2511 17.4297 10.8757 16.7344C11.5003 16.0312 12.8588 14.7578 12.3278 13.75C11.8048 12.7344 11.2738 12.4609 12.2654 11.25C14.389 8.65625 5.81646 7.63281 10.9225 5.14844H10.9459Z" fill="#8F5833"/>
<path fill-rule="evenodd" clip-rule="evenodd" d="M10.3213 2.28125C9.72796 2.28125 9.2439 2.76562 9.2439 3.35156C9.2439 3.9375 9.72796 4.42187 10.3213 4.42187C10.9147 4.42187 11.3987 3.9375 11.3987 3.35156C11.3987 2.76562 10.9147 2.28125 10.3213 2.28125Z" fill="#7B4720"/>
<path d="M8.45581 1.99219C8.73195 1.99219 8.95581 1.76833 8.95581 1.49219C8.95581 1.21605 8.73195 0.992188 8.45581 0.992188C8.17967 0.992188 7.95581 1.21605 7.95581 1.49219C7.95581 1.76833 8.17967 1.99219 8.45581 1.99219Z" fill="#7B4720"/>
<path fill-rule="evenodd" clip-rule="evenodd" d="M7.17529 6.35938C6.89404 6.35938 6.65967 6.58594 6.65967 6.875C6.65967 7.16406 6.88623 7.39062 7.17529 7.39062C7.46436 7.39062 7.69092 7.16406 7.69092 6.875C7.69092 6.58594 7.46436 6.35938 7.17529 6.35938Z" fill="#7B4720"/>
<path fill-rule="evenodd" clip-rule="evenodd" d="M10.3449 8.95312C9.87646 8.95312 9.4939 9.33594 9.4939 9.80469C9.4939 10.2734 9.87646 10.6563 10.3449 10.6563C10.8134 10.6563 11.1959 10.2734 11.1959 9.80469C11.1959 9.33594 10.8134 8.95312 10.3449 8.95312Z" fill="#7B4720"/>
<path fill-rule="evenodd" clip-rule="evenodd" d="M10.868 13.2969C10.3528 13.2969 9.93115 13.7187 9.93115 14.2344C9.93115 14.75 10.3528 15.1719 10.868 15.1719C11.3833 15.1719 11.8049 14.75 11.8049 14.2344C11.8049 13.7187 11.3833 13.2969 10.868 13.2969Z" fill="#7B4720"/>
<path fill-rule="evenodd" clip-rule="evenodd" d="M8.604 12.9531C8.39307 12.9531 8.229 13.125 8.229 13.3281C8.229 13.5312 8.40088 13.7031 8.604 13.7031C8.80713 13.7031 8.979 13.5312 8.979 13.3281C8.979 13.125 8.80713 12.9531 8.604 12.9531Z" fill="#7B4720"/>
<path fill-rule="evenodd" clip-rule="evenodd" d="M8.3855 17.7422C8.09644 17.7422 7.86206 17.9766 7.86206 18.2656C7.86206 18.5547 8.09644 18.7891 8.3855 18.7891C8.67456 18.7891 8.90894 18.5547 8.90894 18.2656C8.90894 17.9766 8.67456 17.7422 8.3855 17.7422Z" fill="#7B4720"/>
<path fill-rule="evenodd" clip-rule="evenodd" d="M7.87036 15.5391C7.44849 15.5391 7.10474 15.8828 7.10474 16.3047C7.10474 16.7266 7.44849 17.0703 7.87036 17.0703C8.29224 17.0703 8.63599 16.7266 8.63599 16.3047C8.63599 15.8828 8.29224 15.5391 7.87036 15.5391Z" fill="#7B4720"/>
<path fill-rule="evenodd" clip-rule="evenodd" d="M9.97827 20.2422C9.63452 20.2422 9.35327 20.5234 9.35327 20.8672C9.35327 21.2109 9.63452 21.4922 9.97827 21.4922C10.322 21.4922 10.6033 21.2109 10.6033 20.8672C10.6033 20.5234 10.322 20.2422 9.97827 20.2422Z" fill="#7B4720"/>
<path d="M8.36963 21.9688C8.53359 21.9688 8.6665 21.8358 8.6665 21.6719C8.6665 21.5079 8.53359 21.375 8.36963 21.375C8.20567 21.375 8.07275 21.5079 8.07275 21.6719C8.07275 21.8358 8.20567 21.9688 8.36963 21.9688Z" fill="#7B4720"/>
<path fill-rule="evenodd" clip-rule="evenodd" d="M12.5703 0.578125C12.3281 0.578125 12.1328 0.773437 12.1328 1.01562C12.1328 1.25781 12.3281 1.45313 12.5703 1.45313C12.8125 1.45313 13.0078 1.25781 13.0078 1.01562C13.0078 0.773437 12.8125 0.578125 12.5703 0.578125Z" fill="#8F5833"/>
<path fill-rule="evenodd" clip-rule="evenodd" d="M14.1162 3.4375C13.8506 3.4375 13.6396 3.64844 13.6396 3.91406C13.6396 4.17969 13.8506 4.39062 14.1162 4.39062C14.3818 4.39062 14.5928 4.17969 14.5928 3.91406C14.5928 3.64844 14.3818 3.4375 14.1162 3.4375Z" fill="#8F5833"/>
<path fill-rule="evenodd" clip-rule="evenodd" d="M11.0166 5.72656C10.7432 5.72656 10.5166 5.95312 10.5166 6.22656C10.5166 6.5 10.7432 6.72656 11.0166 6.72656C11.29 6.72656 11.5166 6.5 11.5166 6.22656C11.5166 5.95312 11.29 5.72656 11.0166 5.72656Z" fill="#8F5833"/>
<path fill-rule="evenodd" clip-rule="evenodd" d="M14.0691 9.19531C13.9128 9.19531 13.7878 9.32031 13.7878 9.47656C13.7878 9.63281 13.9128 9.75781 14.0691 9.75781C14.2253 9.75781 14.3503 9.63281 14.3503 9.47656C14.3503 9.32031 14.2253 9.19531 14.0691 9.19531Z" fill="#8F5833"/>
<path fill-rule="evenodd" clip-rule="evenodd" d="M12.8198 12.3203C12.6792 12.3203 12.562 12.4375 12.562 12.5781C12.562 12.7187 12.6792 12.8359 12.8198 12.8359C12.9604 12.8359 13.0776 12.7187 13.0776 12.5781C13.0776 12.4375 12.9604 12.3203 12.8198 12.3203Z" fill="#8F5833"/>
<path fill-rule="evenodd" clip-rule="evenodd" d="M13.2026 16.3047C13.0073 16.3047 12.8511 16.4609 12.8511 16.6562C12.8511 16.8516 13.0073 17.0078 13.2026 17.0078C13.3979 17.0078 13.5542 16.8516 13.5542 16.6562C13.5542 16.4609 13.3979 16.3047 13.2026 16.3047Z" fill="#8F5833"/>
<path d="M12.0942 19.3359C12.4696 19.3359 12.7739 19.0316 12.7739 18.6562C12.7739 18.2809 12.4696 17.9766 12.0942 17.9766C11.7189 17.9766 11.4146 18.2809 11.4146 18.6562C11.4146 19.0316 11.7189 19.3359 12.0942 19.3359Z" fill="#8F5833"/>
<path fill-rule="evenodd" clip-rule="evenodd" d="M12.4922 21.8203C12.2734 21.8203 12.0859 22 12.0859 22.2266C12.0859 22.4531 12.2656 22.6328 12.4922 22.6328C12.7188 22.6328 12.8984 22.4531 12.8984 22.2266C12.8984 22 12.7188 21.8203 12.4922 21.8203Z" fill="#8F5833"/>
<path fill-rule="evenodd" clip-rule="evenodd" d="M3.49023 1.3125C3.20898 1.3125 2.97461 1.53906 2.97461 1.82813C2.97461 2.11719 3.20117 2.34375 3.49023 2.34375C3.7793 2.34375 4.00586 2.11719 4.00586 1.82813C4.00586 1.53906 3.7793 1.3125 3.49023 1.3125Z" fill="#8F5833"/>
<path d="M4.85615 9.82812C5.31321 9.82812 5.68374 9.45736 5.68374 9C5.68374 8.54264 5.31321 8.17188 4.85615 8.17188C4.39909 8.17188 4.02856 8.54264 4.02856 9C4.02856 9.45736 4.39909 9.82812 4.85615 9.82812Z" fill="#8F5833"/>
<path fill-rule="evenodd" clip-rule="evenodd" d="M4.06787 12.2266C3.88818 12.2266 3.73975 12.375 3.73975 12.5547C3.73975 12.7344 3.88818 12.8828 4.06787 12.8828C4.24756 12.8828 4.396 12.7344 4.396 12.5547C4.396 12.375 4.24756 12.2266 4.06787 12.2266Z" fill="#8F5833"/>
<path fill-rule="evenodd" clip-rule="evenodd" d="M4.68481 21.3359C4.427 21.3359 4.22388 21.5469 4.22388 21.7969C4.22388 22.0469 4.43481 22.2578 4.68481 22.2578C4.93481 22.2578 5.14575 22.0469 5.14575 21.7969C5.14575 21.5469 4.93481 21.3359 4.68481 21.3359Z" fill="#8F5833"/>
<path fill-rule="evenodd" clip-rule="evenodd" d="M4.02881 19.2344C3.896 19.2344 3.78662 19.3437 3.78662 19.4766C3.78662 19.6094 3.896 19.7187 4.02881 19.7187C4.16162 19.7187 4.271 19.6094 4.271 19.4766C4.271 19.3437 4.16162 19.2344 4.02881 19.2344Z" fill="#8F5833"/>
<path fill-rule="evenodd" clip-rule="evenodd" d="M5.62912 13.1797C5.1919 13.1797 4.83276 13.5312 4.83276 13.9766C4.83276 14.4219 5.1841 14.7734 5.62912 14.7734C6.07414 14.7734 6.42548 14.4219 6.42548 13.9766C6.42548 13.5312 6.07414 13.1797 5.62912 13.1797Z" fill="#8F5833"/>
<path d="M7.22217 3.6875C7.41633 3.6875 7.57373 3.5301 7.57373 3.33594C7.57373 3.14177 7.41633 2.98438 7.22217 2.98438C7.02801 2.98438 6.87061 3.14177 6.87061 3.33594C6.87061 3.5301 7.02801 3.6875 7.22217 3.6875Z" fill="#AB6C48"/>
<path fill-rule="evenodd" clip-rule="evenodd" d="M5.53564 6.5625C5.43408 6.5625 5.34814 6.64844 5.34814 6.75C5.34814 6.85156 5.43408 6.9375 5.53564 6.9375C5.63721 6.9375 5.72314 6.85156 5.72314 6.75C5.72314 6.64844 5.63721 6.5625 5.53564 6.5625Z" fill="#AB6C48"/>
<path fill-rule="evenodd" clip-rule="evenodd" d="M7.33154 10.4688C7.08154 10.4688 6.87842 10.6719 6.87842 10.9219C6.87842 11.1719 7.08154 11.375 7.33154 11.375C7.58154 11.375 7.78467 11.1719 7.78467 10.9219C7.78467 10.6719 7.58154 10.4688 7.33154 10.4688Z" fill="#AB6C48"/>
<path fill-rule="evenodd" clip-rule="evenodd" d="M5.80884 16.6484C5.66821 16.6484 5.55103 16.7656 5.55103 16.9062C5.55103 17.0469 5.66821 17.1641 5.80884 17.1641C5.94946 17.1641 6.06665 17.0469 6.06665 16.9062C6.06665 16.7656 5.94946 16.6484 5.80884 16.6484Z" fill="#AB6C48"/>
<path fill-rule="evenodd" clip-rule="evenodd" d="M6.66772 22.5547C6.5271 22.5547 6.40991 22.6719 6.40991 22.8125C6.40991 22.9531 6.5271 23.0703 6.66772 23.0703C6.80835 23.0703 6.92554 22.9531 6.92554 22.8125C6.92554 22.6719 6.80835 22.5547 6.66772 22.5547Z" fill="#AB6C48"/>
<path fill-rule="evenodd" clip-rule="evenodd" d="M16.8254 0.773438C16.4192 0.773438 16.0911 1.10156 16.0911 1.50781C16.0911 1.91406 16.4192 2.24219 16.8254 2.24219C17.2317 2.24219 17.5598 1.91406 17.5598 1.50781C17.5598 1.10156 17.2317 0.773438 16.8254 0.773438Z" fill="#63391B"/>
<path d="M12.5779 5.78125C12.6599 5.78125 12.7263 5.71479 12.7263 5.63281C12.7263 5.55083 12.6599 5.48438 12.5779 5.48438C12.4959 5.48438 12.4294 5.55083 12.4294 5.63281C12.4294 5.71479 12.4959 5.78125 12.5779 5.78125Z" fill="#63391B"/>
<path d="M22.6805 4.73438C23.4093 4.73438 24 4.14325 24 3.41406C24 2.68487 23.4093 2.09375 22.6805 2.09375C21.9518 2.09375 21.3611 2.68487 21.3611 3.41406C21.3611 4.14325 21.9518 4.73438 22.6805 4.73438Z" fill="#63391B"/>
<path fill-rule="evenodd" clip-rule="evenodd" d="M18.9568 8.0625C18.6521 8.0625 18.4099 8.30469 18.4099 8.60938C18.4099 8.91406 18.6521 9.15625 18.9568 9.15625C19.2615 9.15625 19.5037 8.91406 19.5037 8.60938C19.5037 8.30469 19.2615 8.0625 18.9568 8.0625Z" fill="#63391B"/>
<path fill-rule="evenodd" clip-rule="evenodd" d="M21.4313 10.9844C20.5256 10.9844 19.7839 11.7187 19.7839 12.6328C19.7839 13.5469 20.5178 14.2813 21.4313 14.2813C22.3448 14.2813 23.0787 13.5469 23.0787 12.6328C23.0787 11.7187 22.3448 10.9844 21.4313 10.9844Z" fill="#63391B"/>
<path fill-rule="evenodd" clip-rule="evenodd" d="M17.0518 17.2812C16.7393 17.2812 16.4893 17.5312 16.4893 17.8437C16.4893 18.1562 16.7393 18.4062 17.0518 18.4062C17.3643 18.4062 17.6143 18.1562 17.6143 17.8437C17.6143 17.5312 17.3643 17.2812 17.0518 17.2812Z" fill="#63391B"/>
<path fill-rule="evenodd" clip-rule="evenodd" d="M17.0671 21.8984C16.8953 21.8984 16.7468 22.0391 16.7468 22.2187C16.7468 22.3984 16.8875 22.5391 17.0671 22.5391C17.2468 22.5391 17.3875 22.3984 17.3875 22.2187C17.3875 22.0391 17.2468 21.8984 17.0671 21.8984Z" fill="#63391B"/>
</g>
<defs>
<clipPath id="clip0_44_147002">
<rect width="24" height="24" fill="white"/>
</clipPath>
</defs>
</svg>
