<svg width="24" height="24" viewBox="0 0 24 24" fill="none" xmlns="http://www.w3.org/2000/svg">
<mask id="mask0_44_148549" style="mask-type:luminance" maskUnits="userSpaceOnUse" x="0" y="0" width="24" height="24">
<path d="M24 0H0V24H24V0Z" fill="white"/>
</mask>
<g mask="url(#mask0_44_148549)">
<path fill-rule="evenodd" clip-rule="evenodd" d="M4.32736 -5.88023H4.33486H4.34236H4.34986H4.35736H4.36486H4.37236H4.37986H4.38736H4.39486H4.40236H4.40986H4.41736H4.42486H4.43236L4.43986 -5.88773H4.44736H4.45486H4.46986V-5.89523H4.47736L4.48486 -5.90273H4.49236V-5.91023L4.49986 -5.91773H4.50736H4.51486H4.52236V-5.92523L4.52986 -5.93273H4.53736L4.54486 -5.94023L4.55236 -5.94773H4.55986H4.56736H4.58236V-5.95523L4.59736 -5.96273H4.60486H4.61236H4.61986V-5.97023H4.63486V-5.97773H4.64236H4.65736H4.66486L4.67236 -5.98523L4.68736 -5.99273H4.69486H4.70986V-6.00023L4.71736 -6.00773H4.72486H4.73236H4.74736C4.89736 -6.09773 5.05486 -6.18773 5.22736 -6.29273C4.61236 -7.28273 3.95986 -7.80023 3.33736 -7.97273C3.92236 -8.29523 4.50736 -8.94023 5.16736 -9.99023C4.00486 -10.7252 3.03736 -10.9802 2.26486 -10.8902C2.32486 -10.9727 2.37736 -11.0627 2.43736 -11.1602C1.57486 -11.7077 0.862362 -11.8727 0.307362 -11.7827C0.629862 -12.3302 0.884863 -13.1027 1.08736 -14.1452C-0.757637 -14.5052 -1.98764 -14.2052 -2.71514 -13.5452C-2.67014 -13.9877 -2.68514 -14.5127 -2.75264 -15.1577C-3.52514 -15.0677 -4.13264 -14.8877 -4.59764 -14.6402C-4.81514 -15.2777 -5.25014 -15.9827 -5.94764 -16.7402C-6.87764 -15.8777 -7.44764 -15.1652 -7.70264 -14.5127C-8.19014 -14.8277 -8.86514 -15.0527 -9.77264 -15.1577C-9.83264 -14.6102 -9.85514 -14.1452 -9.82514 -13.7477C-10.5676 -14.2652 -11.7301 -14.4677 -13.3801 -14.1452C-13.1776 -13.1027 -12.9226 -12.3377 -12.6001 -11.7827C-13.1551 -11.8727 -13.8676 -11.7077 -14.7301 -11.1602C-14.4826 -10.7702 -14.2501 -10.4552 -14.0251 -10.2152C-14.6476 -10.3127 -15.4351 -10.1177 -16.3951 -9.51023C-16.0651 -8.98523 -15.7576 -8.59523 -15.4651 -8.31023C-16.2451 -8.26523 -17.0851 -7.73273 -17.8876 -6.50273C-17.3251 -6.15023 -16.8451 -5.91023 -16.4251 -5.76773C-17.0101 -5.57273 -17.6251 -5.05523 -18.2026 -4.12523C-17.6401 -3.77273 -17.1601 -3.54023 -16.7476 -3.42023C-17.1601 -3.23273 -17.5876 -2.85023 -17.9926 -2.19773C-17.6626 -1.99523 -17.3701 -1.83773 -17.1076 -1.73273C-17.2876 -1.54523 -17.4751 -1.30523 -17.6551 -1.02023L-17.6326 -1.00523H-17.6176V-0.990233L-17.6026 -0.975233H-17.5876V-0.960234H-17.5726L-17.5576 -0.937733L-17.5426 -0.922733H-17.5276V-0.915233H-17.5126L-17.4976 -0.892734L-17.4826 -0.877733H-17.4676V-0.870233H-17.4526L-17.4376 -0.855233L-17.4226 -0.840234H-17.4076V-0.832734H-17.3926L-17.3851 -0.817733L-17.3701 -0.802733H-17.3626V-0.795233H-17.3476L-17.3401 -0.780234H-17.3326L-17.3176 -0.765234H-17.3101L-17.3026 -0.757734H-17.2876L-17.2801 -0.742733H-17.2726L-17.2576 -0.727733L-17.2501 -0.720233H-17.2351V-0.705234H-17.2276L-17.2126 -0.690233L-17.2051 -0.682733H-17.1901V-0.675233H-17.1751L-17.1601 -0.660233L-17.1451 -0.652734H-17.1301V-0.645234H-17.1151L-17.1001 -0.630233H-17.0851H-17.0701V-0.622733H-17.0551L-17.0401 -0.607733H-17.0251H-17.0101H-16.9951L-16.9801 -0.592734H-16.9651L-16.9501 -0.577734H-16.9351H-16.9201H-16.9051L-16.8901 -0.562733H-16.8751H-16.8601H-16.8451L-16.8301 -0.555233H-16.8151H-16.8076H-16.7926L-16.7851 -0.547733H-16.7701H-16.7626H-16.7476C-16.9126 -0.262733 -17.0101 0.0747672 -17.0701 0.457267C-16.3726 0.449767 -15.8251 0.314767 -15.4801 0.0672668C-15.4876 0.457267 -15.3901 0.869767 -15.2176 1.24477C-14.7076 0.892267 -14.3101 0.554766 -14.0851 0.224766C-13.9051 0.749766 -13.3276 1.28227 -12.5101 1.84477C-12.3001 1.39477 -12.1726 0.892268 -12.1801 0.419768C-11.7451 0.359768 -11.3926 0.247267 -11.1451 0.0672668C-11.1526 0.457267 -11.0551 0.869767 -10.8826 1.24477C-10.2826 0.832267 -9.84014 0.442268 -9.65264 0.0597681C-9.63014 0.577268 -9.36764 1.22977 -8.94764 1.97227C-8.60264 1.70227 -8.31014 1.36477 -8.10014 0.989767C-7.50764 0.959767 -7.05764 0.832268 -6.78764 0.607268C-6.72764 0.997268 -6.56264 1.40977 -6.32264 1.78477C-6.06764 1.58977 -5.85014 1.39477 -5.67764 1.20727C-5.50514 1.39477 -5.28764 1.58977 -5.03264 1.78477C-4.79264 1.40977 -4.62764 0.997268 -4.56764 0.607268C-4.36514 0.772268 -4.05764 0.892267 -3.66014 0.952267C-3.47264 1.22227 -3.18014 1.49977 -2.81264 1.78477C-2.57264 1.40977 -2.40764 0.997268 -2.34764 0.607268C-2.04764 0.854768 -1.52264 0.989768 -0.825137 0.997268C-0.825137 0.914768 -0.825137 0.832266 -0.825137 0.757266C-0.645137 0.847266 -0.420137 0.907267 -0.157637 0.952267C-0.105137 1.25977 -0.0076392 1.55977 0.127361 1.84477C0.944861 1.28977 1.52236 0.749766 1.70236 0.224766C1.92736 0.554766 2.32486 0.892267 2.83486 1.24477C3.00736 0.869767 3.11236 0.457267 3.09736 0.0672668C3.43486 0.314767 3.98986 0.449767 4.68736 0.457267C4.63486 0.0672672 4.52236 -0.270233 4.35736 -0.555233H4.37236H4.38736L4.40236 -0.562733H4.41736L4.43236 -0.570233H4.44736H4.46236H4.47736L4.48486 -0.577734H4.49986H4.50736H4.52236L4.52986 -0.585234L4.54486 -0.592734H4.55236H4.56736V-0.600233H4.57486L4.58986 -0.607733H4.59736H4.61236V-0.615233H4.62736L4.64236 -0.630233H4.65736H4.67236L4.68736 -0.645234H4.70236V-0.652734H4.71736L4.73236 -0.667733L4.74736 -0.675233H4.75486H4.76986L4.77736 -0.690233L4.79236 -0.697734H4.79986L4.80736 -0.705234H4.82236V-0.720233H4.82986L4.84486 -0.735233L4.85236 -0.742733H4.86736V-0.750233H4.88236L4.89736 -0.765234L4.91236 -0.772734H4.92736V-0.780234H4.94236L4.95736 -0.795233L4.97236 -0.802733H4.98736V-0.810233H5.00236L5.01736 -0.825234L5.03236 -0.840234H5.03986V-0.847733H5.05486L5.06236 -0.862733L5.07736 -0.877733H5.08486L5.09236 -0.885234H5.10736V-0.900234H5.11486L5.12986 -0.915233L5.14486 -0.922733H5.15986V-0.937733H5.17486L5.18986 -0.960234L5.20486 -0.967734H5.21986C5.03986 -1.26773 4.85986 -1.50023 4.67986 -1.69523C4.94236 -1.80023 5.23486 -1.95023 5.56486 -2.16023C5.15986 -2.81273 4.73236 -3.20273 4.31986 -3.38273C4.73236 -3.50273 5.21236 -3.73523 5.77486 -4.08773C5.15236 -5.09273 4.49236 -5.61023 3.86236 -5.77523L4.32736 -5.88023ZM-6.28514 -0.405234C-6.28514 -0.405234 -6.30014 -0.442734 -6.31514 -0.465234H-6.24764C-6.24764 -0.465234 -6.27764 -0.427734 -6.28514 -0.405234ZM-4.41014 -0.405234C-4.41014 -0.405234 -4.43264 -0.442734 -4.44764 -0.465234H-4.38014C-4.38014 -0.465234 -4.39514 -0.427734 -4.41014 -0.405234ZM-2.19014 -0.405234C-2.19014 -0.405234 -2.21264 -0.442734 -2.22764 -0.465234H-2.16014C-2.16014 -0.465234 -2.17514 -0.427734 -2.19014 -0.405234ZM-0.892637 -0.435233L-0.915139 -0.457734H-0.877639L-0.892637 -0.435233Z" fill="#4A661C"/>
<path fill-rule="evenodd" clip-rule="evenodd" d="M19.7775 -6.59219H19.7925H19.8075H19.815H19.8225H19.8375H19.8525H19.8675L19.875 -6.59969H19.89H19.8975H19.905H19.92V-6.60719H19.935H19.9425H19.95H19.965H19.9725L19.98 -6.61469H19.995H20.01H20.0325V-6.62219H20.0475V-6.62969H20.055L20.07 -6.63719H20.085L20.0925 -6.64469L20.1075 -6.65219H20.115H20.1225H20.1375V-6.65969L20.1525 -6.66719H20.1675L20.175 -6.67469L20.19 -6.68219H20.1975H20.205H20.22V-6.68969L20.235 -6.69719H20.25H20.2575H20.2725V-6.70469H20.2875V-6.71219H20.3025H20.3175V-6.71969H20.325L20.3325 -6.72719L20.3475 -6.73469H20.355H20.37H20.385L20.3925 -6.74969L20.4075 -6.75719H20.415H20.4225V-6.76469H20.4375C20.61 -6.86969 20.7975 -6.97469 20.985 -7.09469C20.2725 -8.23469 19.5225 -8.83469 18.81 -9.02969C19.4775 -9.40469 20.1525 -10.1472 20.9175 -11.3472C19.5825 -12.1947 18.465 -12.4872 17.5725 -12.3897C17.64 -12.4872 17.7075 -12.5922 17.775 -12.6972C16.785 -13.3272 15.9675 -13.5222 15.3225 -13.4172C15.6975 -14.0547 15.99 -14.9397 16.2225 -16.1322C14.1 -16.5447 12.6825 -16.2072 11.8425 -15.4422C11.895 -15.9447 11.88 -16.5597 11.7975 -17.2947C10.905 -17.1972 10.2075 -16.9872 9.6675 -16.7022C9.4125 -17.4372 8.9175 -18.2472 8.115 -19.1172C7.0425 -18.1272 6.39 -17.3022 6.0975 -16.5522C5.535 -16.9122 4.755 -17.1747 3.7125 -17.2947C3.645 -16.6647 3.6225 -16.1247 3.645 -15.6672C2.79 -16.2672 1.455 -16.4997 -0.4425 -16.1247C-0.21 -14.9247 0.0825005 -14.0397 0.4575 -13.4097C-0.1875 -13.5147 -1.005 -13.3197 -1.995 -12.6897C-1.71 -12.2397 -1.44 -11.8797 -1.185 -11.6022C-1.905 -11.7147 -2.8125 -11.4897 -3.915 -10.7922C-3.5325 -10.1922 -3.18 -9.73469 -2.8425 -9.40469C-3.7425 -9.35219 -4.71 -8.73719 -5.6325 -7.31969C-4.9875 -6.91469 -4.4325 -6.63719 -3.9525 -6.47219C-4.6275 -6.24719 -5.3325 -5.65469 -6 -4.57469C-5.3475 -4.16969 -4.8 -3.89969 -4.3275 -3.76469C-4.8 -3.55469 -5.295 -3.10469 -5.76 -2.35469C-5.3775 -2.11469 -5.04 -1.94219 -4.74 -1.82219C-4.95 -1.60469 -5.16 -1.33469 -5.37 -1.00469L-5.3475 -0.989687L-5.325 -0.974687L-5.3025 -0.959688L-5.28 -0.944688L-5.2575 -0.929688L-5.2425 -0.914687L-5.22 -0.899688H-5.205V-0.884688L-5.1825 -0.869688H-5.1675V-0.854687L-5.145 -0.839688H-5.13V-0.824688L-5.1075 -0.809688H-5.0925V-0.794687L-5.07 -0.779688H-5.055V-0.764688L-5.0325 -0.749688H-5.0175V-0.742188H-4.995L-4.98 -0.727187H-4.9725L-4.95 -0.712188H-4.9425L-4.935 -0.704688H-4.9125L-4.905 -0.689688H-4.8975L-4.875 -0.674687H-4.8675L-4.86 -0.667187H-4.8375L-4.83 -0.652188H-4.8225L-4.8 -0.637188H-4.7925L-4.7775 -0.629688H-4.7625V-0.614687H-4.7475L-4.725 -0.599687L-4.71 -0.592188H-4.695V-0.577188H-4.68L-4.665 -0.562188L-4.65 -0.554688H-4.635V-0.547187H-4.62L-4.605 -0.532187L-4.59 -0.524688H-4.575V-0.517188H-4.56L-4.545 -0.502188L-4.53 -0.494688H-4.515H-4.5L-4.485 -0.479687H-4.47L-4.455 -0.464688H-4.44H-4.425H-4.41L-4.395 -0.449688H-4.38H-4.365H-4.35L-4.335 -0.442188H-4.32H-4.305H-4.29L-4.2825 -0.434688H-4.2675C-4.455 -0.112188 -4.575 0.277813 -4.635 0.712813C-3.8325 0.697813 -3.195 0.547811 -2.805 0.262811C-2.8125 0.712811 -2.7 1.18531 -2.4975 1.62031C-1.905 1.21531 -1.455 0.832811 -1.1925 0.450311C-0.9825 1.05031 -0.315 1.67281 0.6225 2.31031C0.87 1.79281 1.005 1.21531 0.9975 0.675313C1.5 0.607813 1.905 0.472813 2.19 0.270313C2.1825 0.720313 2.295 1.19281 2.4975 1.62781C3.1875 1.15531 3.6975 0.705311 3.915 0.262811C3.9375 0.862811 4.245 1.60531 4.7325 2.46781C5.13 2.15281 5.4675 1.76281 5.7075 1.34281C6.39 1.30531 6.915 1.15531 7.2225 0.900313C7.29 1.35031 7.485 1.82281 7.755 2.25781C8.0475 2.03281 8.295 1.80781 8.4975 1.59031C8.6925 1.80781 8.9475 2.03281 9.24 2.25781C9.5175 1.83031 9.7125 1.35031 9.7725 0.900313C10.005 1.09531 10.365 1.22281 10.815 1.29781C11.0325 1.61281 11.37 1.92781 11.79 2.25781C12.0675 1.83031 12.2625 1.35031 12.3225 0.900313C12.6675 1.18531 13.275 1.33531 14.0775 1.35031C14.0775 1.25281 14.0775 1.16281 14.0775 1.07281C14.2875 1.17781 14.5425 1.24531 14.85 1.29781C14.91 1.65031 15.0225 1.99531 15.18 2.32531C16.125 1.68031 16.785 1.06531 16.995 0.465312C17.25 0.847812 17.7075 1.23781 18.3 1.63531C18.5025 1.20781 18.615 0.727812 18.6075 0.277812C18.9975 0.562812 19.635 0.712813 20.4375 0.727813C20.37 0.277813 20.25 -0.112188 20.055 -0.434688H20.07H20.085L20.1 -0.442188H20.115H20.13H20.145L20.16 -0.449688H20.175H20.19H20.205L20.2125 -0.457188L20.2275 -0.464688H20.235H20.2425H20.2575L20.265 -0.472187H20.2725L20.2875 -0.487187H20.295H20.31V-0.494688H20.325L20.34 -0.509688L20.355 -0.517188H20.37V-0.524688H20.385L20.4 -0.539687L20.415 -0.547187H20.43V-0.554688H20.445L20.46 -0.569688L20.475 -0.577188H20.49V-0.584688H20.505L20.5125 -0.599687L20.5275 -0.614687H20.535L20.5425 -0.622188H20.5575V-0.637188H20.565L20.58 -0.652188L20.595 -0.659687H20.61V-0.674687H20.625L20.6475 -0.689688L20.6625 -0.697188H20.685V-0.704688H20.7L20.715 -0.727187L20.7375 -0.742188H20.7525V-0.749688H20.775L20.79 -0.772188L20.8125 -0.787187H20.8275V-0.794687L20.85 -0.809688H20.8575L20.865 -0.824688H20.8875L20.895 -0.839688H20.9025L20.925 -0.854687H20.9325L20.9475 -0.869688L20.97 -0.884688L20.985 -0.899688L21.0075 -0.914687L21.0225 -0.929688L21.045 -0.944688L21.0675 -0.959688L21.09 -0.974687C20.8875 -1.30469 20.6775 -1.57469 20.4675 -1.79219C20.7675 -1.91219 21.105 -2.08469 21.48 -2.32469C21.015 -3.07469 20.5275 -3.52469 20.0475 -3.73469C20.52 -3.87719 21.075 -4.13969 21.72 -4.54469C21 -5.70719 20.2425 -6.29969 19.515 -6.48719L19.7775 -6.59219ZM7.56 -0.284687C7.56 -0.284687 7.5375 -0.329687 7.53 -0.352187H7.605C7.605 -0.352187 7.575 -0.307187 7.56 -0.284687ZM9.7275 -0.284687C9.7275 -0.284687 9.6975 -0.329687 9.6825 -0.352187H9.7575C9.7575 -0.352187 9.735 -0.307187 9.7275 -0.284687ZM12.285 -0.284687C12.285 -0.284687 12.255 -0.329687 12.24 -0.352187H12.315C12.315 -0.352187 12.2925 -0.307187 12.285 -0.284687ZM13.7775 -0.322188L13.755 -0.352187H13.7925L13.7775 -0.322188Z" fill="#4A661C"/>
<path fill-rule="evenodd" clip-rule="evenodd" d="M5.40734 0.277461L8.72984 -0.405039L15.7123 -3.15754L15.5998 -7.12504L13.2598 -9.31504L12.3523 -12.3375L12.5773 -8.64004L13.9348 -7.20754L13.8598 -4.18504L9.47984 -2.82754L9.92984 -6.15004L8.18984 -2.90254L4.86734 -2.37004L1.16984 -0.405039L0.719844 -2.37004L2.90984 -5.91754L0.194843 -3.57754L-0.105156 -5.69254L5.33235 -9.62254L5.78234 -13.245L4.49984 -10.68L2.68484 -9.62254L1.70234 -14.2275L1.47734 -8.79004L-2.75266 -6.07504L-2.14516 -1.08754L-3.05266 -1.92004L-6.67516 -3.05254L-6.45016 -5.85004L-8.64016 -9.32254L-7.50766 -5.85004L-8.64016 -2.97754L-12.8702 -4.11004L-15.6602 -9.24754L-13.4702 -2.90254L-4.03516 -0.187538L-3.07516 2.42996C-2.16766 13.065 -3.90766 17.985 -5.39266 20.4825C-6.47266 20.6475 -7.06516 21.6975 -8.17516 22.1175C-9.48016 22.6125 -11.2952 22.5525 -12.2552 23.9775H8.76734C8.14484 23.1225 6.86984 23.1825 6.08984 22.9125C5.32484 22.65 5.05484 22.05 4.49984 21.69C2.94734 17.775 2.48234 14.025 3.59234 2.42246L5.39234 0.254962L5.40734 0.277461Z" fill="#AD703E"/>
<path fill-rule="evenodd" clip-rule="evenodd" d="M1.17733 20.6699L1.21482 23.4749L0.659825 21.6974L0.524825 23.4749L0.194824 23.9999H2.47482H2.72983L2.06982 23.1749L1.17733 20.6699Z" fill="#935E36"/>
<path fill-rule="evenodd" clip-rule="evenodd" d="M3.89991 22.4325L2.53491 19.3125L2.96241 22.935L3.36741 24H4.25991H8.78241L5.75991 23.5875L3.89991 22.4325Z" fill="#935E36"/>
<path fill-rule="evenodd" clip-rule="evenodd" d="M15.0223 -3.645L9.38229 -1.755L5.42229 -1.455L1.99479 2.445L1.52979 6.96L2.03229 14.31L3.73479 19.38C2.84229 16.035 2.75229 11.79 3.64479 2.4525L5.41479 0.277499L8.84229 -0.4425L13.9573 -2.46L15.7198 -3.1575L15.6073 -7.125L15.0298 -3.645H15.0223Z" fill="#935E36"/>
<path fill-rule="evenodd" clip-rule="evenodd" d="M-0.0601473 23.108L-0.210146 15.8105L-0.787647 21.9755L-1.06515 20.693L-1.44015 23.363L-1.46265 24.0005H1.07235L0.269853 22.1255L-0.0601473 23.108Z" fill="#935E36"/>
<path fill-rule="evenodd" clip-rule="evenodd" d="M-0.210205 15.8105L-0.112706 20.3555L0.449794 17.078L0.194794 10.9355L-0.210205 15.8105Z" fill="#BF7E4C"/>
<path fill-rule="evenodd" clip-rule="evenodd" d="M4.51485 21.7127C4.22235 20.9777 3.96735 20.2427 3.75735 19.4702L2.84985 16.7402L3.50235 20.0177L4.16235 22.0427L5.00985 22.6802L6.86235 23.4377L8.72235 23.9327C8.08485 23.1527 6.86235 23.2052 6.10485 22.9427C5.33985 22.6802 5.06985 22.0802 4.51485 21.7202V21.7127Z" fill="#935E36"/>
<path fill-rule="evenodd" clip-rule="evenodd" d="M0.172363 7.40973L1.19986 13.7547L0.269863 4.84473L0.172363 7.40973Z" fill="#935E36"/>
<path fill-rule="evenodd" clip-rule="evenodd" d="M2.80484 2.44531L2.52734 8.17531L2.69984 13.8903L3.04484 14.6778C2.90234 11.8353 3.07484 8.05531 3.60734 2.44531H2.79734H2.80484Z" fill="#7A4D2E"/>
<path fill-rule="evenodd" clip-rule="evenodd" d="M15.2398 -3.5627L13.7473 -2.6327L8.42234 -1.23019L5.41484 -0.652696L2.80484 2.4448L2.52734 8.17481L2.69984 13.8898L3.04484 14.6773C2.90234 11.8348 3.07484 8.0548 3.60734 2.4448L5.40734 0.277304L8.72984 -0.405196L15.7123 -3.15769L15.6148 -6.4502L15.2323 -3.5702L15.2398 -3.5627Z" fill="#7A4D2E"/>
<path fill-rule="evenodd" clip-rule="evenodd" d="M-0.270273 23.6319L-0.397773 20.7744L-0.795274 22.7019L-1.53027 23.9994H0.862227L0.187226 23.1894L-0.270273 23.6319Z" fill="#7A4D2E"/>
<path fill-rule="evenodd" clip-rule="evenodd" d="M3.03735 21.502L3.21735 22.9495L3.65985 23.9995H6.07485L3.73485 23.077L3.03735 21.502Z" fill="#7A4D2E"/>
<path fill-rule="evenodd" clip-rule="evenodd" d="M-0.0224609 -2.23516L0.412539 1.02734L1.18504 -0.397657L0.727539 -2.36266L2.91754 -5.91016L-0.0224609 -2.23516Z" fill="#935E36"/>
<path fill-rule="evenodd" clip-rule="evenodd" d="M4.8823 -2.36227L1.1848 -0.397266L0.674805 0.547734L5.18231 -1.90477L8.4673 -2.60226L9.93731 -6.13477L8.2048 -2.88727L4.8823 -2.36227Z" fill="#BF7E4C"/>
<path fill-rule="evenodd" clip-rule="evenodd" d="M4.10975 -0.727343L2.48975 0.697657L4.24475 -0.524844L6.31474 -1.52234L7.43974 -1.96484L6.11224 -1.67234L4.10975 -0.727343Z" fill="#935E36"/>
<path fill-rule="evenodd" clip-rule="evenodd" d="M4.08743 -0.524649L3.36743 0.0828524L4.35743 -0.434648L6.44993 -1.43215L7.12493 -1.88965L6.13493 -1.57465L4.08743 -0.524649Z" fill="#7A4D2E"/>
<path fill-rule="evenodd" clip-rule="evenodd" d="M0.367432 5.79785L0.434932 7.51535L0.892432 10.8004L0.697432 7.15535L0.367432 5.79785Z" fill="#7A4D2E"/>
</g>
</svg>
