<svg width="24" height="24" viewBox="0 0 24 24" fill="none" xmlns="http://www.w3.org/2000/svg">
<g clip-path="url(#clip0_44_148201)">
<path fill-rule="evenodd" clip-rule="evenodd" d="M21.3877 20.16H21.4005H21.4134C21.5547 20.0829 21.696 19.993 21.8501 19.9031C21.285 18.9912 20.6813 18.5159 20.1161 18.3618C20.6556 18.0664 21.1822 17.4756 21.7987 16.5123C20.7327 15.8315 19.8336 15.6003 19.1272 15.6774C19.1785 15.6003 19.2299 15.5233 19.2813 15.4334C18.485 14.9324 17.8428 14.7783 17.329 14.8554C17.6244 14.3545 17.8556 13.648 18.0483 12.6847C16.3528 12.3508 15.2226 12.6205 14.5547 13.237C14.5932 12.8389 14.5804 12.3508 14.5161 11.76C13.8097 11.837 13.2446 12.004 12.8207 12.2352C12.6152 11.6444 12.2171 11.0022 11.5749 10.3086C10.7143 11.1049 10.2005 11.76 9.96935 12.3636C9.51981 12.0811 8.9033 11.8627 8.06844 11.7728C8.01706 12.2737 7.99137 12.7104 8.01706 13.0701C7.33633 12.5948 6.27027 12.4022 4.75468 12.6976C4.93449 13.648 5.17853 14.3545 5.47394 14.8682C4.96018 14.7783 4.30514 14.9453 3.5088 15.4462C3.74 15.8058 3.9455 16.0884 4.16385 16.3196C3.58587 16.2297 2.8666 16.4095 1.98036 16.9618C2.28862 17.437 2.57119 17.8095 2.84091 18.0664C2.12165 18.1049 1.35101 18.593 0.618896 19.7233H1.17119C1.68495 20.0444 2.12165 20.2627 2.51981 20.404C1.98036 20.5838 1.41523 21.0591 0.888621 21.9196C1.40238 22.2407 1.85192 22.4591 2.2244 22.5746C1.83908 22.7416 1.45376 23.1013 1.08128 23.7049C1.38954 23.8976 1.65926 24.0389 1.89046 24.1288C1.86477 24.1545 1.83908 24.193 1.81339 24.2187H22.2611C22.2611 24.2187 22.2097 24.1545 22.184 24.1288C22.4281 24.0389 22.6978 23.8976 22.9932 23.7049C22.6207 23.1013 22.2354 22.7416 21.8501 22.5746C22.2354 22.4591 22.6721 22.2535 23.1859 21.9196C22.6079 20.9948 22.0042 20.5196 21.4262 20.3655L21.3877 20.16Z" fill="#B3CD40"/>
<path fill-rule="evenodd" clip-rule="evenodd" d="M14.9786 17.2051H14.9272C14.9272 17.2051 14.9529 17.2436 14.9529 17.2565C14.9529 17.2436 14.9658 17.2179 14.9786 17.2051Z" fill="#A2BC31"/>
<path fill-rule="evenodd" clip-rule="evenodd" d="M13.2062 17.2051H13.1548C13.1548 17.2051 13.1805 17.2436 13.1805 17.2565C13.1805 17.2436 13.1933 17.2179 13.2062 17.2051Z" fill="#A2BC31"/>
<path fill-rule="evenodd" clip-rule="evenodd" d="M16.0189 17.2051H15.9932L16.006 17.2179L16.0189 17.2051Z" fill="#A2BC31"/>
<path fill-rule="evenodd" clip-rule="evenodd" d="M11.7032 17.2051H11.6519C11.6519 17.2051 11.6647 17.2436 11.6775 17.2565C11.6775 17.2436 11.7032 17.2179 11.7161 17.2051H11.7032Z" fill="#A2BC31"/>
<path fill-rule="evenodd" clip-rule="evenodd" d="M3.54724 17.1028H3.5344H3.52155H3.50871H3.49586H3.48302H3.47018H3.45733L3.44449 17.09H3.43164L3.4188 17.0771H3.40596L3.39311 17.0643H3.38027L3.36742 17.0514H3.35458H3.34174L3.32889 17.0386H3.31605H3.3032H3.29036L3.27751 17.0129C3.29036 16.9744 3.31605 16.9487 3.32889 16.9102C3.26467 16.9487 3.20045 16.9872 3.13623 17.0258C3.40596 17.4624 3.66284 17.7964 3.90687 18.0533C3.95825 17.8478 4.02247 17.6551 4.09953 17.4881L3.54724 17.1028Z" fill="#A2BC31"/>
<path fill-rule="evenodd" clip-rule="evenodd" d="M21.3878 20.1598H21.4006H21.4134C21.5547 20.0827 21.696 19.9928 21.8501 19.9029C21.285 18.991 20.6813 18.5158 20.1162 18.3616C20.6556 18.0662 21.1822 17.4754 21.7988 16.5121C21.4391 16.2809 21.1052 16.1011 20.7841 15.9727C20.5914 16.1011 20.4116 16.2038 20.2575 16.2809C20.3988 16.4607 20.5529 16.6662 20.6942 16.936H20.6813V16.9616H20.6685H20.6556V16.9745L20.6428 16.9873H20.63V17.0002L20.6171 17.013H20.6043L20.5914 17.0259H20.5786V17.0387V17.0516V17.0644V17.0772C20.707 17.3341 20.7969 17.6552 20.8483 18.002C20.296 18.002 19.8465 17.8736 19.5767 17.6424C19.5767 18.002 19.4997 18.3745 19.3584 18.7213C18.9474 18.4002 18.6263 18.0919 18.4465 17.7837C18.3052 18.2717 17.83 18.7598 17.1749 19.2736C17.0722 19.0167 16.9951 18.7341 16.9437 18.4516C16.7254 18.413 16.5456 18.3616 16.4043 18.2717C16.4043 18.3488 16.4043 18.413 16.4043 18.4901C15.852 18.4901 15.4281 18.3616 15.1841 18.1305C15.1456 18.4901 15.0043 18.8626 14.8116 19.2094C14.5162 18.9525 14.285 18.6956 14.1309 18.4387C13.8098 18.3873 13.5657 18.2846 13.3988 18.1176C13.3474 18.4772 13.2189 18.8497 13.0263 19.1965C12.8208 19.0167 12.6538 18.8369 12.5125 18.6699C12.3712 18.8497 12.2043 19.0167 11.9988 19.1965C11.8061 18.8497 11.6648 18.4772 11.6263 18.1176C11.4079 18.3231 11.0483 18.4387 10.5731 18.4644C10.4061 18.7983 10.1749 19.1066 9.89234 19.3635C9.5584 18.6827 9.34005 18.0791 9.3272 17.6038C9.17308 17.9635 8.82629 18.3231 8.33821 18.6956C8.19693 18.3488 8.11986 17.9763 8.11986 17.6167C7.9272 17.7837 7.64464 17.8864 7.285 17.9378C7.285 18.3745 7.19509 18.824 7.02812 19.2479C6.37308 18.7341 5.91069 18.2461 5.75656 17.758C5.57675 18.0662 5.25564 18.3745 4.84464 18.6956C4.70335 18.3488 4.62629 17.9763 4.62629 17.6167C4.35656 17.8479 3.90702 17.9635 3.35473 17.9763C3.35473 17.8864 3.38042 17.7965 3.39326 17.7066C2.69968 17.7837 1.96757 18.2846 1.26115 19.3635H1.17124C1.685 19.6846 2.1217 19.9029 2.51986 20.0442C1.98041 20.224 1.41528 20.6993 0.888672 21.5598C1.40243 21.8809 1.85197 22.0993 2.22445 22.2149C1.83913 22.3818 1.45381 22.7415 1.08133 23.3451C1.38959 23.5378 1.65931 23.6791 1.89051 23.769C1.86482 23.7947 1.83913 23.8332 1.81344 23.8589H22.2611C22.2611 23.8589 22.2098 23.7947 22.1841 23.769C22.4281 23.6791 22.6978 23.5378 22.9933 23.3451C22.6208 22.7415 22.2355 22.3818 21.8501 22.2149C22.2355 22.0993 22.6722 21.8938 23.1859 21.5598C22.6079 20.635 22.0043 20.1598 21.4263 20.0057L21.3878 20.1598Z" fill="#A2BC31"/>
<path fill-rule="evenodd" clip-rule="evenodd" d="M16.597 20.9941H16.5713L16.5841 21.0198L16.597 20.9941Z" fill="#8BA12A"/>
<path fill-rule="evenodd" clip-rule="evenodd" d="M15.4153 20.9941H15.3511C15.3511 20.9941 15.3768 21.0327 15.3896 21.0455C15.3896 21.0327 15.4025 21.007 15.4153 20.9941Z" fill="#8BA12A"/>
<path fill-rule="evenodd" clip-rule="evenodd" d="M22.261 20.6348H22.2482V20.6476H22.2353H22.2225H22.2096H22.1968H22.1839H22.1711H22.1582H22.1454H22.1326H22.1197H22.1069H22.094C22.2482 20.9045 22.3509 21.2256 22.4023 21.5724C21.7601 21.5724 21.2592 21.4439 20.9381 21.2127C20.9381 21.5724 20.861 21.9449 20.694 22.2916C20.2188 21.9705 19.8592 21.6623 19.6537 21.354C19.4867 21.8293 18.9472 22.3302 18.2023 22.8439C18.0738 22.5871 17.9839 22.3045 17.9454 22.0219C17.7014 21.9834 17.4959 21.932 17.3289 21.8421C17.3289 21.9192 17.3289 21.9834 17.3289 22.0605C16.6867 22.0605 16.2115 21.932 15.9289 21.7008C15.8775 22.0605 15.7234 22.4329 15.505 22.7797C15.1711 22.5228 14.9014 22.266 14.7215 22.0091C14.3619 21.9577 14.0793 21.8549 13.8867 21.7008C13.8353 22.0605 13.6812 22.4329 13.4628 22.7797C13.2316 22.5999 13.0261 22.4201 12.872 22.2531C12.7179 22.4329 12.5124 22.5999 12.2812 22.7797C12.0628 22.4329 11.9087 22.0605 11.8573 21.7008C11.6133 21.9063 11.1894 22.0219 10.65 22.0476C10.4573 22.3816 10.1876 22.6898 9.87934 22.9467C9.49402 22.266 9.24999 21.6623 9.2243 21.1871C9.04448 21.5467 8.64632 21.9063 8.09402 22.2788C7.92705 21.932 7.83714 21.5595 7.84999 21.1999C7.63164 21.3669 7.29769 21.4696 6.89953 21.521C6.89953 21.9577 6.79677 22.4072 6.60411 22.8311C5.85916 22.3173 5.31971 21.8293 5.15274 21.3412C4.94723 21.6494 4.5876 21.9577 4.11237 22.2788C3.9454 21.932 3.85549 21.5595 3.86833 21.1999C3.56008 21.4311 3.04632 21.5467 2.40411 21.5595C2.45549 21.2127 2.5454 20.9045 2.69953 20.6476H2.68668H2.67384H2.66099H2.64815H2.63531H2.62246H2.60962H2.59677H2.58393H2.57109H2.55824H2.5454H2.53255H2.51971H2.50687H2.49402H2.48118H2.46833H2.45549H2.44265H2.4298H2.41696H2.40411H2.39127H2.37843C2.08301 20.9045 1.7876 21.2513 1.49219 21.7137C2.00595 22.0348 2.45549 22.2531 2.82797 22.3687C2.44265 22.5357 2.05733 22.8953 1.68485 23.499C1.9931 23.6916 2.26283 23.8329 2.49402 23.9228C2.46833 23.9485 2.44265 23.9871 2.41696 24.0127H22.8647C22.8647 24.0127 22.8133 23.9485 22.7876 23.9228C23.0316 23.8329 23.3014 23.6916 23.5968 23.499C23.2243 22.8953 22.839 22.5357 22.4537 22.3687C22.839 22.2531 23.2757 22.0476 23.7894 21.7137C23.494 21.2513 23.1986 20.9045 22.9032 20.6476L22.261 20.6348Z" fill="#8BA12A"/>
<path fill-rule="evenodd" clip-rule="evenodd" d="M13.386 20.9941H13.3218C13.3218 20.9941 13.3475 21.0327 13.3603 21.0455C13.3603 21.0327 13.3732 21.007 13.386 20.9941Z" fill="#8BA12A"/>
<path fill-rule="evenodd" clip-rule="evenodd" d="M11.6648 20.9941H11.6006C11.6006 20.9941 11.6134 21.0327 11.6263 21.0455C11.6263 21.0327 11.652 21.007 11.6648 20.9941Z" fill="#8BA12A"/>
</g>
<defs>
<clipPath id="clip0_44_148201">
<rect width="22.2972" height="14" fill="white" transform="translate(0.850098 10)"/>
</clipPath>
</defs>
</svg>
