<svg width="24" height="24" viewBox="0 0 24 24" fill="none" xmlns="http://www.w3.org/2000/svg">
<mask id="mask0_44_148546" style="mask-type:luminance" maskUnits="userSpaceOnUse" x="0" y="0" width="24" height="24">
<path d="M24 0H0V24H24V0Z" fill="white"/>
</mask>
<g mask="url(#mask0_44_148546)">
<path fill-rule="evenodd" clip-rule="evenodd" d="M28.3274 18.1198H28.3349H28.3424H28.3499H28.3574H28.3649H28.3724H28.3799H28.3874H28.3949H28.4024H28.4099H28.4174H28.4249H28.4324L28.4399 18.1123H28.4474H28.4549H28.4699V18.1048H28.4774L28.4849 18.0973H28.4924V18.0898L28.4999 18.0823H28.5074H28.5149H28.5224V18.0748L28.5299 18.0673H28.5374L28.5449 18.0598L28.5524 18.0523H28.5599H28.5674H28.5824V18.0448L28.5974 18.0373H28.6049H28.6124H28.6199V18.0298H28.6349V18.0223H28.6424H28.6574H28.6649L28.6724 18.0148L28.6874 18.0073H28.6949H28.7099V17.9998L28.7174 17.9923H28.7249H28.7324H28.7474C28.8974 17.9023 29.0549 17.8123 29.2274 17.7073C28.6124 16.7173 27.9599 16.1998 27.3374 16.0273C27.9224 15.7048 28.5074 15.0598 29.1674 14.0098C28.0049 13.2748 27.0374 13.0198 26.2649 13.1098C26.3249 13.0273 26.3774 12.9373 26.4374 12.8398C25.5749 12.2923 24.8624 12.1273 24.3074 12.2173C24.6299 11.6698 24.8849 10.8973 25.0874 9.85477C23.2424 9.49477 22.0124 9.79477 21.2849 10.4548C21.3299 10.0123 21.3149 9.48727 21.2474 8.84227C20.4749 8.93227 19.8674 9.11227 19.4024 9.35977C19.1849 8.72227 18.7499 8.01727 18.0524 7.25977C17.1224 8.12227 16.5524 8.83477 16.2974 9.48727C15.8099 9.17227 15.1349 8.94727 14.2274 8.84227C14.1674 9.38977 14.1449 9.85477 14.1749 10.2523C13.4324 9.73477 12.2699 9.53227 10.6199 9.85477C10.8224 10.8973 11.0774 11.6623 11.3999 12.2173C10.8449 12.1273 10.1324 12.2923 9.26986 12.8398C9.51736 13.2298 9.74986 13.5448 9.97486 13.7848C9.35236 13.6873 8.56486 13.8823 7.60486 14.4898C7.93486 15.0148 8.24236 15.4048 8.53486 15.6898C7.75486 15.7348 6.91486 16.2673 6.11236 17.4973C6.67486 17.8498 7.15486 18.0898 7.57486 18.2323C6.98986 18.4273 6.37486 18.9448 5.79736 19.8748C6.35986 20.2273 6.83986 20.4598 7.25236 20.5798C6.83986 20.7673 6.41236 21.1498 6.00736 21.8023C6.33736 22.0048 6.62986 22.1623 6.89236 22.2673C6.71236 22.4548 6.52486 22.6948 6.34486 22.9798L6.36736 22.9948H6.38236V23.0098L6.39736 23.0248H6.41236V23.0398H6.42736L6.44236 23.0623L6.45736 23.0773H6.47236V23.0848H6.48736L6.50236 23.1073L6.51736 23.1223H6.53236V23.1298H6.54736L6.56236 23.1448L6.57736 23.1598H6.59236V23.1673H6.60736L6.61486 23.1823L6.62986 23.1973H6.63736V23.2048H6.65236L6.65986 23.2198H6.66736L6.68236 23.2348H6.68986L6.69736 23.2423H6.71236L6.71986 23.2573H6.72736L6.74236 23.2723L6.74986 23.2798H6.76486V23.2948H6.77236L6.78736 23.3098L6.79486 23.3173H6.80986V23.3248H6.82486L6.83986 23.3398L6.85486 23.3473H6.86986V23.3548H6.88486L6.89986 23.3698H6.91486H6.92986V23.3773H6.94486L6.95986 23.3923H6.97486H6.98986H7.00486L7.01986 23.4073H7.03486L7.04986 23.4223H7.06486H7.07986H7.09486L7.10986 23.4373H7.12486H7.13986H7.15486L7.16986 23.4448H7.18486H7.19236H7.20736L7.21486 23.4523H7.22986H7.23736H7.25236C7.08736 23.7373 6.98986 24.0748 6.92986 24.4573C7.62736 24.4498 8.17486 24.3148 8.51986 24.0673C8.51236 24.4573 8.60986 24.8698 8.78236 25.2448C9.29236 24.8923 9.68986 24.5548 9.91486 24.2248C10.0949 24.7498 10.6724 25.2823 11.4899 25.8448C11.6999 25.3948 11.8274 24.8923 11.8199 24.4198C12.2549 24.3598 12.6074 24.2473 12.8549 24.0673C12.8474 24.4573 12.9449 24.8698 13.1174 25.2448C13.7174 24.8323 14.1599 24.4423 14.3474 24.0598C14.3699 24.5773 14.6324 25.2298 15.0524 25.9723C15.3974 25.7023 15.6899 25.3648 15.8999 24.9898C16.4924 24.9598 16.9424 24.8323 17.2124 24.6073C17.2724 24.9973 17.4374 25.4098 17.6774 25.7848C17.9324 25.5898 18.1499 25.3948 18.3224 25.2073C18.4949 25.3948 18.7124 25.5898 18.9674 25.7848C19.2074 25.4098 19.3724 24.9973 19.4324 24.6073C19.6349 24.7723 19.9424 24.8923 20.3399 24.9523C20.5274 25.2223 20.8199 25.4998 21.1874 25.7848C21.4274 25.4098 21.5924 24.9973 21.6524 24.6073C21.9524 24.8548 22.4774 24.9898 23.1749 24.9973C23.1749 24.9148 23.1749 24.8323 23.1749 24.7573C23.3549 24.8473 23.5799 24.9073 23.8424 24.9523C23.8949 25.2598 23.9924 25.5598 24.1274 25.8448C24.9449 25.2898 25.5224 24.7498 25.7024 24.2248C25.9274 24.5548 26.3249 24.8923 26.8349 25.2448C27.0074 24.8698 27.1124 24.4573 27.0974 24.0673C27.4349 24.3148 27.9899 24.4498 28.6874 24.4573C28.6349 24.0673 28.5224 23.7298 28.3574 23.4448H28.3724H28.3874L28.4024 23.4373H28.4174L28.4324 23.4298H28.4474H28.4624H28.4774L28.4849 23.4223H28.4999H28.5074H28.5224L28.5299 23.4148L28.5449 23.4073H28.5524H28.5674V23.3998H28.5749L28.5899 23.3923H28.5974H28.6124V23.3848H28.6274L28.6424 23.3698H28.6574H28.6724L28.6874 23.3548H28.7024V23.3473H28.7174L28.7324 23.3323L28.7474 23.3248H28.7549H28.7699L28.7774 23.3098L28.7924 23.3023H28.7999L28.8074 23.2948H28.8224V23.2798H28.8299L28.8449 23.2648L28.8524 23.2573H28.8674V23.2498H28.8824L28.8974 23.2348L28.9124 23.2273H28.9274V23.2198H28.9424L28.9574 23.2048L28.9724 23.1973H28.9874V23.1898H29.0024L29.0174 23.1748L29.0324 23.1598H29.0399V23.1523H29.0549L29.0624 23.1373L29.0774 23.1223H29.0849L29.0924 23.1148H29.1074V23.0998H29.1149L29.1299 23.0848L29.1449 23.0773H29.1599V23.0623H29.1749L29.1899 23.0398L29.2049 23.0323H29.2199C29.0399 22.7323 28.8599 22.4998 28.6799 22.3048C28.9424 22.1998 29.2349 22.0498 29.5649 21.8398C29.1599 21.1873 28.7324 20.7973 28.3199 20.6173C28.7324 20.4973 29.2124 20.2648 29.7749 19.9123C29.1524 18.9073 28.4924 18.3898 27.8624 18.2248L28.3274 18.1198ZM17.7149 23.5948C17.7149 23.5948 17.6999 23.5573 17.6849 23.5348H17.7524C17.7524 23.5348 17.7224 23.5723 17.7149 23.5948ZM19.5899 23.5948C19.5899 23.5948 19.5674 23.5573 19.5524 23.5348H19.6199C19.6199 23.5348 19.6049 23.5723 19.5899 23.5948ZM21.8099 23.5948C21.8099 23.5948 21.7874 23.5573 21.7724 23.5348H21.8399C21.8399 23.5348 21.8249 23.5723 21.8099 23.5948ZM23.1074 23.5648L23.0849 23.5423H23.1224L23.1074 23.5648Z" fill="#4A661C"/>
<path fill-rule="evenodd" clip-rule="evenodd" d="M43.7775 17.4078H43.7925H43.8075H43.815H43.8225H43.8375H43.8525H43.8675L43.875 17.4003H43.89H43.8975H43.905H43.92V17.3928H43.935H43.9425H43.95H43.965H43.9725L43.98 17.3853H43.995H44.01H44.0325V17.3778H44.0475V17.3703H44.055L44.07 17.3628H44.085L44.0925 17.3553L44.1075 17.3478H44.115H44.1225H44.1375V17.3403L44.1525 17.3328H44.1675L44.175 17.3253L44.19 17.3178H44.1975H44.205H44.22V17.3103L44.235 17.3028H44.25H44.2575H44.2725V17.2953H44.2875V17.2878H44.3025H44.3175V17.2803H44.325L44.3325 17.2728L44.3475 17.2653H44.355H44.37H44.385L44.3925 17.2503L44.4075 17.2428H44.415H44.4225V17.2353H44.4375C44.61 17.1303 44.7975 17.0253 44.985 16.9053C44.2725 15.7653 43.5225 15.1653 42.81 14.9703C43.4775 14.5953 44.1525 13.8528 44.9175 12.6528C43.5825 11.8053 42.465 11.5128 41.5725 11.6103C41.64 11.5128 41.7075 11.4078 41.775 11.3028C40.785 10.6728 39.9675 10.4778 39.3225 10.5828C39.6975 9.94531 39.99 9.06031 40.2225 7.86781C38.1 7.45531 36.6825 7.79281 35.8425 8.55781C35.895 8.05531 35.88 7.44031 35.7975 6.70531C34.905 6.80281 34.2075 7.01281 33.6675 7.29781C33.4125 6.56281 32.9175 5.75281 32.115 4.88281C31.0425 5.87281 30.39 6.69781 30.0975 7.44781C29.535 7.08781 28.755 6.82531 27.7125 6.70531C27.645 7.33531 27.6225 7.87531 27.645 8.33281C26.79 7.73281 25.455 7.50031 23.5575 7.87531C23.79 9.07531 24.0825 9.96031 24.4575 10.5903C23.8125 10.4853 22.995 10.6803 22.005 11.3103C22.29 11.7603 22.56 12.1203 22.815 12.3978C22.095 12.2853 21.1875 12.5103 20.085 13.2078C20.4675 13.8078 20.82 14.2653 21.1575 14.5953C20.2575 14.6478 19.29 15.2628 18.3675 16.6803C19.0125 17.0853 19.5675 17.3628 20.0475 17.5278C19.3725 17.7528 18.6675 18.3453 18 19.4253C18.6525 19.8303 19.2 20.1003 19.6725 20.2353C19.2 20.4453 18.705 20.8953 18.24 21.6453C18.6225 21.8853 18.96 22.0578 19.26 22.1778C19.05 22.3953 18.84 22.6653 18.63 22.9953L18.6525 23.0103L18.675 23.0253L18.6975 23.0403L18.72 23.0553L18.7425 23.0703L18.7575 23.0853L18.78 23.1003H18.795V23.1153L18.8175 23.1303H18.8325V23.1453L18.855 23.1603H18.87V23.1753L18.8925 23.1903H18.9075V23.2053L18.93 23.2203H18.945V23.2353L18.9675 23.2503H18.9825V23.2578H19.005L19.02 23.2728H19.0275L19.05 23.2878H19.0575L19.065 23.2953H19.0875L19.095 23.3103H19.1025L19.125 23.3253H19.1325L19.14 23.3328H19.1625L19.17 23.3478H19.1775L19.2 23.3628H19.2075L19.2225 23.3703H19.2375V23.3853H19.2525L19.275 23.4003L19.29 23.4078H19.305V23.4228H19.32L19.335 23.4378L19.35 23.4453H19.365V23.4528H19.38L19.395 23.4678L19.41 23.4753H19.425V23.4828H19.44L19.455 23.4978L19.47 23.5053H19.485H19.5L19.515 23.5203H19.53L19.545 23.5353H19.56H19.575H19.59L19.605 23.5503H19.62H19.635H19.65L19.665 23.5578H19.68H19.695H19.71L19.7175 23.5653H19.7325C19.545 23.8878 19.425 24.2778 19.365 24.7128C20.1675 24.6978 20.805 24.5478 21.195 24.2628C21.1875 24.7128 21.3 25.1853 21.5025 25.6203C22.095 25.2153 22.545 24.8328 22.8075 24.4503C23.0175 25.0503 23.685 25.6728 24.6225 26.3103C24.87 25.7928 25.005 25.2153 24.9975 24.6753C25.5 24.6078 25.905 24.4728 26.19 24.2703C26.1825 24.7203 26.295 25.1928 26.4975 25.6278C27.1875 25.1553 27.6975 24.7053 27.915 24.2628C27.9375 24.8628 28.245 25.6053 28.7325 26.4678C29.13 26.1528 29.4675 25.7628 29.7075 25.3428C30.39 25.3053 30.915 25.1553 31.2225 24.9003C31.29 25.3503 31.485 25.8228 31.755 26.2578C32.0475 26.0328 32.295 25.8078 32.4975 25.5903C32.6925 25.8078 32.9475 26.0328 33.24 26.2578C33.5175 25.8303 33.7125 25.3503 33.7725 24.9003C34.005 25.0953 34.365 25.2228 34.815 25.2978C35.0325 25.6128 35.37 25.9278 35.79 26.2578C36.0675 25.8303 36.2625 25.3503 36.3225 24.9003C36.6675 25.1853 37.275 25.3353 38.0775 25.3503C38.0775 25.2528 38.0775 25.1628 38.0775 25.0728C38.2875 25.1778 38.5425 25.2453 38.85 25.2978C38.91 25.6503 39.0225 25.9953 39.18 26.3253C40.125 25.6803 40.785 25.0653 40.995 24.4653C41.25 24.8478 41.7075 25.2378 42.3 25.6353C42.5025 25.2078 42.615 24.7278 42.6075 24.2778C42.9975 24.5628 43.635 24.7128 44.4375 24.7278C44.37 24.2778 44.25 23.8878 44.055 23.5653H44.07H44.085L44.1 23.5578H44.115H44.13H44.145L44.16 23.5503H44.175H44.19H44.205L44.2125 23.5428L44.2275 23.5353H44.235H44.2425H44.2575L44.265 23.5278H44.2725L44.2875 23.5128H44.295H44.31V23.5053H44.325L44.34 23.4903L44.355 23.4828H44.37V23.4753H44.385L44.4 23.4603L44.415 23.4528H44.43V23.4453H44.445L44.46 23.4303L44.475 23.4228H44.49V23.4153H44.505L44.5125 23.4003L44.5275 23.3853H44.535L44.5425 23.3778H44.5575V23.3628H44.565L44.58 23.3478L44.595 23.3403H44.61V23.3253H44.625L44.6475 23.3103L44.6625 23.3028H44.685V23.2953H44.7L44.715 23.2728L44.7375 23.2578H44.7525V23.2503H44.775L44.79 23.2278L44.8125 23.2128H44.8275V23.2053L44.85 23.1903H44.8575L44.865 23.1753H44.8875L44.895 23.1603H44.9025L44.925 23.1453H44.9325L44.9475 23.1303L44.97 23.1153L44.985 23.1003L45.0075 23.0853L45.0225 23.0703L45.045 23.0553L45.0675 23.0403L45.09 23.0253C44.8875 22.6953 44.6775 22.4253 44.4675 22.2078C44.7675 22.0878 45.105 21.9153 45.48 21.6753C45.015 20.9253 44.5275 20.4753 44.0475 20.2653C44.52 20.1228 45.075 19.8603 45.72 19.4553C45 18.2928 44.2425 17.7003 43.515 17.5128L43.7775 17.4078ZM31.56 23.7153C31.56 23.7153 31.5375 23.6703 31.53 23.6478H31.605C31.605 23.6478 31.575 23.6928 31.56 23.7153ZM33.7275 23.7153C33.7275 23.7153 33.6975 23.6703 33.6825 23.6478H33.7575C33.7575 23.6478 33.735 23.6928 33.7275 23.7153ZM36.285 23.7153C36.285 23.7153 36.255 23.6703 36.24 23.6478H36.315C36.315 23.6478 36.2925 23.6928 36.285 23.7153ZM37.7775 23.6778L37.755 23.6478H37.7925L37.7775 23.6778Z" fill="#4A661C"/>
<path fill-rule="evenodd" clip-rule="evenodd" d="M34.7998 12.4048C35.2723 12.2473 35.8123 11.9698 36.4348 11.5798C35.5423 10.1998 34.5973 9.60731 33.7273 9.55481C34.0573 9.23231 34.4023 8.78981 34.7698 8.20481C33.6973 7.52981 32.8198 7.31231 32.1223 7.41731C32.3773 7.14731 32.6323 6.79481 32.9098 6.35981C31.9423 5.75231 31.1548 5.55731 30.5248 5.66231C30.8848 5.04731 31.1698 4.18481 31.3948 3.02231C29.5498 2.6623 28.2523 2.8873 27.4198 3.4723C27.4498 3.0298 27.4198 2.5048 27.3598 1.8898C26.3473 2.0023 25.5898 2.2573 25.0423 2.6098C24.7573 1.8748 24.1273 1.0798 23.0848 0.112305C22.3048 0.959805 21.8173 1.7473 21.5773 2.4598C21.0598 2.1823 20.3773 1.9798 19.5073 1.8823C19.4248 2.6023 19.4098 3.1948 19.4623 3.6823C18.6523 2.9398 17.2723 2.6098 15.2098 3.0148C15.4348 4.1773 15.7198 5.0398 16.0798 5.65481C15.4573 5.54981 14.6623 5.74481 13.6948 6.35231C13.7623 6.45731 13.8223 6.55481 13.8898 6.65231C13.0273 6.55481 11.9398 6.83981 10.6423 7.66481C11.3848 8.83481 12.0373 9.55481 12.6898 9.92231C11.9923 10.1098 11.2648 10.6873 10.5748 11.7973C10.7623 11.9098 10.9348 12.0148 11.1073 12.1123H11.1223V12.1198H11.1298L11.1373 12.1273L11.1523 12.1348H11.1673L11.1823 12.1498H11.1898H11.2048V12.1573H11.2123L11.2198 12.1648L11.2348 12.1723H11.2498L11.2648 12.1798L11.2798 12.1873H11.2873H11.2948H11.3098V12.1948L11.3248 12.2023H11.3323H11.3398H11.3548V12.2098H11.3623L11.3773 12.2173H11.3923V12.2248L11.4073 12.2323H11.4148H11.4223H11.4373V12.2398H11.4448L11.4598 12.2473H11.4748V12.2548H11.4898L11.5123 12.2623H11.5273H11.5423H11.5498L11.5573 12.2698H11.5723H11.5798H11.5873H11.6023V12.2773H11.6173H11.6248H11.6323H11.6473H11.6548L11.6623 12.2848H11.6773H11.6923H11.6998H11.7073H11.7223H11.7298C11.0248 12.4648 10.2898 13.0423 9.59229 14.1673C10.2223 14.5648 10.7548 14.8198 11.2198 14.9548C10.7548 15.1573 10.2823 15.5998 9.82479 16.3273C10.1923 16.5598 10.5223 16.7323 10.8148 16.8448C10.6123 17.0548 10.4098 17.3248 10.2073 17.6398L10.2298 17.6548H10.2448V17.6698L10.2673 17.6848H10.2823V17.6998L10.3048 17.7148H10.3198V17.7298L10.3423 17.7448H10.3573L10.3648 17.7598L10.3873 17.7748H10.3948L10.4023 17.7898H10.4248L10.4323 17.8048H10.4398L10.4623 17.8198L10.4773 17.8273H10.4998V17.8423H10.5148L10.5373 17.8573L10.5523 17.8648H10.5673V17.8723H10.5823L10.5973 17.8948H10.6198L10.6348 17.9173L10.6498 17.9248H10.6648V17.9323H10.6798L10.6948 17.9473L10.7098 17.9623H10.7173V17.9698H10.7323L10.7398 17.9848H10.7473L10.7623 17.9998L10.7698 18.0073H10.7848V18.0223H10.7998L10.8148 18.0373L10.8298 18.0448H10.8448V18.0523H10.8598L10.8748 18.0673L10.8898 18.0748H10.9048V18.0823H10.9198L10.9348 18.0973L10.9498 18.1048H10.9648H10.9798L10.9873 18.1198L11.0023 18.1273H11.0098H11.0248V18.1348H11.0323L11.0473 18.1423H11.0548H11.0698V18.1498H11.0848L11.0998 18.1573H11.1148H11.1298H11.1448L11.1598 18.1648H11.1748L11.1898 18.1723H11.2048C11.0173 18.4948 10.8973 18.8698 10.8373 19.3048C11.6173 19.2898 12.2323 19.1473 12.6148 18.8698C12.6073 19.3048 12.7123 19.7698 12.9073 20.1823C13.4773 19.7923 13.9198 19.4173 14.1748 19.0423C14.3773 19.6273 15.0298 20.2273 15.9448 20.8498C16.0948 20.5273 16.2073 20.1898 16.2598 19.8523C16.5523 19.8073 16.8073 19.7398 17.0098 19.6348C17.0098 19.7248 17.0098 19.8148 17.0098 19.9048C17.7823 19.8898 18.3748 19.7473 18.7123 19.4698C18.7798 19.9048 18.9673 20.3698 19.2298 20.7823C19.6423 20.4673 19.9723 20.1523 20.1748 19.8523C20.6173 19.7848 20.9623 19.6573 21.1873 19.4698C21.2548 19.9048 21.4423 20.3698 21.7048 20.7823C21.9898 20.5648 22.2298 20.3473 22.4248 20.1373C22.6198 20.3473 22.8598 20.5648 23.1448 20.7823C23.4148 20.3623 23.6023 19.9048 23.6623 19.4698C23.9623 19.7173 24.4723 19.8598 25.1323 19.8973C25.3648 20.3098 25.6948 20.6848 26.0773 20.9923C26.5423 20.1598 26.8423 19.4323 26.8648 18.8548C27.0748 19.2898 27.5698 19.7248 28.2373 20.1823C28.4323 19.7623 28.5448 19.3048 28.5298 18.8698C28.7998 19.0648 29.1973 19.1998 29.6848 19.2598C29.6773 19.7923 29.8123 20.3473 30.0523 20.8498C30.9673 20.2273 31.6123 19.6273 31.8148 19.0423C32.0623 19.4098 32.5048 19.7923 33.0823 20.1823C33.2773 19.7623 33.3898 19.3048 33.3823 18.8698C33.7648 19.1473 34.3798 19.2973 35.1598 19.3048C35.0998 18.8773 34.9798 18.5023 34.7998 18.1873H34.8148H34.8223L34.8373 18.1798H34.8523H34.8673H34.8823L34.8973 18.1723H34.9123H34.9273H34.9423L34.9573 18.1573H34.9723H34.9873H35.0023L35.0173 18.1423H35.0323L35.0473 18.1273H35.0623L35.0773 18.1123L35.0923 18.1048H35.1073V18.0973H35.1223L35.1373 18.0823L35.1523 18.0748H35.1673V18.0673H35.1823L35.1973 18.0523L35.2123 18.0448H35.2273V18.0373H35.2423L35.2573 18.0223L35.2723 18.0073H35.2873V17.9998H35.3023L35.3173 17.9848L35.3323 17.9698H35.3398L35.3473 17.9623H35.3623L35.3698 17.9473H35.3773L35.3923 17.9323H35.3998L35.4073 17.9248H35.4298L35.4373 17.9098H35.4448L35.4673 17.8948H35.4748L35.4898 17.8873H35.5123V17.8723H35.5273L35.5498 17.8573L35.5648 17.8498L35.5873 17.8348L35.6023 17.8198L35.6248 17.8048L35.6398 17.7898L35.6623 17.7748L35.6773 17.7598L35.6998 17.7448L35.7148 17.7298L35.7373 17.7148L35.7523 17.6998L35.7748 17.6848L35.7973 17.6698L35.8198 17.6548L35.8423 17.6398L35.8648 17.6248C35.6623 17.3023 35.4598 17.0398 35.2573 16.8298C35.5498 16.7173 35.8723 16.5448 36.2473 16.3123C35.7898 15.5848 35.3173 15.1498 34.8523 14.9398C35.3173 14.8048 35.8498 14.5423 36.4798 14.1523C35.8273 13.1098 35.1523 12.5323 34.4923 12.3148L34.7998 12.4048ZM17.6398 18.4498L17.6248 18.4198H17.6623L17.6398 18.4498ZM19.0948 18.4873C19.0948 18.4873 19.0723 18.4423 19.0648 18.4198H19.1398C19.1398 18.4198 19.1098 18.4648 19.0948 18.4873ZM21.5773 18.4873C21.5773 18.4873 21.5548 18.4423 21.5473 18.4198H21.6223C21.6223 18.4198 21.5923 18.4648 21.5773 18.4873ZM23.6773 18.4873C23.6773 18.4873 23.6473 18.4423 23.6323 18.4198H23.7073C23.7073 18.4198 23.6848 18.4648 23.6773 18.4873Z" fill="#4A661C"/>
<path fill-rule="evenodd" clip-rule="evenodd" d="M29.4149 24.2775L32.7374 23.595L39.7199 20.8425L39.6074 16.875L37.2674 14.685L36.3599 11.6625L36.5849 15.36L37.9424 16.7925L37.8674 19.815L33.4874 21.1725L33.9374 17.85L32.1974 21.0975L28.8749 21.63L25.1774 23.595L24.7274 21.63L26.9174 18.0825L24.2024 20.4225L23.9024 18.3075L29.3399 14.3775L29.7899 10.755L28.5074 13.32L26.6924 14.3775L25.7099 9.77246L25.4849 15.21L21.2549 17.925L21.8624 22.9125L20.9549 22.08L17.3324 20.9475L17.5574 18.15L15.3674 14.6775L16.4999 18.15L15.3674 21.0225L11.1374 19.89L8.34741 14.7525L10.5374 21.0975L19.9724 23.8125L20.9324 26.43C21.8399 37.065 20.0999 41.985 18.6149 44.4825C17.5349 44.6475 16.9424 45.6975 15.8324 46.1175C14.5274 46.6125 12.7124 46.5525 11.7524 47.9775H32.7749C32.1524 47.1225 30.8774 47.1825 30.0974 46.9125C29.3324 46.65 29.0624 46.05 28.5074 45.69C26.9549 41.775 26.4899 38.025 27.5999 26.4225L29.3999 24.255L29.4149 24.2775Z" fill="#AD703E"/>
<path fill-rule="evenodd" clip-rule="evenodd" d="M18.8474 22.522L11.2424 20.8345L9.44238 17.9395L10.5374 21.112L19.9799 23.827L20.9324 26.4445L20.6774 23.8045L18.8474 22.522Z" fill="#935E36"/>
<path fill-rule="evenodd" clip-rule="evenodd" d="M14.7672 21.9748L10.9347 20.9698L9.82471 19.0273L10.5372 21.1123L19.9797 23.8273L18.7872 23.0323L14.7672 21.9748Z" fill="#935E36"/>
<path fill-rule="evenodd" clip-rule="evenodd" d="M23.9849 21.7648L24.4124 25.0273L25.1849 23.6023L24.7349 21.6373L26.9249 18.0898L23.9849 21.7648Z" fill="#935E36"/>
<path fill-rule="evenodd" clip-rule="evenodd" d="M22.7773 18.0602L23.6773 21.2327L24.2023 20.4302L23.9023 18.3152L29.3398 14.3852L29.7898 10.7627L28.8898 13.8902L22.7773 18.0602Z" fill="#935E36"/>
<path fill-rule="evenodd" clip-rule="evenodd" d="M17.5572 18.165L16.6572 21.2325L18.3822 21.285L17.3322 20.955L17.5572 18.165Z" fill="#935E36"/>
<path fill-rule="evenodd" clip-rule="evenodd" d="M17.4599 19.4248L16.9199 21.0973L17.7524 21.0898L17.3324 20.9548L17.4599 19.4248Z" fill="#7A4D2E"/>
<path fill-rule="evenodd" clip-rule="evenodd" d="M23.355 18.1049L24.2025 20.4299L23.9025 18.3149L29.34 14.3849L29.535 12.8174L29.0775 14.2499L23.355 18.1049Z" fill="#7A4D2E"/>
<path fill-rule="evenodd" clip-rule="evenodd" d="M20.9548 22.0873L18.9448 21.4648L20.5048 22.4098L22.2598 24.2248L21.8623 22.9198L20.9548 22.0873Z" fill="#BF7E4C"/>
<path fill-rule="evenodd" clip-rule="evenodd" d="M25.4847 15.2178L21.2622 17.9403L21.8622 22.9203L21.9372 18.2028L26.0922 15.1428L25.7172 9.78027L25.4847 15.2178Z" fill="#BF7E4C"/>
<path fill-rule="evenodd" clip-rule="evenodd" d="M11.1448 19.8969L9.26978 16.4619L11.1448 20.4144L15.6748 21.4119L16.0423 19.3269L15.3748 21.0369L11.1448 19.8969Z" fill="#BF7E4C"/>
<path fill-rule="evenodd" clip-rule="evenodd" d="M21.4947 19.8678L21.5472 18.1128L25.4847 15.2178L21.2622 17.9403L21.4947 19.8678Z" fill="#C88C63"/>
<path fill-rule="evenodd" clip-rule="evenodd" d="M22.635 21.1875L22.77 22.1325L23.37 24.7425L22.9425 21.99L22.635 21.1875Z" fill="#935E36"/>
<path fill-rule="evenodd" clip-rule="evenodd" d="M16.2972 21.3376L16.5147 20.0176L15.9897 21.5176L17.9772 21.7576L20.1447 22.7326L18.0072 21.5251L16.2972 21.3376Z" fill="#935E36"/>
<path fill-rule="evenodd" clip-rule="evenodd" d="M9.99731 18.5322L10.6423 20.3697L12.1273 20.8272L10.6948 20.0772L9.99731 18.5322Z" fill="#935E36"/>
<path fill-rule="evenodd" clip-rule="evenodd" d="M25.9198 15.4502L23.7148 17.1602L26.1673 15.5177L26.0248 13.4102L25.9198 15.4502Z" fill="#935E36"/>
<path fill-rule="evenodd" clip-rule="evenodd" d="M16.2748 20.7002L15.7798 21.6077L17.9773 21.7577L15.9973 21.4952L16.2748 20.7002Z" fill="#7A4D2E"/>
<path fill-rule="evenodd" clip-rule="evenodd" d="M22.3349 14.2577H22.3424H22.3499H22.3574H22.3649H22.3724H22.3799H22.3874H22.3949H22.4024H22.4099H22.4174H22.4249H22.4324H22.4399H22.4474H22.4624V14.2502H22.4699L22.4774 14.2427H22.4849H22.4924H22.4999H22.5074H22.5149L22.5224 14.2352H22.5299H22.5374H22.5449L22.5524 14.2277H22.5599H22.5674H22.5749V14.2202H22.5824L22.5974 14.2127H22.6049V14.2052L22.6124 14.1977H22.6199H22.6274H22.6349V14.1902L22.6424 14.1827H22.6499V14.1752L22.6574 14.1677H22.6649H22.6724H22.6799C22.8224 14.0852 22.9649 13.9952 23.1224 13.9052C22.5524 12.9827 21.9449 12.5027 21.3749 12.3452C21.9149 12.0452 22.4549 11.4452 23.0699 10.4777C21.9899 9.79516 21.0974 9.56266 20.3774 9.63766C20.4299 9.56266 20.4824 9.48016 20.5424 9.39016C19.7474 8.88766 19.0874 8.73016 18.5699 8.81266C18.8699 8.30266 19.1024 7.59016 19.2899 6.62266C17.5799 6.29266 16.4399 6.56266 15.7649 7.17766C15.8099 6.77266 15.7949 6.27766 15.7274 5.68516C15.0074 5.76766 14.4449 5.93266 14.0174 6.16516C13.8149 5.57266 13.4099 4.92016 12.7649 4.22266C11.9024 5.01766 11.3774 5.68516 11.1449 6.29266C10.6949 6.00016 10.0649 5.79016 9.22491 5.69266C9.16491 6.20266 9.14991 6.63016 9.17241 7.00516C8.48241 6.52516 7.40991 6.33766 5.87991 6.63016C6.06741 7.59766 6.29991 8.31016 6.59991 8.82016C6.08241 8.73766 5.42241 8.89516 4.62741 9.39766C4.85991 9.76516 5.06991 10.0502 5.27991 10.2752C4.70241 10.1852 3.96741 10.3652 3.08241 10.9277C3.38991 11.4152 3.67491 11.7752 3.94491 12.0452C3.21741 12.0902 2.44491 12.5777 1.70241 13.7252C2.21991 14.0477 2.66241 14.2727 3.05991 14.4077C2.51991 14.5877 1.94991 15.0677 1.40991 15.9302C1.93491 16.2602 2.37741 16.4702 2.75991 16.5827C2.37741 16.7552 1.98741 17.1152 1.60491 17.7152C1.91241 17.9027 2.18241 18.0452 2.42241 18.1427C2.24991 18.3227 2.08491 18.5402 1.91991 18.8027H1.93491L1.94991 18.8252H1.96491L1.97991 18.8477L1.99491 18.8627H2.00991V18.8702H2.02491L2.03991 18.8852L2.05491 18.9002H2.06991V18.9077H2.08491L2.09991 18.9227L2.11491 18.9377H2.12991V18.9452H2.14491L2.15241 18.9602L2.16741 18.9752H2.17491V18.9827H2.18991L2.19741 18.9977L2.21241 19.0127H2.21991V19.0202H2.23491L2.24241 19.0352H2.24991L2.26491 19.0502L2.27241 19.0577H2.28741V19.0727H2.29491L2.30991 19.0877L2.31741 19.0952H2.33241V19.1027H2.33991L2.35491 19.1177H2.36241H2.37741V19.1252H2.38491L2.39991 19.1402H2.41491H2.42991V19.1477H2.44491L2.45991 19.1627H2.47491H2.48991V19.1702H2.50491L2.51991 19.1852H2.53491H2.54991L2.56491 19.2002H2.57991H2.59491L2.60991 19.2077H2.62491H2.63991H2.65491L2.66991 19.2152H2.68491H2.69241H2.70741L2.71491 19.2227H2.72991H2.73741H2.75241L2.75991 19.2302H2.77491C2.62491 19.4927 2.52741 19.8002 2.47491 20.1527C3.11991 20.1452 3.62991 20.0177 3.94491 19.7927C3.93741 20.1527 4.02741 20.5352 4.19241 20.8802C4.66491 20.5577 5.03241 20.2427 5.24241 19.9352C5.41491 20.4227 5.94741 20.9177 6.70491 21.4352C6.89991 21.0152 7.01241 20.5577 7.00491 20.1152C7.40991 20.0627 7.73991 19.9502 7.96491 19.7927C7.95741 20.1527 8.04741 20.5352 8.21241 20.8802C8.76741 20.4977 9.17241 20.1377 9.35241 19.7777C9.37491 20.2577 9.62241 20.8577 10.0049 21.5477C10.3274 21.2927 10.5974 20.9852 10.7849 20.6402C11.3324 20.6102 11.7524 20.4902 11.9999 20.2877C12.0524 20.6477 12.2099 21.0302 12.4274 21.3752C12.6599 21.1952 12.8624 21.0152 13.0199 20.8427C13.1774 21.0152 13.3799 21.1952 13.6124 21.3752C13.8374 21.0302 13.9874 20.6477 14.0399 20.2877C14.2274 20.4452 14.5124 20.5502 14.8799 20.6027C15.0524 20.8577 15.3224 21.1127 15.6674 21.3752C15.8924 21.0302 16.0424 20.6477 16.0949 20.2877C16.3724 20.5127 16.8599 20.6402 17.5049 20.6477C17.5049 20.5727 17.5049 20.4977 17.5049 20.4227C17.6699 20.5052 17.8799 20.5652 18.1274 20.6027C18.1724 20.8877 18.2624 21.1652 18.3899 21.4277C19.1474 20.9102 19.6799 20.4152 19.8524 19.9277C20.0624 20.2352 20.4224 20.5502 20.9024 20.8727C21.0674 20.5277 21.1574 20.1452 21.1499 19.7852C21.4649 20.0177 21.9749 20.1377 22.6199 20.1452C22.5674 19.7852 22.4699 19.4702 22.3124 19.2077H22.3274H22.3349L22.3499 19.2002H22.3649H22.3799H22.3949L22.4024 19.1927H22.4174H22.4249H22.4399L22.4474 19.1852L22.4624 19.1777H22.4774V19.1702L22.4924 19.1627H22.4999H22.5149V19.1552H22.5224L22.5374 19.1477H22.5449H22.5599H22.5749L22.5899 19.1327H22.6049L22.6199 19.1177L22.6349 19.1102H22.6499H22.6649L22.6724 19.0952L22.6874 19.0877H22.6949V19.0802H22.7099V19.0727L22.7249 19.0577L22.7324 19.0502H22.7474V19.0427H22.7549L22.7699 19.0277L22.7849 19.0202H22.7999V19.0127H22.8149L22.8299 18.9977L22.8449 18.9902H22.8599V18.9827H22.8749L22.8899 18.9677L22.9049 18.9602H22.9199V18.9527H22.9349L22.9424 18.9377L22.9574 18.9227H22.9649V18.9152H22.9799L22.9874 18.9002H22.9949L23.0099 18.8852L23.0174 18.8777H23.0324V18.8627H23.0474L23.0624 18.8477L23.0774 18.8402H23.0924V18.8327H23.1074L23.1224 18.8102C22.9574 18.5477 22.7849 18.3227 22.6199 18.1502C22.8599 18.0527 23.1299 17.9102 23.4374 17.7227C23.0624 17.1152 22.6649 16.7552 22.2824 16.5902C22.6649 16.4777 23.1074 16.2602 23.6324 15.9377C23.0549 15.0077 22.4399 14.5277 21.8624 14.3777L22.3349 14.2577ZM12.5024 19.3352C12.5024 19.3352 12.4874 19.2977 12.4799 19.2827H12.5399C12.5399 19.2827 12.5174 19.3202 12.5024 19.3352ZM14.2424 19.3352C14.2424 19.3352 14.2199 19.2977 14.2049 19.2827H14.2649C14.2649 19.2827 14.2499 19.3202 14.2424 19.3352ZM16.2974 19.3352C16.2974 19.3352 16.2749 19.2977 16.2599 19.2827H16.3199C16.3199 19.2827 16.3049 19.3202 16.2974 19.3352ZM17.4974 19.3052L17.4749 19.2827H17.5049V19.3052H17.4974Z" fill="#81AA36"/>
<path fill-rule="evenodd" clip-rule="evenodd" d="M14.0925 11.2803H14.04C14.04 11.2803 14.0625 11.3178 14.07 11.3328C14.07 11.3178 14.085 11.2953 14.0925 11.2803Z" fill="#729928"/>
<path fill-rule="evenodd" clip-rule="evenodd" d="M15.885 11.2803H15.8325C15.8325 11.2803 15.855 11.3178 15.8625 11.3328C15.8625 11.3178 15.8775 11.2953 15.885 11.2803Z" fill="#729928"/>
<path fill-rule="evenodd" clip-rule="evenodd" d="M16.92 11.2803H16.8975L16.9125 11.3028L16.92 11.2803Z" fill="#729928"/>
<path fill-rule="evenodd" clip-rule="evenodd" d="M12.5774 11.2803H12.5249C12.5249 11.2803 12.5399 11.3178 12.5474 11.3328C12.5549 11.3178 12.5699 11.2953 12.5774 11.2803Z" fill="#729928"/>
<path fill-rule="evenodd" clip-rule="evenodd" d="M22.3348 14.2575H22.3423H22.3498H22.3573H22.3648H22.3723H22.3798H22.3873H22.3948H22.4023H22.4098H22.4173H22.4248H22.4323H22.4398H22.4473H22.4623V14.25H22.4698L22.4773 14.2425H22.4848H22.4923H22.4998H22.5073H22.5148L22.5223 14.235H22.5298H22.5373H22.5448L22.5523 14.2275H22.5598H22.5673H22.5748V14.22H22.5823L22.5973 14.2125H22.6048V14.205L22.6123 14.1975H22.6198H22.6273H22.6348V14.19L22.6423 14.1825H22.6498V14.175L22.6573 14.1675H22.6648H22.6723H22.6798C22.8223 14.085 22.9648 13.995 23.1223 13.905C22.5523 12.9825 21.9448 12.5025 21.3748 12.345C21.9148 12.045 22.4548 11.445 23.0698 10.4775C22.7098 10.245 22.3648 10.065 22.0423 9.9375C21.8473 10.065 21.6673 10.17 21.5023 10.245C21.6523 10.4175 21.7948 10.6425 21.9448 10.905H21.9298L21.9148 10.9275L21.8998 10.935H21.8848V10.9425H21.8698L21.8623 10.9575L21.8473 10.9725H21.8398V10.98H21.8248L21.8173 10.995L21.8023 11.01L21.7948 11.0175H21.7798V11.0325H21.7723L21.7573 11.0475L21.7498 11.055H21.7348V11.0625H21.7273L21.7123 11.0775L21.6973 11.085H21.6823V11.0925H21.6673L21.6523 11.1075L21.6373 11.115H21.6298V11.1225H21.6148L21.6073 11.1375L21.5923 11.145H21.5773V11.16L21.5623 11.175H21.5548H21.5398V11.1825H21.5323L21.5173 11.1975H21.5098H21.4948H21.4873L21.4723 11.2125H21.4573L21.4498 11.2275H21.4348H21.4273H21.4123L21.4048 11.235H21.3898H21.3748V11.2425L21.3598 11.25H21.3448H21.3373L21.3298 11.2575H21.3223H21.3148H21.3073L21.2998 11.265H21.2923H21.2848H21.2773L21.2698 11.2725H21.2548C21.3898 11.535 21.4723 11.85 21.5173 12.21C20.9548 12.2025 20.5048 12.075 20.2348 11.85C20.2423 12.21 20.1598 12.5925 20.0173 12.9375C19.6048 12.615 19.2823 12.3 19.1023 11.9925C18.9523 12.48 18.4873 12.975 17.8273 13.4925C17.7148 13.23 17.6398 12.945 17.5948 12.6675C17.3848 12.63 17.1973 12.57 17.0548 12.4875C17.0548 12.5625 17.0548 12.63 17.0548 12.7125C16.4923 12.705 16.0648 12.5775 15.8248 12.3525C15.7798 12.7125 15.6448 13.095 15.4498 13.44C15.1498 13.1775 14.9173 12.9225 14.7673 12.6675C14.4448 12.615 14.1973 12.5025 14.0323 12.3525C13.9873 12.7125 13.8523 13.095 13.6573 13.44C13.4548 13.26 13.2748 13.08 13.1398 12.9075C12.9973 13.08 12.8248 13.26 12.6223 13.44C12.4273 13.095 12.2923 12.7125 12.2473 12.3525C12.0298 12.555 11.6623 12.675 11.1823 12.705C11.0173 13.0425 10.7773 13.3575 10.4998 13.6125C10.1623 12.9225 9.94478 12.3225 9.92978 11.8425C9.77978 12.2025 9.41978 12.5625 8.93228 12.945C8.78978 12.6 8.70728 12.2175 8.71478 11.8575C8.51978 12.0225 8.23478 12.1275 7.87478 12.18C7.87478 12.615 7.78478 13.08 7.61228 13.5C6.95228 12.9825 6.47978 12.4875 6.33728 12C6.15728 12.3075 5.83478 12.6225 5.42228 12.945C5.27978 12.6 5.19728 12.2175 5.20478 11.8575C4.92728 12.0825 4.48478 12.21 3.92229 12.2175C3.93729 12.1275 3.94478 12.0375 3.96728 11.9475C3.26979 12.03 2.52729 12.525 1.82229 13.6125C2.33979 13.935 2.78228 14.16 3.17978 14.295C2.63978 14.475 2.06979 14.955 1.52979 15.8175C2.05479 16.1475 2.49729 16.3575 2.87979 16.47C2.49729 16.6425 2.10729 17.0025 1.72479 17.6025C2.03229 17.79 2.30229 17.9325 2.54229 18.03C2.36979 18.21 2.20479 18.4275 2.03979 18.69H2.05479L2.06979 18.7125H2.08479L2.09979 18.735L2.11479 18.75H2.12979V18.7575H2.14479L2.15979 18.7725L2.17479 18.7875H2.18979V18.795H2.20479L2.21979 18.81L2.23479 18.825H2.24979V18.8325H2.26479L2.27229 18.8475L2.28729 18.8625H2.29479V18.87H2.30979L2.31729 18.885L2.33229 18.9H2.33979V18.9075H2.35479L2.36229 18.9225H2.36979L2.38479 18.9375L2.39229 18.945H2.40729V18.96H2.41479L2.42979 18.975L2.43729 18.9825H2.45229V18.99H2.45979L2.47479 19.005H2.48229H2.49729V19.0125H2.50479L2.51979 19.0275H2.53479H2.54979V19.035H2.56479L2.57979 19.05H2.59479H2.60979V19.0575H2.62479L2.63979 19.0725H2.65479H2.66979L2.68479 19.0875H2.69979H2.71479L2.72979 19.095H2.74479H2.75979H2.77479L2.78979 19.1025H2.80479H2.81229H2.82729L2.83479 19.11H2.84979H2.85729H2.87229L2.87979 19.1175H2.89478C2.74479 19.38 2.64729 19.6875 2.59479 20.04C3.23979 20.0325 3.74979 19.905 4.06479 19.68C4.05729 20.04 4.14728 20.4225 4.31228 20.7675C4.78478 20.445 5.15228 20.13 5.36228 19.8225C5.53478 20.31 6.06729 20.805 6.82479 21.3225C7.01979 20.9025 7.13228 20.445 7.12478 20.0025C7.52978 19.95 7.85978 19.8375 8.08478 19.68C8.07728 20.04 8.16728 20.4225 8.33228 20.7675C8.88728 20.385 9.29228 20.025 9.47228 19.665C9.49478 20.145 9.74228 20.745 10.1248 21.435C10.4473 21.18 10.7173 20.8725 10.9048 20.5275C11.4523 20.4975 11.8723 20.3775 12.1198 20.175C12.1723 20.535 12.3298 20.9175 12.5473 21.2625C12.7798 21.0825 12.9823 20.9025 13.1398 20.73C13.2973 20.9025 13.4998 21.0825 13.7323 21.2625C13.9573 20.9175 14.1073 20.535 14.1598 20.175C14.3473 20.3325 14.6323 20.4375 14.9998 20.49C15.1723 20.745 15.4423 21 15.7873 21.2625C16.0123 20.9175 16.1623 20.535 16.2148 20.175C16.4923 20.4 16.9798 20.5275 17.6248 20.535C17.6248 20.46 17.6248 20.385 17.6248 20.31C17.7898 20.3925 17.9998 20.4525 18.2473 20.49C18.2923 20.775 18.3823 21.0525 18.5098 21.315C19.2673 20.7975 19.7998 20.3025 19.9723 19.815C20.1823 20.1225 20.5423 20.4375 21.0223 20.76C21.1873 20.415 21.2773 20.0325 21.2698 19.6725C21.5848 19.905 22.0948 20.025 22.7398 20.0325C22.6873 19.6725 22.5898 19.3575 22.4323 19.095H22.4473H22.4548L22.4698 19.0875H22.4848H22.4998H22.5148L22.5223 19.08H22.5373H22.5448H22.5598L22.5673 19.0725L22.5823 19.065H22.5973V19.0575L22.6123 19.05H22.6198H22.6348V19.0425H22.6423L22.6573 19.035H22.6648H22.6798H22.6948L22.7098 19.02H22.7248L22.7398 19.005L22.7548 18.9975H22.7698H22.7848L22.7923 18.9825L22.8073 18.975H22.8148V18.9675H22.8298V18.96L22.8448 18.945L22.8523 18.9375H22.8673V18.93H22.8748L22.8898 18.915L22.9048 18.9075H22.9198V18.9H22.9348L22.9498 18.885L22.9648 18.8775H22.9798V18.87H22.9948L23.0098 18.855L23.0248 18.8475H23.0398V18.84H23.0548L23.0623 18.825L23.0773 18.81H23.0848V18.8025H23.0998L23.1073 18.7875H23.1148L23.1298 18.7725L23.1373 18.765H23.1523V18.75H23.1673L23.1823 18.735L23.1973 18.7275H23.2123V18.72H23.2273L23.2423 18.6975C23.0773 18.435 22.9048 18.21 22.7398 18.0375C22.9798 17.94 23.2498 17.7975 23.5573 17.61C23.1823 17.0025 22.7848 16.6425 22.4023 16.4775C22.7848 16.365 23.2273 16.1475 23.7523 15.825C23.1748 14.895 22.5598 14.415 21.9823 14.265L22.3348 14.2575ZM12.5023 19.335C12.5023 19.335 12.4873 19.2975 12.4798 19.2825H12.5398C12.5398 19.2825 12.5173 19.32 12.5023 19.335ZM14.2423 19.335C14.2423 19.335 14.2198 19.2975 14.2048 19.2825H14.2648C14.2648 19.2825 14.2498 19.32 14.2423 19.335ZM16.2973 19.335C16.2973 19.335 16.2748 19.2975 16.2598 19.2825H16.3198C16.3198 19.2825 16.3048 19.32 16.2973 19.335ZM17.4973 19.305L17.4748 19.2825H17.5048V19.305H17.4973Z" fill="#729928"/>
<path fill-rule="evenodd" clip-rule="evenodd" d="M4.35721 11.1825H4.34221H4.33471L4.31971 11.175H4.31221H4.29721H4.28971L4.27471 11.1675H4.26721H4.25221H4.24471L4.22971 11.16H4.22221H4.20721H4.19221L4.17721 11.1525H4.16221H4.14721H4.13221L4.11721 11.1375H4.10221L4.09471 11.1225H4.07971H4.07221H4.05721L4.04971 11.1075L4.03471 11.1H4.02721H4.01221L4.00471 11.085L3.98971 11.0775H3.98221V11.07H3.96721L3.95971 11.055L3.94471 11.0475H3.93721V11.04H3.92221L3.91471 11.025L3.89971 11.01V11.0025H3.88471V10.9875L3.86971 10.9725L3.86221 10.965H3.84721V10.95H3.83971L3.82471 10.935L3.81721 10.9275H3.80221V10.9125H3.79471L3.77971 10.8975L3.77221 10.89H3.75721V10.875H3.74971L3.73471 10.86L3.71971 10.8525H3.70471V10.8375H3.68971L3.67471 10.8225L3.65971 10.815H3.64471V10.8H3.62971L3.61471 10.7775L3.59971 10.77H3.58471C3.59971 10.725 3.62221 10.695 3.63721 10.665C3.57721 10.7025 3.50971 10.74 3.44971 10.7775C3.72721 11.2125 3.98221 11.5575 4.22971 11.8125C4.27471 11.6025 4.34221 11.415 4.42471 11.2425L4.35721 11.1825Z" fill="#729928"/>
<path fill-rule="evenodd" clip-rule="evenodd" d="M17.5124 15.1055H17.4824L17.5049 15.128L17.5124 15.1055Z" fill="#5E7F21" stroke="#5E7F21" stroke-width="0.22" stroke-miterlimit="22.93"/>
<path fill-rule="evenodd" clip-rule="evenodd" d="M16.3273 15.1055H16.2673C16.2673 15.1055 16.2898 15.143 16.3048 15.158C16.3123 15.143 16.3198 15.1205 16.3273 15.1055Z" fill="#5E7F21" stroke="#5E7F21" stroke-width="0.22" stroke-miterlimit="22.93"/>
<path fill-rule="evenodd" clip-rule="evenodd" d="M12.54 15.1055H12.48C12.48 15.1055 12.495 15.143 12.5025 15.158C12.5175 15.143 12.525 15.1205 12.54 15.1055Z" fill="#5E7F21" stroke="#5E7F21" stroke-width="0.22" stroke-miterlimit="22.93"/>
<path fill-rule="evenodd" clip-rule="evenodd" d="M23.2199 14.7451H23.2049V14.7526H23.1899L23.1824 14.7676L23.1674 14.7751H23.1599V14.7826H23.1449V14.7901L23.1299 14.8051H23.1224H23.1074V14.8126H23.0999L23.0849 14.8276H23.0699H23.0549V14.8351H23.0399L23.0249 14.8501H23.0099H22.9949H22.9799L22.9724 14.8651H22.9574H22.9499H22.9349L22.9274 14.8726L22.9124 14.8801H22.8974V14.8876L22.8824 14.8951H22.8749H22.8599H22.8524L22.8374 14.9026H22.8299H22.8149H22.7999L22.7849 14.9101H22.7699L22.7624 14.9176H22.7474C22.8974 15.1801 23.0024 15.4951 23.0549 15.8551C22.4099 15.8476 21.8999 15.7201 21.5849 15.4951C21.5924 15.8551 21.5024 16.2376 21.3374 16.5826C20.8649 16.2601 20.4974 15.9451 20.2874 15.6376C20.1149 16.1251 19.5824 16.6201 18.8249 17.1376C18.6974 16.8751 18.6074 16.5901 18.5624 16.3126C18.3149 16.2751 18.1124 16.2151 17.9399 16.1326C17.9399 16.2076 17.9399 16.2826 17.9399 16.3576C17.3024 16.3501 16.8074 16.2226 16.5299 15.9976C16.4774 16.3576 16.3199 16.7401 16.1024 17.0851C15.7574 16.8226 15.4874 16.5676 15.3149 16.3126C14.9474 16.2601 14.6624 16.1476 14.4749 15.9976C14.4224 16.3576 14.2649 16.7401 14.0474 17.0851C13.8149 16.9051 13.6124 16.7251 13.4549 16.5526C13.2974 16.7251 13.0949 16.9051 12.8624 17.0851C12.6374 16.7401 12.4874 16.3576 12.4349 15.9976C12.1874 16.2001 11.7674 16.3201 11.2199 16.3501C11.0324 16.6951 10.7549 17.0026 10.4399 17.2576C10.0499 16.5676 9.80241 15.9676 9.78741 15.4876C9.61491 15.8476 9.20241 16.2076 8.64741 16.5901C8.48241 16.2451 8.39241 15.8626 8.39991 15.5026C8.17491 15.6676 7.84491 15.7726 7.43991 15.8251C7.43991 16.2601 7.33491 16.7251 7.13991 17.1451C6.38241 16.6276 5.84991 16.1326 5.67741 15.6451C5.47491 15.9526 5.10741 16.2676 4.62741 16.5901C4.46241 16.2451 4.37241 15.8626 4.37991 15.5026C4.06491 15.7276 3.55491 15.8551 2.90991 15.8626C2.96241 15.5101 3.05991 15.2026 3.20991 14.9401H3.19491H3.18741H3.17241H3.16491H3.14991H3.14241L3.12741 14.9326H3.11991H3.10491H3.08991L3.07491 14.9251H3.05991H3.04491H3.02991L3.01491 14.9176H2.99991H2.98491L2.96991 14.9026H2.95491H2.93991L2.92491 14.8876H2.90991H2.89491H2.87991L2.86491 14.8726L2.84991 14.8651H2.83491H2.81991L2.81241 14.8501L2.79741 14.8426H2.78991H2.77491L2.76741 14.8276L2.75241 14.8201H2.74491V14.8126H2.72991L2.72241 14.7976L2.70741 14.7826H2.69991V14.7751H2.68491L2.67741 14.7601H2.66991C2.36991 15.0151 2.06991 15.3676 1.78491 15.8401C2.30991 16.1701 2.75241 16.3801 3.13491 16.4926C2.75241 16.6651 2.36241 17.0251 1.97991 17.6251C2.28741 17.8126 2.55741 17.9551 2.79741 18.0526C2.62491 18.2326 2.45991 18.4501 2.29491 18.7126H2.30991L2.32491 18.7351H2.33991L2.35491 18.7576L2.36991 18.7726H2.38491V18.7801H2.39991L2.41491 18.7951L2.42991 18.8101H2.44491V18.8176H2.45991L2.47491 18.8326L2.48991 18.8476H2.50491V18.8551H2.51991L2.52741 18.8701L2.54241 18.8851H2.54991V18.8926H2.56491L2.57241 18.9076L2.58741 18.9226H2.59491V18.9301H2.60991L2.61741 18.9451H2.62491L2.63991 18.9601L2.64741 18.9676H2.66241V18.9826H2.66991L2.68491 18.9976L2.69241 19.0051H2.70741V19.0126H2.71491L2.72991 19.0276H2.73741H2.75241V19.0351H2.75991L2.77491 19.0501H2.78991H2.80491V19.0576H2.81991L2.83491 19.0726H2.84991H2.86491V19.0801H2.87991L2.89491 19.0951H2.90991H2.92491L2.93991 19.1101H2.95491H2.96991L2.98491 19.1176H2.99991H3.01491H3.02991L3.04491 19.1251H3.05991H3.06741H3.08241L3.08991 19.1326H3.10491H3.11241H3.12741L3.13491 19.1401H3.14991C2.99991 19.4026 2.90241 19.7101 2.84991 20.0626C3.49491 20.0551 4.00491 19.9276 4.31991 19.7026C4.31241 20.0626 4.40241 20.4451 4.56741 20.7901C5.03991 20.4676 5.40741 20.1526 5.61741 19.8451C5.78991 20.3326 6.32241 20.8276 7.07991 21.3451C7.27491 20.9251 7.38741 20.4676 7.37991 20.0251C7.78491 19.9726 8.11491 19.8601 8.33991 19.7026C8.33241 20.0626 8.42241 20.4451 8.58741 20.7901C9.14241 20.4076 9.54741 20.0476 9.72741 19.6876C9.74991 20.1676 9.99741 20.7676 10.3799 21.4576C10.7024 21.2026 10.9724 20.8951 11.1599 20.5501C11.7074 20.5201 12.1274 20.4001 12.3749 20.1976C12.4274 20.5576 12.5849 20.9401 12.8024 21.2851C13.0349 21.1051 13.2374 20.9251 13.3949 20.7526C13.5524 20.9251 13.7549 21.1051 13.9874 21.2851C14.2124 20.9401 14.3624 20.5576 14.4149 20.1976C14.6024 20.3551 14.8874 20.4601 15.2549 20.5126C15.4274 20.7676 15.6974 21.0226 16.0424 21.2851C16.2674 20.9401 16.4174 20.5576 16.4699 20.1976C16.7474 20.4226 17.2349 20.5501 17.8799 20.5576C17.8799 20.4826 17.8799 20.4076 17.8799 20.3326C18.0449 20.4151 18.2549 20.4751 18.5024 20.5126C18.5474 20.7976 18.6374 21.0751 18.7649 21.3376C19.5224 20.8201 20.0549 20.3251 20.2274 19.8376C20.4374 20.1451 20.7974 20.4601 21.2774 20.7826C21.4424 20.4376 21.5324 20.0551 21.5249 19.6951C21.8399 19.9276 22.3499 20.0476 22.9949 20.0551C22.9424 19.6951 22.8449 19.3801 22.6874 19.1176H22.7024H22.7099L22.7249 19.1101H22.7399H22.7549H22.7699L22.7774 19.1026H22.7924H22.7999H22.8149L22.8224 19.0951L22.8374 19.0876H22.8524V19.0801L22.8674 19.0726H22.8749H22.8899V19.0651H22.8974L22.9124 19.0576H22.9199H22.9349H22.9499L22.9649 19.0426H22.9799L22.9949 19.0276L23.0099 19.0201H23.0249H23.0399L23.0474 19.0051L23.0624 18.9976H23.0699V18.9901H23.0849V18.9826L23.0999 18.9676L23.1074 18.9601H23.1224V18.9526H23.1299L23.1449 18.9376L23.1599 18.9301H23.1749V18.9226H23.1899L23.2049 18.9076L23.2199 18.9001H23.2349V18.8926H23.2499L23.2649 18.8776L23.2799 18.8701H23.2949V18.8626H23.3099L23.3174 18.8476L23.3324 18.8326H23.3399V18.8251H23.3549L23.3624 18.8101H23.3699L23.3849 18.7951L23.3924 18.7876H23.4074V18.7726H23.4224L23.4374 18.7576L23.4524 18.7501H23.4674V18.7426H23.4824L23.4974 18.7201C23.3324 18.4576 23.1599 18.2326 22.9949 18.0601C23.2349 17.9626 23.5049 17.8201 23.8124 17.6326C23.4374 17.0251 23.0399 16.6651 22.6574 16.5001C23.0399 16.3876 23.4824 16.1701 24.0074 15.8476C23.7149 15.3826 23.4149 15.0301 23.1224 14.7676L23.2199 14.7451ZM12.5024 19.3351C12.5024 19.3351 12.4874 19.2976 12.4799 19.2826H12.5399C12.5399 19.2826 12.5174 19.3201 12.5024 19.3351ZM14.2424 19.3351C14.2424 19.3351 14.2199 19.2976 14.2049 19.2826H14.2649C14.2649 19.2826 14.2499 19.3201 14.2424 19.3351ZM16.2974 19.3351C16.2974 19.3351 16.2749 19.2976 16.2599 19.2826H16.3199C16.3199 19.2826 16.3049 19.3201 16.2974 19.3351ZM17.4974 19.3051L17.4749 19.2826H17.5049V19.3051H17.4974Z" fill="#5E7F21" stroke="#5E7F21" stroke-width="0.22" stroke-miterlimit="22.93"/>
<path fill-rule="evenodd" clip-rule="evenodd" d="M14.2648 15.1055H14.2048C14.2048 15.1055 14.2273 15.143 14.2423 15.158C14.2498 15.143 14.2573 15.1205 14.2648 15.1055Z" fill="#5E7F21" stroke="#5E7F21" stroke-width="0.22" stroke-miterlimit="22.93"/>
<path fill-rule="evenodd" clip-rule="evenodd" d="M36.4874 13.2903H36.4949H36.5024H36.5099H36.5174H36.5324L36.5399 13.2828H36.5474H36.5624H36.5699L36.5774 13.2753H36.5849H36.5924H36.5999L36.6074 13.2678H36.6224H36.6299H36.6449V13.2603L36.6599 13.2528L36.6824 13.2453H36.6974H36.7124L36.7274 13.2378H36.7424H36.7499L36.7574 13.2303H36.7724H36.7874H36.8024L36.8099 13.2228L36.8249 13.2153H36.8324H36.8399H36.8549V13.2078L36.8699 13.2003H36.8774H36.8849H36.8999V13.1928H36.9149V13.1853H36.9299H36.9449H36.9524L36.9599 13.1778L36.9749 13.1703H36.9824H36.9974H37.0124L37.0199 13.1553L37.0349 13.1478H37.0424H37.0499H37.0649C37.2299 13.0503 37.4099 12.9453 37.5899 12.8328C36.9074 11.7378 36.1949 11.1678 35.5124 10.9803C36.1574 10.6203 36.7949 9.91527 37.5224 8.76027C36.2399 7.95027 35.1749 7.67277 34.3199 7.76277C34.3799 7.67277 34.4474 7.57527 34.5149 7.47027C33.5699 6.87027 32.7824 6.68277 32.1674 6.78777C32.5274 6.18027 32.8049 5.33277 33.0224 4.19277C30.9899 3.79527 29.6399 4.12527 28.8374 4.85277C28.8899 4.37277 28.8749 3.78777 28.7924 3.08277C27.9374 3.18027 27.2699 3.37527 26.7599 3.65277C26.5199 2.94777 26.0399 2.17527 25.2749 1.34277C24.2474 2.28777 23.6249 3.07527 23.3474 3.79527C22.8149 3.45027 22.0649 3.19527 21.0674 3.08277C20.9999 3.68277 20.9774 4.20027 21.0074 4.63527C20.1899 4.06527 18.9149 3.84027 17.0999 4.19277C17.3249 5.34027 17.6024 6.18777 17.9549 6.78777C17.3399 6.69027 16.5599 6.87027 15.6074 7.47027C15.8774 7.90527 16.1399 8.24277 16.3874 8.51277C15.7049 8.40777 14.8349 8.61777 13.7774 9.28527C14.1449 9.86277 14.4749 10.2978 14.8049 10.6128C13.9424 10.6653 13.0199 11.2503 12.1424 12.6078C12.7574 12.9903 13.2899 13.2603 13.7549 13.4178C13.1099 13.6353 12.4349 14.2053 11.7974 15.2328C12.4199 15.6228 12.9449 15.8778 13.4024 16.0128C12.9449 16.2153 12.4799 16.6428 12.0299 17.3628C12.3899 17.5878 12.7124 17.7603 13.0049 17.8728C12.8024 18.0828 12.5999 18.3378 12.4049 18.6603L12.4274 18.6753L12.4499 18.6903L12.4724 18.7053L12.4874 18.7203L12.5099 18.7353H12.5249V18.7503L12.5474 18.7653H12.5624V18.7803L12.5849 18.7953H12.5999V18.8103L12.6224 18.8253H12.6374V18.8403H12.6599L12.6749 18.8628L12.6974 18.8778H12.7124V18.8853H12.7349L12.7499 18.9003L12.7724 18.9153H12.7874L12.7949 18.9228H12.8174L12.8249 18.9378H12.8324L12.8474 18.9528H12.8549L12.8624 18.9603H12.8774L12.8849 18.9753H12.8924L12.9074 18.9903H12.9149L12.9224 18.9978H12.9374V19.0128H12.9449L12.9599 19.0278L12.9749 19.0353H12.9899V19.0503H13.0049L13.0199 19.0653L13.0349 19.0728H13.0499V19.0803H13.0649L13.0799 19.0953L13.0949 19.1028H13.1099V19.1103H13.1249L13.1399 19.1253L13.1549 19.1328H13.1699V19.1403H13.1849L13.1999 19.1553H13.2149H13.2299L13.2449 19.1703H13.2599H13.2749L13.2899 19.1853H13.3049H13.3199H13.3349L13.3499 19.2003H13.3649H13.3799H13.3949L13.4099 19.2078H13.4249H13.4324H13.4474C13.2674 19.5228 13.1549 19.8903 13.0949 20.3103C13.8599 20.2953 14.4674 20.1528 14.8424 19.8828C14.8349 20.3103 14.9399 20.7678 15.1349 21.1803C15.6974 20.7978 16.1324 20.4228 16.3799 20.0553C16.5824 20.6328 17.2199 21.2178 18.1199 21.8328C18.3524 21.3378 18.4874 20.7828 18.4799 20.2653C18.9599 20.2053 19.3499 20.0703 19.6199 19.8753C19.6124 20.3028 19.7174 20.7603 19.9124 21.1728C20.5724 20.7228 21.0599 20.2878 21.2624 19.8678C21.2849 20.4378 21.5774 21.1503 22.0424 21.9753C22.4249 21.6753 22.7474 21.3003 22.9724 20.8953C23.6249 20.8578 24.1274 20.7153 24.4199 20.4753C24.4799 20.9028 24.6674 21.3603 24.9299 21.7728C25.2074 21.5553 25.4474 21.3453 25.6349 21.1353C25.8224 21.3453 26.0624 21.5553 26.3399 21.7728C26.6024 21.3603 26.7899 20.9103 26.8499 20.4753C27.0749 20.6628 27.4124 20.7828 27.8474 20.8503C28.0499 21.1503 28.3724 21.4578 28.7774 21.7653C29.0399 21.3528 29.2274 20.9028 29.2874 20.4678C29.6174 20.7378 30.2024 20.8878 30.9599 20.8953C30.9599 20.8053 30.9599 20.7153 30.9599 20.6328C31.1624 20.7303 31.4099 20.7978 31.6949 20.8428C31.7549 21.1803 31.8599 21.5103 32.0099 21.8253C32.9099 21.2103 33.5474 20.6253 33.7499 20.0478C33.9974 20.4153 34.4324 20.7828 34.9949 21.1728C35.1899 20.7603 35.2949 20.3103 35.2874 19.8753C35.6624 20.1453 36.2699 20.2953 37.0349 20.3028C36.9749 19.8753 36.8549 19.5003 36.6749 19.1853H36.6899H36.7049L36.7199 19.1778H36.7349H36.7499H36.7649L36.7799 19.1703H36.7949H36.8099H36.8249L36.8324 19.1628L36.8474 19.1553H36.8549H36.8699V19.1478H36.8774L36.8924 19.1403H36.8999H36.9149V19.1328H36.9299L36.9449 19.1178L36.9599 19.1103H36.9749V19.1028H36.9899L37.0049 19.0878H37.0199L37.0349 19.0728L37.0499 19.0653H37.0649V19.0578H37.0799L37.0949 19.0428L37.1099 19.0353H37.1174V19.0278H37.1324L37.1399 19.0128H37.1474L37.1624 18.9978L37.1699 18.9903H37.1849V18.9753H37.1999L37.2149 18.9603L37.2299 18.9528H37.2449V18.9453H37.2599L37.2749 18.9303L37.2899 18.9228H37.3049V18.9153H37.3199L37.3349 18.8928L37.3499 18.8778H37.3649V18.8703H37.3799L37.3949 18.8553L37.4174 18.8403H37.4249L37.4324 18.8328H37.4474L37.4549 18.8178H37.4624L37.4849 18.8028L37.4999 18.7878L37.5224 18.7728L37.5374 18.7578L37.5599 18.7428L37.5749 18.7278L37.5974 18.7128L37.6124 18.6978L37.6349 18.6828C37.4399 18.3678 37.2374 18.1053 37.0349 17.8953C37.3199 17.7828 37.6424 17.6103 38.0099 17.3853C37.5599 16.6653 37.0949 16.2378 36.6374 16.0353C37.0949 15.9003 37.6124 15.6453 38.2424 15.2553C37.5524 14.1453 36.8249 13.5753 36.1349 13.3953L36.4874 13.2903ZM24.8024 19.3203C24.8024 19.3203 24.7799 19.2753 24.7724 19.2528H24.8474C24.8474 19.2528 24.8174 19.2978 24.8024 19.3203ZM26.8724 19.3203C26.8724 19.3203 26.8424 19.2753 26.8274 19.2528H26.9024C26.9024 19.2528 26.8799 19.2978 26.8724 19.3203ZM29.3174 19.3203C29.3174 19.3203 29.2874 19.2753 29.2724 19.2528H29.3474C29.3474 19.2528 29.3249 19.2978 29.3174 19.3203ZM30.7424 19.2828L30.7199 19.2528H30.7574L30.7424 19.2828Z" fill="#98CD40"/>
<path fill-rule="evenodd" clip-rule="evenodd" d="M15.1351 9.62973H15.1201H15.1126L15.0976 9.62223H15.0901H15.0751H15.0676L15.0526 9.61473H15.0376H15.0226H15.0076L14.9926 9.59973H14.9776H14.9626H14.9476L14.9326 9.58473H14.9176L14.9026 9.56973H14.8876H14.8726V9.56223H14.8576L14.8426 9.54723L14.8276 9.53973H14.8126V9.53223H14.7976L14.7826 9.51723L14.7676 9.50973H14.7526V9.50223H14.7376L14.7301 9.48723L14.7151 9.47973H14.7076V9.47223H14.6926L14.6851 9.45723L14.6701 9.44223H14.6626V9.43473H14.6476L14.6401 9.41973L14.6251 9.40473H14.6176L14.6101 9.39723H14.5951L14.5876 9.38223H14.5801L14.5651 9.36723L14.5576 9.35973H14.5426V9.34473H14.5351L14.5201 9.32973L14.5126 9.32223H14.4976V9.30723H14.4826L14.4676 9.29223L14.4526 9.27723H14.4376V9.26223H14.4226L14.4076 9.23973L14.3926 9.22473L14.3776 9.20973L14.3626 9.19473L14.3476 9.17973L14.3326 9.16473L14.3176 9.14973L14.3026 9.13473L14.2876 9.11973L14.2726 9.10473L14.2576 9.08973C14.2801 9.05223 14.3026 9.01473 14.3251 8.96973C14.2501 9.01473 14.1751 9.05973 14.1001 9.10473C14.4301 9.62223 14.7301 10.0272 15.0301 10.3347C15.0901 10.0872 15.1651 9.86223 15.2626 9.65973L15.1351 9.62973Z" fill="#89BC31"/>
<path fill-rule="evenodd" clip-rule="evenodd" d="M36.4874 13.2902H36.4949H36.5024H36.5099H36.5174H36.5324L36.5399 13.2827H36.5474H36.5624H36.5699L36.5774 13.2752H36.5849H36.5924H36.5999L36.6074 13.2677H36.6224H36.6299H36.6449V13.2602L36.6599 13.2527L36.6824 13.2452H36.6974H36.7124L36.7274 13.2377H36.7424H36.7499L36.7574 13.2302H36.7724H36.7874H36.8024L36.8099 13.2227L36.8249 13.2152H36.8324H36.8399H36.8549V13.2077L36.8699 13.2002H36.8774H36.8849H36.8999V13.1927H36.9149V13.1852H36.9299H36.9449H36.9524L36.9599 13.1777L36.9749 13.1702H36.9824H36.9974H37.0124L37.0199 13.1552L37.0349 13.1477H37.0424H37.0499H37.0649C37.2299 13.0502 37.4099 12.9452 37.5899 12.8327C36.9074 11.7377 36.1949 11.1677 35.5124 10.9802C36.1574 10.6202 36.7949 9.91523 37.5224 8.76023C37.0874 8.49023 36.6824 8.27273 36.2999 8.11523C36.0674 8.27273 35.8574 8.39273 35.6624 8.48273C35.8349 8.69273 36.0149 8.95523 36.1874 9.27023L36.1724 9.28523H36.1574V9.30023L36.1424 9.31523H36.1274V9.33023L36.1124 9.34523H36.0974V9.36023L36.0824 9.37523H36.0749V9.39023H36.0599L36.0524 9.40523L36.0374 9.42023L36.0299 9.42773H36.0149V9.44273H36.0074L35.9924 9.45773L35.9774 9.46523H35.9624V9.48023H35.9474L35.9324 9.50273L35.9174 9.51023H35.9024V9.51773H35.8874L35.8724 9.53273L35.8574 9.54023H35.8424V9.54773H35.8274L35.8199 9.56273L35.8049 9.57773H35.7974V9.58523H35.7824V9.60023L35.7674 9.61523L35.7599 9.62273H35.7449V9.63023H35.7374L35.7224 9.64523L35.7074 9.65273H35.6924V9.66023H35.6774L35.6624 9.67523H35.6474L35.6324 9.69023L35.6174 9.69773H35.6024H35.5874L35.5799 9.71273L35.5649 9.72023H35.5574H35.5424V9.72773L35.5274 9.73523H35.5199H35.5049V9.74273H35.4974L35.4824 9.75023H35.4749H35.4599H35.4449L35.4299 9.75773H35.4149H35.3999H35.3849L35.3699 9.76523H35.3549C35.5124 10.0802 35.6174 10.4552 35.6699 10.8827C35.0024 10.8677 34.4699 10.7252 34.1474 10.4552C34.1549 10.8827 34.0649 11.3402 33.8924 11.7527C33.3974 11.3702 33.0224 10.9952 32.8049 10.6352C32.6324 11.2127 32.0699 11.7977 31.2899 12.4127C31.1624 12.0977 31.0649 11.7602 31.0199 11.4302C30.7649 11.3852 30.5474 11.3177 30.3749 11.2202C30.3749 11.3027 30.3749 11.3927 30.3749 11.4827C29.7074 11.4677 29.1974 11.3252 28.9124 11.0552C28.8599 11.4827 28.6949 11.9402 28.4624 12.3527C28.1099 12.0377 27.8249 11.7377 27.6449 11.4377C27.2624 11.3702 26.9699 11.2427 26.7749 11.0627C26.7224 11.4902 26.5574 11.9477 26.3249 12.3602C26.0849 12.1427 25.8749 11.9327 25.7099 11.7227C25.5449 11.9327 25.3349 12.1427 25.0949 12.3602C24.8624 11.9477 24.7049 11.4977 24.6449 11.0627C24.3899 11.3102 23.9474 11.4452 23.3849 11.4827C23.1899 11.8877 22.9049 12.2552 22.5749 12.5627C22.1699 11.7452 21.9149 11.0252 21.8924 10.4552C21.7124 10.8827 21.2849 11.3102 20.7149 11.7602C20.5424 11.3477 20.4524 10.8977 20.4599 10.4627C20.2274 10.6577 19.8824 10.7852 19.4624 10.8527C19.4624 11.3702 19.3499 11.9177 19.1474 12.4202C18.3599 11.8052 17.8049 11.2202 17.6324 10.6427C17.4149 11.0102 17.0399 11.3777 16.5449 11.7602C16.3724 11.3477 16.2824 10.8977 16.2899 10.4627C15.9674 10.7327 15.4349 10.8827 14.7674 10.8902C14.7824 10.7777 14.7974 10.6727 14.8199 10.5752C13.9949 10.6727 13.1099 11.2652 12.2774 12.5552C12.8924 12.9377 13.4249 13.2077 13.8899 13.3652C13.2449 13.5827 12.5699 14.1527 11.9324 15.1802C12.5549 15.5702 13.0799 15.8252 13.5374 15.9602C13.0799 16.1627 12.6149 16.5902 12.1649 17.3102C12.5249 17.5352 12.8474 17.7077 13.1399 17.8202C12.9374 18.0302 12.7349 18.2852 12.5399 18.6077L12.5624 18.6227L12.5849 18.6377L12.6074 18.6527L12.6224 18.6677L12.6449 18.6827H12.6599V18.6977L12.6824 18.7127H12.6974V18.7277L12.7199 18.7427H12.7349V18.7577L12.7574 18.7727H12.7724V18.7877H12.7949L12.8099 18.8102L12.8324 18.8252H12.8474V18.8327H12.8699L12.8849 18.8477L12.9074 18.8627H12.9224L12.9299 18.8702H12.9524L12.9599 18.8852H12.9674L12.9824 18.9002H12.9899L12.9974 18.9077H13.0124L13.0199 18.9227H13.0274L13.0424 18.9377H13.0499L13.0574 18.9452H13.0724V18.9602H13.0799L13.0949 18.9752L13.1099 18.9827H13.1249V18.9977H13.1399L13.1549 19.0127L13.1699 19.0202H13.1849V19.0277H13.1999L13.2149 19.0427L13.2299 19.0502H13.2449V19.0577H13.2599L13.2749 19.0727L13.2899 19.0802H13.3049V19.0877H13.3199L13.3349 19.1027H13.3499H13.3649L13.3799 19.1177H13.3949H13.4099L13.4249 19.1327H13.4399H13.4549H13.4699L13.4849 19.1477H13.4999H13.5149H13.5299L13.5449 19.1552H13.5599H13.5674H13.5824C13.4024 19.4702 13.2899 19.8377 13.2299 20.2577C13.9949 20.2427 14.6024 20.1002 14.9774 19.8302C14.9699 20.2577 15.0749 20.7152 15.2699 21.1277C15.8324 20.7452 16.2674 20.3702 16.5149 20.0027C16.7174 20.5802 17.3549 21.1652 18.2549 21.7802C18.4874 21.2852 18.6224 20.7302 18.6149 20.2127C19.0949 20.1527 19.4849 20.0177 19.7549 19.8227C19.7474 20.2502 19.8524 20.7077 20.0474 21.1202C20.7074 20.6702 21.1949 20.2352 21.3974 19.8152C21.4199 20.3852 21.7124 21.0977 22.1774 21.9227C22.5599 21.6227 22.8824 21.2477 23.1074 20.8427C23.7599 20.8052 24.2624 20.6627 24.5549 20.4227C24.6149 20.8502 24.8024 21.3077 25.0649 21.7202C25.3424 21.5027 25.5824 21.2927 25.7699 21.0827C25.9574 21.2927 26.1974 21.5027 26.4749 21.7202C26.7374 21.3077 26.9249 20.8577 26.9849 20.4227C27.2099 20.6102 27.5474 20.7302 27.9824 20.7977C28.1849 21.0977 28.5074 21.4052 28.9124 21.7127C29.1749 21.3002 29.3624 20.8502 29.4224 20.4152C29.7524 20.6852 30.3374 20.8352 31.0949 20.8427C31.0949 20.7527 31.0949 20.6627 31.0949 20.5802C31.2974 20.6777 31.5449 20.7452 31.8299 20.7902C31.8899 21.1277 31.9949 21.4577 32.1449 21.7727C33.0449 21.1577 33.6824 20.5727 33.8849 19.9952C34.1324 20.3627 34.5674 20.7302 35.1299 21.1202C35.3249 20.7077 35.4299 20.2577 35.4224 19.8227C35.7974 20.0927 36.4049 20.2427 37.1699 20.2502C37.1099 19.8227 36.9899 19.4477 36.8099 19.1327H36.8249H36.8399L36.8549 19.1252H36.8699H36.8849H36.8999L36.9149 19.1177H36.9299H36.9449H36.9599L36.9674 19.1102L36.9824 19.1027H36.9899H37.0049V19.0952H37.0124L37.0274 19.0877H37.0349H37.0499V19.0802H37.0649L37.0799 19.0652L37.0949 19.0577H37.1099V19.0502H37.1249L37.1399 19.0352H37.1549L37.1699 19.0202L37.1849 19.0127H37.1999V19.0052H37.2149L37.2299 18.9902L37.2449 18.9827H37.2524V18.9752H37.2674L37.2749 18.9602H37.2824L37.2974 18.9452L37.3049 18.9377H37.3199V18.9227H37.3349L37.3499 18.9077L37.3649 18.9002H37.3799V18.8927H37.3949L37.4099 18.8777L37.4249 18.8702H37.4399V18.8627H37.4549L37.4699 18.8402L37.4849 18.8252H37.4999V18.8177H37.5149L37.5299 18.8027L37.5524 18.7877H37.5599L37.5674 18.7802H37.5824L37.5899 18.7652H37.5974L37.6199 18.7502L37.6349 18.7352L37.6574 18.7202L37.6724 18.7052L37.6949 18.6902L37.7099 18.6752L37.7324 18.6602L37.7474 18.6452L37.7699 18.6302C37.5749 18.3152 37.3724 18.0527 37.1699 17.8427C37.4549 17.7302 37.7774 17.5577 38.1449 17.3327C37.6949 16.6127 37.2299 16.1852 36.7724 15.9827C37.2299 15.8477 37.7474 15.5927 38.3774 15.2027C37.6874 14.0927 36.9599 13.5227 36.2699 13.3427L36.4874 13.2902ZM24.8024 19.3202C24.8024 19.3202 24.7799 19.2752 24.7724 19.2527H24.8474C24.8474 19.2527 24.8174 19.2977 24.8024 19.3202ZM26.8724 19.3202C26.8724 19.3202 26.8424 19.2752 26.8274 19.2527H26.9024C26.9024 19.2527 26.8799 19.2977 26.8724 19.3202ZM29.3174 19.3202C29.3174 19.3202 29.2874 19.2752 29.2724 19.2527H29.3474C29.3474 19.2527 29.3249 19.2977 29.3174 19.3202ZM30.7424 19.2827L30.7199 19.2527H30.7574L30.7424 19.2827Z" fill="#89BC31"/>
<path fill-rule="evenodd" clip-rule="evenodd" d="M37.545 13.8672H37.53V13.8747H37.515L37.5 13.8897L37.485 13.9047H37.4775V13.9122H37.4625L37.455 13.9272H37.4475L37.4325 13.9422L37.425 13.9497H37.41V13.9647H37.395L37.38 13.9797L37.365 13.9872H37.35V13.9947H37.335L37.32 14.0097H37.305L37.29 14.0247L37.275 14.0322H37.26H37.245L37.23 14.0472L37.215 14.0547H37.2075H37.1925L37.185 14.0622L37.17 14.0697H37.1625H37.1475V14.0772H37.14L37.125 14.0847H37.11H37.095H37.08L37.065 14.0922H37.05H37.035H37.02L37.005 14.0997H36.99C37.17 14.4147 37.29 14.7897 37.35 15.2172C36.585 15.2022 35.9775 15.0597 35.6025 14.7897C35.61 15.2172 35.505 15.6747 35.31 16.0872C34.7475 15.7047 34.3125 15.3297 34.065 14.9622C33.8625 15.5397 33.225 16.1247 32.325 16.7397C32.175 16.4247 32.07 16.0872 32.01 15.7572C31.7175 15.7122 31.47 15.6447 31.275 15.5472C31.275 15.6297 31.275 15.7197 31.275 15.8097C30.51 15.7947 29.9325 15.6522 29.6025 15.3822C29.5425 15.8097 29.355 16.2672 29.0925 16.6797C28.6875 16.3647 28.365 16.0572 28.1625 15.7647C27.7275 15.6972 27.39 15.5697 27.165 15.3897C27.105 15.8172 26.9175 16.2747 26.655 16.6872C26.3775 16.4697 26.1375 16.2597 25.95 16.0497C25.7625 16.2597 25.5225 16.4697 25.245 16.6872C24.9825 16.2747 24.795 15.8247 24.735 15.3897C24.4425 15.6372 23.94 15.7722 23.2875 15.8097C23.0625 16.2147 22.7325 16.5822 22.3575 16.8897C21.8925 16.0722 21.6 15.3522 21.5775 14.7822C21.3675 15.2097 20.88 15.6372 20.2275 16.0872C20.0325 15.6747 19.9275 15.2247 19.935 14.7897C19.665 14.9847 19.275 15.1122 18.795 15.1797C18.795 15.6972 18.6675 16.2522 18.435 16.7472C17.535 16.1322 16.8975 15.5472 16.695 14.9697C16.4475 15.3372 16.0125 15.7047 15.45 16.0947C15.255 15.6822 15.15 15.2322 15.1575 14.7972C14.7825 15.0672 14.175 15.2172 13.41 15.2247C13.47 14.8047 13.59 14.4372 13.7625 14.1297H13.7475H13.74L13.725 14.1222H13.71H13.695H13.68L13.665 14.1147H13.65H13.635H13.62L13.605 14.0997H13.59H13.575H13.56L13.545 14.0847H13.53L13.515 14.0697H13.5L13.485 14.0547L13.47 14.0472H13.455H13.44L13.425 14.0322L13.41 14.0247H13.395V14.0172H13.38L13.365 14.0022L13.35 13.9947H13.335V13.9872H13.32L13.305 13.9722L13.29 13.9572H13.275V13.9497H13.26L13.2525 13.9347L13.2375 13.9197H13.23L13.2225 13.9122H13.2075L13.2 13.8972H13.1925L13.1775 13.8822H13.17L13.1625 13.8747C12.81 14.1747 12.45 14.5947 12.105 15.1497C12.7275 15.5397 13.2525 15.7947 13.71 15.9297C13.2525 16.1322 12.7875 16.5597 12.3375 17.2797C12.6975 17.5047 13.02 17.6772 13.3125 17.7897C13.11 17.9997 12.9075 18.2547 12.7125 18.5772L12.735 18.5922L12.7575 18.6072L12.78 18.6222L12.795 18.6372L12.8175 18.6522H12.8325V18.6672L12.855 18.6822H12.87V18.6972L12.8925 18.7122H12.9075V18.7272L12.93 18.7422H12.945V18.7572H12.9675L12.9825 18.7797L13.005 18.7947H13.02V18.8022H13.0425L13.0575 18.8172L13.08 18.8322H13.095L13.1025 18.8397H13.125L13.1325 18.8547H13.14L13.155 18.8697H13.1625L13.17 18.8772H13.185L13.1925 18.8922H13.2L13.215 18.9072H13.2225L13.23 18.9147H13.245V18.9297H13.2525L13.2675 18.9447L13.2825 18.9522H13.2975V18.9672H13.3125L13.3275 18.9822L13.3425 18.9897H13.3575V18.9972H13.3725L13.3875 19.0122L13.4025 19.0197H13.4175V19.0272H13.4325L13.4475 19.0422L13.4625 19.0497H13.4775V19.0572H13.4925L13.5075 19.0722H13.5225H13.5375L13.5525 19.0872H13.5675H13.5825L13.5975 19.1022H13.6125H13.6275H13.6425L13.6575 19.1172H13.6725H13.6875H13.7025L13.7175 19.1247H13.7325H13.74H13.755C13.575 19.4397 13.4625 19.8072 13.4025 20.2272C14.1675 20.2122 14.775 20.0697 15.15 19.7997C15.1425 20.2272 15.2475 20.6847 15.4425 21.0972C16.005 20.7147 16.44 20.3397 16.6875 19.9722C16.89 20.5497 17.5275 21.1347 18.4275 21.7497C18.66 21.2547 18.795 20.6997 18.7875 20.1822C19.2675 20.1222 19.6575 19.9872 19.9275 19.7922C19.92 20.2197 20.025 20.6772 20.22 21.0897C20.88 20.6397 21.3675 20.2047 21.57 19.7847C21.5925 20.3547 21.885 21.0672 22.35 21.8922C22.7325 21.5922 23.055 21.2172 23.28 20.8122C23.9325 20.7747 24.435 20.6322 24.7275 20.3922C24.7875 20.8197 24.975 21.2772 25.2375 21.6897C25.515 21.4722 25.755 21.2622 25.9425 21.0522C26.13 21.2622 26.37 21.4722 26.6475 21.6897C26.91 21.2772 27.0975 20.8272 27.1575 20.3922C27.3825 20.5797 27.72 20.6997 28.155 20.7672C28.3575 21.0672 28.68 21.3747 29.085 21.6822C29.3475 21.2697 29.535 20.8197 29.595 20.3847C29.925 20.6547 30.51 20.8047 31.2675 20.8122C31.2675 20.7222 31.2675 20.6322 31.2675 20.5497C31.47 20.6472 31.7175 20.7147 32.0025 20.7597C32.0625 21.0972 32.1675 21.4272 32.3175 21.7422C33.2175 21.1272 33.855 20.5422 34.0575 19.9647C34.305 20.3322 34.74 20.6997 35.3025 21.0897C35.4975 20.6772 35.6025 20.2272 35.595 19.7922C35.97 20.0622 36.5775 20.2122 37.3425 20.2197C37.2825 19.7922 37.1625 19.4172 36.9825 19.1022H36.9975H37.0125L37.0275 19.0947H37.0425H37.0575H37.0725L37.0875 19.0872H37.1025H37.1175H37.1325L37.14 19.0797L37.155 19.0722H37.1625H37.1775V19.0647H37.185L37.2 19.0572H37.2075H37.2225V19.0497H37.2375L37.2525 19.0347L37.2675 19.0272H37.2825V19.0197H37.2975L37.3125 19.0047H37.3275L37.3425 18.9897L37.3575 18.9822H37.3725V18.9747H37.3875L37.4025 18.9597L37.4175 18.9522H37.425V18.9447H37.44L37.4475 18.9297H37.455L37.47 18.9147L37.4775 18.9072H37.4925V18.8922H37.5075L37.5225 18.8772L37.5375 18.8697H37.5525V18.8622H37.5675L37.5825 18.8472L37.5975 18.8397H37.6125V18.8322H37.6275L37.6425 18.8097L37.6575 18.7947H37.6725V18.7872H37.6875L37.7025 18.7722L37.725 18.7572H37.7325L37.74 18.7497H37.755L37.7625 18.7347H37.77L37.7925 18.7197L37.8075 18.7047L37.83 18.6897L37.845 18.6747L37.8675 18.6597L37.8825 18.6447L37.905 18.6297L37.92 18.6147L37.9425 18.5997C37.7475 18.2847 37.545 18.0222 37.3425 17.8122C37.6275 17.6997 37.95 17.5272 38.3175 17.3022C37.8675 16.5822 37.4025 16.1547 36.945 15.9522C37.4025 15.8172 37.92 15.5622 38.55 15.1722C38.205 14.6172 37.8525 14.1972 37.4925 13.8897L37.545 13.8672ZM24.81 19.3197C24.81 19.3197 24.7875 19.2747 24.78 19.2522H24.855C24.855 19.2522 24.825 19.2972 24.81 19.3197ZM26.88 19.3197C26.88 19.3197 26.85 19.2747 26.835 19.2522H26.91C26.91 19.2522 26.8875 19.2972 26.88 19.3197ZM29.325 19.3197C29.325 19.3197 29.295 19.2747 29.28 19.2522H29.355C29.355 19.2522 29.3325 19.2972 29.325 19.3197ZM30.75 19.2822L30.7275 19.2522H30.765L30.75 19.2822Z" fill="#76A12A"/>
</g>
</svg>
