<svg width="24" height="24" viewBox="0 0 24 24" fill="none" xmlns="http://www.w3.org/2000/svg">
<g clip-path="url(#clip0_44_146807)">
<path d="M24 0H0V24H24V0Z" fill="#7B4720"/>
<path fill-rule="evenodd" clip-rule="evenodd" d="M0 8.57813C0.945313 8.89844 1.32031 8.79688 1.85156 9.85938C2.38281 10.9141 4.875 9.61719 5.14062 9.07031C7.625 3.96094 8.64844 12.5391 11.2422 10.4141C12.4609 9.41406 12.7344 9.94531 13.7422 10.4766C14.7578 11 16.0234 9.64844 16.7266 9.02344C17.4297 8.39844 17.1562 8.13281 18.0781 8.20313C19 8.27344 19.6016 9.66406 20.8125 9.61719C22.0234 9.57031 21.8203 8.24219 24 8.59375V0H0V8.57813Z" fill="#AB6C48"/>
<path fill-rule="evenodd" clip-rule="evenodd" d="M20.8125 9.60122C19.6016 9.64809 19 8.25747 18.0781 8.18715C17.1562 8.11684 17.4297 8.38247 16.7266 9.00747C16.0234 9.63247 14.75 10.9918 13.7422 10.4606C12.7266 9.93716 12.4609 9.40591 11.2422 10.3981C8.64844 12.5231 7.625 3.94497 5.14062 9.05434C4.875 9.60903 2.38281 10.8981 1.85156 9.84341C1.32031 8.78872 0.960938 8.61684 0 8.61684V14.1012C2.17969 14.2028 1.96875 15.0309 3.1875 15.0778C4.39844 15.1247 5 13.734 5.92187 13.6637C6.84375 13.5934 6.57031 13.859 7.27344 14.484C7.97656 15.109 9.25 16.4684 10.2578 15.9372C11.2734 15.4137 11.5391 14.8825 12.7578 15.8747C15.3516 17.9997 16.375 9.42153 18.8594 14.5309C19.125 15.0856 21.6172 16.3747 22.1484 15.32C22.6797 14.2653 23.0391 14.0934 24 14.0934V8.56215C21.8203 8.21059 22.0312 9.53872 20.8125 9.58559V9.60122Z" fill="#8F5833"/>
<path fill-rule="evenodd" clip-rule="evenodd" d="M20.6406 12.8516C20.0469 12.8516 19.5625 13.3359 19.5625 13.9219C19.5625 14.5078 20.0469 15 20.6406 15C21.2344 15 21.7187 14.5156 21.7187 13.9219C21.7187 13.3281 21.2344 12.8516 20.6406 12.8516Z" fill="#7B4720"/>
<path fill-rule="evenodd" clip-rule="evenodd" d="M22.5078 11.5547C22.2344 11.5547 22.0078 11.7813 22.0078 12.0547C22.0078 12.3281 22.2344 12.5547 22.5078 12.5547C22.7812 12.5547 23.0078 12.3281 23.0078 12.0547C23.0078 11.7813 22.7812 11.5547 22.5078 11.5547Z" fill="#7B4720"/>
<path fill-rule="evenodd" clip-rule="evenodd" d="M17.125 10.2578C16.8437 10.2578 16.6094 10.4844 16.6094 10.7734C16.6094 11.0625 16.8359 11.2891 17.125 11.2891C17.4141 11.2891 17.6406 11.0625 17.6406 10.7734C17.6406 10.4844 17.4062 10.2578 17.125 10.2578Z" fill="#7B4720"/>
<path fill-rule="evenodd" clip-rule="evenodd" d="M14.1953 13.0938C13.7266 13.0938 13.3438 13.4766 13.3438 13.9453C13.3438 14.4141 13.7266 14.7969 14.1953 14.7969C14.6641 14.7969 15.0469 14.4141 15.0469 13.9453C15.0469 13.4766 14.6641 13.0938 14.1953 13.0938Z" fill="#7B4720"/>
<path fill-rule="evenodd" clip-rule="evenodd" d="M9.75781 13.5234C9.24219 13.5234 8.82031 13.9453 8.82031 14.4609C8.82031 14.9766 9.24219 15.3984 9.75781 15.3984C10.2734 15.3984 10.6953 14.9766 10.6953 14.4609C10.6953 13.9453 10.2734 13.5234 9.75781 13.5234Z" fill="#7B4720"/>
<path d="M10.6641 12.5781C10.8712 12.5781 11.0391 12.4102 11.0391 12.2031C11.0391 11.996 10.8712 11.8281 10.6641 11.8281C10.457 11.8281 10.2891 11.996 10.2891 12.2031C10.2891 12.4102 10.457 12.5781 10.6641 12.5781Z" fill="#7B4720"/>
<path fill-rule="evenodd" clip-rule="evenodd" d="M5.73438 11.4531C5.44531 11.4531 5.21094 11.6875 5.21094 11.9766C5.21094 12.2656 5.44531 12.5 5.73438 12.5C6.02344 12.5 6.25781 12.2656 6.25781 11.9766C6.25781 11.6875 6.02344 11.4531 5.73438 11.4531Z" fill="#7B4720"/>
<path d="M7.6875 12.2344C8.11034 12.2344 8.45313 11.8916 8.45313 11.4688C8.45313 11.0459 8.11034 10.7031 7.6875 10.7031C7.26466 10.7031 6.92188 11.0459 6.92188 11.4688C6.92188 11.8916 7.26466 12.2344 7.6875 12.2344Z" fill="#7B4720"/>
<path fill-rule="evenodd" clip-rule="evenodd" d="M3.13281 12.9531C2.78906 12.9531 2.50781 13.2344 2.50781 13.5781C2.50781 13.9219 2.78906 14.2031 3.13281 14.2031C3.47656 14.2031 3.75781 13.9219 3.75781 13.5781C3.75781 13.2344 3.47656 12.9531 3.13281 12.9531Z" fill="#7B4720"/>
<path d="M2.32813 12.2578C2.48777 12.2578 2.61719 12.1284 2.61719 11.9687C2.61719 11.8091 2.48777 11.6797 2.32813 11.6797C2.16848 11.6797 2.03906 11.8091 2.03906 11.9687C2.03906 12.1284 2.16848 12.2578 2.32813 12.2578Z" fill="#7B4720"/>
<path fill-rule="evenodd" clip-rule="evenodd" d="M22.9844 15.7266C22.7422 15.7266 22.5469 15.9219 22.5469 16.1641C22.5469 16.4063 22.7422 16.6016 22.9844 16.6016C23.2266 16.6016 23.4219 16.4063 23.4219 16.1641C23.4219 15.9219 23.2266 15.7266 22.9844 15.7266Z" fill="#8F5833"/>
<path fill-rule="evenodd" clip-rule="evenodd" d="M20.0859 17.2422C19.8203 17.2422 19.6094 17.4531 19.6094 17.7188C19.6094 17.9844 19.8203 18.1953 20.0859 18.1953C20.3516 18.1953 20.5625 17.9844 20.5625 17.7188C20.5625 17.4531 20.3516 17.2422 20.0859 17.2422Z" fill="#8F5833"/>
<path fill-rule="evenodd" clip-rule="evenodd" d="M17.7656 14.1172C17.4922 14.1172 17.2656 14.3437 17.2656 14.6172C17.2656 14.8906 17.4922 15.1172 17.7656 15.1172C18.0391 15.1172 18.2656 14.8906 18.2656 14.6172C18.2656 14.3437 18.0391 14.1172 17.7656 14.1172Z" fill="#8F5833"/>
<path d="M14.5234 17.9531C14.6788 17.9531 14.8047 17.8272 14.8047 17.6719C14.8047 17.5165 14.6788 17.3906 14.5234 17.3906C14.3681 17.3906 14.2422 17.5165 14.2422 17.6719C14.2422 17.8272 14.3681 17.9531 14.5234 17.9531Z" fill="#8F5833"/>
<path fill-rule="evenodd" clip-rule="evenodd" d="M11.4219 16.1719C11.2812 16.1719 11.1641 16.2891 11.1641 16.4297C11.1641 16.5703 11.2812 16.6875 11.4219 16.6875C11.5625 16.6875 11.6797 16.5703 11.6797 16.4297C11.6797 16.2891 11.5625 16.1719 11.4219 16.1719Z" fill="#8F5833"/>
<path fill-rule="evenodd" clip-rule="evenodd" d="M7.34375 16.4453C7.14844 16.4453 6.99219 16.6016 6.99219 16.7969C6.99219 16.9922 7.14844 17.1484 7.34375 17.1484C7.53906 17.1484 7.69531 16.9922 7.69531 16.7969C7.69531 16.6016 7.53906 16.4453 7.34375 16.4453Z" fill="#8F5833"/>
<path d="M5.34375 16.375C5.71913 16.375 6.02344 16.0707 6.02344 15.6953C6.02344 15.3199 5.71913 15.0156 5.34375 15.0156C4.96837 15.0156 4.66406 15.3199 4.66406 15.6953C4.66406 16.0707 4.96837 16.375 5.34375 16.375Z" fill="#8F5833"/>
<path fill-rule="evenodd" clip-rule="evenodd" d="M1.78125 15.6953C1.5625 15.6953 1.375 15.875 1.375 16.1016C1.375 16.3281 1.55469 16.5078 1.78125 16.5078C2.00781 16.5078 2.1875 16.3281 2.1875 16.1016C2.1875 15.875 2.00781 15.6953 1.78125 15.6953Z" fill="#8F5833"/>
<path fill-rule="evenodd" clip-rule="evenodd" d="M22.1719 6.57812C21.8906 6.57812 21.6562 6.80469 21.6562 7.09375C21.6562 7.38281 21.8828 7.60937 22.1719 7.60937C22.4609 7.60937 22.6875 7.38281 22.6875 7.09375C22.6875 6.80469 22.4531 6.57812 22.1719 6.57812Z" fill="#8F5833"/>
<path fill-rule="evenodd" clip-rule="evenodd" d="M18.5 5.375C18.3594 5.375 18.2422 5.49219 18.2422 5.63281C18.2422 5.77344 18.3594 5.89062 18.5 5.89062C18.6406 5.89062 18.7578 5.77344 18.7578 5.63281C18.7578 5.49219 18.6406 5.375 18.5 5.375Z" fill="#8F5833"/>
<path fill-rule="evenodd" clip-rule="evenodd" d="M15 7.625C14.5391 7.625 14.1719 8 14.1719 8.45312C14.1719 8.90625 14.5469 9.28125 15 9.28125C15.4531 9.28125 15.8281 8.90625 15.8281 8.45312C15.8281 8 15.4531 7.625 15 7.625Z" fill="#8F5833"/>
<path fill-rule="evenodd" clip-rule="evenodd" d="M11.4453 7.32812C11.2656 7.32812 11.1172 7.47656 11.1172 7.65625C11.1172 7.83594 11.2656 7.98438 11.4453 7.98438C11.625 7.98438 11.7734 7.83594 11.7734 7.65625C11.7734 7.47656 11.625 7.32812 11.4453 7.32812Z" fill="#8F5833"/>
<path fill-rule="evenodd" clip-rule="evenodd" d="M10.7969 5.15625C10.7187 5.15625 10.6484 5.21875 10.6484 5.30469C10.6484 5.39063 10.7109 5.45313 10.7969 5.45313C10.8828 5.45313 10.9453 5.39063 10.9453 5.30469C10.9453 5.21875 10.8828 5.15625 10.7969 5.15625Z" fill="#8F5833"/>
<path fill-rule="evenodd" clip-rule="evenodd" d="M2.20312 7.82031C1.94531 7.82031 1.74219 8.03125 1.74219 8.28125C1.74219 8.53125 1.95312 8.74219 2.20312 8.74219C2.45312 8.74219 2.66406 8.53125 2.66406 8.28125C2.66406 8.03125 2.45312 7.82031 2.20312 7.82031Z" fill="#8F5833"/>
<path d="M4.52344 7.86719C4.65719 7.86719 4.76562 7.75876 4.76562 7.625C4.76562 7.49124 4.65719 7.38281 4.52344 7.38281C4.38968 7.38281 4.28125 7.49124 4.28125 7.625C4.28125 7.75876 4.38968 7.86719 4.52344 7.86719Z" fill="#8F5833"/>
<path fill-rule="evenodd" clip-rule="evenodd" d="M10.0313 8.42969C9.59375 8.42969 9.23438 8.78906 9.23438 9.22656C9.23438 9.66406 9.59375 10.0234 10.0313 10.0234C10.4688 10.0234 10.8281 9.66406 10.8281 9.22656C10.8281 8.78906 10.4688 8.42969 10.0313 8.42969Z" fill="#8F5833"/>
<path d="M2.00781 6.23438C2.22355 6.23438 2.39844 6.05949 2.39844 5.84375C2.39844 5.62801 2.22355 5.45312 2.00781 5.45312C1.79208 5.45312 1.61719 5.62801 1.61719 5.84375C1.61719 6.05949 1.79208 6.23438 2.00781 6.23438Z" fill="#8F5833"/>
<path fill-rule="evenodd" clip-rule="evenodd" d="M20.6641 10.4688C20.4688 10.4688 20.3125 10.625 20.3125 10.8203C20.3125 11.0156 20.4688 11.1719 20.6641 11.1719C20.8594 11.1719 21.0156 11.0156 21.0156 10.8203C21.0156 10.625 20.8594 10.4688 20.6641 10.4688Z" fill="#AB6C48"/>
<path fill-rule="evenodd" clip-rule="evenodd" d="M17.25 8.94531C17.1484 8.94531 17.0625 9.03125 17.0625 9.13281C17.0625 9.23437 17.1484 9.32031 17.25 9.32031C17.3516 9.32031 17.4375 9.23437 17.4375 9.13281C17.4375 9.03125 17.3516 8.94531 17.25 8.94531Z" fill="#AB6C48"/>
<path d="M13.0781 11.3828C13.3284 11.3828 13.5312 11.1799 13.5312 10.9297C13.5312 10.6794 13.3284 10.4766 13.0781 10.4766C12.8279 10.4766 12.625 10.6794 12.625 10.9297C12.625 11.1799 12.8279 11.3828 13.0781 11.3828Z" fill="#AB6C48"/>
<path fill-rule="evenodd" clip-rule="evenodd" d="M7.10156 9.14844C6.96094 9.14844 6.84375 9.26562 6.84375 9.40625C6.84375 9.54687 6.96094 9.66406 7.10156 9.66406C7.24219 9.66406 7.35937 9.54687 7.35937 9.40625C7.35937 9.26562 7.24219 9.14844 7.10156 9.14844Z" fill="#AB6C48"/>
<path fill-rule="evenodd" clip-rule="evenodd" d="M1.1875 10.0078C1.04687 10.0078 0.929688 10.125 0.929688 10.2656C0.929688 10.4062 1.04687 10.5234 1.1875 10.5234C1.32812 10.5234 1.44531 10.4062 1.44531 10.2656C1.44531 10.125 1.32812 10.0078 1.1875 10.0078Z" fill="#AB6C48"/>
<path fill-rule="evenodd" clip-rule="evenodd" d="M22.4922 19.6953C22.0859 19.6953 21.7578 20.0234 21.7578 20.4297C21.7578 20.8359 22.0859 21.1641 22.4922 21.1641C22.8984 21.1641 23.2266 20.8359 23.2266 20.4297C23.2266 20.0234 22.8984 19.6953 22.4922 19.6953Z" fill="#63391B"/>
<path d="M18.3672 16.3281C18.4492 16.3281 18.5156 16.2617 18.5156 16.1797C18.5156 16.0977 18.4492 16.0312 18.3672 16.0312C18.2852 16.0312 18.2188 16.0977 18.2188 16.1797C18.2188 16.2617 18.2852 16.3281 18.3672 16.3281Z" fill="#63391B"/>
<path fill-rule="evenodd" clip-rule="evenodd" d="M15.8984 18.7656C15.1719 18.7656 14.5781 19.3594 14.5781 20.0859C14.5781 20.8125 15.1719 21.4062 15.8984 21.4062C16.625 21.4062 17.2188 20.8125 17.2188 20.0859C17.2188 19.3594 16.625 18.7656 15.8984 18.7656Z" fill="#63391B"/>
<path fill-rule="evenodd" clip-rule="evenodd" d="M10.8281 17.3516C10.5234 17.3516 10.2812 17.6016 10.2812 17.8984C10.2812 18.1953 10.5312 18.4453 10.8281 18.4453C11.125 18.4453 11.375 18.1953 11.375 17.8984C11.375 17.6016 11.125 17.3516 10.8281 17.3516Z" fill="#63391B"/>
<path fill-rule="evenodd" clip-rule="evenodd" d="M7.71875 18.3281C7.30469 18.3281 6.96094 18.6719 6.96094 19.0859C6.96094 19.5 7.30469 19.8438 7.71875 19.8438C8.13281 19.8438 8.47656 19.5078 8.47656 19.0859C8.47656 18.6641 8.13281 18.3281 7.71875 18.3281Z" fill="#63391B"/>
<path fill-rule="evenodd" clip-rule="evenodd" d="M2.71094 17.6953C2.39844 17.6953 2.14844 17.9453 2.14844 18.2578C2.14844 18.5703 2.39844 18.8203 2.71094 18.8203C3.02344 18.8203 3.27344 18.5703 3.27344 18.2578C3.27344 17.9453 3.02344 17.6953 2.71094 17.6953Z" fill="#63391B"/>
<path fill-rule="evenodd" clip-rule="evenodd" d="M1.78906 20.3594C1.61719 20.3594 1.46875 20.5 1.46875 20.6797C1.46875 20.8594 1.60937 21 1.78906 21C1.96875 21 2.10938 20.8594 2.10938 20.6797C2.10938 20.5 1.96875 20.3594 1.78906 20.3594Z" fill="#63391B"/>
<path opacity="0.2" fill-rule="evenodd" clip-rule="evenodd" d="M0 5.60938C0 6.15625 0.445312 6.60156 0.992187 6.60156C1.19531 6.60156 1.39063 6.53906 1.54688 6.42969C1.80469 6.78125 2.21875 7.00781 2.67969 7.00781C3.24219 7.00781 3.72656 6.67969 3.94531 6.20313C4.17969 6.78906 4.75781 7.21094 5.4375 7.21094C6.25781 7.21094 6.92969 6.59375 7.03125 5.80469C7.13281 6.6875 7.875 7.36719 8.78125 7.36719C9.41406 7.36719 9.96875 7.03906 10.2812 6.53906C10.5391 6.82813 10.9141 7.00781 11.3281 7.00781C11.9219 7.00781 12.4297 6.64063 12.6328 6.11719C12.8359 6.64063 13.3594 7.00781 13.9375 7.00781C14.5156 7.00781 14.9844 6.14063 15.2109 5.66406C15.4453 6.25 16 6.59375 16.75 6.59375C17.5 6.59375 18 5.51563 18.1016 4.72656C18.2031 5.60938 18.8984 6.02344 19.9062 6.02344C20.9141 6.02344 20.9453 4.61719 21.2578 4.11719C21.5156 4.40625 21.7578 4.60938 22.3594 4.60938C22.9609 4.60938 23.6875 3.32031 23.6875 2.54688L23.7813 0.914062H0V5.60156V5.60938Z" fill="black"/>
<path fill-rule="evenodd" clip-rule="evenodd" d="M0 4.6875C0 5.23438 0.445312 5.67969 0.992187 5.67969C1.19531 5.67969 1.39063 5.61719 1.54688 5.50781C1.80469 5.85938 2.21875 6.08594 2.67969 6.08594C3.24219 6.08594 3.72656 5.75781 3.94531 5.28125C4.17969 5.86719 4.75781 6.28906 5.4375 6.28906C6.25781 6.28906 6.92969 5.67969 7.03125 4.88281C7.13281 5.76563 7.875 6.44531 8.78125 6.44531C9.41406 6.44531 9.96875 6.11719 10.2812 5.61719C10.5391 5.90625 10.9141 6.08594 11.3281 6.08594C11.9219 6.08594 12.4297 5.71875 12.6328 5.19531C12.8359 5.71094 13.3594 6.08594 13.9375 6.08594C14.5156 6.08594 14.9844 5.21875 15.2109 4.74219C15.4453 5.32813 16 5.67188 16.75 5.67188C17.5 5.67188 18 4.59375 18.1016 3.80469C18.2031 4.6875 18.8984 5.10156 19.9062 5.10156C20.9141 5.10156 20.9453 3.69531 21.2578 3.19531C21.5156 3.48438 21.7578 3.6875 22.3594 3.6875C22.9609 3.6875 23.6875 2.39844 23.6875 1.625L23.7813 -0.0078125H0V4.67969V4.6875Z" fill="#6FA024"/>
<path fill-rule="evenodd" clip-rule="evenodd" d="M0 3.67969C0 4.48438 1.32813 4.64844 1.54688 3.72656C1.80469 4.07813 2.21875 4.30469 2.67969 4.30469C3.24219 4.30469 3.72656 3.97656 3.94531 3.5C4.17969 4.08594 4.75781 4.50781 5.4375 4.50781C6.25781 4.50781 6.92969 3.89063 7.03125 3.10156C7.13281 3.98438 7.875 4.66406 8.78125 4.66406C9.41406 4.66406 9.96875 4.33594 10.2812 3.83594C10.5391 4.125 10.9141 4.30469 11.3281 4.30469C11.9219 4.30469 12.4297 3.9375 12.6328 3.41406C12.8359 3.9375 13.3594 4.30469 13.9375 4.30469C14.5156 4.30469 14.9844 3.4375 15.2109 2.96094C15.4453 3.54687 16 3.89063 16.75 3.89063C17.5 3.89063 18 2.8125 18.1016 2.02344C18.2031 2.90625 18.8984 3.32031 19.9062 3.32031C20.9141 3.32031 20.9453 1.91406 21.2578 1.41406C21.5156 1.70312 21.7578 1.90625 22.3594 1.90625C22.9219 1.90625 23.6016 0.773438 23.6797 -0.0078125H0V3.67188V3.67969Z" fill="#B2CF2A"/>
<path fill-rule="evenodd" clip-rule="evenodd" d="M0 1.47656C9.78125 1.35156 15.8437 1.80469 23.6719 0.0234375V0L0 0V1.47656Z" fill="#C5DD5C"/>
</g>
<defs>
<clipPath id="clip0_44_146807">
<rect width="24" height="24" fill="white"/>
</clipPath>
</defs>
</svg>
