<svg width="24" height="24" viewBox="0 0 24 24" fill="none" xmlns="http://www.w3.org/2000/svg">
<g clip-path="url(#clip0_44_147243)">
<path fill-rule="evenodd" clip-rule="evenodd" d="M0 0V22.6328C3.8125 22.6328 7.23438 24 9.28125 24C11.9844 24 13.3672 22.6328 16.0703 22.6328C18.0312 22.6328 20.3125 25.2422 21.9531 22.6328C22.1484 21.9453 22.2109 21.125 21.75 20.4766C21.1563 19.6406 24.2266 18.7734 22.8516 16.4453C22.1016 15.1797 24.5938 12.4531 22.6641 9.74219C21.5625 8.19531 24.1641 8.5 23.2891 3.77344C23.0469 2.47656 24.0078 1.71875 24.0078 0L0 0Z" fill="#7B4720"/>
<path fill-rule="evenodd" clip-rule="evenodd" d="M14.2969 0C14.7031 0.867188 14.9375 1.15625 14.6172 1.66406C14.2969 2.17188 13.8594 5.83594 15.4063 6.52344C16.1172 6.83594 16.3828 11.9297 16.3828 13.6328C16.3828 14.7656 19.2422 19.0391 21.8437 19.8516L21.8672 19.8281C22.4141 19.125 23.8906 18.1953 22.8516 16.4531C22.1016 15.1875 24.5938 12.4609 22.6641 9.75C21.5625 8.20312 24.1641 8.50781 23.2891 3.78125C23.0469 2.48438 24.0078 1.72656 24.0078 0.0078125H14.3047L14.2969 0Z" fill="#8F5833"/>
<path fill-rule="evenodd" clip-rule="evenodd" d="M17.2109 18.7576C14.7813 17.1092 11.5937 17.6092 11.1641 17.7811C8.60937 18.7811 8.52344 19.2811 7.35938 19.8436C6.19531 20.4061 4.73438 19.8904 4.36719 19.4373C4 18.9842 1.94531 19.8514 1.47656 20.2889C1.00781 20.7264 0.445312 20.8045 0 20.9764V22.6326C3.8125 22.6326 7.23438 23.9998 9.28125 23.9998C11.9844 23.9998 13.3672 22.6326 16.0703 22.6326C18.0312 22.6326 20.3125 25.242 21.9531 22.6326C21.3438 19.6561 19.4375 20.2654 17.2109 18.7576Z" fill="#693C1C"/>
<path fill-rule="evenodd" clip-rule="evenodd" d="M19.0157 0C19.0157 0.046875 18.1563 3.32813 17.8985 4.96875C17.6407 6.60938 20.5626 8.28125 19.7501 9.625C18.9376 10.9688 18.0782 12.6875 18.8907 13.9375C20.0704 15.75 20.3985 18.4688 21.8672 19.8203C22.4219 19.1172 23.8751 18.1953 22.8438 16.4531C22.0938 15.1875 24.586 12.4609 22.6563 9.75C21.5547 8.20313 24.1563 8.50781 23.2813 3.78125C23.0391 2.48438 24.0001 1.72656 24.0001 0.0078125H19.0157V0Z" fill="#AB6C48"/>
<path fill-rule="evenodd" clip-rule="evenodd" d="M17.8281 20.7113C14.3203 20.6488 12.8984 18.477 10.3203 21.8988C7.74219 25.3207 7.10937 21.1801 5.27344 21.0238C2.08594 20.7504 3.19531 21.8598 0 21.9145V22.6332C3.8125 22.6332 7.23438 24.0004 9.28125 24.0004C11.9844 24.0004 13.3672 22.6332 16.0703 22.6332C18.0312 22.6332 20.3125 25.2426 21.9531 22.6332C21 20.3285 20.5547 20.7582 17.8281 20.7113Z" fill="#5E3518"/>
<path fill-rule="evenodd" clip-rule="evenodd" d="M20.0312 1.21094C19.6875 1.21094 19.4062 1.49219 19.4062 1.83594C19.4062 2.17969 19.6875 2.46094 20.0312 2.46094C20.375 2.46094 20.6563 2.17969 20.6563 1.83594C20.6563 1.49219 20.375 1.21094 20.0312 1.21094Z" fill="#8F5833"/>
<path fill-rule="evenodd" clip-rule="evenodd" d="M19.0156 4.23438C18.8281 4.23438 18.6719 4.39063 18.6719 4.57813C18.6719 4.76563 18.8281 4.92188 19.0156 4.92188C19.2031 4.92188 19.3594 4.76563 19.3594 4.57813C19.3594 4.39063 19.2031 4.23438 19.0156 4.23438Z" fill="#8F5833"/>
<path fill-rule="evenodd" clip-rule="evenodd" d="M20.4531 5.64844C20.3203 5.64844 20.2109 5.75781 20.2109 5.89062C20.2109 6.02344 20.3203 6.13281 20.4531 6.13281C20.5859 6.13281 20.6953 6.02344 20.6953 5.89062C20.6953 5.75781 20.5859 5.64844 20.4531 5.64844Z" fill="#8F5833"/>
<path fill-rule="evenodd" clip-rule="evenodd" d="M20.4922 10.2188C20.1875 10.2188 19.9453 10.4687 19.9453 10.7656C19.9453 11.0625 20.1953 11.3125 20.4922 11.3125C20.7891 11.3125 21.0391 11.0625 21.0391 10.7656C21.0391 10.4687 20.7891 10.2188 20.4922 10.2188Z" fill="#8F5833"/>
<path fill-rule="evenodd" clip-rule="evenodd" d="M20.3359 12.8281C20.0234 12.8281 19.7734 13.0781 19.7734 13.3906C19.7734 13.7031 20.0234 13.9531 20.3359 13.9531C20.6484 13.9531 20.8984 13.7031 20.8984 13.3906C20.8984 13.0781 20.6484 12.8281 20.3359 12.8281Z" fill="#8F5833"/>
<path fill-rule="evenodd" clip-rule="evenodd" d="M20.3828 16.5156C20.2656 16.5156 20.1641 16.6172 20.1641 16.7344C20.1641 16.8516 20.2656 16.9531 20.3828 16.9531C20.5 16.9531 20.6016 16.8516 20.6016 16.7344C20.6016 16.6172 20.5 16.5156 20.3828 16.5156Z" fill="#8F5833"/>
<path fill-rule="evenodd" clip-rule="evenodd" d="M13.375 21.9375C13.2578 21.9375 13.1562 22.0391 13.1562 22.1563C13.1562 22.2734 13.2578 22.375 13.375 22.375C13.4922 22.375 13.5937 22.2734 13.5937 22.1563C13.5937 22.0391 13.4922 21.9375 13.375 21.9375Z" fill="#693C1C"/>
<path fill-rule="evenodd" clip-rule="evenodd" d="M12.0859 20.6719C11.7969 20.6719 11.5625 20.9063 11.5625 21.1953C11.5625 21.4844 11.7969 21.7188 12.0859 21.7188C12.375 21.7188 12.6094 21.4844 12.6094 21.1953C12.6094 20.9063 12.375 20.6719 12.0859 20.6719Z" fill="#693C1C"/>
<path fill-rule="evenodd" clip-rule="evenodd" d="M4.10938 21.1953C3.85938 21.1953 3.66406 21.3984 3.66406 21.6406C3.66406 21.8828 3.86719 22.0859 4.10938 22.0859C4.35156 22.0859 4.55469 21.8828 4.55469 21.6406C4.55469 21.3984 4.35156 21.1953 4.10938 21.1953Z" fill="#693C1C"/>
<path fill-rule="evenodd" clip-rule="evenodd" d="M1.14063 19.1484C0.945313 19.1484 0.78125 19.3125 0.78125 19.5078C0.78125 19.7031 0.945313 19.8672 1.14063 19.8672C1.33594 19.8672 1.5 19.7031 1.5 19.5078C1.5 19.3125 1.33594 19.1484 1.14063 19.1484Z" fill="#693C1C"/>
<path fill-rule="evenodd" clip-rule="evenodd" d="M4.08594 18.1875C3.99219 18.1875 3.91406 18.2656 3.91406 18.3594C3.91406 18.4531 3.99219 18.5312 4.08594 18.5312C4.17969 18.5312 4.25781 18.4531 4.25781 18.3594C4.25781 18.2656 4.17969 18.1875 4.08594 18.1875Z" fill="#693C1C"/>
<path d="M6.27344 19.625C6.48917 19.625 6.66406 19.4501 6.66406 19.2344C6.66406 19.0186 6.48917 18.8438 6.27344 18.8438C6.0577 18.8438 5.88281 19.0186 5.88281 19.2344C5.88281 19.4501 6.0577 19.625 6.27344 19.625Z" fill="#693C1C"/>
<path fill-rule="evenodd" clip-rule="evenodd" d="M12.0156 18.5859C11.7734 18.5859 11.5781 18.7812 11.5781 19.0234C11.5781 19.2656 11.7734 19.4609 12.0156 19.4609C12.2578 19.4609 12.4531 19.2656 12.4531 19.0234C12.4531 18.7812 12.2578 18.5859 12.0156 18.5859Z" fill="#5E3518"/>
<path d="M14.8672 16.2187C15.0268 16.2187 15.1562 16.0893 15.1562 15.9297C15.1562 15.77 15.0268 15.6406 14.8672 15.6406C14.7075 15.6406 14.5781 15.77 14.5781 15.9297C14.5781 16.0893 14.7075 16.2187 14.8672 16.2187Z" fill="#693C1C"/>
<path fill-rule="evenodd" clip-rule="evenodd" d="M13.2969 12.7734C12.7422 12.7734 12.2969 13.2266 12.2969 13.7734C12.2969 14.3203 12.75 14.7812 13.2969 14.7812C13.8438 14.7812 14.2969 14.3281 14.2969 13.7734C14.2969 13.2187 13.8438 12.7734 13.2969 12.7734Z" fill="#8F5833"/>
<path fill-rule="evenodd" clip-rule="evenodd" d="M12.5938 1.39844C12.2344 1.39844 11.9375 1.69531 11.9375 2.05469C11.9375 2.41406 12.2344 2.71094 12.5938 2.71094C12.9531 2.71094 13.25 2.41406 13.25 2.05469C13.25 1.69531 12.9531 1.39844 12.5938 1.39844Z" fill="#8F5833"/>
<path d="M10.375 8.1875C10.5907 8.1875 10.7656 8.01261 10.7656 7.79688C10.7656 7.58114 10.5907 7.40625 10.375 7.40625C10.1593 7.40625 9.98438 7.58114 9.98438 7.79688C9.98438 8.01261 10.1593 8.1875 10.375 8.1875Z" fill="#8F5833"/>
<path fill-rule="evenodd" clip-rule="evenodd" d="M12.2266 9.79688C11.8516 9.79688 11.5469 10.1016 11.5469 10.4766C11.5469 10.8516 11.8516 11.1562 12.2266 11.1562C12.6016 11.1562 12.9063 10.8516 12.9063 10.4766C12.9063 10.1016 12.6016 9.79688 12.2266 9.79688Z" fill="#8F5833"/>
<path fill-rule="evenodd" clip-rule="evenodd" d="M17.7812 0.984375C17.5781 0.984375 17.4141 1.14844 17.4141 1.35156C17.4141 1.55469 17.5781 1.71875 17.7812 1.71875C17.9844 1.71875 18.1484 1.55469 18.1484 1.35156C18.1484 1.14844 17.9844 0.984375 17.7812 0.984375Z" fill="#AB6C48"/>
<path fill-rule="evenodd" clip-rule="evenodd" d="M16.3281 2.98438C15.9844 2.98438 15.7031 3.26562 15.7031 3.60937C15.7031 3.95312 15.9844 4.23438 16.3281 4.23438C16.6719 4.23438 16.9531 3.95312 16.9531 3.60937C16.9531 3.26562 16.6719 2.98438 16.3281 2.98438Z" fill="#AB6C48"/>
<path fill-rule="evenodd" clip-rule="evenodd" d="M16.6953 7.64844C16.1875 7.64844 15.7812 8.0625 15.7812 8.5625C15.7812 9.0625 16.1953 9.47656 16.6953 9.47656C17.1953 9.47656 17.6094 9.0625 17.6094 8.5625C17.6094 8.0625 17.1953 7.64844 16.6953 7.64844Z" fill="#AB6C48"/>
<path fill-rule="evenodd" clip-rule="evenodd" d="M14.5703 5.17969C14.4687 5.17969 14.3906 5.26563 14.3906 5.35938C14.3906 5.45313 14.4766 5.53906 14.5703 5.53906C14.6641 5.53906 14.75 5.45313 14.75 5.35938C14.75 5.26563 14.6641 5.17969 14.5703 5.17969Z" fill="#AB6C48"/>
<path fill-rule="evenodd" clip-rule="evenodd" d="M18 10.6719C17.7422 10.6719 17.5391 10.8828 17.5391 11.1328C17.5391 11.3828 17.75 11.5938 18 11.5938C18.25 11.5938 18.4609 11.3828 18.4609 11.1328C18.4609 10.8828 18.25 10.6719 18 10.6719Z" fill="#AB6C48"/>
<path fill-rule="evenodd" clip-rule="evenodd" d="M17.6406 17.4688C17.3203 17.4688 17.0547 17.7344 17.0547 18.0547C17.0547 18.375 17.3203 18.6406 17.6406 18.6406C17.9609 18.6406 18.2266 18.375 18.2266 18.0547C18.2266 17.7344 17.9609 17.4688 17.6406 17.4688Z" fill="#5E3518"/>
<path fill-rule="evenodd" clip-rule="evenodd" d="M16.3281 19.2188C16.1094 19.2188 15.9219 19.3984 15.9219 19.625C15.9219 19.8516 16.1016 20.0312 16.3281 20.0312C16.5547 20.0312 16.7344 19.8516 16.7344 19.625C16.7344 19.3984 16.5547 19.2188 16.3281 19.2188Z" fill="#5E3518"/>
<path fill-rule="evenodd" clip-rule="evenodd" d="M8.96875 20.7109C8.65625 20.7109 8.40625 20.9609 8.40625 21.2734C8.40625 21.5859 8.65625 21.8359 8.96875 21.8359C9.28125 21.8359 9.53125 21.5859 9.53125 21.2734C9.53125 20.9609 9.28125 20.7109 8.96875 20.7109Z" fill="#5E3518"/>
<path fill-rule="evenodd" clip-rule="evenodd" d="M3.26562 20.3672C3.10156 20.3672 2.96094 20.5078 2.96094 20.6719C2.96094 20.8359 3.10156 20.9766 3.26562 20.9766C3.42969 20.9766 3.57031 20.8359 3.57031 20.6719C3.57031 20.5078 3.42969 20.3672 3.26562 20.3672Z" fill="#5E3518"/>
<path fill-rule="evenodd" clip-rule="evenodd" d="M2.8125 1.69531C2.14062 1.69531 1.59375 2.24219 1.59375 2.91406C1.59375 3.58594 2.14062 4.13281 2.8125 4.13281C3.48437 4.13281 4.03125 3.58594 4.03125 2.91406C4.03125 2.24219 3.48437 1.69531 2.8125 1.69531Z" fill="#63391B"/>
<path fill-rule="evenodd" clip-rule="evenodd" d="M7.33594 1.9375C7.1875 1.9375 7.07031 2.05469 7.07031 2.20312C7.07031 2.35156 7.1875 2.46875 7.33594 2.46875C7.48438 2.46875 7.60156 2.35156 7.60156 2.20312C7.60156 2.05469 7.48438 1.9375 7.33594 1.9375Z" fill="#63391B"/>
<path d="M4.13281 9.50781C4.96987 9.50781 5.64844 8.82924 5.64844 7.99219C5.64844 7.15513 4.96987 6.47656 4.13281 6.47656C3.29576 6.47656 2.61719 7.15513 2.61719 7.99219C2.61719 8.82924 3.29576 9.50781 4.13281 9.50781Z" fill="#63391B"/>
<path fill-rule="evenodd" clip-rule="evenodd" d="M4.54688 12.4844C4.23438 12.4844 3.98438 12.7344 3.98438 13.0469C3.98438 13.3594 4.23438 13.6094 4.54688 13.6094C4.85938 13.6094 5.10938 13.3594 5.10938 13.0469C5.10938 12.7344 4.85938 12.4844 4.54688 12.4844Z" fill="#63391B"/>
<path d="M1.57031 15.5078C2.05356 15.5078 2.44531 15.1161 2.44531 14.6328C2.44531 14.1496 2.05356 13.7578 1.57031 13.7578C1.08706 13.7578 0.695312 14.1496 0.695312 14.6328C0.695312 15.1161 1.08706 15.5078 1.57031 15.5078Z" fill="#63391B"/>
</g>
<defs>
<clipPath id="clip0_44_147243">
<rect width="24" height="24" fill="white"/>
</clipPath>
</defs>
</svg>
