<svg width="24" height="24" viewBox="0 0 24 24" fill="none" xmlns="http://www.w3.org/2000/svg">
<g clip-path="url(#clip0_44_147202)">
<path fill-rule="evenodd" clip-rule="evenodd" d="M0.71875 3.77344C-0.15625 8.5 2.44531 8.20313 1.34375 9.74219C-0.585938 12.4531 1.90625 15.1797 1.15625 16.4453C-0.21875 18.7734 2.84375 19.6406 2.25781 20.4766C1.79688 21.125 1.85938 21.9453 2.05469 22.6328C3.69531 25.2422 5.97656 22.6328 7.9375 22.6328C10.6406 22.6328 12.0234 24 14.7266 24C16.7734 24 20.1953 22.6328 24.0078 22.6328V0H0C0 1.71875 0.953125 2.47656 0.71875 3.77344Z" fill="#7B4720"/>
<path fill-rule="evenodd" clip-rule="evenodd" d="M0 -1.74623e-10C0 1.71875 0.953125 2.47656 0.71875 3.77344C-0.15625 8.5 2.44531 8.20313 1.34375 9.74219C-0.585938 12.4531 1.90625 15.1797 1.15625 16.4453C0.117187 18.1953 1.59375 19.1172 2.14063 19.8203L2.16406 19.8437C4.76562 19.0312 7.63281 14.7578 7.625 13.625C7.625 11.9297 7.89063 6.83594 8.60156 6.51563C10.1484 5.82813 9.71094 2.16406 9.39063 1.65625C9.07031 1.14844 9.30469 0.859375 9.71094 -0.0078125H0V-1.74623e-10Z" fill="#8F5833"/>
<path fill-rule="evenodd" clip-rule="evenodd" d="M19.6328 19.4451C19.2656 19.8982 17.8047 20.4139 16.6406 19.8514C15.4766 19.2889 15.3906 18.7889 12.8359 17.7889C12.3984 17.617 9.21875 17.117 6.78906 18.7654C4.5625 20.2732 2.65625 19.6639 2.04688 22.6404C3.6875 25.2498 5.96875 22.6404 7.92969 22.6404C10.6328 22.6404 12.0156 24.0076 14.7188 24.0076C16.7656 24.0076 20.1875 22.6404 24 22.6404V20.9842C23.5547 20.8123 22.9922 20.7342 22.5234 20.2967C22.0547 19.8592 20 18.992 19.6328 19.4451Z" fill="#693C1C"/>
<path fill-rule="evenodd" clip-rule="evenodd" d="M6.10156 4.96875C5.84375 3.32813 4.98438 0.046875 4.98438 0H0C0 1.71875 0.953125 2.47656 0.71875 3.77344C-0.15625 8.5 2.44531 8.20313 1.34375 9.74219C-0.585938 12.4531 1.90625 15.1797 1.15625 16.4453C0.125 18.1875 1.58594 19.1094 2.13281 19.8125C3.60156 18.4531 3.92969 15.7422 5.10937 13.9297C5.92187 12.6875 5.0625 10.9688 4.25 9.61719C3.4375 8.27344 6.35937 6.60156 6.10156 4.96094V4.96875Z" fill="#AB6C48"/>
<path fill-rule="evenodd" clip-rule="evenodd" d="M18.7266 21.0234C16.8828 21.1797 16.2578 25.3281 13.6797 21.8984C11.1016 18.4766 9.67969 20.6406 6.17188 20.7109C3.44531 20.7578 3 20.3281 2.04688 22.6328C3.6875 25.2422 5.96875 22.6328 7.92969 22.6328C10.6328 22.6328 12.0156 24 14.7188 24C16.7656 24 20.1875 22.6328 24 22.6328V21.9141C20.8047 21.8516 21.9141 20.75 18.7266 21.0234Z" fill="#5E3518"/>
<path fill-rule="evenodd" clip-rule="evenodd" d="M3.96875 1.21094C3.625 1.21094 3.34375 1.49219 3.34375 1.83594C3.34375 2.17969 3.625 2.46094 3.96875 2.46094C4.3125 2.46094 4.59375 2.17969 4.59375 1.83594C4.59375 1.49219 4.3125 1.21094 3.96875 1.21094Z" fill="#8F5833"/>
<path fill-rule="evenodd" clip-rule="evenodd" d="M4.98438 4.23438C4.79688 4.23438 4.64062 4.39063 4.64062 4.57813C4.64062 4.76563 4.79688 4.92188 4.98438 4.92188C5.17188 4.92188 5.32813 4.76563 5.32813 4.57813C5.32813 4.39063 5.17188 4.23438 4.98438 4.23438Z" fill="#8F5833"/>
<path d="M3.54687 6.13281C3.68063 6.13281 3.78906 6.02438 3.78906 5.89062C3.78906 5.75687 3.68063 5.64844 3.54687 5.64844C3.41312 5.64844 3.30469 5.75687 3.30469 5.89062C3.30469 6.02438 3.41312 6.13281 3.54687 6.13281Z" fill="#8F5833"/>
<path fill-rule="evenodd" clip-rule="evenodd" d="M3.50781 10.2188C3.20312 10.2188 2.96094 10.4687 2.96094 10.7656C2.96094 11.0625 3.21094 11.3125 3.50781 11.3125C3.80469 11.3125 4.05469 11.0625 4.05469 10.7656C4.05469 10.4687 3.80469 10.2188 3.50781 10.2188Z" fill="#8F5833"/>
<path fill-rule="evenodd" clip-rule="evenodd" d="M3.66406 12.8281C3.35156 12.8281 3.10156 13.0781 3.10156 13.3906C3.10156 13.7031 3.35156 13.9531 3.66406 13.9531C3.97656 13.9531 4.22656 13.7031 4.22656 13.3906C4.22656 13.0781 3.97656 12.8281 3.66406 12.8281Z" fill="#8F5833"/>
<path fill-rule="evenodd" clip-rule="evenodd" d="M3.61719 16.5156C3.5 16.5156 3.39844 16.6172 3.39844 16.7344C3.39844 16.8516 3.5 16.9531 3.61719 16.9531C3.73438 16.9531 3.83594 16.8516 3.83594 16.7344C3.83594 16.6172 3.73438 16.5156 3.61719 16.5156Z" fill="#8F5833"/>
<path fill-rule="evenodd" clip-rule="evenodd" d="M10.625 21.9375C10.5 21.9375 10.4062 22.0391 10.4062 22.1563C10.4062 22.2734 10.5078 22.375 10.625 22.375C10.7422 22.375 10.8438 22.2734 10.8438 22.1563C10.8438 22.0391 10.7422 21.9375 10.625 21.9375Z" fill="#693C1C"/>
<path fill-rule="evenodd" clip-rule="evenodd" d="M11.9141 20.6719C11.625 20.6719 11.3906 20.9063 11.3906 21.1953C11.3906 21.4844 11.625 21.7188 11.9141 21.7188C12.2031 21.7188 12.4375 21.4844 12.4375 21.1953C12.4375 20.9063 12.2031 20.6719 11.9141 20.6719Z" fill="#693C1C"/>
<path fill-rule="evenodd" clip-rule="evenodd" d="M19.8906 21.1953C19.6406 21.1953 19.4453 21.3984 19.4453 21.6406C19.4453 21.8828 19.6484 22.0859 19.8906 22.0859C20.1328 22.0859 20.3359 21.8828 20.3359 21.6406C20.3359 21.3984 20.1328 21.1953 19.8906 21.1953Z" fill="#693C1C"/>
<path fill-rule="evenodd" clip-rule="evenodd" d="M22.8594 19.1484C22.6641 19.1484 22.5 19.3125 22.5 19.5078C22.5 19.7031 22.6641 19.8672 22.8594 19.8672C23.0547 19.8672 23.2188 19.7031 23.2188 19.5078C23.2188 19.3125 23.0547 19.1484 22.8594 19.1484Z" fill="#693C1C"/>
<path fill-rule="evenodd" clip-rule="evenodd" d="M19.9141 18.1875C19.8203 18.1875 19.7422 18.2656 19.7422 18.3594C19.7422 18.4531 19.8203 18.5312 19.9141 18.5312C20.0078 18.5312 20.0859 18.4531 20.0859 18.3594C20.0859 18.2656 20.0078 18.1875 19.9141 18.1875Z" fill="#693C1C"/>
<path d="M17.7266 19.625C17.9423 19.625 18.1172 19.4501 18.1172 19.2344C18.1172 19.0186 17.9423 18.8438 17.7266 18.8438C17.5108 18.8438 17.3359 19.0186 17.3359 19.2344C17.3359 19.4501 17.5108 19.625 17.7266 19.625Z" fill="#693C1C"/>
<path fill-rule="evenodd" clip-rule="evenodd" d="M11.9844 18.5859C11.7422 18.5859 11.5469 18.7812 11.5469 19.0234C11.5469 19.2656 11.7422 19.4609 11.9844 19.4609C12.2266 19.4609 12.4219 19.2656 12.4219 19.0234C12.4219 18.7812 12.2266 18.5859 11.9844 18.5859Z" fill="#5E3518"/>
<path d="M9.13281 16.2187C9.29246 16.2187 9.42188 16.0893 9.42188 15.9297C9.42188 15.77 9.29246 15.6406 9.13281 15.6406C8.97317 15.6406 8.84375 15.77 8.84375 15.9297C8.84375 16.0893 8.97317 16.2187 9.13281 16.2187Z" fill="#693C1C"/>
<path fill-rule="evenodd" clip-rule="evenodd" d="M10.7031 12.7734C10.1484 12.7734 9.70312 13.2266 9.70312 13.7734C9.70312 14.3203 10.1562 14.7812 10.7031 14.7812C11.25 14.7812 11.7031 14.3281 11.7031 13.7734C11.7031 13.2187 11.25 12.7734 10.7031 12.7734Z" fill="#8F5833"/>
<path fill-rule="evenodd" clip-rule="evenodd" d="M11.4063 1.39844C11.0469 1.39844 10.75 1.69531 10.75 2.05469C10.75 2.41406 11.0469 2.71094 11.4063 2.71094C11.7656 2.71094 12.0625 2.41406 12.0625 2.05469C12.0625 1.69531 11.7656 1.39844 11.4063 1.39844Z" fill="#8F5833"/>
<path d="M13.625 8.1875C13.8407 8.1875 14.0156 8.01261 14.0156 7.79688C14.0156 7.58114 13.8407 7.40625 13.625 7.40625C13.4093 7.40625 13.2344 7.58114 13.2344 7.79688C13.2344 8.01261 13.4093 8.1875 13.625 8.1875Z" fill="#8F5833"/>
<path fill-rule="evenodd" clip-rule="evenodd" d="M11.7734 9.79688C11.3984 9.79688 11.0859 10.1016 11.0859 10.4766C11.0859 10.8516 11.3906 11.1562 11.7734 11.1562C12.1563 11.1562 12.4531 10.8516 12.4531 10.4766C12.4531 10.1016 12.1484 9.79688 11.7734 9.79688Z" fill="#8F5833"/>
<path fill-rule="evenodd" clip-rule="evenodd" d="M6.21875 0.984375C6.01563 0.984375 5.85156 1.14844 5.85156 1.35156C5.85156 1.55469 6.01563 1.71875 6.21875 1.71875C6.42188 1.71875 6.58594 1.55469 6.58594 1.35156C6.58594 1.14844 6.42188 0.984375 6.21875 0.984375Z" fill="#AB6C48"/>
<path fill-rule="evenodd" clip-rule="evenodd" d="M7.67187 2.98438C7.32812 2.98438 7.04688 3.26562 7.04688 3.60937C7.04688 3.95312 7.32812 4.23438 7.67187 4.23438C8.01562 4.23438 8.29687 3.95312 8.29687 3.60937C8.29687 3.26562 8.01562 2.98438 7.67187 2.98438Z" fill="#AB6C48"/>
<path fill-rule="evenodd" clip-rule="evenodd" d="M7.30469 7.64844C6.79688 7.64844 6.39062 8.0625 6.39062 8.5625C6.39062 9.0625 6.80469 9.47656 7.30469 9.47656C7.80469 9.47656 8.21875 9.0625 8.21875 8.5625C8.21875 8.0625 7.80469 7.64844 7.30469 7.64844Z" fill="#AB6C48"/>
<path fill-rule="evenodd" clip-rule="evenodd" d="M9.42969 5.17969C9.32812 5.17969 9.25 5.26563 9.25 5.35938C9.25 5.45313 9.32812 5.53906 9.42969 5.53906C9.53125 5.53906 9.60938 5.45313 9.60938 5.35938C9.60938 5.26563 9.52344 5.17969 9.42969 5.17969Z" fill="#AB6C48"/>
<path fill-rule="evenodd" clip-rule="evenodd" d="M6 10.6719C5.74219 10.6719 5.53906 10.8828 5.53906 11.1328C5.53906 11.3828 5.75 11.5938 6 11.5938C6.25 11.5938 6.46094 11.3828 6.46094 11.1328C6.46094 10.8828 6.25 10.6719 6 10.6719Z" fill="#AB6C48"/>
<path fill-rule="evenodd" clip-rule="evenodd" d="M6.35938 17.4688C6.03906 17.4688 5.77344 17.7344 5.77344 18.0547C5.77344 18.375 6.03906 18.6406 6.35938 18.6406C6.67969 18.6406 6.94531 18.375 6.94531 18.0547C6.94531 17.7344 6.67969 17.4688 6.35938 17.4688Z" fill="#5E3518"/>
<path fill-rule="evenodd" clip-rule="evenodd" d="M7.67187 19.2188C7.45312 19.2188 7.26562 19.3984 7.26562 19.625C7.26562 19.8516 7.44531 20.0312 7.67187 20.0312C7.89844 20.0312 8.07812 19.8516 8.07812 19.625C8.07812 19.3984 7.89844 19.2188 7.67187 19.2188Z" fill="#5E3518"/>
<path fill-rule="evenodd" clip-rule="evenodd" d="M15.0312 20.7109C14.7187 20.7109 14.4688 20.9609 14.4688 21.2734C14.4688 21.5859 14.7187 21.8359 15.0312 21.8359C15.3437 21.8359 15.5937 21.5859 15.5937 21.2734C15.5937 20.9609 15.3437 20.7109 15.0312 20.7109Z" fill="#5E3518"/>
<path fill-rule="evenodd" clip-rule="evenodd" d="M20.7344 20.3672C20.5625 20.3672 20.4297 20.5078 20.4297 20.6719C20.4297 20.8359 20.5703 20.9766 20.7344 20.9766C20.8984 20.9766 21.0391 20.8359 21.0391 20.6719C21.0391 20.5078 20.8984 20.3672 20.7344 20.3672Z" fill="#5E3518"/>
<path fill-rule="evenodd" clip-rule="evenodd" d="M21.1875 1.69531C20.5156 1.69531 19.9688 2.24219 19.9688 2.91406C19.9688 3.58594 20.5156 4.13281 21.1875 4.13281C21.8594 4.13281 22.4063 3.58594 22.4063 2.91406C22.4063 2.24219 21.8594 1.69531 21.1875 1.69531Z" fill="#63391B"/>
<path fill-rule="evenodd" clip-rule="evenodd" d="M16.6641 1.9375C16.5156 1.9375 16.3984 2.05469 16.3984 2.20312C16.3984 2.35156 16.5156 2.46875 16.6641 2.46875C16.8125 2.46875 16.9297 2.35156 16.9297 2.20312C16.9297 2.05469 16.8125 1.9375 16.6641 1.9375Z" fill="#63391B"/>
<path d="M19.8672 9.50781C20.7042 9.50781 21.3828 8.82924 21.3828 7.99219C21.3828 7.15513 20.7042 6.47656 19.8672 6.47656C19.0301 6.47656 18.3516 7.15513 18.3516 7.99219C18.3516 8.82924 19.0301 9.50781 19.8672 9.50781Z" fill="#63391B"/>
<path fill-rule="evenodd" clip-rule="evenodd" d="M19.4531 12.4844C19.1406 12.4844 18.8906 12.7344 18.8906 13.0469C18.8906 13.3594 19.1406 13.6094 19.4531 13.6094C19.7656 13.6094 20.0156 13.3594 20.0156 13.0469C20.0156 12.7344 19.7656 12.4844 19.4531 12.4844Z" fill="#63391B"/>
<path fill-rule="evenodd" clip-rule="evenodd" d="M22.4297 13.75C21.9453 13.75 21.5547 14.1484 21.5547 14.625C21.5547 15.1016 21.9531 15.5 22.4297 15.5C22.9062 15.5 23.3047 15.1016 23.3047 14.625C23.3047 14.1484 22.9141 13.75 22.4297 13.75Z" fill="#63391B"/>
</g>
<defs>
<clipPath id="clip0_44_147202">
<rect width="24" height="24" fill="white"/>
</clipPath>
</defs>
</svg>
