<svg width="24" height="24" viewBox="0 0 24 24" fill="none" xmlns="http://www.w3.org/2000/svg">
<g clip-path="url(#clip0_44_147286)">
<path fill-rule="evenodd" clip-rule="evenodd" d="M6.24219 9.03516C3.3125 9.15234 2.58594 8.49609 0 7.23047V17.9648H24V7.23047C21.6953 7.23047 19.5391 5.51953 17.2422 5.51953C13.1094 5.51953 9.17969 8.91797 6.24219 9.03516Z" fill="url(#paint0_linear_44_147286)"/>
<path fill-rule="evenodd" clip-rule="evenodd" d="M6.24219 9.03516C3.3125 9.15234 2.34375 8.41016 0 7.23047V8.59766C2.0625 9.96484 3.3125 10.5195 6.24219 10.4023C9.17969 10.2852 13.1016 6.88672 17.2422 6.88672C19.5469 6.88672 21.7344 7.30078 24 8.59766V7.23047C21.7266 6.05859 19.5391 5.51953 17.2422 5.51953C13.1094 5.51953 9.17969 8.91797 6.24219 9.03516Z" fill="#81D1FF"/>
<path fill-rule="evenodd" clip-rule="evenodd" d="M6.24219 9.03516C3.3125 9.15234 2.78906 8.50391 0 7.23047V7.74609C2.40625 9.33203 3.3125 9.66797 6.24219 9.55078C9.17969 9.43359 13.1016 6.03516 17.2422 6.03516C19.5469 6.03516 21.8984 6.83984 24 7.74609V7.23047C21.6484 6.04297 19.5391 5.51953 17.2422 5.51953C13.1094 5.51953 9.17969 8.91797 6.24219 9.03516Z" fill="#9EE0FF"/>
<path fill-rule="evenodd" clip-rule="evenodd" d="M17.7578 11.9883C14.8203 11.8711 10.8984 8.47266 6.75781 8.47266C4.45312 8.47266 2.29688 10.1836 0 10.1836V20.918H24V10.1836C21.4141 11.457 20.6875 12.1055 17.7578 11.9883Z" fill="url(#paint1_linear_44_147286)"/>
<path fill-rule="evenodd" clip-rule="evenodd" d="M17.7578 11.9883C14.8203 11.8711 10.8984 8.47266 6.75781 8.47266C4.45312 8.47266 2.27344 9.01172 0 10.1836V11.5508C2.26563 10.2539 4.46094 9.83984 6.75781 9.83984C10.8906 9.83984 14.8203 13.2383 17.7578 13.3555C20.6953 13.4727 21.9375 12.918 24 11.5508V10.1836C21.6562 11.3711 20.6875 12.1055 17.7578 11.9883Z" fill="#81D1FF"/>
<path fill-rule="evenodd" clip-rule="evenodd" d="M17.7578 11.9883C14.8203 11.8711 10.8984 8.47266 6.75781 8.47266C4.45312 8.47266 2.35156 8.99609 0 10.1836V10.6992C2.10156 9.80078 4.46094 8.98828 6.75781 8.98828C10.8906 8.98828 14.8203 12.3867 17.7578 12.5039C20.6953 12.6211 21.6016 12.2852 24 10.6992V10.1836C21.2109 11.457 20.6875 12.1055 17.7578 11.9883Z" fill="#9EE0FF"/>
<path fill-rule="evenodd" clip-rule="evenodd" d="M6.24219 15.0586C3.3125 15.1758 2.58594 14.5273 0 13.2539V23.9883H24V13.2539C21.6953 13.2539 19.5391 11.543 17.2422 11.543C13.1094 11.543 9.17969 14.9414 6.24219 15.0586Z" fill="url(#paint2_linear_44_147286)"/>
<path fill-rule="evenodd" clip-rule="evenodd" d="M6.24219 15.0586C3.3125 15.1758 2.34375 14.4414 0 13.2539V14.6211C2.0625 15.9883 3.3125 16.543 6.24219 16.4258C9.17969 16.3086 13.1016 12.9102 17.2422 12.9102C19.5469 12.9102 21.7344 13.3164 24 14.6211V13.2539C21.7266 12.082 19.5391 11.543 17.2422 11.543C13.1094 11.543 9.17969 14.9414 6.24219 15.0586Z" fill="#81D1FF"/>
<path fill-rule="evenodd" clip-rule="evenodd" d="M6.24219 15.0586C3.3125 15.1758 2.78906 14.5352 0 13.2539V13.7695C2.40625 15.3555 3.3125 15.6914 6.24219 15.5742C9.17969 15.457 13.1016 12.0586 17.2422 12.0586C19.5469 12.0586 21.8984 12.8633 24 13.7695V13.2539C21.6484 12.0664 19.5391 11.543 17.2422 11.543C13.1094 11.543 9.17969 14.9414 6.24219 15.0586Z" fill="#9EE0FF"/>
</g>
<defs>
<linearGradient id="paint0_linear_44_147286" x1="12" y1="7.75391" x2="12" y2="22.1602" gradientUnits="userSpaceOnUse">
<stop stop-color="#59CAEF"/>
<stop offset="1" stop-color="#4B8DCB"/>
</linearGradient>
<linearGradient id="paint1_linear_44_147286" x1="12" y1="3.45703" x2="12" y2="18.2305" gradientUnits="userSpaceOnUse">
<stop stop-color="#59CAEF"/>
<stop offset="1" stop-color="#4B8DCB"/>
</linearGradient>
<linearGradient id="paint2_linear_44_147286" x1="-2.52741e-08" y1="14.8633" x2="0.78125" y2="27.1055" gradientUnits="userSpaceOnUse">
<stop stop-color="#59CAEF"/>
<stop offset="1" stop-color="#4B8DCB"/>
</linearGradient>
<clipPath id="clip0_44_147286">
<rect width="24" height="18.4766" fill="white" transform="translate(0 5.51953)"/>
</clipPath>
</defs>
</svg>
