<svg width="24" height="24" viewBox="0 0 24 24" fill="none" xmlns="http://www.w3.org/2000/svg">
<mask id="mask0_44_148547" style="mask-type:luminance" maskUnits="userSpaceOnUse" x="0" y="0" width="24" height="24">
<path d="M24 0H0V24H24V0Z" fill="white"/>
</mask>
<g mask="url(#mask0_44_148547)">
<path fill-rule="evenodd" clip-rule="evenodd" d="M4.32736 18.1198H4.33486H4.34236H4.34986H4.35736H4.36486H4.37236H4.37986H4.38736H4.39486H4.40236H4.40986H4.41736H4.42486H4.43236L4.43986 18.1123H4.44736H4.45486H4.46986V18.1048H4.47736L4.48486 18.0973H4.49236V18.0898L4.49986 18.0823H4.50736H4.51486H4.52236V18.0748L4.52986 18.0673H4.53736L4.54486 18.0598L4.55236 18.0523H4.55986H4.56736H4.58236V18.0448L4.59736 18.0373H4.60486H4.61236H4.61986V18.0298H4.63486V18.0223H4.64236H4.65736H4.66486L4.67236 18.0148L4.68736 18.0073H4.69486H4.70986V17.9998L4.71736 17.9923H4.72486H4.73236H4.74736C4.89736 17.9023 5.05486 17.8123 5.22736 17.7073C4.61236 16.7173 3.95986 16.1998 3.33736 16.0273C3.92236 15.7048 4.50736 15.0598 5.16736 14.0098C4.00486 13.2748 3.03736 13.0198 2.26486 13.1098C2.32486 13.0273 2.37736 12.9373 2.43736 12.8398C1.57486 12.2923 0.862362 12.1273 0.307362 12.2173C0.629862 11.6698 0.884863 10.8973 1.08736 9.85477C-0.757637 9.49477 -1.98764 9.79477 -2.71514 10.4548C-2.67014 10.0123 -2.68514 9.48727 -2.75264 8.84227C-3.52514 8.93227 -4.13264 9.11227 -4.59764 9.35977C-4.81514 8.72227 -5.25014 8.01727 -5.94764 7.25977C-6.87764 8.12227 -7.44764 8.83477 -7.70264 9.48727C-8.19014 9.17227 -8.86514 8.94727 -9.77264 8.84227C-9.83264 9.38977 -9.85514 9.85477 -9.82514 10.2523C-10.5676 9.73477 -11.7301 9.53227 -13.3801 9.85477C-13.1776 10.8973 -12.9226 11.6623 -12.6001 12.2173C-13.1551 12.1273 -13.8676 12.2923 -14.7301 12.8398C-14.4826 13.2298 -14.2501 13.5448 -14.0251 13.7848C-14.6476 13.6873 -15.4351 13.8823 -16.3951 14.4898C-16.0651 15.0148 -15.7576 15.4048 -15.4651 15.6898C-16.2451 15.7348 -17.0851 16.2673 -17.8876 17.4973C-17.3251 17.8498 -16.8451 18.0898 -16.4251 18.2323C-17.0101 18.4273 -17.6251 18.9448 -18.2026 19.8748C-17.6401 20.2273 -17.1601 20.4598 -16.7476 20.5798C-17.1601 20.7673 -17.5876 21.1498 -17.9926 21.8023C-17.6626 22.0048 -17.3701 22.1623 -17.1076 22.2673C-17.2876 22.4548 -17.4751 22.6948 -17.6551 22.9798L-17.6326 22.9948H-17.6176V23.0098L-17.6026 23.0248H-17.5876V23.0398H-17.5726L-17.5576 23.0623L-17.5426 23.0773H-17.5276V23.0848H-17.5126L-17.4976 23.1073L-17.4826 23.1223H-17.4676V23.1298H-17.4526L-17.4376 23.1448L-17.4226 23.1598H-17.4076V23.1673H-17.3926L-17.3851 23.1823L-17.3701 23.1973H-17.3626V23.2048H-17.3476L-17.3401 23.2198H-17.3326L-17.3176 23.2348H-17.3101L-17.3026 23.2423H-17.2876L-17.2801 23.2573H-17.2726L-17.2576 23.2723L-17.2501 23.2798H-17.2351V23.2948H-17.2276L-17.2126 23.3098L-17.2051 23.3173H-17.1901V23.3248H-17.1751L-17.1601 23.3398L-17.1451 23.3473H-17.1301V23.3548H-17.1151L-17.1001 23.3698H-17.0851H-17.0701V23.3773H-17.0551L-17.0401 23.3923H-17.0251H-17.0101H-16.9951L-16.9801 23.4073H-16.9651L-16.9501 23.4223H-16.9351H-16.9201H-16.9051L-16.8901 23.4373H-16.8751H-16.8601H-16.8451L-16.8301 23.4448H-16.8151H-16.8076H-16.7926L-16.7851 23.4523H-16.7701H-16.7626H-16.7476C-16.9126 23.7373 -17.0101 24.0748 -17.0701 24.4573C-16.3726 24.4498 -15.8251 24.3148 -15.4801 24.0673C-15.4876 24.4573 -15.3901 24.8698 -15.2176 25.2448C-14.7076 24.8923 -14.3101 24.5548 -14.0851 24.2248C-13.9051 24.7498 -13.3276 25.2823 -12.5101 25.8448C-12.3001 25.3948 -12.1726 24.8923 -12.1801 24.4198C-11.7451 24.3598 -11.3926 24.2473 -11.1451 24.0673C-11.1526 24.4573 -11.0551 24.8698 -10.8826 25.2448C-10.2826 24.8323 -9.84014 24.4423 -9.65264 24.0598C-9.63014 24.5773 -9.36764 25.2298 -8.94764 25.9723C-8.60264 25.7023 -8.31014 25.3648 -8.10014 24.9898C-7.50764 24.9598 -7.05764 24.8323 -6.78764 24.6073C-6.72764 24.9973 -6.56264 25.4098 -6.32264 25.7848C-6.06764 25.5898 -5.85014 25.3948 -5.67764 25.2073C-5.50514 25.3948 -5.28764 25.5898 -5.03264 25.7848C-4.79264 25.4098 -4.62764 24.9973 -4.56764 24.6073C-4.36514 24.7723 -4.05764 24.8923 -3.66014 24.9523C-3.47264 25.2223 -3.18014 25.4998 -2.81264 25.7848C-2.57264 25.4098 -2.40764 24.9973 -2.34764 24.6073C-2.04764 24.8548 -1.52264 24.9898 -0.825137 24.9973C-0.825137 24.9148 -0.825137 24.8323 -0.825137 24.7573C-0.645137 24.8473 -0.420137 24.9073 -0.157637 24.9523C-0.105137 25.2598 -0.0076392 25.5598 0.127361 25.8448C0.944861 25.2898 1.52236 24.7498 1.70236 24.2248C1.92736 24.5548 2.32486 24.8923 2.83486 25.2448C3.00736 24.8698 3.11236 24.4573 3.09736 24.0673C3.43486 24.3148 3.98986 24.4498 4.68736 24.4573C4.63486 24.0673 4.52236 23.7298 4.35736 23.4448H4.37236H4.38736L4.40236 23.4373H4.41736L4.43236 23.4298H4.44736H4.46236H4.47736L4.48486 23.4223H4.49986H4.50736H4.52236L4.52986 23.4148L4.54486 23.4073H4.55236H4.56736V23.3998H4.57486L4.58986 23.3923H4.59736H4.61236V23.3848H4.62736L4.64236 23.3698H4.65736H4.67236L4.68736 23.3548H4.70236V23.3473H4.71736L4.73236 23.3323L4.74736 23.3248H4.75486H4.76986L4.77736 23.3098L4.79236 23.3023H4.79986L4.80736 23.2948H4.82236V23.2798H4.82986L4.84486 23.2648L4.85236 23.2573H4.86736V23.2498H4.88236L4.89736 23.2348L4.91236 23.2273H4.92736V23.2198H4.94236L4.95736 23.2048L4.97236 23.1973H4.98736V23.1898H5.00236L5.01736 23.1748L5.03236 23.1598H5.03986V23.1523H5.05486L5.06236 23.1373L5.07736 23.1223H5.08486L5.09236 23.1148H5.10736V23.0998H5.11486L5.12986 23.0848L5.14486 23.0773H5.15986V23.0623H5.17486L5.18986 23.0398L5.20486 23.0323H5.21986C5.03986 22.7323 4.85986 22.4998 4.67986 22.3048C4.94236 22.1998 5.23486 22.0498 5.56486 21.8398C5.15986 21.1873 4.73236 20.7973 4.31986 20.6173C4.73236 20.4973 5.21236 20.2648 5.77486 19.9123C5.15236 18.9073 4.49236 18.3898 3.86236 18.2248L4.32736 18.1198ZM-6.28514 23.5948C-6.28514 23.5948 -6.30014 23.5573 -6.31514 23.5348H-6.24764C-6.24764 23.5348 -6.27764 23.5723 -6.28514 23.5948ZM-4.41014 23.5948C-4.41014 23.5948 -4.43264 23.5573 -4.44764 23.5348H-4.38014C-4.38014 23.5348 -4.39514 23.5723 -4.41014 23.5948ZM-2.19014 23.5948C-2.19014 23.5948 -2.21264 23.5573 -2.22764 23.5348H-2.16014C-2.16014 23.5348 -2.17514 23.5723 -2.19014 23.5948ZM-0.892637 23.5648L-0.915139 23.5423H-0.877639L-0.892637 23.5648Z" fill="#4A661C"/>
<path fill-rule="evenodd" clip-rule="evenodd" d="M19.7775 17.4078H19.7925H19.8075H19.815H19.8225H19.8375H19.8525H19.8675L19.875 17.4003H19.89H19.8975H19.905H19.92V17.3928H19.935H19.9425H19.95H19.965H19.9725L19.98 17.3853H19.995H20.01H20.0325V17.3778H20.0475V17.3703H20.055L20.07 17.3628H20.085L20.0925 17.3553L20.1075 17.3478H20.115H20.1225H20.1375V17.3403L20.1525 17.3328H20.1675L20.175 17.3253L20.19 17.3178H20.1975H20.205H20.22V17.3103L20.235 17.3028H20.25H20.2575H20.2725V17.2953H20.2875V17.2878H20.3025H20.3175V17.2803H20.325L20.3325 17.2728L20.3475 17.2653H20.355H20.37H20.385L20.3925 17.2503L20.4075 17.2428H20.415H20.4225V17.2353H20.4375C20.61 17.1303 20.7975 17.0253 20.985 16.9053C20.2725 15.7653 19.5225 15.1653 18.81 14.9703C19.4775 14.5953 20.1525 13.8528 20.9175 12.6528C19.5825 11.8053 18.465 11.5128 17.5725 11.6103C17.64 11.5128 17.7075 11.4078 17.775 11.3028C16.785 10.6728 15.9675 10.4778 15.3225 10.5828C15.6975 9.94531 15.99 9.06031 16.2225 7.86781C14.1 7.45531 12.6825 7.79281 11.8425 8.55781C11.895 8.05531 11.88 7.44031 11.7975 6.70531C10.905 6.80281 10.2075 7.01281 9.6675 7.29781C9.4125 6.56281 8.9175 5.75281 8.115 4.88281C7.0425 5.87281 6.39 6.69781 6.0975 7.44781C5.535 7.08781 4.755 6.82531 3.7125 6.70531C3.645 7.33531 3.6225 7.87531 3.645 8.33281C2.79 7.73281 1.455 7.50031 -0.4425 7.87531C-0.21 9.07531 0.0825005 9.96031 0.4575 10.5903C-0.1875 10.4853 -1.005 10.6803 -1.995 11.3103C-1.71 11.7603 -1.44 12.1203 -1.185 12.3978C-1.905 12.2853 -2.8125 12.5103 -3.915 13.2078C-3.5325 13.8078 -3.18 14.2653 -2.8425 14.5953C-3.7425 14.6478 -4.71 15.2628 -5.6325 16.6803C-4.9875 17.0853 -4.4325 17.3628 -3.9525 17.5278C-4.6275 17.7528 -5.3325 18.3453 -6 19.4253C-5.3475 19.8303 -4.8 20.1003 -4.3275 20.2353C-4.8 20.4453 -5.295 20.8953 -5.76 21.6453C-5.3775 21.8853 -5.04 22.0578 -4.74 22.1778C-4.95 22.3953 -5.16 22.6653 -5.37 22.9953L-5.3475 23.0103L-5.325 23.0253L-5.3025 23.0403L-5.28 23.0553L-5.2575 23.0703L-5.2425 23.0853L-5.22 23.1003H-5.205V23.1153L-5.1825 23.1303H-5.1675V23.1453L-5.145 23.1603H-5.13V23.1753L-5.1075 23.1903H-5.0925V23.2053L-5.07 23.2203H-5.055V23.2353L-5.0325 23.2503H-5.0175V23.2578H-4.995L-4.98 23.2728H-4.9725L-4.95 23.2878H-4.9425L-4.935 23.2953H-4.9125L-4.905 23.3103H-4.8975L-4.875 23.3253H-4.8675L-4.86 23.3328H-4.8375L-4.83 23.3478H-4.8225L-4.8 23.3628H-4.7925L-4.7775 23.3703H-4.7625V23.3853H-4.7475L-4.725 23.4003L-4.71 23.4078H-4.695V23.4228H-4.68L-4.665 23.4378L-4.65 23.4453H-4.635V23.4528H-4.62L-4.605 23.4678L-4.59 23.4753H-4.575V23.4828H-4.56L-4.545 23.4978L-4.53 23.5053H-4.515H-4.5L-4.485 23.5203H-4.47L-4.455 23.5353H-4.44H-4.425H-4.41L-4.395 23.5503H-4.38H-4.365H-4.35L-4.335 23.5578H-4.32H-4.305H-4.29L-4.2825 23.5653H-4.2675C-4.455 23.8878 -4.575 24.2778 -4.635 24.7128C-3.8325 24.6978 -3.195 24.5478 -2.805 24.2628C-2.8125 24.7128 -2.7 25.1853 -2.4975 25.6203C-1.905 25.2153 -1.455 24.8328 -1.1925 24.4503C-0.9825 25.0503 -0.315 25.6728 0.6225 26.3103C0.87 25.7928 1.005 25.2153 0.9975 24.6753C1.5 24.6078 1.905 24.4728 2.19 24.2703C2.1825 24.7203 2.295 25.1928 2.4975 25.6278C3.1875 25.1553 3.6975 24.7053 3.915 24.2628C3.9375 24.8628 4.245 25.6053 4.7325 26.4678C5.13 26.1528 5.4675 25.7628 5.7075 25.3428C6.39 25.3053 6.915 25.1553 7.2225 24.9003C7.29 25.3503 7.485 25.8228 7.755 26.2578C8.0475 26.0328 8.295 25.8078 8.4975 25.5903C8.6925 25.8078 8.9475 26.0328 9.24 26.2578C9.5175 25.8303 9.7125 25.3503 9.7725 24.9003C10.005 25.0953 10.365 25.2228 10.815 25.2978C11.0325 25.6128 11.37 25.9278 11.79 26.2578C12.0675 25.8303 12.2625 25.3503 12.3225 24.9003C12.6675 25.1853 13.275 25.3353 14.0775 25.3503C14.0775 25.2528 14.0775 25.1628 14.0775 25.0728C14.2875 25.1778 14.5425 25.2453 14.85 25.2978C14.91 25.6503 15.0225 25.9953 15.18 26.3253C16.125 25.6803 16.785 25.0653 16.995 24.4653C17.25 24.8478 17.7075 25.2378 18.3 25.6353C18.5025 25.2078 18.615 24.7278 18.6075 24.2778C18.9975 24.5628 19.635 24.7128 20.4375 24.7278C20.37 24.2778 20.25 23.8878 20.055 23.5653H20.07H20.085L20.1 23.5578H20.115H20.13H20.145L20.16 23.5503H20.175H20.19H20.205L20.2125 23.5428L20.2275 23.5353H20.235H20.2425H20.2575L20.265 23.5278H20.2725L20.2875 23.5128H20.295H20.31V23.5053H20.325L20.34 23.4903L20.355 23.4828H20.37V23.4753H20.385L20.4 23.4603L20.415 23.4528H20.43V23.4453H20.445L20.46 23.4303L20.475 23.4228H20.49V23.4153H20.505L20.5125 23.4003L20.5275 23.3853H20.535L20.5425 23.3778H20.5575V23.3628H20.565L20.58 23.3478L20.595 23.3403H20.61V23.3253H20.625L20.6475 23.3103L20.6625 23.3028H20.685V23.2953H20.7L20.715 23.2728L20.7375 23.2578H20.7525V23.2503H20.775L20.79 23.2278L20.8125 23.2128H20.8275V23.2053L20.85 23.1903H20.8575L20.865 23.1753H20.8875L20.895 23.1603H20.9025L20.925 23.1453H20.9325L20.9475 23.1303L20.97 23.1153L20.985 23.1003L21.0075 23.0853L21.0225 23.0703L21.045 23.0553L21.0675 23.0403L21.09 23.0253C20.8875 22.6953 20.6775 22.4253 20.4675 22.2078C20.7675 22.0878 21.105 21.9153 21.48 21.6753C21.015 20.9253 20.5275 20.4753 20.0475 20.2653C20.52 20.1228 21.075 19.8603 21.72 19.4553C21 18.2928 20.2425 17.7003 19.515 17.5128L19.7775 17.4078ZM7.56 23.7153C7.56 23.7153 7.5375 23.6703 7.53 23.6478H7.605C7.605 23.6478 7.575 23.6928 7.56 23.7153ZM9.7275 23.7153C9.7275 23.7153 9.6975 23.6703 9.6825 23.6478H9.7575C9.7575 23.6478 9.735 23.6928 9.7275 23.7153ZM12.285 23.7153C12.285 23.7153 12.255 23.6703 12.24 23.6478H12.315C12.315 23.6478 12.2925 23.6928 12.285 23.7153ZM13.7775 23.6778L13.755 23.6478H13.7925L13.7775 23.6778Z" fill="#4A661C"/>
<path fill-rule="evenodd" clip-rule="evenodd" d="M10.7925 12.4048C11.265 12.2473 11.805 11.9698 12.4275 11.5798C11.535 10.1998 10.59 9.60731 9.71996 9.55481C10.05 9.23231 10.395 8.78981 10.7625 8.20481C9.68996 7.52981 8.81246 7.31231 8.11496 7.41731C8.36996 7.14731 8.62496 6.79481 8.90246 6.35981C7.93496 5.75231 7.14746 5.55731 6.51746 5.66231C6.87746 5.04731 7.16246 4.18481 7.38746 3.02231C5.54246 2.6623 4.24496 2.8873 3.41246 3.4723C3.44246 3.0298 3.41246 2.5048 3.35246 1.8898C2.33996 2.0023 1.58246 2.2573 1.03496 2.6098C0.749961 1.8748 0.119961 1.0798 -0.922539 0.112305C-1.70254 0.959805 -2.19004 1.7473 -2.43004 2.4598C-2.94754 2.1823 -3.63004 1.9798 -4.50004 1.8823C-4.58254 2.6023 -4.59754 3.1948 -4.54504 3.6823C-5.35504 2.9398 -6.73504 2.6098 -8.79754 3.0148C-8.57254 4.1773 -8.28754 5.0398 -7.92754 5.65481C-8.55004 5.54981 -9.34504 5.74481 -10.3125 6.35231C-10.245 6.45731 -10.185 6.55481 -10.1175 6.65231C-10.98 6.55481 -12.0675 6.83981 -13.365 7.66481C-12.6225 8.83481 -11.97 9.55481 -11.3175 9.92231C-12.015 10.1098 -12.7425 10.6873 -13.4325 11.7973C-13.245 11.9098 -13.0725 12.0148 -12.9 12.1123H-12.885V12.1198H-12.8775L-12.87 12.1273L-12.855 12.1348H-12.84L-12.825 12.1498H-12.8175H-12.8025V12.1573H-12.795L-12.7875 12.1648L-12.7725 12.1723H-12.7575L-12.7425 12.1798L-12.7275 12.1873H-12.72H-12.7125H-12.6975V12.1948L-12.6825 12.2023H-12.675H-12.6675H-12.6525V12.2098H-12.645L-12.63 12.2173H-12.615V12.2248L-12.6 12.2323H-12.5925H-12.585H-12.57V12.2398H-12.5625L-12.5475 12.2473H-12.5325V12.2548H-12.5175L-12.495 12.2623H-12.48H-12.465H-12.4575L-12.45 12.2698H-12.435H-12.4275H-12.42H-12.405V12.2773H-12.39H-12.3825H-12.375H-12.36H-12.3525L-12.345 12.2848H-12.33H-12.315H-12.3075H-12.3H-12.285H-12.2775C-12.9825 12.4648 -13.7175 13.0423 -14.415 14.1673C-13.785 14.5648 -13.2525 14.8198 -12.7875 14.9548C-13.2525 15.1573 -13.725 15.5998 -14.1825 16.3273C-13.815 16.5598 -13.485 16.7323 -13.1925 16.8448C-13.395 17.0548 -13.5975 17.3248 -13.8 17.6398L-13.7775 17.6548H-13.7625V17.6698L-13.74 17.6848H-13.725V17.6998L-13.7025 17.7148H-13.6875V17.7298L-13.665 17.7448H-13.65L-13.6425 17.7598L-13.62 17.7748H-13.6125L-13.605 17.7898H-13.5825L-13.575 17.8048H-13.5675L-13.545 17.8198L-13.53 17.8273H-13.5075V17.8423H-13.4925L-13.47 17.8573L-13.455 17.8648H-13.44V17.8723H-13.425L-13.41 17.8948H-13.3875L-13.3725 17.9173L-13.3575 17.9248H-13.3425V17.9323H-13.3275L-13.3125 17.9473L-13.2975 17.9623H-13.29V17.9698H-13.275L-13.2675 17.9848H-13.26L-13.245 17.9998L-13.2375 18.0073H-13.2225V18.0223H-13.2075L-13.1925 18.0373L-13.1775 18.0448H-13.1625V18.0523H-13.1475L-13.1325 18.0673L-13.1175 18.0748H-13.1025V18.0823H-13.0875L-13.0725 18.0973L-13.0575 18.1048H-13.0425H-13.0275L-13.02 18.1198L-13.005 18.1273H-12.9975H-12.9825V18.1348H-12.975L-12.96 18.1423H-12.9525H-12.9375V18.1498H-12.9225L-12.9075 18.1573H-12.8925H-12.8775H-12.8625L-12.8475 18.1648H-12.8325L-12.8175 18.1723H-12.8025C-12.99 18.4948 -13.11 18.8698 -13.17 19.3048C-12.39 19.2898 -11.775 19.1473 -11.3925 18.8698C-11.4 19.3048 -11.295 19.7698 -11.1 20.1823C-10.53 19.7923 -10.0875 19.4173 -9.83254 19.0423C-9.63004 19.6273 -8.97754 20.2273 -8.06254 20.8498C-7.91254 20.5273 -7.80004 20.1898 -7.74754 19.8523C-7.45504 19.8073 -7.20004 19.7398 -6.99754 19.6348C-6.99754 19.7248 -6.99754 19.8148 -6.99754 19.9048C-6.22504 19.8898 -5.63254 19.7473 -5.29504 19.4698C-5.22754 19.9048 -5.04004 20.3698 -4.77754 20.7823C-4.36504 20.4673 -4.03504 20.1523 -3.83254 19.8523C-3.39004 19.7848 -3.04504 19.6573 -2.82004 19.4698C-2.75254 19.9048 -2.56504 20.3698 -2.30254 20.7823C-2.01754 20.5648 -1.77754 20.3473 -1.58254 20.1373C-1.38754 20.3473 -1.14754 20.5648 -0.862539 20.7823C-0.592539 20.3623 -0.405039 19.9048 -0.345039 19.4698C-0.0450389 19.7173 0.46496 19.8598 1.12496 19.8973C1.35746 20.3098 1.68746 20.6848 2.06996 20.9923C2.53496 20.1598 2.83496 19.4323 2.85746 18.8548C3.06746 19.2898 3.56246 19.7248 4.22996 20.1823C4.42496 19.7623 4.53746 19.3048 4.52246 18.8698C4.79246 19.0648 5.18996 19.1998 5.67746 19.2598C5.66996 19.7923 5.80496 20.3473 6.04496 20.8498C6.95996 20.2273 7.60496 19.6273 7.80746 19.0423C8.05496 19.4098 8.49746 19.7923 9.07496 20.1823C9.26996 19.7623 9.38246 19.3048 9.37496 18.8698C9.75746 19.1473 10.3725 19.2973 11.1525 19.3048C11.0925 18.8773 10.9725 18.5023 10.7925 18.1873H10.8075H10.815L10.83 18.1798H10.845H10.86H10.875L10.89 18.1723H10.905H10.92H10.935L10.95 18.1573H10.965H10.98H10.995L11.01 18.1423H11.025L11.04 18.1273H11.055L11.07 18.1123L11.085 18.1048H11.1V18.0973H11.115L11.13 18.0823L11.145 18.0748H11.16V18.0673H11.175L11.19 18.0523L11.205 18.0448H11.22V18.0373H11.235L11.25 18.0223L11.265 18.0073H11.28V17.9998H11.295L11.31 17.9848L11.325 17.9698H11.3325L11.34 17.9623H11.355L11.3625 17.9473H11.37L11.385 17.9323H11.3925L11.4 17.9248H11.4225L11.43 17.9098H11.4375L11.46 17.8948H11.4675L11.4825 17.8873H11.505V17.8723H11.52L11.5425 17.8573L11.5575 17.8498L11.58 17.8348L11.595 17.8198L11.6175 17.8048L11.6325 17.7898L11.655 17.7748L11.67 17.7598L11.6925 17.7448L11.7075 17.7298L11.73 17.7148L11.745 17.6998L11.7675 17.6848L11.79 17.6698L11.8125 17.6548L11.835 17.6398L11.8575 17.6248C11.655 17.3023 11.4525 17.0398 11.25 16.8298C11.5425 16.7173 11.865 16.5448 12.24 16.3123C11.7825 15.5848 11.31 15.1498 10.845 14.9398C11.31 14.8048 11.8425 14.5423 12.4725 14.1523C11.82 13.1098 11.145 12.5323 10.485 12.3148L10.7925 12.4048ZM-6.36754 18.4498L-6.38254 18.4198H-6.34504L-6.36754 18.4498ZM-4.91254 18.4873C-4.91254 18.4873 -4.93504 18.4423 -4.94254 18.4198H-4.86754C-4.86754 18.4198 -4.89754 18.4648 -4.91254 18.4873ZM-2.43004 18.4873C-2.43004 18.4873 -2.45254 18.4423 -2.46004 18.4198H-2.38504C-2.38504 18.4198 -2.41504 18.4648 -2.43004 18.4873ZM-0.330039 18.4873C-0.330039 18.4873 -0.36004 18.4423 -0.37504 18.4198H-0.300039C-0.300039 18.4198 -0.322539 18.4648 -0.330039 18.4873Z" fill="#4A661C"/>
<path fill-rule="evenodd" clip-rule="evenodd" d="M5.40734 24.2775L8.72984 23.595L15.7123 20.8425L15.5998 16.875L13.2598 14.685L12.3523 11.6625L12.5773 15.36L13.9348 16.7925L13.8598 19.815L9.47984 21.1725L9.92984 17.85L8.18984 21.0975L4.86734 21.63L1.16984 23.595L0.719844 21.63L2.90984 18.0825L0.194843 20.4225L-0.105156 18.3075L5.33235 14.3775L5.78234 10.755L4.49984 13.32L2.68484 14.3775L1.70234 9.77246L1.47734 15.21L-2.75266 17.925L-2.14516 22.9125L-3.05266 22.08L-6.67516 20.9475L-6.45016 18.15L-8.64016 14.6775L-7.50766 18.15L-8.64016 21.0225L-12.8702 19.89L-15.6602 14.7525L-13.4702 21.0975L-4.03516 23.8125L-3.07516 26.43C-2.16766 37.065 -3.90766 41.985 -5.39266 44.4825C-6.47266 44.6475 -7.06516 45.6975 -8.17516 46.1175C-9.48016 46.6125 -11.2952 46.5525 -12.2552 47.9775H8.76734C8.14484 47.1225 6.86984 47.1825 6.08984 46.9125C5.32484 46.65 5.05484 46.05 4.49984 45.69C2.94734 41.775 2.48234 38.025 3.59234 26.4225L5.39234 24.255L5.40734 24.2775Z" fill="#AD703E"/>
<path fill-rule="evenodd" clip-rule="evenodd" d="M15.0223 20.355L9.38229 22.245L5.42229 22.545L1.99479 26.445L1.52979 30.96L2.03229 38.31L3.73479 43.38C2.84229 40.035 2.75229 35.79 3.64479 26.4525L5.41479 24.2775L8.84229 23.5575L13.9573 21.54L15.7198 20.8425L15.6073 16.875L15.0298 20.355H15.0223Z" fill="#935E36"/>
<path fill-rule="evenodd" clip-rule="evenodd" d="M15.2398 20.4373L13.7473 21.3673L8.42234 22.7698L5.41484 23.3473L2.80484 26.4448L2.52734 32.1748L2.69984 37.8898L3.04484 38.6773C2.90234 35.8348 3.07484 32.0548 3.60734 26.4448L5.40734 24.2773L8.72984 23.5948L15.7123 20.8423L15.6148 17.5498L15.2323 20.4298L15.2398 20.4373Z" fill="#7A4D2E"/>
<path fill-rule="evenodd" clip-rule="evenodd" d="M-0.0224609 21.7648L0.412539 25.0273L1.18504 23.6023L0.727539 21.6373L2.91754 18.0898L-0.0224609 21.7648Z" fill="#935E36"/>
<path fill-rule="evenodd" clip-rule="evenodd" d="M-1.23022 18.0602L-0.322724 21.2327L0.202275 20.4302L-0.0977244 18.3152L5.33228 14.3852L5.78977 10.7627L4.88978 13.8902L-1.23022 18.0602Z" fill="#935E36"/>
<path fill-rule="evenodd" clip-rule="evenodd" d="M13.9425 16.8072L13.8675 19.8222L14.475 16.5747L12.585 15.3672L13.9425 16.8072Z" fill="#935E36"/>
<path fill-rule="evenodd" clip-rule="evenodd" d="M-0.64502 18.1049L0.20248 20.4299L-0.0975199 18.3149L5.33248 14.3849L5.53498 12.8174L5.06998 14.2499L-0.64502 18.1049Z" fill="#7A4D2E"/>
<path fill-rule="evenodd" clip-rule="evenodd" d="M0.359863 21.6677L0.389863 22.6502L1.18486 23.6027L0.727363 21.6377L2.01736 19.5527L0.359863 21.6677Z" fill="#7A4D2E"/>
<path fill-rule="evenodd" clip-rule="evenodd" d="M13.9423 16.8073L13.9123 17.9623L14.2273 16.6648L13.0498 15.8623L13.9423 16.8073Z" fill="#7A4D2E"/>
<path fill-rule="evenodd" clip-rule="evenodd" d="M12.3599 11.6699L12.4724 13.6049L12.5549 12.9749L12.9299 14.8349L15.5474 16.8299L13.2599 14.6924L12.3599 11.6699Z" fill="#BF7E4C"/>
<path fill-rule="evenodd" clip-rule="evenodd" d="M9.26245 21.7123L13.8675 19.8223L9.48745 21.1873L9.26245 21.7123Z" fill="#BF7E4C"/>
<path fill-rule="evenodd" clip-rule="evenodd" d="M4.8823 21.6377L1.1848 23.6027L0.674805 24.5477L5.18231 22.0952L8.4673 21.3977L9.93731 17.8652L8.2048 21.1127L4.8823 21.6377Z" fill="#BF7E4C"/>
<path fill-rule="evenodd" clip-rule="evenodd" d="M1.48488 15.2178L-2.74512 17.9403L-2.13762 22.9203L-2.06262 18.2028L2.08488 15.1428L1.70988 9.78027L1.48488 15.2178Z" fill="#BF7E4C"/>
<path fill-rule="evenodd" clip-rule="evenodd" d="M2.69238 14.3853L2.72988 14.8503L4.58238 13.5753L5.53488 11.2803L4.50738 13.3278L2.69238 14.3853Z" fill="#BF7E4C"/>
<path fill-rule="evenodd" clip-rule="evenodd" d="M-2.51262 19.8678L-2.45262 18.1128L1.48488 15.2178L-2.74512 17.9403L-2.51262 19.8678Z" fill="#C88C63"/>
<path fill-rule="evenodd" clip-rule="evenodd" d="M4.88231 21.6373L1.18481 23.6023L5.00982 21.8548L8.33982 21.2623L8.90232 19.7998L8.20481 21.1123L4.88231 21.6373Z" fill="#C88C63"/>
<path fill-rule="evenodd" clip-rule="evenodd" d="M4.10975 23.2727L2.48975 24.6977L4.24475 23.4752L6.31474 22.4777L7.43974 22.0352L6.11224 22.3277L4.10975 23.2727Z" fill="#935E36"/>
<path fill-rule="evenodd" clip-rule="evenodd" d="M14.6549 17.8805L14.5574 19.358L14.8874 17.723L14.8049 17.123L14.6549 17.8805Z" fill="#935E36"/>
<path fill-rule="evenodd" clip-rule="evenodd" d="M1.91984 15.4502L-0.285156 17.1602L2.16734 15.5177L2.02484 13.4102L1.91984 15.4502Z" fill="#935E36"/>
<path fill-rule="evenodd" clip-rule="evenodd" d="M4.08743 23.4754L3.36743 24.0829L4.35743 23.5654L6.44993 22.5679L7.12493 22.1104L6.13493 22.4254L4.08743 23.4754Z" fill="#7A4D2E"/>
<path fill-rule="evenodd" clip-rule="evenodd" d="M-0.780088 14.7451H-0.795088V14.7526H-0.810089L-0.817589 14.7676L-0.832588 14.7751H-0.840088V14.7826H-0.855088V14.7901L-0.870089 14.8051H-0.877589H-0.892588V14.8126H-0.900088L-0.915088 14.8276H-0.930089H-0.945089V14.8351H-0.960088L-0.975088 14.8501H-0.990088H-1.00509H-1.02009L-1.02759 14.8651H-1.04259H-1.05009H-1.06509L-1.07259 14.8726L-1.08759 14.8801H-1.10259V14.8876L-1.11759 14.8951H-1.12509H-1.14009H-1.14759L-1.16259 14.9026H-1.17009H-1.18509H-1.20009L-1.21509 14.9101H-1.23009L-1.23759 14.9176H-1.25259C-1.10259 15.1801 -0.997589 15.4951 -0.945089 15.8551C-1.59009 15.8476 -2.10009 15.7201 -2.41509 15.4951C-2.40759 15.8551 -2.49759 16.2376 -2.66259 16.5826C-3.13509 16.2601 -3.50259 15.9451 -3.71259 15.6376C-3.88509 16.1251 -4.41759 16.6201 -5.17509 17.1376C-5.30259 16.8751 -5.39259 16.5901 -5.43759 16.3126C-5.68509 16.2751 -5.88759 16.2151 -6.06009 16.1326C-6.06009 16.2076 -6.06009 16.2826 -6.06009 16.3576C-6.69759 16.3501 -7.19259 16.2226 -7.47009 15.9976C-7.52259 16.3576 -7.68009 16.7401 -7.89759 17.0851C-8.24259 16.8226 -8.51259 16.5676 -8.68509 16.3126C-9.05259 16.2601 -9.33759 16.1476 -9.52509 15.9976C-9.57759 16.3576 -9.73509 16.7401 -9.95259 17.0851C-10.1851 16.9051 -10.3876 16.7251 -10.5451 16.5526C-10.7026 16.7251 -10.9051 16.9051 -11.1376 17.0851C-11.3626 16.7401 -11.5126 16.3576 -11.5651 15.9976C-11.8126 16.2001 -12.2326 16.3201 -12.7801 16.3501C-12.9676 16.6951 -13.2451 17.0026 -13.5601 17.2576C-13.9501 16.5676 -14.1976 15.9676 -14.2126 15.4876C-14.3851 15.8476 -14.7976 16.2076 -15.3526 16.5901C-15.5176 16.2451 -15.6076 15.8626 -15.6001 15.5026C-15.8251 15.6676 -16.1551 15.7726 -16.5601 15.8251C-16.5601 16.2601 -16.6651 16.7251 -16.8601 17.1451C-17.6176 16.6276 -18.1501 16.1326 -18.3226 15.6451C-18.5251 15.9526 -18.8926 16.2676 -19.3726 16.5901C-19.5376 16.2451 -19.6276 15.8626 -19.6201 15.5026C-19.9351 15.7276 -20.4451 15.8551 -21.0901 15.8626C-21.0376 15.5101 -20.9401 15.2026 -20.7901 14.9401H-20.8051H-20.8126H-20.8276H-20.8351H-20.8501H-20.8576L-20.8726 14.9326H-20.8801H-20.8951H-20.9101L-20.9251 14.9251H-20.9401H-20.9551H-20.9701L-20.9851 14.9176H-21.0001H-21.0151L-21.0301 14.9026H-21.0451H-21.0601L-21.0751 14.8876H-21.0901H-21.1051H-21.1201L-21.1351 14.8726L-21.1501 14.8651H-21.1651H-21.1801L-21.1876 14.8501L-21.2026 14.8426H-21.2101H-21.2251L-21.2326 14.8276L-21.2476 14.8201H-21.2551V14.8126H-21.2701L-21.2776 14.7976L-21.2926 14.7826H-21.3001V14.7751H-21.3151L-21.3226 14.7601H-21.3301C-21.6301 15.0151 -21.9301 15.3676 -22.2151 15.8401C-21.6901 16.1701 -21.2476 16.3801 -20.8651 16.4926C-21.2476 16.6651 -21.6376 17.0251 -22.0201 17.6251C-21.7126 17.8126 -21.4426 17.9551 -21.2026 18.0526C-21.3751 18.2326 -21.5401 18.4501 -21.7051 18.7126H-21.6901L-21.6751 18.7351H-21.6601L-21.6451 18.7576L-21.6301 18.7726H-21.6151V18.7801H-21.6001L-21.5851 18.7951L-21.5701 18.8101H-21.5551V18.8176H-21.5401L-21.5251 18.8326L-21.5101 18.8476H-21.4951V18.8551H-21.4801L-21.4726 18.8701L-21.4576 18.8851H-21.4501V18.8926H-21.4351L-21.4276 18.9076L-21.4126 18.9226H-21.4051V18.9301H-21.3901L-21.3826 18.9451H-21.3751L-21.3601 18.9601L-21.3526 18.9676H-21.3376V18.9826H-21.3301L-21.3151 18.9976L-21.3076 19.0051H-21.2926V19.0126H-21.2851L-21.2701 19.0276H-21.2626H-21.2476V19.0351H-21.2401L-21.2251 19.0501H-21.2101H-21.1951V19.0576H-21.1801L-21.1651 19.0726H-21.1501H-21.1351V19.0801H-21.1201L-21.1051 19.0951H-21.0901H-21.0751L-21.0601 19.1101H-21.0451H-21.0301L-21.0151 19.1176H-21.0001H-20.9851H-20.9701L-20.9551 19.1251H-20.9401H-20.9326H-20.9176L-20.9101 19.1326H-20.8951H-20.8876H-20.8726L-20.8651 19.1401H-20.8501C-21.0001 19.4026 -21.0976 19.7101 -21.1501 20.0626C-20.5051 20.0551 -19.9951 19.9276 -19.6801 19.7026C-19.6876 20.0626 -19.5976 20.4451 -19.4326 20.7901C-18.9601 20.4676 -18.5926 20.1526 -18.3826 19.8451C-18.2101 20.3326 -17.6776 20.8276 -16.9201 21.3451C-16.7251 20.9251 -16.6126 20.4676 -16.6201 20.0251C-16.2151 19.9726 -15.8851 19.8601 -15.6601 19.7026C-15.6676 20.0626 -15.5776 20.4451 -15.4126 20.7901C-14.8576 20.4076 -14.4526 20.0476 -14.2726 19.6876C-14.2501 20.1676 -14.0026 20.7676 -13.6201 21.4576C-13.2976 21.2026 -13.0276 20.8951 -12.8401 20.5501C-12.2926 20.5201 -11.8726 20.4001 -11.6251 20.1976C-11.5726 20.5576 -11.4151 20.9401 -11.1976 21.2851C-10.9651 21.1051 -10.7626 20.9251 -10.6051 20.7526C-10.4476 20.9251 -10.2451 21.1051 -10.0126 21.2851C-9.78759 20.9401 -9.63759 20.5576 -9.58509 20.1976C-9.39759 20.3551 -9.11259 20.4601 -8.74509 20.5126C-8.57259 20.7676 -8.30259 21.0226 -7.95759 21.2851C-7.73259 20.9401 -7.58259 20.5576 -7.53009 20.1976C-7.25259 20.4226 -6.76509 20.5501 -6.12009 20.5576C-6.12009 20.4826 -6.12009 20.4076 -6.12009 20.3326C-5.95509 20.4151 -5.74509 20.4751 -5.49759 20.5126C-5.45259 20.7976 -5.36259 21.0751 -5.23509 21.3376C-4.47759 20.8201 -3.94509 20.3251 -3.77259 19.8376C-3.56259 20.1451 -3.20259 20.4601 -2.72259 20.7826C-2.55759 20.4376 -2.46759 20.0551 -2.47509 19.6951C-2.16009 19.9276 -1.65009 20.0476 -1.00509 20.0551C-1.05759 19.6951 -1.15509 19.3801 -1.31259 19.1176H-1.29759H-1.29009L-1.27509 19.1101H-1.26009H-1.24509H-1.23009L-1.22259 19.1026H-1.20759H-1.20009H-1.18509L-1.17759 19.0951L-1.16259 19.0876H-1.14759V19.0801L-1.13259 19.0726H-1.12509H-1.11009V19.0651H-1.10259L-1.08759 19.0576H-1.08009H-1.06509H-1.05009L-1.03509 19.0426H-1.02009L-1.00509 19.0276L-0.990088 19.0201H-0.975088H-0.960088L-0.952588 19.0051L-0.937589 18.9976H-0.930089V18.9901H-0.915088V18.9826L-0.900088 18.9676L-0.892588 18.9601H-0.877589V18.9526H-0.870089L-0.855088 18.9376L-0.840088 18.9301H-0.825088V18.9226H-0.810089L-0.795088 18.9076L-0.780088 18.9001H-0.765088V18.8926H-0.750089L-0.735088 18.8776L-0.720088 18.8701H-0.705088V18.8626H-0.690089L-0.682589 18.8476L-0.667588 18.8326H-0.660088V18.8251H-0.645088L-0.637588 18.8101H-0.630089L-0.615088 18.7951L-0.607588 18.7876H-0.592588V18.7726H-0.577588L-0.562589 18.7576L-0.547588 18.7501H-0.532588V18.7426H-0.517588L-0.502589 18.7201C-0.667589 18.4576 -0.840089 18.2326 -1.00509 18.0601C-0.765089 17.9626 -0.495089 17.8201 -0.187589 17.6326C-0.562589 17.0251 -0.960088 16.6651 -1.34259 16.5001C-0.960088 16.3876 -0.517589 16.1701 0.00741148 15.8476C-0.285089 15.3826 -0.585089 15.0301 -0.877589 14.7676L-0.780088 14.7451ZM-11.4976 19.3351C-11.4976 19.3351 -11.5126 19.2976 -11.5201 19.2826H-11.4601C-11.4601 19.2826 -11.4826 19.3201 -11.4976 19.3351ZM-9.75759 19.3351C-9.75759 19.3351 -9.78009 19.2976 -9.79509 19.2826H-9.73509C-9.73509 19.2826 -9.75009 19.3201 -9.75759 19.3351ZM-7.70259 19.3351C-7.70259 19.3351 -7.72509 19.2976 -7.74009 19.2826H-7.68009C-7.68009 19.2826 -7.69509 19.3201 -7.70259 19.3351ZM-6.50259 19.3051L-6.52509 19.2826H-6.49509V19.3051H-6.50259Z" fill="#5E7F21" stroke="#5E7F21" stroke-width="0.22" stroke-miterlimit="22.93"/>
<path fill-rule="evenodd" clip-rule="evenodd" d="M20.8723 17.0846H20.8798H20.8873H20.8948H20.9023H20.9098H20.9173H20.9248H20.9323H20.9398H20.9473H20.9548H20.9623H20.9698H20.9773H20.9923H20.9998H21.0073L21.0148 17.0771H21.0223H21.0298H21.0373H21.0448H21.0523H21.0598H21.0673H21.0748H21.0823H21.0898H21.0973H21.1123H21.1198H21.1273H21.1348V17.0696H21.1423H21.1498H21.1573V17.0621L21.1648 17.0546H21.1723H21.1798H21.1873C21.3148 16.9796 21.4498 16.9046 21.5848 16.8146C21.0673 15.9821 20.5273 15.5471 20.0023 15.4121C20.4898 15.1421 20.9773 14.6021 21.5323 13.7246C20.5573 13.1096 19.7473 12.8996 19.1023 12.9671C19.1473 12.8996 19.1998 12.8246 19.2523 12.7421C18.5323 12.2846 17.9398 12.1421 17.4673 12.2171C17.7373 11.7596 17.9473 11.1146 18.1198 10.2446C16.5748 9.94465 15.5473 10.1921 14.9398 10.7471C14.9773 10.3796 14.9698 9.93715 14.9098 9.39715C14.2648 9.47215 13.7548 9.62215 13.3648 9.83215C13.1773 9.29965 12.8173 8.70715 12.2323 8.07715C11.4523 8.79715 10.9798 9.39715 10.7623 9.94465C10.3573 9.68215 9.7873 9.48715 9.0298 9.40465C8.9773 9.86215 8.96231 10.2521 8.98481 10.5896C8.36231 10.1546 7.39481 9.98965 6.01481 10.2521C6.18731 11.1221 6.39731 11.7671 6.66731 12.2246C6.20231 12.1496 5.60231 12.2921 4.88231 12.7496C5.09231 13.0796 5.28731 13.3421 5.47481 13.5446C4.94981 13.4621 4.28981 13.6271 3.49481 14.1296C3.77231 14.5646 4.0273 14.8946 4.2748 15.1346C3.6223 15.1721 2.91731 15.6146 2.24981 16.6496C2.71481 16.9421 3.1198 17.1446 3.4723 17.2646C2.9773 17.4296 2.4748 17.8646 1.9873 18.6446C2.4598 18.9371 2.85731 19.1321 3.20231 19.2371C2.85731 19.3946 2.5048 19.7171 2.1598 20.2646C2.4373 20.4371 2.67731 20.5646 2.89481 20.6546C2.74481 20.8121 2.58731 21.0146 2.43731 21.2546H2.45231L2.4673 21.2771L2.4823 21.2846H2.4973V21.2921H2.51231L2.52731 21.3071L2.54231 21.3146H2.55731V21.3221H2.57231L2.5873 21.3371L2.6023 21.3446H2.6173V21.3521H2.63231L2.63981 21.3671L2.6548 21.3746H2.66231V21.3821H2.67731L2.6848 21.3971L2.69981 21.4046H2.70731V21.4121H2.7223L2.72981 21.4271L2.74481 21.4346V21.4421H2.75981V21.4496L2.7748 21.4646H2.78231H2.79731V21.4721H2.8048L2.81981 21.4796H2.82731H2.8423V21.4871H2.84981L2.86481 21.5021H2.8723H2.88731V21.5096H2.89481L2.9098 21.5246H2.91731H2.93231H2.94731L2.9623 21.5321H2.9773H2.9923H3.00731L3.02231 21.5396H3.03731L3.05231 21.5471H3.06731L3.08231 21.5546H3.0973H3.10481H3.11981L3.12731 21.5621H3.14231H3.1498H3.1648L3.17231 21.5696H3.18731H3.19481H3.20981H3.2173H3.2323C3.0973 21.8096 3.0073 22.0871 2.9623 22.4021C3.5473 22.3946 4.0048 22.2821 4.2898 22.0796C4.2823 22.4096 4.36481 22.7546 4.51481 23.0621C4.94231 22.7696 5.27231 22.4846 5.45981 22.2071C5.60981 22.6421 6.0973 23.0921 6.7798 23.5646C6.9598 23.1821 7.05731 22.7696 7.05731 22.3721C7.42481 22.3271 7.71731 22.2221 7.91981 22.0796C7.91231 22.4096 7.99481 22.7546 8.14481 23.0621C8.64731 22.7171 9.01481 22.3871 9.17231 22.0646C9.18731 22.4996 9.41231 23.0396 9.76481 23.6696C10.0498 23.4371 10.2973 23.1596 10.4698 22.8521C10.9648 22.8221 11.3473 22.7171 11.5723 22.5296C11.6173 22.8596 11.7598 23.2046 11.9623 23.5121C12.1723 23.3471 12.3598 23.1896 12.5023 23.0321C12.6448 23.1896 12.8248 23.3546 13.0423 23.5121C13.2448 23.1971 13.3873 22.8521 13.4323 22.5296C13.6048 22.6721 13.8598 22.7696 14.1898 22.8146C14.3473 23.0396 14.5873 23.2721 14.9023 23.5121C15.1048 23.1971 15.2473 22.8521 15.2923 22.5296C15.5398 22.7396 15.9823 22.8446 16.5673 22.8521C16.5673 22.7846 16.5673 22.7171 16.5673 22.6496C16.7173 22.7246 16.9048 22.7771 17.1298 22.8071C17.1748 23.0621 17.2573 23.3171 17.3698 23.5571C18.0523 23.0921 18.5398 22.6421 18.6898 22.1996C18.8773 22.4771 19.2073 22.7621 19.6348 23.0546C19.7848 22.7396 19.8673 22.3946 19.8598 22.0721C20.1448 22.2821 20.6098 22.3871 21.1873 22.3946C21.1423 22.0721 21.0523 21.7871 20.9098 21.5471H20.9248H20.9323L20.9473 21.5396H20.9623L20.9698 21.5321H20.9848H20.9923H21.0073L21.0148 21.5246H21.0298H21.0373H21.0523H21.0673H21.0823L21.0973 21.5171H21.1048H21.1198H21.1273L21.1423 21.5096H21.1573H21.1723L21.1873 21.4946H21.2023H21.2173L21.2248 21.4871H21.2398H21.2473H21.2623L21.2698 21.4796L21.2848 21.4721H21.2998V21.4646H21.3073L21.3223 21.4571H21.3298H21.3448V21.4496H21.3523L21.3673 21.4346H21.3823H21.3973V21.4271H21.4123L21.4273 21.4121L21.4423 21.4046H21.4573H21.4723L21.4798 21.3896L21.4948 21.3821H21.5023V21.3746H21.5173L21.5248 21.3596L21.5398 21.3446L21.5473 21.3371H21.5623V21.3221H21.5698L21.5848 21.3071L21.5923 21.2996H21.6073V21.2921H21.6223L21.6373 21.2771L21.6523 21.2696H21.6673C21.5173 21.0221 21.3673 20.8196 21.2098 20.6621C21.4273 20.5721 21.6748 20.4446 21.9448 20.2721C21.6073 19.7246 21.2473 19.4021 20.9023 19.2446C21.2473 19.1396 21.6448 18.9446 22.1173 18.6521C21.5923 17.8121 21.0448 17.3771 20.5123 17.2421L20.8723 17.0846ZM11.9923 21.6746C11.9923 21.6746 11.9773 21.6446 11.9698 21.6296H12.0223C12.0223 21.6296 11.9998 21.6596 11.9923 21.6746ZM13.5673 21.6746C13.5673 21.6746 13.5448 21.6446 13.5373 21.6296H13.5898C13.5898 21.6296 13.5748 21.6596 13.5673 21.6746ZM15.4273 21.6746C15.4273 21.6746 15.4048 21.6446 15.3973 21.6296H15.4498C15.4498 21.6296 15.4348 21.6596 15.4273 21.6746ZM16.5148 21.6446L16.4998 21.6221H16.5298V21.6446H16.5148Z" fill="#81AA36"/>
<path fill-rule="evenodd" clip-rule="evenodd" d="M20.8725 17.0848H20.88H20.8875H20.895H20.9025H20.91H20.9175H20.925H20.9325H20.94H20.9475H20.955H20.9625H20.97H20.9775H20.9925H21H21.0075L21.015 17.0773H21.0225H21.03H21.0375H21.045H21.0525H21.06H21.0675H21.075H21.0825H21.09H21.0975H21.1125H21.12H21.1275H21.135V17.0698H21.1425H21.15H21.1575V17.0623L21.165 17.0548H21.1725H21.18H21.1875C21.315 16.9798 21.45 16.9048 21.585 16.8148C21.0675 15.9823 20.5275 15.5473 20.0025 15.4123C20.49 15.1423 20.9775 14.6023 21.5325 13.7248C21.2025 13.5148 20.895 13.3573 20.6025 13.2373C20.4225 13.3573 20.265 13.4473 20.115 13.5148C20.25 13.6723 20.385 13.8748 20.5125 14.1148H20.4975L20.4825 14.1298L20.4675 14.1373H20.46V14.1448H20.445L20.4375 14.1598L20.4225 14.1748H20.415V14.1823H20.4V14.1973L20.385 14.2123V14.2198H20.37V14.2348H20.3625L20.3475 14.2498L20.34 14.2573H20.325V14.2648H20.3175L20.3025 14.2798L20.2875 14.2873H20.2725V14.2948H20.2575L20.25 14.3098L20.235 14.3173H20.2275H20.2125L20.205 14.3323L20.19 14.3398H20.175V14.3473L20.16 14.3548H20.145V14.3623H20.1375L20.13 14.3698H20.1225H20.1075H20.1L20.0925 14.3848H20.085H20.0775H20.07L20.0625 14.3923H20.055H20.0475H20.04V14.3998H20.0325H20.025V14.4073H20.0175H20.01H20.0025L19.995 14.4148H19.9875H19.98H19.9725L19.965 14.4223H19.9575H19.95H19.9425C20.0625 14.6623 20.145 14.9473 20.1825 15.2773C19.6725 15.2698 19.275 15.1573 19.02 14.9548C19.02 15.2848 18.9525 15.6298 18.825 15.9373C18.45 15.6448 18.165 15.3598 18 15.0823C17.865 15.5248 17.445 15.9673 16.845 16.4398C16.7475 16.1998 16.6725 15.9448 16.635 15.6898C16.44 15.6598 16.275 15.5998 16.1475 15.5248C16.1475 15.5923 16.1475 15.6598 16.1475 15.7273C15.645 15.7198 15.255 15.6073 15.0375 15.4048C14.9925 15.7348 14.8725 16.0798 14.7 16.3873C14.43 16.1473 14.22 15.9148 14.0775 15.6898C13.7925 15.6373 13.56 15.5473 13.4175 15.4048C13.3725 15.7348 13.2525 16.0798 13.08 16.3873C12.8925 16.2223 12.735 16.0648 12.6075 15.9073C12.48 16.0648 12.3225 16.2298 12.135 16.3873C11.9625 16.0723 11.835 15.7273 11.7975 15.4048C11.6025 15.5923 11.2725 15.6973 10.8375 15.7273C10.6875 16.0348 10.47 16.3198 10.2225 16.5448C9.91499 15.9223 9.71999 15.3748 9.70499 14.9398C9.56999 15.2623 9.24749 15.5923 8.80499 15.9373C8.67749 15.6223 8.60249 15.2773 8.60999 14.9548C8.42999 15.1048 8.17499 15.2023 7.85249 15.2473C7.85249 15.6448 7.76999 16.0573 7.61249 16.4398C7.01249 15.9748 6.59249 15.5248 6.45749 15.0823C6.29249 15.3598 6.00749 15.6448 5.63249 15.9373C5.50499 15.6223 5.42999 15.2773 5.43749 14.9548C5.18999 15.1648 4.78499 15.2698 4.27499 15.2773C4.28249 15.1948 4.29749 15.1123 4.31249 15.0373C3.68249 15.1123 3.01499 15.5623 2.37749 16.5448C2.84249 16.8373 3.24749 17.0398 3.59999 17.1598C3.10499 17.3248 2.60249 17.7598 2.11499 18.5398C2.58749 18.8323 2.98499 19.0273 3.32999 19.1323C2.98499 19.2898 2.63249 19.6123 2.28749 20.1598C2.56499 20.3323 2.80499 20.4598 3.02249 20.5498C2.87249 20.7073 2.71499 20.9098 2.56499 21.1498H2.57999L2.59499 21.1723L2.60999 21.1798H2.62499V21.1873H2.63999L2.65499 21.2023L2.66999 21.2098H2.68499V21.2173H2.69999L2.71499 21.2323L2.72999 21.2398H2.74499V21.2473H2.75999L2.76749 21.2623L2.78249 21.2698H2.78999V21.2773H2.80499L2.81249 21.2923L2.82749 21.2998H2.83499V21.3073H2.84999L2.85749 21.3223L2.87249 21.3298V21.3373H2.88749V21.3448L2.90249 21.3598H2.90999H2.92499V21.3673H2.93249L2.94749 21.3748H2.95499H2.96999V21.3823H2.97749L2.99249 21.3973H2.99999H3.01499V21.4048H3.02249L3.03749 21.4198H3.04499H3.05999H3.07499L3.08999 21.4273H3.10499H3.11999H3.13499L3.14999 21.4348H3.16499L3.17999 21.4423H3.19499L3.20999 21.4498H3.22499H3.23249H3.24749L3.25499 21.4573H3.26999H3.27749H3.29249L3.29999 21.4648H3.31499H3.32249H3.33749H3.34499H3.35999C3.22499 21.7048 3.13499 21.9823 3.08999 22.2973C3.67499 22.2898 4.13249 22.1773 4.41749 21.9748C4.40999 22.3048 4.49249 22.6498 4.64249 22.9573C5.06999 22.6648 5.39999 22.3798 5.58749 22.1023C5.73749 22.5373 6.22499 22.9873 6.90749 23.4598C7.08749 23.0773 7.18499 22.6648 7.18499 22.2673C7.55249 22.2223 7.84499 22.1173 8.04749 21.9748C8.03999 22.3048 8.12249 22.6498 8.27249 22.9573C8.77499 22.6123 9.14249 22.2823 9.29999 21.9598C9.31499 22.3948 9.53999 22.9348 9.89249 23.5648C10.1775 23.3323 10.425 23.0548 10.5975 22.7473C11.0925 22.7173 11.475 22.6123 11.7 22.4248C11.745 22.7548 11.8875 23.0998 12.09 23.4073C12.3 23.2423 12.4875 23.0848 12.63 22.9273C12.7725 23.0848 12.9525 23.2498 13.17 23.4073C13.3725 23.0923 13.515 22.7473 13.56 22.4248C13.7325 22.5673 13.9875 22.6648 14.3175 22.7098C14.475 22.9348 14.715 23.1673 15.03 23.4073C15.2325 23.0923 15.375 22.7473 15.42 22.4248C15.6675 22.6348 16.11 22.7398 16.695 22.7473C16.695 22.6798 16.695 22.6123 16.695 22.5448C16.845 22.6198 17.0325 22.6723 17.2575 22.7023C17.3025 22.9573 17.385 23.2123 17.4975 23.4523C18.18 22.9873 18.6675 22.5373 18.8175 22.0948C19.005 22.3723 19.335 22.6573 19.7625 22.9498C19.9125 22.6348 19.995 22.2898 19.9875 21.9673C20.2725 22.1773 20.7375 22.2823 21.315 22.2898C21.27 21.9673 21.18 21.6823 21.0375 21.4423H21.0525H21.06L21.075 21.4348H21.09L21.0975 21.4273H21.1125H21.12H21.135L21.1425 21.4198H21.1575H21.165H21.18H21.195H21.21L21.225 21.4123H21.2325H21.2475H21.255L21.27 21.4048H21.285H21.3L21.315 21.3898H21.33H21.345L21.3525 21.3823H21.3675H21.375H21.39L21.3975 21.3748L21.4125 21.3673H21.4275V21.3598H21.435L21.45 21.3523H21.4575H21.4725V21.3448H21.48L21.495 21.3298H21.51H21.525V21.3223H21.54L21.555 21.3073L21.57 21.2998H21.585H21.6L21.6075 21.2848L21.6225 21.2773H21.63V21.2698H21.645L21.6525 21.2548L21.6675 21.2398L21.675 21.2323H21.69V21.2173H21.6975L21.7125 21.2023L21.72 21.1948H21.735V21.1873H21.75L21.765 21.1723L21.78 21.1648H21.795C21.645 20.9173 21.495 20.7148 21.3375 20.5573C21.555 20.4673 21.8025 20.3398 22.0725 20.1673C21.735 19.6198 21.375 19.2973 21.03 19.1398C21.375 19.0348 21.7725 18.8398 22.245 18.5473C21.72 17.7073 21.1725 17.2723 20.64 17.1373L20.8725 17.0848ZM11.9925 21.6748C11.9925 21.6748 11.9775 21.6448 11.97 21.6298H12.0225C12.0225 21.6298 12 21.6598 11.9925 21.6748ZM13.5675 21.6748C13.5675 21.6748 13.545 21.6448 13.5375 21.6298H13.59C13.59 21.6298 13.575 21.6598 13.5675 21.6748ZM15.4275 21.6748C15.4275 21.6748 15.405 21.6448 15.3975 21.6298H15.45C15.45 21.6298 15.435 21.6598 15.4275 21.6748ZM16.515 21.6448L16.5 21.6223H16.53V21.6448H16.515Z" fill="#729928"/>
<path fill-rule="evenodd" clip-rule="evenodd" d="M13.4248 14.3994H13.3723C13.3723 14.3994 13.3948 14.4294 13.4023 14.4444C13.4023 14.4294 13.4173 14.4144 13.4248 14.3994Z" fill="#729928"/>
<path fill-rule="evenodd" clip-rule="evenodd" d="M15.9825 14.3994H15.96L15.975 14.4144L15.9825 14.3994Z" fill="#729928"/>
<path fill-rule="evenodd" clip-rule="evenodd" d="M15.045 14.3994H15C15 14.3994 15.0225 14.4294 15.03 14.4444C15.03 14.4294 15.045 14.4144 15.0525 14.3994H15.045Z" fill="#729928"/>
<path fill-rule="evenodd" clip-rule="evenodd" d="M12.0599 14.3994H12.0149C12.0149 14.3994 12.0299 14.4294 12.0374 14.4444C12.0449 14.4294 12.0599 14.4144 12.0674 14.3994H12.0599Z" fill="#729928"/>
<path fill-rule="evenodd" clip-rule="evenodd" d="M4.6349 14.31H4.6274H4.6199H4.6124H4.6049L4.5974 14.3025H4.5899H4.58241H4.5749L4.5674 14.295H4.5599H4.5524H4.5449L4.5374 14.2875H4.5299L4.5224 14.28H4.5074L4.4999 14.2725H4.4849H4.4774H4.4699L4.4624 14.2575H4.4474H4.4399H4.4249L4.4174 14.25L4.4024 14.2425H4.39491H4.3799L4.3724 14.2275L4.3574 14.22H4.3499H4.3349V14.205L4.3199 14.1975V14.19H4.3049V14.1825L4.2899 14.175V14.1675H4.2749V14.16L4.2599 14.145V14.1375H4.2449V14.13H4.2374L4.2224 14.115L4.2149 14.1075H4.1999V14.1H4.1924L4.1774 14.085L4.1699 14.0775H4.1549V14.07H4.1474L4.1324 14.055L4.1249 14.0475H4.1099V14.04H4.0949L4.0799 14.025L4.0649 14.0175H4.0499V14.01H4.0349L4.01991 13.9875C4.03491 13.9575 4.0499 13.9275 4.0724 13.8975C4.0124 13.9275 3.9599 13.965 3.8999 14.0025C4.1474 14.4 4.3799 14.7075 4.6049 14.94C4.6499 14.7525 4.7099 14.58 4.7849 14.43L4.6349 14.31Z" fill="#729928"/>
<path fill-rule="evenodd" clip-rule="evenodd" d="M13.5823 17.8496H13.5298C13.5298 17.8496 13.5523 17.8796 13.5598 17.8946C13.5598 17.8796 13.5748 17.8646 13.5823 17.8496Z" fill="#5E7F21"/>
<path fill-rule="evenodd" clip-rule="evenodd" d="M16.5149 17.8496H16.4849L16.5074 17.8721L16.5149 17.8496Z" fill="#5E7F21"/>
<path fill-rule="evenodd" clip-rule="evenodd" d="M15.4424 17.8496H15.3899C15.3899 17.8496 15.4124 17.8796 15.4199 17.8946C15.4199 17.8796 15.4349 17.8646 15.4424 17.8496Z" fill="#5E7F21"/>
<path fill-rule="evenodd" clip-rule="evenodd" d="M12.0222 17.8496H11.9697C11.9697 17.8496 11.9847 17.8796 11.9922 17.8946C11.9997 17.8796 12.0147 17.8646 12.0222 17.8496Z" fill="#5E7F21"/>
<path fill-rule="evenodd" clip-rule="evenodd" d="M21.6674 17.5273H21.6599H21.6449L21.6374 17.5423L21.6224 17.5498H21.6149H21.5999V17.5573L21.5849 17.5648H21.5774H21.5624V17.5723H21.5549L21.5399 17.5798H21.5324H21.5174H21.5024L21.4874 17.5948H21.4724L21.4574 17.6023H21.4424H21.4349H21.4199L21.4124 17.6098H21.3974H21.3824V17.6173H21.3674H21.3524H21.3449L21.3299 17.6248H21.3224H21.3074H21.2999L21.2849 17.6323H21.2774H21.2699H21.2549L21.2474 17.6398H21.2324C21.3674 17.8798 21.4574 18.1648 21.5099 18.4873C20.9324 18.4798 20.4674 18.3673 20.1824 18.1648C20.1899 18.4948 20.1074 18.8398 19.9574 19.1473C19.5299 18.8548 19.1999 18.5698 19.0124 18.2923C18.8624 18.7273 18.3749 19.1773 17.6924 19.6498C17.5799 19.4098 17.4974 19.1548 17.4524 18.8998C17.2349 18.8698 17.0399 18.8098 16.8899 18.7423C16.8899 18.8098 16.8899 18.8773 16.8899 18.9448C16.3124 18.9373 15.8699 18.8248 15.6149 18.6223C15.5699 18.9523 15.4274 19.2973 15.2249 19.6048C14.9174 19.3648 14.6699 19.1323 14.5124 18.9073C14.1824 18.8548 13.9199 18.7648 13.7549 18.6223C13.7099 18.9523 13.5674 19.2973 13.3649 19.6048C13.1549 19.4398 12.9674 19.2823 12.8249 19.1248C12.6824 19.2823 12.5024 19.4473 12.2849 19.6048C12.0824 19.2898 11.9399 18.9448 11.8949 18.6223C11.6699 18.8098 11.2874 18.9148 10.7924 18.9448C10.6199 19.2523 10.3724 19.5373 10.0874 19.7623C9.73489 19.1398 9.50989 18.5923 9.49489 18.1573C9.33739 18.4798 8.96989 18.8098 8.46739 19.1548C8.31739 18.8398 8.23489 18.4948 8.24239 18.1723C8.03989 18.3223 7.73989 18.4198 7.37989 18.4648C7.37989 18.8623 7.28239 19.2748 7.10239 19.6573C6.41989 19.1923 5.93239 18.7423 5.78239 18.2998C5.59489 18.5773 5.26489 18.8623 4.83739 19.1548C4.68739 18.8398 4.60489 18.4948 4.61239 18.1723C4.32739 18.3823 3.86239 18.4873 3.28489 18.4948C3.32989 18.1723 3.41989 17.8948 3.55489 17.6623H3.53989H3.53239H3.51739H3.50989H3.49489H3.48739L3.47239 17.6548H3.46489H3.44989H3.44239L3.42739 17.6473H3.41989H3.40489H3.38989L3.37489 17.6398H3.35989L3.34489 17.6323H3.32989H3.31489H3.29989L3.28489 17.6248H3.26989H3.25489H3.23989L3.23239 17.6173L3.21739 17.6098H3.20989H3.19489L3.18739 17.6023L3.17239 17.5948H3.16489H3.14989L3.14239 17.5798L3.12739 17.5723H3.11989H3.10489L3.09739 17.5573L3.08239 17.5498H3.06739V17.5348C2.79739 17.7673 2.52739 18.0823 2.26489 18.5098C2.73739 18.8023 3.13489 18.9973 3.47989 19.1023C3.13489 19.2598 2.78239 19.5823 2.43739 20.1298C2.71489 20.3023 2.95489 20.4298 3.17239 20.5198C3.02239 20.6773 2.86489 20.8798 2.71489 21.1198H2.72989L2.74489 21.1423L2.75989 21.1498H2.77489V21.1573H2.78989L2.80489 21.1723L2.81989 21.1798H2.83489V21.1873H2.84989L2.86489 21.2023L2.87989 21.2098H2.89489V21.2173H2.90989L2.91739 21.2323L2.93239 21.2398H2.93989V21.2473H2.95489L2.96239 21.2623L2.97739 21.2698H2.98489V21.2773H2.99989L3.00739 21.2923L3.02239 21.2998V21.3073H3.03739V21.3148L3.05239 21.3298H3.05989H3.07489V21.3373H3.08239L3.09739 21.3448H3.10489H3.11989V21.3523H3.12739L3.14239 21.3673H3.14989H3.16489V21.3748H3.17239L3.18739 21.3898H3.19489H3.20989H3.22489L3.23989 21.3973H3.25489H3.26989H3.28489L3.29989 21.4048H3.31489L3.32989 21.4123H3.34489L3.35989 21.4198H3.37489H3.38239H3.39739L3.40489 21.4273H3.41989H3.42739H3.44239L3.44989 21.4348H3.46489H3.47239H3.48739H3.49489H3.50989C3.37489 21.6748 3.28489 21.9523 3.23989 22.2673C3.82489 22.2598 4.28239 22.1473 4.56739 21.9448C4.55989 22.2748 4.64239 22.6198 4.79239 22.9273C5.21989 22.6348 5.54989 22.3498 5.73739 22.0723C5.88739 22.5073 6.37489 22.9573 7.05739 23.4298C7.23739 23.0473 7.33489 22.6348 7.33489 22.2373C7.70239 22.1923 7.99489 22.0873 8.19739 21.9448C8.18989 22.2748 8.27239 22.6198 8.42239 22.9273C8.92489 22.5823 9.29239 22.2523 9.44989 21.9298C9.46489 22.3648 9.68989 22.9048 10.0424 23.5348C10.3274 23.3023 10.5749 23.0248 10.7474 22.7173C11.2424 22.6873 11.6249 22.5823 11.8499 22.3948C11.8949 22.7248 12.0374 23.0698 12.2399 23.3773C12.4499 23.2123 12.6374 23.0548 12.7799 22.8973C12.9224 23.0548 13.1024 23.2198 13.3199 23.3773C13.5224 23.0623 13.6649 22.7173 13.7099 22.3948C13.8824 22.5373 14.1374 22.6348 14.4674 22.6798C14.6249 22.9048 14.8649 23.1373 15.1799 23.3773C15.3824 23.0623 15.5249 22.7173 15.5699 22.3948C15.8174 22.6048 16.2599 22.7098 16.8449 22.7173C16.8449 22.6498 16.8449 22.5823 16.8449 22.5148C16.9949 22.5898 17.1824 22.6423 17.4074 22.6723C17.4524 22.9273 17.5349 23.1823 17.6474 23.4223C18.3299 22.9573 18.8174 22.5073 18.9674 22.0648C19.1549 22.3423 19.4849 22.6273 19.9124 22.9198C20.0624 22.6048 20.1449 22.2598 20.1374 21.9373C20.4224 22.1473 20.8874 22.2523 21.4649 22.2598C21.4199 21.9373 21.3299 21.6523 21.1874 21.4123H21.2024H21.2099L21.2249 21.4048H21.2399L21.2474 21.3973H21.2624H21.2699H21.2849L21.2924 21.3898H21.3074H21.3149H21.3299H21.3449H21.3599L21.3749 21.3823H21.3824H21.3974H21.4049L21.4199 21.3748H21.4349H21.4499L21.4649 21.3598H21.4799H21.4949L21.5024 21.3523H21.5174H21.5249H21.5399L21.5474 21.3448L21.5624 21.3373H21.5774V21.3298H21.5849L21.5999 21.3223H21.6074H21.6224V21.3148H21.6299L21.6449 21.2998H21.6599H21.6749V21.2923H21.6899L21.7049 21.2773L21.7199 21.2698H21.7349H21.7499L21.7574 21.2548L21.7724 21.2473H21.7799V21.2398H21.7949L21.8024 21.2248L21.8174 21.2098L21.8249 21.2023H21.8399V21.1873H21.8474L21.8624 21.1723L21.8699 21.1648H21.8849V21.1573H21.8999L21.9149 21.1423L21.9299 21.1348H21.9449C21.7949 20.8873 21.6449 20.6848 21.4874 20.5273C21.7049 20.4373 21.9524 20.3098 22.2224 20.1373C21.8849 19.5898 21.5249 19.2673 21.1799 19.1098C21.5249 19.0048 21.9224 18.8098 22.3949 18.5173C22.1324 18.0973 21.8624 17.7748 21.5924 17.5423L21.6674 17.5273ZM11.9849 21.6748C11.9849 21.6748 11.9699 21.6448 11.9624 21.6298H12.0149C12.0149 21.6298 11.9924 21.6598 11.9849 21.6748ZM13.5599 21.6748C13.5599 21.6748 13.5374 21.6448 13.5299 21.6298H13.5824C13.5824 21.6298 13.5674 21.6598 13.5599 21.6748ZM15.4199 21.6748C15.4199 21.6748 15.3974 21.6448 15.3899 21.6298H15.4424C15.4424 21.6298 15.4274 21.6598 15.4199 21.6748ZM16.5074 21.6448L16.4924 21.6223H16.5224V21.6448H16.5074Z" fill="#5E7F21"/>
<path fill-rule="evenodd" clip-rule="evenodd" d="M12.4874 13.2903H12.4949H12.5024H12.5099H12.5174H12.5324L12.5399 13.2828H12.5474H12.5624H12.5699L12.5774 13.2753H12.5849H12.5924H12.5999L12.6074 13.2678H12.6224H12.6299H12.6449V13.2603L12.6599 13.2528L12.6824 13.2453H12.6974H12.7124L12.7274 13.2378H12.7424H12.7499L12.7574 13.2303H12.7724H12.7874H12.8024L12.8099 13.2228L12.8249 13.2153H12.8324H12.8399H12.8549V13.2078L12.8699 13.2003H12.8774H12.8849H12.8999V13.1928H12.9149V13.1853H12.9299H12.9449H12.9524L12.9599 13.1778L12.9749 13.1703H12.9824H12.9974H13.0124L13.0199 13.1553L13.0349 13.1478H13.0424H13.0499H13.0649C13.2299 13.0503 13.4099 12.9453 13.5899 12.8328C12.9074 11.7378 12.1949 11.1678 11.5124 10.9803C12.1574 10.6203 12.7949 9.91527 13.5224 8.76027C12.2399 7.95027 11.1749 7.67277 10.3199 7.76277C10.3799 7.67277 10.4474 7.57527 10.5149 7.47027C9.56986 6.87027 8.78236 6.68277 8.16736 6.78777C8.52736 6.18027 8.80486 5.33277 9.02236 4.19277C6.98986 3.79527 5.63986 4.12527 4.83736 4.85277C4.88986 4.37277 4.87486 3.78777 4.79236 3.08277C3.93736 3.18027 3.26986 3.37527 2.75986 3.65277C2.51986 2.94777 2.03986 2.17527 1.27486 1.34277C0.247364 2.28777 -0.375136 3.07527 -0.652636 3.79527C-1.18514 3.45027 -1.93514 3.19527 -2.93264 3.08277C-3.00014 3.68277 -3.02264 4.20027 -2.99264 4.63527C-3.81014 4.06527 -5.08514 3.84027 -6.90014 4.19277C-6.67514 5.34027 -6.39764 6.18777 -6.04514 6.78777C-6.66014 6.69027 -7.44014 6.87027 -8.39264 7.47027C-8.12264 7.90527 -7.86014 8.24277 -7.61264 8.51277C-8.29514 8.40777 -9.16514 8.61777 -10.2226 9.28527C-9.85514 9.86277 -9.52514 10.2978 -9.19514 10.6128C-10.0576 10.6653 -10.9801 11.2503 -11.8576 12.6078C-11.2426 12.9903 -10.7101 13.2603 -10.2451 13.4178C-10.8901 13.6353 -11.5651 14.2053 -12.2026 15.2328C-11.5801 15.6228 -11.0551 15.8778 -10.5976 16.0128C-11.0551 16.2153 -11.5201 16.6428 -11.9701 17.3628C-11.6101 17.5878 -11.2876 17.7603 -10.9951 17.8728C-11.1976 18.0828 -11.4001 18.3378 -11.5951 18.6603L-11.5726 18.6753L-11.5501 18.6903L-11.5276 18.7053L-11.5126 18.7203L-11.4901 18.7353H-11.4751V18.7503L-11.4526 18.7653H-11.4376V18.7803L-11.4151 18.7953H-11.4001V18.8103L-11.3776 18.8253H-11.3626V18.8403H-11.3401L-11.3251 18.8628L-11.3026 18.8778H-11.2876V18.8853H-11.2651L-11.2501 18.9003L-11.2276 18.9153H-11.2126L-11.2051 18.9228H-11.1826L-11.1751 18.9378H-11.1676L-11.1526 18.9528H-11.1451L-11.1376 18.9603H-11.1226L-11.1151 18.9753H-11.1076L-11.0926 18.9903H-11.0851L-11.0776 18.9978H-11.0626V19.0128H-11.0551L-11.0401 19.0278L-11.0251 19.0353H-11.0101V19.0503H-10.9951L-10.9801 19.0653L-10.9651 19.0728H-10.9501V19.0803H-10.9351L-10.9201 19.0953L-10.9051 19.1028H-10.8901V19.1103H-10.8751L-10.8601 19.1253L-10.8451 19.1328H-10.8301V19.1403H-10.8151L-10.8001 19.1553H-10.7851H-10.7701L-10.7551 19.1703H-10.7401H-10.7251L-10.7101 19.1853H-10.6951H-10.6801H-10.6651L-10.6501 19.2003H-10.6351H-10.6201H-10.6051L-10.5901 19.2078H-10.5751H-10.5676H-10.5526C-10.7326 19.5228 -10.8451 19.8903 -10.9051 20.3103C-10.1401 20.2953 -9.53264 20.1528 -9.15764 19.8828C-9.16514 20.3103 -9.06014 20.7678 -8.86514 21.1803C-8.30264 20.7978 -7.86764 20.4228 -7.62014 20.0553C-7.41764 20.6328 -6.78014 21.2178 -5.88014 21.8328C-5.64764 21.3378 -5.51264 20.7828 -5.52014 20.2653C-5.04014 20.2053 -4.65014 20.0703 -4.38014 19.8753C-4.38764 20.3028 -4.28264 20.7603 -4.08764 21.1728C-3.42764 20.7228 -2.94014 20.2878 -2.73764 19.8678C-2.71514 20.4378 -2.42264 21.1503 -1.95764 21.9753C-1.57514 21.6753 -1.25264 21.3003 -1.02764 20.8953C-0.375136 20.8578 0.127365 20.7153 0.419865 20.4753C0.479865 20.9028 0.667362 21.3603 0.929862 21.7728C1.20736 21.5553 1.44736 21.3453 1.63486 21.1353C1.82236 21.3453 2.06236 21.5553 2.33986 21.7728C2.60236 21.3603 2.78986 20.9103 2.84986 20.4753C3.07486 20.6628 3.41236 20.7828 3.84736 20.8503C4.04986 21.1503 4.37236 21.4578 4.77736 21.7653C5.03986 21.3528 5.22736 20.9028 5.28736 20.4678C5.61736 20.7378 6.20236 20.8878 6.95986 20.8953C6.95986 20.8053 6.95986 20.7153 6.95986 20.6328C7.16236 20.7303 7.40986 20.7978 7.69486 20.8428C7.75486 21.1803 7.85986 21.5103 8.00986 21.8253C8.90986 21.2103 9.54736 20.6253 9.74986 20.0478C9.99736 20.4153 10.4324 20.7828 10.9949 21.1728C11.1899 20.7603 11.2949 20.3103 11.2874 19.8753C11.6624 20.1453 12.2699 20.2953 13.0349 20.3028C12.9749 19.8753 12.8549 19.5003 12.6749 19.1853H12.6899H12.7049L12.7199 19.1778H12.7349H12.7499H12.7649L12.7799 19.1703H12.7949H12.8099H12.8249L12.8324 19.1628L12.8474 19.1553H12.8549H12.8699V19.1478H12.8774L12.8924 19.1403H12.8999H12.9149V19.1328H12.9299L12.9449 19.1178L12.9599 19.1103H12.9749V19.1028H12.9899L13.0049 19.0878H13.0199L13.0349 19.0728L13.0499 19.0653H13.0649V19.0578H13.0799L13.0949 19.0428L13.1099 19.0353H13.1174V19.0278H13.1324L13.1399 19.0128H13.1474L13.1624 18.9978L13.1699 18.9903H13.1849V18.9753H13.1999L13.2149 18.9603L13.2299 18.9528H13.2449V18.9453H13.2599L13.2749 18.9303L13.2899 18.9228H13.3049V18.9153H13.3199L13.3349 18.8928L13.3499 18.8778H13.3649V18.8703H13.3799L13.3949 18.8553L13.4174 18.8403H13.4249L13.4324 18.8328H13.4474L13.4549 18.8178H13.4624L13.4849 18.8028L13.4999 18.7878L13.5224 18.7728L13.5374 18.7578L13.5599 18.7428L13.5749 18.7278L13.5974 18.7128L13.6124 18.6978L13.6349 18.6828C13.4399 18.3678 13.2374 18.1053 13.0349 17.8953C13.3199 17.7828 13.6424 17.6103 14.0099 17.3853C13.5599 16.6653 13.0949 16.2378 12.6374 16.0353C13.0949 15.9003 13.6124 15.6453 14.2424 15.2553C13.5524 14.1453 12.8249 13.5753 12.1349 13.3953L12.4874 13.2903ZM0.802363 19.3203C0.802363 19.3203 0.779863 19.2753 0.772363 19.2528H0.847364C0.847364 19.2528 0.817363 19.2978 0.802363 19.3203ZM2.87236 19.3203C2.87236 19.3203 2.84236 19.2753 2.82736 19.2528H2.90236C2.90236 19.2528 2.87986 19.2978 2.87236 19.3203ZM5.31736 19.3203C5.31736 19.3203 5.28736 19.2753 5.27236 19.2528H5.34736C5.34736 19.2528 5.32486 19.2978 5.31736 19.3203ZM6.74236 19.2828L6.71986 19.2528H6.75736L6.74236 19.2828Z" fill="#98CD40"/>
<path fill-rule="evenodd" clip-rule="evenodd" d="M2.6925 9.75H2.625C2.625 9.75 2.6475 9.795 2.6625 9.8175C2.67 9.795 2.6775 9.7725 2.685 9.75H2.6925Z" fill="#89BC31"/>
<path fill-rule="evenodd" clip-rule="evenodd" d="M4.82238 9.75H4.75488C4.75488 9.75 4.77738 9.795 4.79238 9.8175C4.79988 9.795 4.80738 9.7725 4.81488 9.75H4.82238Z" fill="#89BC31"/>
<path fill-rule="evenodd" clip-rule="evenodd" d="M6.05996 9.75H6.02246L6.04496 9.7725L6.05996 9.75Z" fill="#89BC31"/>
<path fill-rule="evenodd" clip-rule="evenodd" d="M12.4874 13.2902H12.4949H12.5024H12.5099H12.5174H12.5324L12.5399 13.2827H12.5474H12.5624H12.5699L12.5774 13.2752H12.5849H12.5924H12.5999L12.6074 13.2677H12.6224H12.6299H12.6449V13.2602L12.6599 13.2527L12.6824 13.2452H12.6974H12.7124L12.7274 13.2377H12.7424H12.7499L12.7574 13.2302H12.7724H12.7874H12.8024L12.8099 13.2227L12.8249 13.2152H12.8324H12.8399H12.8549V13.2077L12.8699 13.2002H12.8774H12.8849H12.8999V13.1927H12.9149V13.1852H12.9299H12.9449H12.9524L12.9599 13.1777L12.9749 13.1702H12.9824H12.9974H13.0124L13.0199 13.1552L13.0349 13.1477H13.0424H13.0499H13.0649C13.2299 13.0502 13.4099 12.9452 13.5899 12.8327C12.9074 11.7377 12.1949 11.1677 11.5124 10.9802C12.1574 10.6202 12.7949 9.91523 13.5224 8.76023C13.0874 8.49023 12.6824 8.27273 12.2999 8.11523C12.0674 8.27273 11.8574 8.39273 11.6624 8.48273C11.8349 8.69273 12.0149 8.95523 12.1874 9.27023L12.1724 9.28523H12.1574V9.30023L12.1424 9.31523H12.1274V9.33023L12.1124 9.34523H12.0974V9.36023L12.0824 9.37523H12.0749V9.39023H12.0599L12.0524 9.40523L12.0374 9.42023L12.0299 9.42773H12.0149V9.44273H12.0074L11.9924 9.45773L11.9774 9.46523H11.9624V9.48023H11.9474L11.9324 9.50273L11.9174 9.51023H11.9024V9.51773H11.8874L11.8724 9.53273L11.8574 9.54023H11.8424V9.54773H11.8274L11.8199 9.56273L11.8049 9.57773H11.7974V9.58523H11.7824V9.60023L11.7674 9.61523L11.7599 9.62273H11.7449V9.63023H11.7374L11.7224 9.64523L11.7074 9.65273H11.6924V9.66023H11.6774L11.6624 9.67523H11.6474L11.6324 9.69023L11.6174 9.69773H11.6024H11.5874L11.5799 9.71273L11.5649 9.72023H11.5574H11.5424V9.72773L11.5274 9.73523H11.5199H11.5049V9.74273H11.4974L11.4824 9.75023H11.4749H11.4599H11.4449L11.4299 9.75773H11.4149H11.3999H11.3849L11.3699 9.76523H11.3549C11.5124 10.0802 11.6174 10.4552 11.6699 10.8827C11.0024 10.8677 10.4699 10.7252 10.1474 10.4552C10.1549 10.8827 10.0649 11.3402 9.89237 11.7527C9.39737 11.3702 9.02237 10.9952 8.80487 10.6352C8.63237 11.2127 8.06987 11.7977 7.28987 12.4127C7.16237 12.0977 7.06487 11.7602 7.01987 11.4302C6.76487 11.3852 6.54737 11.3177 6.37487 11.2202C6.37487 11.3027 6.37487 11.3927 6.37487 11.4827C5.70737 11.4677 5.19737 11.3252 4.91237 11.0552C4.85987 11.4827 4.69487 11.9402 4.46237 12.3527C4.10987 12.0377 3.82487 11.7377 3.64487 11.4377C3.26237 11.3702 2.96987 11.2427 2.77487 11.0627C2.72237 11.4902 2.55737 11.9477 2.32487 12.3602C2.08487 12.1427 1.87487 11.9327 1.70987 11.7227C1.54487 11.9327 1.33487 12.1427 1.09487 12.3602C0.862372 11.9477 0.704874 11.4977 0.644874 11.0627C0.389874 11.3102 -0.0526273 11.4452 -0.615127 11.4827C-0.810127 11.8877 -1.09513 12.2552 -1.42513 12.5627C-1.83013 11.7452 -2.08513 11.0252 -2.10763 10.4552C-2.28763 10.8827 -2.71513 11.3102 -3.28513 11.7602C-3.45763 11.3477 -3.54763 10.8977 -3.54013 10.4627C-3.77263 10.6577 -4.11763 10.7852 -4.53763 10.8527C-4.53763 11.3702 -4.65013 11.9177 -4.85263 12.4202C-5.64013 11.8052 -6.19513 11.2202 -6.36763 10.6427C-6.58513 11.0102 -6.96013 11.3777 -7.45513 11.7602C-7.62763 11.3477 -7.71763 10.8977 -7.71013 10.4627C-8.03263 10.7327 -8.56513 10.8827 -9.23263 10.8902C-9.21763 10.7777 -9.20263 10.6727 -9.18013 10.5752C-10.0051 10.6727 -10.8901 11.2652 -11.7226 12.5552C-11.1076 12.9377 -10.5751 13.2077 -10.1101 13.3652C-10.7551 13.5827 -11.4301 14.1527 -12.0676 15.1802C-11.4451 15.5702 -10.9201 15.8252 -10.4626 15.9602C-10.9201 16.1627 -11.3851 16.5902 -11.8351 17.3102C-11.4751 17.5352 -11.1526 17.7077 -10.8601 17.8202C-11.0626 18.0302 -11.2651 18.2852 -11.4601 18.6077L-11.4376 18.6227L-11.4151 18.6377L-11.3926 18.6527L-11.3776 18.6677L-11.3551 18.6827H-11.3401V18.6977L-11.3176 18.7127H-11.3026V18.7277L-11.2801 18.7427H-11.2651V18.7577L-11.2426 18.7727H-11.2276V18.7877H-11.2051L-11.1901 18.8102L-11.1676 18.8252H-11.1526V18.8327H-11.1301L-11.1151 18.8477L-11.0926 18.8627H-11.0776L-11.0701 18.8702H-11.0476L-11.0401 18.8852H-11.0326L-11.0176 18.9002H-11.0101L-11.0026 18.9077H-10.9876L-10.9801 18.9227H-10.9726L-10.9576 18.9377H-10.9501L-10.9426 18.9452H-10.9276V18.9602H-10.9201L-10.9051 18.9752L-10.8901 18.9827H-10.8751V18.9977H-10.8601L-10.8451 19.0127L-10.8301 19.0202H-10.8151V19.0277H-10.8001L-10.7851 19.0427L-10.7701 19.0502H-10.7551V19.0577H-10.7401L-10.7251 19.0727L-10.7101 19.0802H-10.6951V19.0877H-10.6801L-10.6651 19.1027H-10.6501H-10.6351L-10.6201 19.1177H-10.6051H-10.5901L-10.5751 19.1327H-10.5601H-10.5451H-10.5301L-10.5151 19.1477H-10.5001H-10.4851H-10.4701L-10.4551 19.1552H-10.4401H-10.4326H-10.4176C-10.5976 19.4702 -10.7101 19.8377 -10.7701 20.2577C-10.0051 20.2427 -9.39763 20.1002 -9.02263 19.8302C-9.03013 20.2577 -8.92513 20.7152 -8.73013 21.1277C-8.16763 20.7452 -7.73263 20.3702 -7.48513 20.0027C-7.28263 20.5802 -6.64513 21.1652 -5.74513 21.7802C-5.51263 21.2852 -5.37763 20.7302 -5.38513 20.2127C-4.90513 20.1527 -4.51513 20.0177 -4.24513 19.8227C-4.25263 20.2502 -4.14763 20.7077 -3.95263 21.1202C-3.29263 20.6702 -2.80513 20.2352 -2.60263 19.8152C-2.58013 20.3852 -2.28763 21.0977 -1.82263 21.9227C-1.44013 21.6227 -1.11763 21.2477 -0.892627 20.8427C-0.240127 20.8052 0.262372 20.6627 0.554872 20.4227C0.614872 20.8502 0.802372 21.3077 1.06487 21.7202C1.34237 21.5027 1.58237 21.2927 1.76987 21.0827C1.95737 21.2927 2.19737 21.5027 2.47487 21.7202C2.73737 21.3077 2.92487 20.8577 2.98487 20.4227C3.20987 20.6102 3.54737 20.7302 3.98237 20.7977C4.18487 21.0977 4.50737 21.4052 4.91237 21.7127C5.17487 21.3002 5.36237 20.8502 5.42237 20.4152C5.75237 20.6852 6.33737 20.8352 7.09487 20.8427C7.09487 20.7527 7.09487 20.6627 7.09487 20.5802C7.29737 20.6777 7.54487 20.7452 7.82987 20.7902C7.88987 21.1277 7.99487 21.4577 8.14487 21.7727C9.04487 21.1577 9.68237 20.5727 9.88487 19.9952C10.1324 20.3627 10.5674 20.7302 11.1299 21.1202C11.3249 20.7077 11.4299 20.2577 11.4224 19.8227C11.7974 20.0927 12.4049 20.2427 13.1699 20.2502C13.1099 19.8227 12.9899 19.4477 12.8099 19.1327H12.8249H12.8399L12.8549 19.1252H12.8699H12.8849H12.8999L12.9149 19.1177H12.9299H12.9449H12.9599L12.9674 19.1102L12.9824 19.1027H12.9899H13.0049V19.0952H13.0124L13.0274 19.0877H13.0349H13.0499V19.0802H13.0649L13.0799 19.0652L13.0949 19.0577H13.1099V19.0502H13.1249L13.1399 19.0352H13.1549L13.1699 19.0202L13.1849 19.0127H13.1999V19.0052H13.2149L13.2299 18.9902L13.2449 18.9827H13.2524V18.9752H13.2674L13.2749 18.9602H13.2824L13.2974 18.9452L13.3049 18.9377H13.3199V18.9227H13.3349L13.3499 18.9077L13.3649 18.9002H13.3799V18.8927H13.3949L13.4099 18.8777L13.4249 18.8702H13.4399V18.8627H13.4549L13.4699 18.8402L13.4849 18.8252H13.4999V18.8177H13.5149L13.5299 18.8027L13.5524 18.7877H13.5599L13.5674 18.7802H13.5824L13.5899 18.7652H13.5974L13.6199 18.7502L13.6349 18.7352L13.6574 18.7202L13.6724 18.7052L13.6949 18.6902L13.7099 18.6752L13.7324 18.6602L13.7474 18.6452L13.7699 18.6302C13.5749 18.3152 13.3724 18.0527 13.1699 17.8427C13.4549 17.7302 13.7774 17.5577 14.1449 17.3327C13.6949 16.6127 13.2299 16.1852 12.7724 15.9827C13.2299 15.8477 13.7474 15.5927 14.3774 15.2027C13.6874 14.0927 12.9599 13.5227 12.2699 13.3427L12.4874 13.2902ZM0.802373 19.3202C0.802373 19.3202 0.779872 19.2752 0.772372 19.2527H0.847374C0.847374 19.2527 0.817373 19.2977 0.802373 19.3202ZM2.87237 19.3202C2.87237 19.3202 2.84237 19.2752 2.82737 19.2527H2.90237C2.90237 19.2527 2.87987 19.2977 2.87237 19.3202ZM5.31737 19.3202C5.31737 19.3202 5.28737 19.2752 5.27237 19.2527H5.34737C5.34737 19.2527 5.32487 19.2977 5.31737 19.3202ZM6.74237 19.2827L6.71987 19.2527H6.75737L6.74237 19.2827Z" fill="#89BC31"/>
<path fill-rule="evenodd" clip-rule="evenodd" d="M0.899776 9.75H0.832275C0.832275 9.75 0.847276 9.795 0.854776 9.81C0.869776 9.7875 0.877275 9.765 0.892275 9.75H0.899776Z" fill="#89BC31"/>
<path fill-rule="evenodd" clip-rule="evenodd" d="M6.75723 14.2949H6.71973L6.74973 14.3174L6.75723 14.2949Z" fill="#76A12A"/>
<path fill-rule="evenodd" clip-rule="evenodd" d="M5.34746 14.2949H5.27246C5.27246 14.2949 5.30246 14.3399 5.31746 14.3549C5.32496 14.3324 5.33996 14.3099 5.34746 14.2949Z" fill="#76A12A"/>
<path fill-rule="evenodd" clip-rule="evenodd" d="M13.5374 13.8672H13.5224V13.8747H13.5074L13.4924 13.8897L13.4774 13.9047H13.4699V13.9122H13.4549L13.4474 13.9272H13.4399L13.4249 13.9422L13.4174 13.9497H13.4024V13.9647H13.3874L13.3724 13.9797L13.3574 13.9872H13.3424V13.9947H13.3274L13.3124 14.0097H13.2974L13.2824 14.0247L13.2674 14.0322H13.2524H13.2374L13.2224 14.0472L13.2074 14.0547H13.1999H13.1849L13.1774 14.0622L13.1624 14.0697H13.1549H13.1399V14.0772H13.1324L13.1174 14.0847H13.1024H13.0874H13.0724L13.0574 14.0922H13.0424H13.0274H13.0124L12.9974 14.0997H12.9824C13.1624 14.4147 13.2824 14.7897 13.3424 15.2172C12.5774 15.2022 11.9699 15.0597 11.5949 14.7897C11.6024 15.2172 11.4974 15.6747 11.3024 16.0872C10.7399 15.7047 10.3049 15.3297 10.0574 14.9622C9.85491 15.5397 9.21741 16.1247 8.31741 16.7397C8.16741 16.4247 8.06241 16.0872 8.00241 15.7572C7.70991 15.7122 7.46241 15.6447 7.26741 15.5472C7.26741 15.6297 7.26741 15.7197 7.26741 15.8097C6.50241 15.7947 5.92491 15.6522 5.59491 15.3822C5.53491 15.8097 5.34741 16.2672 5.08491 16.6797C4.67991 16.3647 4.35741 16.0572 4.15491 15.7647C3.71991 15.6972 3.38241 15.5697 3.15741 15.3897C3.09741 15.8172 2.90991 16.2747 2.64741 16.6872C2.36991 16.4697 2.12991 16.2597 1.94241 16.0497C1.75491 16.2597 1.51491 16.4697 1.23741 16.6872C0.974912 16.2747 0.787412 15.8247 0.727412 15.3897C0.434912 15.6372 -0.067588 15.7722 -0.720088 15.8097C-0.945088 16.2147 -1.27509 16.5822 -1.65009 16.8897C-2.11509 16.0722 -2.40759 15.3522 -2.43009 14.7822C-2.64009 15.2097 -3.12759 15.6372 -3.78009 16.0872C-3.97509 15.6747 -4.08009 15.2247 -4.07259 14.7897C-4.34259 14.9847 -4.73259 15.1122 -5.21259 15.1797C-5.21259 15.6972 -5.34009 16.2522 -5.57259 16.7472C-6.47259 16.1322 -7.11009 15.5472 -7.31259 14.9697C-7.56009 15.3372 -7.99509 15.7047 -8.55759 16.0947C-8.75259 15.6822 -8.85759 15.2322 -8.85009 14.7972C-9.22509 15.0672 -9.83259 15.2172 -10.5976 15.2247C-10.5376 14.8047 -10.4176 14.4372 -10.2451 14.1297H-10.2601H-10.2676L-10.2826 14.1222H-10.2976H-10.3126H-10.3276L-10.3426 14.1147H-10.3576H-10.3726H-10.3876L-10.4026 14.0997H-10.4176H-10.4326H-10.4476L-10.4626 14.0847H-10.4776L-10.4926 14.0697H-10.5076L-10.5226 14.0547L-10.5376 14.0472H-10.5526H-10.5676L-10.5826 14.0322L-10.5976 14.0247H-10.6126V14.0172H-10.6276L-10.6426 14.0022L-10.6576 13.9947H-10.6726V13.9872H-10.6876L-10.7026 13.9722L-10.7176 13.9572H-10.7326V13.9497H-10.7476L-10.7551 13.9347L-10.7701 13.9197H-10.7776L-10.7851 13.9122H-10.8001L-10.8076 13.8972H-10.8151L-10.8301 13.8822H-10.8376L-10.8451 13.8747C-11.1976 14.1747 -11.5576 14.5947 -11.9026 15.1497C-11.2801 15.5397 -10.7551 15.7947 -10.2976 15.9297C-10.7551 16.1322 -11.2201 16.5597 -11.6701 17.2797C-11.3101 17.5047 -10.9876 17.6772 -10.6951 17.7897C-10.8976 17.9997 -11.1001 18.2547 -11.2951 18.5772L-11.2726 18.5922L-11.2501 18.6072L-11.2276 18.6222L-11.2126 18.6372L-11.1901 18.6522H-11.1751V18.6672L-11.1526 18.6822H-11.1376V18.6972L-11.1151 18.7122H-11.1001V18.7272L-11.0776 18.7422H-11.0626V18.7572H-11.0401L-11.0251 18.7797L-11.0026 18.7947H-10.9876V18.8022H-10.9651L-10.9501 18.8172L-10.9276 18.8322H-10.9126L-10.9051 18.8397H-10.8826L-10.8751 18.8547H-10.8676L-10.8526 18.8697H-10.8451L-10.8376 18.8772H-10.8226L-10.8151 18.8922H-10.8076L-10.7926 18.9072H-10.7851L-10.7776 18.9147H-10.7626V18.9297H-10.7551L-10.7401 18.9447L-10.7251 18.9522H-10.7101V18.9672H-10.6951L-10.6801 18.9822L-10.6651 18.9897H-10.6501V18.9972H-10.6351L-10.6201 19.0122L-10.6051 19.0197H-10.5901V19.0272H-10.5751L-10.5601 19.0422L-10.5451 19.0497H-10.5301V19.0572H-10.5151L-10.5001 19.0722H-10.4851H-10.4701L-10.4551 19.0872H-10.4401H-10.4251L-10.4101 19.1022H-10.3951H-10.3801H-10.3651L-10.3501 19.1172H-10.3351H-10.3201H-10.3051L-10.2901 19.1247H-10.2751H-10.2676H-10.2526C-10.4326 19.4397 -10.5451 19.8072 -10.6051 20.2272C-9.84009 20.2122 -9.23259 20.0697 -8.85759 19.7997C-8.86509 20.2272 -8.76009 20.6847 -8.56509 21.0972C-8.00259 20.7147 -7.56759 20.3397 -7.32009 19.9722C-7.11759 20.5497 -6.48009 21.1347 -5.58009 21.7497C-5.34759 21.2547 -5.21259 20.6997 -5.22009 20.1822C-4.74009 20.1222 -4.35009 19.9872 -4.08009 19.7922C-4.08759 20.2197 -3.98259 20.6772 -3.78759 21.0897C-3.12759 20.6397 -2.64009 20.2047 -2.43759 19.7847C-2.41509 20.3547 -2.12259 21.0672 -1.65759 21.8922C-1.27509 21.5922 -0.952588 21.2172 -0.727588 20.8122C-0.0750882 20.7747 0.427412 20.6322 0.719912 20.3922C0.779912 20.8197 0.967412 21.2772 1.22991 21.6897C1.50741 21.4722 1.74741 21.2622 1.93491 21.0522C2.12241 21.2622 2.36241 21.4722 2.63991 21.6897C2.90241 21.2772 3.08991 20.8272 3.14991 20.3922C3.37491 20.5797 3.71241 20.6997 4.14741 20.7672C4.34991 21.0672 4.67241 21.3747 5.07741 21.6822C5.33991 21.2697 5.52741 20.8197 5.58741 20.3847C5.91741 20.6547 6.50241 20.8047 7.25991 20.8122C7.25991 20.7222 7.25991 20.6322 7.25991 20.5497C7.46241 20.6472 7.70991 20.7147 7.99491 20.7597C8.05491 21.0972 8.15991 21.4272 8.30991 21.7422C9.20991 21.1272 9.84741 20.5422 10.0499 19.9647C10.2974 20.3322 10.7324 20.6997 11.2949 21.0897C11.4899 20.6772 11.5949 20.2272 11.5874 19.7922C11.9624 20.0622 12.5699 20.2122 13.3349 20.2197C13.2749 19.7922 13.1549 19.4172 12.9749 19.1022H12.9899H13.0049L13.0199 19.0947H13.0349H13.0499H13.0649L13.0799 19.0872H13.0949H13.1099H13.1249L13.1324 19.0797L13.1474 19.0722H13.1549H13.1699V19.0647H13.1774L13.1924 19.0572H13.1999H13.2149V19.0497H13.2299L13.2449 19.0347L13.2599 19.0272H13.2749V19.0197H13.2899L13.3049 19.0047H13.3199L13.3349 18.9897L13.3499 18.9822H13.3649V18.9747H13.3799L13.3949 18.9597L13.4099 18.9522H13.4174V18.9447H13.4324L13.4399 18.9297H13.4474L13.4624 18.9147L13.4699 18.9072H13.4849V18.8922H13.4999L13.5149 18.8772L13.5299 18.8697H13.5449V18.8622H13.5599L13.5749 18.8472L13.5899 18.8397H13.6049V18.8322H13.6199L13.6349 18.8097L13.6499 18.7947H13.6649V18.7872H13.6799L13.6949 18.7722L13.7174 18.7572H13.7249L13.7324 18.7497H13.7474L13.7549 18.7347H13.7624L13.7849 18.7197L13.7999 18.7047L13.8224 18.6897L13.8374 18.6747L13.8599 18.6597L13.8749 18.6447L13.8974 18.6297L13.9124 18.6147L13.9349 18.5997C13.7399 18.2847 13.5374 18.0222 13.3349 17.8122C13.6199 17.6997 13.9424 17.5272 14.3099 17.3022C13.8599 16.5822 13.3949 16.1547 12.9374 15.9522C13.3949 15.8172 13.9124 15.5622 14.5424 15.1722C14.1974 14.6172 13.8449 14.1972 13.4849 13.8897L13.5374 13.8672ZM0.802413 19.3197C0.802413 19.3197 0.779912 19.2747 0.772412 19.2522H0.847412C0.847412 19.2522 0.817413 19.2972 0.802413 19.3197ZM2.87241 19.3197C2.87241 19.3197 2.84241 19.2747 2.82741 19.2522H2.90241C2.90241 19.2522 2.87991 19.2972 2.87241 19.3197ZM5.31741 19.3197C5.31741 19.3197 5.28741 19.2747 5.27241 19.2522H5.34741C5.34741 19.2522 5.32491 19.2972 5.31741 19.3197ZM6.74241 19.2822L6.71991 19.2522H6.75741L6.74241 19.2822Z" fill="#76A12A"/>
<path fill-rule="evenodd" clip-rule="evenodd" d="M2.90239 14.2949H2.82739C2.82739 14.2949 2.85739 14.3399 2.87239 14.3549C2.87989 14.3324 2.89489 14.3099 2.90239 14.2949Z" fill="#76A12A"/>
<path fill-rule="evenodd" clip-rule="evenodd" d="M0.847461 14.2949H0.772461C0.772461 14.2949 0.794962 14.3399 0.802462 14.3549C0.817462 14.3324 0.832461 14.3099 0.847461 14.2949Z" fill="#76A12A"/>
</g>
</svg>
