<svg width="24" height="24" viewBox="0 0 24 24" fill="none" xmlns="http://www.w3.org/2000/svg">
<mask id="mask0_44_148248" style="mask-type:luminance" maskUnits="userSpaceOnUse" x="0" y="0" width="24" height="24">
<path d="M24 0H0V24H24V0Z" fill="white"/>
</mask>
<g mask="url(#mask0_44_148248)">
<path fill-rule="evenodd" clip-rule="evenodd" d="M21.615 20.033C21.5475 20.033 21.48 20.033 21.42 20.0405C21.735 19.523 21.915 18.9155 21.915 18.2705C21.915 16.928 21.1425 15.773 20.025 15.2105C20.055 15.008 20.07 14.798 20.07 14.5805C20.07 14.2655 20.0325 13.9655 19.9725 13.673C20.775 12.818 21.27 11.6705 21.27 10.4105C21.27 7.77055 19.1325 5.64055 16.5 5.64055C15.45 5.64055 14.475 5.98555 13.68 6.56305C12.885 4.74055 11.07 3.47305 8.95497 3.47305C8.89497 3.47305 8.84247 3.47305 8.78247 3.47305C8.88747 3.21055 8.94747 2.92555 8.94747 2.63305C8.94747 1.41805 7.96497 0.435547 6.74997 0.435547C5.53497 0.435547 4.56747 1.40305 4.55247 2.60305C3.40497 1.40305 1.78497 0.653047 -0.00753021 0.653047C-2.27253 0.653047 -4.26003 1.85305 -5.37003 3.65305C-6.24753 2.73805 -7.48503 2.16805 -8.85003 2.16805C-10.4025 2.16805 -11.79 2.90305 -12.675 4.05055C-12.825 4.02805 -12.9825 4.01305 -13.14 4.01305C-14.4675 4.01305 -15.6 4.86805 -16.0125 6.05305C-18.21 6.48055 -19.8675 8.41555 -19.8675 10.7405C-19.8675 11.738 -19.56 12.6605 -19.0425 13.4255C-20.0625 13.6505 -20.82 14.5655 -20.82 15.6455C-20.82 16.028 -20.73 16.388 -20.565 16.6955C-20.7675 17.153 -20.88 17.663 -20.88 18.1955C-20.88 18.728 -20.775 19.2155 -20.58 19.673C-21.0375 20.108 -21.315 20.7155 -21.315 21.398C-21.315 21.458 -21.315 21.518 -21.315 21.578C-21.6 21.233 -22.02 21.0155 -22.5 21.0155C-23.3475 21.0155 -24.03 21.698 -24.03 22.5455C-24.03 23.228 -23.58 23.813 -22.9575 24.008H-22.0275C-21.9825 23.993 -21.945 23.978 -21.9 23.963V24.008H23.3775C23.7525 23.588 23.9775 23.033 23.9775 22.4255C23.9775 21.1055 22.9125 20.0405 21.5925 20.0405L21.615 20.033Z" fill="#A8BC2A"/>
<path fill-rule="evenodd" clip-rule="evenodd" d="M16.485 5.63273C15.435 5.63273 14.46 5.97773 13.665 6.55523C12.87 4.73273 11.055 3.46523 8.93997 3.46523C8.88747 3.46523 8.82747 3.46523 8.77497 3.46523C8.87997 3.20273 8.93997 2.91773 8.93997 2.62523C8.93997 1.41023 7.95747 0.427734 6.74247 0.427734C5.52747 0.427734 4.55997 1.39523 4.54497 2.59523C3.39747 1.39523 1.78497 0.645234 -0.00753021 0.645234C-2.27253 0.645234 -4.26003 1.84523 -5.37003 3.64523C-6.24753 2.73023 -7.48503 2.16023 -8.85003 2.16023C-10.4025 2.16023 -11.79 2.89523 -12.675 4.03523C-12.825 4.01273 -12.9825 3.99773 -13.14 3.99773C-14.4675 3.99773 -15.6 4.85273 -16.0125 6.03773C-17.4675 6.32273 -18.6825 7.26023 -19.3425 8.53523C-18.6825 9.81023 -17.4675 10.7477 -16.02 11.0327C-15.6075 12.2177 -14.475 13.0727 -13.1475 13.0727C-12.99 13.0727 -12.8325 13.0577 -12.6825 13.0352C-11.7975 14.1752 -10.4175 14.9177 -8.85753 14.9177C-7.49253 14.9177 -6.25503 14.3477 -5.37753 13.4402C-4.26753 15.2402 -2.28003 16.4402 -0.015029 16.4402C1.77747 16.4402 3.39747 15.6902 4.54497 14.4902C4.55997 15.6902 5.53497 16.6577 6.74247 16.6577C7.94997 16.6577 8.93997 15.6752 8.93997 14.4602C8.93997 14.1602 8.87997 13.8752 8.77497 13.6127C8.83497 13.6127 8.88747 13.6127 8.93997 13.6127C11.055 13.6127 12.87 12.3452 13.665 10.5227C14.4525 11.1002 15.4275 11.4452 16.485 11.4452C18.465 11.4452 20.16 10.2452 20.88 8.53523C20.1525 6.82523 18.4575 5.62523 16.485 5.62523V5.63273Z" fill="#B9CD38"/>
<path fill-rule="evenodd" clip-rule="evenodd" d="M22.05 20.0705C21.5925 20.918 20.6925 21.4955 19.665 21.4955C19.0275 21.4955 18.4425 21.278 17.9775 20.9105C17.34 21.443 16.5225 21.7655 15.6225 21.7655C14.535 21.7655 13.56 21.293 12.8925 20.543C12.5025 20.8355 12.0225 21.008 11.505 21.008C10.89 21.008 10.3275 20.768 9.915 20.378C9.5925 20.5055 9.24 20.5805 8.8725 20.5805C8.4075 20.5805 7.9725 20.468 7.59 20.273C7.095 20.8205 6.3825 21.173 5.5875 21.173C4.2225 21.173 3.09 20.153 2.9175 18.833C2.415 19.658 1.5 20.2055 0.464999 20.2055C-0.180001 20.2055 -0.7725 19.9955 -1.2525 19.6355C-1.6275 20.783 -2.7075 21.6155 -3.9825 21.6155C-5.2575 21.6155 -6.3375 20.7905 -6.7125 19.643C-7.08 19.793 -7.485 19.883 -7.9125 19.883C-8.145 19.883 -8.37 19.8605 -8.5875 19.808C-8.91 20.618 -9.705 21.1805 -10.6275 21.1805C-10.89 21.1805 -11.145 21.1355 -11.385 21.0455C-12.06 21.9455 -13.1325 22.5305 -14.3475 22.5305C-16.35 22.5305 -17.97 20.9405 -18.03 18.9605C-18.4575 19.2005 -18.945 19.3355 -19.47 19.3355C-19.935 19.3355 -20.37 19.2305 -20.76 19.043C-20.7075 19.2605 -20.64 19.4705 -20.5575 19.673C-21.015 20.108 -21.2925 20.7155 -21.2925 21.398V21.578C-21.57 21.233 -21.99 21.0155 -22.47 21.0155C-23.3175 21.0155 -24 21.698 -24 22.5455C-24 23.228 -23.55 23.813 -22.9275 24.008H-21.9975L-21.87 23.963V24.008H23.4075C23.7825 23.588 24.0075 23.033 24.0075 22.4255C24.0075 21.2555 23.1675 20.2805 22.0575 20.078L22.05 20.0705Z" fill="#90A124"/>
</g>
</svg>
