<svg width="24" height="24" viewBox="0 0 24 24" fill="none" xmlns="http://www.w3.org/2000/svg">
<g clip-path="url(#clip0_44_146754)">
<path fill-rule="evenodd" clip-rule="evenodd" d="M23.2812 20.2266C24.1562 15.5 21.5547 15.7969 22.6562 14.2578C24.5859 11.5469 22.0937 8.82031 22.8437 7.55469C24.2187 5.22656 21.1562 4.35938 21.7422 3.52344C22.7109 2.16406 21.3594 0.0234375 21.3594 0H0V24H24C24 22.2812 23.0469 21.5234 23.2812 20.2266Z" fill="#7B4720"/>
<path fill-rule="evenodd" clip-rule="evenodd" d="M23.2812 20.2266C24.1562 15.5 21.5547 15.7969 22.6562 14.2578C24.5859 11.5469 22.0937 8.82031 22.8437 7.55469C24.2187 5.22656 21.1562 4.35938 21.7422 3.52344C22.7109 2.16406 21.3594 0.0234375 21.3594 0H0V14.1094C0.445312 14.2812 1.00781 14.3594 1.47656 14.7969C1.94531 15.2344 4.05469 15.1719 4.41406 14.7188C4.78125 14.2656 5.80469 12.4297 6.96875 13C8.13281 13.5625 9.65625 13.3984 12.0156 12.5234C14.375 11.6484 13.0234 15.2969 14.5469 16.1797C16.0703 17.0625 16.2656 18.6016 14.7188 19.2891C13.1719 19.9766 14.2969 21.8359 14.6172 22.3438C14.9375 22.8516 14.7031 23.1406 14.2969 24.0078H24C24 22.2891 23.0469 21.5312 23.2812 20.2344V20.2266Z" fill="#8F5833"/>
<path fill-rule="evenodd" clip-rule="evenodd" d="M23.2812 20.2266C24.1562 15.5 21.5547 15.7969 22.6562 14.2578C24.5859 11.5469 22.0937 8.82031 22.8437 7.55469C24.2187 5.22656 21.1562 4.35938 21.7422 3.52344C22.7109 2.16406 21.3594 0.0234375 21.3594 0H0V8.625C3.19531 8.6875 2.08594 9.78906 5.27344 9.51563C7.11719 9.35938 7.74219 5.21094 10.3203 8.64063C12.8984 12.0625 15.8281 6.95312 17.8281 9.82812C19.2969 11.9453 21.1016 11.1484 19.9141 14.6563C19.4375 16.0625 19.125 16.1562 19.9453 17.5C20.7578 18.8437 18.5469 20.5469 18.8047 22.1875C19.0625 23.8281 19.0156 23.9531 19.0156 24H24C24 22.2812 23.0469 21.5234 23.2812 20.2266Z" fill="#AB6C48"/>
<path fill-rule="evenodd" clip-rule="evenodd" d="M0.703125 7.28125C0.484375 7.28125 0.3125 7.46094 0.3125 7.67188C0.3125 7.88281 0.492187 8.0625 0.703125 8.0625C0.914062 8.0625 1.09375 7.88281 1.09375 7.67188C1.09375 7.46094 0.914062 7.28125 0.703125 7.28125Z" fill="#8F5833"/>
<path fill-rule="evenodd" clip-rule="evenodd" d="M3.32813 7.99219C3.125 7.99219 2.96094 8.15625 2.96094 8.35938C2.96094 8.5625 3.125 8.72656 3.32813 8.72656C3.53125 8.72656 3.69531 8.5625 3.69531 8.35938C3.69531 8.15625 3.53125 7.99219 3.32813 7.99219Z" fill="#8F5833"/>
<path fill-rule="evenodd" clip-rule="evenodd" d="M5.5625 7.17188C5.39844 7.17188 5.27344 7.30469 5.27344 7.46875C5.27344 7.63281 5.40625 7.76562 5.5625 7.76562C5.71875 7.76562 5.85156 7.63281 5.85156 7.46875C5.85156 7.30469 5.71875 7.17188 5.5625 7.17188Z" fill="#8F5833"/>
<path fill-rule="evenodd" clip-rule="evenodd" d="M11.8984 7.92188C11.4922 7.92188 11.1641 8.25 11.1641 8.65625C11.1641 9.0625 11.4922 9.39063 11.8984 9.39063C12.3047 9.39063 12.6328 9.0625 12.6328 8.65625C12.6328 8.25 12.3047 7.92188 11.8984 7.92188Z" fill="#8F5833"/>
<path fill-rule="evenodd" clip-rule="evenodd" d="M18.9375 7.96094C18.6016 7.96094 18.3203 8.23437 18.3203 8.57812C18.3203 8.92187 18.5937 9.1875 18.9375 9.1875C19.2812 9.1875 19.5547 8.91406 19.5547 8.57812C19.5547 8.24219 19.2812 7.96094 18.9375 7.96094Z" fill="#8F5833"/>
<path fill-rule="evenodd" clip-rule="evenodd" d="M21.2266 10.3906C21.1094 10.3906 21.0156 10.4844 21.0156 10.6016C21.0156 10.7187 21.1094 10.8125 21.2266 10.8125C21.3438 10.8125 21.4375 10.7187 21.4375 10.6016C21.4375 10.4844 21.3438 10.3906 21.2266 10.3906Z" fill="#8F5833"/>
<path fill-rule="evenodd" clip-rule="evenodd" d="M21.2187 14.5469C20.9766 14.5469 20.7812 14.7422 20.7812 14.9844C20.7812 15.2266 20.9766 15.4219 21.2187 15.4219C21.4609 15.4219 21.6562 15.2266 21.6562 14.9844C21.6562 14.7422 21.4609 14.5469 21.2187 14.5469Z" fill="#8F5833"/>
<path d="M21.5781 18.2891C21.9492 18.2891 22.25 17.9883 22.25 17.6172C22.25 17.2461 21.9492 16.9453 21.5781 16.9453C21.2071 16.9453 20.9062 17.2461 20.9062 17.6172C20.9062 17.9883 21.2071 18.2891 21.5781 18.2891Z" fill="#8F5833"/>
<path fill-rule="evenodd" clip-rule="evenodd" d="M20.2031 21.4141C20.0156 21.4141 19.8672 21.5625 19.8672 21.75C19.8672 21.9375 20.0156 22.0859 20.2031 22.0859C20.3906 22.0859 20.5391 21.9375 20.5391 21.75C20.5391 21.5625 20.3906 21.4141 20.2031 21.4141Z" fill="#8F5833"/>
<path fill-rule="evenodd" clip-rule="evenodd" d="M1.08594 9.29688C0.921875 9.29688 0.78125 9.42969 0.78125 9.60156C0.78125 9.77344 0.914062 9.90625 1.08594 9.90625C1.25781 9.90625 1.39062 9.77344 1.39062 9.60156C1.39062 9.42969 1.25781 9.29688 1.08594 9.29688Z" fill="#AB6C48"/>
<path fill-rule="evenodd" clip-rule="evenodd" d="M4.22656 10.4844C4.09375 10.4844 3.98438 10.5938 3.98438 10.7188C3.98438 10.8438 4.09375 10.9531 4.22656 10.9531C4.35937 10.9531 4.46094 10.8438 4.46094 10.7188C4.46094 10.5938 4.35156 10.4844 4.22656 10.4844Z" fill="#AB6C48"/>
<path fill-rule="evenodd" clip-rule="evenodd" d="M8.42187 8.4375C8.27344 8.4375 8.14844 8.5625 8.14844 8.71094C8.14844 8.85937 8.27344 8.98437 8.42187 8.98437C8.57031 8.98437 8.69531 8.85937 8.69531 8.71094C8.69531 8.5625 8.57031 8.4375 8.42187 8.4375Z" fill="#AB6C48"/>
<path fill-rule="evenodd" clip-rule="evenodd" d="M10.9297 10.2656C10.8594 10.2656 10.8047 10.3203 10.8047 10.3906C10.8047 10.4609 10.8594 10.5156 10.9297 10.5156C11 10.5156 11.0547 10.4609 11.0547 10.3906C11.0547 10.3203 11 10.2656 10.9297 10.2656Z" fill="#AB6C48"/>
<path fill-rule="evenodd" clip-rule="evenodd" d="M15.0391 10.0234C14.7109 10.0234 14.4453 10.2891 14.4453 10.6172C14.4453 10.9453 14.7109 11.2109 15.0391 11.2109C15.3672 11.2109 15.6328 10.9453 15.6328 10.6172C15.6328 10.2891 15.3672 10.0234 15.0391 10.0234Z" fill="#AB6C48"/>
<path fill-rule="evenodd" clip-rule="evenodd" d="M18.8516 11.6953C18.6641 11.6953 18.5156 11.8437 18.5156 12.0312C18.5156 12.2187 18.6719 12.3672 18.8516 12.3672C19.0312 12.3672 19.1875 12.2187 19.1875 12.0312C19.1875 11.8437 19.0391 11.6953 18.8516 11.6953Z" fill="#AB6C48"/>
<path fill-rule="evenodd" clip-rule="evenodd" d="M18 14.8984C17.8906 14.8984 17.7969 14.9922 17.7969 15.1016C17.7969 15.2109 17.8906 15.3047 18 15.3047C18.1094 15.3047 18.2031 15.2109 18.2031 15.1016C18.2031 14.9922 18.1094 14.8984 18 14.8984Z" fill="#AB6C48"/>
<path fill-rule="evenodd" clip-rule="evenodd" d="M19.6875 17.7891C19.3906 17.7891 19.1484 18.0312 19.1484 18.3281C19.1484 18.625 19.3906 18.8672 19.6875 18.8672C19.9844 18.8672 20.2266 18.625 20.2266 18.3281C20.2266 18.0312 19.9844 17.7891 19.6875 17.7891Z" fill="#AB6C48"/>
<path fill-rule="evenodd" clip-rule="evenodd" d="M18.2266 20.4609C17.9297 20.4609 17.6875 20.7031 17.6875 21C17.6875 21.2969 17.9297 21.5391 18.2266 21.5391C18.5234 21.5391 18.7656 21.2969 18.7656 21C18.7656 20.7031 18.5234 20.4609 18.2266 20.4609Z" fill="#AB6C48"/>
<path fill-rule="evenodd" clip-rule="evenodd" d="M2.10156 12.5938C1.72656 12.5938 1.42188 12.8984 1.42188 13.2734C1.42188 13.6484 1.72656 13.9531 2.10156 13.9531C2.47656 13.9531 2.78125 13.6484 2.78125 13.2734C2.78125 12.8984 2.47656 12.5938 2.10156 12.5938Z" fill="#7B4720"/>
<path fill-rule="evenodd" clip-rule="evenodd" d="M2.57813 11.1953C2.5 11.1953 2.42969 11.2578 2.42969 11.3438C2.42969 11.4297 2.49219 11.4922 2.57813 11.4922C2.66406 11.4922 2.72656 11.4297 2.72656 11.3438C2.72656 11.2578 2.66406 11.1953 2.57813 11.1953Z" fill="#7B4720"/>
<path fill-rule="evenodd" clip-rule="evenodd" d="M5.13281 11.7891C4.79687 11.7891 4.51562 12.0625 4.51562 12.4063C4.51562 12.75 4.78906 13.0234 5.13281 13.0234C5.47656 13.0234 5.75 12.75 5.75 12.4063C5.75 12.0625 5.47656 11.7891 5.13281 11.7891Z" fill="#7B4720"/>
<path fill-rule="evenodd" clip-rule="evenodd" d="M7.92969 11.2578C7.59375 11.2578 7.32812 11.5313 7.32812 11.8594C7.32812 12.1875 7.60156 12.4609 7.92969 12.4609C8.25781 12.4609 8.53125 12.1875 8.53125 11.8594C8.53125 11.5313 8.25781 11.2578 7.92969 11.2578Z" fill="#7B4720"/>
<path fill-rule="evenodd" clip-rule="evenodd" d="M10.7422 11.6172C10.5938 11.6172 10.4688 11.7422 10.4688 11.8906C10.4688 12.0391 10.5938 12.1641 10.7422 12.1641C10.8906 12.1641 11.0156 12.0391 11.0156 11.8906C11.0156 11.7422 10.8906 11.6172 10.7422 11.6172Z" fill="#7B4720"/>
<path fill-rule="evenodd" clip-rule="evenodd" d="M13.75 11.1484C13.5469 11.1484 13.3828 11.3125 13.3828 11.5156C13.3828 11.7187 13.5469 11.8828 13.75 11.8828C13.9531 11.8828 14.1172 11.7187 14.1172 11.5156C14.1172 11.3125 13.9531 11.1484 13.75 11.1484Z" fill="#7B4720"/>
<path fill-rule="evenodd" clip-rule="evenodd" d="M14.7813 13.0312C14.3047 13.0312 13.9141 13.4219 13.9141 13.8984C13.9141 14.375 14.3047 14.7656 14.7813 14.7656C15.2578 14.7656 15.6484 14.375 15.6484 13.8984C15.6484 13.4219 15.2578 13.0312 14.7813 13.0312Z" fill="#7B4720"/>
<path fill-rule="evenodd" clip-rule="evenodd" d="M16.5078 11.9844C16.3984 11.9844 16.3125 12.0703 16.3125 12.1797C16.3125 12.2891 16.3984 12.375 16.5078 12.375C16.6172 12.375 16.7031 12.2891 16.7031 12.1797C16.7031 12.0703 16.6172 11.9844 16.5078 11.9844Z" fill="#7B4720"/>
<path fill-rule="evenodd" clip-rule="evenodd" d="M17.3125 16.0859C17.0234 16.0859 16.7891 16.3203 16.7891 16.6094C16.7891 16.8984 17.0234 17.1328 17.3125 17.1328C17.6016 17.1328 17.8359 16.8984 17.8359 16.6094C17.8359 16.3203 17.6016 16.0859 17.3125 16.0859Z" fill="#7B4720"/>
<path fill-rule="evenodd" clip-rule="evenodd" d="M15.4922 19.7344C15.1484 19.7344 14.8672 20.0156 14.8672 20.3594C14.8672 20.7031 15.1484 20.9844 15.4922 20.9844C15.8359 20.9844 16.1172 20.7031 16.1172 20.3594C16.1172 20.0156 15.8359 19.7344 15.4922 19.7344Z" fill="#7B4720"/>
<path d="M17.2812 19.0547C17.4236 19.0547 17.5391 18.9393 17.5391 18.7969C17.5391 18.6545 17.4236 18.5391 17.2812 18.5391C17.1389 18.5391 17.0234 18.6545 17.0234 18.7969C17.0234 18.9393 17.1389 19.0547 17.2812 19.0547Z" fill="#7B4720"/>
<path fill-rule="evenodd" clip-rule="evenodd" d="M15.8906 22.6094C15.6172 22.6094 15.3984 22.8281 15.3984 23.1016C15.3984 23.375 15.6172 23.5938 15.8906 23.5938C16.1641 23.5938 16.3828 23.375 16.3828 23.1016C16.3828 22.8281 16.1641 22.6094 15.8906 22.6094Z" fill="#7B4720"/>
<path fill-rule="evenodd" clip-rule="evenodd" d="M1.17188 15.1875C0.882813 15.1875 0.640625 15.4297 0.640625 15.7188C0.640625 16.0078 0.882813 16.25 1.17188 16.25C1.46094 16.25 1.70313 16.0078 1.70313 15.7188C1.70313 15.4297 1.46094 15.1875 1.17188 15.1875Z" fill="#8F5833"/>
<path fill-rule="evenodd" clip-rule="evenodd" d="M4.125 16.0156C3.86719 16.0156 3.65625 16.2266 3.65625 16.4844C3.65625 16.7422 3.86719 16.9531 4.125 16.9531C4.38281 16.9531 4.59375 16.7422 4.59375 16.4844C4.59375 16.2266 4.38281 16.0156 4.125 16.0156Z" fill="#8F5833"/>
<path fill-rule="evenodd" clip-rule="evenodd" d="M6.92969 13.5234C6.5625 13.5234 6.25781 13.8203 6.25781 14.1953C6.25781 14.5703 6.55469 14.8672 6.92969 14.8672C7.30469 14.8672 7.60156 14.5703 7.60156 14.1953C7.60156 13.8203 7.30469 13.5234 6.92969 13.5234Z" fill="#8F5833"/>
<path fill-rule="evenodd" clip-rule="evenodd" d="M11.9297 13.4297C11.4922 13.4297 11.1328 13.7891 11.1328 14.2266C11.1328 14.6641 11.4922 15.0234 11.9297 15.0234C12.3672 15.0234 12.7266 14.6641 12.7266 14.2266C12.7266 13.7891 12.3672 13.4297 11.9297 13.4297Z" fill="#8F5833"/>
<path fill-rule="evenodd" clip-rule="evenodd" d="M9.79687 15.3359C9.72656 15.3359 9.67188 15.3906 9.67188 15.4609C9.67188 15.5313 9.72656 15.5859 9.79687 15.5859C9.86719 15.5859 9.92187 15.5313 9.92187 15.4609C9.92187 15.3906 9.86719 15.3359 9.79687 15.3359Z" fill="#8F5833"/>
<path fill-rule="evenodd" clip-rule="evenodd" d="M13.8594 17.0234C13.5547 17.0234 13.3125 17.2734 13.3125 17.5703C13.3125 17.8672 13.5625 18.1172 13.8594 18.1172C14.1562 18.1172 14.4062 17.8672 14.4062 17.5703C14.4062 17.2734 14.1562 17.0234 13.8594 17.0234Z" fill="#8F5833"/>
<path fill-rule="evenodd" clip-rule="evenodd" d="M12.3516 20.2656C12.0703 20.2656 11.8516 20.4922 11.8516 20.7656C11.8516 21.0391 12.0781 21.2656 12.3516 21.2656C12.625 21.2656 12.8516 21.0391 12.8516 20.7656C12.8516 20.4922 12.625 20.2656 12.3516 20.2656Z" fill="#8F5833"/>
<path d="M13.9531 22.9687C14.1128 22.9687 14.2422 22.8393 14.2422 22.6797C14.2422 22.52 14.1128 22.3906 13.9531 22.3906C13.7935 22.3906 13.6641 22.52 13.6641 22.6797C13.6641 22.8393 13.7935 22.9687 13.9531 22.9687Z" fill="#8F5833"/>
<path d="M2.33594 19.5625C2.71132 19.5625 3.01562 19.2582 3.01562 18.8828C3.01562 18.5074 2.71132 18.2031 2.33594 18.2031C1.96056 18.2031 1.65625 18.5074 1.65625 18.8828C1.65625 19.2582 1.96056 19.5625 2.33594 19.5625Z" fill="#63391B"/>
<path d="M2.79688 22.7969C3.25424 22.7969 3.625 22.4261 3.625 21.9688C3.625 21.5114 3.25424 21.1406 2.79688 21.1406C2.33951 21.1406 1.96875 21.5114 1.96875 21.9688C1.96875 22.4261 2.33951 22.7969 2.79688 22.7969Z" fill="#63391B"/>
<path d="M9.02344 21.8594C9.32115 21.8594 9.5625 21.618 9.5625 21.3203C9.5625 21.0226 9.32115 20.7812 9.02344 20.7812C8.72572 20.7812 8.48438 21.0226 8.48438 21.3203C8.48438 21.618 8.72572 21.8594 9.02344 21.8594Z" fill="#63391B"/>
<path fill-rule="evenodd" clip-rule="evenodd" d="M10.9531 17.1719C10.6719 17.1719 10.4375 17.3984 10.4375 17.6875C10.4375 17.9766 10.6641 18.2031 10.9531 18.2031C11.2422 18.2031 11.4688 17.9766 11.4688 17.6875C11.4688 17.3984 11.2422 17.1719 10.9531 17.1719Z" fill="#63391B"/>
<path fill-rule="evenodd" clip-rule="evenodd" d="M5.95312 21.2266C5.84375 21.2266 5.75781 21.3125 5.75781 21.4219C5.75781 21.5313 5.84375 21.6172 5.95312 21.6172C6.0625 21.6172 6.14844 21.5313 6.14844 21.4219C6.14844 21.3125 6.0625 21.2266 5.95312 21.2266Z" fill="#63391B"/>
<path opacity="0.2" fill-rule="evenodd" clip-rule="evenodd" d="M0 5.28125C0 6.05469 0.625 6.6875 1.40625 6.6875C1.82031 6.6875 2.19531 6.50781 2.45313 6.21875C2.76563 6.71875 3.32031 7.04688 3.95313 7.04688C4.85938 7.04688 5.60938 6.35938 5.70313 5.48438C5.80469 6.27344 6.47656 6.89062 7.29688 6.89062C7.96875 6.89062 8.54688 6.47656 8.78906 5.88281C9.01563 6.35938 9.5 6.6875 10.0625 6.6875C10.6563 6.6875 11.1641 6.32031 11.3672 5.79688C11.5703 6.32031 12.0781 6.6875 12.6719 6.6875C13.0859 6.6875 13.4609 6.50781 13.7188 6.21875C14.0313 6.71875 14.5859 7.04688 15.2188 7.04688C16.125 7.04688 16.875 6.35938 16.9688 5.48438C17.0703 6.27344 17.7422 6.89062 18.5625 6.89062C19.2344 6.89062 19.8125 6.47656 20.0547 5.88281C20.2813 6.35938 20.7656 6.6875 21.3203 6.6875C21.5547 6.6875 21.7734 6.63281 21.9688 6.53125V0.757813L0 0.601562V5.28906V5.28125Z" fill="black"/>
<path fill-rule="evenodd" clip-rule="evenodd" d="M22.1875 0H0V4.6875C0 5.46094 0.625 6.09375 1.40625 6.09375C1.82031 6.09375 2.19531 5.91406 2.45313 5.625C2.76563 6.125 3.32031 6.45313 3.95312 6.45313C4.85937 6.45313 5.60938 5.76563 5.70313 4.89063C5.80469 5.67969 6.47656 6.29688 7.29688 6.29688C7.96875 6.29688 8.54687 5.88281 8.78906 5.28906C9.01562 5.76563 9.5 6.09375 10.0625 6.09375C10.6563 6.09375 11.1641 5.72656 11.3672 5.20313C11.5703 5.72656 12.0781 6.09375 12.6719 6.09375C13.0859 6.09375 13.4609 5.91406 13.7187 5.625C14.0312 6.125 14.5859 6.45313 15.2187 6.45313C16.125 6.45313 16.875 5.76563 16.9687 4.89063C17.0703 5.67969 17.7422 6.29688 18.5625 6.29688C19.2344 6.29688 19.8125 5.88281 20.0547 5.28906C20.2813 5.76563 20.7656 6.09375 21.3203 6.09375C21.7891 6.09375 22.2031 5.86719 22.4531 5.51563C22.6094 5.625 22.8047 5.6875 23.0078 5.6875C23.5547 5.6875 24 5.24219 24 4.69531C23.3984 3.13281 23.1016 0.609375 22.1875 0.0078125V0Z" fill="#6FA024"/>
<path fill-rule="evenodd" clip-rule="evenodd" d="M22.1875 -3.49246e-10H0V3.67969C0 4.10938 0.351562 4.46094 0.78125 4.46094C0.945312 4.46094 1.09375 4.41406 1.21875 4.32812C1.42187 4.60156 1.74219 4.78125 2.10938 4.78125C2.54688 4.78125 2.92969 4.52344 3.10938 4.14844C3.29688 4.60937 3.75 4.9375 4.28125 4.9375C4.92188 4.9375 5.45312 4.45312 5.53125 3.83594C5.60937 4.52344 6.19531 5.0625 6.90625 5.0625C7.39844 5.0625 7.83594 4.80469 8.08594 4.40625C8.28906 4.63281 8.57812 4.77344 8.90625 4.77344C9.375 4.77344 9.77344 4.48437 9.92969 4.07812C10.0938 4.48437 10.4922 4.77344 10.9531 4.77344C11.3906 4.77344 11.7734 4.51563 11.9531 4.14063C12.1406 4.60156 12.5937 4.92969 13.125 4.92969C13.7656 4.92969 14.2969 4.44531 14.375 3.82813C14.4531 4.51563 15.0391 5.05469 15.75 5.05469C16.25 5.05469 16.6797 4.79688 16.9297 4.39844C17.1328 4.625 17.4297 4.76562 17.75 4.76562C18.3594 4.76562 18.8516 4.27344 18.8516 3.66406C18.8516 4.27344 19.3438 4.76562 19.9531 4.76562C20.2813 4.76562 20.5781 4.625 20.7734 4.39844C21.0156 4.78906 21.3438 5.05469 21.9531 5.05469C22.5625 5.05469 22.5938 4.66406 22.6719 3.96875C22.7266 4.38281 23.3047 5.23437 23.9922 4.78125C23.9922 2.92969 23.9922 -0.015625 22.1797 -0.015625L22.1875 -3.49246e-10Z" fill="#B2CF2A"/>
<path fill-rule="evenodd" clip-rule="evenodd" d="M22.1875 0H0V1.47656H22.1875C22.6172 1.47656 22.9375 1.64063 23.1875 1.91406C23.7109 2.48438 23.8906 3.53125 23.9609 4.58594C23.9766 4.61719 23.9844 4.64844 24 4.6875C24 2.82812 23.9609 0 22.1875 0Z" fill="#C5DD5C"/>
</g>
<defs>
<clipPath id="clip0_44_146754">
<rect width="24" height="24" fill="white"/>
</clipPath>
</defs>
</svg>
