<svg width="24" height="24" viewBox="0 0 24 24" fill="none" xmlns="http://www.w3.org/2000/svg">
<mask id="mask0_44_148545" style="mask-type:luminance" maskUnits="userSpaceOnUse" x="0" y="0" width="24" height="24">
<path d="M24 0H0V24H24V0Z" fill="white"/>
</mask>
<g mask="url(#mask0_44_148545)">
<path fill-rule="evenodd" clip-rule="evenodd" d="M16.125 19.8683C16.5525 19.7258 17.0399 19.4783 17.6099 19.1258C16.7999 17.8733 15.945 17.3333 15.1575 17.2883C15.4575 16.9958 15.765 16.5983 16.1025 16.0658C15.135 15.4508 14.3325 15.2558 13.7025 15.3533C13.9275 15.1058 14.1675 14.7908 14.4225 14.3933C13.545 13.8383 12.8249 13.6658 12.2624 13.7633C12.5924 13.2083 12.8475 12.4283 13.05 11.3708C11.3775 11.0483 10.1999 11.2508 9.44995 11.7758C9.47245 11.3708 9.44995 10.8983 9.38995 10.3433C8.47495 10.4483 7.78495 10.6808 7.28995 10.9958C7.03495 10.3358 6.45745 9.60828 5.51245 8.73828C4.80745 9.50328 4.36495 10.2158 4.13995 10.8683C3.66745 10.6208 3.05245 10.4333 2.26495 10.3433C2.18995 10.9958 2.17495 11.5283 2.22745 11.9783C1.49245 11.3033 0.247451 11.0108 -1.62755 11.3708C-1.42505 12.4283 -1.17005 13.2083 -0.84005 13.7633C-1.40255 13.6733 -2.12255 13.8383 -3.00005 14.3933C-2.94005 14.4908 -2.88005 14.5808 -2.82005 14.6633C-3.60755 14.5733 -4.59005 14.8358 -5.76755 15.5783C-5.10005 16.6358 -4.50755 17.2958 -3.91505 17.6183C-4.54505 17.7908 -5.20505 18.3158 -5.82755 19.3208C-5.66255 19.4258 -5.49755 19.5233 -5.34755 19.6058H-5.33255V19.6133H-5.32505L-5.31755 19.6208L-5.30255 19.6283H-5.28755L-5.27255 19.6433H-5.25755V19.6508H-5.25005L-5.24255 19.6583H-5.22755H-5.21255L-5.19755 19.6658L-5.19005 19.6733H-5.18255H-5.17505H-5.16755V19.6808L-5.16005 19.6883H-5.15255H-5.14505H-5.13755H-5.13005L-5.12255 19.6958H-5.11505H-5.10755H-5.10005L-5.09255 19.7033H-5.08505H-5.07755H-5.07005V19.7108H-5.06255L-5.04755 19.7183H-5.04005H-5.03255H-5.02505V19.7258H-5.01755H-5.01005H-5.00255H-4.99505H-4.98755H-4.98005H-4.97255H-4.96505H-4.95755H-4.95005H-4.94255H-4.93505H-4.92755H-4.92005C-5.55755 19.8908 -6.22505 20.4158 -6.86255 21.4358C-6.29255 21.7958 -5.80505 22.0283 -5.38505 22.1558C-5.80505 22.3433 -6.23255 22.7333 -6.64505 23.4008C-6.30755 23.6108 -6.01505 23.7683 -5.75255 23.8733C-5.94005 24.0683 -6.12005 24.3083 -6.30755 24.5933L-6.29255 24.6083H-6.27755V24.6158H-6.26255L-6.24755 24.6383L-6.23255 24.6533H-6.21755V24.6608H-6.20255L-6.19505 24.6758L-6.18005 24.6908H-6.17255L-6.16505 24.6983H-6.15005V24.7133H-6.14255L-6.12755 24.7283L-6.11255 24.7358H-6.09755V24.7508H-6.08255L-6.06755 24.7658L-6.05255 24.7733H-6.03755V24.7808H-6.02255L-6.00755 24.7958L-5.99255 24.8033H-5.97755V24.8108H-5.96255L-5.94755 24.8258L-5.93255 24.8333H-5.92505V24.8408H-5.91005L-5.90255 24.8558L-5.88755 24.8708H-5.88005L-5.87255 24.8783H-5.85755V24.8858H-5.85005L-5.83505 24.9008L-5.82755 24.9083H-5.81255V24.9158H-5.79755L-5.78255 24.9308H-5.76755H-5.75255V24.9383H-5.73755L-5.72255 24.9533L-5.70755 24.9608H-5.69255H-5.67755L-5.67005 24.9758L-5.65505 24.9833H-5.64755H-5.63255L-5.62505 24.9908L-5.61005 24.9983H-5.60255H-5.58755V25.0058H-5.58005L-5.56505 25.0133H-5.55755H-5.54255H-5.52755L-5.51255 25.0208H-5.49755H-5.48255H-5.46755L-5.45255 25.0283H-5.43755C-5.60255 25.3208 -5.71505 25.6583 -5.77505 26.0558C-5.07005 26.0483 -4.50755 25.9133 -4.16255 25.6583C-4.17005 26.0558 -4.07255 26.4683 -3.89255 26.8508C-3.37505 26.4983 -2.97005 26.1533 -2.74505 25.8158C-2.55755 26.3483 -1.97255 26.8883 -1.14755 27.4583C-1.01255 27.1658 -0.915049 26.8583 -0.862549 26.5508C-0.592549 26.5133 -0.367549 26.4458 -0.180049 26.3558C-0.180049 26.4383 -0.180049 26.5133 -0.180049 26.5958C0.524951 26.5883 1.05745 26.4533 1.36495 26.1983C1.42495 26.5958 1.58995 27.0083 1.83745 27.3908C2.21245 27.1058 2.50495 26.8208 2.69995 26.5433C3.09745 26.4833 3.41245 26.3633 3.62245 26.1983C3.68245 26.5958 3.84745 27.0083 4.09495 27.3908C4.34995 27.1958 4.57495 27.0008 4.74745 26.8058C4.91995 27.0008 5.14495 27.1958 5.39995 27.3908C5.63995 27.0083 5.81245 26.5958 5.87245 26.1983C6.14245 26.4233 6.60745 26.5508 7.20745 26.5883C7.41745 26.9633 7.71745 27.3008 8.06245 27.5783C8.48995 26.8208 8.75995 26.1608 8.78245 25.6358C8.97745 26.0258 9.41995 26.4233 10.0275 26.8433C10.2075 26.4683 10.305 26.0483 10.2975 25.6508C10.545 25.8308 10.905 25.9508 11.3475 26.0108C11.3475 26.4908 11.46 26.9933 11.6775 27.4508C12.51 26.8883 13.095 26.3408 13.2825 25.8083C13.5075 26.1458 13.9125 26.4833 14.43 26.8433C14.61 26.4683 14.7074 26.0483 14.6999 25.6508C15.0449 25.8983 15.6075 26.0333 16.3125 26.0483C16.26 25.6583 16.1475 25.3208 15.99 25.0358H16.005H16.0124L16.0275 25.0283H16.035H16.05H16.0575L16.0725 25.0208H16.0875H16.1025H16.1175L16.1324 25.0133H16.1474H16.1625H16.1775L16.1925 24.9983H16.2075L16.2225 24.9833H16.2375L16.2524 24.9683L16.2674 24.9608H16.2825H16.2975L16.3125 24.9458L16.3275 24.9383H16.3425H16.3575L16.3725 24.9233L16.3874 24.9158H16.4025V24.9083H16.4175L16.425 24.8933L16.4399 24.8858H16.4475V24.8783H16.4625L16.47 24.8633L16.485 24.8483H16.4925V24.8408H16.5074L16.515 24.8258H16.5224L16.5375 24.8108H16.545L16.5525 24.8033H16.5675L16.5749 24.7883H16.5825L16.5975 24.7733L16.605 24.7658H16.62V24.7508H16.6274L16.6424 24.7358L16.6575 24.7283H16.6725V24.7133H16.6875L16.7025 24.6983L16.7175 24.6908H16.7325V24.6758H16.7475L16.7624 24.6533L16.7775 24.6458H16.8V24.6308H16.8149L16.8299 24.6083L16.845 24.6008L16.8675 24.5858L16.8824 24.5708L16.905 24.5558C16.725 24.2633 16.5375 24.0233 16.3575 23.8358C16.62 23.7308 16.92 23.5733 17.25 23.3633C16.8375 22.7033 16.41 22.3058 15.99 22.1183C16.41 21.9983 16.89 21.7583 17.4675 21.3983C16.875 20.4533 16.26 19.9283 15.6675 19.7333L16.125 19.8683ZM0.56995 25.3508L0.554952 25.3283H0.592452L0.56995 25.3508ZM1.88245 25.3808C1.88245 25.3808 1.86745 25.3433 1.85245 25.3208H1.91995C1.91995 25.3208 1.88995 25.3583 1.88245 25.3808ZM4.13245 25.3808C4.13245 25.3808 4.11745 25.3433 4.10245 25.3208H4.16995C4.16995 25.3208 4.13995 25.3583 4.13245 25.3808ZM6.03745 25.3808C6.03745 25.3808 6.01495 25.3433 5.99995 25.3208H6.06745C6.06745 25.3208 6.05245 25.3583 6.03745 25.3808Z" fill="#5B661B"/>
<path fill-rule="evenodd" clip-rule="evenodd" d="M4.74004 19.3274C5.19004 19.1699 5.70754 18.9149 6.30754 18.5399C5.45254 17.2124 4.54504 16.6424 3.70504 16.5974C4.02004 16.2899 4.35004 15.8624 4.71004 15.3074C3.68254 14.6549 2.83504 14.4524 2.16754 14.5499C2.40754 14.2949 2.66254 13.9574 2.92504 13.5374C2.00254 12.9524 1.23754 12.7724 0.637538 12.8699C0.990038 12.2774 1.26004 11.4524 1.47754 10.3349C-0.292459 9.98992 -1.53746 10.2074 -2.33996 10.7624C-2.30996 10.3349 -2.33996 9.83242 -2.39996 9.24742C-3.36746 9.35992 -4.10246 9.59992 -4.61996 9.93742C-4.88996 9.23242 -5.49746 8.46742 -6.50246 7.54492C-7.25246 8.35492 -7.71746 9.11242 -7.94996 9.80242C-8.45246 9.53992 -9.10496 9.34492 -9.92996 9.24742C-10.005 9.93742 -10.02 10.5074 -9.97496 10.9799C-10.755 10.2674 -12.075 9.95242 -14.055 10.3349C-13.8375 11.4524 -13.5675 12.2774 -13.215 12.8699C-13.815 12.7724 -14.58 12.9524 -15.5025 13.5374C-15.4425 13.6349 -15.375 13.7324 -15.315 13.8224C-16.1475 13.7324 -17.19 14.0024 -18.435 14.7899C-17.7225 15.9149 -17.1 16.6049 -16.47 16.9574C-17.1375 17.1374 -17.835 17.6924 -18.495 18.7574C-18.315 18.8699 -18.15 18.9674 -17.985 19.0574H-17.97V19.0649H-17.9625L-17.955 19.0724L-17.94 19.0799H-17.925L-17.91 19.0949H-17.9025H-17.8875V19.1024H-17.88L-17.8725 19.1099H-17.8575H-17.8425L-17.8275 19.1174L-17.8125 19.1249H-17.805H-17.7975H-17.7825V19.1324L-17.7675 19.1399H-17.76H-17.7525H-17.7375V19.1474L-17.73 19.1549H-17.715H-17.7H-17.6925L-17.685 19.1624H-17.67H-17.655H-17.6475V19.1699H-17.6325L-17.6175 19.1774H-17.6025H-17.595H-17.5875V19.1849H-17.5725H-17.565H-17.5575H-17.55H-17.5425H-17.535H-17.5275H-17.52H-17.5125H-17.505H-17.4975H-17.49H-17.4825H-17.475H-17.4675C-18.1425 19.3649 -18.8475 19.9199 -19.5225 20.9999C-18.915 21.3749 -18.405 21.6299 -17.9625 21.7574C-18.405 21.9524 -18.8625 22.3724 -19.2975 23.0774C-18.945 23.2949 -18.63 23.4599 -18.3525 23.5724C-18.5475 23.7749 -18.7425 24.0299 -18.9375 24.3374L-18.915 24.3524H-18.9V24.3674L-18.8775 24.3824H-18.8625V24.3974L-18.8475 24.4124H-18.8325V24.4199L-18.81 24.4349H-18.795V24.4424H-18.78L-18.7725 24.4574H-18.765L-18.7425 24.4724H-18.735L-18.7275 24.4799H-18.7125V24.4949H-18.6975L-18.6825 24.5099L-18.6675 24.5174H-18.6525V24.5324H-18.6375L-18.6225 24.5474L-18.6075 24.5549H-18.5925V24.5624H-18.5775L-18.5625 24.5774L-18.5475 24.5849H-18.5325V24.5924H-18.5175L-18.5025 24.6074L-18.4875 24.6224H-18.48V24.6299H-18.465L-18.4575 24.6449H-18.45L-18.435 24.6599L-18.4275 24.6674H-18.4125V24.6749H-18.3975L-18.3825 24.6899L-18.3675 24.6974H-18.3525V24.7049H-18.3375L-18.3225 24.7199H-18.3075L-18.2925 24.7349L-18.2775 24.7424H-18.2625H-18.2475L-18.2325 24.7574L-18.2175 24.7649H-18.21H-18.195L-18.1875 24.7724L-18.1725 24.7799H-18.165H-18.15V24.7874H-18.1425L-18.1275 24.7949H-18.1125H-18.0975H-18.0825L-18.0675 24.8024H-18.0525H-18.0375H-18.0225L-18.0075 24.8099H-17.9925C-18.1725 25.1174 -18.285 25.4774 -18.345 25.8974C-17.6025 25.8899 -17.0025 25.7474 -16.6425 25.4774C-16.65 25.8974 -16.545 26.3399 -16.3575 26.7374C-15.81 26.3624 -15.3825 26.0024 -15.1425 25.6424C-14.9475 26.2049 -14.325 26.7824 -13.4475 27.3749C-13.305 27.0674 -13.2 26.7449 -13.14 26.4149C-12.855 26.3699 -12.615 26.3024 -12.42 26.2049C-12.42 26.2874 -12.42 26.3774 -12.42 26.4599C-11.6775 26.4449 -11.1075 26.3099 -10.785 26.0399C-10.725 26.4599 -10.545 26.9024 -10.2825 27.2999C-9.88496 26.9924 -9.56996 26.6999 -9.37496 26.4074C-8.94746 26.3399 -8.61746 26.2199 -8.39996 26.0399C-8.33996 26.4599 -8.15996 26.9024 -7.89746 27.2999C-7.62746 27.0899 -7.39496 26.8874 -7.20746 26.6774C-7.01996 26.8799 -6.78746 27.0899 -6.51746 27.2999C-6.26246 26.8949 -6.08246 26.4524 -6.01496 26.0399C-5.72996 26.2799 -5.24246 26.4149 -4.60496 26.4524C-4.38746 26.8499 -4.06496 27.2099 -3.69746 27.5024C-3.24746 26.6999 -2.96246 26.0024 -2.93996 25.4474C-2.73746 25.8599 -2.26496 26.2874 -1.61996 26.7224C-1.43246 26.3174 -1.32746 25.8749 -1.33496 25.4624C-1.07246 25.6499 -0.68996 25.7774 -0.22496 25.8374C-0.23246 26.3474 -0.104962 26.8799 0.127538 27.3674C1.00504 26.7674 1.62754 26.1974 1.82254 25.6349C2.06254 25.9874 2.49004 26.3549 3.03754 26.7299C3.22504 26.3249 3.33004 25.8824 3.32254 25.4699C3.69004 25.7324 4.28254 25.8749 5.02504 25.8899C4.96504 25.4774 4.85254 25.1249 4.68004 24.8174H4.69504H4.70254L4.71754 24.8099H4.72504H4.74004H4.75504L4.77004 24.8024H4.78504H4.80004H4.81504L4.83004 24.7949H4.84504H4.86004H4.87504L4.89004 24.7799H4.90504L4.92004 24.7649H4.93504L4.95004 24.7499L4.96504 24.7424H4.98004H4.99504L5.01004 24.7274L5.02504 24.7199H5.04004V24.7124H5.05504L5.07004 24.6974L5.08504 24.6899H5.10004V24.6824H5.11504L5.13004 24.6674L5.14504 24.6524H5.16004V24.6449H5.17504L5.18254 24.6299L5.19754 24.6149H5.20504L5.21254 24.6074H5.22754L5.23504 24.5924H5.24254L5.25754 24.5774H5.26504L5.27254 24.5699H5.28754L5.29504 24.5549H5.30254L5.32504 24.5399L5.33254 24.5324H5.34754V24.5174H5.36254L5.37754 24.5024L5.39254 24.4949H5.41504V24.4799H5.43004L5.45254 24.4574L5.46754 24.4499L5.49004 24.4349L5.50504 24.4274L5.52754 24.4124L5.54254 24.3974L5.56504 24.3824L5.58004 24.3674L5.60254 24.3524L5.61754 24.3374L5.64004 24.3224L5.66254 24.3074L5.68504 24.2924C5.49004 23.9849 5.29504 23.7299 5.10004 23.5274C5.37754 23.4149 5.69254 23.2499 6.04504 23.0324C5.61004 22.3349 5.15254 21.9149 4.71004 21.7124C5.15254 21.5849 5.66254 21.3299 6.27004 20.9549C5.64754 19.9499 4.99504 19.4024 4.36504 19.1849L4.74004 19.3274ZM-11.7375 25.1324L-11.7525 25.1024H-11.715L-11.7375 25.1324ZM-10.3425 25.1699C-10.3425 25.1699 -10.3575 25.1249 -10.3725 25.1099H-10.305C-10.305 25.1099 -10.335 25.1474 -10.35 25.1699H-10.3425ZM-7.95746 25.1699C-7.95746 25.1699 -7.97246 25.1249 -7.98746 25.1099H-7.91996C-7.91996 25.1099 -7.94996 25.1474 -7.96496 25.1699H-7.95746ZM-5.93996 25.1699C-5.93996 25.1699 -5.96996 25.1249 -5.98496 25.1099H-5.91746C-5.91746 25.1099 -5.93996 25.1549 -5.94746 25.1699H-5.93996Z" fill="#5B661B"/>
<path fill-rule="evenodd" clip-rule="evenodd" d="M13.0274 14.2726H13.0424H13.0574H13.0649H13.0724H13.0874L13.1024 14.2651H13.1174H13.1249H13.1399H13.1474L13.1549 14.2576H13.1699H13.1849H13.1924L13.1999 14.2501H13.2149H13.2224H13.2374H13.2524V14.2426L13.2674 14.2351L13.2899 14.2276H13.3049H13.3199L13.3349 14.2126H13.3424H13.3574V14.2051H13.3649L13.3724 14.1976L13.3874 14.1901H13.4024H13.4174L13.4249 14.1826L13.4399 14.1751H13.4474H13.4549H13.4699V14.1676L13.4849 14.1601H13.4999H13.5074H13.5224V14.1526H13.5449V14.1451L13.5599 14.1376H13.5674H13.5824V14.1301H13.5974L13.6049 14.1151L13.6199 14.1076L13.6274 14.1001H13.6424L13.6574 14.0851H13.6649H13.6799V14.0776H13.6874L13.6949 14.0626L13.7099 14.0551C13.8899 13.9576 14.0774 13.8451 14.2799 13.7176C13.5449 12.5326 12.7649 11.9101 12.0224 11.7151C12.7199 11.3251 13.4174 10.5526 14.2049 9.30762C12.8174 8.43012 11.6624 8.12262 10.7324 8.22762C10.7999 8.13012 10.8674 8.01762 10.9424 7.91262C9.91493 7.26012 9.06743 7.05762 8.39993 7.17012C8.78993 6.51012 9.08993 5.59512 9.32993 4.35012C7.12493 3.92262 5.65493 4.27512 4.79243 5.06262C4.84493 4.53762 4.82993 3.90762 4.74743 3.13512C3.82493 3.24012 3.09743 3.45762 2.54243 3.75012C2.27993 2.98512 1.76243 2.14512 0.929933 1.24512C-0.187567 2.27262 -0.862568 3.12762 -1.16257 3.90762C-1.74757 3.53262 -2.55757 3.26262 -3.63757 3.13512C-3.71257 3.78762 -3.73507 4.35012 -3.70507 4.82262C-4.59757 4.20012 -5.97757 3.96012 -7.95007 4.34262C-7.71007 5.58762 -7.41007 6.50262 -7.02007 7.16262C-7.68757 7.05012 -8.53507 7.25262 -9.56257 7.90512C-9.26257 8.37012 -8.98507 8.74512 -8.71507 9.03762C-9.45757 8.92512 -10.4026 9.15762 -11.5426 9.87762C-11.1451 10.5001 -10.7851 10.9726 -10.4251 11.3176C-11.3551 11.3701 -12.3601 12.0076 -13.3201 13.4776C-12.6526 13.8976 -12.0751 14.1826 -11.5726 14.3551C-12.2701 14.5951 -13.0051 15.2026 -13.6951 16.3201C-13.0201 16.7401 -12.4501 17.0176 -11.9551 17.1676C-12.4501 17.3851 -12.9526 17.8501 -13.4401 18.6301C-13.0426 18.8776 -12.6976 19.0576 -12.3826 19.1851C-12.6001 19.4101 -12.8176 19.6951 -13.0351 20.0401L-13.0126 20.0551L-12.9901 20.0701L-12.9676 20.0851L-12.9451 20.1001L-12.9226 20.1151L-12.9001 20.1301L-12.8776 20.1451H-12.8626V20.1601L-12.8401 20.1751H-12.8251V20.1901L-12.8026 20.2051H-12.7876V20.2201L-12.7651 20.2351H-12.7501V20.2501L-12.7276 20.2651H-12.7126V20.2801L-12.6901 20.2951H-12.6751V20.3101H-12.6526L-12.6376 20.3251H-12.6301L-12.6076 20.3401H-12.6001L-12.5926 20.3551H-12.5701L-12.5626 20.3701H-12.5551L-12.5326 20.3851H-12.5251L-12.5176 20.3926H-12.4951L-12.4876 20.4076H-12.4801L-12.4576 20.4226H-12.4501L-12.4351 20.4301H-12.4126V20.4451H-12.3976L-12.3751 20.4601L-12.3601 20.4676H-12.3376V20.4826H-12.3226L-12.3001 20.4976L-12.2851 20.5051H-12.2701V20.5126H-12.2551L-12.2326 20.5276L-12.2176 20.5351H-12.2026V20.5426H-12.1876L-12.1726 20.5576L-12.1576 20.5651H-12.1426L-12.1276 20.5801H-12.1126V20.5876H-12.0976L-12.0826 20.6026L-12.0676 20.6101H-12.0526H-12.0376L-12.0226 20.6251L-12.0076 20.6326H-11.9926H-11.9776L-11.9626 20.6476H-11.9476H-11.9326H-11.9176L-11.9026 20.6551H-11.8876C-12.0826 20.9926 -12.2026 21.3901 -12.2701 21.8476C-11.4376 21.8326 -10.7776 21.6751 -10.3726 21.3826C-10.3876 21.8476 -10.2676 22.3426 -10.0576 22.7851C-9.45007 22.3651 -8.97007 21.9676 -8.70757 21.5701C-8.49007 22.1926 -7.80007 22.8376 -6.81757 23.5051C-6.56257 22.9651 -6.42007 22.3726 -6.42757 21.8026C-5.90257 21.7351 -5.48257 21.5926 -5.19007 21.3826C-5.20507 21.8476 -5.08507 22.3426 -4.87507 22.7851C-4.16257 22.2976 -3.63007 21.8251 -3.40507 21.3676C-3.38257 21.9826 -3.06007 22.7626 -2.55757 23.6551C-2.14507 23.3251 -1.79257 22.9276 -1.54507 22.4851C-0.840068 22.4476 -0.292569 22.2901 0.0224309 22.0276C0.0899309 22.4926 0.292432 22.9876 0.577432 23.4301C0.877432 23.1976 1.13993 22.9651 1.34243 22.7401C1.54493 22.9651 1.80743 23.1976 2.10743 23.4301C2.39243 22.9801 2.59493 22.4926 2.66243 22.0276C2.90243 22.2301 3.27743 22.3651 3.74993 22.4326C3.97493 22.7551 4.31993 23.0926 4.76243 23.4301C5.04743 22.9801 5.24993 22.4926 5.31743 22.0276C5.66993 22.3201 6.30743 22.4776 7.13243 22.4926C7.13243 22.3951 7.13243 22.2976 7.13243 22.2076C7.34993 22.3126 7.61993 22.3876 7.93493 22.4401C7.99493 22.8001 8.11493 23.1676 8.27243 23.5051C9.24743 22.8376 9.93743 22.2001 10.1624 21.5701C10.4249 21.9676 10.9049 22.3726 11.5124 22.7851C11.7224 22.3351 11.8424 21.8476 11.8274 21.3826C12.2324 21.6751 12.8924 21.8326 13.7249 21.8476C13.6574 21.3826 13.5299 20.9776 13.3349 20.6401H13.3499H13.3649L13.3799 20.6326H13.3949H13.4099H13.4249L13.4399 20.6176L13.4549 20.6101H13.4699H13.4849L13.4924 20.5951L13.5074 20.5876H13.5149H13.5224H13.5374L13.5449 20.5801H13.5524L13.5674 20.5651H13.5749H13.5899V20.5576H13.6049L13.6199 20.5426L13.6349 20.5351H13.6499V20.5276H13.6649L13.6799 20.5126L13.6949 20.5051H13.7099V20.4976H13.7249L13.7399 20.4826L13.7624 20.4751H13.7774V20.4676H13.7924L13.7999 20.4526H13.8074L13.8299 20.4376H13.8374L13.8449 20.4301H13.8674L13.8749 20.4151H13.8824L13.9049 20.4001L13.9199 20.3926H13.9349V20.3776H13.9499L13.9724 20.3626L13.9874 20.3551H14.0099V20.3476H14.0324L14.0474 20.3251L14.0699 20.3101H14.0849V20.3026L14.1074 20.2876H14.1224V20.2726L14.1449 20.2576H14.1599V20.2426L14.1824 20.2276H14.1974L14.2049 20.2126L14.2274 20.1976H14.2349L14.2424 20.1826L14.2649 20.1676H14.2724L14.2874 20.1526L14.3099 20.1376L14.3249 20.1226L14.3474 20.1076L14.3624 20.0926L14.3849 20.0776L14.4074 20.0626L14.4299 20.0476C14.2199 19.7026 14.0024 19.4251 13.7774 19.1926C14.0924 19.0651 14.4374 18.8851 14.8349 18.6376C14.3474 17.8576 13.8449 17.3926 13.3499 17.1751C13.8449 17.0326 14.4149 16.7551 15.0899 16.3276C14.3399 15.1276 13.5524 14.5051 12.8024 14.3101L13.0274 14.2726ZM0.352433 20.8201C0.352433 20.8201 0.329932 20.7751 0.322432 20.7526H0.404932C0.404932 20.7526 0.374931 20.7976 0.359931 20.8201H0.352433ZM2.59493 20.8201C2.59493 20.8201 2.56493 20.7751 2.54993 20.7526H2.63243C2.63243 20.7526 2.60993 20.7976 2.60243 20.8201H2.59493ZM5.24993 20.8201C5.24993 20.8201 5.21993 20.7751 5.20493 20.7526H5.28743C5.28743 20.7526 5.26493 20.7976 5.25743 20.8201H5.24993ZM6.80243 20.7826L6.77993 20.7526H6.81743L6.80243 20.7826Z" fill="#5B661B"/>
<path fill-rule="evenodd" clip-rule="evenodd" d="M7.44004 25.597L6.50254 23.212L7.44004 20.3245L5.62504 23.212L5.81254 25.537L2.80504 26.4745L2.05504 27.1645L2.55754 23.0245L-0.952461 20.767L-1.13996 16.252L-1.95746 20.077L-3.46496 19.1995L-4.52996 17.0695L-4.15496 20.077L0.360038 23.3395L0.112539 25.0945L-2.14496 23.152L-0.329961 26.0995L-0.704961 27.727L-3.77996 26.0995L-6.53996 25.657L-7.97996 22.957L-7.60496 25.717L-11.2425 24.5845L-11.3025 22.072L-10.17 20.8795L-9.98246 17.8045L-10.7325 20.317L-12.675 22.1395L-12.7725 25.432L-6.96746 27.7195L-4.20746 28.282L-2.70746 30.082C-1.78496 39.7195 -2.16746 42.832 -3.45746 46.087C-3.91496 46.387 -4.14746 46.882 -4.77746 47.0995C-5.42996 47.3245 -6.48746 47.272 -7.00496 47.9845H10.4625C9.66754 46.7995 8.15254 46.8445 7.07254 46.4395C6.15004 46.0945 5.66254 45.217 4.76254 45.082C3.53254 43.0045 2.08504 38.917 2.84254 30.082L3.63754 27.907L11.475 25.6495L13.29 20.377L10.9725 24.6445L7.46254 25.582L7.44004 25.597Z" fill="#AD703E"/>
<path fill-rule="evenodd" clip-rule="evenodd" d="M4.5525 26.8354L3.03 27.9004L2.8125 30.0979L3.615 27.9229L11.4525 25.6654L12.36 23.0254L10.8675 25.4404L4.5525 26.8354Z" fill="#935E36"/>
<path fill-rule="evenodd" clip-rule="evenodd" d="M7.94249 26.3851L4.59749 27.2551L3.61499 27.9226L11.4525 25.6651L12.0525 23.9326L11.1225 25.5451L7.94249 26.3851Z" fill="#935E36"/>
<path fill-rule="evenodd" clip-rule="evenodd" d="M-0.337657 26.0998L-0.712657 27.7348L-0.0751572 28.9198L0.284844 26.2048L-2.16016 23.1523L-0.337657 26.0998Z" fill="#935E36"/>
<path fill-rule="evenodd" clip-rule="evenodd" d="M-4.54492 17.0703L-4.16992 20.0778L0.352579 23.3403L0.0975785 25.0953L0.532577 25.7703L1.29008 23.1303L-3.79492 19.6653L-4.54492 17.0703Z" fill="#935E36"/>
<path fill-rule="evenodd" clip-rule="evenodd" d="M5.80506 25.5379L4.93506 25.8079L6.36756 25.7704L5.61756 23.2129L5.80506 25.5379Z" fill="#935E36"/>
<path fill-rule="evenodd" clip-rule="evenodd" d="M-4.32764 18.7725L-4.17014 20.0775L0.352365 23.34L0.0973644 25.095L0.802363 23.1675L-3.94514 19.965L-4.32764 18.7725Z" fill="#7A4D2E"/>
<path fill-rule="evenodd" clip-rule="evenodd" d="M-1.15497 16.252L-1.46997 20.707L1.98003 23.2495L2.04003 27.1645L2.54253 23.0245L-0.967472 20.767L-1.15497 16.252Z" fill="#BF7E4C"/>
<path fill-rule="evenodd" clip-rule="evenodd" d="M7.43994 25.5977L6.87744 24.1877L7.18494 25.9127L10.9499 25.0802L12.5099 21.8027L10.9499 24.6602L7.43994 25.5977Z" fill="#BF7E4C"/>
<path fill-rule="evenodd" clip-rule="evenodd" d="M2.30997 23.1676L2.35497 24.6301L2.54247 23.0251L-0.967529 20.7676L2.30997 23.1676Z" fill="#C88C63"/>
<path fill-rule="evenodd" clip-rule="evenodd" d="M10.1326 25.4323L11.3626 25.0423L11.9026 23.5273L11.3251 24.8023L10.1326 25.4323Z" fill="#935E36"/>
<path fill-rule="evenodd" clip-rule="evenodd" d="M-1.41753 19.2676L-1.53003 21.0151L0.50247 22.3801L-1.32753 20.9626L-1.41753 19.2676Z" fill="#935E36"/>
<path fill-rule="evenodd" clip-rule="evenodd" d="M22.1325 16.3424C22.5525 16.1999 23.025 15.9599 23.58 15.6149C22.785 14.3924 21.96 13.8674 21.18 13.8224C21.4725 13.5374 21.78 13.1474 22.1025 12.6299C21.1575 12.0299 20.3775 11.8424 19.755 11.9324C19.98 11.6924 20.2125 11.3849 20.4525 10.9949C19.5975 10.4549 18.9 10.2899 18.345 10.3799C18.6675 9.83242 18.915 9.07492 19.1175 8.04742C17.4825 7.73242 16.3425 7.92742 15.6 8.44492C15.6225 8.04742 15.6 7.58992 15.5475 7.04992C14.655 7.14742 13.98 7.37992 13.5 7.68742C13.2525 7.04242 12.69 6.32992 11.7675 5.48242C11.0775 6.23242 10.65 6.92992 10.4325 7.55992C9.97499 7.31242 9.36749 7.13992 8.60249 7.04992C8.52749 7.68742 8.51999 8.21242 8.56499 8.64742C7.84499 7.99492 6.62999 7.70242 4.80749 8.05492C5.00999 9.08242 5.25749 9.84742 5.57999 10.3874C5.02499 10.2974 4.32749 10.4624 3.47249 11.0024C3.53249 11.0924 3.59249 11.1824 3.64499 11.2649C2.87999 11.1824 1.91999 11.4299 0.77249 12.1574C1.42499 13.1924 2.00249 13.8299 2.57999 14.1524C1.96499 14.3174 1.31999 14.8349 0.712491 15.8174C0.877491 15.9224 1.03499 16.0124 1.18499 16.0949H1.19999V16.1024H1.20749L1.21499 16.1099L1.22999 16.1174H1.23749H1.24499V16.1249L1.25249 16.1324H1.25999H1.26749H1.28249V16.1399L1.28999 16.1474H1.30499V16.1549H1.31249H1.31999L1.32749 16.1624H1.33499H1.34249H1.34999L1.35749 16.1699H1.36499H1.37249H1.37999V16.1774H1.38749H1.39499H1.40249H1.40999L1.41749 16.1849H1.42499V16.1924H1.43249L1.44749 16.1999H1.45499H1.46249H1.46999V16.2074H1.47749H1.48499H1.49249H1.49999H1.50749H1.51499H1.52249H1.52999H1.53749H1.54499H1.55249H1.55999H1.56749H1.57499C0.952489 16.3649 0.29999 16.8824 -0.32251 17.8724C0.23999 18.2249 0.712492 18.4499 1.11749 18.5699C0.704992 18.7499 0.292491 19.1399 -0.112509 19.7849C0.217491 19.9874 0.502489 20.1374 0.757489 20.2424C0.577489 20.4299 0.397491 20.6624 0.217491 20.9474H0.232492L0.247492 20.9699L0.262489 20.9849H0.27749V20.9924H0.29249L0.30749 21.0074L0.322491 21.0224H0.329989V21.0299H0.34499L0.352491 21.0449H0.35999L0.374991 21.0599L0.382489 21.0674H0.39749V21.0824H0.404991L0.419992 21.0974L0.434992 21.1049H0.449989V21.1124H0.46499L0.47999 21.1274L0.49499 21.1349H0.509991V21.1424H0.524991L0.539991 21.1574L0.554992 21.1649H0.569989V21.1724H0.58499L0.592491 21.1874L0.607492 21.1949H0.61499V21.2024H0.629991V21.2174H0.637489L0.65249 21.2324L0.659991 21.2399H0.674992V21.2474H0.68249L0.697491 21.2624H0.712491H0.727491V21.2699H0.742492L0.757489 21.2849H0.77249H0.78749H0.80249L0.817491 21.2999L0.832491 21.3074H0.83999H0.85499L0.862492 21.3149L0.877489 21.3224H0.89249V21.3299H0.899991L0.914991 21.3374H0.92249H0.937491H0.944989L0.95999 21.3449H0.97499H0.98999H1.00499L1.01999 21.3524H1.03499H1.04999H1.06499C0.899989 21.6374 0.794992 21.9749 0.742492 22.3574C1.43249 22.3499 1.97999 22.2149 2.30999 21.9749C2.30249 22.3574 2.39999 22.7699 2.57249 23.1374C3.08249 22.7924 3.47249 22.4549 3.68999 22.1324C3.86999 22.6499 4.43999 23.1824 5.24999 23.7299C5.38499 23.4449 5.48249 23.1449 5.52749 22.8449C5.78999 22.8074 6.01499 22.7399 6.18749 22.6574C6.18749 22.7324 6.18749 22.8149 6.18749 22.8974C6.86999 22.8899 7.39499 22.7549 7.69499 22.5149C7.75499 22.8974 7.91999 23.3099 8.15249 23.6774C8.51999 23.3924 8.80499 23.1224 8.99249 22.8524C9.38249 22.7924 9.68999 22.6799 9.89249 22.5149C9.94499 22.8974 10.1175 23.3099 10.35 23.6774C10.5975 23.4824 10.815 23.2949 10.9875 23.1074C11.16 23.2949 11.37 23.4824 11.625 23.6774C11.865 23.3099 12.03 22.8974 12.0825 22.5149C12.345 22.7324 12.795 22.8599 13.38 22.8899C13.5825 23.2574 13.875 23.5874 14.22 23.8574C14.6325 23.1224 14.895 22.4774 14.9175 21.9674C15.105 22.3499 15.54 22.7399 16.1325 23.1449C16.305 22.7774 16.4025 22.3649 16.395 21.9824C16.635 22.1549 16.9875 22.2749 17.415 22.3274C17.415 22.7924 17.5275 23.2874 17.7375 23.7374C18.5475 23.1824 19.1175 22.6574 19.2975 22.1399C19.515 22.4699 19.9125 22.7999 20.415 23.1449C20.5875 22.7774 20.685 22.3649 20.6775 21.9824C21.015 22.2299 21.5625 22.3574 22.245 22.3649C22.1925 21.9899 22.0875 21.6599 21.93 21.3749H21.945H21.9525L21.9675 21.3674H21.975H21.99H21.9975L22.0125 21.3599H22.02H22.035H22.05L22.065 21.3524H22.08H22.095H22.11L22.125 21.3374H22.14H22.155L22.17 21.3224H22.185H22.2L22.215 21.3074L22.23 21.2999H22.245H22.26L22.275 21.2849L22.29 21.2774H22.305H22.32L22.335 21.2624L22.35 21.2549H22.3575V21.2474H22.3725L22.38 21.2324L22.395 21.2249H22.4025V21.2174H22.4175L22.425 21.2024L22.44 21.1874H22.4475L22.455 21.1799H22.47L22.4775 21.1649H22.485L22.5 21.1499L22.5075 21.1424H22.5225V21.1274H22.53L22.545 21.1124L22.5525 21.1049H22.5675V21.0899H22.5825L22.5975 21.0749L22.6125 21.0674H22.6275V21.0524H22.6425L22.6575 21.0374L22.6725 21.0299H22.6875V21.0149H22.7025L22.7175 20.9924L22.7325 20.9849H22.7475V20.9699H22.7625L22.785 20.9474L22.8 20.9399L22.815 20.9249C22.635 20.6399 22.455 20.4074 22.275 20.2199C22.53 20.1149 22.8225 19.9649 23.145 19.7624C22.74 19.1174 22.32 18.7349 21.915 18.5474C22.32 18.4274 22.7925 18.1949 23.355 17.8499C22.7775 16.9274 22.1775 16.4174 21.6 16.2224L22.1325 16.3424ZM6.94499 21.6899L6.92999 21.6674H6.95999L6.93749 21.6899H6.94499ZM8.22749 21.7199C8.22749 21.7199 8.21249 21.6824 8.19749 21.6599H8.26499C8.26499 21.6599 8.23499 21.6974 8.22749 21.7199ZM10.425 21.7199C10.425 21.7199 10.41 21.6824 10.395 21.6599H10.4625C10.4625 21.6599 10.4325 21.6974 10.425 21.7199ZM12.285 21.7199C12.285 21.7199 12.2625 21.6824 12.2475 21.6599H12.315C12.315 21.6599 12.3 21.6974 12.285 21.7199Z" fill="#9CAA35"/>
<path fill-rule="evenodd" clip-rule="evenodd" d="M10.6498 13.1172H10.5898C10.5898 13.1172 10.6048 13.1547 10.6123 13.1772C10.6198 13.1547 10.6348 13.1397 10.6498 13.1172Z" fill="#8C9927"/>
<path fill-rule="evenodd" clip-rule="evenodd" d="M12.2551 13.1172H12.1951C12.1951 13.1172 12.2176 13.1547 12.2326 13.1772C12.2326 13.1547 12.2476 13.1397 12.2551 13.1172Z" fill="#8C9927"/>
<path fill-rule="evenodd" clip-rule="evenodd" d="M22.0275 12.5171C21.96 12.4721 21.8925 12.4346 21.825 12.3896C21.8475 12.4196 21.8625 12.4571 21.885 12.4946L21.87 12.5096H21.855V12.5246L21.84 12.5396H21.825V12.5471H21.81L21.795 12.5696L21.78 12.5846H21.765V12.5921H21.75L21.735 12.6146L21.72 12.6296H21.705V12.6371H21.69L21.6825 12.6521L21.6675 12.6671H21.66V12.6746H21.645L21.6375 12.6896L21.6225 12.7046H21.615V12.7121H21.6L21.5925 12.7271L21.5775 12.7421L21.57 12.7496H21.555V12.7646H21.5475L21.5325 12.7796L21.525 12.7871H21.51V12.8021H21.5025L21.4875 12.8171L21.48 12.8246H21.465V12.8321H21.4575L21.4425 12.8471L21.435 12.8546H21.42V12.8621H21.4125L21.3975 12.8771H21.39H21.375V12.8846H21.3675L21.3525 12.8996H21.3375H21.3225H21.3075L21.2925 12.9146H21.2775L21.2625 12.9296H21.2475H21.2325H21.2175L21.2025 12.9371H21.1875H21.18H21.165L21.1575 12.9446H21.1425H21.135H21.12L21.1125 12.9521H21.0975H21.09H21.075C21.165 13.1396 21.2325 13.3421 21.285 13.5596C21.5475 13.2821 21.825 12.9221 22.125 12.4571L22.0275 12.5171Z" fill="#8C9927"/>
<path fill-rule="evenodd" clip-rule="evenodd" d="M7.59006 13.1172H7.56006L7.57506 13.1472L7.59006 13.1172Z" fill="#8C9927"/>
<path fill-rule="evenodd" clip-rule="evenodd" d="M22.1324 16.3428C22.5524 16.2003 23.0249 15.9603 23.5799 15.6153C22.8224 14.4528 22.0349 13.9203 21.2924 13.8303C21.3074 13.9203 21.3224 14.0178 21.3374 14.1153C20.7374 14.1078 20.2574 13.9728 19.9649 13.7328C19.9724 14.1153 19.8899 14.5278 19.7399 14.8953C19.2974 14.5503 18.9524 14.2128 18.7649 13.8903C18.6074 14.4078 18.1049 14.9403 17.3999 15.4878C17.2124 15.0378 17.1149 14.5503 17.1149 14.0778C16.7399 14.0253 16.4324 13.9053 16.2224 13.7328C16.2299 14.1153 16.1474 14.5278 15.9974 14.8953C15.4799 14.4903 15.0974 14.1003 14.9324 13.7178C14.9099 14.2278 14.6849 14.8728 14.3249 15.6078C14.0249 15.3378 13.7699 15.0003 13.5974 14.6403C13.0874 14.6103 12.6899 14.4828 12.4649 14.2653C12.4124 14.6478 12.2699 15.0603 12.0599 15.4278C11.8424 15.2328 11.6549 15.0453 11.5049 14.8578C11.3549 15.0453 11.1674 15.2328 10.9499 15.4278C10.7399 15.0603 10.5974 14.6478 10.5524 14.2653C10.3799 14.4303 10.1099 14.5428 9.7649 14.6028C9.5999 14.8728 9.3524 15.1503 9.0299 15.4278C8.8199 15.0603 8.6774 14.6478 8.6249 14.2653C8.3699 14.5128 7.9124 14.6403 7.3124 14.6478C7.3124 14.5653 7.3124 14.4903 7.3124 14.4078C7.1549 14.4978 6.9599 14.5578 6.7349 14.5953C6.6899 14.8953 6.6074 15.1953 6.4874 15.4803C5.7824 14.9253 5.2799 14.4003 5.1224 13.8828C4.9274 14.2128 4.5899 14.5428 4.1474 14.8878C3.9974 14.5203 3.9074 14.1078 3.9224 13.7253C3.6299 13.9728 3.1499 14.1003 2.5499 14.1078C2.5949 13.7253 2.6924 13.3878 2.8349 13.1028H2.8199H2.8124L2.7974 13.0953H2.7824L2.7749 13.0878H2.7599H2.7524H2.7374L2.7299 13.0803H2.7149H2.7074H2.6924V13.0728L2.6774 13.0653H2.6624V13.0578H2.6549L2.6399 13.0503H2.6324H2.6174V13.0428H2.6099L2.5949 13.0278H2.5799H2.5649L2.5499 13.0128H2.5349H2.5199L2.5124 12.9978L2.4974 12.9903H2.4899H2.4749L2.4674 12.9753L2.4524 12.9678V12.9603H2.4374V12.9453H2.4299L2.4149 12.9303L2.4074 12.9228H2.3924V12.9153H2.3849L2.3699 12.9003L2.3549 12.8928H2.3399V12.8853H2.3249L2.3099 12.8703L2.2949 12.8628H2.2799V12.8553H2.2649L2.2574 12.8403L2.2424 12.8253H2.2349V12.8178H2.2199L2.2124 12.8028L2.1974 12.7878L2.1899 12.7803H2.1749V12.7653H2.1674L2.1524 12.7503L2.1449 12.7428H2.1299V12.7278H2.1149L2.0999 12.7053L2.0849 12.6978H2.0699C2.2274 12.4053 2.3849 12.1728 2.5424 11.9853C2.3699 11.9028 2.1749 11.7978 1.9649 11.6553C1.6199 11.7978 1.2524 11.9928 0.869902 12.2328C1.5224 13.2678 2.0999 13.9053 2.6774 14.2278C2.0624 14.3928 1.4174 14.9103 0.809903 15.8928C0.974903 15.9978 1.1324 16.0878 1.2824 16.1703H1.2974V16.1778H1.3049L1.3124 16.1853L1.3274 16.1928H1.3349H1.3424V16.2003L1.3499 16.2078H1.3574H1.3649H1.3799V16.2153L1.3874 16.2228H1.4024V16.2303H1.4099H1.4174L1.4249 16.2378H1.4324H1.4399H1.4474L1.4549 16.2453H1.4624H1.4699H1.4774V16.2528H1.4849H1.4924H1.4999H1.5074L1.5149 16.2603H1.5224V16.2678H1.5299L1.5449 16.2753H1.5524H1.5599H1.5674V16.2828H1.5749H1.5824H1.5899H1.5974H1.6049H1.6124H1.6199H1.6274H1.6349H1.6424H1.6499H1.6574H1.6649H1.6724C1.0499 16.4403 0.397402 16.9578 -0.225098 17.9478C0.337402 18.3003 0.809901 18.5253 1.2149 18.6453C0.802401 18.8253 0.389901 19.2153 -0.0150986 19.8603C0.314901 20.0628 0.599901 20.2128 0.854901 20.3178C0.674901 20.5053 0.4949 20.7378 0.3149 21.0228H0.329901L0.344901 21.0453L0.359901 21.0603H0.374902V21.0678H0.389902L0.404902 21.0828L0.419903 21.0978H0.427402V21.1053H0.442402L0.449901 21.1203H0.457402L0.472403 21.1353L0.479901 21.1428H0.494902V21.1578H0.5024L0.517401 21.1728L0.532401 21.1803H0.547401V21.1878H0.562402L0.577402 21.2028L0.592402 21.2103H0.607403V21.2178H0.622403L0.637401 21.2328L0.652401 21.2403H0.667401V21.2478H0.682402L0.6899 21.2628L0.704901 21.2703H0.712402V21.2778H0.727403V21.2928H0.734901L0.749902 21.3078L0.757401 21.3153H0.772401V21.3228H0.779902L0.794903 21.3378H0.809903H0.824901V21.3453H0.839901L0.854901 21.3603H0.869902H0.884902H0.899902L0.914903 21.3753L0.929903 21.3828H0.937402H0.952402L0.959901 21.3903L0.974901 21.3978H0.989902V21.4053H0.997403L1.0124 21.4128H1.0199H1.0349H1.0424L1.0574 21.4203H1.0724H1.0874H1.1024L1.1174 21.4278H1.1324H1.1474H1.1624C0.997401 21.7128 0.892401 22.0503 0.839901 22.4328C1.5299 22.4253 2.0774 22.2903 2.4074 22.0503C2.3999 22.4328 2.4974 22.8453 2.6699 23.2128C3.1799 22.8678 3.5699 22.5303 3.7874 22.2078C3.9674 22.7253 4.5374 23.2578 5.3474 23.8053C5.4824 23.5203 5.5799 23.2203 5.6249 22.9203C5.8874 22.8828 6.1124 22.8153 6.2849 22.7328C6.2849 22.8078 6.2849 22.8903 6.2849 22.9728C6.9674 22.9653 7.4924 22.8303 7.7924 22.5903C7.8524 22.9728 8.0174 23.3853 8.2499 23.7528C8.6174 23.4678 8.9024 23.1978 9.0899 22.9278C9.4799 22.8678 9.7874 22.7553 9.9899 22.5903C10.0424 22.9728 10.2149 23.3853 10.4474 23.7528C10.6949 23.5578 10.9124 23.3703 11.0849 23.1828C11.2574 23.3703 11.4674 23.5578 11.7224 23.7528C11.9624 23.3853 12.1274 22.9728 12.1799 22.5903C12.4424 22.8078 12.8924 22.9353 13.4774 22.9653C13.6799 23.3328 13.9724 23.6628 14.3174 23.9328C14.7299 23.1978 14.9924 22.5528 15.0149 22.0428C15.2024 22.4253 15.6374 22.8153 16.2299 23.2203C16.4024 22.8528 16.4999 22.4403 16.4924 22.0578C16.7324 22.2303 17.0849 22.3503 17.5124 22.4028C17.5124 22.8678 17.6249 23.3628 17.8349 23.8128C18.6449 23.2578 19.2149 22.7328 19.3949 22.2153C19.6124 22.5453 20.0099 22.8753 20.5124 23.2203C20.6849 22.8528 20.7824 22.4403 20.7749 22.0578C21.1124 22.3053 21.6599 22.4328 22.3424 22.4403C22.2899 22.0653 22.1849 21.7353 22.0274 21.4503H22.0424H22.0499L22.0649 21.4428H22.0724H22.0874H22.0949L22.1099 21.4353H22.1174H22.1324H22.1474L22.1624 21.4278H22.1774H22.1924H22.2074L22.2224 21.4128H22.2374H22.2524L22.2674 21.3978H22.2824H22.2974L22.3124 21.3828L22.3274 21.3753H22.3424H22.3574L22.3724 21.3603L22.3874 21.3528H22.4024H22.4174L22.4324 21.3378L22.4474 21.3303H22.4549V21.3228H22.4699L22.4774 21.3078L22.4924 21.3003H22.4999V21.2928H22.5149L22.5224 21.2778L22.5374 21.2628H22.5449L22.5524 21.2553H22.5674L22.5749 21.2403H22.5824L22.5974 21.2253L22.6049 21.2178H22.6199V21.2028H22.6274L22.6424 21.1878L22.6499 21.1803H22.6649V21.1653H22.6799L22.6949 21.1503L22.7099 21.1428H22.7249V21.1278H22.7399L22.7549 21.1128L22.7699 21.1053H22.7849V21.0903H22.7999L22.8149 21.0678L22.8299 21.0603H22.8449V21.0453H22.8599L22.8824 21.0228L22.8974 21.0153L22.9124 21.0003C22.7324 20.7153 22.5524 20.4828 22.3724 20.2953C22.6274 20.1903 22.9199 20.0403 23.2424 19.8378C22.8374 19.1928 22.4174 18.8103 22.0124 18.6228C22.4174 18.5028 22.8899 18.2703 23.4524 17.9253C22.8749 17.0028 22.2749 16.4928 21.6974 16.2978L22.1324 16.3428ZM6.9449 21.6903L6.9299 21.6678H6.9599L6.9374 21.6903H6.9449ZM8.2274 21.7203C8.2274 21.7203 8.2124 21.6828 8.1974 21.6603H8.2649C8.2649 21.6603 8.2349 21.6978 8.2274 21.7203ZM10.4249 21.7203C10.4249 21.7203 10.4099 21.6828 10.3949 21.6603H10.4624C10.4624 21.6603 10.4324 21.6978 10.4249 21.7203ZM12.2849 21.7203C12.2849 21.7203 12.2624 21.6828 12.2474 21.6603H12.3149C12.3149 21.6603 12.2999 21.6978 12.2849 21.7203Z" fill="#8C9927"/>
<path fill-rule="evenodd" clip-rule="evenodd" d="M8.72992 13.1172H8.66992C8.66992 13.1172 8.68492 13.1547 8.69242 13.1772C8.69992 13.1547 8.71492 13.1397 8.72992 13.1172Z" fill="#8C9927"/>
<path fill-rule="evenodd" clip-rule="evenodd" d="M10.4625 17.2051H10.395C10.395 17.2051 10.41 17.2426 10.425 17.2651C10.44 17.2426 10.4475 17.2276 10.4625 17.2051Z" fill="#747F20" stroke="#747F20" stroke-width="0.22" stroke-miterlimit="22.93"/>
<path fill-rule="evenodd" clip-rule="evenodd" d="M12.3075 17.2051H12.24C12.24 17.2051 12.27 17.2426 12.2775 17.2651C12.285 17.2426 12.2925 17.2276 12.3075 17.2051Z" fill="#747F20" stroke="#747F20" stroke-width="0.22" stroke-miterlimit="22.93"/>
<path fill-rule="evenodd" clip-rule="evenodd" d="M6.96743 17.2051H6.92993L6.94493 17.2276L6.96743 17.2051Z" fill="#747F20" stroke="#747F20" stroke-width="0.22" stroke-miterlimit="22.93"/>
<path fill-rule="evenodd" clip-rule="evenodd" d="M22.9426 16.8233H22.9351H22.9276L22.9126 16.8383H22.9051L22.8976 16.8458H22.8826V16.8608H22.8751L22.8601 16.8758L22.8526 16.8833H22.8376V16.8908H22.8301L22.8151 16.9058L22.8076 16.9133H22.7926V16.9208H22.7776L22.7626 16.9358L22.7476 16.9433H22.7326V16.9508H22.7176L22.7026 16.9658H22.6876H22.6726V16.9733H22.6576L22.6426 16.9883H22.6276H22.6126L22.5976 17.0033H22.5826L22.5676 17.0183H22.5526H22.5376L22.5226 17.0333H22.5076H22.4926H22.4776L22.4701 17.0408H22.4551H22.4476H22.4326L22.4251 17.0483H22.4101H22.4026H22.3876C22.5451 17.3333 22.6501 17.6633 22.7026 18.0383C22.0126 18.0308 21.4651 17.8958 21.1351 17.6558C21.1426 18.0383 21.0451 18.4508 20.8726 18.8183C20.3626 18.4733 19.9726 18.1358 19.7551 17.8133C19.5751 18.3308 19.0051 18.8633 18.1951 19.4108C17.9851 18.9608 17.8651 18.4733 17.8726 18.0008C17.4376 17.9483 17.0926 17.8283 16.8526 17.6558C16.8601 18.0383 16.7626 18.4508 16.5901 18.8183C15.9976 18.4133 15.5626 18.0233 15.3751 17.6408C15.3526 18.1508 15.0901 18.7958 14.6776 19.5308C14.3401 19.2608 14.0401 18.9233 13.8376 18.5633C13.2526 18.5333 12.8026 18.4058 12.5401 18.1883C12.4801 18.5708 12.3151 18.9833 12.0826 19.3508C11.8351 19.1558 11.6176 18.9683 11.4451 18.7808C11.2726 18.9683 11.0626 19.1558 10.8076 19.3508C10.5676 18.9833 10.4026 18.5708 10.3501 18.1883C10.1476 18.3533 9.84006 18.4658 9.45006 18.5258C9.26256 18.7958 8.97756 19.0658 8.61006 19.3508C8.37006 18.9833 8.20506 18.5708 8.15256 18.1883C7.86006 18.4358 7.33506 18.5633 6.64506 18.5708C6.64506 18.4883 6.64506 18.4133 6.64506 18.3308C6.46506 18.4208 6.24006 18.4808 5.98506 18.5183C5.93256 18.8183 5.83506 19.1183 5.70756 19.4033C4.89756 18.8483 4.32756 18.3233 4.14756 17.8058C3.93006 18.1358 3.53256 18.4658 3.03006 18.8108C2.85756 18.4433 2.76006 18.0308 2.76756 17.6483C2.43006 17.8958 1.88256 18.0233 1.20006 18.0308C1.25256 17.6483 1.36506 17.3108 1.52256 17.0258H1.50756H1.49256L1.47756 17.0183H1.46256H1.44756H1.43256L1.41756 17.0108H1.40256H1.39506H1.38006L1.37256 17.0033L1.35756 16.9958H1.35006H1.33506V16.9883L1.32006 16.9808H1.31256H1.29756V16.9733H1.29006L1.27506 16.9658H1.26006H1.24506V16.9583H1.23006L1.21506 16.9433H1.20006H1.18506V16.9358H1.17006L1.15506 16.9208L1.14006 16.9133H1.13256V16.9058H1.11756L1.11006 16.8908L1.09506 16.8833H1.08756V16.8758H1.07256V16.8608H1.06506L1.05006 16.8458L1.04256 16.8383H1.02756V16.8308H1.01256C0.690056 17.1008 0.375059 17.4758 0.0600586 17.9708C0.622559 18.3233 1.09506 18.5483 1.50006 18.6683C1.08756 18.8483 0.675058 19.2383 0.270058 19.8833C0.600058 20.0858 0.885058 20.2358 1.14006 20.3408C0.960058 20.5283 0.780057 20.7608 0.600057 21.0458H0.615057L0.630057 21.0683L0.645058 21.0833H0.660058V21.0908H0.675058L0.690056 21.1058L0.705056 21.1208H0.712558V21.1283H0.727558L0.735057 21.1433H0.742558L0.757556 21.1583L0.765058 21.1658H0.780058V21.1808H0.787557L0.802557 21.1958L0.817557 21.2033H0.832558V21.2108H0.847558L0.862558 21.2258L0.877556 21.2333H0.892556V21.2408H0.907557L0.922557 21.2558L0.937557 21.2633H0.952558V21.2708H0.967558L0.975057 21.2858L0.990057 21.2933H0.997559V21.3008H1.01256V21.3158H1.02006L1.03506 21.3308L1.04256 21.3383H1.05756V21.3458H1.06506L1.08006 21.3608H1.09506H1.11006V21.3683H1.12506L1.14006 21.3833H1.15506H1.17006H1.18506L1.20006 21.3983L1.21506 21.4058H1.22256H1.23756L1.24506 21.4133L1.26006 21.4208H1.27506V21.4283H1.28256L1.29756 21.4358H1.30506H1.32006H1.32756L1.34256 21.4433H1.35756H1.37256H1.38756L1.40256 21.4508H1.41756H1.43256H1.44756C1.28256 21.7358 1.17756 22.0733 1.12506 22.4558C1.81506 22.4483 2.36256 22.3133 2.69256 22.0733C2.68506 22.4558 2.78256 22.8683 2.95506 23.2358C3.46506 22.8908 3.85506 22.5533 4.07256 22.2308C4.25256 22.7483 4.82256 23.2808 5.63256 23.8283C5.76756 23.5433 5.86506 23.2433 5.91006 22.9433C6.17256 22.9058 6.39756 22.8383 6.57006 22.7558C6.57006 22.8308 6.57006 22.9133 6.57006 22.9958C7.25256 22.9883 7.77756 22.8533 8.07756 22.6133C8.13756 22.9958 8.30256 23.4083 8.53506 23.7758C8.90256 23.4908 9.18756 23.2208 9.37506 22.9508C9.76506 22.8908 10.0726 22.7783 10.2751 22.6133C10.3276 22.9958 10.5001 23.4083 10.7326 23.7758C10.9801 23.5808 11.1976 23.3933 11.3701 23.2058C11.5426 23.3933 11.7526 23.5808 12.0076 23.7758C12.2476 23.4083 12.4126 22.9958 12.4651 22.6133C12.7276 22.8308 13.1776 22.9583 13.7626 22.9883C13.9651 23.3558 14.2576 23.6858 14.6026 23.9558C15.0151 23.2208 15.2776 22.5758 15.3001 22.0658C15.4876 22.4483 15.9226 22.8383 16.5151 23.2433C16.6876 22.8758 16.7851 22.4633 16.7776 22.0808C17.0176 22.2533 17.3701 22.3733 17.7976 22.4258C17.7976 22.8908 17.9101 23.3858 18.1201 23.8358C18.9301 23.2808 19.5001 22.7558 19.6801 22.2383C19.8976 22.5683 20.2951 22.8983 20.7976 23.2433C20.9701 22.8758 21.0676 22.4633 21.0601 22.0808C21.3976 22.3283 21.9451 22.4558 22.6276 22.4633C22.5751 22.0883 22.4701 21.7583 22.3126 21.4733H22.3276H22.3351L22.3501 21.4658H22.3576H22.3726H22.3801L22.3951 21.4583H22.4026H22.4176H22.4326L22.4476 21.4508H22.4626H22.4776H22.4926L22.5076 21.4358H22.5226H22.5376L22.5526 21.4208H22.5676H22.5826L22.5976 21.4058L22.6126 21.3983H22.6276H22.6426L22.6576 21.3833L22.6726 21.3758H22.6876H22.7026L22.7176 21.3608L22.7326 21.3533H22.7401V21.3458H22.7551L22.7626 21.3308L22.7776 21.3233H22.7851V21.3158H22.8001L22.8076 21.3008L22.8226 21.2858H22.8301L22.8376 21.2783H22.8526L22.8601 21.2633H22.8676L22.8826 21.2483L22.8901 21.2408H22.9051V21.2258H22.9126L22.9276 21.2108L22.9351 21.2033H22.9501V21.1883H22.9651L22.9801 21.1733L22.9951 21.1658H23.0101V21.1508H23.0251L23.0401 21.1358L23.0551 21.1283H23.0701V21.1133H23.0851L23.1001 21.0908L23.1151 21.0833H23.1301V21.0683H23.1451L23.1676 21.0458L23.1826 21.0383L23.1976 21.0233C23.0176 20.7383 22.8376 20.5058 22.6576 20.3183C22.9126 20.2133 23.2051 20.0633 23.5276 19.8608C23.1226 19.2158 22.7026 18.8333 22.2976 18.6458C22.7026 18.5258 23.1751 18.2933 23.7376 17.9483C23.4301 17.4533 23.1076 17.0708 22.7926 16.8008L22.9426 16.8233ZM6.94506 21.6908L6.93006 21.6683H6.96006L6.93756 21.6908H6.94506ZM8.22756 21.7208C8.22756 21.7208 8.21256 21.6833 8.19756 21.6608H8.26506C8.26506 21.6608 8.23506 21.6983 8.22756 21.7208ZM10.4251 21.7208C10.4251 21.7208 10.4101 21.6833 10.3951 21.6608H10.4626C10.4626 21.6608 10.4326 21.6983 10.4251 21.7208ZM12.2851 21.7208C12.2851 21.7208 12.2626 21.6833 12.2476 21.6608H12.3151C12.3151 21.6608 12.3001 21.6983 12.2851 21.7208Z" fill="#747F20" stroke="#747F20" stroke-width="0.22" stroke-miterlimit="22.93"/>
<path fill-rule="evenodd" clip-rule="evenodd" d="M8.26501 17.2051H8.19751C8.19751 17.2051 8.21251 17.2426 8.22751 17.2651C8.24251 17.2426 8.25001 17.2276 8.26501 17.2051Z" fill="#747F20" stroke="#747F20" stroke-width="0.22" stroke-miterlimit="22.93"/>
<path fill-rule="evenodd" clip-rule="evenodd" d="M10.8373 15.3147C11.3323 15.1422 11.8948 14.8572 12.5548 14.4522C11.6173 13.0047 10.6273 12.3822 9.70481 12.3222C10.0573 11.9847 10.4173 11.5197 10.7998 10.9047C9.6748 10.1922 8.7448 9.96723 8.0173 10.0797C8.2798 9.79473 8.55731 9.42723 8.84981 8.96973C7.83731 8.32473 7.0048 8.12973 6.3448 8.23473C6.7273 7.58973 7.01981 6.68223 7.25981 5.45973C5.31731 5.08473 3.95981 5.31723 3.08231 5.93223C3.11231 5.46723 3.08231 4.91223 3.01481 4.27473C1.94981 4.39473 1.1548 4.66473 0.584804 5.03223C0.284804 4.25973 -0.375194 3.41973 -1.47769 2.40723C-2.29519 3.29973 -2.8052 4.12473 -3.0677 4.87473C-3.6152 4.58223 -4.32769 4.37223 -5.24269 4.26723C-5.32519 5.02473 -5.34769 5.64723 -5.28769 6.16473C-6.14269 5.38473 -7.5902 5.03973 -9.7577 5.45973C-9.5177 6.68223 -9.2252 7.58973 -8.8427 8.23473C-9.5027 8.12973 -10.3352 8.32473 -11.3477 8.96973C-11.2802 9.08223 -11.2127 9.18723 -11.1452 9.28473C-12.0527 9.17973 -13.1927 9.47973 -14.5652 10.3497C-13.7852 11.5797 -13.1027 12.3372 -12.4127 12.7197C-13.1402 12.9147 -13.9052 13.5297 -14.6327 14.6922C-14.4377 14.8122 -14.2502 14.9247 -14.0702 15.0222H-14.0552V15.0297H-14.0477L-14.0402 15.0447L-14.0252 15.0522H-14.0177H-14.0027H-13.9877L-13.9802 15.0672L-13.9652 15.0747H-13.9577H-13.9502H-13.9352V15.0822H-13.9277L-13.9127 15.0897H-13.8977V15.1047H-13.8827V15.1122H-13.8752L-13.8602 15.1197H-13.8452H-13.8302H-13.8152L-13.8077 15.1272L-13.7927 15.1347H-13.7852H-13.7702H-13.7552L-13.7477 15.1422L-13.7327 15.1497H-13.7252H-13.7177H-13.7027V15.1572H-13.6952L-13.6802 15.1647H-13.6652L-13.6577 15.1722L-13.6427 15.1797L-13.6202 15.1872H-13.6052H-13.5902H-13.5752L-13.5677 15.1947H-13.5527H-13.5452H-13.5377H-13.5227V15.2022H-13.5077H-13.5002H-13.4927H-13.4777H-13.4702L-13.4627 15.2097H-13.4477H-13.4327H-13.4252H-13.4177H-13.4027H-13.3877C-14.1302 15.4047 -14.9027 16.0122 -15.6377 17.1972C-14.9702 17.6097 -14.4152 17.8872 -13.9277 18.0297C-14.4152 18.2472 -14.9102 18.7047 -15.3902 19.4697C-15.0002 19.7097 -14.6627 19.8897 -14.3552 20.0172C-14.5727 20.2422 -14.7827 20.5197 -14.9927 20.8572L-14.9702 20.8722L-14.9477 20.8872L-14.9252 20.9022H-14.9102V20.9172L-14.8877 20.9322H-14.8727V20.9472L-14.8502 20.9622H-14.8352V20.9772L-14.8127 20.9922H-14.8052L-14.7977 21.0072L-14.7752 21.0222H-14.7677L-14.7527 21.0372L-14.7302 21.0522L-14.7152 21.0672L-14.6927 21.0822L-14.6777 21.0897H-14.6552V21.1047H-14.6402L-14.6177 21.1272L-14.6027 21.1347H-14.5877V21.1422H-14.5652L-14.5502 21.1647L-14.5277 21.1797H-14.5127V21.1872H-14.4977L-14.4827 21.2022L-14.4602 21.2172H-14.4527L-14.4452 21.2247H-14.4302L-14.4227 21.2397H-14.4152L-14.3927 21.2547L-14.3852 21.2622H-14.3702V21.2772H-14.3552L-14.3402 21.2922L-14.3252 21.2997H-14.3102V21.3072H-14.2952L-14.2802 21.3222L-14.2652 21.3297H-14.2502V21.3372H-14.2352L-14.2202 21.3522L-14.2052 21.3597H-14.1902V21.3672H-14.1752L-14.1677 21.3822L-14.1527 21.3897H-14.1452L-14.1377 21.3972H-14.1227L-14.1152 21.4047H-14.1077L-14.0927 21.4122H-14.0852H-14.0702V21.4197H-14.0552L-14.0402 21.4347H-14.0252H-14.0102H-13.9952L-13.9802 21.4497H-13.9652H-13.9502H-13.9352C-14.1302 21.7872 -14.2577 22.1922 -14.3252 22.6422C-13.5077 22.6272 -12.8552 22.4772 -12.4577 22.1847C-12.4652 22.6422 -12.3527 23.1297 -12.1427 23.5647C-11.5427 23.1522 -11.0777 22.7547 -10.8152 22.3647C-10.5977 22.9797 -9.9227 23.6097 -8.9552 24.2622C-8.7977 23.9247 -8.6852 23.5722 -8.6252 23.2122C-8.3177 23.1672 -8.0477 23.0922 -7.8377 22.9872C-7.8377 23.0772 -7.8377 23.1747 -7.8377 23.2722C-7.0202 23.2572 -6.39769 23.1072 -6.05269 22.8147C-5.98519 23.2722 -5.7902 23.7597 -5.5052 24.1947C-5.0702 23.8572 -4.7252 23.5347 -4.5077 23.2122C-4.0427 23.1447 -3.6827 23.0097 -3.4427 22.8072C-3.3752 23.2647 -3.1802 23.7522 -2.8952 24.1872C-2.5952 23.9547 -2.3402 23.7297 -2.1377 23.5122C-1.9352 23.7372 -1.6802 23.9622 -1.3802 24.1872C-1.0952 23.7447 -0.900195 23.2647 -0.832695 22.8072C-0.517695 23.0697 0.0148055 23.2197 0.712306 23.2572C0.952306 23.6922 1.3048 24.0822 1.7098 24.4047C2.2048 23.5272 2.5123 22.7622 2.5423 22.1547C2.7673 22.6047 3.2848 23.0697 3.9898 23.5497C4.1998 23.1072 4.31231 22.6272 4.30481 22.1697C4.58981 22.3797 5.00981 22.5147 5.51981 22.5822C5.51231 23.1372 5.6548 23.7222 5.9023 24.2547C6.8623 23.5947 7.54481 22.9722 7.75481 22.3572C8.01731 22.7472 8.4823 23.1447 9.0823 23.5572C9.2923 23.1147 9.4048 22.6347 9.3973 22.1772C9.7948 22.4697 10.4473 22.6197 11.2648 22.6347C11.1973 22.1847 11.0773 21.7947 10.8898 21.4647H10.9048V21.4572H10.9198L10.9348 21.4497H10.9498H10.9648H10.9798L10.9948 21.4422H11.0098H11.0248V21.4347H11.0398L11.0548 21.4197H11.0698H11.0848H11.0998L11.1148 21.4047L11.1298 21.3972H11.1448L11.1598 21.3822H11.1748V21.3747H11.1898L11.2048 21.3597L11.2198 21.3522H11.2348V21.3447H11.2573L11.2723 21.3297L11.2873 21.3222H11.3023V21.3147H11.3248L11.3398 21.2997L11.3623 21.2922H11.3773V21.2847H11.3998L11.4148 21.2697L11.4373 21.2547H11.4523L11.4598 21.2472H11.4823L11.4898 21.2322H11.4973L11.5198 21.2172H11.5273L11.5348 21.2097H11.5573L11.5648 21.1947H11.5723L11.5948 21.1797H11.6023L11.6098 21.1722L11.6323 21.1572H11.6398L11.6548 21.1497H11.6773L11.6848 21.1347H11.6998L11.7223 21.1122L11.7373 21.0972L11.7598 21.0822L11.7748 21.0672L11.7973 21.0522L11.8123 21.0372L11.8348 21.0222L11.8498 21.0072L11.8723 20.9922L11.8873 20.9772L11.9098 20.9622L11.9323 20.9472L11.9548 20.9322L11.9773 20.9172L11.9998 20.9022L12.0223 20.8872L12.0448 20.8722C11.8348 20.5347 11.6173 20.2572 11.4073 20.0322C11.7148 19.9122 12.0598 19.7322 12.4423 19.4847C11.9623 18.7197 11.4673 18.2622 10.9798 18.0447C11.4673 17.9022 12.0223 17.6247 12.6898 17.2122C12.0073 16.1172 11.2873 15.5097 10.5973 15.2772L10.8373 15.3147ZM-7.2077 21.6672L-7.22269 21.6372H-7.18519L-7.2077 21.6672ZM-5.68519 21.7047C-5.68519 21.7047 -5.7077 21.6597 -5.7152 21.6372H-5.6402C-5.6402 21.6372 -5.67019 21.6822 -5.68519 21.7047ZM-3.0752 21.7047C-3.0752 21.7047 -3.09769 21.6597 -3.10519 21.6372H-3.0302C-3.0302 21.6372 -3.0602 21.6822 -3.0752 21.7047ZM-0.862695 21.7047C-0.862695 21.7047 -0.892694 21.6597 -0.907694 21.6372H-0.832695C-0.832695 21.6372 -0.855195 21.6822 -0.862695 21.7047Z" fill="#BACD3F"/>
<path fill-rule="evenodd" clip-rule="evenodd" d="M10.7174 10.7701C10.6349 10.7176 10.5524 10.6726 10.4774 10.6201C10.4999 10.6576 10.5224 10.7026 10.5449 10.7401L10.5224 10.7551L10.5074 10.7701L10.4849 10.7851L10.4699 10.8001L10.4474 10.8151L10.4324 10.8301L10.4174 10.8451H10.4024V10.8601L10.3874 10.8751H10.3724V10.8901L10.3574 10.9051H10.3424V10.9201L10.3274 10.9351H10.3124V10.9501L10.2974 10.9651H10.2824V10.9801L10.2674 10.9951H10.2599V11.0101H10.2449L10.2374 11.0251H10.2299L10.2149 11.0401H10.2074L10.1999 11.0476H10.1849L10.1774 11.0626H10.1699L10.1549 11.0776H10.1474L10.1399 11.0851H10.1249L10.1174 11.1001H10.1099L10.0949 11.1151L10.0874 11.1226H10.0724V11.1376H10.0649L10.0499 11.1526L10.0424 11.1601H10.0274V11.1751H10.0124L9.99742 11.1901L9.98242 11.1976H9.96742V11.2051H9.95242L9.93742 11.2201L9.92242 11.2276H9.90742V11.2351H9.89242L9.87742 11.2501L9.86242 11.2576H9.84742V11.2651H9.83242L9.81742 11.2801L9.80242 11.2876H9.78742H9.77242L9.75742 11.3026L9.74242 11.3101H9.72742H9.71242L9.69742 11.3251L9.68242 11.3326H9.66742H9.65242L9.64492 11.3401H9.62992H9.62242H9.60742C9.71242 11.5576 9.79492 11.8051 9.85492 12.0676C10.1699 11.7451 10.4999 11.3101 10.8524 10.7551L10.7174 10.7701Z" fill="#A9BC30"/>
<path fill-rule="evenodd" clip-rule="evenodd" d="M10.8374 15.3148C11.3324 15.1423 11.8949 14.8573 12.5549 14.4523C11.6549 13.0723 10.7174 12.4423 9.83238 12.3373C9.85488 12.4498 9.86988 12.5623 9.88488 12.6748C9.17238 12.6598 8.60238 12.5098 8.25738 12.2173C8.26488 12.6748 8.16738 13.1623 7.98738 13.5973C7.46238 13.1848 7.05738 12.7873 6.82488 12.3973C6.63738 13.0123 6.04488 13.6423 5.20488 14.3023C4.98738 13.7698 4.85988 13.1848 4.86738 12.6298C4.41738 12.5623 4.05738 12.4273 3.80238 12.2173C3.80988 12.6748 3.71238 13.1623 3.53238 13.5973C2.91738 13.1173 2.46738 12.6523 2.27238 12.2023C2.24988 12.8098 1.97988 13.5748 1.54488 14.4523C1.19238 14.1298 0.884884 13.7323 0.674884 13.2973C0.0673838 13.2598 -0.397617 13.1098 -0.675117 12.8473C-0.735117 13.3048 -0.907618 13.7923 -1.15512 14.2273C-1.41762 13.9948 -1.63512 13.7698 -1.81512 13.5523C-1.98762 13.7773 -2.21262 14.0023 -2.47512 14.2273C-2.72262 13.7848 -2.89512 13.3048 -2.95512 12.8473C-3.16512 13.0423 -3.48012 13.1773 -3.88512 13.2523C-4.07262 13.5748 -4.38012 13.8973 -4.75512 14.2348C-5.00262 13.7923 -5.17512 13.3123 -5.23512 12.8548C-5.54262 13.1473 -6.08262 13.2973 -6.79512 13.3123C-6.79512 13.2148 -6.79512 13.1248 -6.79512 13.0273C-6.98262 13.1323 -7.21512 13.2073 -7.48512 13.2523C-7.53762 13.6123 -7.63512 13.9648 -7.77762 14.3023C-8.61762 13.6423 -9.21012 13.0198 -9.39762 12.3973C-9.62262 12.7873 -10.0351 13.1848 -10.5601 13.5973C-10.7401 13.1548 -10.8451 12.6748 -10.8301 12.2173C-11.1826 12.5098 -11.7451 12.6598 -12.4576 12.6748C-12.3976 12.2173 -12.2926 11.8198 -12.1201 11.4823H-12.1351H-12.1501L-12.1651 11.4748H-12.1801H-12.1951H-12.2101L-12.2251 11.4598L-12.2401 11.4523H-12.2476H-12.2626L-12.2701 11.4448L-12.2851 11.4373H-12.2926H-12.3076V11.4298H-12.3151L-12.3301 11.4148L-12.3376 11.4073H-12.3526V11.3998H-12.3601L-12.3751 11.3848L-12.3901 11.3773H-12.4051V11.3698H-12.4201L-12.4351 11.3548H-12.4501L-12.4651 11.3398L-12.4801 11.3323H-12.4951V11.3248H-12.5101L-12.5176 11.3098L-12.5326 11.2948H-12.5401V11.2873H-12.5551L-12.5626 11.2723H-12.5701L-12.5851 11.2573L-12.5926 11.2498H-12.6076V11.2348H-12.6151L-12.6301 11.2198L-12.6451 11.2123H-12.6601V11.1973H-12.6751L-12.6901 11.1748L-12.7051 11.1673H-12.7201V11.1598H-12.7351L-12.7501 11.1373L-12.7651 11.1223H-12.7801V11.1073L-12.7951 11.0923H-12.8101V11.0773L-12.8251 11.0623H-12.8326V11.0473L-12.8476 11.0323H-12.8551L-12.8626 11.0173L-12.8776 11.0023L-12.8851 10.9873L-12.9001 10.9723L-12.9151 10.9573L-12.9301 10.9423L-12.9451 10.9273L-12.9601 10.9123L-12.9751 10.8973L-12.9901 10.8823C-12.8101 10.5448 -12.6226 10.2673 -12.4351 10.0423C-12.6451 9.94484 -12.8701 9.81734 -13.1176 9.65234C-13.5301 9.82484 -13.9576 10.0498 -14.4226 10.3423C-13.6426 11.5723 -12.9601 12.3298 -12.2701 12.7123C-12.9976 12.9073 -13.7626 13.5223 -14.4901 14.6848C-14.2951 14.8048 -14.1076 14.9173 -13.9276 15.0148H-13.9126V15.0223H-13.9051L-13.8976 15.0373L-13.8826 15.0448H-13.8751H-13.8601H-13.8451L-13.8376 15.0598L-13.8226 15.0673H-13.8151H-13.8076H-13.7926V15.0748H-13.7851L-13.7701 15.0823H-13.7551V15.0973H-13.7401V15.1048H-13.7326L-13.7176 15.1123H-13.7026H-13.6876H-13.6726L-13.6651 15.1198L-13.6501 15.1273H-13.6426H-13.6276H-13.6126L-13.6051 15.1348L-13.5901 15.1423H-13.5826H-13.5751H-13.5601V15.1498H-13.5526L-13.5376 15.1573H-13.5226L-13.5151 15.1648L-13.5001 15.1723L-13.4776 15.1798H-13.4626H-13.4476H-13.4326L-13.4251 15.1873H-13.4101H-13.4026H-13.3951H-13.3801V15.1948H-13.3651H-13.3576H-13.3501H-13.3351H-13.3276L-13.3201 15.2023H-13.3051H-13.2901H-13.2826H-13.2751H-13.2601H-13.2451C-13.9876 15.3973 -14.7601 16.0048 -15.4951 17.1898C-14.8276 17.6023 -14.2726 17.8798 -13.7851 18.0223C-14.2726 18.2398 -14.7676 18.6973 -15.2476 19.4623C-14.8576 19.7023 -14.5201 19.8823 -14.2126 20.0098C-14.4301 20.2348 -14.6401 20.5123 -14.8501 20.8498L-14.8276 20.8648L-14.8051 20.8798L-14.7826 20.8948H-14.7676V20.9098L-14.7451 20.9248H-14.7301V20.9398L-14.7076 20.9548H-14.6926V20.9698L-14.6701 20.9848H-14.6626L-14.6551 20.9998L-14.6326 21.0148H-14.6251L-14.6101 21.0298L-14.5876 21.0448L-14.5726 21.0598L-14.5501 21.0748L-14.5351 21.0823H-14.5126V21.0973H-14.4976L-14.4751 21.1198L-14.4601 21.1273H-14.4451V21.1348H-14.4226L-14.4076 21.1573L-14.3851 21.1723H-14.3701V21.1798H-14.3551L-14.3401 21.1948L-14.3176 21.2098H-14.3101L-14.3026 21.2173H-14.2876L-14.2801 21.2323H-14.2726L-14.2501 21.2473L-14.2426 21.2548H-14.2276V21.2698H-14.2126L-14.1976 21.2848L-14.1826 21.2923H-14.1676V21.2998H-14.1526L-14.1376 21.3148L-14.1226 21.3223H-14.1076V21.3298H-14.0926L-14.0776 21.3448L-14.0626 21.3523H-14.0476V21.3598H-14.0326L-14.0251 21.3748L-14.0101 21.3823H-14.0026L-13.9951 21.3898H-13.9801L-13.9726 21.3973H-13.9651L-13.9501 21.4048H-13.9426H-13.9276V21.4123H-13.9126L-13.8976 21.4273H-13.8826H-13.8676H-13.8526L-13.8376 21.4423H-13.8226H-13.8076H-13.7926C-13.9876 21.7798 -14.1151 22.1848 -14.1826 22.6348C-13.3651 22.6198 -12.7126 22.4698 -12.3151 22.1773C-12.3226 22.6348 -12.2101 23.1223 -12.0001 23.5573C-11.4001 23.1448 -10.9351 22.7473 -10.6726 22.3573C-10.4551 22.9723 -9.78012 23.6023 -8.81262 24.2548C-8.65512 23.9173 -8.54262 23.5648 -8.48262 23.2048C-8.17512 23.1598 -7.90512 23.0848 -7.69512 22.9798C-7.69512 23.0698 -7.69512 23.1673 -7.69512 23.2648C-6.87762 23.2498 -6.25512 23.0998 -5.91012 22.8073C-5.84262 23.2648 -5.64762 23.7523 -5.36262 24.1873C-4.92762 23.8498 -4.58262 23.5273 -4.36512 23.2048C-3.90012 23.1373 -3.54012 23.0023 -3.30012 22.7998C-3.23262 23.2573 -3.03762 23.7448 -2.75262 24.1798C-2.45262 23.9473 -2.19762 23.7223 -1.99512 23.5048C-1.79262 23.7298 -1.53762 23.9548 -1.23762 24.1798C-0.952617 23.7373 -0.757617 23.2573 -0.690117 22.7998C-0.375117 23.0623 0.157382 23.2123 0.854882 23.2498C1.09488 23.6848 1.44738 24.0748 1.85238 24.3973C2.34738 23.5198 2.65488 22.7548 2.68488 22.1473C2.90988 22.5973 3.42738 23.0623 4.13238 23.5423C4.34238 23.0998 4.45488 22.6198 4.44738 22.1623C4.73238 22.3723 5.15238 22.5073 5.66238 22.5748C5.65488 23.1298 5.79738 23.7148 6.04488 24.2473C7.00488 23.5873 7.68738 22.9648 7.89738 22.3498C8.15988 22.7398 8.62488 23.1373 9.22488 23.5498C9.43488 23.1073 9.54738 22.6273 9.53988 22.1698C9.93738 22.4623 10.5899 22.6123 11.4074 22.6273C11.3399 22.1773 11.2199 21.7873 11.0324 21.4573H11.0474V21.4498H11.0624L11.0774 21.4423H11.0924H11.1074H11.1224L11.1374 21.4348H11.1524H11.1674V21.4273H11.1824L11.1974 21.4123H11.2124H11.2274H11.2424L11.2574 21.3973L11.2724 21.3898H11.2874L11.3024 21.3748H11.3174V21.3673H11.3324L11.3474 21.3523L11.3624 21.3448H11.3774V21.3373H11.3999L11.4149 21.3223L11.4299 21.3148H11.4449V21.3073H11.4674L11.4824 21.2923L11.5049 21.2848H11.5199V21.2773H11.5424L11.5574 21.2623L11.5799 21.2473H11.5949L11.6024 21.2398H11.6249L11.6324 21.2248H11.6399L11.6624 21.2098H11.6699L11.6774 21.2023H11.6999L11.7074 21.1873H11.7149L11.7374 21.1723H11.7449L11.7524 21.1648L11.7749 21.1498H11.7824L11.7974 21.1423H11.8199L11.8274 21.1273H11.8424L11.8649 21.1048L11.8799 21.0898L11.9024 21.0748L11.9174 21.0598L11.9399 21.0448L11.9549 21.0298L11.9774 21.0148L11.9924 20.9998L12.0149 20.9848L12.0299 20.9698L12.0524 20.9548L12.0749 20.9398L12.0974 20.9248L12.1199 20.9098L12.1424 20.8948L12.1649 20.8798L12.1874 20.8648C11.9774 20.5273 11.7599 20.2498 11.5499 20.0248C11.8574 19.9048 12.2024 19.7248 12.5849 19.4773C12.1049 18.7123 11.6099 18.2548 11.1224 18.0373C11.6099 17.8948 12.1649 17.6173 12.8324 17.2048C12.1499 16.1098 11.4299 15.5023 10.7399 15.2698L10.8374 15.3148ZM-7.20762 21.6673L-7.22262 21.6373H-7.18512L-7.20762 21.6673ZM-5.68512 21.7048C-5.68512 21.7048 -5.70762 21.6598 -5.71512 21.6373H-5.64012C-5.64012 21.6373 -5.67012 21.6823 -5.68512 21.7048ZM-3.07512 21.7048C-3.07512 21.7048 -3.09762 21.6598 -3.10512 21.6373H-3.03012C-3.03012 21.6373 -3.06012 21.6823 -3.07512 21.7048ZM-0.862617 21.7048C-0.862617 21.7048 -0.892617 21.6598 -0.907617 21.6373H-0.832618C-0.832618 21.6373 -0.855117 21.6823 -0.862617 21.7048Z" fill="#A9BC30"/>
<path fill-rule="evenodd" clip-rule="evenodd" d="M11.7975 15.877H11.79H11.7825L11.76 15.892H11.7525L11.745 15.8995H11.7225L11.715 15.9145H11.7075L11.685 15.9295H11.6775L11.6625 15.937H11.64V15.952H11.625L11.6025 15.967L11.5875 15.9745H11.565V15.9895H11.55L11.5275 16.0045L11.5125 16.012H11.4975V16.0195H11.4825L11.46 16.0345L11.445 16.042H11.43V16.0495H11.415L11.4 16.0645L11.385 16.072H11.37L11.355 16.087H11.34V16.0945H11.325L11.31 16.1095H11.295H11.28H11.265L11.25 16.1245L11.235 16.132H11.22H11.205L11.19 16.1395L11.175 16.147H11.16H11.145L11.13 16.1545L11.115 16.162C11.3025 16.492 11.43 16.8895 11.49 17.332C10.6725 17.317 10.02 17.167 9.62251 16.8745C9.63001 17.332 9.51751 17.8195 9.30751 18.2545C8.70751 17.842 8.24251 17.4445 7.98001 17.0545C7.76251 17.6695 7.08751 18.2995 6.12751 18.952C5.88001 18.4195 5.73751 17.8345 5.74501 17.2795C5.23501 17.212 4.81501 17.077 4.53001 16.867C4.53751 17.3245 4.42501 17.812 4.21501 18.247C3.51001 17.767 2.99251 17.302 2.76751 16.852C2.74501 17.4595 2.43001 18.2245 1.93501 19.102C1.53001 18.7795 1.18501 18.382 0.93751 17.9545C0.24001 17.917 -0.29249 17.767 -0.60749 17.5045C-0.67499 17.962 -0.869991 18.4495 -1.15499 18.8845C-1.45499 18.652 -1.70999 18.427 -1.91249 18.2095C-2.11499 18.4345 -2.36999 18.6595 -2.66999 18.8845C-2.95499 18.442 -3.14999 17.962 -3.21749 17.5045C-3.45749 17.6995 -3.81749 17.8345 -4.28249 17.9095C-4.49999 18.232 -4.84499 18.5545 -5.27999 18.892C-5.56499 18.4495 -5.75999 17.9695 -5.82749 17.512C-6.17999 17.8045 -6.80249 17.9545 -7.61249 17.9695C-7.61249 17.872 -7.61249 17.782 -7.61249 17.6845C-7.82249 17.7895 -8.09249 17.8645 -8.39999 17.9095C-8.45999 18.2695 -8.57249 18.622 -8.72999 18.9595C-9.68999 18.307 -10.3725 17.677 -10.59 17.062C-10.8525 17.452 -11.3175 17.8495 -11.9175 18.262C-12.1275 17.8195 -12.24 17.3395 -12.2325 16.882C-12.63 17.1745 -13.2825 17.3245 -14.1 17.3395C-14.0325 16.882 -13.905 16.4845 -13.71 16.147H-13.725H-13.74L-13.755 16.1395H-13.77H-13.785H-13.8L-13.815 16.1245H-13.83H-13.845H-13.86L-13.8675 16.1095L-13.8825 16.102H-13.89H-13.8975H-13.9125L-13.92 16.0945H-13.9275L-13.9425 16.0795L-13.95 16.072H-13.965V16.0645H-13.98L-13.995 16.0495L-14.01 16.042H-14.025V16.0345H-14.04L-14.055 16.0195L-14.07 16.012H-14.085V16.0045H-14.1L-14.115 15.9895L-14.13 15.982H-14.145V15.9745H-14.16L-14.1675 15.9595L-14.19 15.9445H-14.1975L-14.205 15.937H-14.22L-14.2275 15.922H-14.235L-14.2575 15.907L-14.2725 15.8995H-14.2875V15.8845H-14.3025C-14.685 16.1995 -15.06 16.6495 -15.4275 17.242C-14.76 17.6545 -14.205 17.932 -13.7175 18.0745C-14.205 18.292 -14.7 18.7495 -15.18 19.5145C-14.79 19.7545 -14.4525 19.9345 -14.145 20.062C-14.3625 20.287 -14.5725 20.5645 -14.7825 20.902L-14.76 20.917L-14.7375 20.932L-14.715 20.947H-14.7V20.962L-14.6775 20.977H-14.6625V20.992L-14.64 21.007H-14.625V21.022L-14.6025 21.037H-14.595L-14.5875 21.052L-14.565 21.067H-14.5575L-14.5425 21.082L-14.52 21.097L-14.505 21.112L-14.4825 21.127L-14.4675 21.1345H-14.445V21.1495H-14.43L-14.4075 21.172L-14.3925 21.1795H-14.3775V21.187H-14.355L-14.34 21.2095L-14.3175 21.2245H-14.3025V21.232H-14.2875L-14.2725 21.247L-14.25 21.262H-14.2425L-14.235 21.2695H-14.22L-14.2125 21.2845H-14.205L-14.1825 21.2995L-14.175 21.307H-14.16V21.322H-14.145L-14.13 21.337L-14.115 21.3445H-14.1V21.352H-14.085L-14.07 21.367L-14.055 21.3745H-14.04V21.382H-14.025L-14.01 21.397L-13.995 21.4045H-13.98V21.412H-13.965L-13.9575 21.427L-13.9425 21.4345H-13.935L-13.9275 21.442H-13.9125L-13.905 21.4495H-13.8975L-13.8825 21.457H-13.875H-13.86V21.4645H-13.845L-13.83 21.4795H-13.815H-13.8H-13.785L-13.77 21.4945H-13.755H-13.74H-13.725C-13.92 21.832 -14.0475 22.237 -14.115 22.687C-13.2975 22.672 -12.645 22.522 -12.2475 22.2295C-12.255 22.687 -12.1425 23.1745 -11.9325 23.6095C-11.3325 23.197 -10.8675 22.7995 -10.605 22.4095C-10.3875 23.0245 -9.71249 23.6545 -8.74499 24.307C-8.58749 23.9695 -8.47499 23.617 -8.41499 23.257C-8.10749 23.212 -7.83749 23.137 -7.62749 23.032C-7.62749 23.122 -7.62749 23.2195 -7.62749 23.317C-6.80999 23.302 -6.18749 23.152 -5.84249 22.8595C-5.77499 23.317 -5.57999 23.8045 -5.29499 24.2395C-4.85999 23.902 -4.51499 23.5795 -4.29749 23.257C-3.83249 23.1895 -3.47249 23.0545 -3.23249 22.852C-3.16499 23.3095 -2.96999 23.797 -2.68499 24.232C-2.38499 23.9995 -2.12999 23.7745 -1.92749 23.557C-1.72499 23.782 -1.46999 24.007 -1.16999 24.232C-0.88499 23.7895 -0.68999 23.3095 -0.62249 22.852C-0.30749 23.1145 0.225009 23.2645 0.922509 23.302C1.16251 23.737 1.51501 24.127 1.92001 24.4495C2.41501 23.572 2.72251 22.807 2.75251 22.1995C2.97751 22.6495 3.49501 23.1145 4.20001 23.5945C4.41001 23.152 4.52251 22.672 4.51501 22.2145C4.80001 22.4245 5.22001 22.5595 5.73001 22.627C5.72251 23.182 5.86501 23.767 6.11251 24.2995C7.07251 23.6395 7.75501 23.017 7.96501 22.402C8.22751 22.792 8.69251 23.1895 9.29251 23.602C9.50251 23.1595 9.61501 22.6795 9.60751 22.222C10.005 22.5145 10.6575 22.6645 11.475 22.6795C11.4075 22.2295 11.2875 21.8395 11.1 21.5095H11.115V21.502H11.13L11.145 21.4945H11.16H11.175H11.19L11.205 21.487H11.22H11.235V21.4795H11.25L11.265 21.4645H11.28H11.295H11.31L11.325 21.4495L11.34 21.442H11.355L11.37 21.427H11.385V21.4195H11.4L11.415 21.4045L11.43 21.397H11.445V21.3895H11.4675L11.4825 21.3745L11.4975 21.367H11.5125V21.3595H11.535L11.55 21.3445L11.5725 21.337H11.5875V21.3295H11.61L11.625 21.3145L11.6475 21.2995H11.6625L11.67 21.292H11.6925L11.7 21.277H11.7075L11.73 21.262H11.7375L11.745 21.2545H11.7675L11.775 21.2395H11.7825L11.805 21.2245H11.8125L11.82 21.217L11.8425 21.202H11.85L11.865 21.1945H11.8875L11.895 21.1795H11.91L11.9325 21.157L11.9475 21.142L11.97 21.127L11.985 21.112L12.0075 21.097L12.0225 21.082L12.045 21.067L12.06 21.052L12.0825 21.037L12.0975 21.022L12.12 21.007L12.1425 20.992L12.165 20.977L12.1875 20.962L12.21 20.947L12.2325 20.932L12.255 20.917C12.045 20.5795 11.8275 20.302 11.6175 20.077C11.925 19.957 12.27 19.777 12.6525 19.5295C12.1725 18.7645 11.6775 18.307 11.19 18.0895C11.6775 17.947 12.2325 17.6695 12.9 17.257C12.5325 16.6645 12.15 16.2145 11.775 15.892L11.7975 15.877ZM-7.20749 21.667L-7.22249 21.637H-7.18499L-7.20749 21.667ZM-5.68499 21.7045C-5.68499 21.7045 -5.70749 21.6595 -5.71499 21.637H-5.63999C-5.63999 21.637 -5.66999 21.682 -5.68499 21.7045ZM-3.07499 21.7045C-3.07499 21.7045 -3.09749 21.6595 -3.10499 21.637H-3.02999C-3.02999 21.637 -3.05999 21.682 -3.07499 21.7045ZM-0.86249 21.7045C-0.86249 21.7045 -0.89249 21.6595 -0.90749 21.637H-0.832491C-0.832491 21.637 -0.85499 21.682 -0.86249 21.7045Z" fill="#91A129"/>
</g>
</svg>
