<svg width="24" height="24" viewBox="0 0 24 24" fill="none" xmlns="http://www.w3.org/2000/svg">
<mask id="mask0_44_148548" style="mask-type:luminance" maskUnits="userSpaceOnUse" x="0" y="0" width="24" height="24">
<path d="M24 0H0V24H24V0Z" fill="white"/>
</mask>
<g mask="url(#mask0_44_148548)">
<path fill-rule="evenodd" clip-rule="evenodd" d="M28.3274 -5.88023H28.3349H28.3424H28.3499H28.3574H28.3649H28.3724H28.3799H28.3874H28.3949H28.4024H28.4099H28.4174H28.4249H28.4324L28.4399 -5.88773H28.4474H28.4549H28.4699V-5.89523H28.4774L28.4849 -5.90273H28.4924V-5.91023L28.4999 -5.91773H28.5074H28.5149H28.5224V-5.92523L28.5299 -5.93273H28.5374L28.5449 -5.94023L28.5524 -5.94773H28.5599H28.5674H28.5824V-5.95523L28.5974 -5.96273H28.6049H28.6124H28.6199V-5.97023H28.6349V-5.97773H28.6424H28.6574H28.6649L28.6724 -5.98523L28.6874 -5.99273H28.6949H28.7099V-6.00023L28.7174 -6.00773H28.7249H28.7324H28.7474C28.8974 -6.09773 29.0549 -6.18773 29.2274 -6.29273C28.6124 -7.28273 27.9599 -7.80023 27.3374 -7.97273C27.9224 -8.29523 28.5074 -8.94023 29.1674 -9.99023C28.0049 -10.7252 27.0374 -10.9802 26.2649 -10.8902C26.3249 -10.9727 26.3774 -11.0627 26.4374 -11.1602C25.5749 -11.7077 24.8624 -11.8727 24.3074 -11.7827C24.6299 -12.3302 24.8849 -13.1027 25.0874 -14.1452C23.2424 -14.5052 22.0124 -14.2052 21.2849 -13.5452C21.3299 -13.9877 21.3149 -14.5127 21.2474 -15.1577C20.4749 -15.0677 19.8674 -14.8877 19.4024 -14.6402C19.1849 -15.2777 18.7499 -15.9827 18.0524 -16.7402C17.1224 -15.8777 16.5524 -15.1652 16.2974 -14.5127C15.8099 -14.8277 15.1349 -15.0527 14.2274 -15.1577C14.1674 -14.6102 14.1449 -14.1452 14.1749 -13.7477C13.4324 -14.2652 12.2699 -14.4677 10.6199 -14.1452C10.8224 -13.1027 11.0774 -12.3377 11.3999 -11.7827C10.8449 -11.8727 10.1324 -11.7077 9.26986 -11.1602C9.51736 -10.7702 9.74986 -10.4552 9.97486 -10.2152C9.35236 -10.3127 8.56486 -10.1177 7.60486 -9.51023C7.93486 -8.98523 8.24236 -8.59523 8.53486 -8.31023C7.75486 -8.26523 6.91486 -7.73273 6.11236 -6.50273C6.67486 -6.15023 7.15486 -5.91023 7.57486 -5.76773C6.98986 -5.57273 6.37486 -5.05523 5.79736 -4.12523C6.35986 -3.77273 6.83986 -3.54023 7.25236 -3.42023C6.83986 -3.23273 6.41236 -2.85023 6.00736 -2.19773C6.33736 -1.99523 6.62986 -1.83773 6.89236 -1.73273C6.71236 -1.54523 6.52486 -1.30523 6.34486 -1.02023L6.36736 -1.00523H6.38236V-0.990233L6.39736 -0.975233H6.41236V-0.960234H6.42736L6.44236 -0.937733L6.45736 -0.922733H6.47236V-0.915233H6.48736L6.50236 -0.892734L6.51736 -0.877733H6.53236V-0.870233H6.54736L6.56236 -0.855233L6.57736 -0.840234H6.59236V-0.832734H6.60736L6.61486 -0.817733L6.62986 -0.802733H6.63736V-0.795233H6.65236L6.65986 -0.780234H6.66736L6.68236 -0.765234H6.68986L6.69736 -0.757734H6.71236L6.71986 -0.742733H6.72736L6.74236 -0.727733L6.74986 -0.720233H6.76486V-0.705234H6.77236L6.78736 -0.690233L6.79486 -0.682733H6.80986V-0.675233H6.82486L6.83986 -0.660233L6.85486 -0.652734H6.86986V-0.645234H6.88486L6.89986 -0.630233H6.91486H6.92986V-0.622733H6.94486L6.95986 -0.607733H6.97486H6.98986H7.00486L7.01986 -0.592734H7.03486L7.04986 -0.577734H7.06486H7.07986H7.09486L7.10986 -0.562733H7.12486H7.13986H7.15486L7.16986 -0.555233H7.18486H7.19236H7.20736L7.21486 -0.547733H7.22986H7.23736H7.25236C7.08736 -0.262733 6.98986 0.0747672 6.92986 0.457267C7.62736 0.449767 8.17486 0.314767 8.51986 0.0672668C8.51236 0.457267 8.60986 0.869767 8.78236 1.24477C9.29236 0.892267 9.68986 0.554766 9.91486 0.224766C10.0949 0.749766 10.6724 1.28227 11.4899 1.84477C11.6999 1.39477 11.8274 0.892268 11.8199 0.419768C12.2549 0.359768 12.6074 0.247267 12.8549 0.0672668C12.8474 0.457267 12.9449 0.869767 13.1174 1.24477C13.7174 0.832267 14.1599 0.442268 14.3474 0.0597681C14.3699 0.577268 14.6324 1.22977 15.0524 1.97227C15.3974 1.70227 15.6899 1.36477 15.8999 0.989767C16.4924 0.959767 16.9424 0.832268 17.2124 0.607268C17.2724 0.997268 17.4374 1.40977 17.6774 1.78477C17.9324 1.58977 18.1499 1.39477 18.3224 1.20727C18.4949 1.39477 18.7124 1.58977 18.9674 1.78477C19.2074 1.40977 19.3724 0.997268 19.4324 0.607268C19.6349 0.772268 19.9424 0.892267 20.3399 0.952267C20.5274 1.22227 20.8199 1.49977 21.1874 1.78477C21.4274 1.40977 21.5924 0.997268 21.6524 0.607268C21.9524 0.854768 22.4774 0.989768 23.1749 0.997268C23.1749 0.914768 23.1749 0.832266 23.1749 0.757266C23.3549 0.847266 23.5799 0.907267 23.8424 0.952267C23.8949 1.25977 23.9924 1.55977 24.1274 1.84477C24.9449 1.28977 25.5224 0.749766 25.7024 0.224766C25.9274 0.554766 26.3249 0.892267 26.8349 1.24477C27.0074 0.869767 27.1124 0.457267 27.0974 0.0672668C27.4349 0.314767 27.9899 0.449767 28.6874 0.457267C28.6349 0.0672672 28.5224 -0.270233 28.3574 -0.555233H28.3724H28.3874L28.4024 -0.562733H28.4174L28.4324 -0.570233H28.4474H28.4624H28.4774L28.4849 -0.577734H28.4999H28.5074H28.5224L28.5299 -0.585234L28.5449 -0.592734H28.5524H28.5674V-0.600233H28.5749L28.5899 -0.607733H28.5974H28.6124V-0.615233H28.6274L28.6424 -0.630233H28.6574H28.6724L28.6874 -0.645234H28.7024V-0.652734H28.7174L28.7324 -0.667733L28.7474 -0.675233H28.7549H28.7699L28.7774 -0.690233L28.7924 -0.697734H28.7999L28.8074 -0.705234H28.8224V-0.720233H28.8299L28.8449 -0.735233L28.8524 -0.742733H28.8674V-0.750233H28.8824L28.8974 -0.765234L28.9124 -0.772734H28.9274V-0.780234H28.9424L28.9574 -0.795233L28.9724 -0.802733H28.9874V-0.810233H29.0024L29.0174 -0.825234L29.0324 -0.840234H29.0399V-0.847733H29.0549L29.0624 -0.862733L29.0774 -0.877733H29.0849L29.0924 -0.885234H29.1074V-0.900234H29.1149L29.1299 -0.915233L29.1449 -0.922733H29.1599V-0.937733H29.1749L29.1899 -0.960234L29.2049 -0.967734H29.2199C29.0399 -1.26773 28.8599 -1.50023 28.6799 -1.69523C28.9424 -1.80023 29.2349 -1.95023 29.5649 -2.16023C29.1599 -2.81273 28.7324 -3.20273 28.3199 -3.38273C28.7324 -3.50273 29.2124 -3.73523 29.7749 -4.08773C29.1524 -5.09273 28.4924 -5.61023 27.8624 -5.77523L28.3274 -5.88023ZM17.7149 -0.405234C17.7149 -0.405234 17.6999 -0.442734 17.6849 -0.465234H17.7524C17.7524 -0.465234 17.7224 -0.427734 17.7149 -0.405234ZM19.5899 -0.405234C19.5899 -0.405234 19.5674 -0.442734 19.5524 -0.465234H19.6199C19.6199 -0.465234 19.6049 -0.427734 19.5899 -0.405234ZM21.8099 -0.405234C21.8099 -0.405234 21.7874 -0.442734 21.7724 -0.465234H21.8399C21.8399 -0.465234 21.8249 -0.427734 21.8099 -0.405234ZM23.1074 -0.435233L23.0849 -0.457734H23.1224L23.1074 -0.435233Z" fill="#4A661C"/>
<path fill-rule="evenodd" clip-rule="evenodd" d="M43.7775 -6.59219H43.7925H43.8075H43.815H43.8225H43.8375H43.8525H43.8675L43.875 -6.59969H43.89H43.8975H43.905H43.92V-6.60719H43.935H43.9425H43.95H43.965H43.9725L43.98 -6.61469H43.995H44.01H44.0325V-6.62219H44.0475V-6.62969H44.055L44.07 -6.63719H44.085L44.0925 -6.64469L44.1075 -6.65219H44.115H44.1225H44.1375V-6.65969L44.1525 -6.66719H44.1675L44.175 -6.67469L44.19 -6.68219H44.1975H44.205H44.22V-6.68969L44.235 -6.69719H44.25H44.2575H44.2725V-6.70469H44.2875V-6.71219H44.3025H44.3175V-6.71969H44.325L44.3325 -6.72719L44.3475 -6.73469H44.355H44.37H44.385L44.3925 -6.74969L44.4075 -6.75719H44.415H44.4225V-6.76469H44.4375C44.61 -6.86969 44.7975 -6.97469 44.985 -7.09469C44.2725 -8.23469 43.5225 -8.83469 42.81 -9.02969C43.4775 -9.40469 44.1525 -10.1472 44.9175 -11.3472C43.5825 -12.1947 42.465 -12.4872 41.5725 -12.3897C41.64 -12.4872 41.7075 -12.5922 41.775 -12.6972C40.785 -13.3272 39.9675 -13.5222 39.3225 -13.4172C39.6975 -14.0547 39.99 -14.9397 40.2225 -16.1322C38.1 -16.5447 36.6825 -16.2072 35.8425 -15.4422C35.895 -15.9447 35.88 -16.5597 35.7975 -17.2947C34.905 -17.1972 34.2075 -16.9872 33.6675 -16.7022C33.4125 -17.4372 32.9175 -18.2472 32.115 -19.1172C31.0425 -18.1272 30.39 -17.3022 30.0975 -16.5522C29.535 -16.9122 28.755 -17.1747 27.7125 -17.2947C27.645 -16.6647 27.6225 -16.1247 27.645 -15.6672C26.79 -16.2672 25.455 -16.4997 23.5575 -16.1247C23.79 -14.9247 24.0825 -14.0397 24.4575 -13.4097C23.8125 -13.5147 22.995 -13.3197 22.005 -12.6897C22.29 -12.2397 22.56 -11.8797 22.815 -11.6022C22.095 -11.7147 21.1875 -11.4897 20.085 -10.7922C20.4675 -10.1922 20.82 -9.73469 21.1575 -9.40469C20.2575 -9.35219 19.29 -8.73719 18.3675 -7.31969C19.0125 -6.91469 19.5675 -6.63719 20.0475 -6.47219C19.3725 -6.24719 18.6675 -5.65469 18 -4.57469C18.6525 -4.16969 19.2 -3.89969 19.6725 -3.76469C19.2 -3.55469 18.705 -3.10469 18.24 -2.35469C18.6225 -2.11469 18.96 -1.94219 19.26 -1.82219C19.05 -1.60469 18.84 -1.33469 18.63 -1.00469L18.6525 -0.989687L18.675 -0.974687L18.6975 -0.959688L18.72 -0.944688L18.7425 -0.929688L18.7575 -0.914687L18.78 -0.899688H18.795V-0.884688L18.8175 -0.869688H18.8325V-0.854687L18.855 -0.839688H18.87V-0.824688L18.8925 -0.809688H18.9075V-0.794687L18.93 -0.779688H18.945V-0.764688L18.9675 -0.749688H18.9825V-0.742188H19.005L19.02 -0.727187H19.0275L19.05 -0.712188H19.0575L19.065 -0.704688H19.0875L19.095 -0.689688H19.1025L19.125 -0.674687H19.1325L19.14 -0.667187H19.1625L19.17 -0.652188H19.1775L19.2 -0.637188H19.2075L19.2225 -0.629688H19.2375V-0.614687H19.2525L19.275 -0.599687L19.29 -0.592188H19.305V-0.577188H19.32L19.335 -0.562188L19.35 -0.554688H19.365V-0.547187H19.38L19.395 -0.532187L19.41 -0.524688H19.425V-0.517188H19.44L19.455 -0.502188L19.47 -0.494688H19.485H19.5L19.515 -0.479687H19.53L19.545 -0.464688H19.56H19.575H19.59L19.605 -0.449688H19.62H19.635H19.65L19.665 -0.442188H19.68H19.695H19.71L19.7175 -0.434688H19.7325C19.545 -0.112188 19.425 0.277813 19.365 0.712813C20.1675 0.697813 20.805 0.547811 21.195 0.262811C21.1875 0.712811 21.3 1.18531 21.5025 1.62031C22.095 1.21531 22.545 0.832811 22.8075 0.450311C23.0175 1.05031 23.685 1.67281 24.6225 2.31031C24.87 1.79281 25.005 1.21531 24.9975 0.675313C25.5 0.607813 25.905 0.472813 26.19 0.270313C26.1825 0.720313 26.295 1.19281 26.4975 1.62781C27.1875 1.15531 27.6975 0.705311 27.915 0.262811C27.9375 0.862811 28.245 1.60531 28.7325 2.46781C29.13 2.15281 29.4675 1.76281 29.7075 1.34281C30.39 1.30531 30.915 1.15531 31.2225 0.900313C31.29 1.35031 31.485 1.82281 31.755 2.25781C32.0475 2.03281 32.295 1.80781 32.4975 1.59031C32.6925 1.80781 32.9475 2.03281 33.24 2.25781C33.5175 1.83031 33.7125 1.35031 33.7725 0.900313C34.005 1.09531 34.365 1.22281 34.815 1.29781C35.0325 1.61281 35.37 1.92781 35.79 2.25781C36.0675 1.83031 36.2625 1.35031 36.3225 0.900313C36.6675 1.18531 37.275 1.33531 38.0775 1.35031C38.0775 1.25281 38.0775 1.16281 38.0775 1.07281C38.2875 1.17781 38.5425 1.24531 38.85 1.29781C38.91 1.65031 39.0225 1.99531 39.18 2.32531C40.125 1.68031 40.785 1.06531 40.995 0.465312C41.25 0.847812 41.7075 1.23781 42.3 1.63531C42.5025 1.20781 42.615 0.727812 42.6075 0.277812C42.9975 0.562812 43.635 0.712813 44.4375 0.727813C44.37 0.277813 44.25 -0.112188 44.055 -0.434688H44.07H44.085L44.1 -0.442188H44.115H44.13H44.145L44.16 -0.449688H44.175H44.19H44.205L44.2125 -0.457188L44.2275 -0.464688H44.235H44.2425H44.2575L44.265 -0.472187H44.2725L44.2875 -0.487187H44.295H44.31V-0.494688H44.325L44.34 -0.509688L44.355 -0.517188H44.37V-0.524688H44.385L44.4 -0.539687L44.415 -0.547187H44.43V-0.554688H44.445L44.46 -0.569688L44.475 -0.577188H44.49V-0.584688H44.505L44.5125 -0.599687L44.5275 -0.614687H44.535L44.5425 -0.622188H44.5575V-0.637188H44.565L44.58 -0.652188L44.595 -0.659687H44.61V-0.674687H44.625L44.6475 -0.689688L44.6625 -0.697188H44.685V-0.704688H44.7L44.715 -0.727187L44.7375 -0.742188H44.7525V-0.749688H44.775L44.79 -0.772188L44.8125 -0.787187H44.8275V-0.794687L44.85 -0.809688H44.8575L44.865 -0.824688H44.8875L44.895 -0.839688H44.9025L44.925 -0.854687H44.9325L44.9475 -0.869688L44.97 -0.884688L44.985 -0.899688L45.0075 -0.914687L45.0225 -0.929688L45.045 -0.944688L45.0675 -0.959688L45.09 -0.974687C44.8875 -1.30469 44.6775 -1.57469 44.4675 -1.79219C44.7675 -1.91219 45.105 -2.08469 45.48 -2.32469C45.015 -3.07469 44.5275 -3.52469 44.0475 -3.73469C44.52 -3.87719 45.075 -4.13969 45.72 -4.54469C45 -5.70719 44.2425 -6.29969 43.515 -6.48719L43.7775 -6.59219ZM31.56 -0.284687C31.56 -0.284687 31.5375 -0.329687 31.53 -0.352187H31.605C31.605 -0.352187 31.575 -0.307187 31.56 -0.284687ZM33.7275 -0.284687C33.7275 -0.284687 33.6975 -0.329687 33.6825 -0.352187H33.7575C33.7575 -0.352187 33.735 -0.307187 33.7275 -0.284687ZM36.285 -0.284687C36.285 -0.284687 36.255 -0.329687 36.24 -0.352187H36.315C36.315 -0.352187 36.2925 -0.307187 36.285 -0.284687ZM37.7775 -0.322188L37.755 -0.352187H37.7925L37.7775 -0.322188Z" fill="#4A661C"/>
<path fill-rule="evenodd" clip-rule="evenodd" d="M29.4149 0.277461L32.7374 -0.405039L39.7199 -3.15754L39.6074 -7.12504L37.2674 -9.31504L36.3599 -12.3375L36.5849 -8.64004L37.9424 -7.20754L37.8674 -4.18504L33.4874 -2.82754L33.9374 -6.15004L32.1974 -2.90254L28.8749 -2.37004L25.1774 -0.405039L24.7274 -2.37004L26.9174 -5.91754L24.2024 -3.57754L23.9024 -5.69254L29.3399 -9.62254L29.7899 -13.245L28.5074 -10.68L26.6924 -9.62254L25.7099 -14.2275L25.4849 -8.79004L21.2549 -6.07504L21.8624 -1.08754L20.9549 -1.92004L17.3324 -3.05254L17.5574 -5.85004L15.3674 -9.32254L16.4999 -5.85004L15.3674 -2.97754L11.1374 -4.11004L8.34741 -9.24754L10.5374 -2.90254L19.9724 -0.187538L20.9324 2.42996C21.8399 13.065 20.0999 17.985 18.6149 20.4825C17.5349 20.6475 16.9424 21.6975 15.8324 22.1175C14.5274 22.6125 12.7124 22.5525 11.7524 23.9775H32.7749C32.1524 23.1225 30.8774 23.1825 30.0974 22.9125C29.3324 22.65 29.0624 22.05 28.5074 21.69C26.9549 17.775 26.4899 14.025 27.5999 2.42246L29.3999 0.254962L29.4149 0.277461Z" fill="#AD703E"/>
<path fill-rule="evenodd" clip-rule="evenodd" d="M16.3725 23.2346L11.76 23.9996H18.81H19.41L20.4225 22.2296L21 18.2021L19.44 21.7721L16.3725 23.2346Z" fill="#935E36"/>
<path fill-rule="evenodd" clip-rule="evenodd" d="M21.8847 23.6096L21.8322 22.7846L21.8172 19.9121L20.9247 22.7321L19.9497 23.9996H20.0097H22.8672L22.4097 21.6971L21.8847 23.6096Z" fill="#935E36"/>
<path fill-rule="evenodd" clip-rule="evenodd" d="M20.1074 16.9803L21.2249 14.7153L22.4849 8.37031L20.9324 2.44531C21.5324 9.45781 20.9774 13.9878 20.1074 16.9803Z" fill="#BF7E4C"/>
<path fill-rule="evenodd" clip-rule="evenodd" d="M18.6224 20.505C17.5424 20.67 16.9499 21.72 15.8399 22.14C14.7524 22.5525 13.3124 22.5825 12.3074 23.4L15.8549 22.5825L18.4349 21.045L19.7549 19.2075L19.5599 18.585C19.2524 19.35 18.9299 19.98 18.6224 20.505Z" fill="#BF7E4C"/>
<path fill-rule="evenodd" clip-rule="evenodd" d="M23.9474 23.108L23.7974 15.8105L23.2124 21.9755L22.9349 20.693L22.5599 23.363L22.5374 24.0005H25.0799L24.2699 22.1255L23.9474 23.108Z" fill="#935E36"/>
<path fill-rule="evenodd" clip-rule="evenodd" d="M20.4224 22.2299L21.1049 20.3999L21.2924 16.9424L20.9999 18.2024L20.4224 22.2299Z" fill="#BF7E4C"/>
<path fill-rule="evenodd" clip-rule="evenodd" d="M23.7974 15.8105L23.8874 20.3555L24.4499 17.078L24.1949 10.9355L23.7974 15.8105Z" fill="#BF7E4C"/>
<path fill-rule="evenodd" clip-rule="evenodd" d="M22.485 18.2095L22.5825 11.9395L22.3125 14.107L22.485 18.2095Z" fill="#935E36"/>
<path fill-rule="evenodd" clip-rule="evenodd" d="M17.0625 24.0003H19.41L20.4225 22.2303L20.8125 19.5303L19.4775 22.5978L17.0625 24.0003Z" fill="#7A4D2E"/>
<path fill-rule="evenodd" clip-rule="evenodd" d="M23.7298 23.6319L23.6098 20.7744L23.2048 22.7019L22.4773 23.9994H24.8623L24.1873 23.1894L23.7298 23.6319Z" fill="#7A4D2E"/>
<path fill-rule="evenodd" clip-rule="evenodd" d="M20.7373 14.1602L21.2923 13.4102L21.7723 7.39516L21.0823 4.41016C21.3223 8.53516 21.1423 11.7002 20.7373 14.1602Z" fill="#C88C63"/>
<path fill-rule="evenodd" clip-rule="evenodd" d="M18.8474 -1.47805L11.2424 -3.16555L9.44238 -6.06055L10.5374 -2.88805L19.9799 -0.173046L20.9324 2.44445L20.6774 -0.195547L18.8474 -1.47805Z" fill="#935E36"/>
<path fill-rule="evenodd" clip-rule="evenodd" d="M23.9849 -2.23516L24.4124 1.02734L25.1849 -0.397657L24.7349 -2.36266L26.9249 -5.91016L23.9849 -2.23516Z" fill="#935E36"/>
<path fill-rule="evenodd" clip-rule="evenodd" d="M20.9548 -1.91266L18.9448 -2.53516L20.5048 -1.59016L22.2598 0.224843L21.8623 -1.08016L20.9548 -1.91266Z" fill="#BF7E4C"/>
<path fill-rule="evenodd" clip-rule="evenodd" d="M21.5923 0.667969L22.0873 2.76797L23.2948 6.97547L22.3498 2.50547L21.5923 0.667969Z" fill="#935E36"/>
<path fill-rule="evenodd" clip-rule="evenodd" d="M22.635 -2.8125L22.77 -1.8675L23.37 0.742501L22.9425 -2.01L22.635 -2.8125Z" fill="#935E36"/>
<path fill-rule="evenodd" clip-rule="evenodd" d="M22.0574 11.4145L22.2074 6.68945L21.9824 8.33195L22.0574 11.4145Z" fill="#935E36"/>
</g>
</svg>
