<svg width="20" height="20" viewBox="0 0 20 20" fill="none" xmlns="http://www.w3.org/2000/svg">
<g clip-path="url(#clip0_69_3884)">
<mask id="mask0_69_3884" style="mask-type:luminance" maskUnits="userSpaceOnUse" x="0" y="1" width="20" height="18">
<path fill-rule="evenodd" clip-rule="evenodd" d="M14.0297 2.05223C13.7607 1.69532 13.2534 1.62402 12.8964 1.89297L5.03314 7.81819L5.0331 7.81814L0.322236 11.3679C0.150824 11.497 0.0377444 11.689 0.00787695 11.9016C-0.0219905 12.1141 0.0338006 12.3298 0.162976 12.5012L4.24091 17.9123C4.25826 17.9353 4.27672 17.9572 4.29619 17.978C4.4514 18.1571 4.68051 18.2704 4.93607 18.2704H19.0935C19.561 18.2704 19.94 17.8914 19.94 17.4239C19.94 16.9564 19.561 16.5774 19.0935 16.5774H12.0298L13.3663 15.6471C13.3746 15.6413 13.3829 15.6354 13.391 15.6292L19.6779 10.8917C19.8493 10.7626 19.9624 10.5706 19.9922 10.3581C20.0221 10.1455 19.9663 9.92985 19.8371 9.75845L14.0297 2.05223ZM9.42041 16.5774L10.2479 15.9146L5.21826 9.7051L1.94254 12.1734L4.35964 15.3807L5.26152 16.5774H9.42041Z" fill="white"/>
</mask>
<g mask="url(#mask0_69_3884)">
<path d="M0 0.00537109H20V20.0054H0V0.00537109Z" fill="white"/>
</g>
</g>
<defs>
<clipPath id="clip0_69_3884">
<rect width="20" height="20" fill="white"/>
</clipPath>
</defs>
</svg>
