<svg width="20" height="20" viewBox="0 0 20 20" fill="none" xmlns="http://www.w3.org/2000/svg">
<g clip-path="url(#clip0_69_3827)">
<path fill-rule="evenodd" clip-rule="evenodd" d="M11.7793 0.152C11.4093 -4.47035e-08 10.9393 0 10.0003 0C9.06132 0 8.59132 -4.47035e-08 8.22132 0.152C7.72877 0.354211 7.3367 0.743765 7.13132 1.235C7.03732 1.458 7.00132 1.719 6.98632 2.098C6.97965 2.3726 6.90305 2.64097 6.76376 2.87772C6.62448 3.11447 6.42711 3.31178 6.19032 3.451C5.94906 3.5851 5.67786 3.65615 5.40184 3.65754C5.12582 3.65894 4.85392 3.59065 4.61132 3.459C4.27332 3.281 4.02832 3.183 3.78632 3.151C3.25687 3.08148 2.72139 3.2238 2.29632 3.547C1.97832 3.789 1.74332 4.193 1.27432 5C0.804315 5.807 0.570316 6.21 0.517316 6.605C0.447316 7.131 0.591316 7.663 0.917316 8.084C1.06532 8.276 1.27432 8.437 1.59732 8.639C2.07432 8.936 2.38032 9.442 2.38032 10C2.38032 10.558 2.07432 11.064 1.59832 11.36C1.27432 11.563 1.06532 11.724 0.916315 11.916C0.755398 12.1239 0.637285 12.3617 0.5688 12.6156C0.500315 12.8694 0.482816 13.1343 0.517316 13.395C0.570316 13.789 0.804315 14.193 1.27432 15C1.74432 15.807 1.97832 16.21 2.29632 16.453C2.72032 16.776 3.25632 16.918 3.78632 16.849C4.02832 16.817 4.27332 16.719 4.61132 16.541C4.85404 16.4092 5.12613 16.3408 5.40234 16.3422C5.67855 16.3436 5.94994 16.4147 6.19132 16.549C6.67732 16.829 6.96532 17.344 6.98632 17.902C7.00132 18.282 7.03732 18.542 7.13132 18.765C7.33532 19.255 7.72732 19.645 8.22132 19.848C8.59132 20 9.06132 20 10.0003 20C10.9393 20 11.4093 20 11.7793 19.848C12.2719 19.6458 12.6639 19.2562 12.8693 18.765C12.9633 18.542 12.9993 18.282 13.0143 17.902C13.0343 17.344 13.3233 16.828 13.8103 16.549C14.0516 16.4149 14.3228 16.3439 14.5988 16.3425C14.8748 16.3411 15.1467 16.4093 15.3893 16.541C15.7273 16.719 15.9723 16.817 16.2143 16.849C16.7443 16.919 17.2803 16.776 17.7043 16.453C18.0223 16.211 18.2573 15.807 18.7263 15C19.1963 14.193 19.4303 13.79 19.4833 13.395C19.5177 13.1343 19.5 12.8693 19.4314 12.6155C19.3627 12.3616 19.2444 12.1239 19.0833 11.916C18.9353 11.724 18.7263 11.563 18.4033 11.361C17.9263 11.064 17.6203 10.558 17.6203 10C17.6203 9.442 17.9263 8.936 18.4023 8.64C18.7263 8.437 18.9353 8.276 19.0843 8.084C19.2452 7.87606 19.3633 7.63829 19.4318 7.38443C19.5003 7.13057 19.5178 6.86566 19.4833 6.605C19.4303 6.211 19.1963 5.807 18.7263 5C18.2563 4.193 18.0223 3.79 17.7043 3.547C17.2792 3.2238 16.7438 3.08148 16.2143 3.151C15.9723 3.183 15.7273 3.281 15.3893 3.459C15.1466 3.59083 14.8745 3.65922 14.5983 3.65782C14.3221 3.65642 14.0507 3.58528 13.8093 3.451C13.5727 3.31166 13.3755 3.11429 13.2364 2.87755C13.0973 2.64081 13.0209 2.37251 13.0143 2.098C12.9993 1.718 12.9633 1.458 12.8693 1.235C12.7677 0.991736 12.6191 0.770883 12.4321 0.585058C12.245 0.399233 12.0232 0.252078 11.7793 0.152ZM10.0003 13C11.6703 13 13.0233 11.657 13.0233 10C13.0233 8.343 11.6693 7 10.0003 7C8.33032 7 6.97732 8.343 6.97732 10C6.97732 11.657 8.33132 13 10.0003 13Z" fill="white"/>
</g>
<defs>
<clipPath id="clip0_69_3827">
<rect width="20" height="20" fill="white"/>
</clipPath>
</defs>
</svg>
