<svg width="20" height="20" viewBox="0 0 20 20" fill="none" xmlns="http://www.w3.org/2000/svg">
<g clip-path="url(#clip0_69_3896)">
<path d="M10.2361 5.11868H7.67675V7.67803H5.1174V10.2374H7.67675V12.7967H10.2361V10.2374H12.7955V7.67803H10.2361V5.11868ZM20 17.7721L16.303 14.0751C17.3165 12.624 17.9154 10.8619 17.9154 8.9577C17.9154 4.0105 13.9037 0 8.95772 0C4.01178 0 0 4.0105 0 8.9577C0 13.9049 4.01048 17.9154 8.95772 17.9154C10.8619 17.9154 12.6253 17.3165 14.0764 16.303L17.7734 20L20 17.7721ZM8.95643 15.3574C5.42325 15.3574 2.55807 12.4934 2.55807 8.95898C2.55807 5.42453 5.42325 2.56062 8.95643 2.56062C12.4909 2.56062 15.3548 5.42453 15.3548 8.95898C15.3561 12.4934 12.4922 15.3574 8.95643 15.3574Z" fill="white"/>
</g>
<defs>
<clipPath id="clip0_69_3896">
<rect width="20" height="20" fill="white"/>
</clipPath>
</defs>
</svg>
